<?xml version="1.0" standalone="no"?>
<!DOCTYPE svg PUBLIC "-//W3C//DTD SVG 1.1//EN" "http://www.w3.org/Graphics/SVG/1.1/DTD/svg11.dtd" >
<svg xmlns="http://www.w3.org/2000/svg" xmlns:xlink="http://www.w3.org/1999/xlink" version="1.1">
<metadata>
Created by FontForge 20170731 at Fri Feb 24 17:55:47 2017
 By ,,,
Copyright (c) 2013 by Mariya V. Pigoulevskaya. All rights reserved.
</metadata>
<defs>
<font id="NeusaNextPro-Bold" horiz-adv-x="324" >
  <font-face 
    font-family="Neusa Next Pro"
    font-weight="700"
    font-stretch="normal"
    units-per-em="1000"
    panose-1="0 0 8 0 0 0 0 0 0 0"
    ascent="770"
    descent="-230"
    x-height="510"
    cap-height="710"
    bbox="-560 -261 1180 1002"
    underline-thickness="50"
    underline-position="-200"
    unicode-range="U+0020-2265"
  />
<missing-glyph horiz-adv-x="500" 
d="M410 770v-1000h-317v1000h317zM333 703h-165v-33h65v-37h-66v-33h166v33h-66v37h66v33zM267 574h-100v-104h166v34h-66v70zM233 540v-36h-33v36h33zM333 443h-166v-33h66v-37h-66v-33h100v70h66v33zM333 383h-33v-66h-133v-34h166v100zM333 261h-100v-56h34v23h33v-47
h-100v80h-33v-113h166v113zM333 88h-166v-113h166v113zM300 55v-47h-100v47h100zM333 -48h-166v-33h70l-70 -47v-33h166v33h-102l70 47h32v33z" />
    <glyph glyph-name=".notdef" horiz-adv-x="500" 
d="M410 770v-1000h-317v1000h317zM333 703h-165v-33h65v-37h-66v-33h166v33h-66v37h66v33zM267 574h-100v-104h166v34h-66v70zM233 540v-36h-33v36h33zM333 443h-166v-33h66v-37h-66v-33h100v70h66v33zM333 383h-33v-66h-133v-34h166v100zM333 261h-100v-56h34v23h33v-47
h-100v80h-33v-113h166v113zM333 88h-166v-113h166v113zM300 55v-47h-100v47h100zM333 -48h-166v-33h70l-70 -47v-33h166v33h-102l70 47h32v33z" />
    <glyph glyph-name=".null" horiz-adv-x="0" 
 />
    <glyph glyph-name="nonmarkingreturn" horiz-adv-x="333" 
 />
    <glyph glyph-name="space" unicode=" " horiz-adv-x="238" 
 />
    <glyph glyph-name="exclam" unicode="!" horiz-adv-x="282" 
d="M218 710v-250l-20 -237h-115l-20 235v252h155zM66 0v146h150v-146h-150z" />
    <glyph glyph-name="quotedbl" unicode="&#x22;" horiz-adv-x="451" 
d="M194 770l-24 -230h-110l-23 230h157zM414 770l-24 -230h-110l-23 230h157z" />
    <glyph glyph-name="numbersign" unicode="#" horiz-adv-x="699" 
d="M672 418h-94l-26 -125h65v-135h-92l-32 -158h-146l32 158h-133l-32 -158h-145l32 158h-74v135h101l26 125h-72v135h99l32 157h146l-32 -157h132l32 157h146l-32 -157h67v-135zM406 293l26 125h-133l-25 -125h132z" />
    <glyph glyph-name="dollar" unicode="$" horiz-adv-x="624" 
d="M588 210q0 -83 -52.5 -142t-147.5 -77v-91h-150v92q-98 18 -153 79t-55 149v25h155v-35q0 -39 39.5 -63t94.5 -24q45 0 79 20.5t34 59.5q0 31 -28.5 51.5t-71.5 31t-93.5 26.5t-93.5 36t-71.5 62t-28.5 102q0 79 48 135.5t145 72.5v90h150v-92q93 -17 140.5 -72
t47.5 -137v-33h-155v37q0 32 -33 52t-82 20q-46 0 -75.5 -18t-29.5 -51q0 -24 28.5 -41.5t71.5 -27.5t93.5 -27.5t93.5 -39.5t71.5 -66t28.5 -104z" />
    <glyph glyph-name="percent" unicode="%" horiz-adv-x="761" 
d="M190 365q-69 0 -113 32t-44 82v132q0 50 43.5 82t112.5 32q70 0 114 -32t44 -82v-132q0 -50 -44 -82t-113 -32zM95 0l454 710h119l-454 -710h-119zM190 456q25 0 40.5 11t15.5 27v103q0 15 -15.5 25.5t-39.5 10.5q-25 0 -40.5 -10.5t-15.5 -25.5v-103q0 -16 15 -27
t40 -11zM571 -15q-69 0 -113 32t-44 82v132q0 50 43.5 82t112.5 32q70 0 114 -32t44 -82v-132q0 -50 -44 -82t-113 -32zM571 76q25 0 40.5 11t15.5 27v103q0 15 -15.5 25.5t-39.5 10.5q-25 0 -40.5 -10.5t-15.5 -25.5v-103q0 -16 15 -27t40 -11z" />
    <glyph glyph-name="ampersand" unicode="&#x26;" horiz-adv-x="658" 
d="M647 429v-132h-69v-110q0 -80 -54 -133.5t-132 -53.5h-151q-78 0 -132.5 52t-54.5 130v67q0 65 41 114q-41 47 -41 113v52q0 78 54.5 130t132.5 52h224v-135h-225q-14 0 -22.5 -11t-8.5 -29v-66q0 -18 8.5 -29t22.5 -11h183v81h155v-81h69zM423 175v122h-183
q-14 0 -22.5 -11t-8.5 -30v-81q0 -18 9 -29t23 -11h151q14 0 22.5 11t8.5 29z" />
    <glyph glyph-name="quotesingle" unicode="'" horiz-adv-x="231" 
d="M194 770l-24 -230h-110l-23 230h157z" />
    <glyph glyph-name="parenleft" unicode="(" horiz-adv-x="320" 
d="M300 -165q-112 0 -176 59.5t-64 161.5v493q0 102 63.5 161.5t176.5 59.5v-135q-90 0 -90 -87v-491q0 -87 90 -87v-135z" />
    <glyph glyph-name="parenright" unicode=")" horiz-adv-x="320" 
d="M19 -165v135q90 0 90 87v491q0 87 -90 87v135q113 0 176.5 -59.5t63.5 -161.5v-493q0 -102 -63.5 -161.5t-176.5 -59.5z" />
    <glyph glyph-name="asterisk" unicode="*" horiz-adv-x="368" 
d="M345 607l-96 -13l71 -68l-94 -70l-42 91l-42 -91l-94 70l71 68l-96 13l36 114l85 -48l-18 97h116l-18 -97l85 48z" />
    <glyph glyph-name="plus" unicode="+" horiz-adv-x="516" 
d="M474 435v-140h-141v-162h-148v162h-143v140h143v163h148v-163h141z" />
    <glyph glyph-name="comma" unicode="," horiz-adv-x="259" 
d="M204 146v-146l-69 -163h-64l41 163h-58v146h150z" />
    <glyph glyph-name="hyphen" unicode="-" horiz-adv-x="334" 
d="M39 210v130h256v-130h-256z" />
    <glyph glyph-name="period" unicode="." horiz-adv-x="259" 
d="M54 0v146h150v-146h-150z" />
    <glyph glyph-name="slash" unicode="/" horiz-adv-x="400" 
d="M227 745h149l-203 -795h-149z" />
    <glyph glyph-name="zero" unicode="0" horiz-adv-x="634" 
d="M318 -15q-123 0 -197.5 62t-74.5 165v286q0 103 74 165t197 62q122 0 196.5 -62t74.5 -165v-286q0 -103 -74 -165t-196 -62zM317 125q55 0 85.5 25.5t30.5 68.5v272q0 43 -30 68.5t-85 25.5q-56 0 -86.5 -25.5t-30.5 -68.5v-272q0 -43 30.5 -68.5t85.5 -25.5z" />
    <glyph glyph-name="one" unicode="1" horiz-adv-x="457" 
d="M313 140h126v-140h-406v140h125v430h-125v140h280v-570z" />
    <glyph glyph-name="two" unicode="2" horiz-adv-x="587" 
d="M552 493q0 -54 -31 -101.5t-77.5 -81t-93.5 -61.5t-85.5 -56t-47.5 -53h328v-140h-500v73q0 64 36.5 119.5t88 94.5t103 73t88 69.5t36.5 69.5v21q0 31 -25 48t-70 17q-44 0 -69 -22.5t-25 -64.5v-29h-155v22q0 105 69.5 169.5t182.5 64.5q111 0 179 -56t68 -147v-29z
" />
    <glyph glyph-name="three" unicode="3" horiz-adv-x="607" 
d="M561 476q0 -68 -49 -117q49 -49 49 -117v-50q0 -95 -71 -151t-186 -56t-186.5 59t-71.5 155v29h155v-36q0 -31 27.5 -49t75.5 -18q102 0 102 60v57q0 50 -83 50h-122v134h122q83 0 83 50v49q0 60 -101 60q-48 0 -76 -18t-28 -49v-39h-155v32q0 96 71.5 155t186.5 59
t186 -56t71 -151v-42z" />
    <glyph glyph-name="four" unicode="4" horiz-adv-x="575" 
d="M370 458h155v-458h-155v149h-329v140l178 421h170l-178 -421h159v169z" />
    <glyph glyph-name="five" unicode="5" horiz-adv-x="580" 
d="M335 451q90 0 144.5 -55t54.5 -145v-59q0 -94 -67 -150.5t-177 -56.5t-177 56.5t-67 150.5v52h155v-63q0 -29 23 -44.5t66 -15.5t66 15.5t23 44.5v81q0 25 -14.5 39t-36.5 14h-263v395h442v-140h-287v-119h115z" />
    <glyph glyph-name="six" unicode="6" horiz-adv-x="607" 
d="M326 460q104 0 170 -51.5t66 -140.5v-76q0 -93 -72 -150t-186 -57t-186 61t-72 160v290q0 105 72.5 167t184.5 62q111 0 183.5 -59.5t72.5 -160.5h-154q0 40 -27.5 62t-73.5 22q-48 0 -75.5 -24t-27.5 -68v-71q58 34 125 34zM407 195v77q0 28 -28 44t-74 16
q-48 0 -76 -18.5t-28 -48.5v-70q0 -35 28 -54.5t76 -19.5q46 0 74 19.5t28 54.5z" />
    <glyph glyph-name="seven" unicode="7" horiz-adv-x="518" 
d="M19 710h480v-140l-285 -570h-169l284 570h-310v140z" />
    <glyph glyph-name="eight" unicode="8" horiz-adv-x="626" 
d="M515 360q65 -50 65 -129v-59q0 -84 -73.5 -135.5t-192.5 -51.5q-120 0 -194 51t-74 136v59q0 79 64 129q-58 47 -58 121v50q0 88 72 141t189 53t188.5 -53t71.5 -141v-50q0 -74 -58 -121zM207 477q0 -28 28 -44t78 -16t77.5 16t27.5 44v51q0 31 -27.5 49t-76.5 18
q-50 0 -78.5 -18t-28.5 -49v-51zM425 175v59q0 31 -29.5 49t-81.5 18q-53 0 -83 -18t-30 -49v-59q0 -28 29.5 -44t82.5 -16t82.5 16t29.5 44z" />
    <glyph glyph-name="nine" unicode="9" horiz-adv-x="607" 
d="M304 725q113 0 185 -60.5t72 -159.5v-291q0 -105 -72.5 -167t-183.5 -62t-184 60t-73 160h154q0 -40 27.5 -62t74.5 -22t74.5 24t27.5 68v64q-58 -34 -124 -34q-104 0 -170 52t-66 141v82q0 93 72 150t186 57zM303 372q48 0 75.5 18.5t27.5 48.5v77q0 35 -28 54t-75 19
t-74.5 -19t-27.5 -54v-84q0 -28 27.5 -44t74.5 -16z" />
    <glyph glyph-name="colon" unicode=":" horiz-adv-x="279" 
d="M64 364v146h150v-146h-150zM64 0v146h150v-146h-150z" />
    <glyph glyph-name="semicolon" unicode=";" horiz-adv-x="279" 
d="M64 364v146h150v-146h-150zM214 146v-146l-69 -163h-64l41 163h-58v146h150z" />
    <glyph glyph-name="less" unicode="&#x3c;" horiz-adv-x="498" 
d="M456 487l-170 -123l169 -121l-81 -107l-332 229l332 229z" />
    <glyph glyph-name="equal" unicode="=" horiz-adv-x="516" 
d="M38 415v140h429v-140h-429zM38 175v140h429v-140h-429z" />
    <glyph glyph-name="greater" unicode="&#x3e;" horiz-adv-x="498" 
d="M124 594l332 -229l-332 -229l-81 107l169 121l-170 123z" />
    <glyph glyph-name="question" unicode="?" horiz-adv-x="632" 
d="M228 223v43q0 45 15 79t37.5 51.5t48.5 33t48.5 25t37.5 26.5t15 39q0 32 -29.5 48.5t-79.5 16.5q-66 0 -99.5 -26.5t-33.5 -73.5v-28h-150v30q0 107 74.5 172.5t201.5 65.5q132 0 201.5 -56.5t69.5 -151.5q0 -57 -21.5 -95.5t-51.5 -57t-60.5 -33t-52 -36t-21.5 -54.5
v-18h-150zM228 0v146h150v-146h-150z" />
    <glyph glyph-name="at" unicode="@" horiz-adv-x="847" 
d="M428 628q169 0 273 -72.5t104 -196.5v-154q0 -88 -48.5 -137.5t-141.5 -49.5q-70 0 -116 49q-45 -49 -107 -49q-72 0 -111.5 47t-39.5 135v80q0 88 39.5 135t111.5 47q54 0 95 -37l14 22h93v-280q0 -23 6 -31.5t25 -8.5q56 0 56 40v208q0 141 -255 141
q-122 0 -190.5 -54.5t-68.5 -149.5v-148q0 -94 66 -147.5t188 -53.5q56 0 102 10l13 -109q-63 -13 -120 -13q-175 0 -275 87t-100 235v130q0 152 106 238.5t281 86.5zM418 153q39 0 39 27v120q0 27 -39 27q-40 0 -40 -43v-88q0 -43 40 -43z" />
    <glyph glyph-name="A" unicode="A" horiz-adv-x="645" 
d="M478 0l-37 125h-238l-37 -125h-152l198 710h221l198 -710h-153zM401 265l-79 283l-79 -283h158z" />
    <glyph glyph-name="B" unicode="B" horiz-adv-x="614" 
d="M511 372q71 -52 71 -134v-41q0 -86 -59.5 -141.5t-151.5 -55.5h-321v710h303q92 0 152 -50t60 -127v-51q0 -67 -54 -110zM357 575h-152v-148h151q22 0 38 15t16 38v50q0 19 -16 32t-37 13zM427 190v50q0 23 -14.5 38t-38.5 15h-169v-158h168q24 0 39 16t15 39z" />
    <glyph glyph-name="C" unicode="C" horiz-adv-x="656" 
d="M329 -15q-133 0 -210.5 62t-77.5 165v286q0 104 77 165.5t210 61.5t209.5 -61.5t76.5 -165.5v-64h-161v57q0 44 -32 69t-92 25q-64 0 -98.5 -25t-34.5 -69v-272q0 -44 34 -69t98 -25q60 0 92.5 25t32.5 69v57h161v-64q0 -104 -76.5 -165.5t-208.5 -61.5z" />
    <glyph glyph-name="D" unicode="D" horiz-adv-x="649" 
d="M329 710q128 0 203.5 -62t75.5 -165v-256q0 -103 -75.5 -165t-202.5 -62h-280v710h279zM453 234v242q0 43 -30 68.5t-83 25.5h-135v-430h134q53 0 83.5 25.5t30.5 68.5z" />
    <glyph glyph-name="E" unicode="E" horiz-adv-x="535" 
d="M508 570h-303v-155h263v-140h-263v-135h303v-140h-458v710h458v-140z" />
    <glyph glyph-name="F" unicode="F" horiz-adv-x="528" 
d="M508 570h-303v-180h273v-140h-273v-250h-155v710h458v-140z" />
    <glyph glyph-name="G" unicode="G" horiz-adv-x="656" 
d="M614 454h-155v37q0 43 -35.5 68.5t-94.5 25.5q-61 0 -97 -25.5t-36 -68.5v-272q0 -43 36 -68.5t96 -25.5t95.5 25.5t35.5 68.5v26h-134v140h289v-173q0 -104 -76.5 -165.5t-208.5 -61.5q-133 0 -210.5 62t-77.5 165v286q0 104 77 165.5t210 61.5t209.5 -61.5t76.5 -165.5
v-44z" />
    <glyph glyph-name="H" unicode="H" horiz-adv-x="660" 
d="M455 710h155v-710h-155v275h-250v-275h-155v710h155v-295h250v295z" />
    <glyph glyph-name="I" unicode="I" horiz-adv-x="255" 
d="M50 0v710h155v-710h-155z" />
    <glyph glyph-name="J" unicode="J" horiz-adv-x="382" 
d="M18 0v140h66q93 0 93 117v453h155v-453q0 -113 -69.5 -185t-187.5 -72h-57z" />
    <glyph glyph-name="K" unicode="K" horiz-adv-x="662" 
d="M644 0h-191l-248 336v-336h-155v710h155v-317l239 317h194l-259 -346z" />
    <glyph glyph-name="L" unicode="L" horiz-adv-x="527" 
d="M205 140h310v-140h-465v710h155v-570z" />
    <glyph glyph-name="M" unicode="M" horiz-adv-x="763" 
d="M713 710v-710h-140v466l-136 -466h-111l-136 464v-464h-140v710h194l138 -419l137 419h194z" />
    <glyph glyph-name="N" unicode="N" horiz-adv-x="631" 
d="M438 710h144v-710h-144l-244 426v-426h-144v710h144l244 -428v428z" />
    <glyph glyph-name="O" unicode="O" horiz-adv-x="662" 
d="M332 -15q-135 0 -213 61.5t-78 165.5v286q0 104 77.5 165.5t212.5 61.5t212.5 -61.5t77.5 -165.5v-286q0 -104 -77 -165.5t-212 -61.5zM331 125q135 0 135 94v272q0 94 -134 94q-136 0 -136 -94v-272q0 -44 33.5 -69t101.5 -25z" />
    <glyph glyph-name="P" unicode="P" horiz-adv-x="609" 
d="M349 710q105 0 169 -56.5t64 -150.5v-66q0 -94 -63.5 -150.5t-168.5 -56.5h-145v-230h-155v710h299zM427 430v80q0 28 -18 44t-49 16h-155v-200h154q31 0 49.5 16t18.5 44z" />
    <glyph glyph-name="Q" unicode="Q" horiz-adv-x="669" 
d="M653 -31l-72 -125l-245 141h-4q-135 0 -213 61.5t-78 165.5v286q0 104 77.5 165.5t212.5 61.5t212.5 -61.5t77.5 -165.5v-286q0 -112 -88 -174zM196 219q0 -44 33.5 -69t101.5 -25q135 0 135 94v272q0 94 -134 94q-136 0 -136 -94v-272z" />
    <glyph glyph-name="R" unicode="R" horiz-adv-x="620" 
d="M430 0l-100 256h-125v-256h-155v710h299q105 0 169 -56t64 -149v-44q0 -120 -100 -174l109 -287h-161zM205 570v-174h154q32 0 50 15t18 43v58q0 27 -18 42.5t-49 15.5h-155z" />
    <glyph glyph-name="S" unicode="S" horiz-adv-x="624" 
d="M318 -15q-132 0 -208.5 65t-76.5 170v25h155v-35q0 -39 39.5 -63t94.5 -24q45 0 79 20.5t34 59.5q0 31 -28.5 51.5t-71.5 31t-93.5 26.5t-93.5 36t-71.5 62t-28.5 102q0 93 66 153t197 60t199.5 -59t68.5 -157v-33h-155v37q0 32 -33 52t-82 20q-46 0 -75.5 -18t-29.5 -51
q0 -24 28.5 -41.5t71.5 -27.5t93.5 -27.5t93.5 -39.5t71.5 -66t28.5 -104q0 -99 -72 -162t-201 -63z" />
    <glyph glyph-name="T" unicode="T" horiz-adv-x="551" 
d="M543 710v-140h-189v-570h-155v570h-191v140h535z" />
    <glyph glyph-name="U" unicode="U" horiz-adv-x="644" 
d="M323 -15q-130 0 -206 62t-76 165v498h155v-491q0 -44 33 -69t93 -25t92.5 25t32.5 69v491h155v-498q0 -104 -75 -165.5t-204 -61.5z" />
    <glyph glyph-name="V" unicode="V" horiz-adv-x="627" 
d="M457 711h156l-188 -710h-223l-188 710h158l142 -523z" />
    <glyph glyph-name="W" unicode="W" horiz-adv-x="946" 
d="M770 711h162l-164 -710h-203l-92 410l-92 -410h-204l-163 710h163l109 -539l115 539h138l122 -541z" />
    <glyph glyph-name="X" unicode="X" horiz-adv-x="645" 
d="M632 710l-221 -361l211 -349h-180l-127 211l-128 -211h-170l208 360l-211 350h180l130 -215l134 215h174z" />
    <glyph glyph-name="Y" unicode="Y" horiz-adv-x="629" 
d="M615 710l-223 -472v-238h-155v236l-223 474h169l133 -291l132 291h167z" />
    <glyph glyph-name="Z" unicode="Z" horiz-adv-x="553" 
d="M204 140h331v-140h-516v148l325 422h-307v140h492v-148z" />
    <glyph glyph-name="bracketleft" unicode="[" horiz-adv-x="320" 
d="M302 635h-92v-665h92v-135h-242v935h242v-135z" />
    <glyph glyph-name="backslash" unicode="\" horiz-adv-x="400" 
d="M227 -50l-203 795h149l203 -795h-149z" />
    <glyph glyph-name="bracketright" unicode="]" horiz-adv-x="320" 
d="M260 770v-935h-243v135h93v665h-93v135h243z" />
    <glyph glyph-name="asciicircum" unicode="^" horiz-adv-x="398" 
d="M360 525h-115l-46 58l-46 -58h-114l160 200z" />
    <glyph glyph-name="underscore" unicode="_" horiz-adv-x="445" 
d="M22 -137v117h401v-117h-401z" />
    <glyph glyph-name="grave" unicode="`" horiz-adv-x="326" 
d="M24 734h170l102 -179h-142z" />
    <glyph glyph-name="a" unicode="a" horiz-adv-x="557" 
d="M406 510h99v-510h-99l-24 34q-55 -49 -147 -49q-95 0 -147 53t-52 163v108q0 110 52 163t147 53q92 0 147 -49zM269 121q39 0 62.5 21t23.5 60v106q0 39 -23.5 60t-62.5 21t-61 -21.5t-22 -62.5v-100q0 -41 22 -62.5t61 -21.5z" />
    <glyph glyph-name="b" unicode="b" horiz-adv-x="557" 
d="M321 525q200 0 200 -216v-108q0 -216 -200 -216q-91 0 -145 48l-24 -33h-99v770h150v-274q49 29 118 29zM371 205v100q0 41 -22 62.5t-61 21.5t-62 -20.5t-23 -60.5v-106q0 -39 23.5 -60t61.5 -21q39 0 61 21.5t22 62.5z" />
    <glyph glyph-name="c" unicode="c" horiz-adv-x="523" 
d="M265 -15q-107 0 -168 59.5t-61 161.5v98q0 102 61 161.5t167 59.5q101 0 162 -58t61 -154v-15h-151v19q0 34 -19.5 53.5t-51.5 19.5q-79 0 -79 -87v-96q0 -87 79 -87q32 0 51.5 19.5t19.5 53.5v19h151v-15q0 -96 -60.5 -154t-161.5 -58z" />
    <glyph glyph-name="d" unicode="d" horiz-adv-x="557" 
d="M355 770h150v-770h-99l-24 34q-53 -49 -145 -49q-201 0 -201 216v108q0 216 201 216q69 0 118 -29v274zM269 121q39 0 62.5 21t23.5 60v106q0 39 -23.5 60t-62.5 21t-61 -21.5t-22 -62.5v-100q0 -41 22 -62.5t61 -21.5z" />
    <glyph glyph-name="e" unicode="e" horiz-adv-x="526" 
d="M266 525q98 0 161 -55.5t63 -139.5v-119h-304v-9q0 -49 22.5 -73t59.5 -24q26 0 48.5 13.5t22.5 33.5v10h150q0 -81 -61.5 -129t-161.5 -48q-107 0 -168.5 61t-61.5 163v95q0 102 61.5 161.5t168.5 59.5zM186 318h151v12q0 75 -70 75q-78 0 -81 -87z" />
    <glyph glyph-name="f" unicode="f" horiz-adv-x="355" 
d="M298 635q-78 0 -78 -96v-29h124v-135h-124v-375h-150v375h-50v135h50v35q0 98 57 161.5t152 63.5h71v-135h-52z" />
    <glyph glyph-name="g" unicode="g" horiz-adv-x="557" 
d="M406 510h99v-558q0 -86 -59.5 -141.5t-172.5 -55.5q-111 0 -169.5 53.5t-58.5 131.5h150q0 -23 22 -36.5t54 -13.5q35 0 59.5 16t24.5 48v60q-49 -29 -120 -29q-95 0 -147 53t-52 163v108q0 110 52 163t147 53q92 0 147 -49zM269 121q39 0 62.5 21t23.5 60v106
q0 39 -23.5 60t-62.5 21t-61 -21.5t-22 -62.5v-100q0 -41 22 -62.5t61 -21.5z" />
    <glyph glyph-name="h" unicode="h" horiz-adv-x="562" 
d="M323 525q90 0 141 -56t51 -173v-296h-150v298q0 44 -23 67.5t-57 23.5q-33 0 -57.5 -22t-24.5 -60v-307h-150v770h150v-276q52 31 120 31z" />
    <glyph glyph-name="i" unicode="i" horiz-adv-x="259" 
d="M54 564v146h150v-146h-150zM54 0v510h150v-510h-150z" />
    <glyph glyph-name="j" unicode="j" horiz-adv-x="274" 
d="M69 564v146h150v-146h-150zM-31 -230v135h22q50 0 64 22.5t14 71.5v511h150v-550q0 -100 -53 -145t-132 -45h-65z" />
    <glyph glyph-name="k" unicode="k" horiz-adv-x="554" 
d="M552 0h-177l-171 239v-239h-150v770h150v-472l164 212h180l-187 -241z" />
    <glyph glyph-name="l" unicode="l" horiz-adv-x="259" 
d="M54 770h150v-770h-150v770z" />
    <glyph glyph-name="m" unicode="m" horiz-adv-x="814" 
d="M579 525q187 0 187 -229v-296h-150v305q0 40 -19 62t-46 22t-47 -22t-20 -64v-303h-150v305q0 40 -18.5 62t-46.5 22q-27 0 -46.5 -21.5t-19.5 -59.5v-308h-150v510h96l25 -33q51 48 123 48q99 0 145 -61q55 61 137 61z" />
    <glyph glyph-name="n" unicode="n" horiz-adv-x="562" 
d="M322 525q91 0 142 -56t51 -173v-296h-150v299q0 43 -23 66.5t-57 23.5q-33 0 -57.5 -21.5t-24.5 -59.5v-308h-150v510h96l27 -36q57 51 146 51z" />
    <glyph glyph-name="o" unicode="o" horiz-adv-x="538" 
d="M269 -15q-109 0 -171 59.5t-62 161.5v98q0 102 61.5 161.5t170.5 59.5q110 0 172 -59.5t62 -161.5v-98q0 -102 -62 -161.5t-171 -59.5zM268 120q84 0 84 87v96q0 87 -83 87t-83 -87v-96q0 -87 82 -87z" />
    <glyph glyph-name="p" unicode="p" horiz-adv-x="557" 
d="M321 525q200 0 200 -216v-108q0 -216 -200 -216q-69 0 -118 29v-244h-150v740h99l24 -33q54 48 145 48zM371 205v100q0 41 -22 62.5t-61 21.5t-62 -20.5t-23 -60.5v-106q0 -39 23.5 -60t61.5 -21q39 0 61 21.5t22 62.5z" />
    <glyph glyph-name="q" unicode="q" horiz-adv-x="557" 
d="M406 510h99v-740h-150v244q-49 -29 -118 -29q-201 0 -201 216v108q0 216 201 216q92 0 145 -49zM269 121q39 0 62.5 21t23.5 60v106q0 39 -23.5 60t-62.5 21t-61 -21.5t-22 -62.5v-100q0 -41 22 -62.5t61 -21.5z" />
    <glyph glyph-name="r" unicode="r" horiz-adv-x="376" 
d="M329 521q16 0 24 -1v-130q-31 9 -52 9q-42 0 -70 -26t-28 -76v-297h-150v510h99l29 -41q62 52 148 52z" />
    <glyph glyph-name="s" unicode="s" horiz-adv-x="473" 
d="M238 -15q-95 0 -154 48.5t-59 124.5v12h149v-12q0 -21 20 -33t50 -12q27 0 43.5 9t16.5 25t-20 27t-50.5 16.5t-65.5 16.5t-65.5 25.5t-50.5 45.5t-20 74q0 77 57.5 125t148.5 48t148 -47.5t57 -120.5v-10h-148v10q0 18 -16.5 29t-41.5 11q-26 0 -41.5 -10.5t-15.5 -24.5
q0 -17 28 -27.5t68 -19t80.5 -23t68.5 -49t28 -87.5q0 -82 -62.5 -126.5t-152.5 -44.5z" />
    <glyph glyph-name="t" unicode="t" horiz-adv-x="366" 
d="M297 135h49v-135h-84q-190 0 -190 203v172h-68v135h68v143h150v-143h117v-135h-117v-145q0 -95 75 -95z" />
    <glyph glyph-name="u" unicode="u" horiz-adv-x="547" 
d="M344 510h150v-510h-95l-26 34q-52 -49 -135 -49q-89 0 -139.5 56t-50.5 173v296h150v-299q0 -44 19.5 -67t53.5 -23q29 0 51 21.5t22 59.5v308z" />
    <glyph glyph-name="v" unicode="v" horiz-adv-x="495" 
d="M333 510h155l-142 -510h-197l-142 510h155l90 -351z" />
    <glyph glyph-name="w" unicode="w" horiz-adv-x="701" 
d="M542 510h152l-119 -510h-153l-71 224l-71 -224h-154l-119 510h152l60 -357l73 357h117l74 -357z" />
    <glyph glyph-name="x" unicode="x" horiz-adv-x="519" 
d="M512 510l-171 -252l168 -258h-171l-85 132l-83 -132h-160l161 257l-164 253h170l84 -129l86 129h165z" />
    <glyph glyph-name="y" unicode="y" horiz-adv-x="548" 
d="M345 510h150v-558q0 -86 -57 -141.5t-167 -55.5q-108 0 -165 53.5t-57 131.5h150q0 -23 20 -36.5t49 -13.5q33 0 55 16t22 48v58q-47 -27 -106 -27q-89 0 -139.5 56t-50.5 173v296h150v-299q0 -44 19.5 -67t53.5 -23q29 0 51 21.5t22 59.5v308z" />
    <glyph glyph-name="z" unicode="z" horiz-adv-x="473" 
d="M448 510v-110l-218 -265h218v-135h-423v109l219 266h-203v135h407z" />
    <glyph glyph-name="braceleft" unicode="{" horiz-adv-x="333" 
d="M230 436q0 -88 -58 -133q58 -45 58 -133v-160q0 -40 38 -40h55v-135h-61q-83 0 -132.5 50.5t-49.5 136.5v160q0 25 -13 39t-30 14h-22v136h22q17 0 30 14t13 39v159q0 86 49.5 136.5t132.5 50.5h61v-135h-55q-38 0 -38 -40v-159z" />
    <glyph glyph-name="bar" unicode="|" horiz-adv-x="252" 
d="M56 810h140v-970h-140v970z" />
    <glyph glyph-name="braceright" unicode="}" horiz-adv-x="333" 
d="M296 371h22v-136h-22q-18 0 -30.5 -13.5t-12.5 -39.5v-160q0 -86 -49.5 -136.5t-132.5 -50.5h-62v135h56q38 0 38 40v160q0 88 58 133q-58 45 -58 133v159q0 40 -38 40h-56v135h62q83 0 132.5 -50.5t49.5 -136.5v-159q0 -26 12.5 -39.5t30.5 -13.5z" />
    <glyph glyph-name="asciitilde" unicode="~" horiz-adv-x="524" 
d="M173 459q32 0 91 -23q37 -16 54 -16q18 0 26 9t8 30h130q0 -175 -135 -175q-38 0 -95 24q-34 14 -46 14q-34 0 -34 -43h-130q0 180 131 180z" />
    <glyph glyph-name="uni00A0" unicode="&#xa0;" horiz-adv-x="238" 
 />
    <glyph glyph-name="exclamdown" unicode="&#xa1;" horiz-adv-x="282" 
d="M216 510v-146h-150v146h150zM64 -200v250l20 237h115l20 -235v-252h-155z" />
    <glyph glyph-name="cent" unicode="&#xa2;" horiz-adv-x="520" 
d="M483 398h-151v19q0 34 -19.5 53.5t-51.5 19.5q-79 0 -79 -87v-96q0 -87 79 -87q32 0 51.5 19.5t19.5 53.5v19h151v-15q0 -76 -39 -129t-108 -73v-95h-150v94q-73 19 -113.5 74.5t-40.5 137.5v98q0 82 40.5 137.5t113.5 74.5v94h150v-95q69 -20 108 -73t39 -129v-15z" />
    <glyph glyph-name="sterling" unicode="&#xa3;" horiz-adv-x="671" 
d="M631 434h-162v57q0 45 -25 69.5t-72 24.5q-51 0 -78 -24.5t-27 -69.5v-101h199v-140h-199v-110h351v-140h-351v-1h-155v1h-77v140h77v110h-77v140h77v108q0 103 70.5 165t188.5 62t189 -62t71 -165v-64z" />
    <glyph glyph-name="currency" unicode="&#xa4;" horiz-adv-x="527" 
d="M465 321q0 -50 -22 -89l58 -69l-99 -75l-58 67q-38 -11 -80 -11q-45 0 -81 12l-58 -68l-99 75l59 70q-22 39 -22 88v56q0 48 20 86l-57 68l98 79l58 -68q36 12 81 12t83 -12l57 68l98 -79l-57 -67q21 -38 21 -87v-56zM263 257q70 0 70 60v64q0 60 -69 60q-70 0 -70 -60
v-64q0 -60 69 -60z" />
    <glyph glyph-name="yen" unicode="&#xa5;" horiz-adv-x="629" 
d="M615 710l-180 -380h115v-95h-158v-37h158v-95h-158v-103h-155v103h-155v95h155v37h-155v95h111l-179 380h169l133 -291l132 291h167z" />
    <glyph glyph-name="brokenbar" unicode="&#xa6;" horiz-adv-x="252" 
d="M56 374v436h140v-436h-140zM56 -160v436h140v-436h-140z" />
    <glyph glyph-name="section" unicode="&#xa7;" horiz-adv-x="580" 
d="M548 273q0 -64 -34 -110q30 -39 30 -100q0 -91 -68 -146.5t-184 -55.5q-123 0 -191 61t-68 161v6h153v-16q0 -34 30 -54t83 -20q20 0 38.5 4t35.5 17.5t17 34.5q0 31 -35 48t-84.5 27t-99.5 25.5t-85 54t-35 100.5q0 68 39 119q-35 42 -35 103q0 86 62.5 139.5
t180.5 53.5t179 -55t61 -147v-15h-153v19q0 25 -25 41.5t-66 16.5q-32 0 -58.5 -11.5t-26.5 -34.5q0 -25 35 -40.5t84.5 -28t99.5 -31t85 -60.5t35 -106zM206 325q0 -14 9.5 -25t29.5 -18.5t39.5 -13t50.5 -13t52 -14.5q6 10 6 23t-4.5 23t-14.5 18t-19.5 14t-28 11.5
t-30.5 9t-35 9.5t-35 9q-20 -15 -20 -33z" />
    <glyph glyph-name="dieresis" unicode="&#xa8;" horiz-adv-x="397" 
d="M24 564v133h136v-133h-136zM231 564v133h136v-133h-136z" />
    <glyph glyph-name="copyright" unicode="&#xa9;" horiz-adv-x="730" 
d="M365 -15q-150 0 -237 69t-87 178v246q0 109 86.5 178t236.5 69q149 0 236.5 -69t87.5 -178v-246q0 -109 -87 -178t-236 -69zM365 37q124 0 193.5 54t69.5 141v246q0 87 -70 141t-194 54t-193.5 -54t-69.5 -141v-246q0 -87 69.5 -141t194.5 -54zM365 70
q-112 0 -173.5 57.5t-61.5 149.5v156q0 92 61 149.5t173 57.5t173 -55t61 -145v-51h-155v58q0 27 -16 40t-62 13q-80 0 -80 -60v-170q0 -60 79 -60q46 0 62.5 13t16.5 40v58h155v-51q0 -90 -60.5 -145t-172.5 -55z" />
    <glyph glyph-name="ordfeminine" unicode="&#xaa;" horiz-adv-x="321" 
d="M234 716h60v-301h-60l-14 17q-31 -25 -80 -25q-109 0 -109 118v81q0 119 109 119q49 0 80 -25zM162 490q18 0 29 10.5t11 28.5v74q0 18 -11 28.5t-29 10.5q-17 0 -28 -10t-11 -27v-77q0 -18 11 -28t28 -10z" />
    <glyph glyph-name="guillemotleft" unicode="&#xab;" horiz-adv-x="595" 
d="M59 179v150l231 168v-150l-129 -92l129 -94v-150zM531 497v-150l-129 -92l129 -94v-150l-231 168v150z" />
    <glyph glyph-name="logicalnot" unicode="&#xac;" horiz-adv-x="516" 
d="M474 435v-302h-148v162h-284v140h432z" />
    <glyph glyph-name="uni00AD" unicode="&#xad;" horiz-adv-x="334" 
d="M39 210v130h256v-130h-256z" />
    <glyph glyph-name="registered" unicode="&#xae;" horiz-adv-x="526" 
d="M262 725q96 0 159 -50.5t63 -133.5v-108q0 -82 -63 -133t-158 -51q-94 0 -157.5 51t-63.5 133v108q0 82 63 133t157 51zM424 433v108q0 60 -46 96t-116 36q-69 0 -114.5 -36t-45.5 -96v-108q0 -60 46 -96t115 -36t115 36t46 96zM387 539q0 -44 -36 -64l39 -111h-75
l-35 96h-54v-96h-72v263h127q49 0 77.5 -20.5t28.5 -58.5v-9zM226 562v-36h59q29 0 29 12v11q0 13 -28 13h-60z" />
    <glyph glyph-name="macron" unicode="&#xaf;" horiz-adv-x="403" 
d="M373 698v-122h-349v122h349z" />
    <glyph glyph-name="degree" unicode="&#xb0;" horiz-adv-x="369" 
d="M184 725q70 0 111 -39t41 -106t-41 -106t-111 -39t-110.5 39t-40.5 106t40.5 106t110.5 39zM184 625q-13 0 -21.5 -12t-8.5 -33t8.5 -33t21.5 -12q31 0 31 45t-31 45z" />
    <glyph glyph-name="plusminus" unicode="&#xb1;" horiz-adv-x="516" 
d="M333 485h141v-140h-141v-162h-148v162h-143v140h143v163h148v-163zM42 0v140h432v-140h-432z" />
    <glyph glyph-name="uni00B2" unicode="&#xb2;" 
d="M292 658q0 -33 -25.5 -63t-56.5 -46.5t-56.5 -32t-25.5 -23.5h160v-79h-256v79q0 26 27 52.5t59 43.5t59 37.5t27 36.5v10q0 25 -38 25q-40 0 -40 -34v-15h-88v11q0 53 35.5 85.5t93.5 32.5q55 0 90 -28.5t35 -75.5v-16z" />
    <glyph glyph-name="uni00B3" unicode="&#xb3;" 
d="M296 671v-21q0 -32 -23 -57q22 -24 22 -56v-25q0 -49 -36.5 -77.5t-94.5 -28.5q-60 0 -97 30.5t-37 79.5v12h88v-17q0 -26 47 -26q42 0 42 23v30q0 17 -36 17h-61v77h61q37 0 37 18v25q0 23 -42 23q-48 0 -48 -25v-20h-88v15q0 49 37 79.5t97 30.5q58 0 95 -29t37 -78z
" />
    <glyph glyph-name="acute" unicode="&#xb4;" horiz-adv-x="326" 
d="M296 734l-130 -179h-142l103 179h169z" />
    <glyph glyph-name="uni00B5" unicode="&#xb5;" horiz-adv-x="554" 
d="M532 123q10 0 20 3v-136q-24 -5 -53 -5q-81 0 -120 55q-54 -55 -141 -55q-20 0 -40 3v-218h-150v740h150v-299q0 -44 19.5 -67t53.5 -23q29 0 51 21.5t22 59.5v308h150v-312q0 -41 8.5 -58t29.5 -17z" />
    <glyph glyph-name="paragraph" unicode="&#xb6;" horiz-adv-x="713" 
d="M683 710v-140h-78v-570h-149v570h-78v-570h-149v318h-58q-60 0 -101 42.5t-41 105.5v96q0 59 41.5 103.5t100.5 44.5h512z" />
    <glyph glyph-name="periodcentered" unicode="&#xb7;" horiz-adv-x="241" 
d="M45 268v146h150v-146h-150z" />
    <glyph glyph-name="cedilla" unicode="&#xb8;" horiz-adv-x="222" 
d="M-17 -161l74 191h125l-37 -191h-162z" />
    <glyph glyph-name="uni00B9" unicode="&#xb9;" 
d="M204 493h59v-79h-207v79h60v198h-60v79h148v-277z" />
    <glyph glyph-name="ordmasculine" unicode="&#xba;" horiz-adv-x="319" 
d="M162 407q-61 0 -96 33t-35 90v72q0 57 34.5 90t95.5 33q60 0 95 -33t35 -90v-72q0 -57 -34.5 -90t-94.5 -33zM161 489q38 0 38 42v70q0 41 -37 41q-39 0 -39 -41v-70q0 -42 38 -42z" />
    <glyph glyph-name="guillemotright" unicode="&#xbb;" horiz-adv-x="595" 
d="M64 347v150l231 -168v-150l-231 -168v150l129 94zM305 497l231 -168v-150l-231 -168v150l129 94l-129 92v150z" />
    <glyph glyph-name="onequarter" unicode="&#xbc;" horiz-adv-x="820" 
d="M263 433v-79h-207v79h60v198h-60v79h148v-277h59zM482 710h99l-243 -710h-99zM693 232h88v-232h-88v73h-160v79l82 204h96l-81 -204h63v80z" />
    <glyph glyph-name="onehalf" unicode="&#xbd;" horiz-adv-x="820" 
d="M263 433v-79h-207v79h60v198h-60v79h148v-277h59zM482 710h99l-243 -710h-99zM788 244q0 -33 -25.5 -63t-56.5 -46.5t-56.5 -32t-25.5 -23.5h160v-79h-256v79q0 26 27 52.5t59 43.5t59 37.5t27 36.5v10q0 25 -38 25q-40 0 -40 -34v-15h-88v11q0 53 35.5 85.5t93.5 32.5
q55 0 90 -28.5t35 -75.5v-16z" />
    <glyph glyph-name="threequarters" unicode="&#xbe;" horiz-adv-x="820" 
d="M295 452q0 -49 -36.5 -77.5t-94.5 -28.5q-60 0 -97 30.5t-37 79.5v12h88v-17q0 -26 47 -26q42 0 42 23v30q0 17 -36 17h-61v77h61q37 0 37 18v25q0 23 -42 23q-48 0 -48 -25v-20h-88v15q0 49 37 79.5t97 30.5q58 0 95 -29t37 -78v-21q0 -32 -23 -57q22 -24 22 -56v-25z
M482 710h99l-243 -710h-99zM693 232h88v-232h-88v73h-160v79l82 204h96l-81 -204h63v80z" />
    <glyph glyph-name="questiondown" unicode="&#xbf;" horiz-adv-x="632" 
d="M404 510v-146h-150v146h150zM404 287v-43q0 -45 -15 -79t-37.5 -51.5t-48.5 -33t-48.5 -25t-37.5 -26.5t-15 -39q0 -32 29.5 -48.5t79.5 -16.5q66 0 99.5 26.5t33.5 73.5v28h150v-30q0 -107 -74.5 -172.5t-201.5 -65.5q-132 0 -201.5 56.5t-69.5 151.5q0 57 21.5 95.5
t51.5 57t60.5 33t52 36t21.5 54.5v18h150z" />
    <glyph glyph-name="Agrave" unicode="&#xc0;" horiz-adv-x="645" 
d="M401 755h-160l-142 155h187zM478 0l-37 125h-238l-37 -125h-152l198 710h221l198 -710h-153zM401 265l-79 283l-79 -283h158z" />
    <glyph glyph-name="Aacute" unicode="&#xc1;" horiz-adv-x="645" 
d="M547 910l-142 -155h-160l115 155h187zM478 0l-37 125h-238l-37 -125h-152l198 710h221l198 -710h-153zM401 265l-79 283l-79 -283h158z" />
    <glyph glyph-name="Acircumflex" unicode="&#xc2;" horiz-adv-x="645" 
d="M325 799l-46 -43h-169l141 127h149l141 -127h-169zM478 0l-37 125h-238l-37 -125h-152l198 710h221l198 -710h-153zM401 265l-79 283l-79 -283h158z" />
    <glyph glyph-name="Atilde" unicode="&#xc3;" horiz-adv-x="645" 
d="M272 798q-29 0 -29 -43h-107q0 72 22.5 111t81.5 39q34 0 77 -21t56 -21q30 0 30 42h107q0 -81 -26 -115.5t-79 -34.5q-36 0 -78 21.5t-55 21.5zM478 0l-37 125h-238l-37 -125h-152l198 710h221l198 -710h-153zM401 265l-79 283l-79 -283h158z" />
    <glyph glyph-name="Adieresis" unicode="&#xc4;" horiz-adv-x="645" 
d="M287 897v-133h-136v133h136zM494 897v-133h-136v133h136zM478 0l-37 125h-238l-37 -125h-152l198 710h221l198 -710h-153zM401 265l-79 283l-79 -283h158z" />
    <glyph glyph-name="Aring" unicode="&#xc5;" horiz-adv-x="645" 
d="M323 750q-59 0 -96 35t-37 91q0 55 37 90.5t96 35.5t96.5 -35t37.5 -91t-37.5 -91t-96.5 -35zM323 912q-19 0 -30.5 -10t-11.5 -26t11.5 -26t30.5 -10q20 0 31.5 10t11.5 26t-12 26t-31 10zM478 0l-37 125h-238l-37 -125h-152l198 710h221l198 -710h-153zM401 265
l-79 283l-79 -283h158z" />
    <glyph glyph-name="AE" unicode="&#xc6;" horiz-adv-x="962" 
d="M935 570h-303v-155h263v-140h-263v-135h303v-140h-458v165h-245l-62 -165h-156l265 710h656v-140zM477 305v265h-93l-100 -265h193z" />
    <glyph glyph-name="Ccedilla" unicode="&#xc7;" horiz-adv-x="656" 
d="M614 434h-161v57q0 44 -32 69t-92 25q-64 0 -98.5 -25t-34.5 -69v-272q0 -44 34 -69t98 -25q60 0 92.5 25t32.5 69v57h161v-64q0 -93 -61.5 -152.5t-170.5 -71.5l-29 -149h-162l59 152q-99 17 -154 75.5t-55 145.5v286q0 104 77 165.5t210 61.5t209.5 -61.5t76.5 -165.5
v-64z" />
    <glyph glyph-name="Egrave" unicode="&#xc8;" horiz-adv-x="535" 
d="M345 755h-160l-142 155h187zM508 570h-303v-155h263v-140h-263v-135h303v-140h-458v710h458v-140z" />
    <glyph glyph-name="Eacute" unicode="&#xc9;" horiz-adv-x="535" 
d="M491 910l-142 -155h-160l115 155h187zM508 570h-303v-155h263v-140h-263v-135h303v-140h-458v710h458v-140z" />
    <glyph glyph-name="Ecircumflex" unicode="&#xca;" horiz-adv-x="535" 
d="M269 799l-46 -43h-169l141 127h149l141 -127h-169zM508 570h-303v-155h263v-140h-263v-135h303v-140h-458v710h458v-140z" />
    <glyph glyph-name="Edieresis" unicode="&#xcb;" horiz-adv-x="535" 
d="M231 897v-133h-136v133h136zM438 897v-133h-136v133h136zM508 570h-303v-155h263v-140h-263v-135h303v-140h-458v710h458v-140z" />
    <glyph glyph-name="Igrave" unicode="&#xcc;" horiz-adv-x="255" 
d="M-96 910h187l115 -155h-160zM50 0v710h155v-710h-155z" />
    <glyph glyph-name="Iacute" unicode="&#xcd;" horiz-adv-x="255" 
d="M352 910l-142 -155h-160l115 155h187zM50 0v710h155v-710h-155z" />
    <glyph glyph-name="Icircumflex" unicode="&#xce;" horiz-adv-x="255" 
d="M130 799l-46 -43h-169l141 127h149l141 -127h-169zM50 0v710h155v-710h-155z" />
    <glyph glyph-name="Idieresis" unicode="&#xcf;" horiz-adv-x="255" 
d="M-44 764v133h136v-133h-136zM163 764v133h136v-133h-136zM50 0v710h155v-710h-155z" />
    <glyph glyph-name="Eth" unicode="&#xd0;" horiz-adv-x="649" 
d="M329 710q128 0 203.5 -62t75.5 -165v-256q0 -103 -75.5 -165t-202.5 -62h-280v294h-86v122h86v294h279zM453 234v242q0 43 -30 68.5t-83 25.5h-135v-154h136v-122h-136v-154h134q53 0 83.5 25.5t30.5 68.5z" />
    <glyph glyph-name="Ntilde" unicode="&#xd1;" horiz-adv-x="631" 
d="M265 798q-29 0 -29 -43h-107q0 72 22.5 111t81.5 39q34 0 77 -21t56 -21q30 0 30 42h107q0 -81 -26 -115.5t-79 -34.5q-36 0 -78 21.5t-55 21.5zM438 710h144v-710h-144l-244 426v-426h-144v710h144l244 -428v428z" />
    <glyph glyph-name="Ograve" unicode="&#xd2;" horiz-adv-x="662" 
d="M107 910h187l115 -155h-160zM332 -15q-135 0 -213 61.5t-78 165.5v286q0 104 77.5 165.5t212.5 61.5t212.5 -61.5t77.5 -165.5v-286q0 -104 -77 -165.5t-212 -61.5zM331 125q135 0 135 94v272q0 94 -134 94q-136 0 -136 -94v-272q0 -44 33.5 -69t101.5 -25z" />
    <glyph glyph-name="Oacute" unicode="&#xd3;" horiz-adv-x="662" 
d="M555 910l-142 -155h-160l115 155h187zM332 -15q-135 0 -213 61.5t-78 165.5v286q0 104 77.5 165.5t212.5 61.5t212.5 -61.5t77.5 -165.5v-286q0 -104 -77 -165.5t-212 -61.5zM331 125q135 0 135 94v272q0 94 -134 94q-136 0 -136 -94v-272q0 -44 33.5 -69t101.5 -25z" />
    <glyph glyph-name="Ocircumflex" unicode="&#xd4;" horiz-adv-x="662" 
d="M333 799l-46 -43h-169l141 127h149l141 -127h-169zM331 725q135 0 212.5 -61.5t77.5 -165.5v-286q0 -104 -77 -165.5t-212 -61.5t-213 61.5t-78 165.5v286q0 104 77.5 165.5t212.5 61.5zM466 219v272q0 94 -134 94q-136 0 -136 -94v-272q0 -44 33.5 -69t101.5 -25
q135 0 135 94z" />
    <glyph glyph-name="Otilde" unicode="&#xd5;" horiz-adv-x="662" 
d="M518 905q0 -81 -26 -115.5t-79 -34.5q-36 0 -78 21.5t-55 21.5q-29 0 -29 -43h-107q0 72 22.5 111t81.5 39q34 0 77 -21t56 -21q30 0 30 42h107zM332 -15q-135 0 -213 61.5t-78 165.5v286q0 104 77.5 165.5t212.5 61.5t212.5 -61.5t77.5 -165.5v-286q0 -104 -77 -165.5
t-212 -61.5zM331 125q135 0 135 94v272q0 94 -134 94q-136 0 -136 -94v-272q0 -44 33.5 -69t101.5 -25z" />
    <glyph glyph-name="Odieresis" unicode="&#xd6;" horiz-adv-x="662" 
d="M159 764v133h136v-133h-136zM366 764v133h136v-133h-136zM332 -15q-135 0 -213 61.5t-78 165.5v286q0 104 77.5 165.5t212.5 61.5t212.5 -61.5t77.5 -165.5v-286q0 -104 -77 -165.5t-212 -61.5zM331 125q135 0 135 94v272q0 94 -134 94q-136 0 -136 -94v-272
q0 -44 33.5 -69t101.5 -25z" />
    <glyph glyph-name="multiply" unicode="&#xd7;" horiz-adv-x="524" 
d="M482 509l-131 -144l131 -143l-94 -93l-126 138l-126 -138l-94 93l131 143l-131 144l94 92l126 -138l126 138z" />
    <glyph glyph-name="Oslash" unicode="&#xd8;" horiz-adv-x="662" 
d="M555 654q66 -60 66 -156v-286q0 -104 -77 -165.5t-212 -61.5q-53 0 -102 11l-39 -79l-122 65l37 75q-65 60 -65 155v286q0 104 77.5 165.5t212.5 61.5q50 0 100 -10l39 78l122 -64zM196 491v-252l170 344q-20 2 -34 2q-136 0 -136 -94zM331 125q135 0 135 94v255
l-171 -347q22 -2 36 -2z" />
    <glyph glyph-name="Ugrave" unicode="&#xd9;" horiz-adv-x="644" 
d="M98 910h187l115 -155h-160zM323 -15q-130 0 -206 62t-76 165v498h155v-491q0 -44 33 -69t93 -25t92.5 25t32.5 69v491h155v-498q0 -104 -75 -165.5t-204 -61.5z" />
    <glyph glyph-name="Uacute" unicode="&#xda;" horiz-adv-x="644" 
d="M546 910l-142 -155h-160l115 155h187zM323 -15q-130 0 -206 62t-76 165v498h155v-491q0 -44 33 -69t93 -25t92.5 25t32.5 69v491h155v-498q0 -104 -75 -165.5t-204 -61.5z" />
    <glyph glyph-name="Ucircumflex" unicode="&#xdb;" horiz-adv-x="644" 
d="M324 799l-46 -43h-169l141 127h149l141 -127h-169zM447 710h155v-498q0 -104 -75 -165.5t-204 -61.5q-130 0 -206 62t-76 165v498h155v-491q0 -44 33 -69t93 -25t92.5 25t32.5 69v491z" />
    <glyph glyph-name="Udieresis" unicode="&#xdc;" horiz-adv-x="644" 
d="M150 764v133h136v-133h-136zM357 764v133h136v-133h-136zM323 -15q-130 0 -206 62t-76 165v498h155v-491q0 -44 33 -69t93 -25t92.5 25t32.5 69v491h155v-498q0 -104 -75 -165.5t-204 -61.5z" />
    <glyph glyph-name="Yacute" unicode="&#xdd;" horiz-adv-x="629" 
d="M539 910l-142 -155h-160l115 155h187zM615 710l-223 -472v-238h-155v236l-223 474h169l133 -291l132 291h167z" />
    <glyph glyph-name="Thorn" unicode="&#xde;" horiz-adv-x="609" 
d="M349 600q105 0 169 -56.5t64 -150.5v-66q0 -94 -63.5 -150.5t-168.5 -56.5h-145v-120h-155v710h155v-110h144zM427 320v80q0 28 -18 44t-49 16h-155v-200h154q31 0 49.5 16t18.5 44z" />
    <glyph glyph-name="germandbls" unicode="&#xdf;" horiz-adv-x="570" 
d="M476 401q58 -52 58 -141v-60q0 -92 -64 -146t-176 -54h-34v135h35q89 0 89 67v56q0 67 -90 67h-34v135h34q69 0 69 67v56q0 67 -72 67q-87 0 -87 -87v-563h-150v564q0 102 62.5 161.5t173.5 59.5q104 0 164 -54t60 -146v-60q0 -74 -38 -124z" />
    <glyph glyph-name="agrave" unicode="&#xe0;" horiz-adv-x="557" 
d="M346 555h-142l-130 179h170zM406 510h99v-510h-99l-24 34q-55 -49 -147 -49q-95 0 -147 53t-52 163v108q0 110 52 163t147 53q92 0 147 -49zM269 121q39 0 62.5 21t23.5 60v106q0 39 -23.5 60t-62.5 21t-61 -21.5t-22 -62.5v-100q0 -41 22 -62.5t61 -21.5z" />
    <glyph glyph-name="aacute" unicode="&#xe1;" horiz-adv-x="557" 
d="M473 734l-130 -179h-142l103 179h169zM406 510h99v-510h-99l-24 34q-55 -49 -147 -49q-95 0 -147 53t-52 163v108q0 110 52 163t147 53q92 0 147 -49zM269 121q39 0 62.5 21t23.5 60v106q0 39 -23.5 60t-62.5 21t-61 -21.5t-22 -62.5v-100q0 -41 22 -62.5t61 -21.5z" />
    <glyph glyph-name="acircumflex" unicode="&#xe2;" horiz-adv-x="557" 
d="M276 619l-46 -64h-150l131 157h131l131 -157h-150zM406 510h99v-510h-99l-24 34q-55 -49 -147 -49q-95 0 -147 53t-52 163v108q0 110 52 163t147 53q92 0 147 -49zM269 121q39 0 62.5 21t23.5 60v106q0 39 -23.5 60t-62.5 21t-61 -21.5t-22 -62.5v-100q0 -41 22 -62.5
t61 -21.5z" />
    <glyph glyph-name="atilde" unicode="&#xe3;" horiz-adv-x="557" 
d="M223 598q-29 0 -29 -43h-107q0 72 22.5 111t81.5 39q34 0 77 -21t56 -21q30 0 30 42h107q0 -81 -26 -115.5t-79 -34.5q-36 0 -78 21.5t-55 21.5zM406 510h99v-510h-99l-24 34q-55 -49 -147 -49q-95 0 -147 53t-52 163v108q0 110 52 163t147 53q92 0 147 -49zM269 121
q39 0 62.5 21t23.5 60v106q0 39 -23.5 60t-62.5 21t-61 -21.5t-22 -62.5v-100q0 -41 22 -62.5t61 -21.5z" />
    <glyph glyph-name="adieresis" unicode="&#xe4;" horiz-adv-x="557" 
d="M238 697v-133h-136v133h136zM445 697v-133h-136v133h136zM406 510h99v-510h-99l-24 34q-55 -49 -147 -49q-95 0 -147 53t-52 163v108q0 110 52 163t147 53q92 0 147 -49zM269 121q39 0 62.5 21t23.5 60v106q0 39 -23.5 60t-62.5 21t-61 -21.5t-22 -62.5v-100
q0 -41 22 -62.5t61 -21.5z" />
    <glyph glyph-name="aring" unicode="&#xe5;" horiz-adv-x="557" 
d="M274 550q-59 0 -96 35t-37 91q0 55 37 90.5t96 35.5t96.5 -35t37.5 -91t-37.5 -91t-96.5 -35zM274 712q-19 0 -30.5 -10t-11.5 -26t11.5 -26t30.5 -10q20 0 31.5 10t11.5 26t-12 26t-31 10zM406 510h99v-510h-99l-24 34q-55 -49 -147 -49q-95 0 -147 53t-52 163v108
q0 110 52 163t147 53q92 0 147 -49zM269 121q39 0 62.5 21t23.5 60v106q0 39 -23.5 60t-62.5 21t-61 -21.5t-22 -62.5v-100q0 -41 22 -62.5t61 -21.5z" />
    <glyph glyph-name="ae" unicode="&#xe6;" horiz-adv-x="831" 
d="M602 525q88 0 140.5 -55t52.5 -140v-119h-297v-9q0 -97 82 -97q30 0 47 15t17 38v14h150q0 -88 -48.5 -137.5t-142.5 -49.5q-78 0 -131 50l-25 -35h-48l-24 33q-54 -48 -144 -48q-93 0 -144 53t-51 163v108q0 110 51.5 163t145.5 53q89 0 143 -48l23 33h48l24 -34
q55 49 131 49zM498 318h144v12q0 75 -64 75q-77 0 -80 -87zM267 121q36 0 58.5 21t22.5 60v106q0 39 -22 60t-59 21q-38 0 -59.5 -21.5t-21.5 -62.5v-100q0 -41 22 -62.5t59 -21.5z" />
    <glyph glyph-name="ccedilla" unicode="&#xe7;" horiz-adv-x="523" 
d="M487 298h-151v19q0 34 -19.5 53.5t-51.5 19.5q-79 0 -79 -87v-96q0 -87 79 -87q32 0 51.5 19.5t19.5 53.5v19h151v-15q0 -83 -46 -138.5t-125 -69.5l-29 -150h-162l61 156q-71 20 -110.5 75t-39.5 136v98q0 102 61 161.5t167 59.5q101 0 162 -58t61 -154v-15z" />
    <glyph glyph-name="egrave" unicode="&#xe8;" horiz-adv-x="526" 
d="M335 555h-142l-130 179h170zM266 525q98 0 161 -55.5t63 -139.5v-119h-304v-9q0 -49 22.5 -73t59.5 -24q26 0 48.5 13.5t22.5 33.5v10h150q0 -81 -61.5 -129t-161.5 -48q-107 0 -168.5 61t-61.5 163v95q0 102 61.5 161.5t168.5 59.5zM186 318h151v12q0 75 -70 75
q-78 0 -81 -87z" />
    <glyph glyph-name="eacute" unicode="&#xe9;" horiz-adv-x="526" 
d="M462 734l-130 -179h-142l103 179h169zM266 525q98 0 161 -55.5t63 -139.5v-119h-304v-9q0 -49 22.5 -73t59.5 -24q26 0 48.5 13.5t22.5 33.5v10h150q0 -81 -61.5 -129t-161.5 -48q-107 0 -168.5 61t-61.5 163v95q0 102 61.5 161.5t168.5 59.5zM186 318h151v12
q0 75 -70 75q-78 0 -81 -87z" />
    <glyph glyph-name="ecircumflex" unicode="&#xea;" horiz-adv-x="526" 
d="M265 619l-46 -64h-150l131 157h131l131 -157h-150zM266 525q98 0 161 -55.5t63 -139.5v-119h-304v-9q0 -49 22.5 -73t59.5 -24q26 0 48.5 13.5t22.5 33.5v10h150q0 -81 -61.5 -129t-161.5 -48q-107 0 -168.5 61t-61.5 163v95q0 102 61.5 161.5t168.5 59.5zM186 318h151
v12q0 75 -70 75q-78 0 -81 -87z" />
    <glyph glyph-name="edieresis" unicode="&#xeb;" horiz-adv-x="526" 
d="M227 697v-133h-136v133h136zM434 697v-133h-136v133h136zM266 525q98 0 161 -55.5t63 -139.5v-119h-304v-9q0 -49 22.5 -73t59.5 -24q26 0 48.5 13.5t22.5 33.5v10h150q0 -81 -61.5 -129t-161.5 -48q-107 0 -168.5 61t-61.5 163v95q0 102 61.5 161.5t168.5 59.5zM186 318
h151v12q0 75 -70 75q-78 0 -81 -87z" />
    <glyph glyph-name="igrave" unicode="&#xec;" horiz-adv-x="259" 
d="M-71 734h170l102 -179h-142zM54 0v510h150v-510h-150z" />
    <glyph glyph-name="iacute" unicode="&#xed;" horiz-adv-x="259" 
d="M328 734l-130 -179h-142l103 179h169zM54 0v510h150v-510h-150z" />
    <glyph glyph-name="icircumflex" unicode="&#xee;" horiz-adv-x="259" 
d="M131 619l-46 -64h-150l131 157h131l131 -157h-150zM54 0v510h150v-510h-150z" />
    <glyph glyph-name="idieresis" unicode="&#xef;" horiz-adv-x="259" 
d="M-43 564v133h136v-133h-136zM164 564v133h136v-133h-136zM54 0v510h150v-510h-150z" />
    <glyph glyph-name="eth" unicode="&#xf0;" horiz-adv-x="539" 
d="M515 709l-73 -67q60 -95 60 -239v-184q0 -108 -62 -171t-171 -63t-171 59.5t-62 161.5v103q0 110 52 163t147 53q63 0 109 -24q-31 148 -212 148v136q133 0 218 -54l69 64zM352 221v87q0 40 -22 60.5t-61 20.5t-61 -21.5t-22 -62.5v-97q0 -88 83 -88t83 101z" />
    <glyph glyph-name="ntilde" unicode="&#xf1;" horiz-adv-x="562" 
d="M230 598q-29 0 -29 -43h-107q0 72 22.5 111t81.5 39q34 0 77 -21t56 -21q30 0 30 42h107q0 -81 -26 -115.5t-79 -34.5q-36 0 -78 21.5t-55 21.5zM322 525q91 0 142 -56t51 -173v-296h-150v299q0 43 -23 66.5t-57 23.5q-33 0 -57.5 -21.5t-24.5 -59.5v-308h-150v510h96
l27 -36q57 51 146 51z" />
    <glyph glyph-name="ograve" unicode="&#xf2;" horiz-adv-x="538" 
d="M69 734h170l102 -179h-142zM269 -15q-109 0 -171 59.5t-62 161.5v98q0 102 61.5 161.5t170.5 59.5q110 0 172 -59.5t62 -161.5v-98q0 -102 -62 -161.5t-171 -59.5zM268 120q84 0 84 87v96q0 87 -83 87t-83 -87v-96q0 -87 82 -87z" />
    <glyph glyph-name="oacute" unicode="&#xf3;" horiz-adv-x="538" 
d="M468 734l-130 -179h-142l103 179h169zM269 -15q-109 0 -171 59.5t-62 161.5v98q0 102 61.5 161.5t170.5 59.5q110 0 172 -59.5t62 -161.5v-98q0 -102 -62 -161.5t-171 -59.5zM268 120q84 0 84 87v96q0 87 -83 87t-83 -87v-96q0 -87 82 -87z" />
    <glyph glyph-name="ocircumflex" unicode="&#xf4;" horiz-adv-x="538" 
d="M271 619l-46 -64h-150l131 157h131l131 -157h-150zM268 525q110 0 172 -59.5t62 -161.5v-98q0 -102 -62 -161.5t-171 -59.5t-171 59.5t-62 161.5v98q0 102 61.5 161.5t170.5 59.5zM352 207v96q0 87 -83 87t-83 -87v-96q0 -87 82 -87q84 0 84 87z" />
    <glyph glyph-name="otilde" unicode="&#xf5;" horiz-adv-x="538" 
d="M456 705q0 -81 -26 -115.5t-79 -34.5q-36 0 -78 21.5t-55 21.5q-29 0 -29 -43h-107q0 72 22.5 111t81.5 39q34 0 77 -21t56 -21q30 0 30 42h107zM269 -15q-109 0 -171 59.5t-62 161.5v98q0 102 61.5 161.5t170.5 59.5q110 0 172 -59.5t62 -161.5v-98q0 -102 -62 -161.5
t-171 -59.5zM268 120q84 0 84 87v96q0 87 -83 87t-83 -87v-96q0 -87 82 -87z" />
    <glyph glyph-name="odieresis" unicode="&#xf6;" horiz-adv-x="538" 
d="M97 564v133h136v-133h-136zM304 564v133h136v-133h-136zM269 -15q-109 0 -171 59.5t-62 161.5v98q0 102 61.5 161.5t170.5 59.5q110 0 172 -59.5t62 -161.5v-98q0 -102 -62 -161.5t-171 -59.5zM268 120q84 0 84 87v96q0 87 -83 87t-83 -87v-96q0 -87 82 -87z" />
    <glyph glyph-name="divide" unicode="&#xf7;" horiz-adv-x="516" 
d="M184 475v146h150v-146h-150zM42 295v140h432v-140h-432zM184 109v146h150v-146h-150z" />
    <glyph glyph-name="oslash" unicode="&#xf8;" horiz-adv-x="538" 
d="M447 459q55 -58 55 -155v-98q0 -102 -62 -161.5t-171 -59.5q-24 0 -45 3l-34 -72l-128 63l32 69q-58 58 -58 158v98q0 102 61.5 161.5t170.5 59.5q29 0 50 -4l36 73l128 -63zM352 207v96q0 87 -83 87t-83 -87v-96q0 -87 82 -87q84 0 84 87z" />
    <glyph glyph-name="ugrave" unicode="&#xf9;" horiz-adv-x="547" 
d="M346 555h-142l-130 179h170zM344 510h150v-510h-95l-26 34q-52 -49 -135 -49q-89 0 -139.5 56t-50.5 173v296h150v-299q0 -44 19.5 -67t53.5 -23q29 0 51 21.5t22 59.5v308z" />
    <glyph glyph-name="uacute" unicode="&#xfa;" horiz-adv-x="547" 
d="M473 734l-130 -179h-142l103 179h169zM344 510h150v-510h-95l-26 34q-52 -49 -135 -49q-89 0 -139.5 56t-50.5 173v296h150v-299q0 -44 19.5 -67t53.5 -23q29 0 51 21.5t22 59.5v308z" />
    <glyph glyph-name="ucircumflex" unicode="&#xfb;" horiz-adv-x="547" 
d="M276 619l-46 -64h-150l131 157h131l131 -157h-150zM344 510h150v-510h-95l-26 34q-52 -49 -135 -49q-89 0 -139.5 56t-50.5 173v296h150v-299q0 -44 19.5 -67t53.5 -23q29 0 51 21.5t22 59.5v308z" />
    <glyph glyph-name="udieresis" unicode="&#xfc;" horiz-adv-x="547" 
d="M238 697v-133h-136v133h136zM445 697v-133h-136v133h136zM344 510h150v-510h-95l-26 34q-52 -49 -135 -49q-89 0 -139.5 56t-50.5 173v296h150v-299q0 -44 19.5 -67t53.5 -23q29 0 51 21.5t22 59.5v308z" />
    <glyph glyph-name="yacute" unicode="&#xfd;" horiz-adv-x="548" 
d="M473 734l-130 -179h-142l103 179h169zM345 510h150v-558q0 -86 -57 -141.5t-167 -55.5q-108 0 -165 53.5t-57 131.5h150q0 -23 20 -36.5t49 -13.5q33 0 55 16t22 48v58q-47 -27 -106 -27q-89 0 -139.5 56t-50.5 173v296h150v-299q0 -44 19.5 -67t53.5 -23q29 0 51 21.5
t22 59.5v308z" />
    <glyph glyph-name="thorn" unicode="&#xfe;" horiz-adv-x="557" 
d="M321 525q200 0 200 -216v-108q0 -216 -200 -216q-69 0 -118 29v-244h-150v1000h150v-274q49 29 118 29zM371 205v100q0 41 -22 62.5t-61 21.5t-62 -20.5t-23 -60.5v-106q0 -39 23.5 -60t61.5 -21q39 0 61 21.5t22 62.5z" />
    <glyph glyph-name="ydieresis" unicode="&#xff;" horiz-adv-x="548" 
d="M238 697v-133h-136v133h136zM445 697v-133h-136v133h136zM345 510h150v-558q0 -86 -57 -141.5t-167 -55.5q-108 0 -165 53.5t-57 131.5h150q0 -23 20 -36.5t49 -13.5q33 0 55 16t22 48v58q-47 -27 -106 -27q-89 0 -139.5 56t-50.5 173v296h150v-299q0 -44 19.5 -67
t53.5 -23q29 0 51 21.5t22 59.5v308z" />
    <glyph glyph-name="Amacron" unicode="&#x100;" horiz-adv-x="645" 
d="M497 898v-122h-349v122h349zM478 0l-37 125h-238l-37 -125h-152l198 710h221l198 -710h-153zM401 265l-79 283l-79 -283h158z" />
    <glyph glyph-name="amacron" unicode="&#x101;" horiz-adv-x="557" 
d="M448 698v-122h-349v122h349zM406 510h99v-510h-99l-24 34q-55 -49 -147 -49q-95 0 -147 53t-52 163v108q0 110 52 163t147 53q92 0 147 -49zM269 121q39 0 62.5 21t23.5 60v106q0 39 -23.5 60t-62.5 21t-61 -21.5t-22 -62.5v-100q0 -41 22 -62.5t61 -21.5z" />
    <glyph glyph-name="Abreve" unicode="&#x102;" horiz-adv-x="645" 
d="M323 750q-73 0 -118.5 42.5t-45.5 109.5h93q0 -29 19.5 -45.5t51.5 -16.5t51.5 16.5t19.5 45.5h93q0 -67 -45.5 -109.5t-118.5 -42.5zM478 0l-37 125h-238l-37 -125h-152l198 710h221l198 -710h-153zM401 265l-79 283l-79 -283h158z" />
    <glyph glyph-name="abreve" unicode="&#x103;" horiz-adv-x="557" 
d="M274 550q-73 0 -118.5 42.5t-45.5 109.5h93q0 -29 19.5 -45.5t51.5 -16.5t51.5 16.5t19.5 45.5h93q0 -67 -45.5 -109.5t-118.5 -42.5zM406 510h99v-510h-99l-24 34q-55 -49 -147 -49q-95 0 -147 53t-52 163v108q0 110 52 163t147 53q92 0 147 -49zM269 121q39 0 62.5 21
t23.5 60v106q0 39 -23.5 60t-62.5 21t-61 -21.5t-22 -62.5v-100q0 -41 22 -62.5t61 -21.5z" />
    <glyph glyph-name="Aogonek" unicode="&#x104;" horiz-adv-x="645" 
d="M563 -85q0 -38 41 -38q14 0 22 1v-99q-35 -7 -67 -7q-78 0 -114.5 23.5t-36.5 87.5t72 117h-2l-37 125h-238l-37 -125h-152l198 710h221l198 -710q-32 -17 -50 -40.5t-18 -44.5zM401 265l-79 283l-79 -283h158z" />
    <glyph glyph-name="aogonek" unicode="&#x105;" horiz-adv-x="557" 
d="M505 0q-33 -17 -51 -40.5t-18 -44.5q0 -38 41 -38q14 0 22 1v-99q-35 -7 -67 -7q-77 0 -113.5 23.5t-36.5 87.5q0 78 111 135l-14 19q-61 -52 -144 -52q-93 0 -146 53.5t-53 162.5v108q0 110 52 163t147 53q92 0 147 -49l24 34h99v-510zM269 121q39 0 62.5 21t23.5 60
v106q0 39 -23.5 60t-62.5 21t-61 -21.5t-22 -62.5v-100q0 -41 22 -62.5t61 -21.5z" />
    <glyph glyph-name="Cacute" unicode="&#x106;" horiz-adv-x="656" 
d="M552 910l-142 -155h-160l115 155h187zM329 -15q-133 0 -210.5 62t-77.5 165v286q0 104 77 165.5t210 61.5t209.5 -61.5t76.5 -165.5v-64h-161v57q0 44 -32 69t-92 25q-64 0 -98.5 -25t-34.5 -69v-272q0 -44 34 -69t98 -25q60 0 92.5 25t32.5 69v57h161v-64
q0 -104 -76.5 -165.5t-208.5 -61.5z" />
    <glyph glyph-name="cacute" unicode="&#x107;" horiz-adv-x="523" 
d="M461 734l-130 -179h-142l103 179h169zM265 -15q-107 0 -168 59.5t-61 161.5v98q0 102 61 161.5t167 59.5q101 0 162 -58t61 -154v-15h-151v19q0 34 -19.5 53.5t-51.5 19.5q-79 0 -79 -87v-96q0 -87 79 -87q32 0 51.5 19.5t19.5 53.5v19h151v-15q0 -96 -60.5 -154
t-161.5 -58z" />
    <glyph glyph-name="Cdotaccent" unicode="&#x10a;" horiz-adv-x="656" 
d="M253 764v146h150v-146h-150zM329 -15q-133 0 -210.5 62t-77.5 165v286q0 104 77 165.5t210 61.5t209.5 -61.5t76.5 -165.5v-64h-161v57q0 44 -32 69t-92 25q-64 0 -98.5 -25t-34.5 -69v-272q0 -44 34 -69t98 -25q60 0 92.5 25t32.5 69v57h161v-64q0 -104 -76.5 -165.5
t-208.5 -61.5z" />
    <glyph glyph-name="cdotaccent" unicode="&#x10b;" horiz-adv-x="523" 
d="M187 564v146h150v-146h-150zM265 -15q-107 0 -168 59.5t-61 161.5v98q0 102 61 161.5t167 59.5q101 0 162 -58t61 -154v-15h-151v19q0 34 -19.5 53.5t-51.5 19.5q-79 0 -79 -87v-96q0 -87 79 -87q32 0 51.5 19.5t19.5 53.5v19h151v-15q0 -96 -60.5 -154t-161.5 -58z" />
    <glyph glyph-name="Ccaron" unicode="&#x10c;" horiz-adv-x="656" 
d="M402 755h-149l-141 127h169l47 -43l46 43h169zM614 434h-161v57q0 44 -32 69t-92 25q-64 0 -98.5 -25t-34.5 -69v-272q0 -44 34 -69t98 -25q60 0 92.5 25t32.5 69v57h161v-64q0 -104 -76.5 -165.5t-208.5 -61.5q-133 0 -210.5 62t-77.5 165v286q0 104 77 165.5t210 61.5
t209.5 -61.5t76.5 -165.5v-64z" />
    <glyph glyph-name="ccaron" unicode="&#x10d;" horiz-adv-x="523" 
d="M327 555h-131l-131 157h150l47 -64l46 64h150zM487 298h-151v19q0 34 -19.5 53.5t-51.5 19.5q-79 0 -79 -87v-96q0 -87 79 -87q32 0 51.5 19.5t19.5 53.5v19h151v-15q0 -96 -60.5 -154t-161.5 -58q-107 0 -168 59.5t-61 161.5v98q0 102 61 161.5t167 59.5q101 0 162 -58
t61 -154v-15z" />
    <glyph glyph-name="Dcaron" unicode="&#x10e;" horiz-adv-x="649" 
d="M399 755h-149l-141 127h169l47 -43l46 43h169zM329 710q128 0 203.5 -62t75.5 -165v-256q0 -103 -75.5 -165t-202.5 -62h-280v710h279zM453 234v242q0 43 -30 68.5t-83 25.5h-135v-430h134q53 0 83.5 25.5t30.5 68.5z" />
    <glyph glyph-name="dcaron" unicode="&#x10f;" horiz-adv-x="658" 
d="M355 496v274h150v-770h-99l-24 34q-53 -49 -145 -49q-201 0 -201 216v108q0 216 201 216q69 0 118 -29zM551 770h143l-38 -215h-134zM269 121q39 0 62.5 21t23.5 60v106q0 39 -23.5 60t-62.5 21t-61 -21.5t-22 -62.5v-100q0 -41 22 -62.5t61 -21.5z" />
    <glyph glyph-name="Dcroat" unicode="&#x110;" horiz-adv-x="649" 
d="M329 710q128 0 203.5 -62t75.5 -165v-256q0 -103 -75.5 -165t-202.5 -62h-280v294h-86v122h86v294h279zM453 234v242q0 43 -30 68.5t-83 25.5h-135v-154h136v-122h-136v-154h134q53 0 83.5 25.5t30.5 68.5z" />
    <glyph glyph-name="dcroat" unicode="&#x111;" horiz-adv-x="557" 
d="M566 681v-122h-61v-559h-99l-24 34q-53 -49 -145 -49q-201 0 -201 216v108q0 216 201 216q69 0 118 -29v63h-122v122h122v89h150v-89h61zM269 121q39 0 62.5 21t23.5 60v106q0 39 -23.5 60t-62.5 21t-61 -21.5t-22 -62.5v-100q0 -41 22 -62.5t61 -21.5z" />
    <glyph glyph-name="Emacron" unicode="&#x112;" horiz-adv-x="535" 
d="M441 898v-122h-349v122h349zM508 570h-303v-155h263v-140h-263v-135h303v-140h-458v710h458v-140z" />
    <glyph glyph-name="emacron" unicode="&#x113;" horiz-adv-x="526" 
d="M437 698v-122h-349v122h349zM266 525q98 0 161 -55.5t63 -139.5v-119h-304v-9q0 -49 22.5 -73t59.5 -24q26 0 48.5 13.5t22.5 33.5v10h150q0 -81 -61.5 -129t-161.5 -48q-107 0 -168.5 61t-61.5 163v95q0 102 61.5 161.5t168.5 59.5zM186 318h151v12q0 75 -70 75
q-78 0 -81 -87z" />
    <glyph glyph-name="Edotaccent" unicode="&#x116;" horiz-adv-x="535" 
d="M342 910v-146h-150v146h150zM508 570h-303v-155h263v-140h-263v-135h303v-140h-458v710h458v-140z" />
    <glyph glyph-name="edotaccent" unicode="&#x117;" horiz-adv-x="526" 
d="M338 710v-146h-150v146h150zM266 525q98 0 161 -55.5t63 -139.5v-119h-304v-9q0 -49 22.5 -73t59.5 -24q26 0 48.5 13.5t22.5 33.5v10h150q0 -81 -61.5 -129t-161.5 -48q-107 0 -168.5 61t-61.5 163v95q0 102 61.5 161.5t168.5 59.5zM186 318h151v12q0 75 -70 75
q-78 0 -81 -87z" />
    <glyph glyph-name="Eogonek" unicode="&#x118;" horiz-adv-x="535" 
d="M508 570h-303v-155h263v-140h-263v-135h303v-140q-32 -17 -50 -40.5t-18 -44.5q0 -38 41 -38q14 0 22 1v-99q-35 -7 -67 -7q-78 0 -114.5 23.5t-36.5 87.5t72 117h-307v710h458v-140z" />
    <glyph glyph-name="eogonek" unicode="&#x119;" horiz-adv-x="526" 
d="M266 525q98 0 161 -55.5t63 -139.5v-119h-304v-9q0 -49 22.5 -73t59.5 -24q33 0 52 15t19 38v14h150q0 -43 -15 -78t-33 -55t-33 -49.5t-15 -63.5q0 -27 12.5 -38t41.5 -11q14 0 22 1v-99q-34 -7 -67 -7q-77 0 -113.5 23.5t-36.5 87.5q0 46 44 103q-10 -1 -30 -1
q-107 0 -168.5 61t-61.5 163v95q0 102 61.5 161.5t168.5 59.5zM186 318h151v12q0 75 -70 75q-78 0 -81 -87z" />
    <glyph glyph-name="Ecaron" unicode="&#x11a;" horiz-adv-x="535" 
d="M341 755h-149l-141 127h169l47 -43l46 43h169zM508 570h-303v-155h263v-140h-263v-135h303v-140h-458v710h458v-140z" />
    <glyph glyph-name="ecaron" unicode="&#x11b;" horiz-adv-x="526" 
d="M328 555h-131l-131 157h150l47 -64l46 64h150zM266 525q98 0 161 -55.5t63 -139.5v-119h-304v-9q0 -49 22.5 -73t59.5 -24q26 0 48.5 13.5t22.5 33.5v10h150q0 -81 -61.5 -129t-161.5 -48q-107 0 -168.5 61t-61.5 163v95q0 102 61.5 161.5t168.5 59.5zM186 318h151v12
q0 75 -70 75q-78 0 -81 -87z" />
    <glyph glyph-name="Gbreve" unicode="&#x11e;" horiz-adv-x="656" 
d="M328 750q-73 0 -118.5 42.5t-45.5 109.5h93q0 -29 19.5 -45.5t51.5 -16.5t51.5 16.5t19.5 45.5h93q0 -67 -45.5 -109.5t-118.5 -42.5zM614 454h-155v37q0 43 -35.5 68.5t-94.5 25.5q-61 0 -97 -25.5t-36 -68.5v-272q0 -43 36 -68.5t96 -25.5t95.5 25.5t35.5 68.5v26h-134
v140h289v-173q0 -104 -76.5 -165.5t-208.5 -61.5q-133 0 -210.5 62t-77.5 165v286q0 104 77 165.5t210 61.5t209.5 -61.5t76.5 -165.5v-44z" />
    <glyph glyph-name="gbreve" unicode="&#x11f;" horiz-adv-x="557" 
d="M274 550q-73 0 -118.5 42.5t-45.5 109.5h93q0 -29 19.5 -45.5t51.5 -16.5t51.5 16.5t19.5 45.5h93q0 -67 -45.5 -109.5t-118.5 -42.5zM406 510h99v-558q0 -86 -59.5 -141.5t-172.5 -55.5q-111 0 -169.5 53.5t-58.5 131.5h150q0 -23 22 -36.5t54 -13.5q35 0 59.5 16
t24.5 48v60q-49 -29 -120 -29q-95 0 -147 53t-52 163v108q0 110 52 163t147 53q92 0 147 -49zM269 121q39 0 62.5 21t23.5 60v106q0 39 -23.5 60t-62.5 21t-61 -21.5t-22 -62.5v-100q0 -41 22 -62.5t61 -21.5z" />
    <glyph glyph-name="Gdotaccent" unicode="&#x120;" horiz-adv-x="656" 
d="M403 910v-146h-150v146h150zM614 454h-155v37q0 43 -35.5 68.5t-94.5 25.5q-61 0 -97 -25.5t-36 -68.5v-272q0 -43 36 -68.5t96 -25.5t95.5 25.5t35.5 68.5v26h-134v140h289v-173q0 -104 -76.5 -165.5t-208.5 -61.5q-133 0 -210.5 62t-77.5 165v286q0 104 77 165.5
t210 61.5t209.5 -61.5t76.5 -165.5v-44z" />
    <glyph glyph-name="gdotaccent" unicode="&#x121;" horiz-adv-x="557" 
d="M349 710v-146h-150v146h150zM406 510h99v-558q0 -86 -59.5 -141.5t-172.5 -55.5q-111 0 -169.5 53.5t-58.5 131.5h150q0 -23 22 -36.5t54 -13.5q35 0 59.5 16t24.5 48v60q-49 -29 -120 -29q-95 0 -147 53t-52 163v108q0 110 52 163t147 53q92 0 147 -49zM269 121
q39 0 62.5 21t23.5 60v106q0 39 -23.5 60t-62.5 21t-61 -21.5t-22 -62.5v-100q0 -41 22 -62.5t61 -21.5z" />
    <glyph glyph-name="Gcommaaccent" unicode="&#x122;" horiz-adv-x="656" 
d="M614 454h-155v37q0 43 -35.5 68.5t-94.5 25.5q-61 0 -97 -25.5t-36 -68.5v-272q0 -43 36 -68.5t96 -25.5t95.5 25.5t35.5 68.5v26h-134v140h289v-173q0 -104 -76.5 -165.5t-208.5 -61.5q-133 0 -210.5 62t-77.5 165v286q0 104 77 165.5t210 61.5t209.5 -61.5t76.5 -165.5
v-44zM258 -163v117h141v-113l-71 -102h-66l41 98h-45z" />
    <glyph glyph-name="gcommaaccent" unicode="&#x123;" horiz-adv-x="557" 
d="M344 673v-117h-141v113l71 102h66l-41 -98h45zM406 510h99v-558q0 -86 -59.5 -141.5t-172.5 -55.5q-111 0 -169.5 53.5t-58.5 131.5h150q0 -23 22 -36.5t54 -13.5q35 0 59.5 16t24.5 48v60q-49 -29 -120 -29q-95 0 -147 53t-52 163v108q0 110 52 163t147 53q92 0 147 -49
zM269 121q39 0 62.5 21t23.5 60v106q0 39 -23.5 60t-62.5 21t-61 -21.5t-22 -62.5v-100q0 -41 22 -62.5t61 -21.5z" />
    <glyph glyph-name="Hbar" unicode="&#x126;" horiz-adv-x="660" 
d="M666 616v-122h-56v-494h-155v275h-250v-275h-155v494h-56v122h56v94h155v-94h250v94h155v-94h56zM455 415v79h-250v-79h250z" />
    <glyph glyph-name="hbar" unicode="&#x127;" horiz-adv-x="562" 
d="M323 525q90 0 141 -56t51 -173v-296h-150v298q0 44 -23 67.5t-57 23.5q-33 0 -57.5 -22t-24.5 -60v-307h-150v559h-62v122h62v89h150v-89h121v-122h-121v-65q52 31 120 31z" />
    <glyph glyph-name="Imacron" unicode="&#x12a;" horiz-adv-x="255" 
d="M302 898v-122h-349v122h349zM50 0v710h155v-710h-155z" />
    <glyph glyph-name="imacron" unicode="&#x12b;" horiz-adv-x="259" 
d="M303 698v-122h-349v122h349zM54 0v510h150v-510h-150z" />
    <glyph glyph-name="Iogonek" unicode="&#x12e;" horiz-adv-x="255" 
d="M205 0q-32 -17 -50 -40.5t-18 -44.5q0 -38 41 -38q14 0 22 1v-99q-35 -7 -67 -7q-78 0 -114.5 23.5t-36.5 87.5t72 117h-4v710h155v-710z" />
    <glyph glyph-name="iogonek" unicode="&#x12f;" horiz-adv-x="259" 
d="M54 710h150v-146h-150v146zM54 1v509h150v-510q-32 -17 -50 -40.5t-18 -44.5q0 -38 41 -38q14 0 22 1v-99q-35 -7 -67 -7q-78 0 -114.5 23.5t-36.5 87.5q0 65 73 118z" />
    <glyph glyph-name="Idotaccent" unicode="&#x130;" horiz-adv-x="255" 
d="M53 764v146h150v-146h-150zM50 0v710h155v-710h-155z" />
    <glyph glyph-name="dotlessi" unicode="&#x131;" horiz-adv-x="259" 
d="M54 0v510h150v-510h-150z" />
    <glyph glyph-name="IJ" unicode="&#x132;" horiz-adv-x="637" 
d="M50 0v710h155v-710h-155zM273 0v140h66q93 0 93 117v453h155v-453q0 -113 -69.5 -185t-187.5 -72h-57z" />
    <glyph glyph-name="ij" unicode="&#x133;" horiz-adv-x="533" 
d="M54 564v146h150v-146h-150zM328 564v146h150v-146h-150zM54 0v510h150v-510h-150zM228 -230v135h22q50 0 64 22.5t14 71.5v511h150v-550q0 -100 -53 -145t-132 -45h-65z" />
    <glyph glyph-name="Kcommaaccent" unicode="&#x136;" horiz-adv-x="662" 
d="M379 364l265 -364h-191l-248 336v-336h-155v710h155v-317l239 317h194zM261 -163v117h141v-113l-71 -102h-66l41 98h-45z" />
    <glyph glyph-name="kcommaaccent" unicode="&#x137;" horiz-adv-x="554" 
d="M361 269l191 -269h-177l-171 239v-239h-150v770h150v-472l164 212h180zM203 -163v117h141v-113l-71 -102h-66l41 98h-45z" />
    <glyph glyph-name="Lacute" unicode="&#x139;" horiz-adv-x="527" 
d="M352 910l-142 -155h-160l115 155h187zM205 140h310v-140h-465v710h155v-570z" />
    <glyph glyph-name="lacute" unicode="&#x13a;" horiz-adv-x="259" 
d="M353 970l-142 -155h-160l115 155h187zM54 770h150v-770h-150v770z" />
    <glyph glyph-name="Lcommaaccent" unicode="&#x13b;" horiz-adv-x="527" 
d="M205 140h310v-140h-465v710h155v-570zM193 -163v117h141v-113l-71 -102h-66l41 98h-45z" />
    <glyph glyph-name="lcommaaccent" unicode="&#x13c;" horiz-adv-x="259" 
d="M54 770h150v-770h-150v770zM59 -163v117h141v-113l-71 -102h-66l41 98h-45z" />
    <glyph glyph-name="Lcaron" unicode="&#x13d;" horiz-adv-x="527" 
d="M518 725l-38 -215h-134l29 215h143zM205 710v-570h310v-140h-465v710h155z" />
    <glyph glyph-name="lcaron" unicode="&#x13e;" horiz-adv-x="360" 
d="M54 770h150v-770h-150v770zM394 770l-38 -215h-134l29 215h143z" />
    <glyph glyph-name="Ldot" unicode="&#x13f;" horiz-adv-x="533" 
d="M205 140h310v-140h-465v710h155v-570zM475 444v-146h-147v146h147z" />
    <glyph glyph-name="ldot" unicode="&#x140;" horiz-adv-x="390" 
d="M54 770h150v-770h-150v770zM256 308v146h150v-146h-150z" />
    <glyph glyph-name="Lslash" unicode="&#x141;" horiz-adv-x="527" 
d="M205 140h310v-140h-465v228l-69 -23v143l69 23v339h155v-288l187 61v-143l-187 -61v-139z" />
    <glyph glyph-name="lslash" unicode="&#x142;" horiz-adv-x="259" 
d="M278 514v-156l-74 -42v-316h-150v229l-74 -42v156l74 42v385h150v-298z" />
    <glyph glyph-name="Nacute" unicode="&#x143;" horiz-adv-x="631" 
d="M540 910l-142 -155h-160l115 155h187zM438 710h144v-710h-144l-244 426v-426h-144v710h144l244 -428v428z" />
    <glyph glyph-name="nacute" unicode="&#x144;" horiz-adv-x="562" 
d="M480 734l-130 -179h-142l103 179h169zM322 525q91 0 142 -56t51 -173v-296h-150v299q0 43 -23 66.5t-57 23.5q-33 0 -57.5 -21.5t-24.5 -59.5v-308h-150v510h96l27 -36q57 51 146 51z" />
    <glyph glyph-name="Ncommaaccent" unicode="&#x145;" horiz-adv-x="631" 
d="M438 710h144v-710h-144l-244 426v-426h-144v710h144l244 -428v428zM246 -163v117h141v-113l-71 -102h-66l41 98h-45z" />
    <glyph glyph-name="ncommaaccent" unicode="&#x146;" horiz-adv-x="562" 
d="M322 525q91 0 142 -56t51 -173v-296h-150v299q0 43 -23 66.5t-57 23.5q-33 0 -57.5 -21.5t-24.5 -59.5v-308h-150v510h96l27 -36q57 51 146 51zM211 -163v117h141v-113l-71 -102h-66l41 98h-45z" />
    <glyph glyph-name="Ncaron" unicode="&#x147;" horiz-adv-x="631" 
d="M390 755h-149l-141 127h169l47 -43l46 43h169zM438 710h144v-710h-144l-244 426v-426h-144v710h144l244 -428v428z" />
    <glyph glyph-name="ncaron" unicode="&#x148;" horiz-adv-x="562" 
d="M346 555h-131l-131 157h150l47 -64l46 64h150zM322 525q91 0 142 -56t51 -173v-296h-150v299q0 43 -23 66.5t-57 23.5q-33 0 -57.5 -21.5t-24.5 -59.5v-308h-150v510h96l27 -36q57 51 146 51z" />
    <glyph glyph-name="Eng" unicode="&#x14a;" horiz-adv-x="631" 
d="M436 710h146v-648q0 -112 -68 -179.5t-189 -67.5h-46v137h55q71 0 94 62l-232 407v-421h-146v710h146l240 -423v423z" />
    <glyph glyph-name="eng" unicode="&#x14b;" horiz-adv-x="562" 
d="M322 525q91 0 142 -56t51 -173v-336q0 -100 -53 -145t-133 -45h-64v135h21q51 0 65 22.5t14 71.5v300q0 43 -23 66.5t-57 23.5q-33 0 -57.5 -21.5t-24.5 -59.5v-308h-150v510h99l25 -35q57 50 145 50z" />
    <glyph glyph-name="Omacron" unicode="&#x14c;" horiz-adv-x="662" 
d="M505 898v-122h-349v122h349zM332 -15q-135 0 -213 61.5t-78 165.5v286q0 104 77.5 165.5t212.5 61.5t212.5 -61.5t77.5 -165.5v-286q0 -104 -77 -165.5t-212 -61.5zM331 125q135 0 135 94v272q0 94 -134 94q-136 0 -136 -94v-272q0 -44 33.5 -69t101.5 -25z" />
    <glyph glyph-name="omacron" unicode="&#x14d;" horiz-adv-x="538" 
d="M443 698v-122h-349v122h349zM269 -15q-109 0 -171 59.5t-62 161.5v98q0 102 61.5 161.5t170.5 59.5q110 0 172 -59.5t62 -161.5v-98q0 -102 -62 -161.5t-171 -59.5zM268 120q84 0 84 87v96q0 87 -83 87t-83 -87v-96q0 -87 82 -87z" />
    <glyph glyph-name="Ohungarumlaut" unicode="&#x150;" horiz-adv-x="662" 
d="M391 886l-95 -131h-131l87 131h139zM603 886l-95 -131h-131l87 131h139zM332 -15q-135 0 -213 61.5t-78 165.5v286q0 104 77.5 165.5t212.5 61.5t212.5 -61.5t77.5 -165.5v-286q0 -104 -77 -165.5t-212 -61.5zM331 125q135 0 135 94v272q0 94 -134 94q-136 0 -136 -94
v-272q0 -44 33.5 -69t101.5 -25z" />
    <glyph glyph-name="ohungarumlaut" unicode="&#x151;" horiz-adv-x="538" 
d="M302 689l-72 -134h-125l63 134h134zM512 689l-72 -134h-125l63 134h134zM269 -15q-109 0 -171 59.5t-62 161.5v98q0 102 61.5 161.5t170.5 59.5q110 0 172 -59.5t62 -161.5v-98q0 -102 -62 -161.5t-171 -59.5zM268 120q84 0 84 87v96q0 87 -83 87t-83 -87v-96
q0 -87 82 -87z" />
    <glyph glyph-name="OE" unicode="&#x152;" horiz-adv-x="951" 
d="M621 570v-155h263v-140h-263v-135h303v-140h-458v5q-58 -20 -134 -20q-135 0 -213 61.5t-78 165.5v286q0 104 77.5 165.5t212.5 61.5q75 0 135 -20v5h458v-140h-303zM331 125q135 0 135 94v272q0 94 -134 94q-136 0 -136 -94v-272q0 -44 33.5 -69t101.5 -25z" />
    <glyph glyph-name="oe" unicode="&#x153;" horiz-adv-x="838" 
d="M578 525q98 0 161 -55.5t63 -139.5v-119h-300v-5q0 -12 -2 -32q13 -69 80 -69q26 0 48.5 13.5t22.5 33.5v10h150q0 -81 -61.5 -129t-161.5 -48q-92 0 -152 47q-61 -47 -157 -47q-109 0 -171 59.5t-62 161.5v98q0 102 61.5 161.5t170.5 59.5q97 0 157 -46q58 46 153 46z
M502 318h147v12q0 75 -70 75q-68 0 -79 -67q1 -3 1.5 -10t0.5 -10zM268 120q70 0 81 59q-1 10 -1 30v95q0 19 1 28q-12 58 -80 58q-83 0 -83 -87v-96q0 -87 82 -87z" />
    <glyph glyph-name="Racute" unicode="&#x154;" horiz-adv-x="620" 
d="M537 910l-142 -155h-160l115 155h187zM430 0l-100 256h-125v-256h-155v710h299q105 0 169 -56t64 -149v-44q0 -120 -100 -174l109 -287h-161zM205 570v-174h154q32 0 50 15t18 43v58q0 27 -18 42.5t-49 15.5h-155z" />
    <glyph glyph-name="racute" unicode="&#x155;" horiz-adv-x="376" 
d="M385 734l-130 -179h-142l103 179h169zM181 469q62 52 148 52q16 0 24 -1v-130q-31 9 -52 9q-42 0 -70 -26t-28 -76v-297h-150v510h99z" />
    <glyph glyph-name="Rcommaaccent" unicode="&#x156;" horiz-adv-x="620" 
d="M482 287l109 -287h-161l-100 256h-125v-256h-155v710h299q105 0 169 -56t64 -149v-44q0 -120 -100 -174zM205 570v-174h154q32 0 50 15t18 43v58q0 27 -18 42.5t-49 15.5h-155zM243 -163v117h141v-113l-71 -102h-66l41 98h-45z" />
    <glyph glyph-name="rcommaaccent" unicode="&#x157;" horiz-adv-x="376" 
d="M329 521q16 0 24 -1v-130q-31 9 -52 9q-42 0 -70 -26t-28 -76v-297h-150v510h99l29 -41q62 52 148 52zM148 -163v117h141v-113l-71 -102h-66l41 98h-45z" />
    <glyph glyph-name="Rcaron" unicode="&#x158;" horiz-adv-x="620" 
d="M387 755h-149l-141 127h169l47 -43l46 43h169zM430 0l-100 256h-125v-256h-155v710h299q105 0 169 -56t64 -149v-44q0 -120 -100 -174l109 -287h-161zM205 570v-174h154q32 0 50 15t18 43v58q0 27 -18 42.5t-49 15.5h-155z" />
    <glyph glyph-name="rcaron" unicode="&#x159;" horiz-adv-x="376" 
d="M251 555h-131l-131 157h150l47 -64l46 64h150zM181 469q62 52 148 52q16 0 24 -1v-130q-31 9 -52 9q-42 0 -70 -26t-28 -76v-297h-150v510h99z" />
    <glyph glyph-name="Sacute" unicode="&#x15a;" horiz-adv-x="624" 
d="M537 910l-142 -155h-160l115 155h187zM318 -15q-132 0 -208.5 65t-76.5 170v25h155v-35q0 -39 39.5 -63t94.5 -24q45 0 79 20.5t34 59.5q0 31 -28.5 51.5t-71.5 31t-93.5 26.5t-93.5 36t-71.5 62t-28.5 102q0 93 66 153t197 60t199.5 -59t68.5 -157v-33h-155v37
q0 32 -33 52t-82 20q-46 0 -75.5 -18t-29.5 -51q0 -24 28.5 -41.5t71.5 -27.5t93.5 -27.5t93.5 -39.5t71.5 -66t28.5 -104q0 -99 -72 -162t-201 -63z" />
    <glyph glyph-name="sacute" unicode="&#x15b;" horiz-adv-x="473" 
d="M435 734l-130 -179h-142l103 179h169zM238 -15q-95 0 -154 48.5t-59 124.5v12h149v-12q0 -21 20 -33t50 -12q27 0 43.5 9t16.5 25t-20 27t-50.5 16.5t-65.5 16.5t-65.5 25.5t-50.5 45.5t-20 74q0 77 57.5 125t148.5 48t148 -47.5t57 -120.5v-10h-148v10q0 18 -16.5 29
t-41.5 11q-26 0 -41.5 -10.5t-15.5 -24.5q0 -17 28 -27.5t68 -19t80.5 -23t68.5 -49t28 -87.5q0 -82 -62.5 -126.5t-152.5 -44.5z" />
    <glyph glyph-name="Scedilla" unicode="&#x15e;" horiz-adv-x="624" 
d="M591 210q0 -89 -58.5 -149.5t-165.5 -72.5l-29 -149h-162l60 154q-96 19 -149.5 79.5t-53.5 147.5v25h155v-35q0 -39 39.5 -63t94.5 -24q45 0 79 20.5t34 59.5q0 31 -28.5 51.5t-71.5 31t-93.5 26.5t-93.5 36t-71.5 62t-28.5 102q0 93 66 153t197 60t199.5 -59t68.5 -157
v-33h-155v37q0 32 -33 52t-82 20q-46 0 -75.5 -18t-29.5 -51q0 -24 28.5 -41.5t71.5 -27.5t93.5 -27.5t93.5 -39.5t71.5 -66t28.5 -104z" />
    <glyph glyph-name="scedilla" unicode="&#x15f;" horiz-adv-x="473" 
d="M453 156q0 -70 -45.5 -112.5t-117.5 -54.5l-29 -150h-162l61 156q-63 18 -99 61.5t-36 101.5v12h149v-12q0 -21 20 -33t50 -12q27 0 43.5 9t16.5 25t-20 27t-50.5 16.5t-65.5 16.5t-65.5 25.5t-50.5 45.5t-20 74q0 77 57.5 125t148.5 48t148 -47.5t57 -120.5v-10h-148v10
q0 18 -16.5 29t-41.5 11q-26 0 -41.5 -10.5t-15.5 -24.5q0 -17 28 -27.5t68 -19t80.5 -23t68.5 -49t28 -87.5z" />
    <glyph glyph-name="Scaron" unicode="&#x160;" horiz-adv-x="624" 
d="M387 755h-149l-141 127h169l47 -43l46 43h169zM204 516q0 -24 28.5 -41.5t71.5 -27.5t93.5 -27.5t93.5 -39.5t71.5 -66t28.5 -104q0 -99 -72 -162t-201 -63q-132 0 -208.5 65t-76.5 170v25h155v-35q0 -39 39.5 -63t94.5 -24q45 0 79 20.5t34 59.5q0 31 -28.5 51.5
t-71.5 31t-93.5 26.5t-93.5 36t-71.5 62t-28.5 102q0 93 66 153t197 60t199.5 -59t68.5 -157v-33h-155v37q0 32 -33 52t-82 20q-46 0 -75.5 -18t-29.5 -51z" />
    <glyph glyph-name="scaron" unicode="&#x161;" horiz-adv-x="473" 
d="M301 555h-131l-131 157h150l47 -64l46 64h150zM180 362q0 -17 28 -27.5t68 -19t80.5 -23t68.5 -49t28 -87.5q0 -82 -62.5 -126.5t-152.5 -44.5q-95 0 -154 48.5t-59 124.5v12h149v-12q0 -21 20 -33t50 -12q27 0 43.5 9t16.5 25t-20 27t-50.5 16.5t-65.5 16.5t-65.5 25.5
t-50.5 45.5t-20 74q0 77 57.5 125t148.5 48t148 -47.5t57 -120.5v-10h-148v10q0 18 -16.5 29t-41.5 11q-26 0 -41.5 -10.5t-15.5 -24.5z" />
    <glyph glyph-name="uni0162" unicode="&#x162;" horiz-adv-x="551" 
d="M543 710v-140h-189v-570h-11l-31 -161h-162l62 161h-13v570h-191v140h535z" />
    <glyph glyph-name="uni0163" unicode="&#x163;" horiz-adv-x="366" 
d="M346 135v-135h-75l-31 -161h-162l73 187q-79 49 -79 177v172h-68v135h68v143h150v-143h117v-135h-117v-145q0 -95 75 -95h49z" />
    <glyph glyph-name="Tcaron" unicode="&#x164;" horiz-adv-x="551" 
d="M350 755h-149l-141 127h169l47 -43l46 43h169zM543 710v-140h-189v-570h-155v570h-191v140h535z" />
    <glyph glyph-name="tcaron" unicode="&#x165;" horiz-adv-x="467" 
d="M284 770h143l-38 -215h-134zM222 230q0 -95 75 -95h49v-135h-84q-190 0 -190 203v172h-68v135h68v143h150v-143h117v-135h-117v-145z" />
    <glyph glyph-name="Tbar" unicode="&#x166;" horiz-adv-x="551" 
d="M543 570h-189v-154h110v-122h-110v-294h-155v294h-112v122h112v154h-191v140h535v-140z" />
    <glyph glyph-name="tbar" unicode="&#x167;" horiz-adv-x="366" 
d="M297 135h49v-135h-84q-190 0 -190 203v7h-66v122h66v43h-68v135h68v143h150v-143h117v-135h-117v-43h117v-122h-116q8 -75 74 -75z" />
    <glyph glyph-name="Umacron" unicode="&#x16a;" horiz-adv-x="644" 
d="M496 898v-122h-349v122h349zM323 -15q-130 0 -206 62t-76 165v498h155v-491q0 -44 33 -69t93 -25t92.5 25t32.5 69v491h155v-498q0 -104 -75 -165.5t-204 -61.5z" />
    <glyph glyph-name="umacron" unicode="&#x16b;" horiz-adv-x="547" 
d="M448 698v-122h-349v122h349zM344 510h150v-510h-95l-26 34q-52 -49 -135 -49q-89 0 -139.5 56t-50.5 173v296h150v-299q0 -44 19.5 -67t53.5 -23q29 0 51 21.5t22 59.5v308z" />
    <glyph glyph-name="Uring" unicode="&#x16e;" horiz-adv-x="644" 
d="M322 1002q59 0 96.5 -35t37.5 -91t-37.5 -91t-96.5 -35t-96 35t-37 91q0 55 37 90.5t96 35.5zM322 912q-19 0 -30.5 -10t-11.5 -26t11.5 -26t30.5 -10q20 0 31.5 10t11.5 26t-12 26t-31 10zM323 -15q-130 0 -206 62t-76 165v498h155v-491q0 -44 33 -69t93 -25t92.5 25
t32.5 69v491h155v-498q0 -104 -75 -165.5t-204 -61.5z" />
    <glyph glyph-name="uring" unicode="&#x16f;" horiz-adv-x="547" 
d="M274 550q-59 0 -96 35t-37 91q0 55 37 90.5t96 35.5t96.5 -35t37.5 -91t-37.5 -91t-96.5 -35zM274 712q-19 0 -30.5 -10t-11.5 -26t11.5 -26t30.5 -10q20 0 31.5 10t11.5 26t-12 26t-31 10zM344 510h150v-510h-95l-26 34q-52 -49 -135 -49q-89 0 -139.5 56t-50.5 173v296
h150v-299q0 -44 19.5 -67t53.5 -23q29 0 51 21.5t22 59.5v308z" />
    <glyph glyph-name="Uhungarumlaut" unicode="&#x170;" horiz-adv-x="644" 
d="M382 886l-95 -131h-131l87 131h139zM594 886l-95 -131h-131l87 131h139zM323 -15q-130 0 -206 62t-76 165v498h155v-491q0 -44 33 -69t93 -25t92.5 25t32.5 69v491h155v-498q0 -104 -75 -165.5t-204 -61.5z" />
    <glyph glyph-name="uhungarumlaut" unicode="&#x171;" horiz-adv-x="547" 
d="M307 689l-72 -134h-125l63 134h134zM517 689l-72 -134h-125l63 134h134zM344 202v308h150v-510h-95l-26 34q-52 -49 -135 -49q-89 0 -139.5 56t-50.5 173v296h150v-299q0 -44 19.5 -67t53.5 -23q29 0 51 21.5t22 59.5z" />
    <glyph glyph-name="Uogonek" unicode="&#x172;" horiz-adv-x="644" 
d="M447 710h155v-498q0 -111 -83 -171l3 -2q-37 -29 -58 -63t-21 -59q0 -40 51 -40q15 0 23 1v-99q-35 -7 -68 -7q-77 0 -113.5 23.5t-36.5 87.5q0 42 51 103q-9 -1 -27 -1q-130 0 -206 62t-76 165v498h155v-491q0 -44 33 -69t93 -25t92.5 25t32.5 69v491z" />
    <glyph glyph-name="uogonek" unicode="&#x173;" horiz-adv-x="547" 
d="M494 0q-32 -17 -50 -40.5t-18 -44.5q0 -38 41 -38q14 0 22 1v-99q-35 -7 -67 -7q-77 0 -113.5 23.5t-36.5 87.5q0 78 113 136l-14 18q-59 -52 -133 -52q-84 0 -137 57t-53 172v296h150v-299q0 -44 19.5 -67t53.5 -23q29 0 51 21.5t22 59.5v308h150v-510z" />
    <glyph glyph-name="Wcircumflex" unicode="&#x174;" horiz-adv-x="946" 
d="M475 799l-46 -43h-169l141 127h149l141 -127h-169zM770 711h162l-164 -710h-203l-92 410l-92 -410h-204l-163 710h163l109 -539l115 539h138l122 -541z" />
    <glyph glyph-name="wcircumflex" unicode="&#x175;" horiz-adv-x="701" 
d="M353 619l-46 -64h-150l131 157h131l131 -157h-150zM542 510h152l-119 -510h-153l-71 224l-71 -224h-154l-119 510h152l60 -357l73 357h117l74 -357z" />
    <glyph glyph-name="Ycircumflex" unicode="&#x176;" horiz-adv-x="629" 
d="M317 799l-46 -43h-169l141 127h149l141 -127h-169zM615 710l-223 -472v-238h-155v236l-223 474h169l133 -291l132 291h167z" />
    <glyph glyph-name="ycircumflex" unicode="&#x177;" horiz-adv-x="548" 
d="M276 619l-46 -64h-150l131 157h131l131 -157h-150zM345 510h150v-558q0 -86 -57 -141.5t-167 -55.5q-108 0 -165 53.5t-57 131.5h150q0 -23 20 -36.5t49 -13.5q33 0 55 16t22 48v58q-47 -27 -106 -27q-89 0 -139.5 56t-50.5 173v296h150v-299q0 -44 19.5 -67t53.5 -23
q29 0 51 21.5t22 59.5v308z" />
    <glyph glyph-name="Ydieresis" unicode="&#x178;" horiz-adv-x="629" 
d="M279 897v-133h-136v133h136zM486 897v-133h-136v133h136zM615 710l-223 -472v-238h-155v236l-223 474h169l133 -291l132 291h167z" />
    <glyph glyph-name="Zacute" unicode="&#x179;" horiz-adv-x="553" 
d="M501 910l-142 -155h-160l115 155h187zM204 140h331v-140h-516v148l325 422h-307v140h492v-148z" />
    <glyph glyph-name="zacute" unicode="&#x17a;" horiz-adv-x="473" 
d="M436 734l-130 -179h-142l103 179h169zM448 510v-110l-218 -265h218v-135h-423v109l219 266h-203v135h407z" />
    <glyph glyph-name="Zdotaccent" unicode="&#x17b;" horiz-adv-x="553" 
d="M352 910v-146h-150v146h150zM204 140h331v-140h-516v148l325 422h-307v140h492v-148z" />
    <glyph glyph-name="zdotaccent" unicode="&#x17c;" horiz-adv-x="473" 
d="M312 710v-146h-150v146h150zM448 510v-110l-218 -265h218v-135h-423v109l219 266h-203v135h407z" />
    <glyph glyph-name="Zcaron" unicode="&#x17d;" horiz-adv-x="553" 
d="M351 755h-149l-141 127h169l47 -43l46 43h169zM204 140h331v-140h-516v148l325 422h-307v140h492v-148z" />
    <glyph glyph-name="zcaron" unicode="&#x17e;" horiz-adv-x="473" 
d="M302 555h-131l-131 157h150l47 -64l46 64h150zM448 510v-110l-218 -265h218v-135h-423v109l219 266h-203v135h407z" />
    <glyph glyph-name="uni01CD" unicode="&#x1cd;" horiz-adv-x="645" 
d="M397 755h-149l-141 127h169l47 -43l46 43h169zM478 0l-37 125h-238l-37 -125h-152l198 710h221l198 -710h-153zM401 265l-79 283l-79 -283h158z" />
    <glyph glyph-name="uni01CE" unicode="&#x1ce;" horiz-adv-x="557" 
d="M339 555h-131l-131 157h150l47 -64l46 64h150zM406 510h99v-510h-99l-24 34q-55 -49 -147 -49q-95 0 -147 53t-52 163v108q0 110 52 163t147 53q92 0 147 -49zM269 121q39 0 62.5 21t23.5 60v106q0 39 -23.5 60t-62.5 21t-61 -21.5t-22 -62.5v-100q0 -41 22 -62.5
t61 -21.5z" />
    <glyph glyph-name="uni01CF" unicode="&#x1cf;" horiz-adv-x="255" 
d="M202 755h-149l-141 127h169l47 -43l46 43h169zM50 0v710h155v-710h-155z" />
    <glyph glyph-name="uni01D0" unicode="&#x1d0;" horiz-adv-x="259" 
d="M194 555h-131l-131 157h150l47 -64l46 64h150zM54 0v510h150v-510h-150z" />
    <glyph glyph-name="uni01D1" unicode="&#x1d1;" horiz-adv-x="662" 
d="M405 755h-149l-141 127h169l47 -43l46 43h169zM331 725q135 0 212.5 -61.5t77.5 -165.5v-286q0 -104 -77 -165.5t-212 -61.5t-213 61.5t-78 165.5v286q0 104 77.5 165.5t212.5 61.5zM466 219v272q0 94 -134 94q-136 0 -136 -94v-272q0 -44 33.5 -69t101.5 -25
q135 0 135 94z" />
    <glyph glyph-name="uni01D2" unicode="&#x1d2;" horiz-adv-x="538" 
d="M334 555h-131l-131 157h150l47 -64l46 64h150zM268 525q110 0 172 -59.5t62 -161.5v-98q0 -102 -62 -161.5t-171 -59.5t-171 59.5t-62 161.5v98q0 102 61.5 161.5t170.5 59.5zM352 207v96q0 87 -83 87t-83 -87v-96q0 -87 82 -87q84 0 84 87z" />
    <glyph glyph-name="uni01D3" unicode="&#x1d3;" horiz-adv-x="644" 
d="M396 755h-149l-141 127h169l47 -43l46 43h169zM447 710h155v-498q0 -104 -75 -165.5t-204 -61.5q-130 0 -206 62t-76 165v498h155v-491q0 -44 33 -69t93 -25t92.5 25t32.5 69v491z" />
    <glyph glyph-name="uni01D4" unicode="&#x1d4;" horiz-adv-x="547" 
d="M339 555h-131l-131 157h150l47 -64l46 64h150zM344 510h150v-510h-95l-26 34q-52 -49 -135 -49q-89 0 -139.5 56t-50.5 173v296h150v-299q0 -44 19.5 -67t53.5 -23q29 0 51 21.5t22 59.5v308z" />
    <glyph glyph-name="Scommaaccent" unicode="&#x218;" horiz-adv-x="624" 
d="M204 516q0 -24 28.5 -41.5t71.5 -27.5t93.5 -27.5t93.5 -39.5t71.5 -66t28.5 -104q0 -99 -72 -162t-201 -63q-132 0 -208.5 65t-76.5 170v25h155v-35q0 -39 39.5 -63t94.5 -24q45 0 79 20.5t34 59.5q0 31 -28.5 51.5t-71.5 31t-93.5 26.5t-93.5 36t-71.5 62t-28.5 102
q0 93 66 153t197 60t199.5 -59t68.5 -157v-33h-155v37q0 32 -33 52t-82 20q-46 0 -75.5 -18t-29.5 -51zM243 -163v117h141v-113l-71 -102h-66l41 98h-45z" />
    <glyph glyph-name="scommaaccent" unicode="&#x219;" horiz-adv-x="473" 
d="M180 362q0 -17 28 -27.5t68 -19t80.5 -23t68.5 -49t28 -87.5q0 -82 -62.5 -126.5t-152.5 -44.5q-95 0 -154 48.5t-59 124.5v12h149v-12q0 -21 20 -33t50 -12q27 0 43.5 9t16.5 25t-20 27t-50.5 16.5t-65.5 16.5t-65.5 25.5t-50.5 45.5t-20 74q0 77 57.5 125t148.5 48
t148 -47.5t57 -120.5v-10h-148v10q0 18 -16.5 29t-41.5 11q-26 0 -41.5 -10.5t-15.5 -24.5zM166 -163v117h141v-113l-71 -102h-66l41 98h-45z" />
    <glyph glyph-name="uni021A" unicode="&#x21a;" horiz-adv-x="551" 
d="M543 710v-140h-189v-570h-155v570h-191v140h535zM204 -163v117h141v-113l-71 -102h-66l41 98h-45z" />
    <glyph glyph-name="uni021B" unicode="&#x21b;" horiz-adv-x="366" 
d="M297 135h49v-135h-84q-190 0 -190 203v172h-68v135h68v143h150v-143h117v-135h-117v-145q0 -95 75 -95zM145 -163v117h141v-113l-71 -102h-66l41 98h-45z" />
    <glyph glyph-name="uni0237" unicode="&#x237;" horiz-adv-x="274" 
d="M-31 -230v135h22q50 0 64 22.5t14 71.5v511h150v-550q0 -100 -53 -145t-132 -45h-65z" />
    <glyph glyph-name="circumflex" unicode="&#x2c6;" horiz-adv-x="447" 
d="M420 555h-150l-47 64l-46 -64h-150l131 157h131z" />
    <glyph glyph-name="caron" unicode="&#x2c7;" horiz-adv-x="447" 
d="M267 712h150l-131 -157h-131l-131 157h150l47 -64z" />
    <glyph glyph-name="breve" unicode="&#x2d8;" horiz-adv-x="381" 
d="M189 550q-73 0 -118.5 42.5t-45.5 109.5h93q0 -29 19.5 -45.5t51.5 -16.5t51.5 16.5t19.5 45.5h93q0 -67 -45.5 -109.5t-118.5 -42.5z" />
    <glyph glyph-name="dotaccent" unicode="&#x2d9;" horiz-adv-x="204" 
d="M25 564v146h150v-146h-150z" />
    <glyph glyph-name="ring" unicode="&#x2da;" horiz-adv-x="334" 
d="M164 802q59 0 96.5 -35t37.5 -91t-37.5 -91t-96.5 -35t-96 35t-37 91q0 55 37 90.5t96 35.5zM164 712q-19 0 -30.5 -10t-11.5 -26t11.5 -26t30.5 -10q20 0 31.5 10t11.5 26t-12 26t-31 10z" />
    <glyph glyph-name="ogonek" unicode="&#x2db;" horiz-adv-x="215" 
d="M202 -221q-35 -7 -67 -7q-78 0 -114.5 23.5t-36.5 87.5q0 43 35.5 84.5t108.5 72.5l79 -40q-32 -17 -50 -40.5t-18 -44.5q0 -38 41 -38q14 0 22 1v-99z" />
    <glyph glyph-name="tilde" unicode="&#x2dc;" horiz-adv-x="389" 
d="M399 705q0 -81 -26 -115.5t-79 -34.5q-36 0 -78 21.5t-55 21.5q-29 0 -29 -43h-107q0 72 22.5 111t81.5 39q34 0 77 -21t56 -21q30 0 30 42h107z" />
    <glyph glyph-name="hungarumlaut" unicode="&#x2dd;" horiz-adv-x="435" 
d="M228 689l-72 -134h-125l63 134h134zM438 689l-72 -134h-125l63 134h134z" />
    <glyph glyph-name="gravecomb" unicode="&#x300;" horiz-adv-x="0" 
d="M-300 734h170l102 -179h-142z" />
    <glyph glyph-name="acutecomb" unicode="&#x301;" horiz-adv-x="0" 
d="M-28 734l-130 -179h-142l103 179h169z" />
    <glyph glyph-name="uni0302" unicode="&#x302;" horiz-adv-x="0" 
d="M-42 555h-150l-47 64l-46 -64h-150l131 157h131z" />
    <glyph glyph-name="tildecomb" unicode="&#x303;" horiz-adv-x="0" 
d="M-26 705q0 -81 -26 -115.5t-79 -34.5q-36 0 -78 21.5t-55 21.5q-29 0 -29 -43h-107q0 72 22.5 111t81.5 39q34 0 77 -21t56 -21q30 0 30 42h107z" />
    <glyph glyph-name="uni0304" unicode="&#x304;" horiz-adv-x="0" 
d="M-27 698v-122h-349v122h349z" />
    <glyph glyph-name="uni0306" unicode="&#x306;" horiz-adv-x="0" 
d="M-203 550q-73 0 -118.5 42.5t-45.5 109.5h93q0 -29 19.5 -45.5t51.5 -16.5t51.5 16.5t19.5 45.5h93q0 -67 -45.5 -109.5t-118.5 -42.5z" />
    <glyph glyph-name="uni0307" unicode="&#x307;" horiz-adv-x="0" 
d="M-185 564v146h150v-146h-150z" />
    <glyph glyph-name="uni0308" unicode="&#x308;" horiz-adv-x="0" 
d="M-370 564v133h136v-133h-136zM-163 564v133h136v-133h-136z" />
    <glyph glyph-name="uni030A" unicode="&#x30a;" horiz-adv-x="0" 
d="M-168 802q59 0 96.5 -35t37.5 -91t-37.5 -91t-96.5 -35t-96 35t-37 91q0 55 37 90.5t96 35.5zM-168 712q-19 0 -30.5 -10t-11.5 -26t11.5 -26t30.5 -10q20 0 31.5 10t11.5 26t-12 26t-31 10z" />
    <glyph glyph-name="uni030B" unicode="&#x30b;" horiz-adv-x="0" 
d="M-220 689l-72 -134h-125l63 134h134zM-10 689l-72 -134h-125l63 134h134z" />
    <glyph glyph-name="uni030C" unicode="&#x30c;" horiz-adv-x="0" 
d="M-195 712h150l-131 -157h-131l-131 157h150l47 -64z" />
    <glyph glyph-name="uni0326" unicode="&#x326;" horiz-adv-x="0" 
d="M-189 -46h141v-113l-71 -102h-66l41 98h-45v117z" />
    <glyph glyph-name="uni0327" unicode="&#x327;" horiz-adv-x="0" 
d="M-259 -161l74 191h125l-37 -191h-162z" />
    <glyph glyph-name="uni0328" unicode="&#x328;" horiz-adv-x="0" 
d="M-84 -221q-35 -7 -67 -7q-78 0 -114.5 23.5t-36.5 87.5q0 43 35.5 84.5t108.5 72.5l79 -40q-32 -17 -50 -40.5t-18 -44.5q0 -38 41 -38q14 0 22 1v-99z" />
    <glyph glyph-name="uni0338" unicode="&#x338;" horiz-adv-x="0" 
d="M-388 -8l-127 63l292 615l128 -63z" />
    <glyph glyph-name="uni0394" unicode="&#x394;" horiz-adv-x="620" 
d="M422 710l171 -570v-140h-566v140l171 570h224zM310 549l-126 -409h253z" />
    <glyph glyph-name="uni03A9" unicode="&#x3a9;" horiz-adv-x="677" 
d="M594 140h50v-140h-273v140q92 19 92 97v254q0 94 -122 94q-127 0 -127 -94v-254q0 -78 92 -97v-140h-273v140h50q-24 38 -24 87v271q0 104 75 165.5t207 61.5q129 0 203 -61.5t74 -165.5v-271q0 -49 -24 -87z" />
    <glyph glyph-name="uni03BC" unicode="&#x3bc;" horiz-adv-x="554" 
d="M532 123q10 0 20 3v-136q-24 -5 -53 -5q-81 0 -120 55q-54 -55 -141 -55q-20 0 -40 3v-218h-150v740h150v-299q0 -44 19.5 -67t53.5 -23q29 0 51 21.5t22 59.5v308h150v-312q0 -41 8.5 -58t29.5 -17z" />
    <glyph glyph-name="pi" unicode="&#x3c0;" horiz-adv-x="574" 
d="M550 375h-58v-177q0 -41 8 -58t29 -17q9 0 20 3v-136q-24 -5 -52 -5q-155 0 -155 196v194h-120v-375h-150v375h-48v135h526v-135z" />
    <glyph glyph-name="uni0401" unicode="&#x401;" horiz-adv-x="535" 
d="M231 897v-133h-136v133h136zM438 897v-133h-136v133h136zM508 570h-303v-155h263v-140h-263v-135h303v-140h-458v710h458v-140z" />
    <glyph glyph-name="uni0402" unicode="&#x402;" horiz-adv-x="710" 
d="M431 500q112 0 176.5 -62.5t64.5 -170.5v-44q0 -100 -70 -161.5t-183 -61.5h-52v140h58q41 0 66.5 23.5t25.5 60.5v42q0 94 -105 94q-54 0 -82.5 -25.5t-28.5 -74.5v-260h-155v570h-133v140h470v-140h-182v-98q52 28 130 28z" />
    <glyph glyph-name="uni0403" unicode="&#x403;" horiz-adv-x="527" 
d="M486 910l-142 -155h-160l115 155h187zM515 710v-140h-310v-570h-155v710h465z" />
    <glyph glyph-name="uni0404" unicode="&#x404;" horiz-adv-x="656" 
d="M614 434h-161v57q0 44 -32 69t-92 25q-64 0 -98.5 -25t-34.5 -69v-62h182v-140h-182v-70q0 -44 34 -69t98 -25q60 0 92.5 25t32.5 69v57h161v-64q0 -104 -76.5 -165.5t-208.5 -61.5q-133 0 -210.5 62t-77.5 165v286q0 104 77 165.5t210 61.5t209.5 -61.5t76.5 -165.5v-64
z" />
    <glyph glyph-name="uni0405" unicode="&#x405;" horiz-adv-x="624" 
d="M318 -15q-132 0 -208.5 65t-76.5 170v25h155v-35q0 -39 39.5 -63t94.5 -24q45 0 79 20.5t34 59.5q0 31 -28.5 51.5t-71.5 31t-93.5 26.5t-93.5 36t-71.5 62t-28.5 102q0 93 66 153t197 60t199.5 -59t68.5 -157v-33h-155v37q0 32 -33 52t-82 20q-46 0 -75.5 -18t-29.5 -51
q0 -24 28.5 -41.5t71.5 -27.5t93.5 -27.5t93.5 -39.5t71.5 -66t28.5 -104q0 -99 -72 -162t-201 -63z" />
    <glyph glyph-name="uni0406" unicode="&#x406;" horiz-adv-x="255" 
d="M50 0v710h155v-710h-155z" />
    <glyph glyph-name="uni0407" unicode="&#x407;" horiz-adv-x="255" 
d="M-44 764v133h136v-133h-136zM163 764v133h136v-133h-136zM50 0v710h155v-710h-155z" />
    <glyph glyph-name="uni0408" unicode="&#x408;" horiz-adv-x="382" 
d="M18 0v140h66q93 0 93 117v453h155v-453q0 -113 -69.5 -185t-187.5 -72h-57z" />
    <glyph glyph-name="uni0409" unicode="&#x409;" horiz-adv-x="1035" 
d="M777 466q105 0 168 -56.5t63 -150.5v-52q0 -94 -63.5 -150.5t-168.5 -56.5h-300v570h-161l-32 -313q-12 -121 -78.5 -189t-177.5 -68h-12v140h20q43 0 64.5 28.5t27.5 88.5l46 453h458v-244h146zM853 200v66q0 28 -18 44t-49 16h-155v-186h156q31 0 48.5 16t17.5 44z" />
    <glyph glyph-name="uni040A" unicode="&#x40a;" horiz-adv-x="1014" 
d="M755 466q105 0 168.5 -56.5t63.5 -150.5v-52q0 -94 -64 -150.5t-169 -56.5h-299v275h-250v-275h-155v710h155v-295h250v295h155v-244h145zM832 200v66q0 28 -18.5 44t-49.5 16h-154v-186h155q31 0 49 16t18 44z" />
    <glyph glyph-name="uni040B" unicode="&#x40b;" horiz-adv-x="710" 
d="M467 499q99 0 152 -53.5t53 -153.5v-292h-155v282q0 37 -19 57t-55 20h-62q-38 0 -59 -20t-21 -56v-283h-155v570h-133v140h470v-140h-182v-93q47 22 106 22h60z" />
    <glyph glyph-name="uni040C" unicode="&#x40c;" horiz-adv-x="662" 
d="M555 910l-142 -155h-160l115 155h187zM644 0h-191l-248 336v-336h-155v710h155v-317l239 317h194l-259 -346z" />
    <glyph glyph-name="uni040E" unicode="&#x40e;" horiz-adv-x="635" 
d="M322 750q-73 0 -118.5 42.5t-45.5 109.5h93q0 -29 19.5 -45.5t51.5 -16.5t51.5 16.5t19.5 45.5h93q0 -67 -45.5 -109.5t-118.5 -42.5zM454 710h168l-336 -710h-167l115 244l-220 466h169l136 -296z" />
    <glyph glyph-name="uni040F" unicode="&#x40f;" horiz-adv-x="660" 
d="M455 710h155v-710h-203v-135h-155v135h-202v710h155v-570h250v570z" />
    <glyph glyph-name="uni0410" unicode="&#x410;" horiz-adv-x="645" 
d="M478 0l-37 125h-238l-37 -125h-152l198 710h221l198 -710h-153zM401 265l-79 283l-79 -283h158z" />
    <glyph glyph-name="uni0411" unicode="&#x411;" horiz-adv-x="609" 
d="M350 464q105 0 168.5 -56.5t63.5 -150.5v-50q0 -94 -64 -150.5t-169 -56.5h-299v710h481v-140h-326v-106h145zM427 200v64q0 28 -18.5 44t-49.5 16h-154v-184h155q31 0 49 16t18 44z" />
    <glyph glyph-name="uni0412" unicode="&#x412;" horiz-adv-x="614" 
d="M511 372q71 -52 71 -134v-41q0 -86 -59.5 -141.5t-151.5 -55.5h-321v710h303q92 0 152 -50t60 -127v-51q0 -67 -54 -110zM357 575h-152v-148h151q22 0 38 15t16 38v50q0 19 -16 32t-37 13zM427 190v50q0 23 -14.5 38t-38.5 15h-169v-158h168q24 0 39 16t15 39z" />
    <glyph glyph-name="uni0413" unicode="&#x413;" horiz-adv-x="527" 
d="M515 710v-140h-310v-570h-155v710h465z" />
    <glyph glyph-name="uni0414" unicode="&#x414;" horiz-adv-x="755" 
d="M646 140h96v-275h-155v135h-419v-135h-155v275h36q43 0 65 28.5t28 88.5l46 453h458v-570zM268 140h223v430h-161l-32 -313q-6 -62 -30 -117z" />
    <glyph glyph-name="uni0415" unicode="&#x415;" horiz-adv-x="535" 
d="M508 570h-303v-155h263v-140h-263v-135h303v-140h-458v710h458v-140z" />
    <glyph glyph-name="uni0416" unicode="&#x416;" horiz-adv-x="1070" 
d="M1052 0h-191l-248 336v-336h-155v336l-249 -336h-191l265 364l-258 346h193l240 -317v317h155v-317l239 317h193l-258 -346z" />
    <glyph glyph-name="uni0417" unicode="&#x417;" horiz-adv-x="628" 
d="M528 368q58 -52 58 -129v-47q0 -95 -73 -151t-199 -56q-124 0 -198.5 58.5t-74.5 155.5v29h155v-36q0 -67 118 -67q117 0 117 60v54q0 56 -83 56h-126v135h113q83 0 83 54v42q0 59 -110 59q-102 0 -102 -66v-40h-155v32q0 97 70 155.5t186 58.5q123 0 194.5 -53.5
t71.5 -148.5v-40q0 -67 -45 -115z" />
    <glyph glyph-name="uni0418" unicode="&#x418;" horiz-adv-x="650" 
d="M456 710h144v-710h-144v447l-262 -447h-144v710h144v-446z" />
    <glyph glyph-name="uni0419" unicode="&#x419;" horiz-adv-x="650" 
d="M325 750q-73 0 -118.5 42.5t-45.5 109.5h93q0 -29 19.5 -45.5t51.5 -16.5t51.5 16.5t19.5 45.5h93q0 -67 -45.5 -109.5t-118.5 -42.5zM456 710h144v-710h-144v447l-262 -447h-144v710h144v-446z" />
    <glyph glyph-name="uni041A" unicode="&#x41a;" horiz-adv-x="662" 
d="M644 0h-191l-248 336v-336h-155v710h155v-317l239 317h194l-259 -346z" />
    <glyph glyph-name="uni041B" unicode="&#x41b;" horiz-adv-x="681" 
d="M631 710v-710h-155v570h-161l-33 -331q-13 -128 -63 -183.5t-152 -55.5h-52v140h20q42 0 64 28t28 89l46 453h458z" />
    <glyph glyph-name="uni041C" unicode="&#x41c;" horiz-adv-x="770" 
d="M720 710v-710h-140v469l-140 -469h-110l-140 469v-469h-140v710h194l141 -421l142 421h193z" />
    <glyph glyph-name="uni041D" unicode="&#x41d;" horiz-adv-x="660" 
d="M455 710h155v-710h-155v275h-250v-275h-155v710h155v-295h250v295z" />
    <glyph glyph-name="uni041E" unicode="&#x41e;" horiz-adv-x="662" 
d="M332 -15q-135 0 -213 61.5t-78 165.5v286q0 104 77.5 165.5t212.5 61.5t212.5 -61.5t77.5 -165.5v-286q0 -104 -77 -165.5t-212 -61.5zM331 125q135 0 135 94v272q0 94 -134 94q-136 0 -136 -94v-272q0 -44 33.5 -69t101.5 -25z" />
    <glyph glyph-name="uni041F" unicode="&#x41f;" horiz-adv-x="660" 
d="M610 710v-710h-155v570h-250v-570h-155v710h560z" />
    <glyph glyph-name="uni0420" unicode="&#x420;" horiz-adv-x="609" 
d="M349 710q105 0 169 -56.5t64 -150.5v-66q0 -94 -63.5 -150.5t-168.5 -56.5h-145v-230h-155v710h299zM427 430v80q0 28 -18 44t-49 16h-155v-200h154q31 0 49.5 16t18.5 44z" />
    <glyph glyph-name="uni0421" unicode="&#x421;" horiz-adv-x="656" 
d="M329 -15q-133 0 -210.5 62t-77.5 165v286q0 104 77 165.5t210 61.5t209.5 -61.5t76.5 -165.5v-64h-161v57q0 44 -32 69t-92 25q-64 0 -98.5 -25t-34.5 -69v-272q0 -44 34 -69t98 -25q60 0 92.5 25t32.5 69v57h161v-64q0 -104 -76.5 -165.5t-208.5 -61.5z" />
    <glyph glyph-name="uni0422" unicode="&#x422;" horiz-adv-x="551" 
d="M543 710v-140h-189v-570h-155v570h-191v140h535z" />
    <glyph glyph-name="uni0423" unicode="&#x423;" horiz-adv-x="635" 
d="M454 710h168l-336 -710h-167l115 244l-220 466h169l136 -296z" />
    <glyph glyph-name="uni0424" unicode="&#x424;" horiz-adv-x="876" 
d="M616 621q105 0 169 -57t64 -150v-81q0 -94 -63.5 -150.5t-168.5 -56.5h-102v-126h-155v126h-102q-105 0 -168 56.5t-63 150.5v81q0 93 63.5 150t168.5 57h101v89h155v-89h101zM249 266h111v215h-112q-30 0 -48 -16.5t-18 -43.5v-95q0 -28 18 -44t49 -16zM694 326v95
q0 27 -18 43.5t-49 16.5h-112v-215h111q31 0 49.5 16t18.5 44z" />
    <glyph glyph-name="uni0425" unicode="&#x425;" horiz-adv-x="645" 
d="M632 710l-221 -361l211 -349h-180l-127 211l-128 -211h-170l208 360l-211 350h180l130 -215l134 215h174z" />
    <glyph glyph-name="uni0426" unicode="&#x426;" horiz-adv-x="719" 
d="M610 140h96v-275h-155v135h-501v710h155v-570h250v570h155v-570z" />
    <glyph glyph-name="uni0427" unicode="&#x427;" horiz-adv-x="614" 
d="M409 710h155v-710h-155v237q-54 -26 -126 -26q-116 0 -180.5 58.5t-64.5 166.5v274h155v-259q0 -100 109 -100q107 0 107 100v259z" />
    <glyph glyph-name="uni0428" unicode="&#x428;" horiz-adv-x="967" 
d="M763 710h155v-710h-868v710h155v-570h201v570h155v-570h202v570z" />
    <glyph glyph-name="uni0429" unicode="&#x429;" horiz-adv-x="1050" 
d="M918 140h120v-275h-155v135h-833v710h155v-570h201v570h155v-570h202v570h155v-570z" />
    <glyph glyph-name="uni042A" unicode="&#x42a;" horiz-adv-x="705" 
d="M447 466q104 0 167.5 -56.5t63.5 -150.5v-52q0 -94 -64 -150.5t-168 -56.5h-300v570h-133v140h288v-244h146zM523 200v66q0 28 -18 44t-49 16h-155v-186h156q30 0 48 16t18 44z" />
    <glyph glyph-name="uni042B" unicode="&#x42b;" horiz-adv-x="859" 
d="M350 466q105 0 168.5 -56.5t63.5 -150.5v-52q0 -94 -64 -150.5t-169 -56.5h-299v710h155v-244h145zM654 710h155v-710h-155v710zM427 200v66q0 28 -18.5 44t-49.5 16h-154v-186h155q31 0 49 16t18 44z" />
    <glyph glyph-name="uni042C" unicode="&#x42c;" horiz-adv-x="609" 
d="M350 466q105 0 168.5 -56.5t63.5 -150.5v-52q0 -94 -64 -150.5t-169 -56.5h-299v710h155v-244h145zM427 200v66q0 28 -18.5 44t-49.5 16h-154v-186h155q31 0 49 16t18 44z" />
    <glyph glyph-name="uni042D" unicode="&#x42d;" horiz-adv-x="656" 
d="M328 725q133 0 209.5 -61.5t76.5 -165.5v-286q0 -104 -77 -165.5t-210 -61.5t-209.5 61.5t-76.5 165.5v64h162v-57q0 -44 32 -69t93 -25q63 0 97 25t34 69v70h-181v140h181v62q0 44 -34 69t-98 25q-60 0 -92 -25t-32 -69v-57h-162v64q0 104 77 165.5t210 61.5z" />
    <glyph glyph-name="uni042E" unicode="&#x42e;" horiz-adv-x="967" 
d="M635 725q136 0 213 -61.5t77 -165.5v-286q0 -104 -77 -165.5t-212 -61.5t-212.5 61.5t-77.5 165.5v63h-141v-275h-155v710h155v-295h141v83q0 104 77 165.5t212 61.5zM770 219v272q0 94 -134 94q-135 0 -135 -94v-272q0 -94 134 -94q135 0 135 94z" />
    <glyph glyph-name="uni042F" unicode="&#x42f;" horiz-adv-x="620" 
d="M570 710v-710h-155v256h-125l-100 -256h-161l108 286q-99 54 -99 175v44q0 94 63.5 149.5t168.5 55.5h300zM260 396h155v174h-156q-31 0 -48.5 -15t-17.5 -43v-58q0 -27 18 -42.5t49 -15.5z" />
    <glyph glyph-name="uni0430" unicode="&#x430;" horiz-adv-x="557" 
d="M406 510h99v-510h-99l-24 34q-55 -49 -147 -49q-95 0 -147 53t-52 163v108q0 110 52 163t147 53q92 0 147 -49zM269 121q39 0 62.5 21t23.5 60v106q0 39 -23.5 60t-62.5 21t-61 -21.5t-22 -62.5v-100q0 -41 22 -62.5t61 -21.5z" />
    <glyph glyph-name="uni0431" unicode="&#x431;" horiz-adv-x="538" 
d="M296 525q102 0 154 -56.5t52 -164.5v-98q0 -103 -62 -162t-171 -59t-171 59t-62 162v294q0 96 48 146.5t151 62.5l49 7q56 7 56 54h150q0 -100 -39.5 -138.5t-156.5 -53.5l-43 -6q-37 -4 -51 -18t-14 -46v-10q46 27 110 27zM352 207v96q0 87 -83 87t-83 -87v-96
q0 -87 82 -87q84 0 84 87z" />
    <glyph glyph-name="uni0432" unicode="&#x432;" horiz-adv-x="534" 
d="M444 278q60 -31 60 -119v-4q0 -155 -172 -155h-279v510h257q89 0 130.5 -34t41.5 -107v-4q0 -54 -38 -87zM301 389h-98v-70h98q31 0 31 27v16q0 27 -31 27zM354 151v17q0 30 -31 30h-120v-77h120q31 0 31 30z" />
    <glyph glyph-name="uni0433" unicode="&#x433;" horiz-adv-x="427" 
d="M406 510v-135h-203v-375h-150v510h353z" />
    <glyph glyph-name="uni0434" unicode="&#x434;" horiz-adv-x="617" 
d="M534 135h62v-270h-150v135h-275v-135h-150v270h16q34 0 52 22.5t22 72.5l29 280h394v-375zM236 135h148v240h-109l-14 -137q-6 -65 -25 -103z" />
    <glyph glyph-name="uni0435" unicode="&#x435;" horiz-adv-x="526" 
d="M266 525q98 0 161 -55.5t63 -139.5v-119h-304v-9q0 -49 22.5 -73t59.5 -24q26 0 48.5 13.5t22.5 33.5v10h150q0 -81 -61.5 -129t-161.5 -48q-107 0 -168.5 61t-61.5 163v95q0 102 61.5 161.5t168.5 59.5zM186 318h151v12q0 75 -70 75q-78 0 -81 -87z" />
    <glyph glyph-name="uni0436" unicode="&#x436;" horiz-adv-x="849" 
d="M847 0h-177l-171 239v-239h-150v239l-170 -239h-177l191 269l-187 241h180l163 -211v211h150v-212l164 212h180l-187 -241z" />
    <glyph glyph-name="uni0437" unicode="&#x437;" horiz-adv-x="517" 
d="M425 268q56 -32 56 -109v-10q0 -78 -57.5 -121t-163.5 -43q-107 0 -165.5 44.5t-58.5 125.5v20h149v-25q0 -42 76 -42q70 0 70 41v13q0 19 -10.5 26.5t-36.5 7.5h-83v124h75q26 0 35.5 7t9.5 26v11q0 38 -65 38q-69 0 -69 -38v-22h-148v17q0 79 57 122.5t159 43.5
q100 0 158 -41.5t58 -112.5v-11q0 -58 -46 -92z" />
    <glyph glyph-name="uni0438" unicode="&#x438;" horiz-adv-x="569" 
d="M362 510h154v-510h-150v282l-159 -282h-154v510h150v-282z" />
    <glyph glyph-name="uni0439" unicode="&#x439;" horiz-adv-x="569" 
d="M285 550q-73 0 -118.5 42.5t-45.5 109.5h93q0 -29 19.5 -45.5t51.5 -16.5t51.5 16.5t19.5 45.5h93q0 -67 -45.5 -109.5t-118.5 -42.5zM362 510h154v-510h-150v282l-159 -282h-154v510h150v-282z" />
    <glyph glyph-name="uni043A" unicode="&#x43a;" horiz-adv-x="552" 
d="M551 0h-178l-170 239v-239h-150v510h150v-211l163 211h181l-187 -241z" />
    <glyph glyph-name="uni043B" unicode="&#x43b;" horiz-adv-x="581" 
d="M528 510v-510h-150v375h-108l-21 -201q-10 -97 -48.5 -135.5t-124.5 -38.5h-55v135h17q33 0 48 18.5t19 65.5l30 291h393z" />
    <glyph glyph-name="uni043C" unicode="&#x43c;" horiz-adv-x="696" 
d="M443 510h200v-510h-150v298l-105 -298h-80l-105 300v-300h-150v510h200l95 -270z" />
    <glyph glyph-name="uni043D" unicode="&#x43d;" horiz-adv-x="567" 
d="M365 510h150v-510h-150v193h-162v-193h-150v510h150v-182h162v182z" />
    <glyph glyph-name="uni043E" unicode="&#x43e;" horiz-adv-x="538" 
d="M269 -15q-109 0 -171 59.5t-62 161.5v98q0 102 61.5 161.5t170.5 59.5q110 0 172 -59.5t62 -161.5v-98q0 -102 -62 -161.5t-171 -59.5zM268 120q84 0 84 87v96q0 87 -83 87t-83 -87v-96q0 -87 82 -87z" />
    <glyph glyph-name="uni043F" unicode="&#x43f;" horiz-adv-x="567" 
d="M515 510v-510h-150v375h-162v-375h-150v510h462z" />
    <glyph glyph-name="uni0440" unicode="&#x440;" horiz-adv-x="557" 
d="M321 525q200 0 200 -216v-108q0 -216 -200 -216q-69 0 -118 29v-244h-150v740h99l24 -33q54 48 145 48zM371 205v100q0 41 -22 62.5t-61 21.5t-62 -20.5t-23 -60.5v-106q0 -39 23.5 -60t61.5 -21q39 0 61 21.5t22 62.5z" />
    <glyph glyph-name="uni0441" unicode="&#x441;" horiz-adv-x="523" 
d="M265 -15q-107 0 -168 59.5t-61 161.5v98q0 102 61 161.5t167 59.5q101 0 162 -58t61 -154v-15h-151v19q0 34 -19.5 53.5t-51.5 19.5q-79 0 -79 -87v-96q0 -87 79 -87q32 0 51.5 19.5t19.5 53.5v19h151v-15q0 -96 -60.5 -154t-161.5 -58z" />
    <glyph glyph-name="uni0442" unicode="&#x442;" horiz-adv-x="484" 
d="M463 510v-135h-146v-375h-150v375h-146v135h442z" />
    <glyph glyph-name="uni0443" unicode="&#x443;" horiz-adv-x="548" 
d="M345 510h150v-558q0 -86 -57 -141.5t-167 -55.5q-108 0 -165 53.5t-57 131.5h150q0 -23 20 -36.5t49 -13.5q33 0 55 16t22 48v58q-47 -27 -106 -27q-89 0 -139.5 56t-50.5 173v296h150v-299q0 -44 19.5 -67t53.5 -23q29 0 51 21.5t22 59.5v308z" />
    <glyph glyph-name="uni0444" unicode="&#x444;" horiz-adv-x="859" 
d="M622 525q201 0 201 -216v-108q0 -216 -201 -216q-68 0 -117 28v-243h-150v244q-49 -29 -118 -29q-201 0 -201 216v108q0 216 201 216q69 0 118 -29v214h150v-213q49 28 117 28zM269 121q39 0 62.5 21t23.5 60v106q0 39 -23.5 60t-62.5 21t-61 -21.5t-22 -62.5v-100
q0 -41 22 -62.5t61 -21.5zM673 205v100q0 41 -22.5 62.5t-60.5 21.5q-39 0 -62 -20.5t-23 -60.5v-106q0 -39 23 -60t62 -21q38 0 60.5 21.5t22.5 62.5z" />
    <glyph glyph-name="uni0445" unicode="&#x445;" horiz-adv-x="519" 
d="M512 510l-171 -252l168 -258h-171l-85 132l-83 -132h-160l161 257l-164 253h170l84 -129l86 129h165z" />
    <glyph glyph-name="uni0446" unicode="&#x446;" horiz-adv-x="598" 
d="M577 135v-270h-150v135h-374v510h150v-375h162v375h150v-375h62z" />
    <glyph glyph-name="uni0447" unicode="&#x447;" horiz-adv-x="548" 
d="M345 510h150v-510h-150v156q-46 -26 -106 -26q-92 0 -141 50t-49 143v187h150v-162q0 -82 70 -82q33 0 54.5 23t21.5 58v163z" />
    <glyph glyph-name="uni0448" unicode="&#x448;" horiz-adv-x="809" 
d="M606 510h150v-510h-703v510h150v-375h127v375h150v-375h126v375z" />
    <glyph glyph-name="uni0449" unicode="&#x449;" horiz-adv-x="840" 
d="M819 135v-270h-150v135h-616v510h150v-375h127v375h150v-375h126v375h150v-375h63z" />
    <glyph glyph-name="uni044A" unicode="&#x44a;" horiz-adv-x="552" 
d="M341 354q90 0 138 -42.5t48 -122.5v-24q0 -80 -48 -122.5t-138 -42.5h-249v375h-82v135h232v-156h99zM377 172v10q0 37 -45 37h-90v-84h90q45 0 45 37z" />
    <glyph glyph-name="uni044B" unicode="&#x44b;" horiz-adv-x="744" 
d="M302 354q89 0 137.5 -43t48.5 -122v-24q0 -79 -48.5 -122t-137.5 -43h-249v510h150v-156h99zM541 510h150v-510h-150v510zM338 172v10q0 37 -45 37h-90v-84h90q45 0 45 37z" />
    <glyph glyph-name="uni044C" unicode="&#x44c;" horiz-adv-x="513" 
d="M302 354q89 0 137.5 -43t48.5 -122v-24q0 -79 -48.5 -122t-137.5 -43h-249v510h150v-156h99zM338 172v10q0 37 -45 37h-90v-84h90q45 0 45 37z" />
    <glyph glyph-name="uni044D" unicode="&#x44d;" horiz-adv-x="523" 
d="M259 525q107 0 167.5 -59.5t60.5 -161.5v-98q0 -102 -61 -161.5t-168 -59.5q-101 0 -161.5 58t-60.5 154v15h151v-24q0 -34 19.5 -53.5t51.5 -19.5q74 0 79 78h-106v135h105q-9 67 -78 67q-32 0 -51.5 -19t-19.5 -54v-24h-151v15q0 96 61 154t162 58z" />
    <glyph glyph-name="uni044E" unicode="&#x44e;" horiz-adv-x="784" 
d="M515 525q109 0 171 -59.5t62 -161.5v-98q0 -102 -61.5 -161.5t-170.5 -59.5q-107 0 -169 57t-65 155h-79v-197h-150v510h150v-178h80q9 90 69.5 141.5t162.5 51.5zM598 207v96q0 87 -82 87q-84 0 -84 -87v-96q0 -87 83 -87t83 87z" />
    <glyph glyph-name="uni044F" unicode="&#x44f;" horiz-adv-x="540" 
d="M487 510v-510h-150v161h-75l-65 -161h-158l73 190q-60 43 -60 136v19q0 79 44 122t126 43h265zM247 296h90v79h-90q-45 0 -45 -37v-5q0 -37 45 -37z" />
    <glyph glyph-name="uni0451" unicode="&#x451;" horiz-adv-x="526" 
d="M227 697v-133h-136v133h136zM434 697v-133h-136v133h136zM266 525q98 0 161 -55.5t63 -139.5v-119h-304v-9q0 -49 22.5 -73t59.5 -24q26 0 48.5 13.5t22.5 33.5v10h150q0 -81 -61.5 -129t-161.5 -48q-107 0 -168.5 61t-61.5 163v95q0 102 61.5 161.5t168.5 59.5zM186 318
h151v12q0 75 -70 75q-78 0 -81 -87z" />
    <glyph glyph-name="uni0452" unicode="&#x452;" horiz-adv-x="570" 
d="M330 525q90 0 141 -56t51 -173v-336q0 -100 -53 -145t-132 -45h-65v135h22q50 0 64 22.5t14 71.5v299q0 43 -23 67t-56 24q-34 0 -58.5 -22t-24.5 -60v-307h-150v559h-62v122h62v89h150v-89h121v-122h-121v-65q52 31 120 31z" />
    <glyph glyph-name="uni0453" unicode="&#x453;" horiz-adv-x="427" 
d="M413 734l-130 -179h-142l103 179h169zM406 510v-135h-203v-375h-150v510h353z" />
    <glyph glyph-name="uni0454" unicode="&#x454;" horiz-adv-x="523" 
d="M487 298h-151v19q0 34 -19.5 53.5t-51.5 19.5q-66 0 -77 -62h97v-135h-98q6 -73 78 -73q32 0 51.5 19.5t19.5 53.5v19h151v-15q0 -96 -60.5 -154t-161.5 -58q-107 0 -168 59.5t-61 161.5v98q0 102 61 161.5t167 59.5q101 0 162 -58t61 -154v-15z" />
    <glyph glyph-name="uni0455" unicode="&#x455;" horiz-adv-x="473" 
d="M238 -15q-95 0 -154 48.5t-59 124.5v12h149v-12q0 -21 20 -33t50 -12q27 0 43.5 9t16.5 25t-20 27t-50.5 16.5t-65.5 16.5t-65.5 25.5t-50.5 45.5t-20 74q0 77 57.5 125t148.5 48t148 -47.5t57 -120.5v-10h-148v10q0 18 -16.5 29t-41.5 11q-26 0 -41.5 -10.5t-15.5 -24.5
q0 -17 28 -27.5t68 -19t80.5 -23t68.5 -49t28 -87.5q0 -82 -62.5 -126.5t-152.5 -44.5z" />
    <glyph glyph-name="uni0456" unicode="&#x456;" horiz-adv-x="259" 
d="M54 564v146h150v-146h-150zM54 0v510h150v-510h-150z" />
    <glyph glyph-name="uni0457" unicode="&#x457;" horiz-adv-x="259" 
d="M-43 564v133h136v-133h-136zM164 564v133h136v-133h-136zM54 0v510h150v-510h-150z" />
    <glyph glyph-name="uni0458" unicode="&#x458;" horiz-adv-x="274" 
d="M69 564v146h150v-146h-150zM-31 -230v135h22q50 0 64 22.5t14 71.5v511h150v-550q0 -100 -53 -145t-132 -45h-65z" />
    <glyph glyph-name="uni0459" unicode="&#x459;" horiz-adv-x="835" 
d="M624 354q90 0 138 -42.5t48 -122.5v-24q0 -80 -48 -122.5t-138 -42.5h-249v375h-109l-17 -172q-11 -105 -60 -154t-143 -49h-25v135h7q34 0 52 22.5t23 72.5l28 280h394v-156h99zM660 172v10q0 37 -45 37h-90v-84h90q45 0 45 37z" />
    <glyph glyph-name="uni045A" unicode="&#x45a;" horiz-adv-x="824" 
d="M613 354q90 0 138 -42.5t48 -122.5v-24q0 -80 -48 -122.5t-138 -42.5h-248v193h-162v-193h-150v510h150v-182h162v182h150v-156h98zM649 172v10q0 37 -45 37h-89v-84h89q45 0 45 37z" />
    <glyph glyph-name="uni045B" unicode="&#x45b;" horiz-adv-x="570" 
d="M330 525q90 0 141 -56t51 -173v-296h-150v298q0 43 -23 67t-56 24q-34 0 -58.5 -22t-24.5 -60v-307h-150v559h-62v122h62v89h150v-89h121v-122h-121v-65q52 31 120 31z" />
    <glyph glyph-name="uni045C" unicode="&#x45c;" horiz-adv-x="552" 
d="M471 734l-130 -179h-142l103 179h169zM551 0h-178l-170 239v-239h-150v510h150v-211l163 211h181l-187 -241z" />
    <glyph glyph-name="uni045E" unicode="&#x45e;" horiz-adv-x="548" 
d="M274 550q-73 0 -118.5 42.5t-45.5 109.5h93q0 -29 19.5 -45.5t51.5 -16.5t51.5 16.5t19.5 45.5h93q0 -67 -45.5 -109.5t-118.5 -42.5zM345 510h150v-558q0 -86 -57 -141.5t-167 -55.5q-108 0 -165 53.5t-57 131.5h150q0 -23 20 -36.5t49 -13.5q33 0 55 16t22 48v58
q-47 -27 -106 -27q-89 0 -139.5 56t-50.5 173v296h150v-299q0 -44 19.5 -67t53.5 -23q29 0 51 21.5t22 59.5v308z" />
    <glyph glyph-name="uni045F" unicode="&#x45f;" horiz-adv-x="567" 
d="M515 510v-510h-156v-135h-150v135h-156v510h150v-375h162v375h150z" />
    <glyph glyph-name="uni0462" unicode="&#x462;" horiz-adv-x="705" 
d="M447 466q104 0 167.5 -56.5t63.5 -150.5v-52q0 -94 -64 -150.5t-168 -56.5h-300v515h-133v140h133v55h155v-55h182v-140h-182v-49h146zM523 200v66q0 28 -18 44t-49 16h-155v-186h156q30 0 48 16t18 44z" />
    <glyph glyph-name="uni0463" unicode="&#x463;" horiz-adv-x="520" 
d="M309 354q90 0 138 -42.5t48 -122.5v-24q0 -80 -48 -122.5t-138 -42.5h-249v510h-62v122h62v138h150v-138h121v-122h-121v-156h99zM345 172v10q0 37 -45 37h-90v-84h90q45 0 45 37z" />
    <glyph glyph-name="uni0472" unicode="&#x472;" horiz-adv-x="662" 
d="M331 725q135 0 212.5 -61.5t77.5 -165.5v-286q0 -104 -77 -165.5t-212 -61.5t-213 61.5t-78 165.5v286q0 104 77.5 165.5t212.5 61.5zM332 585q-136 0 -136 -94v-45q22 6 43 6q39 0 92 -22q54 -21 92 -21q18 0 43 5v77q0 94 -134 94zM331 125q135 0 135 94v55
q-25 -5 -42 -5q-39 0 -93 22q-53 21 -91 21q-22 0 -44 -6v-87q0 -44 33.5 -69t101.5 -25z" />
    <glyph glyph-name="uni0473" unicode="&#x473;" horiz-adv-x="538" 
d="M268 525q110 0 172 -59.5t62 -161.5v-98q0 -102 -62 -161.5t-171 -59.5t-171 59.5t-62 161.5v98q0 102 61.5 161.5t170.5 59.5zM269 390q-66 0 -80 -56q12 4 26 4q22 0 54 -13q32 -12 53 -12q9 0 29 4q-6 73 -82 73zM268 120q71 0 82 63q-18 -4 -27 -4q-18 -1 -54 12
q-28 12 -53 12q-17 0 -30 -4q5 -79 82 -79z" />
    <glyph glyph-name="uni0474" unicode="&#x474;" horiz-adv-x="670" 
d="M616 710h41v-140h-12q-39 0 -59.5 -21t-36.5 -77l-124 -472h-223l-188 710h158l142 -516l83 296q32 121 81.5 170.5t137.5 49.5z" />
    <glyph glyph-name="uni0475" unicode="&#x475;" horiz-adv-x="526" 
d="M480 510h25v-135h-7q-27 0 -41 -13.5t-25 -50.5l-86 -311h-197l-142 510h155l90 -350l40 175q23 96 65 135.5t123 39.5z" />
    <glyph glyph-name="uni048A" unicode="&#x48a;" horiz-adv-x="708" 
d="M319 750q-73 0 -118.5 42.5t-45.5 109.5h93q0 -29 19.5 -45.5t51.5 -16.5t51.5 16.5t19.5 45.5h93q0 -67 -45.5 -109.5t-118.5 -42.5zM594 140h101l-35 -275h-155l17 135h-72v447l-262 -447h-144v710h144v-446l262 446h144v-570z" />
    <glyph glyph-name="uni048B" unicode="&#x48b;" horiz-adv-x="593" 
d="M278 550q-73 0 -118.5 42.5t-45.5 109.5h93q0 -29 19.5 -45.5t51.5 -16.5t51.5 16.5t19.5 45.5h93q0 -67 -45.5 -109.5t-118.5 -42.5zM572 135l-34 -270h-150l17 135h-46v282l-159 -282h-154v510h150v-282l159 282h154v-375h63z" />
    <glyph glyph-name="uni048C" unicode="&#x48c;" horiz-adv-x="705" 
d="M447 466q104 0 167.5 -56.5t63.5 -150.5v-52q0 -94 -64 -150.5t-168 -56.5h-300v515h-133v140h133v55h155v-55h182v-140h-182v-49h146zM523 200v66q0 28 -18 44t-49 16h-155v-186h156q30 0 48 16t18 44z" />
    <glyph glyph-name="uni048D" unicode="&#x48d;" horiz-adv-x="520" 
d="M309 354q90 0 138 -42.5t48 -122.5v-24q0 -80 -48 -122.5t-138 -42.5h-249v510h-62v122h62v138h150v-138h121v-122h-121v-156h99zM345 172v10q0 37 -45 37h-90v-84h90q45 0 45 37z" />
    <glyph glyph-name="uni048E" unicode="&#x48e;" horiz-adv-x="609" 
d="M349 710q105 0 169 -56.5t64 -150.5v-66q0 -115 -91 -171l32 -56l-96 -56l-44 78q-22 -2 -33 -2h-145v-230h-155v710h299zM366 481l50 -87q11 16 11 36v80q0 28 -18 44t-49 16h-155v-200h98l-32 56z" />
    <glyph glyph-name="uni048F" unicode="&#x48f;" horiz-adv-x="557" 
d="M521 201q0 -114 -56 -167l42 -73l-117 -67l-53 91h-16q-69 0 -118 29v-244h-150v740h99l24 -33q54 48 145 48q200 0 200 -216v-108zM203 202q0 -39 23.5 -60t61.5 -21q39 0 61 21.5t22 62.5v100q0 41 -22 62.5t-61 21.5t-62 -20.5t-23 -60.5v-106z" />
    <glyph glyph-name="uni0490" unicode="&#x490;" horiz-adv-x="527" 
d="M360 805h155v-235h-310v-570h-155v710h310v95z" />
    <glyph glyph-name="uni0491" unicode="&#x491;" horiz-adv-x="427" 
d="M256 605h150v-230h-203v-375h-150v510h203v95z" />
    <glyph glyph-name="uni0492" unicode="&#x492;" horiz-adv-x="623" 
d="M611 570h-310v-156h182v-140h-182v-274h-155v274h-133v140h133v296h465v-140z" />
    <glyph glyph-name="uni0493" unicode="&#x493;" horiz-adv-x="446" 
d="M426 375h-204v-88h139v-122h-139v-165h-150v165h-62v122h62v223h354v-135z" />
    <glyph glyph-name="uni0494" unicode="&#x494;" horiz-adv-x="609" 
d="M350 464q105 0 168.5 -56.5t63.5 -150.5v-215q0 -94 -64 -150.5t-169 -56.5h-102v140h113q31 0 49 16t18 44v229q0 28 -18.5 44t-49.5 16h-154v-324h-155v710h481v-140h-326v-106h145z" />
    <glyph glyph-name="uni0495" unicode="&#x495;" horiz-adv-x="513" 
d="M302 298q89 0 137.5 -43t48.5 -122v-133q0 -79 -48.5 -122t-137.5 -43h-76v135h67q45 0 45 37v119q0 37 -45 37h-90v-163h-150v510h353v-135h-203v-77h99z" />
    <glyph glyph-name="uni0496" unicode="&#x496;" horiz-adv-x="1083" 
d="M950 140h121v-275h-155v135h-55l-248 336v-336h-155v336l-249 -336h-191l265 364l-258 346h193l240 -317v317h155v-317l239 317h193l-258 -346z" />
    <glyph glyph-name="uni0497" unicode="&#x497;" horiz-adv-x="900" 
d="M879 135v-270h-150v135h-59l-171 239v-239h-150v239l-170 -239h-177l191 269l-187 241h180l163 -211v211h150v-212l164 212h180l-187 -241l95 -134h128z" />
    <glyph glyph-name="uni0498" unicode="&#x498;" horiz-adv-x="628" 
d="M528 368q58 -52 58 -129v-47q0 -83 -55.5 -136.5t-154.5 -66.5l20 -150h-165l21 150q-98 14 -154.5 70t-56.5 140v29h155v-36q0 -67 118 -67q117 0 117 60v54q0 56 -83 56h-126v135h113q83 0 83 54v42q0 59 -110 59q-102 0 -102 -66v-40h-155v32q0 97 70 155.5t186 58.5
q123 0 194.5 -53.5t71.5 -148.5v-40q0 -67 -45 -115z" />
    <glyph glyph-name="uni0499" unicode="&#x499;" horiz-adv-x="517" 
d="M425 268q56 -32 56 -109v-10q0 -66 -41.5 -107.5t-119.5 -52.5l21 -150h-165l21 151q-78 12 -119.5 54.5t-41.5 110.5v20h149v-25q0 -42 76 -42q70 0 70 41v13q0 19 -10.5 26.5t-36.5 7.5h-83v124h75q26 0 35.5 7t9.5 26v11q0 38 -65 38q-69 0 -69 -38v-22h-148v17
q0 79 57 122.5t159 43.5q100 0 158 -41.5t58 -112.5v-11q0 -58 -46 -92z" />
    <glyph glyph-name="uni049A" unicode="&#x49a;" horiz-adv-x="676" 
d="M542 140h121v-275h-155v135h-55l-248 336v-336h-155v710h155v-317l239 317h194l-259 -346z" />
    <glyph glyph-name="uni049B" unicode="&#x49b;" horiz-adv-x="604" 
d="M583 135v-270h-150v135h-60l-170 239v-239h-150v510h150v-211l163 211h181l-187 -241l95 -134h128z" />
    <glyph glyph-name="uni049C" unicode="&#x49c;" horiz-adv-x="684" 
d="M501 0l-117 297h-24v-144h-116v144h-39v-297h-155v710h155v-273h39v144h116v-144h28l107 273h164l-136 -348l143 -362h-165z" />
    <glyph glyph-name="uni049D" unicode="&#x49d;" horiz-adv-x="552" 
d="M395 0l-70 202h-19v-107h-75v107h-28v-202h-150v510h150v-173h28v106h75v-106h22l62 173h157l-90 -243l94 -267h-156z" />
    <glyph glyph-name="uni049E" unicode="&#x49e;" horiz-adv-x="685" 
d="M667 0h-191l-249 336v-336h-155v515h-59v140h59v55h155v-55h72v-140h-72v-122l239 317h194l-258 -347z" />
    <glyph glyph-name="uni049F" unicode="&#x49f;" horiz-adv-x="570" 
d="M569 0h-178l-170 239v-239h-150v550h-69v135h69v85h150v-85h117v-135h-117v-252l164 212h180l-187 -241z" />
    <glyph glyph-name="uni04A0" unicode="&#x4a0;" horiz-adv-x="758" 
d="M740 0h-191l-248 336v-336h-155v570h-133v140h288v-317l239 317h194l-259 -346z" />
    <glyph glyph-name="uni04A1" unicode="&#x4a1;" horiz-adv-x="592" 
d="M590 0h-178l-170 239v-239h-150v375h-82v135h232v-212l164 212h180l-187 -241z" />
    <glyph glyph-name="uni04A2" unicode="&#x4a2;" horiz-adv-x="719" 
d="M610 140h96v-275h-155v135h-96v275h-250v-275h-155v710h155v-295h250v295h155v-570z" />
    <glyph glyph-name="uni04A3" unicode="&#x4a3;" horiz-adv-x="598" 
d="M577 135v-270h-150v135h-62v193h-162v-193h-150v510h150v-182h162v182h150v-375h62z" />
    <glyph glyph-name="uni04A4" unicode="&#x4a4;" horiz-adv-x="932" 
d="M920 710v-140h-310v-570h-155v275h-250v-275h-155v710h155v-295h250v295h465z" />
    <glyph glyph-name="uni04A5" unicode="&#x4a5;" horiz-adv-x="739" 
d="M718 510v-135h-203v-375h-150v193h-162v-193h-150v510h150v-182h162v182h353z" />
    <glyph glyph-name="uni04A6" unicode="&#x4a6;" horiz-adv-x="1014" 
d="M755 464q105 0 168.5 -56.5t63.5 -150.5v-215q0 -94 -64 -150.5t-169 -56.5h-102v140h113q31 0 49 16t18 44v229q0 28 -18.5 44t-49.5 16h-154v-324h-155v570h-250v-570h-155v710h560v-246h145z" />
    <glyph glyph-name="uni04A7" unicode="&#x4a7;" horiz-adv-x="824" 
d="M613 298q90 0 138 -42.5t48 -122.5v-133q0 -80 -48 -122.5t-138 -42.5h-75v135h66q45 0 45 37v119q0 37 -45 37h-89v-163h-150v375h-162v-375h-150v510h462v-212h98z" />
    <glyph glyph-name="uni04A8" unicode="&#x4a8;" horiz-adv-x="714" 
d="M673 231q0 -101 -61 -163t-175 -78q10 -15 34 -15h143v-140h-145q-77 0 -127.5 41t-67.5 115q-113 16 -173 79t-60 163v229q0 118 81.5 183t233.5 65h157v-140h-156q-161 0 -161 -115v-215q0 -77 71 -102v185q0 93 54 147.5t149 54.5q93 0 148 -51.5t55 -138.5v-104z
M518 240v77q0 39 -10.5 53.5t-37.5 14.5t-37.5 -14.5t-10.5 -53.5v-186q96 19 96 109z" />
    <glyph glyph-name="uni04A9" unicode="&#x4a9;" horiz-adv-x="615" 
d="M403 339q85 0 130.5 -41t45.5 -118v-10q0 -75 -52.5 -121.5t-149.5 -59.5q1 -19 26 -19h122v-135h-122q-176 0 -176 144v13q-92 18 -141.5 78.5t-49.5 156.5v41q0 115 72 178.5t202 63.5h142v-135h-141q-125 0 -125 -108v-39q0 -66 41 -91v58q0 144 176 144zM429 177v4
q0 23 -26 23t-26 -23v-56q52 11 52 52z" />
    <glyph glyph-name="uni04AA" unicode="&#x4aa;" horiz-adv-x="656" 
d="M614 434h-161v57q0 44 -32 69t-92 25q-64 0 -98.5 -25t-34.5 -69v-272q0 -44 34 -69t98 -25q60 0 92.5 25t32.5 69v57h161v-64q0 -91 -59.5 -150.5t-164.5 -72.5l20 -150h-165l21 150q-106 14 -165.5 73.5t-59.5 149.5v286q0 104 77 165.5t210 61.5t209.5 -61.5
t76.5 -165.5v-64z" />
    <glyph glyph-name="uni04AB" unicode="&#x4ab;" horiz-adv-x="523" 
d="M487 298h-151v19q0 34 -19.5 53.5t-51.5 19.5q-79 0 -79 -87v-96q0 -87 79 -87q32 0 51.5 19.5t19.5 53.5v19h151v-15q0 -81 -44 -135.5t-120 -70.5l21 -152h-165l21 153q-78 16 -121 72.5t-43 141.5v98q0 102 61 161.5t167 59.5q101 0 162 -58t61 -154v-15z" />
    <glyph glyph-name="uni04AC" unicode="&#x4ac;" horiz-adv-x="551" 
d="M543 570h-189v-430h96v-275h-155v135h-96v570h-191v140h535v-140z" />
    <glyph glyph-name="uni04AD" unicode="&#x4ad;" horiz-adv-x="484" 
d="M463 375h-146v-240h62v-270h-150v135h-62v375h-146v135h442v-135z" />
    <glyph glyph-name="uni04AE" unicode="&#x4ae;" horiz-adv-x="629" 
d="M615 710l-223 -472v-238h-155v236l-223 474h169l133 -291l132 291h167z" />
    <glyph glyph-name="uni04AF" unicode="&#x4af;" horiz-adv-x="526" 
d="M519 510l-181 -304v-206h-150v202l-181 308h170l86 -146l86 146h170z" />
    <glyph glyph-name="uni04B0" unicode="&#x4b0;" horiz-adv-x="628" 
d="M391 238v-20h157v-140h-157v-78h-155v78h-155v140h155v18l-223 474h169l133 -291l132 291h167z" />
    <glyph glyph-name="uni04B1" unicode="&#x4b1;" horiz-adv-x="526" 
d="M338 206v-10h92v-122h-92v-74h-150v74h-92v122h92v6l-181 308h170l86 -146l86 146h170z" />
    <glyph glyph-name="uni04B2" unicode="&#x4b2;" horiz-adv-x="654" 
d="M538 140h102v-275h-155v135h-43l-127 211l-128 -211h-170l208 360l-211 350h180l130 -215l134 215h174l-221 -361z" />
    <glyph glyph-name="uni04B3" unicode="&#x4b3;" horiz-adv-x="562" 
d="M541 135v-270h-150v135h-53l-85 132l-83 -132h-160l161 257l-164 253h170l84 -129l86 129h165l-171 -252l80 -123h120z" />
    <glyph glyph-name="uni04B4" unicode="&#x4b4;" horiz-adv-x="815" 
d="M706 140h96v-275h-155v135h-501v570h-133v140h445v-140h-157v-430h250v570h155v-570z" />
    <glyph glyph-name="uni04B5" unicode="&#x4b5;" horiz-adv-x="617" 
d="M596 135v-270h-150v135h-374v388h-62v122h307v-122h-95v-253h162v375h150v-375h62z" />
    <glyph glyph-name="uni04B6" unicode="&#x4b6;" horiz-adv-x="674" 
d="M564 140h97v-275h-155v135h-97v237q-54 -26 -126 -26q-116 0 -180.5 58.5t-64.5 166.5v274h155v-259q0 -100 109 -100q107 0 107 100v259h155v-570z" />
    <glyph glyph-name="uni04B7" unicode="&#x4b7;" horiz-adv-x="585" 
d="M558 135v-270h-150v135h-63v157q-48 -27 -106 -27q-93 0 -141.5 52t-48.5 151v177h150v-162q0 -82 73 -82q31 0 52 23t21 58v163h150v-375h63z" />
    <glyph glyph-name="uni04B8" unicode="&#x4b8;" horiz-adv-x="614" 
d="M409 710h155v-710h-155v237q-24 -12 -53 -18v-153h-111v147q-98 9 -152.5 66.5t-54.5 156.5v274h155v-259q0 -67 52 -90v134h111v-135q53 23 53 91v259z" />
    <glyph glyph-name="uni04B9" unicode="&#x4b9;" horiz-adv-x="548" 
d="M345 510h150v-510h-150v156q-13 -7 -36 -16v-117h-75v107q-89 1 -137 51t-48 142v187h150v-163q0 -60 35 -75v100h75v-96q36 23 36 70v164z" />
    <glyph glyph-name="uni04BA" unicode="&#x4ba;" horiz-adv-x="614" 
d="M332 480q115 0 179.5 -59t64.5 -166v-255h-155v240q0 100 -108 100t-108 -100v-240h-155v710h155v-257q53 27 127 27z" />
    <glyph glyph-name="uni04BB" unicode="&#x4bb;" horiz-adv-x="562" 
d="M323 525q90 0 141 -56t51 -173v-296h-150v298q0 44 -23 67.5t-57 23.5q-33 0 -57.5 -22t-24.5 -60v-307h-150v770h150v-276q52 31 120 31z" />
    <glyph glyph-name="uni04BC" unicode="&#x4bc;" horiz-adv-x="826" 
d="M499 725q133 0 209.5 -61.5t76.5 -165.5v-180h-418v-99q0 -44 34.5 -69t97.5 -25q60 0 92 25t32 69v44h162v-51q0 -104 -77 -165.5t-210 -61.5t-209.5 61.5t-76.5 165.5v111q-91 18 -144.5 84t-53.5 168v42h140v-66q0 -64 58 -84v31q0 104 77 165.5t210 61.5zM367 458
h256v33q0 44 -32 69t-93 25q-63 0 -97 -25t-34 -69v-33z" />
    <glyph glyph-name="uni04BD" unicode="&#x4bd;" horiz-adv-x="665" 
d="M405 525q98 0 160.5 -55.5t62.5 -139.5v-119h-303v-9q0 -97 82 -97q26 0 48.5 13.5t22.5 33.5v10h150q0 -81 -61.5 -129t-161.5 -48q-107 0 -168.5 61t-61.5 163v3q-89 6 -128.5 57.5t-39.5 126.5v40h135v-40q0 -55 34 -70q6 92 66.5 145.5t162.5 53.5zM325 318h151v12
q0 75 -70 75q-78 0 -81 -87z" />
    <glyph glyph-name="uni04BE" unicode="&#x4be;" horiz-adv-x="826" 
d="M499 725q133 0 209.5 -61.5t76.5 -165.5v-180h-418v-99q0 -44 34.5 -69t97.5 -25q60 0 92 25t32 69v44h162v-51q0 -92 -61.5 -151.5t-170.5 -72.5l20 -149h-165l21 151q-103 16 -160 74.5t-57 147.5v111q-91 18 -144.5 84t-53.5 168v42h140v-66q0 -64 58 -84v31
q0 104 77 165.5t210 61.5zM367 458h256v33q0 44 -32 69t-93 25q-63 0 -97 -25t-34 -69v-33z" />
    <glyph glyph-name="uni04BF" unicode="&#x4bf;" horiz-adv-x="665" 
d="M405 525q98 0 160.5 -55.5t62.5 -139.5v-119h-303v-9q0 -97 82 -97q26 0 48.5 13.5t22.5 33.5v10h150q0 -68 -45.5 -114t-123.5 -59l21 -150h-165l21 154q-76 18 -118.5 75t-42.5 141v3q-89 6 -128.5 57.5t-39.5 126.5v40h135v-40q0 -55 34 -70q6 92 66.5 145.5
t162.5 53.5zM325 318h151v12q0 75 -70 75q-78 0 -81 -87z" />
    <glyph glyph-name="uni04C0" unicode="&#x4c0;" horiz-adv-x="255" 
d="M50 0v710h155v-710h-155z" />
    <glyph glyph-name="uni04C1" unicode="&#x4c1;" horiz-adv-x="1070" 
d="M536 750q-73 0 -118.5 42.5t-45.5 109.5h93q0 -29 19.5 -45.5t51.5 -16.5t51.5 16.5t19.5 45.5h93q0 -67 -45.5 -109.5t-118.5 -42.5zM1052 0h-191l-248 336v-336h-155v336l-249 -336h-191l265 364l-258 346h193l240 -317v317h155v-317l239 317h193l-258 -346z" />
    <glyph glyph-name="uni04C2" unicode="&#x4c2;" horiz-adv-x="849" 
d="M424 550q-73 0 -118.5 42.5t-45.5 109.5h93q0 -29 19.5 -45.5t51.5 -16.5t51.5 16.5t19.5 45.5h93q0 -67 -45.5 -109.5t-118.5 -42.5zM847 0h-177l-171 239v-239h-150v239l-170 -239h-177l191 269l-187 241h180l163 -211v211h150v-212l164 212h180l-187 -241z" />
    <glyph glyph-name="uni04C3" unicode="&#x4c3;" horiz-adv-x="664" 
d="M414 393q102 -2 163 -58.5t61 -148.5v-144q0 -94 -64 -150.5t-169 -56.5h-158v140h169q31 0 49 16t18 44v158q0 28 -18.5 44t-49.5 16h-210v-253h-155v710h155v-317l239 317h194z" />
    <glyph glyph-name="uni04C4" unicode="&#x4c4;" horiz-adv-x="572" 
d="M385 297q78 -5 120 -47.5t42 -116.5v-133q0 -79 -48.5 -122t-137.5 -43h-135v135h126q45 0 45 37v119q0 37 -45 37h-149v-163h-150v510h150v-212h1l162 212h181z" />
    <glyph glyph-name="uni04C5" unicode="&#x4c5;" horiz-adv-x="738" 
d="M629 140h96l-35 -275h-155l17 135h-78v570h-161l-33 -331q-13 -128 -63 -183.5t-152 -55.5h-52v140h20q42 0 64 28t28 89l46 453h458v-570z" />
    <glyph glyph-name="uni04C6" unicode="&#x4c6;" horiz-adv-x="605" 
d="M584 135l-34 -270h-150l17 135h-39v375h-108l-21 -201q-10 -97 -48.5 -135.5t-124.5 -38.5h-55v135h17q33 0 48 18.5t19 65.5l30 291h393v-375h56z" />
    <glyph glyph-name="uni04C7" unicode="&#x4c7;" horiz-adv-x="660" 
d="M455 710h155v-683q0 -113 -69.5 -185t-187.5 -72h-57v140h66q93 0 93 117v248h-250v-275h-155v710h155v-295h250v295z" />
    <glyph glyph-name="uni04C8" unicode="&#x4c8;" horiz-adv-x="567" 
d="M365 510h150v-550q0 -100 -53 -145t-133 -45h-64v135h21q51 0 65 22.5t14 71.5v194h-162v-193h-150v510h150v-182h162v182z" />
    <glyph glyph-name="uni04C9" unicode="&#x4c9;" horiz-adv-x="717" 
d="M610 140h94l-35 -275h-155l17 135h-76v275h-250v-275h-155v710h155v-295h250v295h155v-570z" />
    <glyph glyph-name="uni04CA" unicode="&#x4ca;" horiz-adv-x="591" 
d="M570 135l-34 -270h-150l17 135h-38v193h-162v-193h-150v510h150v-182h162v182h150v-375h55z" />
    <glyph glyph-name="uni04CB" unicode="&#x4cb;" horiz-adv-x="614" 
d="M409 710h155v-710h-96v-135h-155v275h96v97q-54 -26 -126 -26q-116 0 -180.5 58.5t-64.5 166.5v274h155v-259q0 -100 109 -100q107 0 107 100v259z" />
    <glyph glyph-name="uni04CC" unicode="&#x4cc;" horiz-adv-x="548" 
d="M345 510h150v-510h-62v-135h-150v220h62v72q-48 -27 -106 -27q-93 0 -141.5 52t-48.5 151v177h150v-162q0 -82 73 -82q31 0 52 23t21 58v163z" />
    <glyph glyph-name="uni04CD" unicode="&#x4cd;" horiz-adv-x="820" 
d="M713 140h95l-35 -275h-155l17 135h-62v466l-136 -466h-111l-136 464v-464h-140v710h194l138 -419l137 419h194v-570z" />
    <glyph glyph-name="uni04CE" unicode="&#x4ce;" horiz-adv-x="720" 
d="M699 135l-34 -270h-150l17 135h-39v298l-105 -298h-80l-105 300v-300h-150v510h200l95 -270l95 270h200v-375h56z" />
    <glyph glyph-name="uni04CF" unicode="&#x4cf;" horiz-adv-x="259" 
d="M54 0v510h150v-510h-150z" />
    <glyph glyph-name="uni04D0" unicode="&#x4d0;" horiz-adv-x="645" 
d="M323 750q-73 0 -118.5 42.5t-45.5 109.5h93q0 -29 19.5 -45.5t51.5 -16.5t51.5 16.5t19.5 45.5h93q0 -67 -45.5 -109.5t-118.5 -42.5zM478 0l-37 125h-238l-37 -125h-152l198 710h221l198 -710h-153zM401 265l-79 283l-79 -283h158z" />
    <glyph glyph-name="uni04D1" unicode="&#x4d1;" horiz-adv-x="557" 
d="M274 550q-73 0 -118.5 42.5t-45.5 109.5h93q0 -29 19.5 -45.5t51.5 -16.5t51.5 16.5t19.5 45.5h93q0 -67 -45.5 -109.5t-118.5 -42.5zM406 510h99v-510h-99l-24 34q-55 -49 -147 -49q-95 0 -147 53t-52 163v108q0 110 52 163t147 53q92 0 147 -49zM269 121q39 0 62.5 21
t23.5 60v106q0 39 -23.5 60t-62.5 21t-61 -21.5t-22 -62.5v-100q0 -41 22 -62.5t61 -21.5z" />
    <glyph glyph-name="uni04D2" unicode="&#x4d2;" horiz-adv-x="645" 
d="M287 897v-133h-136v133h136zM494 897v-133h-136v133h136zM478 0l-37 125h-238l-37 -125h-152l198 710h221l198 -710h-153zM401 265l-79 283l-79 -283h158z" />
    <glyph glyph-name="uni04D3" unicode="&#x4d3;" horiz-adv-x="557" 
d="M238 697v-133h-136v133h136zM445 697v-133h-136v133h136zM406 510h99v-510h-99l-24 34q-55 -49 -147 -49q-95 0 -147 53t-52 163v108q0 110 52 163t147 53q92 0 147 -49zM269 121q39 0 62.5 21t23.5 60v106q0 39 -23.5 60t-62.5 21t-61 -21.5t-22 -62.5v-100
q0 -41 22 -62.5t61 -21.5z" />
    <glyph glyph-name="uni04D4" unicode="&#x4d4;" horiz-adv-x="962" 
d="M935 570h-303v-155h263v-140h-263v-135h303v-140h-458v165h-245l-62 -165h-156l265 710h656v-140zM477 305v265h-93l-100 -265h193z" />
    <glyph glyph-name="uni04D5" unicode="&#x4d5;" horiz-adv-x="831" 
d="M602 525q88 0 140.5 -55t52.5 -140v-119h-297v-9q0 -97 82 -97q30 0 47 15t17 38v14h150q0 -88 -48.5 -137.5t-142.5 -49.5q-78 0 -131 50l-25 -35h-48l-24 33q-54 -48 -144 -48q-93 0 -144 53t-51 163v108q0 110 51.5 163t145.5 53q89 0 143 -48l23 33h48l24 -34
q55 49 131 49zM498 318h144v12q0 75 -64 75q-77 0 -80 -87zM267 121q36 0 58.5 21t22.5 60v106q0 39 -22 60t-59 21q-38 0 -59.5 -21.5t-21.5 -62.5v-100q0 -41 22 -62.5t59 -21.5z" />
    <glyph glyph-name="uni04D6" unicode="&#x4d6;" horiz-adv-x="535" 
d="M267 750q-73 0 -118.5 42.5t-45.5 109.5h93q0 -29 19.5 -45.5t51.5 -16.5t51.5 16.5t19.5 45.5h93q0 -67 -45.5 -109.5t-118.5 -42.5zM508 570h-303v-155h263v-140h-263v-135h303v-140h-458v710h458v-140z" />
    <glyph glyph-name="uni04D7" unicode="&#x4d7;" horiz-adv-x="526" 
d="M263 550q-73 0 -118.5 42.5t-45.5 109.5h93q0 -29 19.5 -45.5t51.5 -16.5t51.5 16.5t19.5 45.5h93q0 -67 -45.5 -109.5t-118.5 -42.5zM266 525q98 0 161 -55.5t63 -139.5v-119h-304v-9q0 -49 22.5 -73t59.5 -24q26 0 48.5 13.5t22.5 33.5v10h150q0 -81 -61.5 -129
t-161.5 -48q-107 0 -168.5 61t-61.5 163v95q0 102 61.5 161.5t168.5 59.5zM186 318h151v12q0 75 -70 75q-78 0 -81 -87z" />
    <glyph glyph-name="uni04D8" unicode="&#x4d8;" horiz-adv-x="656" 
d="M328 725q133 0 209.5 -61.5t76.5 -165.5v-286q0 -104 -77 -165.5t-210 -61.5t-209.5 61.5t-76.5 165.5v180h418v99q0 44 -34 69t-98 25q-60 0 -92 -25t-32 -69v-44h-162v51q0 104 77 165.5t210 61.5zM328 125q63 0 97 25t34 69v33h-256v-33q0 -44 32 -69t93 -25z" />
    <glyph glyph-name="uni04D9" unicode="&#x4d9;" horiz-adv-x="526" 
d="M259 525q108 0 169.5 -61t61.5 -163v-95q0 -102 -61.5 -161.5t-168.5 -59.5q-98 0 -161 55.5t-63 139.5v119h304v9q0 49 -22.5 73t-59.5 24q-26 0 -48.5 -13.5t-22.5 -33.5v-10h-150q0 81 61 129t161 48zM259 105q78 0 81 87h-151v-12q0 -75 70 -75z" />
    <glyph glyph-name="uni04DA" unicode="&#x4da;" horiz-adv-x="656" 
d="M292 897v-133h-136v133h136zM499 897v-133h-136v133h136zM328 725q133 0 209.5 -61.5t76.5 -165.5v-286q0 -104 -77 -165.5t-210 -61.5t-209.5 61.5t-76.5 165.5v180h418v99q0 44 -34 69t-98 25q-60 0 -92 -25t-32 -69v-44h-162v51q0 104 77 165.5t210 61.5zM328 125
q63 0 97 25t34 69v33h-256v-33q0 -44 32 -69t93 -25z" />
    <glyph glyph-name="uni04DB" unicode="&#x4db;" horiz-adv-x="526" 
d="M224 697v-133h-136v133h136zM431 697v-133h-136v133h136zM259 525q108 0 169.5 -61t61.5 -163v-95q0 -102 -61.5 -161.5t-168.5 -59.5q-98 0 -161 55.5t-63 139.5v119h304v9q0 49 -22.5 73t-59.5 24q-26 0 -48.5 -13.5t-22.5 -33.5v-10h-150q0 81 61 129t161 48zM259 105
q78 0 81 87h-151v-12q0 -75 70 -75z" />
    <glyph glyph-name="uni04DC" unicode="&#x4dc;" horiz-adv-x="1070" 
d="M500 897v-133h-136v133h136zM707 897v-133h-136v133h136zM1052 0h-191l-248 336v-336h-155v336l-249 -336h-191l265 364l-258 346h193l240 -317v317h155v-317l239 317h193l-258 -346z" />
    <glyph glyph-name="uni04DD" unicode="&#x4dd;" horiz-adv-x="849" 
d="M388 697v-133h-136v133h136zM595 697v-133h-136v133h136zM847 0h-177l-171 239v-239h-150v239l-170 -239h-177l191 269l-187 241h180l163 -211v211h150v-212l164 212h180l-187 -241z" />
    <glyph glyph-name="uni04DE" unicode="&#x4de;" horiz-adv-x="628" 
d="M278 897v-133h-136v133h136zM485 897v-133h-136v133h136zM528 368q58 -52 58 -129v-47q0 -95 -73 -151t-199 -56q-124 0 -198.5 58.5t-74.5 155.5v29h155v-36q0 -67 118 -67q117 0 117 60v54q0 56 -83 56h-126v135h113q83 0 83 54v42q0 59 -110 59q-102 0 -102 -66v-40
h-155v32q0 97 70 155.5t186 58.5q123 0 194.5 -53.5t71.5 -148.5v-40q0 -67 -45 -115z" />
    <glyph glyph-name="uni04DF" unicode="&#x4df;" horiz-adv-x="517" 
d="M223 697v-133h-136v133h136zM430 697v-133h-136v133h136zM425 268q56 -32 56 -109v-10q0 -78 -57.5 -121t-163.5 -43q-107 0 -165.5 44.5t-58.5 125.5v20h149v-25q0 -42 76 -42q70 0 70 41v13q0 19 -10.5 26.5t-36.5 7.5h-83v124h75q26 0 35.5 7t9.5 26v11q0 38 -65 38
q-69 0 -69 -38v-22h-148v17q0 79 57 122.5t159 43.5q100 0 158 -41.5t58 -112.5v-11q0 -58 -46 -92z" />
    <glyph glyph-name="uni04E0" unicode="&#x4e0;" horiz-adv-x="628" 
d="M391 441q91 -3 143 -55t52 -135v-59q0 -95 -73 -151t-199 -56q-124 0 -198.5 58.5t-74.5 155.5v29h155v-36q0 -67 118 -67q117 0 117 60v65q0 56 -83 56h-179v135l171 129h-262v140h483v-140z" />
    <glyph glyph-name="uni04E1" unicode="&#x4e1;" horiz-adv-x="520" 
d="M291 216q35 -2 67 -13t61.5 -33.5t47 -62t17.5 -92.5v-43q0 -98 -61 -157.5t-163 -59.5q-101 0 -162.5 58t-61.5 154v35h151v-39q0 -35 19.5 -54t53.5 -19q74 0 74 82v38q0 33 -17.5 52t-48.5 19h-161v135l156 159h-204v135h388v-135z" />
    <glyph glyph-name="uni04E2" unicode="&#x4e2;" horiz-adv-x="650" 
d="M499 898v-122h-349v122h349zM456 710h144v-710h-144v447l-262 -447h-144v710h144v-446z" />
    <glyph glyph-name="uni04E3" unicode="&#x4e3;" horiz-adv-x="569" 
d="M459 698v-122h-349v122h349zM362 510h154v-510h-150v282l-159 -282h-154v510h150v-282z" />
    <glyph glyph-name="uni04E4" unicode="&#x4e4;" horiz-adv-x="650" 
d="M289 897v-133h-136v133h136zM496 897v-133h-136v133h136zM456 710h144v-710h-144v447l-262 -447h-144v710h144v-446z" />
    <glyph glyph-name="uni04E5" unicode="&#x4e5;" horiz-adv-x="569" 
d="M249 697v-133h-136v133h136zM456 697v-133h-136v133h136zM362 510h154v-510h-150v282l-159 -282h-154v510h150v-282z" />
    <glyph glyph-name="uni04E6" unicode="&#x4e6;" horiz-adv-x="662" 
d="M159 764v133h136v-133h-136zM366 764v133h136v-133h-136zM332 -15q-135 0 -213 61.5t-78 165.5v286q0 104 77.5 165.5t212.5 61.5t212.5 -61.5t77.5 -165.5v-286q0 -104 -77 -165.5t-212 -61.5zM331 125q135 0 135 94v272q0 94 -134 94q-136 0 -136 -94v-272
q0 -44 33.5 -69t101.5 -25z" />
    <glyph glyph-name="uni04E7" unicode="&#x4e7;" horiz-adv-x="538" 
d="M97 564v133h136v-133h-136zM304 564v133h136v-133h-136zM269 -15q-109 0 -171 59.5t-62 161.5v98q0 102 61.5 161.5t170.5 59.5q110 0 172 -59.5t62 -161.5v-98q0 -102 -62 -161.5t-171 -59.5zM268 120q84 0 84 87v96q0 87 -83 87t-83 -87v-96q0 -87 82 -87z" />
    <glyph glyph-name="uni04E8" unicode="&#x4e8;" horiz-adv-x="662" 
d="M331 725q135 0 212.5 -61.5t77.5 -165.5v-286q0 -104 -77 -165.5t-212 -61.5t-213 61.5t-78 165.5v286q0 104 77.5 165.5t212.5 61.5zM332 585q-136 0 -136 -94v-53h270v53q0 94 -134 94zM331 125q135 0 135 94v79h-270v-79q0 -44 33.5 -69t101.5 -25z" />
    <glyph glyph-name="uni04E9" unicode="&#x4e9;" horiz-adv-x="538" 
d="M268 525q110 0 172 -59.5t62 -161.5v-98q0 -102 -62 -161.5t-171 -59.5t-171 59.5t-62 161.5v98q0 102 61.5 161.5t170.5 59.5zM269 390q-70 0 -81 -62h162q-11 62 -81 62zM268 120q77 0 83 73h-164q6 -73 81 -73z" />
    <glyph glyph-name="uni04EA" unicode="&#x4ea;" horiz-adv-x="662" 
d="M295 897v-133h-136v133h136zM502 897v-133h-136v133h136zM331 725q135 0 212.5 -61.5t77.5 -165.5v-286q0 -104 -77 -165.5t-212 -61.5t-213 61.5t-78 165.5v286q0 104 77.5 165.5t212.5 61.5zM332 585q-136 0 -136 -94v-53h270v53q0 94 -134 94zM331 125q135 0 135 94
v79h-270v-79q0 -44 33.5 -69t101.5 -25z" />
    <glyph glyph-name="uni04EB" unicode="&#x4eb;" horiz-adv-x="538" 
d="M233 697v-133h-136v133h136zM440 697v-133h-136v133h136zM268 525q110 0 172 -59.5t62 -161.5v-98q0 -102 -62 -161.5t-171 -59.5t-171 59.5t-62 161.5v98q0 102 61.5 161.5t170.5 59.5zM269 390q-70 0 -81 -62h162q-11 62 -81 62zM268 120q77 0 83 73h-164q6 -73 81 -73
z" />
    <glyph glyph-name="uni04EC" unicode="&#x4ec;" horiz-adv-x="656" 
d="M292 897v-133h-136v133h136zM499 897v-133h-136v133h136zM328 725q133 0 209.5 -61.5t76.5 -165.5v-286q0 -104 -77 -165.5t-210 -61.5t-209.5 61.5t-76.5 165.5v64h162v-57q0 -44 32 -69t93 -25q63 0 97 25t34 69v70h-181v140h181v62q0 44 -34 69t-98 25q-60 0 -92 -25
t-32 -69v-57h-162v64q0 104 77 165.5t210 61.5z" />
    <glyph glyph-name="uni04ED" unicode="&#x4ed;" horiz-adv-x="523" 
d="M226 697v-133h-136v133h136zM433 697v-133h-136v133h136zM259 525q107 0 167.5 -59.5t60.5 -161.5v-98q0 -102 -61 -161.5t-168 -59.5q-101 0 -161.5 58t-60.5 154v15h151v-24q0 -34 19.5 -53.5t51.5 -19.5q74 0 79 78h-106v135h105q-9 67 -78 67q-32 0 -51.5 -19
t-19.5 -54v-24h-151v15q0 96 61 154t162 58z" />
    <glyph glyph-name="uni04EE" unicode="&#x4ee;" horiz-adv-x="635" 
d="M496 898v-122h-349v122h349zM454 710h168l-336 -710h-167l115 244l-220 466h169l136 -296z" />
    <glyph glyph-name="uni04EF" unicode="&#x4ef;" horiz-adv-x="548" 
d="M448 698v-122h-349v122h349zM345 510h150v-558q0 -86 -57 -141.5t-167 -55.5q-108 0 -165 53.5t-57 131.5h150q0 -23 20 -36.5t49 -13.5q33 0 55 16t22 48v58q-47 -27 -106 -27q-89 0 -139.5 56t-50.5 173v296h150v-299q0 -44 19.5 -67t53.5 -23q29 0 51 21.5t22 59.5
v308z" />
    <glyph glyph-name="uni04F0" unicode="&#x4f0;" horiz-adv-x="635" 
d="M286 897v-133h-136v133h136zM493 897v-133h-136v133h136zM454 710h168l-336 -710h-167l115 244l-220 466h169l136 -296z" />
    <glyph glyph-name="uni04F1" unicode="&#x4f1;" horiz-adv-x="548" 
d="M238 697v-133h-136v133h136zM445 697v-133h-136v133h136zM345 510h150v-558q0 -86 -57 -141.5t-167 -55.5q-108 0 -165 53.5t-57 131.5h150q0 -23 20 -36.5t49 -13.5q33 0 55 16t22 48v58q-47 -27 -106 -27q-89 0 -139.5 56t-50.5 173v296h150v-299q0 -44 19.5 -67
t53.5 -23q29 0 51 21.5t22 59.5v308z" />
    <glyph glyph-name="uni04F2" unicode="&#x4f2;" horiz-adv-x="635" 
d="M382 886l-95 -131h-131l87 131h139zM499 755h-131l87 131h139zM454 710h168l-336 -710h-167l115 244l-220 466h169l136 -296z" />
    <glyph glyph-name="uni04F3" unicode="&#x4f3;" horiz-adv-x="548" 
d="M307 689l-72 -134h-125l63 134h134zM517 689l-72 -134h-125l63 134h134zM345 202v308h150v-558q0 -86 -57 -141.5t-167 -55.5q-108 0 -165 53.5t-57 131.5h150q0 -23 20 -36.5t49 -13.5q33 0 55 16t22 48v58q-47 -27 -106 -27q-89 0 -139.5 56t-50.5 173v296h150v-299
q0 -44 19.5 -67t53.5 -23q29 0 51 21.5t22 59.5z" />
    <glyph glyph-name="uni04F4" unicode="&#x4f4;" horiz-adv-x="614" 
d="M272 897v-133h-136v133h136zM479 897v-133h-136v133h136zM409 710h155v-710h-155v237q-54 -26 -126 -26q-116 0 -180.5 58.5t-64.5 166.5v274h155v-259q0 -100 109 -100q107 0 107 100v259z" />
    <glyph glyph-name="uni04F5" unicode="&#x4f5;" horiz-adv-x="548" 
d="M238 697v-133h-136v133h136zM445 697v-133h-136v133h136zM345 510h150v-510h-150v156q-46 -26 -106 -26q-92 0 -141 50t-49 143v187h150v-162q0 -82 70 -82q33 0 54.5 23t21.5 58v163z" />
    <glyph glyph-name="uni04F6" unicode="&#x4f6;" horiz-adv-x="527" 
d="M515 570h-310v-430h96v-275h-155v135h-96v710h465v-140z" />
    <glyph glyph-name="uni04F7" unicode="&#x4f7;" horiz-adv-x="427" 
d="M406 375h-203v-240h62v-270h-150v135h-62v510h353v-135z" />
    <glyph glyph-name="uni04F8" unicode="&#x4f8;" horiz-adv-x="859" 
d="M394 897v-133h-136v133h136zM465 764v133h136v-133h-136zM350 466q105 0 168.5 -56.5t63.5 -150.5v-52q0 -94 -64 -150.5t-169 -56.5h-299v710h155v-244h145zM654 710h155v-710h-155v710zM427 200v66q0 28 -18.5 44t-49.5 16h-154v-186h155q31 0 49 16t18 44z" />
    <glyph glyph-name="uni04F9" unicode="&#x4f9;" horiz-adv-x="744" 
d="M336 697v-133h-136v133h136zM543 697v-133h-136v133h136zM302 354q89 0 137.5 -43t48.5 -122v-24q0 -79 -48.5 -122t-137.5 -43h-249v510h150v-156h99zM541 510h150v-510h-150v510zM338 172v10q0 37 -45 37h-90v-84h90q45 0 45 37z" />
    <glyph glyph-name="uni04FC" unicode="&#x4fc;" horiz-adv-x="647" 
d="M590 146q43 -61 43 -137q0 -78 -53.5 -126t-141.5 -48h-56v140h43q23 0 38 15t15 38q0 22 -16 43l-125 178l-150 -249h-170l223 387l-226 323h180l140 -199l124 199h174l-204 -333z" />
    <glyph glyph-name="uni04FD" unicode="&#x4fd;" horiz-adv-x="519" 
d="M348 269l129 -182q35 -47 35 -110q0 -64 -41 -103t-108 -39h-75v135h45q29 0 29 28q0 15 -12 32l-86 120l-94 -150h-160l169 269l-172 241h170l88 -123l82 123h165z" />
    <glyph glyph-name="uni0510" unicode="&#x510;" horiz-adv-x="628" 
d="M431 228h155v-29q0 -97 -74 -155.5t-198 -58.5q-126 0 -199.5 56t-73.5 151v47q0 77 58 129q-45 48 -45 115v40q0 95 71.5 148.5t194.5 53.5q117 0 186.5 -58t69.5 -156v-32h-155v40q0 66 -102 66q-110 0 -110 -59v-42q0 -54 84 -54h113v-135h-126q-84 0 -84 -56v-54
q0 -60 118 -60q117 0 117 67v36z" />
    <glyph glyph-name="uni0511" unicode="&#x511;" horiz-adv-x="517" 
d="M332 175h149v-20q0 -81 -58.5 -125.5t-165.5 -44.5q-105 0 -163 43t-58 121v10q0 76 56 109q-46 34 -46 92v11q0 71 58 112.5t158 41.5q103 0 159.5 -43.5t56.5 -122.5v-17h-147v22q0 38 -70 38q-65 0 -65 -38v-11q0 -19 10 -26t35 -7h75v-124h-82q-27 0 -37.5 -7.5
t-10.5 -26.5v-13q0 -41 70 -41q76 0 76 42v25z" />
    <glyph glyph-name="uni0512" unicode="&#x512;" horiz-adv-x="681" 
d="M631 710v-683q0 -113 -69.5 -185t-187.5 -72h-57v140h66q93 0 93 117v543h-161l-33 -331q-13 -128 -63 -183.5t-152 -55.5h-52v140h20q42 0 64 28t28 89l46 453h458z" />
    <glyph glyph-name="uni0513" unicode="&#x513;" horiz-adv-x="581" 
d="M528 510v-550q0 -100 -53 -145t-132 -45h-65v135h22q50 0 64 22.5t14 71.5v376h-108l-21 -201q-10 -97 -48.5 -135.5t-124.5 -38.5h-55v135h17q33 0 48 18.5t19 65.5l30 291h393z" />
    <glyph glyph-name="uni051C" unicode="&#x51c;" horiz-adv-x="946" 
d="M770 711h162l-164 -710h-203l-92 410l-92 -410h-204l-163 710h163l109 -539l115 539h138l122 -541z" />
    <glyph glyph-name="uni051D" unicode="&#x51d;" horiz-adv-x="701" 
d="M542 510h152l-119 -510h-153l-71 224l-71 -224h-154l-119 510h152l60 -357l73 357h117l74 -357z" />
    <glyph glyph-name="uni0524" unicode="&#x524;" horiz-adv-x="719" 
d="M610 140h96v-275h-155v135h-96v570h-250v-570h-155v710h560v-570z" />
    <glyph glyph-name="uni0525" unicode="&#x525;" horiz-adv-x="598" 
d="M577 135v-270h-150v135h-62v375h-162v-375h-150v510h462v-375h62z" />
    <glyph glyph-name="uni0526" unicode="&#x526;" horiz-adv-x="669" 
d="M648 135v-270h-150v135h-74v240q0 100 -108 100t-108 -100v-240h-155v710h155v-257q52 27 127 27q115 0 179.5 -59t64.5 -166v-120h69z" />
    <glyph glyph-name="uni0527" unicode="&#x527;" horiz-adv-x="598" 
d="M577 135v-270h-150v135h-62v298q0 44 -23 67.5t-57 23.5q-33 0 -57.5 -22t-24.5 -60v-307h-150v770h150v-276q52 31 120 31q90 0 141 -56t51 -173v-161h62z" />
    <glyph glyph-name="Wgrave" unicode="&#x1e80;" horiz-adv-x="946" 
d="M551 755h-160l-142 155h187zM770 711h162l-164 -710h-203l-92 410l-92 -410h-204l-163 710h163l109 -539l115 539h138l122 -541z" />
    <glyph glyph-name="wgrave" unicode="&#x1e81;" horiz-adv-x="701" 
d="M423 555h-142l-130 179h170zM542 510h152l-119 -510h-153l-71 224l-71 -224h-154l-119 510h152l60 -357l73 357h117l74 -357z" />
    <glyph glyph-name="Wacute" unicode="&#x1e82;" horiz-adv-x="946" 
d="M697 910l-142 -155h-160l115 155h187zM770 711h162l-164 -710h-203l-92 410l-92 -410h-204l-163 710h163l109 -539l115 539h138l122 -541z" />
    <glyph glyph-name="wacute" unicode="&#x1e83;" horiz-adv-x="701" 
d="M550 734l-130 -179h-142l103 179h169zM542 510h152l-119 -510h-153l-71 224l-71 -224h-154l-119 510h152l60 -357l73 357h117l74 -357z" />
    <glyph glyph-name="Wdieresis" unicode="&#x1e84;" horiz-adv-x="946" 
d="M437 897v-133h-136v133h136zM644 897v-133h-136v133h136zM770 711h162l-164 -710h-203l-92 410l-92 -410h-204l-163 710h163l109 -539l115 539h138l122 -541z" />
    <glyph glyph-name="wdieresis" unicode="&#x1e85;" horiz-adv-x="701" 
d="M315 697v-133h-136v133h136zM522 697v-133h-136v133h136zM542 510h152l-119 -510h-153l-71 224l-71 -224h-154l-119 510h152l60 -357l73 357h117l74 -357z" />
    <glyph glyph-name="Ygrave" unicode="&#x1ef2;" horiz-adv-x="629" 
d="M393 755h-160l-142 155h187zM615 710l-223 -472v-238h-155v236l-223 474h169l133 -291l132 291h167z" />
    <glyph glyph-name="ygrave" unicode="&#x1ef3;" horiz-adv-x="548" 
d="M346 555h-142l-130 179h170zM345 510h150v-558q0 -86 -57 -141.5t-167 -55.5q-108 0 -165 53.5t-57 131.5h150q0 -23 20 -36.5t49 -13.5q33 0 55 16t22 48v58q-47 -27 -106 -27q-89 0 -139.5 56t-50.5 173v296h150v-299q0 -44 19.5 -67t53.5 -23q29 0 51 21.5t22 59.5
v308z" />
    <glyph glyph-name="uni2009" unicode="&#x2009;" horiz-adv-x="84" 
 />
    <glyph glyph-name="endash" unicode="&#x2013;" horiz-adv-x="424" 
d="M39 209v127h346v-127h-346z" />
    <glyph glyph-name="emdash" unicode="&#x2014;" horiz-adv-x="581" 
d="M39 209v127h503v-127h-503z" />
    <glyph glyph-name="quoteleft" unicode="&#x2018;" horiz-adv-x="238" 
d="M41 481v146l66 143h64l-22 -143h38v-146h-146z" />
    <glyph glyph-name="quoteright" unicode="&#x2019;" horiz-adv-x="238" 
d="M197 770v-146l-66 -143h-64l22 143h-38v146h146z" />
    <glyph glyph-name="quotesinglbase" unicode="&#x201a;" horiz-adv-x="253" 
d="M205 146v-146l-66 -143h-64l22 143h-38v146h146z" />
    <glyph glyph-name="quotedblleft" unicode="&#x201c;" horiz-adv-x="431" 
d="M41 481v146l66 143h64l-22 -143h38v-146h-146zM234 481v146l66 143h64l-22 -143h38v-146h-146z" />
    <glyph glyph-name="quotedblright" unicode="&#x201d;" horiz-adv-x="431" 
d="M197 770v-146l-66 -143h-64l22 143h-38v146h146zM391 770v-146l-66 -143h-64l22 143h-38v146h146z" />
    <glyph glyph-name="quotedblbase" unicode="&#x201e;" horiz-adv-x="457" 
d="M206 146v-146l-66 -143h-64l22 143h-38v146h146zM400 146v-146l-66 -143h-64l22 143h-38v146h146z" />
    <glyph glyph-name="dagger" unicode="&#x2020;" horiz-adv-x="445" 
d="M399 525v-130h-104v-595h-145v595h-104v130h104v185h145v-185h104z" />
    <glyph glyph-name="daggerdbl" unicode="&#x2021;" horiz-adv-x="445" 
d="M399 395h-104v-150h104v-130h-104v-315h-145v315h-104v130h104v150h-104v130h104v185h145v-185h104v-130z" />
    <glyph glyph-name="bullet" unicode="&#x2022;" horiz-adv-x="316" 
d="M158 420q53 0 84.5 -33t31.5 -88t-31.5 -88.5t-84.5 -33.5t-84.5 33.5t-31.5 88.5t31.5 88t84.5 33z" />
    <glyph glyph-name="ellipsis" unicode="&#x2026;" horiz-adv-x="766" 
d="M54 0v146h150v-146h-150zM308 0v146h150v-146h-150zM561 0v146h150v-146h-150z" />
    <glyph glyph-name="perthousand" unicode="&#x2030;" horiz-adv-x="1125" 
d="M190 365q-69 0 -113 32t-44 82v132q0 50 43.5 82t112.5 32q70 0 114 -32t44 -82v-132q0 -50 -44 -82t-113 -32zM95 0l454 710h119l-454 -710h-119zM190 456q25 0 40.5 11t15.5 27v103q0 15 -15.5 25.5t-39.5 10.5q-25 0 -40.5 -10.5t-15.5 -25.5v-103q0 -16 15 -27
t40 -11zM571 -15q-69 0 -113 32t-44 82v132q0 50 43.5 82t112.5 32q70 0 114 -32t44 -82v-132q0 -50 -44 -82t-113 -32zM936 -15q-70 0 -114 32t-44 82v132q0 50 44 82t113 32t113 -32t44 -82v-132q0 -50 -43.5 -82t-112.5 -32zM571 76q25 0 40.5 11t15.5 27v103
q0 15 -15.5 25.5t-39.5 10.5q-25 0 -40.5 -10.5t-15.5 -25.5v-103q0 -16 15 -27t40 -11zM936 76q24 0 39.5 11t15.5 27v103q0 15 -15 25.5t-39 10.5q-25 0 -41 -10.5t-16 -25.5v-103q0 -16 15.5 -27t40.5 -11z" />
    <glyph glyph-name="guilsinglleft" unicode="&#x2039;" horiz-adv-x="354" 
d="M290 497v-150l-129 -92l129 -94v-150l-231 168v150z" />
    <glyph glyph-name="guilsinglright" unicode="&#x203a;" horiz-adv-x="354" 
d="M64 497l231 -168v-150l-231 -168v150l129 94l-129 92v150z" />
    <glyph glyph-name="fraction" unicode="&#x2044;" horiz-adv-x="172" 
d="M-85 0l243 710h99l-243 -710h-99z" />
    <glyph glyph-name="Euro" unicode="&#x20ac;" horiz-adv-x="696" 
d="M654 434h-161v57q0 44 -32 69t-92 25q-64 0 -98.5 -25t-34.5 -69v-21h207v-95h-207v-47h207v-95h-207v-14q0 -44 34 -69t98 -25q60 0 92.5 25t32.5 69v57h161v-64q0 -104 -76.5 -165.5t-208.5 -61.5q-133 0 -210.5 62t-77.5 165v21h-72v95h72v47h-72v95h72v28
q0 104 77 165.5t210 61.5t209.5 -61.5t76.5 -165.5v-64z" />
    <glyph glyph-name="uni20BD" unicode="&#x20bd;" horiz-adv-x="663" 
d="M404 710q105 0 169 -56.5t64 -150.5v-32q0 -93 -63.5 -150t-168.5 -57h-146v-40h175v-140h-175v-84h-155v84h-90v140h90v40h-90v140h90v306h300zM482 464v46q0 28 -18 44t-49 16h-156v-166h155q31 0 49.5 16.5t18.5 43.5z" />
    <glyph glyph-name="uni2116" unicode="&#x2116;" horiz-adv-x="1181" 
d="M907 725q110 0 172 -59.5t62 -161.5v-98q0 -102 -62 -161.5t-171 -59.5t-171 59.5t-62 161.5v98q0 102 61.5 161.5t170.5 59.5zM438 282v428h144v-710h-144l-244 426v-426h-144v710h144zM991 407v96q0 87 -83 87t-83 -87v-96q0 -87 82 -87q84 0 84 87zM714 0v122h377
v-122h-377z" />
    <glyph glyph-name="trademark" unicode="&#x2122;" horiz-adv-x="646" 
d="M259 710v-81h-78v-240h-89v240h-78v81h245zM600 710v-321h-80v175l-48 -175h-63l-48 175v-175h-80v321h111l48 -151l48 151h112z" />
    <glyph glyph-name="uni2126" unicode="&#x2126;" horiz-adv-x="677" 
d="M594 140h50v-140h-273v140q92 19 92 97v254q0 94 -122 94q-127 0 -127 -94v-254q0 -78 92 -97v-140h-273v140h50q-24 38 -24 87v271q0 104 75 165.5t207 61.5q129 0 203 -61.5t74 -165.5v-271q0 -49 -24 -87z" />
    <glyph glyph-name="uni2150" unicode="&#x2150;" horiz-adv-x="820" 
d="M263 433v-79h-207v79h60v198h-60v79h148v-277h59zM482 710h99l-243 -710h-99zM558 356h246v-79l-140 -277h-96l139 277h-149v79z" />
    <glyph glyph-name="uni2151" unicode="&#x2151;" horiz-adv-x="820" 
d="M263 433v-79h-207v79h60v198h-60v79h148v-277h59zM482 710h99l-243 -710h-99zM658 364q57 0 95 -31t38 -79v-147q0 -53 -37.5 -84t-94.5 -31t-94.5 31t-37.5 83h87q0 -17 12.5 -27t31.5 -10q45 0 45 37v29q-29 -15 -63 -15q-46 0 -80 26t-34 70v44q0 46 38 75t94 29z
M657 192q44 0 46 26v43q0 12 -13 19t-32 7t-31.5 -7.5t-12.5 -20.5v-46q0 -9 12.5 -15t30.5 -6z" />
    <glyph glyph-name="uni2153" unicode="&#x2153;" horiz-adv-x="820" 
d="M263 433v-79h-207v79h60v198h-60v79h148v-277h59zM482 710h99l-243 -710h-99zM792 257v-21q0 -32 -23 -57q22 -24 22 -56v-25q0 -49 -36.5 -77.5t-94.5 -28.5q-60 0 -97 30.5t-37 79.5v12h88v-17q0 -26 47 -26q42 0 42 23v30q0 17 -36 17h-61v77h61q37 0 37 18v25
q0 23 -42 23q-48 0 -48 -25v-20h-88v15q0 49 37 79.5t97 30.5q58 0 95 -29t37 -78z" />
    <glyph glyph-name="uni2154" unicode="&#x2154;" horiz-adv-x="820" 
d="M288 433v-79h-256v79q0 26 27 52.5t59 43.5t59 37.5t27 36.5v10q0 25 -38 25q-40 0 -40 -34v-15h-88v11q0 53 35.5 85.5t93.5 32.5q55 0 90 -28.5t35 -75.5v-16q0 -33 -25.5 -63t-56.5 -46.5t-56.5 -32t-25.5 -23.5h160zM482 710h99l-243 -710h-99zM792 257v-21
q0 -32 -23 -57q22 -24 22 -56v-25q0 -49 -36.5 -77.5t-94.5 -28.5q-60 0 -97 30.5t-37 79.5v12h88v-17q0 -26 47 -26q42 0 42 23v30q0 17 -36 17h-61v77h61q37 0 37 18v25q0 23 -42 23q-48 0 -48 -25v-20h-88v15q0 49 37 79.5t97 30.5q58 0 95 -29t37 -78z" />
    <glyph glyph-name="uni2155" unicode="&#x2155;" horiz-adv-x="820" 
d="M263 433v-79h-207v79h60v198h-60v79h148v-277h59zM482 710h99l-243 -710h-99zM684 228q44 0 71.5 -28.5t27.5 -74.5v-28q0 -47 -34.5 -76t-90.5 -29t-90.5 29t-34.5 76v24h88v-31q0 -21 36 -21q38 0 38 21v42q0 19 -11 19h-142v205h226v-79h-138v-49h54z" />
    <glyph glyph-name="uni2156" unicode="&#x2156;" horiz-adv-x="820" 
d="M288 433v-79h-256v79q0 26 27 52.5t59 43.5t59 37.5t27 36.5v10q0 25 -38 25q-40 0 -40 -34v-15h-88v11q0 53 35.5 85.5t93.5 32.5q55 0 90 -28.5t35 -75.5v-16q0 -33 -25.5 -63t-56.5 -46.5t-56.5 -32t-25.5 -23.5h160zM482 710h99l-243 -710h-99zM684 228
q44 0 71.5 -28.5t27.5 -74.5v-28q0 -47 -34.5 -76t-90.5 -29t-90.5 29t-34.5 76v24h88v-31q0 -21 36 -21q38 0 38 21v42q0 19 -11 19h-142v205h226v-79h-138v-49h54z" />
    <glyph glyph-name="uni2157" unicode="&#x2157;" horiz-adv-x="820" 
d="M295 452q0 -49 -36.5 -77.5t-94.5 -28.5q-60 0 -97 30.5t-37 79.5v12h88v-17q0 -26 47 -26q42 0 42 23v30q0 17 -36 17h-61v77h61q37 0 37 18v25q0 23 -42 23q-48 0 -48 -25v-20h-88v15q0 49 37 79.5t97 30.5q58 0 95 -29t37 -78v-21q0 -32 -23 -57q22 -24 22 -56v-25z
M482 710h99l-243 -710h-99zM684 228q44 0 71.5 -28.5t27.5 -74.5v-28q0 -47 -34.5 -76t-90.5 -29t-90.5 29t-34.5 76v24h88v-31q0 -21 36 -21q38 0 38 21v42q0 19 -11 19h-142v205h226v-79h-138v-49h54z" />
    <glyph glyph-name="uni2158" unicode="&#x2158;" horiz-adv-x="820" 
d="M285 354h-88v73h-160v79l82 204h96l-81 -204h63v80h88v-232zM482 710h99l-243 -710h-99zM684 228q44 0 71.5 -28.5t27.5 -74.5v-28q0 -47 -34.5 -76t-90.5 -29t-90.5 29t-34.5 76v24h88v-31q0 -21 36 -21q38 0 38 21v42q0 19 -11 19h-142v205h226v-79h-138v-49h54z" />
    <glyph glyph-name="uni2159" unicode="&#x2159;" horiz-adv-x="820" 
d="M263 433v-79h-207v79h60v198h-60v79h148v-277h59zM482 710h99l-243 -710h-99zM676 232q47 0 81 -26t34 -70v-40q0 -46 -38 -75t-94 -29q-58 0 -95.5 30.5t-37.5 80.5v146q0 53 37.5 84t94.5 31t94.5 -31t37.5 -84h-87q0 18 -12.5 28t-32.5 10q-44 0 -44 -37v-33
q27 15 62 15zM703 97v42q0 9 -12.5 15t-31.5 6q-43 0 -45 -26v-38q0 -27 45 -27q19 0 31.5 7.5t12.5 20.5z" />
    <glyph glyph-name="uni215A" unicode="&#x215a;" horiz-adv-x="820" 
d="M287 451q0 -47 -34.5 -76t-90.5 -29t-90.5 29t-34.5 76v24h88v-31q0 -21 36 -21q38 0 38 21v42q0 19 -11 19h-142v205h226v-79h-138v-49h54q44 0 71.5 -28.5t27.5 -74.5v-28zM482 710h99l-243 -710h-99zM676 232q47 0 81 -26t34 -70v-40q0 -46 -38 -75t-94 -29
q-58 0 -95.5 30.5t-37.5 80.5v146q0 53 37.5 84t94.5 31t94.5 -31t37.5 -84h-87q0 18 -12.5 28t-32.5 10q-44 0 -44 -37v-33q27 15 62 15zM703 97v42q0 9 -12.5 15t-31.5 6q-43 0 -45 -26v-38q0 -27 45 -27q19 0 31.5 7.5t12.5 20.5z" />
    <glyph glyph-name="oneeighth" unicode="&#x215b;" horiz-adv-x="820" 
d="M263 433v-79h-207v79h60v198h-60v79h148v-277h59zM482 710h99l-243 -710h-99zM766 180q30 -25 30 -64v-29q0 -43 -37.5 -69t-99.5 -26q-61 0 -99 26t-38 69v29q0 39 30 64q-26 23 -26 59v26q0 44 37 71.5t96 27.5t96 -27.5t37 -71.5v-26q0 -36 -26 -59zM614 237
q0 -25 45 -25t45 25v26q0 27 -45 27t-45 -27v-26zM708 89v30q0 28 -49 28t-49 -28v-30q0 -23 49 -23t49 23z" />
    <glyph glyph-name="threeeighths" unicode="&#x215c;" horiz-adv-x="820" 
d="M295 452q0 -49 -36.5 -77.5t-94.5 -28.5q-60 0 -97 30.5t-37 79.5v12h88v-17q0 -26 47 -26q42 0 42 23v30q0 17 -36 17h-61v77h61q37 0 37 18v25q0 23 -42 23q-48 0 -48 -25v-20h-88v15q0 49 37 79.5t97 30.5q58 0 95 -29t37 -78v-21q0 -32 -23 -57q22 -24 22 -56v-25z
M482 710h99l-243 -710h-99zM766 180q30 -25 30 -64v-29q0 -43 -37.5 -69t-99.5 -26q-61 0 -99 26t-38 69v29q0 39 30 64q-26 23 -26 59v26q0 44 37 71.5t96 27.5t96 -27.5t37 -71.5v-26q0 -36 -26 -59zM614 237q0 -25 45 -25t45 25v26q0 27 -45 27t-45 -27v-26zM708 89v30
q0 28 -49 28t-49 -28v-30q0 -23 49 -23t49 23z" />
    <glyph glyph-name="fiveeighths" unicode="&#x215d;" horiz-adv-x="820" 
d="M287 451q0 -47 -34.5 -76t-90.5 -29t-90.5 29t-34.5 76v24h88v-31q0 -21 36 -21q38 0 38 21v42q0 19 -11 19h-142v205h226v-79h-138v-49h54q44 0 71.5 -28.5t27.5 -74.5v-28zM482 710h99l-243 -710h-99zM766 180q30 -25 30 -64v-29q0 -43 -37.5 -69t-99.5 -26
q-61 0 -99 26t-38 69v29q0 39 30 64q-26 23 -26 59v26q0 44 37 71.5t96 27.5t96 -27.5t37 -71.5v-26q0 -36 -26 -59zM614 237q0 -25 45 -25t45 25v26q0 27 -45 27t-45 -27v-26zM708 89v30q0 28 -49 28t-49 -28v-30q0 -23 49 -23t49 23z" />
    <glyph glyph-name="seveneighths" unicode="&#x215e;" horiz-adv-x="820" 
d="M308 710v-79l-140 -277h-96l139 277h-149v79h246zM482 710h99l-243 -710h-99zM766 180q30 -25 30 -64v-29q0 -43 -37.5 -69t-99.5 -26q-61 0 -99 26t-38 69v29q0 39 30 64q-26 23 -26 59v26q0 44 37 71.5t96 27.5t96 -27.5t37 -71.5v-26q0 -36 -26 -59zM614 237
q0 -25 45 -25t45 25v26q0 27 -45 27t-45 -27v-26zM708 89v30q0 28 -49 28t-49 -28v-30q0 -23 49 -23t49 23z" />
    <glyph glyph-name="arrowleft" unicode="&#x2190;" horiz-adv-x="767" 
d="M724 417v-155h-390l194 -196h-214l-268 272v3l268 272h214l-194 -196h390z" />
    <glyph glyph-name="arrowup" unicode="&#x2191;" horiz-adv-x="636" 
d="M593 451v-213l-197 194v-432h-155v430l-196 -192v213l272 269h3z" />
    <glyph glyph-name="arrowright" unicode="&#x2192;" horiz-adv-x="767" 
d="M455 613l268 -272v-3l-268 -272h-214l194 196h-390v155h390l-194 196h214z" />
    <glyph glyph-name="arrowdown" unicode="&#x2193;" horiz-adv-x="636" 
d="M396 288l197 194v-213l-273 -269h-3l-272 269v213l196 -192v430h155v-432z" />
    <glyph glyph-name="arrowboth" unicode="&#x2194;" horiz-adv-x="1224" 
d="M911 613l269 -272v-3l-269 -272h-213l194 196h-559l194 -196h-213l-269 272v3l269 272h213l-193 -196h557l-193 196h213z" />
    <glyph glyph-name="arrowupdn" unicode="&#x2195;" horiz-adv-x="636" 
d="M593 420l-196 194v-559l196 194v-213l-272 -269h-3l-272 269v213l196 -193v557l-196 -193v213l272 269h3l272 -269v-213z" />
    <glyph glyph-name="uni2196" unicode="&#x2196;" horiz-adv-x="667" 
d="M624 157l-110 -110l-304 304l-2 -274l-151 151l2 382l2 2l383 3l151 -150l-277 -2z" />
    <glyph glyph-name="uni2197" unicode="&#x2197;" horiz-adv-x="666" 
d="M613 234l-150 -151l-2 277l-306 -306l-110 110l304 304l-274 2l151 151l382 -2l2 -2z" />
    <glyph glyph-name="uni2198" unicode="&#x2198;" horiz-adv-x="666" 
d="M463 633l150 -151l-3 -383l-2 -2l-382 -2l-151 151l274 2l-304 304l110 110l306 -306z" />
    <glyph glyph-name="uni2199" unicode="&#x2199;" horiz-adv-x="667" 
d="M624 564l-306 -306l277 -2l-151 -150l-383 3l-2 2l-2 382l151 151l2 -274l304 304z" />
    <glyph glyph-name="uni2206" unicode="&#x2206;" horiz-adv-x="620" 
d="M422 710l171 -570v-140h-566v140l171 570h224zM310 549l-126 -409h253z" />
    <glyph glyph-name="product" unicode="&#x220f;" horiz-adv-x="812" 
d="M783 710v-140h-104v-680h-155v680h-236v-680h-155v680h-104v140h754z" />
    <glyph glyph-name="summation" unicode="&#x2211;" horiz-adv-x="590" 
d="M566 710v-140h-361l190 -224v-92l-190 -224h361v-140h-540v140l229 270l-229 270v140h540z" />
    <glyph glyph-name="minus" unicode="&#x2212;" horiz-adv-x="513" 
d="M42 295v140h429v-140h-429z" />
    <glyph glyph-name="uni2215" unicode="&#x2215;" horiz-adv-x="668" 
d="M0 0l538 710h130l-538 -710h-130z" />
    <glyph glyph-name="infinity" unicode="&#x221e;" horiz-adv-x="710" 
d="M513 523q74 0 118.5 -45t44.5 -122v-40q0 -77 -44 -122t-116 -45q-54 0 -91.5 25.5t-73.5 73.5q-35 -49 -69.5 -74t-87.5 -25q-72 0 -116 45t-44 122v40q0 77 45 122t117 45q87 0 155 -81q71 81 162 81zM217 280q27 0 66 63q-37 49 -65 49q-18 0 -28 -13t-10 -33v-20
q0 -20 10 -33t27 -13zM530 326v20q0 20 -10.5 33t-29.5 13q-30 0 -70 -47q42 -65 71 -65q18 0 28.5 13t10.5 33z" />
    <glyph glyph-name="integral" unicode="&#x222b;" horiz-adv-x="364" 
d="M328 770h74v-135h-45q-39 0 -56.5 -23t-21.5 -73l-44 -546q-8 -103 -55.5 -153t-143.5 -50h-75v135h46q38 0 56 23t22 73l44 546q8 103 55 153t144 50z" />
    <glyph glyph-name="approxequal" unicode="&#x2248;" horiz-adv-x="524" 
d="M173 556q32 0 91 -23q37 -16 54 -16q18 0 26 9t8 30h130q0 -175 -135 -175q-38 0 -95 24q-34 14 -46 14q-34 0 -34 -43h-130q0 180 131 180zM173 359q32 0 91 -23q37 -16 54 -16q18 0 26 9t8 30h130q0 -175 -135 -175q-38 0 -95 24q-34 14 -46 14q-34 0 -34 -43h-130
q0 180 131 180z" />
    <glyph glyph-name="notequal" unicode="&#x2260;" horiz-adv-x="516" 
d="M467 415h-115l-32 -100h147v-140h-193l-39 -121h-146l39 121h-90v140h136l33 100h-169v140h215l39 121h145l-39 -121h69v-140z" />
    <glyph glyph-name="lessequal" unicode="&#x2264;" horiz-adv-x="513" 
d="M460 273l-81 -107l-332 229l332 229l82 -107l-171 -123zM42 140h429v-140h-429v140z" />
    <glyph glyph-name="greaterequal" unicode="&#x2265;" horiz-adv-x="513" 
d="M53 273l170 121l-171 123l82 107l332 -229l-332 -229zM42 140h429v-140h-429v140z" />
    <glyph glyph-name="Iacute_J.loclNLD" horiz-adv-x="637" 
d="M352 910l-142 -155h-160l115 155h187zM734 910l-142 -155h-160l115 155h187zM50 0v710h155v-710h-155zM273 0v140h66q93 0 93 117v453h155v-453q0 -113 -69.5 -185t-187.5 -72h-57z" />
    <glyph glyph-name="eth.bold" horiz-adv-x="551" 
d="M515 709l-73 -67q60 -95 60 -239v-184q0 -108 -62 -171t-171 -63t-171 59.5t-62 161.5v103q0 107 49.5 160.5t140.5 55.5l-51 46l66 60q-45 18 -109 18v136q131 0 218 -53l69 63zM344 501q-5 23 -12 40l-27 -25q26 -7 39 -15zM352 221v87q0 40 -22 60.5t-61 20.5
t-61 -21.5t-22 -62.5v-97q0 -88 83 -88t83 101z" />
    <glyph glyph-name="iacute_j.loclNLD" horiz-adv-x="533" 
d="M328 734l-130 -179h-142l103 179h169zM602 734l-130 -179h-142l103 179h169zM54 0v510h150v-510h-150zM228 -230v135h22q50 0 64 22.5t14 71.5v511h150v-550q0 -100 -53 -145t-132 -45h-65z" />
    <glyph glyph-name="uni0414.loclBGR" horiz-adv-x="755" 
d="M647 140h95v-275h-155v135h-419v-135h-155v275h95l159 570h221zM272 140h212l-106 386z" />
    <glyph glyph-name="uni041B.loclBGR" horiz-adv-x="645" 
d="M631 0h-164l-144 526l-144 -526h-165l198 710h221z" />
    <glyph glyph-name="uni0424.loclBGR" horiz-adv-x="886" 
d="M627 645q105 0 169 -56.5t64 -150.5v-143q0 -94 -63.5 -150.5t-168.5 -56.5h-107v-88h-155v88h-108q-105 0 -168 56.5t-63 150.5v143q0 94 63.5 150.5t168.5 56.5h107v65h155v-65h106zM249 228h117v277h-118q-31 0 -48.5 -16t-17.5 -44v-157q0 -28 18 -44t49 -16z
M705 288v157q0 28 -18 44t-49 16h-117v-277h116q31 0 49.5 16t18.5 44z" />
    <glyph glyph-name="uni04C5.loclBGR" horiz-adv-x="694" 
d="M592 140h89l-35 -275h-155l17 135h-41l-144 526l-144 -526h-165l198 710h221z" />
    <glyph glyph-name="uni04E2.loclBGR" horiz-adv-x="650" 
d="M499 898v-122h-349v122h349zM456 710h144v-710h-144v447l-262 -447h-144v710h144v-446z" />
    <glyph glyph-name="uni04E4.loclBGR" horiz-adv-x="650" 
d="M289 897v-133h-136v133h136zM496 897v-133h-136v133h136zM456 710h144v-710h-144v447l-262 -447h-144v710h144v-446z" />
    <glyph glyph-name="uni0492.loclBSH" horiz-adv-x="527" 
d="M515 570h-310v-156h207v-140h-207v-274h-155v710h465v-140z" />
    <glyph glyph-name="uni04AA.loclCHU" horiz-adv-x="656" 
d="M614 434h-161v57q0 44 -32 69t-92 25q-64 0 -98.5 -25t-34.5 -69v-272q0 -44 34 -69t98 -25q60 0 92.5 25t32.5 69v57h161v-64q0 -93 -61.5 -152.5t-170.5 -71.5l-29 -149h-162l59 152q-99 17 -154 75.5t-55 145.5v286q0 104 77 165.5t210 61.5t209.5 -61.5t76.5 -165.5
v-64z" />
    <glyph glyph-name="uni0432.loclBGR" horiz-adv-x="538" 
d="M423 461q79 -55 79 -188v-67q0 -103 -62 -162t-171 -59t-171 59t-62 162v368q0 99 57.5 155t158.5 56q99 0 155.5 -53t56.5 -146v-5q0 -74 -41 -120zM252 647q-66 0 -66 -76v-77h53q36 0 55.5 17.5t19.5 49.5v22q0 64 -62 64zM352 207v65q0 87 -83 87h-83v-152
q0 -87 82 -87q84 0 84 87z" />
    <glyph glyph-name="uni0433.loclBGR" horiz-adv-x="474" 
d="M235 -15q-100 0 -157.5 45.5t-57.5 125.5q0 53 27.5 87.5t67 49t79 23t67 19t27.5 27.5q0 15 -16.5 25t-41.5 10t-39.5 -11t-14.5 -29v-10h-148v10q0 74 56 121t145 47q97 0 152 -46.5t55 -126.5q0 -43 -20 -74t-49.5 -45.5t-64.5 -25.5t-64.5 -16.5t-49.5 -16.5t-20 -27
t16.5 -25t44.5 -9q31 0 51 12.5t20 32.5v12h149v-12q0 -76 -59.5 -124.5t-154.5 -48.5z" />
    <glyph glyph-name="uni0434.loclBGR" horiz-adv-x="557" 
d="M406 510h99v-558q0 -91 -61.5 -144t-166.5 -53q-103 0 -164 50t-61 135h150q0 -23 20 -36.5t52 -13.5q37 0 59 17t22 47v60q-49 -29 -120 -29q-95 0 -147 53t-52 163v108q0 110 52 163t147 53q92 0 147 -49zM269 121q39 0 62.5 21t23.5 60v106q0 39 -23.5 60t-62.5 21
t-61 -21.5t-22 -62.5v-100q0 -41 22 -62.5t61 -21.5z" />
    <glyph glyph-name="uni0436.loclBGR" horiz-adv-x="849" 
d="M847 0h-177l-171 239v-239h-150v239l-170 -239h-177l191 269l-187 241h180l163 -211v471h150v-472l164 212h180l-187 -241z" />
    <glyph glyph-name="uni0437.loclBGR" horiz-adv-x="520" 
d="M416 161q68 -47 68 -142v-47q0 -98 -61 -157.5t-163 -59.5q-101 0 -162.5 58t-61.5 154v35h151v-39q0 -35 19.5 -54t53.5 -19q74 0 74 82v38q0 71 -68 71h-79v135h69q64 0 64 68v41q0 30 -16.5 47.5t-47.5 17.5q-30 0 -47 -17.5t-17 -49.5v-28h-150v32q0 90 59 144
t156 54q98 0 155.5 -55t57.5 -147v-40q0 -73 -54 -122z" />
    <glyph glyph-name="uni0438.loclBGR" horiz-adv-x="547" 
d="M344 510h150v-510h-95l-26 34q-52 -49 -135 -49q-89 0 -139.5 56t-50.5 173v296h150v-299q0 -44 19.5 -67t53.5 -23q29 0 51 21.5t22 59.5v308z" />
    <glyph glyph-name="uni0439.loclBGR" horiz-adv-x="547" 
d="M274 550q-73 0 -118.5 42.5t-45.5 109.5h93q0 -29 19.5 -45.5t51.5 -16.5t51.5 16.5t19.5 45.5h93q0 -67 -45.5 -109.5t-118.5 -42.5zM344 510h150v-510h-95l-26 34q-52 -49 -135 -49q-89 0 -139.5 56t-50.5 173v296h150v-299q0 -44 19.5 -67t53.5 -23q29 0 51 21.5
t22 59.5v308z" />
    <glyph glyph-name="uni048B.loclBGR" horiz-adv-x="578" 
d="M558 135l-34 -270h-150l17 137l-24 32q-52 -49 -135 -49q-89 0 -139.5 56t-50.5 173v296h150v-299q0 -44 19.5 -67t53.5 -23q29 0 51 21.5t22 59.5v308h150v-375h70z" />
    <glyph glyph-name="uni045D.loclBGR" horiz-adv-x="547" 
d="M346 555h-142l-130 179h170zM344 510h150v-510h-95l-26 34q-52 -49 -135 -49q-89 0 -139.5 56t-50.5 173v296h150v-299q0 -44 19.5 -67t53.5 -23q29 0 51 21.5t22 59.5v308z" />
    <glyph glyph-name="uni043A.loclBGR" horiz-adv-x="552" 
d="M551 0h-178l-170 239v-239h-150v770h150v-471l163 211h181l-187 -241z" />
    <glyph glyph-name="uni043B.loclBGR" horiz-adv-x="495" 
d="M488 0h-155l-81 351l-90 -351h-155l142 510h197z" />
    <glyph glyph-name="uni043F.loclBGR" horiz-adv-x="562" 
d="M322 525q91 0 142 -56t51 -173v-296h-150v299q0 43 -23 66.5t-57 23.5q-33 0 -57.5 -21.5t-24.5 -59.5v-308h-150v510h96l27 -36q57 51 146 51z" />
    <glyph glyph-name="uni0442.loclBGR" horiz-adv-x="814" 
d="M579 525q187 0 187 -229v-296h-150v305q0 40 -19 62t-46 22t-47 -21.5t-20 -59.5v-5v-303h-150v305q0 40 -18.5 62t-46.5 22q-27 0 -46.5 -21.5t-19.5 -59.5v-308h-150v510h96l25 -33q51 48 123 48q99 0 145 -61q55 61 137 61z" />
    <glyph glyph-name="uni0444.loclBGR" horiz-adv-x="817" 
d="M568 510q102 0 157.5 -55.5t55.5 -160.5v-78q0 -105 -55.5 -160.5t-157.5 -55.5h-85v-230h-150v230h-84q-102 0 -157.5 55.5t-55.5 160.5v78q0 105 55.5 160.5t157.5 55.5h84v200h150v-200h85zM269 136h64v238h-64q-40 0 -61.5 -22t-21.5 -62v-70q0 -40 21.5 -62
t61.5 -22zM631 220v70q0 40 -22 62t-62 22h-64v-238h64q40 0 62 22t22 62z" />
    <glyph glyph-name="uni0446.loclBGR" horiz-adv-x="578" 
d="M494 135h64v-270h-150v135h-9l-26 34q-52 -49 -135 -49q-89 0 -139.5 56t-50.5 173v296h150v-299q0 -44 19.5 -67t53.5 -23q29 0 51 21.5t22 59.5v308h150v-375z" />
    <glyph glyph-name="uni0448.loclBGR" horiz-adv-x="814" 
d="M611 510h150v-510h-96l-25 33q-51 -48 -123 -48q-98 0 -146 61q-54 -61 -136 -61q-187 0 -187 229v296h150v-305q0 -40 18.5 -62t46.5 -22q27 0 46.5 21.5t19.5 59.5v5v303h150v-305q0 -40 19 -62t46 -22t47 21.5t20 59.5v308z" />
    <glyph glyph-name="uni0449.loclBGR" horiz-adv-x="845" 
d="M761 135h63v-270h-150v135h-9l-25 33q-51 -48 -123 -48q-98 0 -146 61q-54 -61 -136 -61q-187 0 -187 229v296h150v-305q0 -40 18.5 -62t46.5 -22q27 0 46.5 21.5t19.5 59.5v5v303h150v-305q0 -40 19 -62t46 -22t47 21.5t20 59.5v308h150v-375z" />
    <glyph glyph-name="uni044C.loclBGR" horiz-adv-x="513" 
d="M310 354q85 0 131.5 -43t46.5 -122v-24q0 -79 -49 -122t-139 -43h-61q-90 0 -138 42.5t-48 122.5v345h150v-166q29 10 70 10h37zM338 172v10q0 37 -43 37h-50q-23 0 -42 -10v-37q0 -37 43 -37h49q43 0 43 37z" />
    <glyph glyph-name="uni044A.loclBGR" horiz-adv-x="552" 
d="M349 354q85 0 131.5 -43t46.5 -122v-24q0 -79 -49 -122t-138 -43h-62q-90 0 -138 42.5t-48 122.5v210h-82v135h232v-166q29 10 70 10h37zM377 172v10q0 37 -43 37h-49q-24 0 -43 -10v-37q0 -37 43 -37h50q42 0 42 37z" />
    <glyph glyph-name="uni044B.loclBGR" horiz-adv-x="739" 
d="M310 354q85 0 131.5 -43t46.5 -122v-24q0 -79 -49 -122t-139 -43h-61q-90 0 -138 42.5t-48 122.5v345h150v-166q29 10 70 10h37zM535 510h150v-510h-150v510zM338 172v10q0 37 -43 37h-50q-23 0 -42 -10v-37q0 -37 43 -37h49q43 0 43 37z" />
    <glyph glyph-name="uni04C6.loclBGR" horiz-adv-x="583" 
d="M562 135l-34 -270h-150l17 135h-63l-81 351l-90 -351h-155l142 510h197l104 -375h113z" />
    <glyph glyph-name="uni0493.loclBSH" horiz-adv-x="427" 
d="M406 375h-203v-88h139v-122h-139v-165h-150v510h353v-135z" />
    <glyph glyph-name="uni04AB.loclCHU" horiz-adv-x="523" 
d="M487 298h-151v19q0 34 -19.5 53.5t-51.5 19.5q-79 0 -79 -87v-96q0 -87 79 -87q32 0 51.5 19.5t19.5 53.5v19h151v-15q0 -83 -46 -138.5t-125 -69.5l-29 -150h-162l61 156q-71 20 -110.5 75t-39.5 136v98q0 102 61 161.5t167 59.5q101 0 162 -58t61 -154v-15z" />
    <glyph glyph-name="uni0431.loclMKD" horiz-adv-x="538" 
d="M274 525q109 0 168.5 -57t59.5 -164v-98q0 -102 -62 -161.5t-171 -59.5t-171 59.5t-62 161.5v98q0 100 56 156q-38 49 -38 126q0 86 51 135t139 49h208v-135h-191q-57 0 -57 -56q0 -32 18.5 -43t51.5 -11zM352 207v96q0 87 -83 87t-83 -87v-96q0 -87 82 -87q84 0 84 87z
" />
    <glyph glyph-name="uni0431.loclSRB" horiz-adv-x="538" 
d="M274 525q109 0 168.5 -57t59.5 -164v-98q0 -102 -62 -161.5t-171 -59.5t-171 59.5t-62 161.5v98q0 100 56 156q-38 49 -38 126q0 86 51 135t139 49h208v-135h-191q-57 0 -57 -56q0 -32 18.5 -43t51.5 -11zM352 207v96q0 87 -83 87t-83 -87v-96q0 -87 82 -87q84 0 84 87z
" />
    <glyph glyph-name="zero.subs" 
d="M163 -88q-62 0 -100.5 31.5t-38.5 82.5v144q0 51 38.5 82.5t100.5 31.5t100.5 -31.5t38.5 -82.5v-144q0 -51 -38.5 -82.5t-100.5 -31.5zM163 -9q24 0 37.5 10.5t13.5 27.5v138q0 17 -13.5 27t-37.5 10t-37.5 -10t-13.5 -27v-138q0 -17 13.5 -27.5t37.5 -10.5z" />
    <glyph glyph-name="one.subs" 
d="M204 -1h59v-79h-207v79h60v198h-60v79h148v-277z" />
    <glyph glyph-name="two.subs" 
d="M292 164q0 -33 -25.5 -63t-56.5 -46.5t-56.5 -32t-25.5 -23.5h160v-79h-256v79q0 26 27 52.5t59 43.5t59 37.5t27 36.5v10q0 25 -38 25q-40 0 -40 -34v-15h-88v11q0 53 35.5 85.5t93.5 32.5q55 0 90 -28.5t35 -75.5v-16z" />
    <glyph glyph-name="three.subs" 
d="M296 177v-21q0 -32 -23 -57q22 -24 22 -56v-25q0 -49 -36.5 -77.5t-94.5 -28.5q-60 0 -97 30.5t-37 79.5v12h88v-17q0 -26 47 -26q42 0 42 23v30q0 17 -36 17h-61v77h61q37 0 37 18v25q0 23 -42 23q-48 0 -48 -25v-20h-88v15q0 49 37 79.5t97 30.5q58 0 95 -29t37 -78z
" />
    <glyph glyph-name="four.subs" 
d="M197 152h88v-232h-88v73h-160v79l82 204h96l-81 -204h63v80z" />
    <glyph glyph-name="five.subs" 
d="M188 148q44 0 71.5 -28.5t27.5 -74.5v-28q0 -47 -34.5 -76t-90.5 -29t-90.5 29t-34.5 76v24h88v-31q0 -21 36 -21q38 0 38 21v42q0 19 -11 19h-142v205h226v-79h-138v-49h54z" />
    <glyph glyph-name="six.subs" 
d="M180 152q47 0 81 -26t34 -70v-40q0 -46 -38 -75t-94 -29q-58 0 -95.5 30.5t-37.5 80.5v146q0 53 37.5 84t94.5 31t94.5 -31t37.5 -84h-87q0 18 -12.5 28t-32.5 10q-44 0 -44 -37v-33q27 15 62 15zM207 17v42q0 9 -12.5 15t-31.5 6q-43 0 -45 -26v-38q0 -27 45 -27
q19 0 31.5 7.5t12.5 20.5z" />
    <glyph glyph-name="seven.subs" 
d="M62 276h246v-79l-140 -277h-96l139 277h-149v79z" />
    <glyph glyph-name="eight.subs" 
d="M270 100q30 -25 30 -64v-29q0 -43 -37.5 -69t-99.5 -26q-61 0 -99 26t-38 69v29q0 39 30 64q-26 23 -26 59v26q0 44 37 71.5t96 27.5t96 -27.5t37 -71.5v-26q0 -36 -26 -59zM118 157q0 -25 45 -25t45 25v26q0 27 -45 27t-45 -27v-26zM212 9v30q0 28 -49 28t-49 -28v-30
q0 -23 49 -23t49 23z" />
    <glyph glyph-name="nine.subs" 
d="M162 284q57 0 95 -31t38 -79v-147q0 -53 -37.5 -84t-94.5 -31t-94.5 31t-37.5 83h87q0 -17 12.5 -27t31.5 -10q45 0 45 37v29q-29 -15 -63 -15q-46 0 -80 26t-34 70v44q0 46 38 75t94 29zM161 112q44 0 46 26v43q0 12 -13 19t-32 7t-31.5 -7.5t-12.5 -20.5v-46
q0 -9 12.5 -15t30.5 -6z" />
    <glyph glyph-name="zero.dnom" 
d="M163 -8q-62 0 -100.5 31.5t-38.5 82.5v144q0 51 38.5 82.5t100.5 31.5t100.5 -31.5t38.5 -82.5v-144q0 -51 -38.5 -82.5t-100.5 -31.5zM163 71q24 0 37.5 10.5t13.5 27.5v138q0 17 -13.5 27t-37.5 10t-37.5 -10t-13.5 -27v-138q0 -17 13.5 -27.5t37.5 -10.5z" />
    <glyph glyph-name="one.dnom" 
d="M204 79h59v-79h-207v79h60v198h-60v79h148v-277z" />
    <glyph glyph-name="two.dnom" 
d="M292 244q0 -33 -25.5 -63t-56.5 -46.5t-56.5 -32t-25.5 -23.5h160v-79h-256v79q0 26 27 52.5t59 43.5t59 37.5t27 36.5v10q0 25 -38 25q-40 0 -40 -34v-15h-88v11q0 53 35.5 85.5t93.5 32.5q55 0 90 -28.5t35 -75.5v-16z" />
    <glyph glyph-name="three.dnom" 
d="M296 257v-21q0 -32 -23 -57q22 -24 22 -56v-25q0 -49 -36.5 -77.5t-94.5 -28.5q-60 0 -97 30.5t-37 79.5v12h88v-17q0 -26 47 -26q42 0 42 23v30q0 17 -36 17h-61v77h61q37 0 37 18v25q0 23 -42 23q-48 0 -48 -25v-20h-88v15q0 49 37 79.5t97 30.5q58 0 95 -29t37 -78z
" />
    <glyph glyph-name="four.dnom" 
d="M197 232h88v-232h-88v73h-160v79l82 204h96l-81 -204h63v80z" />
    <glyph glyph-name="five.dnom" 
d="M188 228q44 0 71.5 -28.5t27.5 -74.5v-28q0 -47 -34.5 -76t-90.5 -29t-90.5 29t-34.5 76v24h88v-31q0 -21 36 -21q38 0 38 21v42q0 19 -11 19h-142v205h226v-79h-138v-49h54z" />
    <glyph glyph-name="six.dnom" 
d="M180 232q47 0 81 -26t34 -70v-40q0 -46 -38 -75t-94 -29q-58 0 -95.5 30.5t-37.5 80.5v146q0 53 37.5 84t94.5 31t94.5 -31t37.5 -84h-87q0 18 -12.5 28t-32.5 10q-44 0 -44 -37v-33q27 15 62 15zM207 97v42q0 9 -12.5 15t-31.5 6q-43 0 -45 -26v-38q0 -27 45 -27
q19 0 31.5 7.5t12.5 20.5z" />
    <glyph glyph-name="seven.dnom" 
d="M62 356h246v-79l-140 -277h-96l139 277h-149v79z" />
    <glyph glyph-name="eight.dnom" 
d="M270 180q30 -25 30 -64v-29q0 -43 -37.5 -69t-99.5 -26q-61 0 -99 26t-38 69v29q0 39 30 64q-26 23 -26 59v26q0 44 37 71.5t96 27.5t96 -27.5t37 -71.5v-26q0 -36 -26 -59zM118 237q0 -25 45 -25t45 25v26q0 27 -45 27t-45 -27v-26zM212 89v30q0 28 -49 28t-49 -28v-30
q0 -23 49 -23t49 23z" />
    <glyph glyph-name="nine.dnom" 
d="M162 364q57 0 95 -31t38 -79v-147q0 -53 -37.5 -84t-94.5 -31t-94.5 31t-37.5 83h87q0 -17 12.5 -27t31.5 -10q45 0 45 37v29q-29 -15 -63 -15q-46 0 -80 26t-34 70v44q0 46 38 75t94 29zM161 192q44 0 46 26v43q0 12 -13 19t-32 7t-31.5 -7.5t-12.5 -20.5v-46
q0 -9 12.5 -15t30.5 -6z" />
    <glyph glyph-name="zero.numr" 
d="M163 346q-62 0 -100.5 31.5t-38.5 82.5v144q0 51 38.5 82.5t100.5 31.5t100.5 -31.5t38.5 -82.5v-144q0 -51 -38.5 -82.5t-100.5 -31.5zM163 425q24 0 37.5 10.5t13.5 27.5v138q0 17 -13.5 27t-37.5 10t-37.5 -10t-13.5 -27v-138q0 -17 13.5 -27.5t37.5 -10.5z" />
    <glyph glyph-name="one.numr" 
d="M204 433h59v-79h-207v79h60v198h-60v79h148v-277z" />
    <glyph glyph-name="two.numr" 
d="M292 598q0 -33 -25.5 -63t-56.5 -46.5t-56.5 -32t-25.5 -23.5h160v-79h-256v79q0 26 27 52.5t59 43.5t59 37.5t27 36.5v10q0 25 -38 25q-40 0 -40 -34v-15h-88v11q0 53 35.5 85.5t93.5 32.5q55 0 90 -28.5t35 -75.5v-16z" />
    <glyph glyph-name="three.numr" 
d="M296 611v-21q0 -32 -23 -57q22 -24 22 -56v-25q0 -49 -36.5 -77.5t-94.5 -28.5q-60 0 -97 30.5t-37 79.5v12h88v-17q0 -26 47 -26q42 0 42 23v30q0 17 -36 17h-61v77h61q37 0 37 18v25q0 23 -42 23q-48 0 -48 -25v-20h-88v15q0 49 37 79.5t97 30.5q58 0 95 -29t37 -78z
" />
    <glyph glyph-name="four.numr" 
d="M197 586h88v-232h-88v73h-160v79l82 204h96l-81 -204h63v80z" />
    <glyph glyph-name="five.numr" 
d="M188 582q44 0 71.5 -28.5t27.5 -74.5v-28q0 -47 -34.5 -76t-90.5 -29t-90.5 29t-34.5 76v24h88v-31q0 -21 36 -21q38 0 38 21v42q0 19 -11 19h-142v205h226v-79h-138v-49h54z" />
    <glyph glyph-name="six.numr" 
d="M180 586q47 0 81 -26t34 -70v-40q0 -46 -38 -75t-94 -29q-58 0 -95.5 30.5t-37.5 80.5v146q0 53 37.5 84t94.5 31t94.5 -31t37.5 -84h-87q0 18 -12.5 28t-32.5 10q-44 0 -44 -37v-33q27 15 62 15zM207 451v42q0 9 -12.5 15t-31.5 6q-43 0 -45 -26v-38q0 -27 45 -27
q19 0 31.5 7.5t12.5 20.5z" />
    <glyph glyph-name="seven.numr" 
d="M62 710h246v-79l-140 -277h-96l139 277h-149v79z" />
    <glyph glyph-name="eight.numr" 
d="M270 534q30 -25 30 -64v-29q0 -43 -37.5 -69t-99.5 -26q-61 0 -99 26t-38 69v29q0 39 30 64q-26 23 -26 59v26q0 44 37 71.5t96 27.5t96 -27.5t37 -71.5v-26q0 -36 -26 -59zM118 591q0 -25 45 -25t45 25v26q0 27 -45 27t-45 -27v-26zM212 443v30q0 28 -49 28t-49 -28v-30
q0 -23 49 -23t49 23z" />
    <glyph glyph-name="nine.numr" 
d="M162 718q57 0 95 -31t38 -79v-147q0 -53 -37.5 -84t-94.5 -31t-94.5 31t-37.5 83h87q0 -17 12.5 -27t31.5 -10q45 0 45 37v29q-29 -15 -63 -15q-46 0 -80 26t-34 70v44q0 46 38 75t94 29zM161 546q44 0 46 26v43q0 12 -13 19t-32 7t-31.5 -7.5t-12.5 -20.5v-46
q0 -9 12.5 -15t30.5 -6z" />
    <glyph glyph-name="zero.sups" 
d="M163 406q-62 0 -100.5 31.5t-38.5 82.5v144q0 51 38.5 82.5t100.5 31.5t100.5 -31.5t38.5 -82.5v-144q0 -51 -38.5 -82.5t-100.5 -31.5zM163 485q24 0 37.5 10.5t13.5 27.5v138q0 17 -13.5 27t-37.5 10t-37.5 -10t-13.5 -27v-138q0 -17 13.5 -27.5t37.5 -10.5z" />
    <glyph glyph-name="one.sups" 
d="M204 493h59v-79h-207v79h60v198h-60v79h148v-277z" />
    <glyph glyph-name="two.sups" 
d="M292 658q0 -33 -25.5 -63t-56.5 -46.5t-56.5 -32t-25.5 -23.5h160v-79h-256v79q0 26 27 52.5t59 43.5t59 37.5t27 36.5v10q0 25 -38 25q-40 0 -40 -34v-15h-88v11q0 53 35.5 85.5t93.5 32.5q55 0 90 -28.5t35 -75.5v-16z" />
    <glyph glyph-name="three.sups" 
d="M296 671v-21q0 -32 -23 -57q22 -24 22 -56v-25q0 -49 -36.5 -77.5t-94.5 -28.5q-60 0 -97 30.5t-37 79.5v12h88v-17q0 -26 47 -26q42 0 42 23v30q0 17 -36 17h-61v77h61q37 0 37 18v25q0 23 -42 23q-48 0 -48 -25v-20h-88v15q0 49 37 79.5t97 30.5q58 0 95 -29t37 -78z
" />
    <glyph glyph-name="four.sups" 
d="M197 646h88v-232h-88v73h-160v79l82 204h96l-81 -204h63v80z" />
    <glyph glyph-name="five.sups" 
d="M188 642q44 0 71.5 -28.5t27.5 -74.5v-28q0 -47 -34.5 -76t-90.5 -29t-90.5 29t-34.5 76v24h88v-31q0 -21 36 -21q38 0 38 21v42q0 19 -11 19h-142v205h226v-79h-138v-49h54z" />
    <glyph glyph-name="six.sups" 
d="M180 646q47 0 81 -26t34 -70v-40q0 -46 -38 -75t-94 -29q-58 0 -95.5 30.5t-37.5 80.5v146q0 53 37.5 84t94.5 31t94.5 -31t37.5 -84h-87q0 18 -12.5 28t-32.5 10q-44 0 -44 -37v-33q27 15 62 15zM207 511v42q0 9 -12.5 15t-31.5 6q-43 0 -45 -26v-38q0 -27 45 -27
q19 0 31.5 7.5t12.5 20.5z" />
    <glyph glyph-name="seven.sups" 
d="M62 770h246v-79l-140 -277h-96l139 277h-149v79z" />
    <glyph glyph-name="eight.sups" 
d="M270 594q30 -25 30 -64v-29q0 -43 -37.5 -69t-99.5 -26q-61 0 -99 26t-38 69v29q0 39 30 64q-26 23 -26 59v26q0 44 37 71.5t96 27.5t96 -27.5t37 -71.5v-26q0 -36 -26 -59zM118 651q0 -25 45 -25t45 25v26q0 27 -45 27t-45 -27v-26zM212 503v30q0 28 -49 28t-49 -28v-30
q0 -23 49 -23t49 23z" />
    <glyph glyph-name="nine.sups" 
d="M162 778q57 0 95 -31t38 -79v-147q0 -53 -37.5 -84t-94.5 -31t-94.5 31t-37.5 83h87q0 -17 12.5 -27t31.5 -10q45 0 45 37v29q-29 -15 -63 -15q-46 0 -80 26t-34 70v44q0 46 38 75t94 29zM161 606q44 0 46 26v43q0 12 -13 19t-32 7t-31.5 -7.5t-12.5 -20.5v-46
q0 -9 12.5 -15t30.5 -6z" />
    <glyph glyph-name="exclamdown.case" horiz-adv-x="282" 
d="M216 710v-146h-150v146h150zM64 0v250l20 237h115l20 -235v-252h-155z" />
    <glyph glyph-name="questiondown.case" horiz-adv-x="632" 
d="M404 710v-146h-150v146h150zM404 487v-43q0 -45 -15 -79t-37.5 -51.5t-48.5 -33t-48.5 -25t-37.5 -26.5t-15 -39q0 -32 29.5 -48.5t79.5 -16.5q66 0 99.5 26.5t33.5 73.5v28h150v-30q0 -107 -74.5 -172.5t-201.5 -65.5q-132 0 -201.5 56.5t-69.5 151.5q0 57 21.5 95.5
t51.5 57t60.5 33t52 36t21.5 54.5v18h150z" />
    <glyph glyph-name="braceleft.case" horiz-adv-x="333" 
d="M230 486q0 -88 -58 -133q58 -45 58 -133v-160q0 -40 38 -40h55v-135h-61q-83 0 -132.5 50.5t-49.5 136.5v160q0 25 -13 39t-30 14h-22v136h22q17 0 30 14t13 39v159q0 86 49.5 136.5t132.5 50.5h61v-135h-55q-38 0 -38 -40v-159z" />
    <glyph glyph-name="braceright.case" horiz-adv-x="333" 
d="M296 421h22v-136h-22q-18 0 -30.5 -13.5t-12.5 -39.5v-160q0 -86 -49.5 -136.5t-132.5 -50.5h-62v135h56q38 0 38 40v160q0 88 58 133q-58 45 -58 133v159q0 40 -38 40h-56v135h62q83 0 132.5 -50.5t49.5 -136.5v-159q0 -26 12.5 -39.5t30.5 -13.5z" />
    <glyph glyph-name="bracketleft.case" horiz-adv-x="320" 
d="M302 685h-92v-665h92v-135h-242v935h242v-135z" />
    <glyph glyph-name="bracketright.case" horiz-adv-x="320" 
d="M260 823v-935h-243v135h93v665h-93v135h243z" />
    <glyph glyph-name="parenleft.case" horiz-adv-x="320" 
d="M300 -115q-112 0 -176 59.5t-64 161.5v493q0 102 63.5 161.5t176.5 59.5v-135q-90 0 -90 -87v-491q0 -87 90 -87v-135z" />
    <glyph glyph-name="parenright.case" horiz-adv-x="320" 
d="M19 -115v135q90 0 90 87v491q0 87 -90 87v135q113 0 176.5 -59.5t63.5 -161.5v-493q0 -102 -63.5 -161.5t-176.5 -59.5z" />
    <glyph glyph-name="emdash.case" horiz-adv-x="581" 
d="M39 259v127h503v-127h-503z" />
    <glyph glyph-name="endash.case" horiz-adv-x="424" 
d="M39 259v127h346v-127h-346z" />
    <glyph glyph-name="hyphen.case" horiz-adv-x="334" 
d="M39 260v130h256v-130h-256z" />
    <glyph glyph-name="uni00AD.case" horiz-adv-x="334" 
d="M39 260v130h256v-130h-256z" />
    <glyph glyph-name="guillemotleft.case" horiz-adv-x="595" 
d="M59 259v150l231 168v-150l-129 -92l129 -94v-150zM531 577v-150l-129 -92l129 -94v-150l-231 168v150z" />
    <glyph glyph-name="guillemotright.case" horiz-adv-x="595" 
d="M64 427v150l231 -168v-150l-231 -168v150l129 94zM305 577l231 -168v-150l-231 -168v150l129 94l-129 92v150z" />
    <glyph glyph-name="guilsinglleft.case" horiz-adv-x="354" 
d="M290 577v-150l-129 -92l129 -94v-150l-231 168v150z" />
    <glyph glyph-name="guilsinglright.case" horiz-adv-x="354" 
d="M64 577l231 -168v-150l-231 -168v150l129 94l-129 92v150z" />
    <glyph glyph-name="uni030C.calt" horiz-adv-x="0" 
d="M-104 725l-38 -215h-134l29 215h143z" />
    <glyph glyph-name="uni0308.case" horiz-adv-x="0" 
d="M-373 564v133h136v-133h-136zM-166 564v133h136v-133h-136z" />
    <glyph glyph-name="uni0307.case" horiz-adv-x="0" 
d="M-188 564v146h150v-146h-150z" />
    <glyph glyph-name="gravecomb.case" horiz-adv-x="0" 
d="M-329 710h187l115 -155h-160z" />
    <glyph glyph-name="acutecomb.case" horiz-adv-x="0" 
d="M-32 710l-142 -155h-160l115 155h187z" />
    <glyph glyph-name="uni030B.case" horiz-adv-x="0" 
d="M-289 686l-95 -131h-131l87 131h139zM-77 686l-95 -131h-131l87 131h139z" />
    <glyph glyph-name="uni0302.case" horiz-adv-x="0" 
d="M-19 556h-169l-47 43l-46 -43h-169l141 127h149z" />
    <glyph glyph-name="uni030C.case" horiz-adv-x="0" 
d="M-202 682h169l-141 -127h-149l-141 127h169l47 -43z" />
    <glyph glyph-name="uni0306.case" horiz-adv-x="0" 
d="M-205 550q-73 0 -118.5 42.5t-45.5 109.5h93q0 -29 19.5 -45.5t51.5 -16.5t51.5 16.5t19.5 45.5h93q0 -67 -45.5 -109.5t-118.5 -42.5z" />
    <glyph glyph-name="uni030A.case" horiz-adv-x="0" 
d="M-170 802q59 0 96.5 -35t37.5 -91t-37.5 -91t-96.5 -35t-96 35t-37 91q0 55 37 90.5t96 35.5zM-170 712q-19 0 -30.5 -10t-11.5 -26t11.5 -26t30.5 -10q20 0 31.5 10t11.5 26t-12 26t-31 10z" />
    <glyph glyph-name="tildecomb.case" horiz-adv-x="0" 
d="M-26 705q0 -81 -26 -115.5t-79 -34.5q-36 0 -78 21.5t-55 21.5q-29 0 -29 -43h-107q0 72 22.5 111t81.5 39q34 0 77 -21t56 -21q30 0 30 42h107z" />
    <glyph glyph-name="uni0304.case" horiz-adv-x="0" 
d="M-30 698v-122h-349v122h349z" />
    <glyph glyph-name="uni0327.case" horiz-adv-x="0" 
d="M-257 -161l74 191h125l-37 -191h-162z" />
    <glyph glyph-name="uni0328.case" horiz-adv-x="0" 
d="M-12 -221q-35 -7 -67 -7q-78 0 -114.5 23.5t-36.5 87.5q0 43 35.5 84.5t108.5 72.5l79 -40q-32 -17 -50 -40.5t-18 -44.5q0 -38 41 -38q14 0 22 1v-99z" />
    <glyph glyph-name="uni0338.case" horiz-adv-x="0" 
d="M-159 786l122 -64l-401 -812l-122 65z" />
    <glyph glyph-name="brevecombcy" horiz-adv-x="0" 
d="M-206 550q-73 0 -118.5 42.5t-45.5 109.5h93q0 -29 19.5 -45.5t51.5 -16.5t51.5 16.5t19.5 45.5h93q0 -67 -45.5 -109.5t-118.5 -42.5z" />
    <glyph glyph-name="__periodcentered" horiz-adv-x="131" 
d="M26 268v146h150v-146h-150z" />
    <glyph glyph-name="__caroncomb.calt" horiz-adv-x="101" 
d="M210 770l-38 -215h-134l29 215h143z" />
    <glyph glyph-name="Mars" horiz-adv-x="618" 
d="M309 -10q-121 0 -200 78t-79 201t79 201t200 78t200 -78t79 -201t-79 -201t-200 -78zM309 21q107 0 174.5 69.5t67.5 178.5t-67.5 178.5t-174.5 69.5t-174.5 -69.5t-67.5 -178.5t67.5 -178.5t174.5 -69.5zM392 339q-28 0 -47 18.5t-19 47.5t19 47.5t47 18.5t47 -18.5
t19 -47.5t-19 -47.5t-47 -18.5zM392 362q19 0 31 12t12 31t-12 31t-31 12t-31 -12t-12 -31t12 -31t31 -12zM204 218q-44 0 -72.5 27t-28.5 68t28.5 67.5t72.5 26.5q45 0 74 -26.5t29 -67.5t-29 -68t-74 -27zM204 241q35 0 57.5 20.5t22.5 51.5t-22.5 51t-57.5 20
q-34 0 -56 -20t-22 -51t22 -51.5t56 -20.5zM427 81q-28 0 -46.5 19.5t-18.5 48.5t18.5 48.5t46.5 19.5t46.5 -19.5t18.5 -48.5t-18.5 -48.5t-46.5 -19.5zM427 104q18 0 30 13t12 32t-12 32t-30 13t-30 -13t-12 -32t12 -32t30 -13zM226 84q-20 0 -33.5 13.5t-13.5 33.5
t13.5 33t33.5 13t33.5 -13t13.5 -33t-13.5 -33.5t-33.5 -13.5zM226 107q10 0 17 6.5t7 17.5q0 10 -7 16.5t-17 6.5t-17 -6.5t-7 -16.5q0 -11 7 -17.5t17 -6.5z" />
    <glyph glyph-name="Neptune" horiz-adv-x="618" 
d="M309 548q121 0 200 -78t79 -201t-79 -201t-200 -78t-200 78t-79 201t79 201t200 78zM515 406q-31 52 -84.5 81.5t-121.5 29.5q-103 0 -171 -66q16 -3 50 1t49 4q71 0 120 -69q32 -45 66 -45q43 0 92 64zM118 429q-35 -45 -47 -108q27 -10 79.5 -35.5t95 -40.5t79.5 -15
q52 0 131 39.5t92 42.5q-6 39 -21 72q-57 -65 -106 -65q-44 0 -83 54q-23 31 -44.5 44.5t-55.5 13.5q-14 0 -39 -3t-39 -3.5t-42 4.5zM551 269q0 14 -1 21q-16 -5 -54.5 -27t-82.5 -39t-87 -17q-41 0 -84 14t-98.5 41t-75.5 35q-1 -9 -1 -28q0 -33 6 -61q39 -7 82.5 -23
t58.5 -28q2 -2 17 -16t28 -25.5t34 -21.5t39 -10q30 0 67.5 28t73.5 56t62 28h7q9 33 9 73zM309 21q80 0 140 41t86 111h-2q-20 0 -54.5 -28t-74 -56t-74.5 -28q-14 0 -30 5t-28 12t-25.5 17t-20.5 17t-16.5 16t-10.5 10q-24 23 -119 45q23 -75 84.5 -118.5t144.5 -43.5z
" />
    <glyph glyph-name="Saturn" horiz-adv-x="876" 
d="M846 421q0 -98 -141 -215q-20 -98 -94.5 -157t-178.5 -59q-72 0 -127 27q-51 -10 -100 -10q-77 0 -126 28.5t-49 85.5q0 45 34 98.5t94 104.5q17 101 92 162.5t182 61.5q65 0 123 -25q62 12 115 12q78 0 127 -28.5t49 -85.5zM432 517q-100 0 -166.5 -61.5t-74.5 -160.5
q91 16 185 61q115 54 185 128q-58 33 -129 33zM516 112q135 66 221 153.5t86 154.5q0 48 -43 70.5t-108 22.5q-36 0 -84 -8l4 -2q9 1 27 1q65 0 104 -24t39 -72q0 -62 -74 -137t-188 -130q-140 -67 -258 -67q-63 0 -104.5 23t-41.5 71q0 55 58 121v2q-102 -96 -102 -169
q0 -47 42 -70t108 -23q142 0 314 83zM706 326q33 46 33 81q0 38 -33.5 57t-86.5 19h-1q72 -61 88 -157zM190 269q0 -31 6 -60q104 8 227 65q133 64 204 150q-24 30 -48 47q-70 -77 -193 -136q-102 -48 -196 -62v-4zM252 95q110 5 238 66q113 54 184 127q-4 65 -35 117
q-74 -89 -206 -151q-126 -60 -232 -66q17 -54 51 -93zM153 255q-36 -49 -36 -86q0 -61 89 -72q-49 67 -53 158zM432 21q79 0 138.5 40t86.5 108q-64 -46 -131 -78q-79 -39 -165 -61q33 -9 71 -9z" />
    <glyph glyph-name="Venus" horiz-adv-x="618" 
d="M309 548q121 0 200 -78t79 -201t-79 -201t-200 -78t-200 78t-79 201t79 201t200 78zM309 21q78 0 137 38.5t86 105.5l-150 -57l-8 22l167 63q10 34 10 76q0 65 -27 121l-263 -99l-7 22l259 97q-32 51 -85 79t-119 28q-77 0 -135.5 -38t-86.5 -103l244 91l8 -21l-262 -99
q-10 -40 -10 -78q0 -73 33 -133l272 102l8 -21l-267 -101q69 -95 196 -95z" />
    <glyph glyph-name="Uranus" horiz-adv-x="842" 
d="M812 390q0 -83 -118 -156q-11 -109 -88.5 -176.5t-188.5 -67.5q-142 0 -221 101q-9 -1 -27 -1q-139 0 -139 68q0 57 107 129q7 115 85.5 188t194.5 73q131 0 211 -90q47 3 88 2t68.5 -18.5t27.5 -51.5zM417 517q-107 0 -175 -69.5t-68 -178.5q0 -88 46 -153
q104 9 227 42.5t211 82.5q1 9 1 28q0 109 -67.5 178.5t-174.5 69.5zM696 265q92 61 92 127q0 56 -142 43q50 -70 50 -166v-4zM166 114h13q-39 62 -42 143q-82 -58 -82 -97q0 -46 111 -46zM417 20q91 0 155 52t81 139q-87 -45 -200 -76.5t-214 -40.5q68 -74 178 -74z" />
    <glyph glyph-name="Sun" horiz-adv-x="618" 
d="M309 548q121 0 200 -78t79 -201t-79 -201t-200 -78t-200 78t-79 201t79 201t200 78zM309 21q107 0 174.5 69.5t67.5 178.5t-67.5 178.5t-174.5 69.5t-174.5 -69.5t-67.5 -178.5t67.5 -178.5t174.5 -69.5zM310 104q70 0 115.5 46.5t45.5 118.5t-45.5 118.5t-115.5 46.5
q-71 0 -116.5 -46.5t-45.5 -118.5t45.5 -118.5t116.5 -46.5z" />
    <glyph glyph-name="Jupiter" horiz-adv-x="618" 
d="M309 548q121 0 200 -78t79 -201t-79 -201t-200 -78t-200 78t-79 201t79 201t200 78zM309 517q-83 0 -144 -43.5t-85 -116.5h161v-23h-167q-5 -21 -7 -51h484q-5 78 -43 135h-228v23h210q-68 76 -181 76zM309 21q86 0 148 46t84 124h-104v23h109q3 15 5 46h-484
q3 -106 70.5 -172.5t171.5 -66.5zM234 190q29 0 47.5 -15t18.5 -37t-18.5 -36.5t-47.5 -14.5t-48 14.5t-19 36.5q0 23 19 37.5t48 14.5zM234 112q14 0 23.5 7.5t9.5 18.5t-9.5 18.5t-23.5 7.5t-23.5 -7.5t-9.5 -18.5t9.5 -18.5t23.5 -7.5z" />
    <glyph glyph-name="Earth" horiz-adv-x="618" 
d="M309 548q121 0 200 -78t79 -201t-79 -201t-200 -78t-200 78t-79 201t79 201t200 78zM309 21q106 0 173 68t69 175q0 47 -34 47q-15 0 -36 -7.5t-36 -7.5q-11 0 -22.5 2t-22.5 4.5t-15 3.5q-15 -4 -15 -11q0 -12 21 -14q12 -2 18.5 -4.5t13.5 -13.5t7 -29q0 -50 -31.5 -97
t-82.5 -49q-33 9 -52.5 38t-19.5 71q0 12 -1 19.5t-5 15.5t-13 11.5t-24 2.5q-25 -4 -43.5 15t-18.5 47q0 17 7 31q7 15 62 15.5t105.5 2.5t50.5 21q0 17 -24 31t-47 14q-21 0 -34 -11t-22 -22t-21 -11q-11 0 -22 6.5t-11 12.5t17.5 12t17.5 10t-10.5 10.5t-10.5 8.5t34 9
t34 27q0 5 -0.5 12t-0.5 9.5t1 6.5t4 6.5t9 6.5q-95 -11 -153 -78.5t-58 -168.5q0 -75 33 -133q7 11 10 11q10 0 25 -23q14 -19 22 -19q3 0 10.5 2t13 2.5t17.5 -2.5q14 -3 23.5 -17.5t9.5 -31.5q0 -13 -8 -24q38 -13 86 -13z" />
    <glyph glyph-name="Mercury" horiz-adv-x="618" 
d="M309 548q121 0 200 -78t79 -201t-79 -201t-200 -78t-200 78t-79 201t79 201t200 78zM443 58q51 32 79.5 86.5t28.5 124.5q0 109 -67.5 178.5t-174.5 69.5q-128 0 -195 -94q23 -8 23 -33q0 -16 -10 -26t-26 -10q-11 0 -20 6q-14 -44 -14 -91q0 -109 67.5 -178.5
t174.5 -69.5q48 0 90 15q-28 7 -28 37q0 16 10.5 26.5t26.5 10.5t27 -10.5t11 -26.5q0 -9 -3 -15zM248 490q23 0 38.5 -15.5t15.5 -38.5t-15.5 -38.5t-38.5 -15.5t-38.5 15.5t-15.5 38.5t15.5 38.5t38.5 15.5zM248 405q14 0 22.5 8.5t8.5 22.5t-8.5 22.5t-22.5 8.5
t-22.5 -8.5t-8.5 -22.5t8.5 -22.5t22.5 -8.5zM370 462q16 0 27 -11t11 -27q0 -17 -11 -28.5t-27 -11.5q-17 0 -28 11.5t-11 28.5t11 27.5t28 10.5zM370 407q15 0 15 17q0 15 -15 15q-16 0 -16 -15q0 -17 16 -17zM101 402h-1q-6 -12 -9 -19q3 -6 10 -6q13 0 13 13
q0 12 -13 12zM473 305q-20 0 -33 13t-13 33t13 32.5t33 12.5q19 0 32 -13t13 -32q0 -20 -12.5 -33t-32.5 -13zM473 373q-22 0 -22 -22q0 -10 6 -16.5t16 -6.5t16 6.5t6 16.5q0 22 -22 22zM234 259q-20 0 -33.5 13t-13.5 33t13.5 33t33.5 13t33 -13t13 -33t-13 -33t-33 -13z
M234 328q-10 0 -16.5 -6.5t-6.5 -16.5t6.5 -16.5t16.5 -6.5t16.5 6.5t6.5 16.5t-6.5 16.5t-16.5 6.5zM347 269q20 0 33.5 -13t13.5 -33t-13.5 -33t-33.5 -13t-32.5 13t-12.5 33t12.5 33t32.5 13zM136 257q17 0 28.5 -11.5t11.5 -28.5t-11.5 -28.5t-28.5 -11.5t-28.5 11.5
t-11.5 28.5t11.5 28.5t28.5 11.5zM347 201q11 0 17.5 6t6.5 16t-7 16.5t-17 6.5t-16 -6.5t-6 -16.5q0 -22 22 -22zM136 201q17 0 17 16q0 17 -17 17t-17 -17q0 -16 17 -16zM474 234q16 0 26.5 -10.5t10.5 -26.5t-10.5 -26.5t-26.5 -10.5t-26.5 10.5t-10.5 26.5t10.5 26.5
t26.5 10.5zM474 183q14 0 14 14t-14 14t-14 -14t14 -14zM236 161q20 0 33.5 -13.5t13.5 -33.5t-13.5 -33.5t-33.5 -13.5t-33.5 13.5t-13.5 33.5t13.5 33.5t33.5 13.5zM236 90q10 0 17 7t7 17t-7 16.5t-17 6.5t-17 -6.5t-7 -16.5t7 -17t17 -7zM408 58q15 0 15 15q0 14 -15 14
q-14 0 -14 -14q0 -15 14 -15z" />
    <glyph glyph-name="Point" horiz-adv-x="459" 
d="M375 409q24 0 39 -16t15 -41v-162q0 -81 -59 -140.5t-141 -59.5q-83 0 -141 59.5t-58 142.5v175q0 28 15.5 42.5t40.5 14.5q9 0 23 -4q9 40 55 40q14 0 22 -4q8 44 55 44q13 0 22 -4v20q0 27 15.5 42t40.5 15q24 0 39 -16t15 -41v-107h2zM397 352q0 25 -22 25
q-25 0 -25 -25v-114q0 -28 -16 -47t-42 -19h-18q-27 0 -27 -35h-33q0 28 17 48t43 20h18q25 0 25 34v113q0 33 24 48h-1v116q0 24 -21 24q-24 0 -24 -24v-160q0 -27 -15 -42t-39 -15q-13 0 -25 5q-8 -44 -52 -44q-13 0 -26 5q-8 -42 -52 -42q-15 0 -24 4v-35
q0 -70 49 -119.5t118 -49.5q68 0 118 50t50 119v160zM217 443v-87q0 -25 24 -25q22 0 22 25v87q0 24 -22 24q-24 0 -24 -24zM140 403v-86q0 -25 24 -25q21 0 21 25v86q0 25 -21 25q-24 0 -24 -25zM86 392q-24 0 -24 -25v-87q0 -24 24 -24q21 0 21 24v87q0 25 -21 25z" />
    <glyph glyph-name="Stop" horiz-adv-x="459" 
d="M375 408q24 0 39 -16t15 -41v-161q-1 -82 -59.5 -141t-140.5 -59q-83 0 -141 59t-58 142v286q0 27 15.5 42t40.5 15q14 0 22 -4q9 43 56 43q16 0 27 -7q14 29 50 29q35 0 49 -30q11 7 29 7q24 0 39 -16t15 -41v-107h2zM397 351q0 25 -22 25q-25 0 -25 -25v-113
q0 -27 -16 -47t-42 -20h-18q-27 0 -27 -35h-33q0 29 16.5 48.5t43.5 19.5h18q25 0 25 34v113q0 33 24 48h-1v116q0 25 -21 25q-24 0 -24 -25v-151h-32v174q0 25 -23 25t-23 -25v-196h-32v174q0 25 -23 25q-22 0 -22 -25v-35v-4v-174h-33v174q0 24 -22 24t-22 -24v-286
q0 -70 48.5 -119.5t117.5 -49.5q68 0 118 50.5t50 118.5v160z" />
    <glyph glyph-name="Helmet" horiz-adv-x="636" 
d="M354 536q102 0 177 -72.5t75 -172.5v-163q0 -57 -74 -97.5t-177 -40.5t-178.5 40.5t-75.5 97.5v32h-37v274q-15 4 -24.5 16.5t-9.5 27.5q0 20 13 33t33 13t32.5 -13t12.5 -33q0 -15 -9.5 -27.5t-24.5 -16.5v-161h14v14q0 102 75 175.5t178 73.5zM353 390q70 0 129.5 -20
t92.5 -53q-13 81 -75.5 135t-145.5 54q-82 0 -144 -53t-76 -132q33 31 91.5 50t127.5 19zM53 478q0 -10 6.5 -16.5t16.5 -6.5t16 6.5t6 16.5t-6 16.5t-16 6.5t-16.5 -6.5t-6.5 -16.5zM577 253q0 42 -66 74.5t-158 32.5q-94 0 -158.5 -34t-64.5 -78v-52q0 -42 66 -75t159 -33
q94 0 158 34.5t64 78.5v52zM101 183v67h-14v-67h14zM577 131q-32 -33 -91.5 -53t-130.5 -20q-73 0 -132.5 20t-92.5 54v-4q0 -44 65.5 -76t159.5 -32t158 32t64 76v3z" />
    <glyph glyph-name="Moon" horiz-adv-x="618" 
d="M309 548q121 0 200 -78t79 -201t-79 -201t-200 -78t-200 78t-79 201t79 201t200 78zM309 21q107 0 174.5 69.5t67.5 178.5t-67.5 178.5t-174.5 69.5q-43 0 -81 -12q66 -26 108 -92.5t42 -143.5t-42.5 -143.5t-107.5 -92.5q38 -12 81 -12z" />
    <glyph glyph-name="Meteor" horiz-adv-x="566" 
d="M461 315q75 -34 75 -129q0 -68 -40 -108t-108 -40q-95 0 -128 74l-212 104l16 31l184 -91q-2 14 -2 24q0 57 29 95l-245 243l24 24l245 -243q37 29 95 29q16 0 24 -1l-90 183l30 15zM387 73q53 0 83.5 30.5t30.5 83.5q0 75 -61 99l-2 -1l-1 2q-18 7 -43 7q-42 0 -70 -20
l77 -77l-23 -24l-77 77q-20 -29 -20 -70q0 -24 8 -45q24 -62 98 -62z" />
    </font>
</defs>
</svg>
