<?xml version="1.0" encoding="utf-8"?>
<!-- Generator: Adobe Illustrator 21.1.0, SVG Export Plug-In . SVG Version: 6.00 Build 0)  -->
<svg version="1.1" id="Images" xmlns="http://www.w3.org/2000/svg" xmlns:xlink="http://www.w3.org/1999/xlink" x="0px" y="0px"
	 viewBox="0 0 2207.8 672.8" style="enable-background:new 0 0 2207.8 672.8;" xml:space="preserve">
<style type="text/css">
	.st0{opacity:0.1;}
	.st1{fill:none;stroke:#1E0E00;stroke-width:2;stroke-miterlimit:10;}
	.st2{fill:none;stroke:#1E0E00;stroke-miterlimit:10;}
</style>
<g class="st0">
	<path class="st1" d="M38.3,665.4c7.4-11.5,10.7-21.7,14.8-34.7c6.1-19.4,14.4-30.5,29.3-43.9c21.1-19,29.1-11.2,55.4-8.4
		c17.2,1.9,37.7,2.2,50.3-11.2c15.5-16.6,18.7-38.6,45-42.4c16.8-2.4,41.8,1.8,54.9-12.3c13.6-14.7,4-44.4-2.2-60.8
		c-13.3-34.9-33.8-71.5-29.6-109.8c2.2-20.4-1.3-38.2-1.3-57.8c0-20.3,19.5-39,31.3-54.1c24.1-30.8,40.8-74.2,82.8-79
		c20.9-2.4,34.1-4.4,41.5-25.8c7.7-22.1,8.6-37.7,33.5-47.9c18.4-7.5,39-9.5,57.8-15.7c20-6.6,40.1-12.1,60.7-16.7
		c77-17,149.5-23.1,228.2-22.7c28.6,0.1,95.4-12,117.3,11.7c10.6,11.4,2.8,33.9,4.2,48c2.4,25.1,19.7,32.8,40.4,19
		c18.3-12.2,31.7-32.3,49.4-43.4c16-10,42-14.1,60.3-18.5c38.5-9.2,80.3,9.1,118.5,15.1c40.1,6.3,78-4.4,118.5-1.8
		c38.4,2.5,77.1,6,115.6,1.4c78.6-9.4,157.9-14.8,236.9-17.5c39.1-1.3,76.7,2.8,115.6,5.8c40,3.2,78,5.3,116.8,16.4
		c39.1,11.2,77.5,38.3,107.5,65.2c13.6,12.2,28,23.8,38.4,39.1c11.7,17.2,13.9,38.7,31.9,50.8c15.9,10.8,47.4,12.3,43.9,35.9
		c-1.1,7.6-8.2,14.4-9.1,23c-1.2,11.3,4.8,20.8,5.3,31.8c0.7,17.2-13.4,32.8-18.7,49.1c-6.5,19.7-11,43.9-2.1,63.6
		c5.1,11.4,10.4,13.1,21.3,17.6c12,4.9,14.1,7.4,23.1,17c14.6,15.5,32.4,23.1,46.2,40.5c17.7,22.4,8.9,35.8,0,60
		c-7.1,19.3-10,35.5-20.7,53.3c-12.5,20.8-21.5,45.1-34.1,66.5h20.1c0.5-1.2,0.9-2.4,1.4-3.6c2.9-7.1,6.1-14.4,10.2-21
		c6.3-10.2,14.7-14.3,22.4-22.4c14.8-15.4,13.8-33.4,20.7-52c5.4-14.5,12.7-24.5,14.6-40.5c5.3-43.3-33.5-62.3-62.7-87.9
		c-7.1-6.2-12.8-13.5-21.1-18c-7.7-4.2-17.6-4.1-24.6-9.6c-14.6-11.4-12.7-32.9-9.4-49.1c3.7-18.3,17.1-34.4,19.8-52
		c3.2-20.4-11-35.4,1.2-55.1c7.4-11.9,28.3-24.9,15.9-42.2c-8.3-11.6-36.1-4.7-48.9-9.7c-22-8.5-25.8-28.3-38.3-46.2
		c-11.3-16.2-25.7-28.3-39.9-41.8c-28.9-27.5-65.8-54.3-104-67.7c-36.4-12.8-69.1-15-106.9-18.9c-19.2-1.9-38.7-2.3-57.8-4.7
		c-18.5-2.3-36.1-10.8-54.9-11.3c-35.2-1-73,2.4-108.2,5.6c-74.8,6.9-148.7,20.2-224.1,19.6c-37.4-0.3-75.2-3.1-112.7-3.9
		c-35.8-0.8-75.5-4.7-109.8-15.3c-23-7.2-34.3-8.1-57.8-4.7c-16.9,2.4-35.1,5.5-52,6.9c-16.2,1.4-42.3-3.1-57.9-7.7
		C942,15.7,934.2,6.8,923.6,4.3c-8.3-2-17.7,0.8-26,0.7c-20-0.3-37.6-4.4-57.8-2.1C821,4.9,803.7,6,784.9,3.6
		C748.6-1,711.3,0.9,675.1,6.5c-37.5,5.8-73.3,10.7-109.8,21.7C528.5,39.3,491.5,49.5,454.5,60c-19.3,5.5-40.1,10-48.6,30.4
		c-8,19.1-0.4,40.8-24.9,49.2c-16.3,5.5-38-4.2-52.7,5.3c-8.6,5.5-6.1,9-9.1,17.8c-4.4,13.1-10.4,20.4-19.6,30.6
		c-12,13.4-23.1,30-39.2,38.7c-24.3,13.1-28.1-8-28.4-28.9c-0.2-13.8,7.6-52.4-13.3-54c-21.9-1.7-26.9,30.9-23.7,45.3
		c4.1,18.6,14.2,35.2,21.8,52.3c4.3,9.6,4.1,15.6,5.2,25.7c1.4,12.6,6.1,17.5,10.5,28.9c7.4,19.2-1.3,39-13.8,54.6
		c-3.5,4.4-14,8.2-16.3,12.1c-5.7,10,8,17.5,4,25.7c-8,16.4-42.2-2.4-48.7-11.6c-3.2-4.5-10.3-21-9.5-25.3
		c1.9-10.7,9.2-3.2,14.2-9.4c12-14.7-35.9-18.3-42-17.8c-21.2,1.7-32.9,21.7-50.5,30c-21.4,10-32.4,10.7-38.3,37
		c-1.9,8.6-2.3,17.6-4.8,26c-4.3,15-13.9,17-22.4,28.9c-19.9,27.7,51.8,42.9,69.7,51.6c17.9,8.8,38.6,9.9,57.8,15.9
		c11.7,3.6,34.7,5.5,40.5,16.7c14,27.3-26.2,26.7-40.5,25.7c-24.4-1.8-36.1-4.7-55.4,13.4c-17.1,16-29.4,30.5-35.6,53
		c-5.5,20-15.6,28.1-25.1,44h18C35.3,669.7,36.8,667.7,38.3,665.4z"/>
	<path class="st2" d="M2171.6,552c8.9-24.2,17.7-37.6,0-60c-13.8-17.4-31.6-25-46.2-40.5c-9.1-9.6-11.2-12.1-23.1-17
		c-10.9-4.4-16.2-6.1-21.3-17.6c-8.9-19.7-4.3-43.9,2.1-63.6c5.3-16.3,19.4-31.8,18.7-49.1c-0.4-11-6.4-20.5-5.3-31.8
		c0.9-8.6,8-15.4,9.1-23c3.5-23.6-27.9-25.2-43.9-35.9c-18-12.1-20.2-33.6-31.9-50.8c-10.4-15.3-24.7-26.9-38.4-39.1
		c-30-26.9-68.4-54-107.5-65.2c-38.8-11.1-76.8-13.3-116.8-16.4c-38.9-3.1-76.5-7.1-115.6-5.8c-79,2.7-158.3,8.1-236.9,17.5
		c-38.5,4.6-77.1,1.1-115.6-1.4c-40.5-2.6-78.4,8.1-118.5,1.8c-38.1-6-80-24.3-118.5-15.1c-18.3,4.4-44.3,8.5-60.3,18.5
		c-17.7,11.1-31.2,31.1-49.4,43.4c-20.6,13.8-38,6.1-40.4-19c-1.3-14.1,6.4-36.5-4.2-48c-22-23.7-88.7-11.6-117.3-11.7
		c-78.7-0.3-151.2,5.8-228.2,22.7c-20.6,4.5-40.7,10.1-60.7,16.7c-18.9,6.2-39.5,8.3-57.8,15.7c-25,10.2-25.8,25.7-33.5,47.9
		c-7.5,21.4-20.6,23.4-41.5,25.8c-41.9,4.8-58.6,48.2-82.8,79c-11.8,15.1-31.3,33.7-31.3,54.1c0,19.6,3.6,37.4,1.3,57.8
		c-4.2,38.3,16.3,74.9,29.6,109.8c6.2,16.4,15.8,46.2,2.2,60.8c-13.1,14.2-38.1,9.9-54.9,12.3c-26.3,3.8-29.5,25.8-45,42.4
		c-12.6,13.5-33.1,13.1-50.3,11.2c-26.3-2.8-34.3-10.7-55.4,8.4c-14.9,13.5-23.2,24.5-29.3,43.9c-4.1,13-7.4,23.3-14.8,34.7
		c-1.5,2.3-3,4.3-4.5,6.4h17.5c0.5-1.2,0.9-2.3,1.5-3.6c6.3-14.1,10.2-29.5,16.8-43.3c5.9-12.3,22.1-31.4,36.1-34.5
		c11.8-2.6,25.7,2.7,37.9,2.2c16.1-0.6,35.3,0,49.2-8.9c6.2-4,10.4-10.9,17.2-13.6c9-3.7,17,1,26.1,0.4c17.4-1.2,26-14.5,40.4-21.3
		c16.9-7.9,33.1,2.9,43.1-16.7c8.5-16.8,2-29.8-3.3-46.2c-5.8-18.3-6.4-36.3-16.7-53c-16.3-26.5-25.6-53.8-24.8-85.7
		c0.7-31.4,0.4-68.8,13.3-97.7c12.4-27.8,32.8-55.6,55.8-75.6c13.9-12.1,25.5-11.1,42.5-14.1c19.6-3.4,27.2-14.7,34.8-32.2
		c7.6-17.7,15.1-33.1,34.5-39.8c15.7-5.4,33.2-6.6,49.2-11.7C567.9,56.1,634.9,44,701.1,40.2c32.4-1.9,65.7-2.2,98.2-2
		c12.8,0.1,33.8-1.6,43,9.4c11.4,13.8,2.2,31.1,16.3,45.6c14,14.3,37.5,16.4,49.1,32.1c9.9,13.3,8,33.8,15.3,48.8
		c7.6,15.9,26.5,24.5,34,3c5.4-15.2,2.3-33.1,8.7-49.2c13-32.7,41.4-51.4,73.4-62.8c36.7-13.1,61.6-11.9,98.2,0.4
		c31.8,10.6,65.9,14.1,98.3,5.2c33.6-9.3,64-5.1,98.2-3.4c33.4,1.6,65.1-0.8,98.2-3.9c32.6-3.1,65.6,0.1,98.2-3.4
		c31.5-3.4,63.7-9.3,95.3-9.9c16.3-0.3,32.8,0.4,49.1,0.5c16.2,0,33.2-4.1,49.1-2.3c32.7,3.7,65.1,6.4,98.2,9.2
		c30.6,2.6,68.4,9.2,95.3,24.3c29.1,16.3,57.2,35.6,82.2,57.8c12.2,10.8,23.4,22.4,30,37.5c6.2,14.1,8.1,27.9,19.9,39
		c11.1,10.5,33.4,14.4,41.3,27.5c5.6,9.3-0.5,34.7,0.9,46.2c4.1,35.2-24.1,62.2-24.9,98.2c-0.3,13.7,1.4,33.8,7,46.3
		c7.1,15.9,26.2,19.7,36.9,33.5c19.7,25.6,46.3,46.4,37.9,81.6c-11.9,49.8-29.4,91.1-61.7,122.4h30c12.5-21.4,21.5-45.7,34.1-66.5
		C2161.7,587.5,2164.6,571.2,2171.6,552z"/>
	<path class="st2" d="M103.1,621.5c13.1-11.9,29.4-11.8,46.2-14.3c20.9-3,38-6.9,57.8-13.2c16.7-5.3,32.4-5,48-14.1
		c8.7-5.1,16.7-14.5,27.1-16.3c11.4-2,18.4,5.4,29,7c17.7,2.8,32.3-10.3,43.3-23.1c16.6-19.1,1.6-31.4-10.4-49.8
		c-11.9-18.3-13.2-34.6-20.5-54.3c-6.5-17.4-22.4-29-27.5-46.8c-10.1-35.6-4.9-73.9,0.3-109.8c5.8-39.1,14.7-69.8,46.6-96.3
		c17.5-14.6,27.8-15.8,48.9-19.6c23.2-4.2,26.8-17.6,41.3-33.6c14.6-16.1,29.6-31.8,51.1-36.3c19.8-4.2,38.1-12.6,57.8-17.4
		c73.2-17.9,145.1-20.6,219.6-27c13.9-1.2,35.1-3.6,48.2,2c18,7.7,15.9,33.2,30.6,46.2c13,11.5,30.1,16,43.4,26.4
		c18.3,14.3,13.6,37.4,0.8,54.5c-27.1,36.3-65.6,9.6-99.9,26.6c-12.6,6.3-27.3,23.6-32.5,36.5c-6.6,16.2,2.6,29.3,9.4,44
		c8.7,18.8,16.5,34.3,40.5,26.3c18.4-6.2,36.5-21.8,51.9-33.4c13.2-9.9,25.5-20.2,40.4-27.5c16.9-8.3,29.7-21.2,46.3-29.7
		c16-8.2,32.3-12.3,38.9-31.2c6.3-18.2,2.9-39.5,9.6-57.8c11.9-32.9,45.3-55.9,78.6-62.4c38.2-7.4,72.9,11.5,109.8,18.4
		c21.8,4.1,35.4,6.8,55.7-3.1c16.1-7.9,30.3-12.7,48.3-13.9c37.3-2.6,75.2,5.4,112.7,3.7c36.9-1.6,72.7-2.4,109.8-2.5
		c37.2-0.1,73-9.7,109.8-12.9c18.3-1.6,36.6,1.2,54.9,1.1c18.1-0.1,36.9-4.7,54.9-3.2c19,1.6,35.5,7.6,54.9,6.8
		c20.1-0.8,38.1,1.5,57.8,5.4c41.1,8,73.6,13.2,109.8,35.8c31.1,19.4,63.7,37,77.3,73c6.5,17.2,11.2,30.4,25.7,42.8
		c15.7,13.5,28.4,16.3,31.6,38.1c2.2,14.9,3.4,35-1.6,49.3c-7.3,20.8-18.2,37.9-21.2,60.5c-2.2,17,0.4,35.1,2.6,52
		c3.2,25.1,14.3,27.9,30.1,45c10.7,11.5,15.1,30.6,23.1,44.3c12.5,21.3,8,35.3,0,57.7c-5.2,14.5-8,30.1-13.6,44.3
		c-3.3,8.3-7.6,17.1-15,22.5c-10.2,7.5-18.4,2.7-29.1,5.5c-18.5,4.8-24.6,27.1-46.2,18.6c-17.3-6.8-20.9-29-32.8-41.4
		c-9-9.4-28.6-26.1-42.3-24.3c-24.2,3.2-11.3,31.2-16.3,47.4c-2.8,8.8-9.1,16.1-14.5,23.8h183c32.3-31.2,49.8-72.6,61.7-122.4
		c8.4-35.1-18.2-56-37.9-81.6c-10.7-13.8-29.8-17.6-36.9-33.5c-5.6-12.5-7.3-32.7-7-46.3c0.8-36,29-63.1,24.9-98.2
		c-1.4-11.5,4.7-36.9-0.9-46.2c-7.9-13.1-30.1-17.1-41.3-27.5c-11.8-11.1-13.7-24.8-19.9-39c-6.6-15.1-17.8-26.7-30-37.5
		c-25-22.1-53.1-41.4-82.2-57.8c-26.9-15.1-64.7-21.6-95.3-24.3c-33.1-2.9-65.5-5.5-98.2-9.2c-16-1.8-32.9,2.3-49.1,2.3
		c-16.3,0-32.8-0.8-49.1-0.5c-31.6,0.6-63.9,6.5-95.3,9.9c-32.6,3.5-65.7,0.3-98.2,3.4c-33.1,3.1-64.8,5.6-98.2,3.9
		c-34.2-1.7-64.6-5.9-98.2,3.4c-32.3,8.9-66.5,5.4-98.3-5.2c-36.6-12.3-61.5-13.5-98.2-0.4c-32.1,11.5-60.4,30.1-73.4,62.8
		c-6.4,16.1-3.3,34-8.7,49.2c-7.6,21.4-26.4,12.9-34-3c-7.2-15-5.4-35.5-15.3-48.8c-11.6-15.7-35.1-17.8-49.1-32.1
		c-14.1-14.5-4.8-31.8-16.3-45.6c-9.2-11.1-30.2-9.4-43-9.4c-32.5-0.2-65.8,0.1-98.2,2C634.9,44,567.9,56.1,504.7,76.4
		c-16,5.1-33.5,6.3-49.2,11.7c-19.4,6.7-26.9,22.2-34.5,39.8c-7.5,17.5-15.2,28.8-34.8,32.2c-17,3-28.5,1.9-42.5,14.1
		c-23,20-43.4,47.8-55.8,75.6c-12.9,28.9-12.6,66.3-13.3,97.7c-0.7,31.8,8.5,59.1,24.8,85.7c10.3,16.7,10.9,34.7,16.7,53
		c5.3,16.4,11.8,29.4,3.3,46.2c-10,19.6-26.2,8.8-43.1,16.7c-14.4,6.8-23,20.1-40.4,21.3c-9.1,0.6-17.1-4-26.1-0.4
		c-6.8,2.8-10.9,9.6-17.2,13.6c-13.9,8.9-33.1,8.3-49.2,8.9c-12.2,0.5-26.1-4.8-37.9-2.2c-14,3.1-30.2,22.2-36.1,34.5
		c-6.6,13.8-10.5,29.2-16.8,43.3c-0.5,1.2-1,2.4-1.5,3.6h22.1C78,652.7,88.2,634.9,103.1,621.5z"/>
	<path class="st2" d="M1934.7,600.6c13.7-1.8,33.3,14.9,42.3,24.3c11.9,12.5,15.6,34.6,32.8,41.4c21.7,8.6,27.8-13.8,46.2-18.6
		c10.7-2.8,18.9,2,29.1-5.5c7.4-5.4,11.7-14.2,15-22.5c5.6-14.2,8.4-29.7,13.6-44.3c8-22.4,12.5-36.5,0-57.7
		c-8-13.7-12.4-32.8-23.1-44.3c-15.8-17.1-26.9-19.8-30.1-45c-2.2-17-4.8-35-2.6-52c3-22.5,13.9-39.7,21.2-60.5
		c5-14.3,3.8-34.4,1.6-49.3c-3.2-21.8-15.9-24.6-31.6-38.1c-14.5-12.4-19.2-25.6-25.7-42.8c-13.6-36-46.2-53.6-77.3-73
		c-36.1-22.6-68.6-27.8-109.8-35.8c-19.7-3.9-37.7-6.2-57.8-5.4c-19.4,0.8-35.8-5.2-54.9-6.8c-18-1.5-36.8,3-54.9,3.2
		c-18.3,0.1-36.6-2.7-54.9-1.1c-36.8,3.2-72.6,12.8-109.8,12.9c-37.1,0.1-72.9,0.9-109.8,2.5c-37.5,1.6-75.4-6.3-112.7-3.7
		c-18,1.2-32.2,6-48.3,13.9c-20.3,9.9-33.8,7.2-55.7,3.1c-36.9-6.9-71.6-25.8-109.8-18.4c-33.3,6.5-66.7,29.5-78.6,62.4
		c-6.6,18.3-3.3,39.6-9.6,57.8c-6.6,19-22.9,23-38.9,31.2c-16.6,8.5-29.4,21.3-46.3,29.7c-14.9,7.3-27.2,17.6-40.4,27.5
		c-15.4,11.6-33.5,27.2-51.9,33.4c-24,8.1-31.8-7.4-40.5-26.3c-6.8-14.7-16-27.8-9.4-44c5.2-12.9,19.9-30.3,32.5-36.5
		c34.2-17,72.7,9.7,99.9-26.6c12.8-17.1,17.5-40.1-0.8-54.5c-13.3-10.4-30.4-15-43.4-26.4c-14.8-13-12.6-38.5-30.6-46.2
		c-13-5.6-34.3-3.2-48.2-2c-74.5,6.3-146.4,9.1-219.6,27c-19.6,4.8-38,13.2-57.8,17.4c-21.5,4.6-36.5,20.2-51.1,36.3
		c-14.5,16-18.1,29.4-41.3,33.6c-21.1,3.8-31.4,5.1-48.9,19.6c-31.9,26.5-40.8,57.1-46.6,96.3c-5.3,35.9-10.4,74.2-0.3,109.8
		c5,17.7,21,29.3,27.5,46.8c7.3,19.7,8.6,36,20.5,54.3c12,18.4,27,30.7,10.4,49.8c-11.1,12.7-25.6,25.8-43.3,23.1
		c-10.5-1.6-17.6-9-29-7c-10.4,1.8-18.4,11.2-27.1,16.3c-15.6,9.1-31.3,8.8-48,14.1c-19.8,6.3-36.9,10.2-57.8,13.2
		c-16.8,2.4-33.1,2.4-46.2,14.3c-14.8,13.4-25.1,31.2-29.8,50.3h37.6c8.5-21.6,26.1-38.8,49.9-45.4c18.9-5.2,38.9-5.4,57.8-11
		c20.5-6.1,33.5-20.1,51.8-29.4c20.4-10.3,35.6,10.1,58,7.3c17-2.1,38.8-16.2,52.6-26.2c11.5-8.4,30-28.3,28-43.3
		c-2.8-20.2-39.9-28.4-51.7-44.8c-10.6-14.8-14.3-33.1-23.1-48.8c-11.6-20.7-21.5-35.7-24.6-59.5c-5.1-39,6.5-74,7.4-112.7
		c0.8-39,42.4-67.4,77.9-73.1c40.1-6.4,60.8-36.2,93.1-56.9c31.9-20.4,75.9-24.5,112-32.9c38.1-8.8,76.7-10.6,115.6-12.3
		c18.3-0.8,36.6-2.5,54.9-2.1c25.8,0.6,28,12.8,43.9,29.8c13,13.8,33.3,17.4,46,31.3c11.5,12.6,16.5,37.4-0.3,46.6
		c-12.7,6.9-37.9-1.7-52.1-1.5c-29.4,0.4-39.7,14.5-63.5,29.3c-11.7,7.2-30.5,12-33.7,27.4c-4,19.2,21,38.8,30.8,53.3
		c11.2,16.5,20.3,39.1,43.2,42c19.9,2.5,43.5-10.4,57.8-21.6c20.1-15.8,38.9-14.4,39.7,12.9c0.6,21.9,2.9,37.3,11.5,57.8
		c9.6,22.8,16.4,27.7,41.3,28c19.6,0.2,39.5,4.5,57.8-5.1c54.1-28.6-1-60.8-15.6-92.1c-7-15-6.3-38.5-6-55
		c0.4-22.8,24.7-38.2,30.6-60.6c9.3-35,26-74.7,60.3-93.1c38.8-20.7,74.8,10.5,112.7,14.8c44.4,5.1,63.5,33.9,88.8,66.7
		c6.7,8.8,10.4,20,18.1,28.1c6.8,7.2,16.2,11.5,23.1,18.6c12.4,12.7,21,34.3,12.9,51.4c-4.2,8.9-12.9,11.7-10.3,23.1
		c2.1,8.9,13.8,16.3,20.5,20.8c18.4,12.6,36.6,18.5,49.6-3.4c24.6-41.3-13.9-83.1-38.1-112.5c-11.1-13.6-27.5-20.8-38.6-34.9
		c-14.2-18-10.8-36.3-20.9-54.9c-4.6-8.4-10.6-7-7.9-15c3-9.1,13-11.2,21.2-12.9c21.2-4.5,42.3-0.5,63.6,0.5
		c37.6,1.7,75.1-5.2,112.7-2.7c73.7,4.8,148.5-6.3,222.5-8.2c38.3-1,77.4,2.9,115.6,6.7c18.8,1.9,37.6,5.5,56.3,8.6
		c19.9,3.2,39.4,3.1,58.2,11.6c37.9,17,75.8,35.3,91.6,75.2c13.9,35.1,50.4,59.1,50,98.2c-0.5,38.3-20.8,73.5-17.8,112.7
		c1.3,17-0.4,39.2,6.2,55c8.7,20.6,26.6,32.3,32.9,54.8c4.3,15.3,9.7,29.5,5.6,45.4c-4.3,16.7-20.2,46.6-34.7,56.2
		c-38.4,25.4-79.4-24.8-113-35.2c-17.3-5.4-43.5,2.6-47.5,23.1c-4.6,23.5,17,38.5-8.2,57.8c-6.6,5-14.5,8.3-21.5,12.2h37.9
		c5.4-7.7,11.8-15,14.5-23.8C1923.5,631.8,1910.5,603.8,1934.7,600.6z"/>
	<path class="st1" d="M212.9,651.1c20.8-8.8,32.5-26.9,51.3-37.8c19.2-11.2,43.8,1.4,64.2,3.2c44.6,4.1,70.9-33.2,98.2-61.7
		c7.4-7.7,24.1-15.9,23.2-28.2c-0.7-8.5-11.5-17.2-17.5-22.7c-20.3-18.5-47.9-23.5-63.4-47.6c-26.2-40.7-45.7-81.7-39-131.9
		c3.1-22.8,0.8-53.8,8-75.2c8.2-24.3,36.3-37.8,59.9-41.8c11.8-2,23-1.1,33.8-6.9c10.9-5.8,19.6-16.3,29.7-23.6
		c19.4-14,40.9-25.3,63.5-33.3c46.1-16.3,92.9-28,141.6-30.7c25.3-1.4,49.6-6.5,75.1-2.7c13.3,2,26.9,3.8,37,12.1
		c5.3,4.3,21.7,23.2,21.7,28.8c0-2.4-25,9.9-27.2,11.4c-13,9-24.3,18.9-36.3,29.1c-19.4,16.4-49.8,17.7-52.3,49.1
		c-2.2,27.9,27.1,50,42.6,69.3c15.8,19.8,32.9,42.8,60.7,44.9c19.3,1.5,58.8-11.2,67.8,10c5.3,12.4,3.1,25.3,10.2,38.1
		c5.3,9.6,13.5,23.3,23.1,29.2c11.7,7.1,26.8,3.4,39.7,6.6c14,3.6,23.8,5,38.4,5.7c28.4,1.3,52.8,2.6,72.2-23
		c17-22.5,14.5-57.9,0-81.3c-5.9-9.6-18.3-18.6-22.4-28.8c-7.9-19.7,12.9-19.8,17.4-35.9c3.7-13.3-4.5-28.5-6.5-41.4
		c-1.9-12.4,2.1-19.8,7-30.9c7.5-17.1,29.1-58.5,50.8-61.6c18.5-2.7,52.9,24.7,65.5,36.1c25.7,23.2,50.6,42.6,57.4,77.5
		c4.8,24.4,0.8,56,17.7,77.8c14.3,18.5,54.6,16.4,76.1,18.1c25.8,2,39.3,31.4,66.5,26.5c20.3-3.6,39-48.2,39.2-67.5
		c0.2-23.2-20.6-50.2-12.9-72.1c4.3-12.2,20.6-20.6,7.8-34c-10.9-11.4-27-0.4-39.9-4.6c-21-6.8-50.4-32.9-45.5-56.4
		c5.5-26.5,47-21.9,68.7-21.9c13.7,0,25.3,3.7,38.5,5.9c15,2.5,26.8-3.5,42.4-4.8c26-2.2,51.6,1.8,78-0.4c105-9.1,210.4-7,314.9,6.1
		c50.7,6.3,116,19.9,141.1,69.5c6.3,12.5,13.6,26.8,18.3,40.1c4,11.6,3.1,22.9,4.9,35c3.8,25.8,13,44.9,12.5,72.2
		c-0.5,26-6.6,48.9-3.5,74.9c1.8,14.5-1.7,29.3,1.7,43.6c3.3,13.7,13.2,22.2,18.5,34.7c5.7,13.3,1.5,26.9-7,38.5
		c-10.7,14.7-24.1,9.9-38.5,17.8c-14,7.7-19,22.2-36.3,13c-14.4-7.6-18.1-18.6-36.6-18.2c-30.3,0.6-55.4,14.5-58.9,47.1
		c-1.3,11.9,6.7,28-2.6,37.5c-9.4,9.6-27.8,1.7-39.5,8.2c-12,6.6-16.7,17.8-17.5,30.1h49.8c7-4,14.9-7.2,21.5-12.2
		c25.2-19.3,3.6-34.2,8.2-57.8c4-20.5,30.2-28.5,47.5-23.1c33.5,10.4,74.6,60.6,113,35.2c14.5-9.6,30.4-39.6,34.7-56.2
		c4.1-15.9-1.3-30.1-5.6-45.4c-6.4-22.5-24.3-34.2-32.9-54.8c-6.6-15.7-4.9-38-6.2-55c-3-39.2,17.3-74.4,17.8-112.7
		c0.5-39.1-36.1-63.1-50-98.2c-15.8-39.8-53.7-58.2-91.6-75.2c-18.8-8.4-38.4-8.3-58.2-11.6c-18.7-3-37.5-6.7-56.3-8.6
		c-38.2-3.8-77.2-7.7-115.6-6.7c-74,1.9-148.7,13-222.5,8.2c-37.6-2.5-75.1,4.4-112.7,2.7c-21.2-1-42.3-5-63.6-0.5
		c-8.2,1.7-18.2,3.9-21.2,12.9c-2.7,8,3.3,6.6,7.9,15c10.2,18.6,6.7,36.9,20.9,54.9c11.2,14.1,27.5,21.3,38.6,34.9
		c24.2,29.4,62.7,71.2,38.1,112.5c-13,21.9-31.2,16-49.6,3.4c-6.7-4.6-18.4-11.9-20.5-20.8c-2.7-11.4,6-14.2,10.3-23.1
		c8.1-17.1-0.5-38.7-12.9-51.4c-6.9-7.1-16.3-11.4-23.1-18.6c-7.7-8.1-11.4-19.4-18.1-28.1c-25.2-32.9-44.3-61.6-88.8-66.7
		c-37.9-4.4-73.9-35.6-112.7-14.8c-34.3,18.3-51,58.1-60.3,93.1c-6,22.4-30.2,37.8-30.6,60.6c-0.3,16.5-1,40,6,55
		c14.6,31.3,69.8,63.5,15.6,92.1c-18.3,9.6-38.2,5.4-57.8,5.1c-24.9-0.3-31.7-5.2-41.3-28c-8.6-20.5-10.8-35.9-11.5-57.8
		c-0.8-27.4-19.5-28.8-39.7-12.9c-14.3,11.2-37.9,24.1-57.8,21.6c-22.9-2.9-32.1-25.5-43.2-42c-9.8-14.5-34.8-34.1-30.8-53.3
		c3.2-15.4,22-20.1,33.7-27.4c23.9-14.7,34.1-28.8,63.5-29.3c14.2-0.2,39.4,8.4,52.1,1.5c16.8-9.1,11.9-34,0.3-46.6
		c-12.7-13.9-33.1-17.6-46-31.3c-16-16.9-18.1-29.2-43.9-29.8c-18.3-0.4-36.6,1.2-54.9,2.1c-38.9,1.8-77.5,3.5-115.6,12.3
		c-36.1,8.3-80.1,12.5-112,32.9c-32.4,20.6-53,50.4-93.1,56.9c-35.5,5.7-77.1,34.1-77.9,73.1c-0.8,38.7-12.4,73.7-7.4,112.7
		c3.1,23.8,13,38.8,24.6,59.5c8.8,15.7,12.5,34.1,23.1,48.8c11.8,16.4,48.8,24.6,51.7,44.8c2.1,15-16.4,35-28,43.3
		c-13.8,10-35.6,24.1-52.6,26.2c-22.4,2.8-37.5-17.6-58-7.3c-18.4,9.3-31.3,23.2-51.8,29.4c-18.9,5.6-38.9,5.8-57.8,11
		c-23.8,6.6-41.5,23.9-49.9,45.4h64.7C184.6,662.4,198.2,657.3,212.9,651.1z"/>
	<path class="st2" d="M1833.6,641.6c11.8-6.5,30.1,1.4,39.5-8.2c9.3-9.5,1.3-25.5,2.6-37.5c3.6-32.6,28.7-46.5,58.9-47.1
		c18.5-0.3,22.2,10.7,36.6,18.2c17.4,9.2,22.3-5.4,36.3-13c14.4-7.9,27.8-3.1,38.5-17.8c8.5-11.6,12.6-25.2,7-38.5
		c-5.3-12.5-15.3-20.9-18.5-34.7c-3.4-14.3,0.1-29.1-1.7-43.6c-3.2-26,3-48.9,3.5-74.9c0.5-27.3-8.7-46.4-12.5-72.2
		c-1.8-12.1-0.9-23.4-4.9-35c-4.6-13.3-12-27.6-18.3-40.1c-25.1-49.7-90.4-63.2-141.1-69.5c-104.6-13.1-209.9-15.2-314.9-6.1
		c-26.4,2.3-52-1.7-78,0.4c-15.6,1.3-27.4,7.3-42.4,4.8c-13.2-2.2-24.8-5.9-38.5-5.9c-21.6,0-63.1-4.6-68.7,21.9
		c-4.9,23.5,24.5,49.5,45.5,56.4c12.9,4.2,29-6.9,39.9,4.6c12.8,13.4-3.5,21.9-7.8,34c-7.7,21.9,13.1,48.9,12.9,72.1
		c-0.2,19.3-18.9,63.9-39.2,67.5c-27.3,4.9-40.8-24.5-66.5-26.5c-21.5-1.7-61.8,0.5-76.1-18.1c-16.9-21.9-12.9-53.5-17.7-77.8
		c-6.8-34.8-31.7-54.2-57.4-77.5c-12.6-11.4-47-38.8-65.5-36.1c-21.7,3.2-43.3,44.5-50.8,61.6c-4.8,11-8.8,18.4-7,30.9
		c1.9,12.8,10.2,28.1,6.5,41.4c-4.5,16.1-25.3,16.3-17.4,35.9c4.1,10.3,16.5,19.3,22.4,28.8c14.5,23.5,17,58.8,0,81.3
		c-19.4,25.6-43.8,24.3-72.2,23c-14.6-0.7-24.4-2.1-38.4-5.7c-12.8-3.3-28,0.5-39.7-6.6c-9.6-5.9-17.8-19.6-23.1-29.2
		c-7.1-12.8-4.9-25.7-10.2-38.1c-9.1-21.2-48.5-8.5-67.8-10c-27.8-2.1-44.8-25.2-60.7-44.9c-15.5-19.3-44.8-41.4-42.6-69.3
		c2.5-31.4,32.9-32.6,52.3-49.1c12-10.1,23.3-20.1,36.3-29.1c2.1-1.5,27.2-13.7,27.2-11.4c0-5.6-16.4-24.5-21.7-28.8
		c-10.1-8.2-23.7-10-37-12.1c-25.5-3.9-49.8,1.2-75.1,2.7c-48.7,2.8-95.5,14.4-141.6,30.7c-22.6,8-44.1,19.3-63.5,33.3
		c-10.1,7.3-18.8,17.8-29.7,23.6c-10.8,5.8-22.1,4.9-33.8,6.9c-23.6,4-51.7,17.5-59.9,41.8c-7.2,21.4-4.9,52.4-8,75.2
		c-6.7,50.2,12.8,91.2,39,131.9c15.5,24.1,43.1,29.1,63.4,47.6c6,5.5,16.9,14.1,17.5,22.7c1,12.3-15.7,20.5-23.2,28.2
		c-27.4,28.5-53.7,65.8-98.2,61.7c-20.4-1.9-45.1-14.4-64.2-3.2c-18.7,10.9-30.5,28.9-51.3,37.8c-14.7,6.2-28.3,11.3-37.3,20.7h53.9
		c5.4-6.2,10.9-12.3,16.3-18.6c14.9-17.3,23.2-32.7,48-26.5c24,6.1,37.9,19.3,63.5,8.2c40.1-17.4,62.1-63,98.2-84.1
		c23.8-13.9,24.5-31.4,5.8-51.8c-14.4-15.7-34.7-15-51.3-25.9c-21.8-14.4,0.4-32.8-14.4-48.9c-7.2-7.7-18.2-4-26.7-8.3
		c-11.2-5.7-15.3-16.7-18.2-27.8c-5.6-21-7.8-38.7-4.9-60.3c2.7-19.4-1.3-39.1,1.9-58.2c3-17.7,12.1-31.2,27.6-40
		c20-11.5,42-5.4,63-12.1c21.5-6.8,33.4-26.1,52-37.4c17.4-10.5,38.2-16.4,57.8-21.6c20.5-5.4,37.8-16.2,57.8-22.9
		c21.9-7.4,41.7,0.9,63.6-2.4c18.3-2.8,35.6-12.5,54.9-6c23.5,7.9,15.2,31.6,3.7,47c-13.7,18.4-30.3,12.8-47.1,25.2
		c-19,14-15.2,43.9-29.3,61.5c-10.9,13.6-26.8,22.3-37.9,35.9c-18.9,23.4-2.5,31.7,0.8,56.5c2.3,17.5-1,36.3-8.6,52
		c-4.6,9.7-38.1,51.9-21.1,53.9c5.7,0.7,34.3-29.4,42-37.4c15.8-16.5,35.5-28.6,43.3-51.1c5.6-16.1,6.3-38.2,22.3-48.7
		c22.8-15.1,31,14.2,48,24.9c17.3,10.9,36.2,18,56,20.4c12.7,1.6,18.2,1.8,27.6,9.6c11.1,9.3,21.2,25,30.2,36.3
		c11.3,14.3,21.7,31.7,40.3,36.4c10.4,2.6,18.7,1.6,29,5.7c10.2,4,17.6,8.3,28.9,10.4c41.8,7.8,92.5,2.7,108.2-43
		c5.6-16.4,10.1-34.7,8.1-52c-2.1-17.9-16.6-33.5-17.2-51.7c-0.3-8.2,0.2-9.7,4.7-17.6c6.3-11,10.3-17.6,14.6-28.9
		c4.6-11.8,10.8-8.2,16.5-17.3c5.8-9.4-2.9-19.8-4.1-28.9c-2.2-17.1,10.4-32.6,28.1-32.7c17.8-0.1,37.6,19.9,49.2,32.7
		c13,14.4,12.6,33.7,5.8,52.1c-3.2,8.7-10.8,12.7-15.4,19.8c-8.9,13.6-4,14.2,5.4,26.4c6.2,8.1,9.2,14.6,17.1,21.7
		c7.2,6.5,12.5,12.5,18.2,20.6c17.1,23.9,30.4,12.5,55.6,16.5c19.6,3.1,37.1,23,57.8,17.4c8.6-2.4,14.1-12,23.1-13.4
		c7.7-1.2,23.2,4.8,31.8,5.3c13.5,0.9,37.8,6.8,49.1,14c8.7,5.5,11.9,18.3,23.1,20.8c9.1,2.1,26.1-6.7,34.4-10.4
		c11.9-5.3,38.7-17.8,38.6-34.7c-0.1-13.5-8.6-8.7-15.2-15.9c-6.9-7.5-8.6-13.9-17.9-18.8c-19.1-10-32.5-6.1-41.7-28.9
		c-3-7.4-8.6-20.8-9.8-28.7c-1.2-8.2,2.9-15.5,2.2-23.3c-1-10.9-8.4-15.7-5.1-27.5c2.3-8.2,9.6-15.2,11.6-24.4
		c1.9-8.7,0.7-15.1,5-22.7c5.5-9.7,11.7-12.3,15.2-23.5c6.7-21.5,15.1-31,40.5-29.6c21.3,1.2,42.1,1.4,63.6,1.4
		c38.6,0,76.9-7.9,115.6-7.9c40.7,0,81,4.3,121.3,7.8c38.9,3.5,77.4-0.4,115.6,10.3c36.8,10.3,76.1,35.4,89.1,72.8
		c5.9,16.9,7.6,37.3,11.9,54.9c4.7,19.3,12,38.2,15.1,57.8c2.9,17.9,0,34.4-1.7,52.2c-1.9,19.8,0.7,41.6,0.8,61.7
		c0,18,18.1,41,11.9,56.9c-8,20.6-40,18.4-57.8,20c-16.9,1.5-42.2,4.1-57.8-2.6c-10.7-4.6-20.2-10.5-31.3-14.9
		c-4.9-1.9-1.4-3.9-9-4.9c-4.8-0.6-13.5,4.7-17.4,2.9c-12.6-5.8-6.1-17-6.5-26.9c-0.4-11.4-3.7-15.2-8-24.5
		c-7.6-16.5-7-43.4-31.7-44.6c-39.9-1.9-48.5,65.5-50.3,92.3c-1.9,28.7,10.2,21.5,27.3,40.4c8.7,9.5,4.9,21,11.4,30.4
		c3.9,5.7,21.2,14.9,28.9,15.1c33.2,0.9-2.3-34.4,12.8-49.5c5.6-5.6,18.1-8.9,27.7-12.5c0,0-0.1-0.1-0.1-0.1c0,0,0.1,0.1,0.1,0.1
		c5.2-1.9,9.6-3.9,11.4-6.3c-1.8,2.4-6.2,4.4-11.4,6.3c18.4,18.7-4.3,36.2-7.6,56.8c-1.7,10.8,2,21.8-8.4,28.9
		c-10.7,7.3-25.9,3.7-37.7,11.6c-14,9.4-18.9,27.6-18.4,46.9h17C1816.9,659.5,1821.7,648.3,1833.6,641.6z"/>
	<path class="st2" d="M268.7,646.1c19-16.2,33.3,7.8,50.9,11.2c19.1,3.7,39.6-6.3,55-16.8c14.7-10,25-25.2,40.4-35.8
		c18.5-12.7,27.3-30.1,46.2-42c13.8-8.7,34.4-22.4,30.7-41.8c-3.2-16.9-21.5-36.6-35.7-44.4c-13.3-7.3-36.1-9.1-42.2-24.9
		c-9.1-23.5,5.7-33.5-21.4-46.7c-22-10.7-26.4-14.5-28.3-39.9c-1.6-21.8,0.7-42.2-2.3-63.6c-2.4-17.3-2.9-39.9,9.8-53.6
		c14.6-15.8,40.7-14.8,60.5-16.4c24.1-1.9,34.9-12.5,52-27.5c16.6-14.5,36.6-22.5,57.8-28.2c9.6-2.6,19.7-1.5,29-5.2
		c9.9-3.8,18.7-10.5,28.7-14.6c19.6-8,36.2-7.5,57.8-7.3c15.9,0.1,48.5-17.7,56.3,2.5c10.9,28-31.5,27.2-44.8,36.4
		c-16.3,11.2-17.3,34.5-27.4,50.4c-11.8,18.7-26.2,35.2-40.5,52c-13.6,15.9-16.2,25.2-11.3,46.2c5.5,23.2,6.4,37.8-3.5,60.7
		c-3.8,8.8-6.9,15.8-13.7,22.7c-8.3,8.5-19.2,10.3-27.8,17.6c-20.4,17.4-8,32.3,8.7,44.8c14.2,10.7,27.9,26.7,47.7,15.9
		c13.4-7.4,7.2-13,11.6-23.1c5.3-12.1,11.4-24.5,20-34.7c11.9-14.1,24.1-22.6,37.8-34.7c7.7-6.8,13.9-13.3,17.3-23.1
		c3.2-9.2,2.1-28.1,11.6-34.7c8.5-6,30.6,7.6,41.9,11.6c11.1,3.9,21.4,12.1,31.8,16.8c10.2,4.5,21.2,4.2,31,8.8
		c15.5,7.1,29.2,23.6,39.9,36.3c17.7,20.9,29.9,33.2,56.1,41.4c18.7,5.8,35.2,18.8,54.8,23.9c19.7,5.1,41.4-1.8,60.7-6.7
		c18.9-4.9,31-7.5,46.2-20.7c18.1-15.8,18.6-37.4,21.5-59.2c2.1-16.3,3.7-35.7,20.1-45.2c17-9.9,37.8-5.3,50.9,7.7
		c11.6,11.6,20.1,30.6,34.7,39c20.2,11.6,45.9,7.5,66.4,15.9c20.9,8.5,31.7,15.4,54.9,14.4c14.2-0.6,13.5,0.3,24.6-7.1
		c9.8-6.5,19.5-15.2,33.3-12c9.7,2.3,8.6,6.8,17.3,12c3.5,2.1,8.1-0.2,11.6,1.4c5.9,2.8,10.7,8.1,16.6,11.1
		c19.2,9.5,38.9,1.8,58.6-4.3c8.6-2.7,17.2-5.2,26-7.6c16.4-4.6,11.1-5.5,19.3,6.6c7.9,11.7,7.6,13.2,22.6,18
		c6.5,2.1,19.2,3.9,23.9,8.6c8.4,8.4-2.2,21.1,3.5,28.2c4.5,5.6,19,3.8,26,2.9c13-1.6,13.2-0.5,14.5-14.5c1.2-12.4,2-21.2-8.7-25.5
		c-10.7-4.3-19.3,5-26-9.1c-3.6-7.5,1.4-16.8-2.9-24.6c-3.7-6.8-14.5-16-20.2-21.6c-11.2-11.2-14.9-12.4,2.8-18.3
		c16.8-5.6,39.9-7.7,55-16.4c21.5-12.4,4.2-36-4.6-50.2c-11.6-18.8-25.2-30-46-19.9c-10.5,5.1-20.5,5.6-30.3,9.3
		c-9.7,3.7-15.4,14.7-26,18.8c-2.5,1-14.7,2.7-17.3,3c-5,0.6-5.6,4.8-11.8,3.1c-13.4-3.6-8.7-10.3-5.6-19c4.8-13.4,6-12.1,2.9-26
		c-1.5-6.7,1.3-8.2-2.9-13c-1.9-2.1-12.6-2.5-16.2-5.4c-15.7-12.4-10.9-42.1-1.4-56.8c9.2-14.2,25.7-30.1,40.6-37.5
		c35.5-17.4,79.6-5.8,117-14c37.6-8.2,81.9-1.5,119.9-1.5c19.1,0,39.1-1.2,57.8,1.8c21.2,3.4,42.3,1.2,63.5,4
		c35.5,4.7,83.6,13.7,108.3,41.4c26.2,29.3,36.6,71.8,43.6,109.8c3.5,19.1,11.9,31.7,11.8,52c-0.1,21.2-0.9,42.2-0.3,63.6
		c0.6,18.9,2.3,39.1,1.8,57.8c-0.6,25.7-29.7,24.3-49.8,27.9c-24,4.3-35.1,0.6-51.3-17c-12.8-13.9-28-26.1-39.6-41.3
		c-20.3-26.4-42.5-72-82.4-70.8c-23.5,0.7-21,25.3-27.1,43.5c-7.7,22.6-15,39.2-17.4,63.4c-2.1,21.1-6,37.7,2.6,57.8
		c2.7,6.3,10.6,16.5,11.6,23.1c1.2,8-7.7,18.3-5.9,28.9c2.9,17.4,6.9,33.5,17.5,47.7c7.2,9.6,10.5,18.6,12.5,28.1h15.1
		c-0.4-19.3,4.4-37.5,18.4-46.9c11.8-7.9,27.1-4.2,37.7-11.6c10.4-7.2,6.7-18.1,8.4-28.9c3.3-20.6,26-38.2,7.6-56.8
		c-9.6,3.5-22.2,6.9-27.7,12.5c-15.1,15.1,20.4,50.4-12.8,49.5c-7.7-0.2-25-9.5-28.9-15.1c-6.5-9.4-2.7-20.9-11.4-30.4
		c-17.2-18.9-29.3-11.8-27.3-40.4c1.8-26.8,10.4-94.2,50.3-92.3c24.7,1.2,24.1,28.1,31.7,44.6c4.3,9.4,7.7,13.1,8,24.5
		c0.3,9.9-6.2,21,6.5,26.9c3.9,1.8,12.6-3.5,17.4-2.9c7.6,1,4.2,3,9,4.9c11.1,4.3,20.6,10.2,31.3,14.9c15.6,6.8,40.9,4.2,57.8,2.6
		c17.8-1.6,49.8,0.6,57.8-20c6.2-15.9-11.8-39-11.9-56.9c0-20.1-2.7-41.9-0.8-61.7c1.7-17.8,4.5-34.3,1.7-52.2
		c-3.1-19.6-10.4-38.5-15.1-57.8c-4.3-17.7-6-38.1-11.9-54.9c-13-37.3-52.4-62.5-89.1-72.8c-38.2-10.7-76.6-6.8-115.6-10.3
		c-40.3-3.6-80.7-7.9-121.3-7.8c-38.6,0-76.9,7.9-115.6,7.9c-21.4,0-42.2-0.3-63.6-1.4c-25.4-1.4-33.8,8.1-40.5,29.6
		c-3.5,11.2-9.8,13.8-15.2,23.5c-4.3,7.6-3.1,14.1-5,22.7c-2,9.2-9.3,16.2-11.6,24.4c-3.3,11.8,4.2,16.7,5.1,27.5
		c0.7,7.8-3.4,15.1-2.2,23.3c1.2,7.9,6.8,21.3,9.8,28.7c9.2,22.8,22.5,18.9,41.7,28.9c9.3,4.9,11,11.3,17.9,18.8
		c6.6,7.1,15.1,2.3,15.2,15.9c0.2,16.8-26.7,29.3-38.6,34.7c-8.3,3.7-25.3,12.5-34.4,10.4c-11.2-2.6-14.4-15.3-23.1-20.8
		c-11.3-7.1-35.6-13-49.1-14c-8.6-0.6-24.1-6.5-31.8-5.3c-9,1.4-14.5,11-23.1,13.4c-20.6,5.7-38.2-14.3-57.8-17.4
		c-25.2-4-38.5,7.4-55.6-16.5c-5.7-8-11-14-18.2-20.6c-7.8-7.1-10.9-13.6-17.1-21.7c-9.4-12.2-14.3-12.8-5.4-26.4
		c4.7-7.1,12.2-11.1,15.4-19.8c6.8-18.4,7.2-37.7-5.8-52.1c-11.6-12.8-31.4-32.8-49.2-32.7c-17.7,0.1-30.2,15.6-28.1,32.7
		c1.2,9.1,9.9,19.5,4.1,28.9c-5.7,9.1-11.9,5.6-16.5,17.3c-4.4,11.3-8.4,17.9-14.6,28.9c-4.6,8-5,9.5-4.7,17.6
		c0.6,18.2,15.1,33.8,17.2,51.7c2,17.3-2.5,35.7-8.1,52c-15.7,45.7-66.4,50.7-108.2,43c-11.3-2.1-18.7-6.4-28.9-10.4
		c-10.3-4-18.6-3-29-5.7c-18.7-4.7-29-22.1-40.3-36.4c-9-11.3-19.1-27.1-30.2-36.3c-9.3-7.8-14.9-8-27.6-9.6
		c-19.7-2.5-38.7-9.6-56-20.4c-17-10.7-25.3-40-48-24.9c-16,10.6-16.7,32.6-22.3,48.7c-7.8,22.5-27.5,34.6-43.3,51.1
		c-7.7,8-36.3,38.1-42,37.4c-17-2,16.4-44.2,21.1-53.9c7.5-15.7,10.9-34.6,8.6-52c-3.3-24.8-19.7-33.1-0.8-56.5
		c11-13.6,26.9-22.3,37.9-35.9c14.1-17.6,10.4-47.5,29.3-61.5c16.8-12.4,33.4-6.8,47.1-25.2c11.5-15.4,19.8-39.1-3.7-47
		c-19.3-6.5-36.6,3.3-54.9,6c-21.9,3.3-41.7-4.9-63.6,2.4c-20,6.7-37.3,17.5-57.8,22.9c-19.6,5.2-40.4,11-57.8,21.6
		c-18.6,11.3-30.5,30.5-52,37.4c-20.9,6.7-42.9,0.6-63,12.1c-15.4,8.9-24.6,22.4-27.6,40c-3.3,19.1,0.7,38.9-1.9,58.2
		c-2.9,21.5-0.7,39.3,4.9,60.3c3,11.1,7.1,22.1,18.2,27.8c8.5,4.4,19.6,0.6,26.7,8.3c14.9,16.1-7.4,34.5,14.4,48.9
		c16.6,11,36.9,10.3,51.3,25.9c18.7,20.4,18,37.9-5.8,51.8c-36.2,21.1-58.1,66.7-98.2,84.1c-25.6,11.1-39.5-2.2-63.5-8.2
		c-24.8-6.3-33.1,9.2-48,26.5c-5.4,6.3-10.9,12.4-16.3,18.6h19.2C255.1,662.1,261.7,652.1,268.7,646.1z"/>
	<path class="st1" d="M1754,596c-1.8-10.6,7.1-20.9,5.9-28.9c-1-6.6-8.8-16.8-11.6-23.1c-8.6-20-4.7-36.7-2.6-57.8
		c2.4-24.2,9.7-40.8,17.4-63.4c6.2-18.2,3.7-42.8,27.1-43.5c39.9-1.2,62,44.4,82.4,70.8c11.6,15.1,26.8,27.3,39.6,41.3
		c16.3,17.7,27.3,21.4,51.3,17c20-3.6,49.1-2.2,49.8-27.9c0.4-18.7-1.3-38.9-1.8-57.8c-0.6-21.3,0.2-42.3,0.3-63.6
		c0.1-20.3-8.3-32.9-11.8-52c-7-38-17.4-80.5-43.6-109.8c-24.7-27.7-72.8-36.7-108.3-41.4c-21.3-2.8-42.4-0.6-63.5-4
		c-18.7-3-38.7-1.8-57.8-1.8c-38,0-82.3-6.7-119.9,1.5c-37.5,8.2-81.6-3.4-117,14c-15,7.3-31.4,23.2-40.6,37.5
		c-9.5,14.7-14.3,44.4,1.4,56.8c3.6,2.8,14.3,3.2,16.2,5.4c4.2,4.8,1.5,6.3,2.9,13c3.1,13.9,1.8,12.6-2.9,26
		c-3.1,8.7-7.9,15.4,5.6,19c6.2,1.7,6.8-2.5,11.8-3.1c2.6-0.3,14.8-2,17.3-3c10.6-4.2,16.3-15.1,26-18.8c9.9-3.8,19.8-4.2,30.3-9.3
		c20.8-10.1,34.4,1.1,46,19.9c8.8,14.2,26.2,37.8,4.6,50.2c-15.1,8.7-38.2,10.8-55,16.4c-17.7,5.9-13.9,7.1-2.8,18.3
		c5.7,5.7,16.4,14.8,20.2,21.6c4.3,7.8-0.6,17.1,2.9,24.6c6.7,14.2,15.3,4.8,26,9.1c10.7,4.3,9.9,13.1,8.7,25.5
		c-1.3,14-1.4,12.9-14.5,14.5c-7,0.9-21.5,2.7-26-2.9c-5.7-7.1,4.9-19.9-3.5-28.2c-4.7-4.7-17.4-6.5-23.9-8.6
		c-15-4.8-14.7-6.3-22.6-18c-8.1-12.1-2.9-11.2-19.3-6.6c-8.8,2.4-17.4,4.9-26,7.6c-19.6,6.1-39.4,13.8-58.6,4.3
		c-5.9-2.9-10.7-8.2-16.6-11.1c-3.4-1.6-8,0.7-11.6-1.4c-8.7-5.2-7.6-9.8-17.3-12c-13.8-3.2-23.5,5.5-33.3,12
		c-11.1,7.5-10.3,6.5-24.6,7.1c-23.3,1-34.1-5.9-54.9-14.4c-20.5-8.4-46.2-4.2-66.4-15.9c-14.6-8.4-23.1-27.4-34.7-39
		c-13-13-33.8-17.6-50.9-7.7c-16.4,9.5-17.9,29-20.1,45.2c-2.9,21.9-3.4,43.5-21.5,59.2c-15.2,13.2-27.3,15.8-46.2,20.7
		c-19.3,5-41,11.8-60.7,6.7c-19.6-5-36.2-18.1-54.8-23.9c-26.2-8.2-38.5-20.5-56.1-41.4c-10.7-12.6-24.4-29.2-39.9-36.3
		c-9.9-4.5-20.9-4.2-31-8.8c-10.4-4.6-20.7-12.9-31.8-16.8c-11.3-3.9-33.4-17.5-41.9-11.6c-9.4,6.6-8.3,25.5-11.6,34.7
		c-3.5,9.8-9.6,16.3-17.3,23.1c-13.7,12-25.9,20.6-37.8,34.7c-8.6,10.1-14.7,22.6-20,34.7c-4.4,10.1,1.8,15.8-11.6,23.1
		c-19.8,10.9-33.5-5.2-47.7-15.9c-16.7-12.5-29-27.4-8.7-44.8c8.6-7.3,19.5-9.1,27.8-17.6c6.8-7,9.9-14,13.7-22.7
		c10-22.9,9-37.5,3.5-60.7c-5-21-2.3-30.3,11.3-46.2c14.3-16.8,28.7-33.3,40.5-52c10-15.9,11-39.1,27.4-50.4
		c13.3-9.1,55.6-8.3,44.8-36.4c-7.8-20.1-40.4-2.3-56.3-2.5c-21.6-0.2-38.2-0.7-57.8,7.3c-10,4.1-18.9,10.8-28.7,14.6
		c-9.4,3.6-19.4,2.6-29,5.2c-21.1,5.7-41.2,13.6-57.8,28.2c-17.1,15-27.9,25.6-52,27.5c-19.9,1.6-45.9,0.6-60.5,16.4
		c-12.7,13.7-12.2,36.4-9.8,53.6c3,21.4,0.6,41.7,2.3,63.6c1.9,25.5,6.3,29.2,28.3,39.9c27.1,13.2,12.4,23.2,21.4,46.7
		c6.1,15.8,28.9,17.6,42.2,24.9c14.2,7.8,32.5,27.5,35.7,44.4c3.6,19.3-16.9,33.1-30.7,41.8c-18.9,11.9-27.8,29.3-46.2,42
		c-15.4,10.6-25.7,25.8-40.4,35.8c-15.4,10.5-35.9,20.5-55,16.8c-17.6-3.4-31.9-27.4-50.9-11.2c-7,6-13.6,16-20.1,25.7h98.6
		c0.7-0.2,1.5-0.4,2.2-0.7c20.1-7.1,31.3-19.7,46.2-34.7c7.2-7.2,14.8-17.2,23.1-23.1c8.6-6.2,19.2-8.1,27.1-15.4
		c11.2-10.3,12.2-25.3,26.9-32.8c8.2-4.2,12.1-2.2,19.2-9.6c6.1-6.4,10.6-17.2,12-26c2-12.5-10.7-36.4-2.9-45.9
		c9.5-11.6,7,1.2,14.9,3.7c6,1.9,12.8,2.8,18.7,6.1c14.3,7.9,19.8,27.5,36.2,31.6c11.6,2.9,35.1,1.4,44.3-4.1
		c14-8.5,14.1-28.2,19.3-42.5c4.3-11.7,9.5-24.9,18.2-35.6c7.5-9.3,24.7-20.9,36.6-22.5c15.7-2,36.2,7.9,41.7-9.2
		c3.6-11.3-8.8-39.8,11.7-33.8c1.3,0.4,10.5,7.7,13,8.7c10.2,4.3,19.2,3.3,28.9,11.5c8.3,7,9.7,7.4,17.4,11.4
		c7.2,3.7,10.8,5.3,17.3,11.7c5.5,5.5,15.9,12.3,19.3,19.3c6.6,13.3-3.9,10.7,12.4,15.4c9.9,2.9,11.8,4.7,20.1,9.9
		c8.2,5,12.7,3.6,21.3,7.5c9.6,4.2,15,14.9,23.1,21.2c8.6,6.6,10.6,3.3,19.2,7.7c5.2,2.6,6.7,8.9,11.6,11.6c2.8,1.6,8.5-1.6,11.6,0
		c1.7,0.9,6,7.3,7.8,7.8c6.6,1.8,1.1,1.1,7.5,0c1-0.2,5.8-6.8,7.8-7.8c4.1-2.1,9.3,0.6,13.6-1.6c10.1-5.1,2.6-8.4,13.8-7.1
		c-3.1-0.4,14.8,9.3,13.1,8.4c5.1,2.6,10.2,7.6,15.2,10.2c7.7,3.9,11.9,1.4,19.6,7.2c3.9,2.9,11.6,16.5,16.1,16.8
		c5.5,0.4,5-8.4,10.5-9.4c7.9-1.4,6.7,5.8,12.7,9.3c3.1,1.8,6.8-0.8,9.7,0.7c3.7,1.9,7,6,10.6,7.9c11.7,6,24.6,2.6,38.4,3.8
		c3.1,0.3,8.3-1.4,11.6,0c2.4,1,5.6,7.2,7.8,7.8c10.1,2.9,0.4,0.4,11.1-4.3c10.7-4.7,25-4.5,31.1-18.8c7.9-18.7-7.1-30.2,11.6-46.2
		c8.6-7.4,8.7-6,19.3-7.8c13.8-2.3,8.9,0.4,15.1-9.6c5.3-8.5,1.7-11.3,13.6-14c7.2-1.6,18.5,0.5,26.1,0.5c7.7,0,15.4,0,23.1,0
		c11.7,0,11,1.9,20.4,5.6c7.7,3,1.3,3.6,8.5,3.4c1.7-0.1,4.2-6,6.5-7.2c4.3-2.2,9.9,0.2,13.7-1.7c4.8-2.5,6.4-9.4,11.6-11.6
		c8-3.4,15.6,2.8,23.1,3.9c18,2.7,34.7-2.5,52-4.1c13-1.2,33.9-2.6,44.7,3.7c17.6,10.3,21.8,32.8,34.4,46.7
		c11,12.2,33.8,26,38.8,41.4c5.2,15.8-5.7,26.2,7.4,39.5c14.2,14.4,15.7,4.5,28.7-2.2c9.6-4.9,11.2,0.6,17.3-8.4
		c1.6-2.3,0.2-7.6,1.8-10.7c1.9-3.7,10.8-10.5,13.7-13.3c12.8,0,39.3-9.4,46.3,3.9c2.5,4.6,0.5,18,0,23.1c-1.2,12.5-5,11.3-10,21
		c-5.6,11,3,23.8,13.8,28.9c8.2,3.9,11.2,1.3,19.3,7.8c1.7,1.3,7.5,6.2,8.1,7.4c2.2,3.8,1.7,10.1,3.5,12.8c6.1,9,7.8,3.5,17.3,8.4
		c1.9,1,4.9,3.7,7.9,6.7h29.9c-2-9.5-5.4-18.5-12.5-28.1C1760.9,629.5,1756.9,613.4,1754,596z M1724.8,339.8c-14,14-0.1,27-7.7,42.3
		c-5.1,10.3-11.8,4-19.3,7.8c-4.8,2.4-6.5,9-11.6,11.6c-10.2,5.2-9.9-1.5-19.2,7.7c-7.4,7.3-5.8,10.4-5.8,21.1
		c10.6,10.6,10.8,12.8,25,13.4c8.4,0.4,21.2-3.4,27.8,3.1c12.1,12.1,2.5,41.9-8.4,50.9c-9.4,7.7-39.3,15.8-48.7,2.3
		c-7.7-11.1-9.8-43.1-9.8-57c-15.9,0-19.7-5.1-30.2-18.4c-9.8-12.4-5.5-3.4,0-15.6c2.1-4.6,1.6-10.7,3.8-15.3
		c5.6-11.9,20.4-15.5,23.5-28.8c2.1-9.3,2.2-34.4-1.9-42.6c-1.9-3.7-7.9-5.4-10-9.5c-2.9-5.6-0.3-9.8-3.8-15.3
		c-7.9-12.4-26.4-32.8-38.6-40.5c-22.9-14.5-56.1,4.4-79.1-7.4c-4.1-2.1-5.5-7.5-9.5-9.8c-5.6-3.2-10.9-0.9-17.5-5.6
		c-12.4-8.8-20.1-20.6-5.6-29.2c11.8-7,25.7,0.2,36.7-5.5c5-2.6,10.1-7.6,15.2-10.2c2-1,4.6,0.6,6.9-0.6c2.5-1.3,3.9-7.2,6.2-7.9
		c20.8-5.8,3.9,18.5,15.9,20.2c2.8,0.4,6.9-8.5,9.5-9.8c5.1-2.6,12.3-3.3,17.4-5.5c7.4-3.1,6.6-6.8,16.4-8.1
		c5.9-0.8,10.8,0.4,16.5-1.4c5.7-1.8,11.1-9.8,18.2-9.3c7.5,0.5,7.4,7.4,13.5,10.2c10.2,4.7,30,0.8,41.5,0.8c14.4,0,28.9,0,43.3,0
		c25,0,59.9-6.5,83.9-0.5c14.7,3.6,14.5,12.1,31.7,12.1c14.3,0,29-0.9,43.3,0c16.1,1,23.8,10.3,34.7,23.1c2.3,2.7,6.1,4.4,7.8,7.8
		c1.4,2.7-1.7,9.5,0,11.6c4.5,5.3,12.2,3.7,17.6,7.3c10.7,7.2,21,20.6,24.1,33.2c3.3,13.7,1.9,28.6,5.4,41.4
		c1.4,5,5.4,10.5,6.9,16.3c1.7,7.1,3.3,15.7,4.1,23.1c1.5,14.1-2.5,29.3-0.4,43.4c1.8,12.1,6.5,21.2,6.5,34.6
		c0.2,22.8-4.6,31.6-21.8,47.2c-32.6,29.6-61.7-19.3-84.8-42.3c-15.4-15.4-26-30.3-36.8-48c-8.4-13.7-0.2-29.1-7.2-42.7
		c-12.3-24.1-63.4-13.3-86-13.3C1748.8,332.2,1736,328.7,1724.8,339.8z"/>
	<path class="st2" d="M1764.3,332.2c22.5,0,73.7-10.8,86,13.3c7,13.6-1.2,29,7.2,42.7c10.9,17.7,21.4,32.6,36.8,48
		c23.1,23.1,52.2,71.9,84.8,42.3c17.2-15.6,22-24.5,21.8-47.2c-0.1-13.5-4.8-22.6-6.5-34.6c-2.1-14.1,1.9-29.2,0.4-43.4
		c-0.8-7.4-2.3-16-4.1-23.1c-1.4-5.8-5.5-11.3-6.9-16.3c-3.5-12.9-2.1-27.8-5.4-41.4c-3.1-12.6-13.4-25.9-24.1-33.2
		c-5.3-3.6-13.1-1.9-17.6-7.3c-1.7-2,1.4-8.8,0-11.6c-1.7-3.4-5.5-5.1-7.8-7.8c-10.9-12.8-18.6-22.1-34.7-23.1
		c-14.3-0.9-29,0-43.3,0c-17.2,0-17-8.5-31.7-12.1c-24-5.9-58.9,0.5-83.9,0.5c-14.4,0-28.9,0-43.3,0c-11.5,0-31.3,3.9-41.5-0.8
		c-6.1-2.8-5.9-9.7-13.5-10.2c-7.1-0.5-12.5,7.5-18.2,9.3c-5.6,1.8-10.6,0.6-16.5,1.4c-9.8,1.3-9,4.9-16.4,8.1
		c-5.2,2.2-12.3,2.9-17.4,5.5c-2.6,1.3-6.7,10.2-9.5,9.8c-11.9-1.7,4.9-26-15.9-20.2c-2.4,0.7-3.7,6.5-6.2,7.9
		c-2.2,1.2-4.8-0.4-6.9,0.6c-5.1,2.6-10.2,7.6-15.2,10.2c-11,5.6-24.9-1.6-36.7,5.5c-14.5,8.6-6.8,20.3,5.6,29.2
		c6.6,4.7,12,2.4,17.5,5.6c4,2.3,5.3,7.7,9.5,9.8c23,11.9,56.2-7.1,79.1,7.4c12.2,7.7,30.7,28.1,38.6,40.5c3.5,5.5,0.9,9.7,3.8,15.3
		c2.1,4.1,8.1,5.8,10,9.5c4.1,8.1,4.1,33.3,1.9,42.6c-3.1,13.4-17.8,16.9-23.5,28.8c-2.2,4.6-1.7,10.7-3.8,15.3
		c-5.5,12.2-9.8,3.1,0,15.6c10.5,13.3,14.3,18.4,30.2,18.4c0,13.9,2.1,45.9,9.8,57c9.4,13.5,39.2,5.4,48.7-2.3
		c11-9,20.6-38.7,8.4-50.9c-6.6-6.6-19.4-2.7-27.8-3.1c-14.2-0.7-14.4-2.9-25-13.4c0-10.7-1.6-13.8,5.8-21.1c9.3-9.2,9-2.5,19.2-7.7
		c5-2.5,6.7-9.1,11.6-11.6c7.5-3.8,14.3,2.5,19.3-7.8c7.6-15.3-6.3-28.4,7.7-42.3C1736,328.7,1748.8,332.2,1764.3,332.2z"/>
	<path class="st2" d="M2102.3,94.1c8.6,2.9,59.5,9.3,46.2-14.2c-4.1-7.2-24.9-4.6-31.9-7.9c-3.3-1.6-19.1-11.8-19.1-13.4
		c0-0.7,13.7-9.6,15-11.6c4-6.1,6.2-9.4,4-16.5c-2.7-8.8-19.6-20.7-29-18.4c-18.9,4.7-5.4,29.8-1.4,40.6
		C2089.9,62.8,2089.6,89.7,2102.3,94.1z"/>
</g>
</svg>
