<?xml version="1.0" encoding="utf-8"?>
<!-- Generator: Adobe Illustrator 21.1.0, SVG Export Plug-In . SVG Version: 6.00 Build 0)  -->
<svg version="1.1" id="Option_2:_Yellow" xmlns="http://www.w3.org/2000/svg" xmlns:xlink="http://www.w3.org/1999/xlink" x="0px"
	 y="0px" viewBox="0 0 30.5 32.6" style="enable-background:new 0 0 30.5 32.6;" xml:space="preserve">
<style type="text/css">
	.st0{fill:#FFFFFF;}
	.st1{fill:#012A3F;}
</style>
<g>
	<g>
		<path class="st0" d="M27.8,15c0-0.1-0.1-0.2-0.1-0.2c-0.8-1.8-1.7-3.7,1.4-7.3l0.2-0.2L29.1,7c-2.1-2.6-4-4.5-5.5-5.7l-0.3-0.2
			l-0.2,0.2c-1,1-2.2,1.5-3.5,1.5c-1.3,0-2.8-0.5-4.2-1.6l-0.2-0.2L15,1.3c-1.4,1-2.8,1.6-4.2,1.6c-1.3,0-2.5-0.5-3.5-1.5L7.1,1.1
			L6.8,1.3C5.3,2.5,3.5,4.5,1.4,7L1.2,7.3l0.2,0.2c3.1,3.6,2.2,5.4,1.4,7.3c0,0.1-0.1,0.2-0.1,0.2c-1.5,3.2-1.7,4.4-1.4,6.9
			c0.3,2.2,1,3.8,2.2,4.9c1.2,1.2,3,1.9,5.3,2.1c3.2,0.3,5.3,1,6.2,2.2l0.3,0.4l0.3-0.4c0.9-1.2,3-2,6.2-2.2c4.7-0.4,7-2.6,7.5-7
			C29.5,19.4,29.4,18.3,27.8,15"/>
		<g>
			<path class="st0" d="M28.8,14.5c-0.4-0.9-0.8-1.8-0.7-2.8c0.2-1.4,1.1-2.6,2-3.6c0.4-0.5,0.4-1.1,0-1.6c-1.8-2.2-3.7-4.4-5.9-6.2
				c-0.5-0.4-1.1-0.5-1.6,0c-2.1,2.1-4.5,1.5-6.8-0.1C15.5,0,15,0,14.7,0.2C12.4,1.8,10,2.4,7.9,0.3c-0.5-0.5-1.1-0.4-1.6,0
				c-2.2,1.8-4.1,4-5.9,6.2C0,7,0,7.6,0.4,8.1c0.9,1,1.8,2.2,2,3.5c0.1,0.9-0.2,1.8-0.6,2.6c-0.7,1.4-1.4,2.9-1.6,4.5
				c-0.3,1.5-0.1,3,0.2,4.4c0.6,3.2,2.7,5.6,5.8,6.5c2.6,0.7,6.4,0.1,8.1,2.5c0.5,0.7,1.4,0.7,2,0c1.3-1.8,4.1-1.9,6.2-2.1
				c2.1-0.3,4.3-1,5.8-2.6c1.5-1.7,2.1-3.8,2.2-6C30.6,18.8,29.8,16.7,28.8,14.5c-0.6-1.3-2.5-0.2-2,1.1c1,2.1,1.5,4,1.3,6.3
				c-0.2,1.9-0.9,3.7-2.6,4.7c-2,1.3-4.5,1-6.7,1.5c-1.9,0.4-3.4,1.2-4.6,2.8c0.7,0,1.3,0,2,0c-1.8-2.4-4.6-2.9-7.5-3.2
				c-1.6-0.2-3.3-0.6-4.5-1.7c-1.2-1.2-1.7-2.9-1.9-4.6c-0.1-1.4,0-2.7,0.5-4C3.3,16.1,4,15,4.4,13.7C5.3,10.9,3.7,8.5,2,6.5
				C2,7,2,7.5,2,8.1c1.8-2.2,3.7-4.4,5.9-6.2c-0.5,0-1.1,0-1.6,0c2.8,2.8,6.4,2.4,9.5,0.2c-0.4,0-0.8,0-1.1,0
				c3.1,2.2,6.7,2.6,9.5-0.2c-0.5,0-1.1,0-1.6,0c2.2,1.8,4.1,4,5.9,6.2c0-0.5,0-1.1,0-1.6c-1.2,1.4-2.4,3-2.7,5
				c-0.2,1.5,0.4,2.8,1,4.1C27.5,16.9,29.4,15.8,28.8,14.5L28.8,14.5z"/>
		</g>
	</g>
	<path class="st0" d="M25.6,15.3c0-0.1-0.1-0.1-0.1-0.2c-0.7-1.5-1.4-3,1.1-6l0.2-0.2l-0.2-0.2C24.9,6.6,23.4,5,22.1,4l-0.2-0.2
		L21.7,4c-0.8,0.8-1.8,1.3-2.9,1.3c-1.1,0-2.3-0.4-3.4-1.3l-0.2-0.1L15.1,4c-1.2,0.8-2.3,1.3-3.4,1.3c-1.1,0-2.1-0.4-2.9-1.3
		L8.6,3.8L8.3,4C7.1,5,5.6,6.6,3.9,8.7L3.7,8.9l0.2,0.2C6.4,12,5.7,13.6,5,15c0,0.1-0.1,0.1-0.1,0.2c-1.2,2.6-1.4,3.6-1.2,5.6
		c0.2,1.8,0.8,3.1,1.8,4c1,1,2.5,1.5,4.4,1.7c2.6,0.2,4.4,0.8,5.1,1.8l0.2,0.3l0.2-0.3c0.7-1,2.5-1.6,5.1-1.8
		c3.8-0.3,5.8-2.1,6.2-5.7C27,18.9,26.8,18,25.6,15.3"/>
	<g>
		<path class="st1" d="M26.2,14.9c-0.1-0.2-0.2-0.4-0.3-0.7c-0.1-0.2,0.1,0.1,0-0.1c0,0,0-0.1,0-0.1c0-0.1-0.1-0.2-0.1-0.3
			c-0.1-0.2-0.1-0.4-0.2-0.6c0,0.1,0-0.1,0-0.2c0-0.1,0-0.3,0-0.4c0,0,0-0.2,0-0.1c0-0.1,0-0.1,0-0.2c0-0.1,0.1-0.3,0.1-0.4
			c0.1-0.3,0.2-0.5,0.4-0.8c0.3-0.6,0.8-1.1,1.2-1.6c0.3-0.3,0.3-0.7,0-1.1c-1.5-1.8-3-3.6-4.9-5.1c-0.3-0.2-0.7-0.3-1.1,0
			c-0.7,0.8-1.6,1.3-2.7,1.2c-1.2,0-2.2-0.6-3.1-1.3c-0.2-0.1-0.6-0.1-0.8,0c-0.9,0.7-2,1.3-3.1,1.3c-1.1,0-1.9-0.5-2.7-1.2
			C8.8,3,8.3,3.1,8,3.3C6.2,4.8,4.7,6.6,3.2,8.4c-0.3,0.3-0.3,0.7,0,1.1c0.6,0.7,1.2,1.4,1.5,2.3c0.1,0.2,0.1,0.4,0.2,0.6
			c0,0,0,0.2,0,0.1c0,0.1,0,0.2,0,0.3c0,0.2,0,0.3,0,0.5c0-0.1,0,0.1,0,0.1c0,0.1,0,0.2-0.1,0.3c0,0.1-0.1,0.3-0.1,0.4
			c0,0.1-0.1,0.1-0.1,0.2c0,0,0,0.1,0,0c0-0.1,0,0.1,0,0.1c-0.2,0.4-0.4,0.9-0.6,1.3c-0.4,0.9-0.8,1.8-0.9,2.8
			c-0.1,0.9-0.1,1.9,0,2.8c0.2,1.1,0.5,2.2,1.1,3.1c1.2,1.9,3.3,2.7,5.4,3c1.2,0.1,2.5,0.2,3.6,0.7c0.2,0.1,0.3,0.1,0.5,0.3
			c0.1,0.1,0.2,0.1,0.3,0.2c0,0,0.1,0,0.1,0.1c0.1,0.1,0,0,0.1,0c0.1,0.1,0.1,0.1,0.2,0.2c0,0,0.1,0.2,0.1,0.1
			c0.1,0.1,0.2,0.2,0.2,0.3c0.4,0.5,0.9,0.5,1.3,0c0.1-0.1,0.1-0.2,0.2-0.2c0.1-0.2,0,0,0.1-0.1c0.2-0.2,0.3-0.3,0.6-0.5
			c0.6-0.4,1.3-0.5,2-0.7c1.6-0.3,3.3-0.3,4.9-0.9c1.3-0.5,2.3-1.4,3-2.6c0.7-1.3,0.9-2.8,1-4.2C27.6,18.1,27,16.5,26.2,14.9
			c-0.2-0.4-0.7-0.5-1-0.3c-0.4,0.2-0.4,0.7-0.3,1c0.4,0.8,0.7,1.5,0.9,2.4c0.1,0.3,0.1,0.5,0.2,0.8c0-0.1,0,0.1,0,0.1
			c0,0.1,0,0.2,0,0.2c0,0.2,0,0.3,0,0.5c0,1.3-0.2,2.6-0.8,3.7c-0.5,1-1.4,1.7-2.4,2.1c-1.5,0.6-3.2,0.5-4.8,0.9
			c-0.8,0.2-1.5,0.4-2.2,0.9c-0.5,0.3-0.9,0.8-1.3,1.3c0.4,0,0.9,0,1.3,0c-0.4-0.6-0.9-1.1-1.5-1.4c-0.9-0.5-1.9-0.7-2.9-0.9
			c-1.2-0.2-2.4-0.2-3.5-0.6c-0.9-0.3-1.7-0.8-2.3-1.5c-0.7-0.8-1-1.8-1.2-2.7c-0.1-0.5-0.1-1-0.2-1.4c0-0.2,0-0.4,0-0.6
			c0-0.1,0-0.2,0-0.3c0-0.1,0-0.3,0-0.2c0.1-1,0.5-1.9,0.9-2.8c0.3-0.7,0.7-1.4,0.9-2.1c0.6-2.1-0.7-4-2-5.5c0,0.4,0,0.7,0,1.1
			c1.5-1.8,3-3.6,4.9-5.1c-0.4,0-0.7,0-1.1,0c1,1,2.2,1.7,3.6,1.7c1.5,0,2.8-0.7,4-1.5c-0.3,0-0.5,0-0.8,0C16,5.4,17.4,6,18.9,6
			c1.4,0,2.6-0.7,3.6-1.7c-0.4,0-0.7,0-1.1,0c1.8,1.5,3.4,3.2,4.9,5.1c0-0.4,0-0.7,0-1.1c-1,1.2-2,2.5-2.1,4.1
			c-0.1,1.2,0.4,2.2,0.8,3.2c0.2,0.4,0.7,0.5,1,0.3C26.3,15.7,26.4,15.2,26.2,14.9L26.2,14.9z"/>
	</g>
	<path class="st1" d="M17.1,15.7c-1.1-0.3-2.2-0.1-3.1,0.5c0-1,0-2,0-3.1C14,13,14,13,13.9,13c-0.7,0-1.3,0-2,0
		c-0.1,0-0.2,0.1-0.2,0.2c0,3,0,6,0,9c0,0.4,0,0.9,0,1.3c0,0.1,0.1,0.2,0.2,0.2c0.7,0,1.3,0,2,0c0.1,0,0.2-0.1,0.2-0.2
		c0-0.1,0-0.2,0-0.4c0.6,0.5,1.3,0.7,2.1,0.7c2,0,3.5-1.5,3.7-3.5C20.1,18.3,19.1,16.2,17.1,15.7z M14.2,18.1
		c0.1-0.1,0.1-0.1,0.2-0.1c0.3-0.2,0.7-0.3,1.1-0.3c1,0,1.7,0.6,1.8,1.6c0.1,0.9-0.3,1.9-1.3,2.2c-0.6,0.2-1.2,0-1.7-0.3
		c-0.1-0.1-0.3-0.1-0.3-0.2c0,0,0,0.1,0,0c0-0.1,0-0.2,0-0.2c0-0.6,0-1.3,0-1.9c0-0.2-0.1-0.5,0-0.7c0-0.1,0,0,0,0
		C14,18.3,14.2,18.1,14.2,18.1z"/>
	<g>
		<path class="st1" d="M12.3,9c0.2,0,0.3,0,0.5,0c2.5,0,4.5,2,4.5,4.5c0,0.2,0,0.3,0,0.5c0,0.1,0,0.2,0.1,0.2c0.1,0,1,0,1.1,0
			c0.1,0,0.2-0.1,0.2-0.2c0-0.2,0-0.3,0-0.5c0-3.2-2.6-5.8-5.8-5.8c-0.1,0-0.3,0-0.4,0c-0.2,0-0.2,0.1-0.2,0.2c0,0.1,0,1,0,1
			S12.1,9,12.3,9z"/>
		<path class="st1" d="M12.3,11.5c0.2,0,0.3-0.1,0.5-0.1c1.1,0,2,0.9,2,2c0,0.2,0,0.3-0.1,0.5c0,0.1,0,0.1,0.1,0.1c0,0,1,0,1,0
			c0.1,0,0.1,0,0.1-0.1c0-0.2,0-0.3,0-0.5c0-1.8-1.5-3.3-3.3-3.3c-0.2,0-0.4,0-0.5,0c-0.1,0-0.1,0.1-0.1,0.2c0,0.1,0,0.9,0,0.9
			C12.1,11.4,12.2,11.5,12.3,11.5z"/>
	</g>
</g>
</svg>
