<?xml version="1.0" encoding="utf-8"?>
<!-- Generator: Adobe Illustrator 21.1.0, SVG Export Plug-In . SVG Version: 6.00 Build 0)  -->
<svg version="1.1" id="Isolation_Mode" xmlns="http://www.w3.org/2000/svg" xmlns:xlink="http://www.w3.org/1999/xlink" x="0px"
	 y="0px" viewBox="0 0 51.2 51.2" style="enable-background:new 0 0 51.2 51.2;" xml:space="preserve">
<style type="text/css">
	.st0{fill:#0F3557;}
</style>
<g>
	<path class="st0" d="M51.2,8.8c0-2.7-2.2-4.8-4.8-4.8h-5.1V1.6c0-0.9-0.7-1.6-1.6-1.6c-0.9,0-1.6,0.7-1.6,1.6v2.3H13V1.6
		C13,0.7,12.3,0,11.4,0c-0.9,0-1.6,0.7-1.6,1.6v2.3h-5C2.2,3.9,0,6.1,0,8.8v7.4c0,0.1,0,0.2,0.1,0.3C0,16.5,0,16.6,0,16.6
		c0,0,0,0,0,0s0,0,0,0v29.7c0,2.7,2.2,4.8,4.8,4.8h41.6c2.6,0,4.8-2.2,4.8-4.8V16.7c0,0,0,0,0,0c0,0,0,0,0,0c0-0.1,0-0.2-0.1-0.2
		c0-0.1,0.1-0.2,0.1-0.3V8.8z M48,46.4c0,0.9-0.7,1.6-1.6,1.6H4.8c-0.9,0-1.6-0.7-1.6-1.6V18.3H48V46.4z M48,15H3.2V8.8
		c0-0.9,0.7-1.6,1.6-1.6h5v2.3c0,0.9,0.7,1.6,1.6,1.6c0.9,0,1.6-0.7,1.6-1.6V7.2h25.1v2.3c0,0.9,0.7,1.6,1.6,1.6
		c0.9,0,1.6-0.7,1.6-1.6V7.2h5.1c0.9,0,1.6,0.7,1.6,1.6V15z M48,15"/>
	<path class="st0" d="M18.5,27.1c0,0.9-0.7,1.6-1.6,1.6c-0.9,0-1.6-0.7-1.6-1.6c0-0.9,0.7-1.6,1.6-1.6
		C17.8,25.4,18.5,26.2,18.5,27.1L18.5,27.1z M18.5,27.1"/>
	<path class="st0" d="M26.3,27.1c0,0.9-0.7,1.6-1.6,1.6c-0.9,0-1.6-0.7-1.6-1.6c0-0.9,0.7-1.6,1.6-1.6
		C25.6,25.4,26.3,26.2,26.3,27.1L26.3,27.1z M26.3,27.1"/>
	<path class="st0" d="M34.9,27.1c0,0.9-0.7,1.6-1.6,1.6c-0.9,0-1.6-0.7-1.6-1.6c0-0.9,0.7-1.6,1.6-1.6
		C34.2,25.4,34.9,26.2,34.9,27.1L34.9,27.1z M34.9,27.1"/>
	<path class="st0" d="M43.8,27.1c0,0.9-0.7,1.6-1.6,1.6c-0.9,0-1.6-0.7-1.6-1.6c0-0.9,0.7-1.6,1.6-1.6C43,25.4,43.8,26.2,43.8,27.1
		L43.8,27.1z M43.8,27.1"/>
	<path class="st0" d="M10.6,32.6c0,0.9-0.7,1.6-1.6,1.6c-0.9,0-1.6-0.7-1.6-1.6C7.4,31.8,8.2,31,9,31C9.9,31,10.6,31.8,10.6,32.6
		L10.6,32.6z M10.6,32.6"/>
	<path class="st0" d="M18.5,32.6c0,0.9-0.7,1.6-1.6,1.6c-0.9,0-1.6-0.7-1.6-1.6c0-0.9,0.7-1.6,1.6-1.6C17.8,31,18.5,31.8,18.5,32.6
		L18.5,32.6z M18.5,32.6"/>
	<path class="st0" d="M26.3,32.6c0,0.9-0.7,1.6-1.6,1.6c-0.9,0-1.6-0.7-1.6-1.6c0-0.9,0.7-1.6,1.6-1.6C25.6,31,26.3,31.8,26.3,32.6
		L26.3,32.6z M26.3,32.6"/>
	<path class="st0" d="M34.9,32.6c0,0.9-0.7,1.6-1.6,1.6c-0.9,0-1.6-0.7-1.6-1.6c0-0.9,0.7-1.6,1.6-1.6C34.2,31,34.9,31.8,34.9,32.6
		L34.9,32.6z M34.9,32.6"/>
	<path class="st0" d="M43.8,32.6c0,0.9-0.7,1.6-1.6,1.6c-0.9,0-1.6-0.7-1.6-1.6c0-0.9,0.7-1.6,1.6-1.6C43,31,43.8,31.8,43.8,32.6
		L43.8,32.6z M43.8,32.6"/>
	<path class="st0" d="M10.6,38.2c0,0.9-0.7,1.6-1.6,1.6c-0.9,0-1.6-0.7-1.6-1.6c0-0.9,0.7-1.6,1.6-1.6C9.9,36.6,10.6,37.3,10.6,38.2
		L10.6,38.2z M10.6,38.2"/>
	<path class="st0" d="M18.5,38.2c0,0.9-0.7,1.6-1.6,1.6c-0.9,0-1.6-0.7-1.6-1.6c0-0.9,0.7-1.6,1.6-1.6
		C17.8,36.6,18.5,37.3,18.5,38.2L18.5,38.2z M18.5,38.2"/>
	<path class="st0" d="M26.3,38.2c0,0.9-0.7,1.6-1.6,1.6c-0.9,0-1.6-0.7-1.6-1.6c0-0.9,0.7-1.6,1.6-1.6
		C25.6,36.6,26.3,37.3,26.3,38.2L26.3,38.2z M26.3,38.2"/>
	<path class="st0" d="M34.9,38.2c0,0.9-0.7,1.6-1.6,1.6c-0.9,0-1.6-0.7-1.6-1.6c0-0.9,0.7-1.6,1.6-1.6
		C34.2,36.6,34.9,37.3,34.9,38.2L34.9,38.2z M34.9,38.2"/>
	<path class="st0" d="M43.8,38.2c0,0.9-0.7,1.6-1.6,1.6c-0.9,0-1.6-0.7-1.6-1.6c0-0.9,0.7-1.6,1.6-1.6C43,36.6,43.8,37.3,43.8,38.2
		L43.8,38.2z M43.8,38.2"/>
	<path class="st0" d="M10.6,43.8c0,0.9-0.7,1.6-1.6,1.6c-0.9,0-1.6-0.7-1.6-1.6c0-0.9,0.7-1.6,1.6-1.6C9.9,42.2,10.6,42.9,10.6,43.8
		L10.6,43.8z M10.6,43.8"/>
	<path class="st0" d="M18.5,43.8c0,0.9-0.7,1.6-1.6,1.6c-0.9,0-1.6-0.7-1.6-1.6c0-0.9,0.7-1.6,1.6-1.6
		C17.8,42.2,18.5,42.9,18.5,43.8L18.5,43.8z M18.5,43.8"/>
	<path class="st0" d="M26.3,43.8c0,0.9-0.7,1.6-1.6,1.6c-0.9,0-1.6-0.7-1.6-1.6c0-0.9,0.7-1.6,1.6-1.6
		C25.6,42.2,26.3,42.9,26.3,43.8L26.3,43.8z M26.3,43.8"/>
</g>
</svg>
