<?xml version="1.0" encoding="utf-8"?>
<!-- Generator: Adobe Illustrator 21.1.0, SVG Export Plug-In . SVG Version: 6.00 Build 0)  -->
<svg version="1.1" id="Layer_1" xmlns="http://www.w3.org/2000/svg" xmlns:xlink="http://www.w3.org/1999/xlink" x="0px" y="0px"
	 viewBox="0 0 72.6 40.3" style="enable-background:new 0 0 72.6 40.3;" xml:space="preserve">
<style type="text/css">
	.st0{fill:#FFFFFF;}
</style>
<path class="st0" d="M72.4,38.5L50.9,0.6C50.7,0.2,50.3,0,49.8,0H22.8c-0.1,0-0.2,0-0.4,0.1c-0.1,0-0.1,0.1-0.3,0.1
	c-0.1,0.1-0.2,0.1-0.2,0.2c-0.1,0.1-0.1,0.1-0.2,0.3L0.2,38.5C0,38.8,0,39.1,0,39.4c0.1,0.3,0.3,0.6,0.6,0.7
	c0.2,0.1,0.4,0.2,0.5,0.2l0.1,0l0.1,0l42.8,0l0,0h9.6v0h17.6c0.4,0,0.8-0.2,1.1-0.6C72.6,39.4,72.6,38.9,72.4,38.5z M21.5,6v31.9
	H3.3L21.5,6z M23.9,37.9V5.7l18.3,32.2H23.9z M53.7,37.9h-2.4H45L24.8,2.4h24.3l20.1,35.5H53.7z"/>
</svg>
