<?xml version="1.0" encoding="utf-8"?>
<!-- Generator: Adobe Illustrator 17.1.0, SVG Export Plug-In . SVG Version: 6.00 Build 0)  -->
<!DOCTYPE svg PUBLIC "-//W3C//DTD SVG 1.1//EN" "http://www.w3.org/Graphics/SVG/1.1/DTD/svg11.dtd">
<svg version="1.1" id="Layer_1" xmlns="http://www.w3.org/2000/svg" xmlns:xlink="http://www.w3.org/1999/xlink" x="0px" y="0px"
	 viewBox="0 0 54.5 54.5" enable-background="new 0 0 54.5 54.5" xml:space="preserve">
<g>
	<defs>
		<rect id="SVGID_1_" y="0" width="54.5" height="54.5"/>
	</defs>
	<clipPath id="SVGID_2_">
		<use xlink:href="#SVGID_1_"  overflow="visible"/>
	</clipPath>
	<path clip-path="url(#SVGID_2_)" fill="#FFFFFF" d="M36.3,0c-10,0-18.2,8.2-18.2,18.2c0,2.4,0.5,4.9,1.3,6.9L0.3,44.2
		C0.1,44.4,0,44.6,0,44.9v8.6c0,0.6,0.5,1,1,1h8.6c0.3,0,0.6-0.1,0.7-0.3l3.5-3.8c0.2-0.2,0.3-0.4,0.3-0.6l0.1-2.1l2.1-0.2
		c0.2,0,0.4-0.1,0.6-0.2l2.9-2.5c0.2-0.2,0.4-0.5,0.4-0.8v-1.6H22c0.3,0,0.5-0.1,0.7-0.3l2.6-2.7h1.5c0.3,0,0.5-0.1,0.7-0.3l3.5-3.5
		c1.8,0.5,3.6,0.8,5.4,0.8c10,0,18.2-8.2,18.2-18.2C54.5,8.2,46.3,0,36.3,0 M26.4,37.3h-1.5c-0.3,0-0.5,0.1-0.7,0.3l-2.6,2.7h-2.4
		c-0.6,0-1,0.5-1,1v2.1l-2.3,2l-2.6,0.2c-0.5,0-0.9,0.4-0.9,0.9l-0.2,2.6l-3,3.2H4.5l20.2-20.2c1.3,1,2.7,1.9,4.2,2.5L26.4,37.3z
		 M36.3,34.4c-3.9,0-8.2-1.6-11.1-4.3c-0.4-0.4-1.1-0.3-1.4,0.1c-0.1,0.1-0.2,0.3-0.2,0.4c0,0,0,0,0,0L2.3,51.8
		C2.1,52,2,52.2,2,52.5v-7.2l18.8-18.8l0.6-0.6c0.3-0.3,0.4-0.8,0.2-1.2c-0.9-1.7-1.4-4.3-1.4-6.6C20.2,9.3,27.4,2,36.3,2
		s16.2,7.3,16.2,16.2C52.5,27.1,45.2,34.4,36.3,34.4"/>
	<path clip-path="url(#SVGID_2_)" fill="#FFFFFF" d="M41.6,7.6c-2.9,0-5.3,2.4-5.3,5.3c0,2.9,2.4,5.3,5.3,5.3c2.9,0,5.3-2.4,5.3-5.3
		C46.9,10,44.5,7.6,41.6,7.6 M41.6,16.2c-1.8,0-3.3-1.5-3.3-3.3c0-1.8,1.5-3.3,3.3-3.3c1.8,0,3.3,1.5,3.3,3.3
		C44.9,14.7,43.4,16.2,41.6,16.2"/>
</g>
</svg>
