<?xml version="1.0" encoding="utf-8"?>
<!-- Generator: Adobe Illustrator 17.1.0, SVG Export Plug-In . SVG Version: 6.00 Build 0)  -->
<!DOCTYPE svg PUBLIC "-//W3C//DTD SVG 1.1//EN" "http://www.w3.org/Graphics/SVG/1.1/DTD/svg11.dtd">
<svg version="1.1" id="Layer_1" xmlns="http://www.w3.org/2000/svg" xmlns:xlink="http://www.w3.org/1999/xlink" x="0px" y="0px"
	 viewBox="0 0 62 50.7" enable-background="new 0 0 62 50.7" xml:space="preserve">
<g>
	<defs>
		<rect id="SVGID_1_" y="0" width="62" height="50.7"/>
	</defs>
	<clipPath id="SVGID_2_">
		<use xlink:href="#SVGID_1_"  overflow="visible"/>
	</clipPath>
	<path clip-path="url(#SVGID_2_)" fill="#FFFFFF" d="M61.6,26.1l-7.5-6.5V5.7l0.3-0.1c0.6-0.1,1-0.6,1-1.2c0-0.7-0.5-1.2-1.2-1.2
		H42.9c-0.7,0-1.2,0.5-1.2,1.2c0,0.6,0.4,1.1,1,1.2L43,5.7V10L31.8,0.3C31.6,0.1,31.3,0,31,0s-0.6,0.1-0.8,0.3L0.4,26.1
		c-0.5,0.4-0.6,1.2-0.1,1.7c0.2,0.3,0.6,0.4,0.9,0.4c0.3,0,0.6-0.1,0.8-0.3l5.9-5.2v25.5h-3c-0.7,0-1.2,0.5-1.2,1.2
		c0,0.7,0.5,1.2,1.2,1.2H57c0.7,0,1.2-0.5,1.2-1.2c0-0.7-0.5-1.2-1.2-1.2h-3V22.8l5.9,5.2c0.2,0.2,0.5,0.3,0.8,0.3
		c0.3,0,0.7-0.2,0.9-0.4c0.2-0.2,0.3-0.6,0.3-0.9C62,26.6,61.8,26.3,61.6,26.1 M51.7,48.2H10.3V20.7L31,2.8l20.7,17.9V48.2z
		 M51.7,17.5l-6.3-5.5V5.6h6.3V17.5z"/>
</g>
</svg>
