<?xml version="1.0" encoding="utf-8"?>
<!-- Generator: Adobe Illustrator 17.1.0, SVG Export Plug-In . SVG Version: 6.00 Build 0)  -->
<!DOCTYPE svg PUBLIC "-//W3C//DTD SVG 1.1//EN" "http://www.w3.org/Graphics/SVG/1.1/DTD/svg11.dtd">
<svg version="1.1" id="Layer_1" xmlns="http://www.w3.org/2000/svg" xmlns:xlink="http://www.w3.org/1999/xlink" x="0px" y="0px"
	 viewBox="0 0 47 49.7" enable-background="new 0 0 47 49.7" xml:space="preserve">
<g>
	<defs>
		<rect id="SVGID_1_" y="0" width="47" height="49.7"/>
	</defs>
	<clipPath id="SVGID_2_">
		<use xlink:href="#SVGID_1_"  overflow="visible"/>
	</clipPath>
	<path clip-path="url(#SVGID_2_)" fill="#FDFEFE" d="M23.5,13.3c3.7,0,6.7-3,6.7-6.7c0-3.7-3-6.7-6.7-6.7c-3.7,0-6.7,3-6.7,6.7
		C16.9,10.3,19.9,13.3,23.5,13.3 M23.5,2.4c2.4,0,4.3,1.9,4.3,4.3c0,2.4-1.9,4.3-4.3,4.3c-2.4,0-4.3-1.9-4.3-4.3
		C19.3,4.3,21.2,2.4,23.5,2.4"/>
	<path clip-path="url(#SVGID_2_)" fill="#FDFEFE" d="M38.3,18.9c3.7,0,6.7-3,6.7-6.7c0-3.7-3-6.7-6.7-6.7c-3.7,0-6.7,3-6.7,6.7
		C31.7,15.9,34.7,18.9,38.3,18.9 M38.3,8c2.4,0,4.3,1.9,4.3,4.3c0,2.4-1.9,4.3-4.3,4.3c-2.4,0-4.3-1.9-4.3-4.3C34.1,9.9,36,8,38.3,8
		"/>
	<path clip-path="url(#SVGID_2_)" fill="#FDFEFE" d="M8.7,18.9c3.7,0,6.7-3,6.7-6.7c0-3.7-3-6.7-6.7-6.7C5,5.6,2,8.6,2,12.2
		C2,15.9,5,18.9,8.7,18.9 M8.7,8c2.4,0,4.3,1.9,4.3,4.3c0,2.4-1.9,4.3-4.3,4.3c-2.4,0-4.3-1.9-4.3-4.3C4.4,9.9,6.3,8,8.7,8"/>
	<path clip-path="url(#SVGID_2_)" fill="#FDFEFE" d="M47,33.9l0-6.7c0-1.5-0.6-2.8-1.6-3.9c-1-1-2.4-1.6-3.9-1.6h0h-8.1v-0.2
		c0-1.5-0.6-2.8-1.6-3.9c-1-1-2.4-1.6-3.9-1.6h0h-8.8c-3,0-5.5,2.5-5.5,5.5v0.2H5.5h0c-1.5,0-2.8,0.6-3.9,1.6c-1,1-1.6,2.4-1.6,3.9
		l0,6.7c0,1.5,0.6,2.8,1.6,3.9c0.7,0.7,1.7,1.3,2.7,1.5l0,9.2c0,0.3,0.1,0.6,0.3,0.8c0.2,0.2,0.5,0.4,0.9,0.4h8.8h0h4.9c0,0,0,0,0,0
		h0c0,0,0,0,0,0h8.8h0h4.8h0h8.8c0.3,0,0.6-0.1,0.8-0.4c0.2-0.2,0.4-0.5,0.4-0.8l0-9.2c1-0.2,1.9-0.7,2.7-1.5
		C46.5,36.7,47,35.3,47,33.9 M19.1,18.4h8.8h0c0.8,0,1.6,0.3,2.2,0.9c0.6,0.6,0.9,1.4,0.9,2.2v9.8c0,0.8-0.3,1.6-0.9,2.2
		c-0.6,0.6-1.4,0.9-2.2,0.9c-0.3,0-0.6,0.1-0.8,0.4c-0.2,0.2-0.4,0.5-0.4,0.8l0,11.8h-6.4l0-11.7c0-0.3-0.1-0.6-0.4-0.8
		c-0.2-0.2-0.5-0.4-0.8-0.4h0c-0.8,0-1.6-0.3-2.2-0.9c-0.6-0.6-0.9-1.4-0.9-2.2l0-8.4v0v-1.4C16,19.7,17.4,18.4,19.1,18.4
		 M31.6,47.3h-2.5l0-9.3c0.7,0.6,1.5,1.1,2.5,1.3L31.6,47.3z M15.5,39.3c0.9-0.2,1.8-0.7,2.5-1.3l0,9.3h-2.5L15.5,39.3z M6.3,37.3
		C6.1,37.1,5.8,37,5.5,37c-0.8,0-1.6-0.3-2.2-0.9s-0.9-1.4-0.9-2.2l0-6.7c0-0.8,0.3-1.6,0.9-2.2c0.6-0.6,1.4-0.9,2.2-0.9h0h8.1
		l0,7.2c0,1.5,0.6,2.8,1.6,3.9c0.4,0.4,0.8,0.7,1.2,0.9c-0.6,0.6-1.3,0.9-2.2,0.9c-0.3,0-0.6,0.1-0.8,0.4c-0.2,0.2-0.4,0.5-0.4,0.8
		l0,9.1H6.7l0-9.1C6.7,37.9,6.6,37.6,6.3,37.3 M43.7,36.1c-0.6,0.6-1.4,0.9-2.2,0.9c-0.3,0-0.6,0.1-0.8,0.4
		c-0.2,0.2-0.4,0.5-0.4,0.8l0,9.1H34l0-9.1c0-0.3-0.1-0.6-0.4-0.8c-0.2-0.2-0.5-0.4-0.8-0.4c-0.9,0-1.6-0.4-2.2-1
		c0.4-0.2,0.8-0.5,1.2-0.9c1-1,1.6-2.4,1.6-3.9v-7.2h8.1h0c0.8,0,1.6,0.3,2.2,0.9c0.6,0.6,0.9,1.4,0.9,2.2l0,6.7
		C44.6,34.7,44.3,35.5,43.7,36.1"/>
</g>
</svg>
