<?xml version="1.0" encoding="utf-8"?>
<!-- Generator: Adobe Illustrator 17.1.0, SVG Export Plug-In . SVG Version: 6.00 Build 0)  -->
<!DOCTYPE svg PUBLIC "-//W3C//DTD SVG 1.1//EN" "http://www.w3.org/Graphics/SVG/1.1/DTD/svg11.dtd">
<svg version="1.1" id="Layer_1" xmlns="http://www.w3.org/2000/svg" xmlns:xlink="http://www.w3.org/1999/xlink" x="0px" y="0px"
	 viewBox="0 0 72 55.9" enable-background="new 0 0 72 55.9" xml:space="preserve">
<g>
	<defs>
		<rect id="SVGID_1_" y="0" width="72" height="55.9"/>
	</defs>
	<clipPath id="SVGID_2_">
		<use xlink:href="#SVGID_1_"  overflow="visible"/>
	</clipPath>
	<path clip-path="url(#SVGID_2_)" fill="#F9F9FA" d="M71.9,15.9c0,0,0-0.1-0.1-0.2l-0.1-0.1l-0.1-0.1l-0.1-0.1l-0.1-0.1l-0.1,0
		c0,0-0.1,0-0.1-0.1c-2.5-1.1-4.2-3.6-4.2-6.4c0-2.8,1.6-5.3,4.2-6.4c0,0,0.2-0.1,0.2-0.1l0.2-0.1l0.1-0.2l0.1-0.2c0,0,0-0.2,0-0.2
		l0-0.2l0-0.2c0,0,0-0.1,0-0.1l0-0.1c0,0,0-0.1-0.1-0.1l-0.1-0.1l-0.1-0.2l-0.1-0.1c0,0,0,0-0.1-0.1c0,0-0.1,0-0.1-0.1
		c-1-0.3-2-0.5-3-0.5c-4.9,0-8.9,4-8.9,8.9s4,8.9,8.9,8.9c1,0,2-0.2,3-0.5c0.1,0,0.1-0.1,0.2-0.1c0.1,0,0.1-0.1,0.2-0.2
		c0.1-0.1,0.1-0.2,0.1-0.2l0-0.1l0,0c0,0,0-0.1,0-0.1l0-0.2l0-0.2C71.9,16,71.9,16,71.9,15.9 M67.3,15.5c-3.3-0.5-5.8-3.3-5.8-6.7
		s2.5-6.2,5.8-6.7L68,2.1l-0.5,0.5C65.9,4.4,65,6.6,65,8.9c0,2.3,0.9,4.5,2.5,6.2l0.5,0.5L67.3,15.5z"/>
	<path clip-path="url(#SVGID_2_)" fill="#F9F9FA" d="M12.6,6.2c0-0.5-0.1-1.1-0.2-1.6c-0.7-2.4-2.6-4-4.8-4c-2.8,0-5.1,2.6-5.1,5.9
		c0,0.6,0.1,1.2,0.3,1.8C1.1,9.6,0,12.2,0,15c0,2.2,0.7,4.3,1.9,5.8c0,0.4-0.1,0.8-0.1,1.2c0,4.3,2.2,7.8,5.2,8.4c0,0,0,0,0,0v21.7
		c0,0.6,0.5,1.2,1.2,1.2h0c0.6,0,1.2-0.5,1.2-1.2V30.4c0,0,0-0.1,0-0.1c2.8-0.8,4.8-4.2,4.8-8.3c0-0.7-0.1-1.4-0.2-2.1
		c1.5-1.4,2.4-3.8,2.4-6.4C16.4,10.2,14.9,7.3,12.6,6.2 M12,18.5l-0.7,0.5l0.2,0.8c0.2,0.7,0.3,1.5,0.3,2.2c0,3.3-1.7,6.1-3.8,6.1
		S4.2,25.3,4.2,22c0-0.5,0-0.9,0.1-1.4L4.4,20L4,19.5c-1-1-1.6-2.7-1.6-4.6c0-2.4,1-4.5,2.4-5.1l1.1-0.5L5.4,8.3
		C5.1,7.7,5,7.1,5,6.4C5,4.5,6.1,3,7.6,3c1.1,0,2.1,0.9,2.5,2.2c0.2,0.7,0.2,1.6,0.1,1.7L10.1,8l1.1,0.2c1.4,0.3,2.9,2.4,2.9,5.3
		C14,15.7,13.2,17.6,12,18.5"/>
	<path clip-path="url(#SVGID_2_)" fill="#F9F9FA" d="M59.2,18.3h-1c-0.1,0-0.3,0-0.4,0v-1.1c0-3-2.7-5.4-6-5.4H47v-0.5
		c0-1.2-1-2.2-2.2-2.2H34.4c-1.2,0-2.2,1-2.2,2.2v0.5h-4.9c-3.3,0-6,2.4-6,5.4v1.1c-0.1,0-0.3,0-0.4,0h-1c-1.5,0-2.8,1.3-2.8,2.8
		v9.4c0,1.5,1.3,2.8,2.8,2.8h1c0.1,0,0.3,0,0.4,0v15.2c0,0.7,0.5,1.2,1.2,1.4v4.2c0,1,0.7,1.8,1.6,1.8h6.1c0.9,0,1.6-0.8,1.6-1.8V50
		h15.1v4.1c0,1,0.7,1.8,1.6,1.8h6.1c0.9,0,1.6-0.8,1.6-1.8V50c0.8,0,1.5-0.7,1.5-1.4V35v-1.6c0.1,0,0.3,0,0.4,0h1
		c1.5,0,2.8-1.3,2.8-2.8v-9.4C62,19.6,60.7,18.3,59.2,18.3 M55.3,47.6h-0.7h-6.1H30.2h-6.1h-0.4V46h6.4c0.9,0,1.7-0.8,1.7-1.7L31,40
		c-0.1-0.9-0.8-1.6-1.7-1.6h-5.6v-2.2h31.6v2.2h-5.6c-0.9,0-1.6,0.7-1.7,1.6L47.3,44l0,0.2c0,0.9,0.8,1.7,1.7,1.7h6.4V47.6z
		 M38.5,33.8H23.7v-1.9v-1.3c0,0,0,0,0,0v-9.3h14.8V33.8z M23.7,40.8h5l0.5,2.8h-5.5V40.8z M49.8,43.6l0.5-2.8h5v2.8H49.8z
		 M55.3,33.8H40.9V21.2h14.5v9.3V33.8z M34.6,11.6h9.9v2.9h-9.9V11.6z M27.3,14.3h4.9v0.4c0,1.2,1,2.2,2.2,2.2h10.3
		c1.2,0,2.2-1,2.2-2.2v-0.4h4.8c2,0,3.6,1.3,3.6,3v1.6H39.7h-1.2H23.7v-1.6C23.7,15.6,25.3,14.3,27.3,14.3 M20.9,31h-1
		c-0.2,0-0.4-0.2-0.4-0.4v-9.4c0-0.2,0.2-0.4,0.4-0.4h1c0.2,0,0.4,0.2,0.4,0.4v9.4C21.3,30.8,21.1,31,20.9,31 M29.4,53.5h-4.5V50
		h4.5V53.5z M53.9,53.5h-4.5V50h4.5V53.5z M59.6,30.6c0,0.2-0.2,0.4-0.4,0.4h-1c-0.2,0-0.4-0.2-0.4-0.4v-9.4c0-0.2,0.2-0.4,0.4-0.4
		h1c0.2,0,0.4,0.2,0.4,0.4V30.6z"/>
	<path clip-path="url(#SVGID_2_)" fill="#F9F9FA" d="M44.2,38.7h-9.1c-0.7,0-1.2,0.5-1.2,1.2c0,0.7,0.5,1.2,1.2,1.2h9.1
		c0.7,0,1.2-0.5,1.2-1.2C45.4,39.3,44.9,38.7,44.2,38.7"/>
	<path clip-path="url(#SVGID_2_)" fill="#F9F9FA" d="M44.2,43.2h-9.1c-0.7,0-1.2,0.5-1.2,1.2c0,0.7,0.5,1.2,1.2,1.2h9.1
		c0.7,0,1.2-0.5,1.2-1.2C45.4,43.8,44.9,43.2,44.2,43.2"/>
</g>
</svg>
