<?xml version="1.0" encoding="utf-8"?>
<!-- Generator: Adobe Illustrator 17.1.0, SVG Export Plug-In . SVG Version: 6.00 Build 0)  -->
<!DOCTYPE svg PUBLIC "-//W3C//DTD SVG 1.1//EN" "http://www.w3.org/Graphics/SVG/1.1/DTD/svg11.dtd">
<svg version="1.1" id="Layer_1" xmlns="http://www.w3.org/2000/svg" xmlns:xlink="http://www.w3.org/1999/xlink" x="0px" y="0px"
	 viewBox="0 0 70.2 49.7" enable-background="new 0 0 70.2 49.7" xml:space="preserve">
<g>
	<defs>
		<rect id="SVGID_1_" y="0" width="70.2" height="49.7"/>
	</defs>
	<clipPath id="SVGID_2_">
		<use xlink:href="#SVGID_1_"  overflow="visible"/>
	</clipPath>
	<path clip-path="url(#SVGID_2_)" fill="#FFFFFF" d="M70.1,31.8l-3-11c-0.2-0.6-0.8-0.9-1.4-0.8l0,0c-0.6,0.2-1.1,0.2-1.7,0.1
		c-1.3-0.3-2.3-1.3-2.6-2.5c-0.3-1.2,0-2.5,1-3.5c0.4-0.4,0.9-0.6,1.5-0.8l0,0c0.6-0.2,0.9-0.8,0.8-1.4l-3-10.9
		c-0.2-0.8-1-1.3-1.8-1l-59,16.2c-0.6,0.2-1,0.8-0.8,1.4l3.1,11.3c0.2,0.6,0.8,0.9,1.3,0.8c0.7-0.2,1.4-0.2,2,0
		c1.3,0.4,2.1,1.4,2.4,2.6c0.4,1.8-0.9,3.6-2.7,4.1c-0.5,0.1-0.9,0.7-0.7,1.2l3,10.8c0.3,0.9,1.2,1.5,2.2,1.2l58.5-16.1
		C69.9,33.3,70.3,32.6,70.1,31.8 M67.1,31.6L11,46.9c-0.2,0.1-0.5-0.1-0.5-0.3L8.4,39c-0.1-0.5,0-1,0.4-1.2c2-1.4,3-3.9,2.3-6.4
		c-0.7-2.4-2.8-4.1-5.3-4.3c-0.5,0-0.9-0.4-1-0.8c-0.5-1.8-1.7-6.3-2.1-7.6c-0.1-0.2,0.1-0.5,0.3-0.5l56-15.4
		c0.2-0.1,0.5,0.1,0.5,0.3c0.4,1.4,1.6,5.8,2.1,7.7c0.1,0.4,0,0.9-0.4,1.2c-2,1.4-3,3.9-2.3,6.4c0.7,2.4,2.7,4,5,4.3
		c0.6,0.1,1.1,0.5,1.3,1l2,7.5C67.4,31.3,67.3,31.5,67.1,31.6"/>
	
		<rect x="49.6" y="23.7" transform="matrix(0.9644 -0.2646 0.2646 0.9644 -4.754 14.2949)" clip-path="url(#SVGID_2_)" fill="#FFFFFF" width="2.1" height="2.2"/>
	
		<rect x="50.7" y="27.6" transform="matrix(0.9644 -0.2645 0.2645 0.9644 -5.7487 14.7109)" clip-path="url(#SVGID_2_)" fill="#FFFFFF" width="2.1" height="2.2"/>
	
		<rect x="51.7" y="31.6" transform="matrix(-0.2643 -0.9644 0.9644 -0.2643 35.3386 92.1897)" clip-path="url(#SVGID_2_)" fill="#FFFFFF" width="2.2" height="2.1"/>
	
		<rect x="45.3" y="8" transform="matrix(0.9644 -0.2646 0.2646 0.9644 -0.7676 12.6021)" clip-path="url(#SVGID_2_)" fill="#FFFFFF" width="2.1" height="2.2"/>
	
		<rect x="46.4" y="11.9" transform="matrix(0.9644 -0.2646 0.2646 0.9644 -1.764 13.0253)" clip-path="url(#SVGID_2_)" fill="#FFFFFF" width="2.1" height="2.2"/>
	
		<rect x="48.6" y="19.8" transform="matrix(0.9644 -0.2646 0.2646 0.9644 -3.7573 13.8717)" clip-path="url(#SVGID_2_)" fill="#FFFFFF" width="2.1" height="2.2"/>
	
		<rect x="47.5" y="15.9" transform="matrix(0.9644 -0.2646 0.2646 0.9644 -2.7609 13.4486)" clip-path="url(#SVGID_2_)" fill="#FFFFFF" width="2.1" height="2.2"/>
	<path clip-path="url(#SVGID_2_)" fill="#FFFFFF" d="M40.9,14.6c-0.2-0.5-0.7-0.9-1.3-0.7l-26.9,7.4c-0.5,0.2-0.9,0.7-0.7,1.3
		l4.4,16.1c0.2,0.5,0.7,0.9,1.3,0.7L44.6,32c0.5-0.1,0.9-0.7,0.7-1.3L40.9,14.6z M42.6,30.3l-23.9,6.5c-0.2,0.1-0.5-0.1-0.6-0.3
		l-3.6-13.1c-0.1-0.2,0.1-0.5,0.3-0.6l23.9-6.5c0.2-0.1,0.5,0.1,0.6,0.3l3.6,13.1C43,30,42.8,30.3,42.6,30.3"/>
</g>
</svg>
