<?xml version="1.0" encoding="utf-8"?>
<!-- Generator: Adobe Illustrator 17.1.0, SVG Export Plug-In . SVG Version: 6.00 Build 0)  -->
<!DOCTYPE svg PUBLIC "-//W3C//DTD SVG 1.1//EN" "http://www.w3.org/Graphics/SVG/1.1/DTD/svg11.dtd">
<svg version="1.1" id="Layer_1" xmlns="http://www.w3.org/2000/svg" xmlns:xlink="http://www.w3.org/1999/xlink" x="0px" y="0px"
	 viewBox="0 0 78.4 46.7" enable-background="new 0 0 78.4 46.7" xml:space="preserve">
<g>
	<defs>
		<rect id="SVGID_1_" y="0" width="78.4" height="46.7"/>
	</defs>
	<clipPath id="SVGID_2_">
		<use xlink:href="#SVGID_1_"  overflow="visible"/>
	</clipPath>
	<path clip-path="url(#SVGID_2_)" fill="#FFFFFF" d="M23,11.2H9.7c-0.7,0-1.2,0.5-1.2,1.2v10.1c0,0.7,0.5,1.2,1.2,1.2H23
		c0.7,0,1.2-0.5,1.2-1.2V12.4C24.2,11.8,23.7,11.2,23,11.2 M21.8,21.4H10.9v-7.7h10.9V21.4z"/>
	<path clip-path="url(#SVGID_2_)" fill="#FFFFFF" d="M42.1,10.9l-10.9,0c-0.7,0-1.2,0.5-1.2,1.2l0,0.8h0v9.9l0,11.9h0v0.8
		c0,0.7,0.5,1.2,1.2,1.2h10.9c0.7,0,1.2-0.5,1.2-1.2V22.8l0-10.7C43.3,11.5,42.8,10.9,42.1,10.9 M32.4,22.8l0-9.5l8.5,0v9.5l0,11.5
		h-8.4V22.8z"/>
	<path clip-path="url(#SVGID_2_)" fill="#FFFFFF" d="M77.3,26.8c-1.2-1.5-2.9-1.9-3.1-1.9l-3.5-0.9L65,13.4h7.2c2.3,0,3.5-0.9,4-1.7
		c1.2-1.6,0.6-3.7,0.5-3.9C74.6,0.4,64,0,61.9,0c-0.3,0-0.5,0-0.6,0L4.8,0C4.8,0,4.7,0,4.5,0c-0.7,0-1.9,0.1-3,1.1
		C0.5,2,0,3.3,0,5.1l0.1,31.1c0,0.5-0.1,2,1.1,3.3C1.7,40.2,2.9,41,4.9,41l6.4,0c0.4,3.2,3.2,5.8,6.5,5.8c3.2,0,5.9-2.3,6.4-5.4
		l0.1-0.4l33.1,0c0.4,3.3,3.1,5.8,6.5,5.8c3.2,0,5.9-2.3,6.4-5.4l0.1-0.4h6.7c0.7,0,1.2-0.5,1.2-1.2l0-8.3
		C78.4,30.9,78.5,28.3,77.3,26.8 M68,24H56.6V13.4h5.6L68,24z M17.8,44.3c-2.3,0-4.1-1.9-4.1-4.1c0-2.3,1.9-4.1,4.1-4.1
		s4.1,1.9,4.1,4.1C22,42.5,20.1,44.3,17.8,44.3 M47.8,38.5H24.2L24,38.1c-0.9-2.7-3.4-4.5-6.2-4.5c-3,0-5.6,2.1-6.3,4.9l-6.6,0
		C4,38.6,3.3,38.4,3,38c-0.5-0.5-0.5-1.3-0.5-1.6L2.4,5.1c0-1,0.2-1.8,0.7-2.2c0.5-0.4,1.1-0.5,1.4-0.5c0.1,0,0.1,0,0.2,0l57,0
		c1.8,0,11.1,0.3,12.6,6.1c0.1,0.2,0.3,1.2-0.1,1.8c-0.4,0.5-1.3,0.7-2,0.7H47.8V38.5z M64,44.3c-2.3,0-4.1-1.9-4.1-4.1
		c0-2.3,1.9-4.1,4.1-4.1c2.3,0,4.1,1.9,4.1,4.1C68.1,42.5,66.2,44.3,64,44.3 M75.9,31.4l0,7.1h-5.7l-0.1-0.3
		c-0.9-2.7-3.4-4.5-6.2-4.5c-3,0-5.6,2.1-6.3,4.8h-7.4V13.4h4v11.8c0,0.7,0.5,1.2,1.2,1.2h14.7c0.1,0,0.1,0,0.2,0l0.1,0l3.3,0.8
		c0.2,0,1.1,0.3,1.8,1.1C75.9,28.9,76,30.5,75.9,31.4"/>
</g>
</svg>
