<?xml version="1.0" encoding="utf-8"?>
<!-- Generator: Adobe Illustrator 17.1.0, SVG Export Plug-In . SVG Version: 6.00 Build 0)  -->
<!DOCTYPE svg PUBLIC "-//W3C//DTD SVG 1.1//EN" "http://www.w3.org/Graphics/SVG/1.1/DTD/svg11.dtd">
<svg version="1.1" id="Layer_1" xmlns="http://www.w3.org/2000/svg" xmlns:xlink="http://www.w3.org/1999/xlink" x="0px" y="0px"
	 viewBox="0 0 54.8 59.9" enable-background="new 0 0 54.8 59.9" xml:space="preserve">
<g>
	<defs>
		<rect id="SVGID_1_" y="0" width="54.8" height="59.9"/>
	</defs>
	<clipPath id="SVGID_2_">
		<use xlink:href="#SVGID_1_"  overflow="visible"/>
	</clipPath>
	<path clip-path="url(#SVGID_2_)" fill="#F9F9FA" d="M54.6,52.3L28.8,10.9l5.7-9.1c0.2-0.3,0.2-0.6,0.1-0.9
		c-0.1-0.3-0.3-0.6-0.5-0.7C33.9,0.1,33.7,0,33.5,0c-0.4,0-0.8,0.2-1,0.5l-5.1,8.2l-5.1-8.2c-0.2-0.3-0.6-0.5-1-0.5
		c-0.2,0-0.4,0.1-0.6,0.2c-0.3,0.2-0.4,0.4-0.5,0.7c-0.1,0.3,0,0.6,0.1,0.9l5.7,9.1L0.2,52.3c-0.3,0.6-0.2,1.3,0.4,1.6
		c1.6,1,10.2,6,26.8,6c16.6,0,25.3-5,26.8-6c0.3-0.2,0.4-0.4,0.5-0.7C54.8,52.8,54.8,52.5,54.6,52.3 M27.4,13.1l7.5,12.1l-1,0.1
		c-2.1,0.2-4.3,0.3-6.5,0.3c-2.2,0-4.4-0.1-6.5-0.3l-1-0.1L27.4,13.1z M36.4,57c-2.9,0.4-6,0.6-9,0.6s-6.1-0.2-9-0.6l-1-0.1l10-17.4
		l10,17.4L36.4,57z M51.3,52.6c-2.8,1.6-6.6,2.9-11,3.7l-0.2,0c-0.1,0-0.2,0-0.2,0L28.4,36.6l-0.1-0.1l-0.1-0.1l-0.1-0.1l-0.1-0.1
		L28,36.2l-0.1,0l-0.1,0l-0.1,0l-0.1,0l-0.1,0l-0.1,0l-0.2,0l-0.1,0l-0.1,0L27,36l-0.1,0l-0.1,0.1l-0.1,0.1l-0.1,0.1l-0.1,0.1
		l-0.1,0.1l-0.1,0.1l-0.1,0.1L15,56.4l-0.5-0.1c-4.4-0.9-8.2-2.2-11-3.7l-0.6-0.3l15.5-24.9l0.4,0c2.8,0.3,5.6,0.5,8.5,0.5
		c2.9,0,5.7-0.2,8.5-0.5l0.4,0l15.5,24.9L51.3,52.6z"/>
</g>
</svg>
