<?xml version="1.0" encoding="utf-8"?>
<!-- Generator: Adobe Illustrator 17.1.0, SVG Export Plug-In . SVG Version: 6.00 Build 0)  -->
<!DOCTYPE svg PUBLIC "-//W3C//DTD SVG 1.1//EN" "http://www.w3.org/Graphics/SVG/1.1/DTD/svg11.dtd">
<svg version="1.1" id="Layer_1" xmlns="http://www.w3.org/2000/svg" xmlns:xlink="http://www.w3.org/1999/xlink" x="0px" y="0px"
	 viewBox="0 0 72.8 51.9" enable-background="new 0 0 72.8 51.9" xml:space="preserve">
<g>
	<defs>
		<rect id="SVGID_1_" y="0" width="72.8" height="51.9"/>
	</defs>
	<clipPath id="SVGID_2_">
		<use xlink:href="#SVGID_1_"  overflow="visible"/>
	</clipPath>
	<path clip-path="url(#SVGID_2_)" fill="#F9F9FA" d="M72.3,22L37,0.2c-0.4-0.2-0.8-0.2-1.1,0L20.4,9.7V2.5c0-0.7-0.5-1.2-1.2-1.2
		h-7.4c-0.7,0-1.2,0.5-1.2,1.2v13.3L0.5,22c-0.5,0.3-0.7,1-0.4,1.5l3.1,5c0.3,0.5,1,0.7,1.5,0.4l2-1.3l-0.2,1.1
		c0,0.3-0.1,0.6-0.1,0.8c0,1.5,0.6,2.9,1.7,3.9l0.4,0.4l-0.4,0.4c-1.1,1-1.7,2.4-1.7,3.9c0,1.5,0.6,2.9,1.8,4l0.4,0.4l-0.4,0.4
		c-1.9,1.8-2.5,4.8-0.7,7.2c0.7,0.9,1.7,1.7,2.9,1.9c1.1,0.3,2.1,0.2,3-0.1l0,0l17,0c0.6,0,1.1-0.5,1.1-1.1V32.3
		c0-0.3,0.3-0.6,0.6-0.6h8.6c0.3,0,0.6,0.3,0.6,0.6v18.3c0,0.6,0.5,1.1,1.1,1.1l17.1,0c1,0.3,2.1,0.3,3.2-0.1
		c1.9-0.7,3.4-2.4,3.6-4.4c0.2-1.7-0.4-3.4-1.7-4.6l-0.4-0.4l0.4-0.4c1.1-1,1.7-2.4,1.7-3.9c0-1.5-0.6-2.9-1.7-3.9l-0.4-0.4l0.4-0.4
		c1.1-1,1.7-2.4,1.7-3.9c0-0.3,0-0.5-0.1-0.8L66,27.6l2,1.3c0.5,0.3,1.2,0.2,1.5-0.4l3.1-5C72.9,23,72.8,22.3,72.3,22 M13,3.7h4.9
		v7.5l-4.9,3V3.7z M11.9,49.5c-1.6,0-2.9-1.3-2.9-2.9c0-1.6,1.3-2.9,2.9-2.9c1.6,0,2.9,1.3,2.9,2.9C14.8,48.2,13.5,49.5,11.9,49.5
		 M11.9,40.9c-1.6,0-2.9-1.3-2.9-2.9c0-1.6,1.3-2.9,2.9-2.9c1.6,0,2.9,1.3,2.9,2.9C14.8,39.5,13.5,40.9,11.9,40.9 M11.9,32.4
		c-1.6,0-2.9-1.3-2.9-2.9c0-1.6,1.3-2.9,2.9-2.9c1.6,0,2.9,1.3,2.9,2.9C14.8,31.1,13.5,32.4,11.9,32.4 M50.5,18l8.9,5.5h-46l8.9-5.5
		L50.5,18z M26.2,15.5l10.2-6.3l10.2,6.3H26.2z M29.1,49.3H16.5c0.5-0.8,0.7-1.7,0.7-2.7c0-1.2-0.4-2.4-1.2-3.3h13V49.3z M29.1,40.8
		H16.3c0.6-0.9,0.9-1.9,0.9-2.9c0-1.1-0.4-2.2-1-3.1h12.9V40.8z M56.3,49.3H43.7v-6h13c-0.8,0.9-1.2,2.1-1.2,3.3
		C55.6,47.6,55.9,48.5,56.3,49.3 M56.4,40.8H43.7v-6h13c-0.7,0.9-1.1,2.1-1.1,3.2C55.6,39,55.9,40,56.4,40.8 M56.4,26.7
		c-0.5,0.9-0.8,1.8-0.8,2.8c0,1,0.3,2,0.9,2.9H43.7v-1.7c0-0.8-0.7-1.5-1.5-1.5H30.5c-0.8,0-1.5,0.7-1.5,1.5v1.7H16.3
		c0.6-0.9,0.9-1.9,0.9-2.9c0-1-0.3-2-0.8-2.8l-0.5-0.8h41L56.4,26.7z M60.9,49.5c-1.6,0-2.9-1.3-2.9-2.9c0-1.6,1.3-2.9,2.9-2.9
		c1.6,0,2.9,1.3,2.9,2.9C63.8,48.2,62.5,49.5,60.9,49.5 M60.9,40.9c-1.6,0-2.9-1.3-2.9-2.9s1.3-2.9,2.9-2.9c1.6,0,2.9,1.3,2.9,2.9
		S62.5,40.9,60.9,40.9 M60.9,32.4c-1.6,0-2.9-1.3-2.9-2.9c0-1.6,1.3-2.9,2.9-2.9c1.6,0,2.9,1.3,2.9,2.9
		C63.8,31.1,62.5,32.4,60.9,32.4 M68.2,26L36.4,6.4L4.6,26l-1.6-2.7L36.4,2.7l33.4,20.7L68.2,26z"/>
</g>
</svg>
