<?xml version="1.0" encoding="utf-8"?>
<!-- Generator: Adobe Illustrator 21.1.0, SVG Export Plug-In . SVG Version: 6.00 Build 0)  -->
<svg version="1.1" id="All" xmlns="http://www.w3.org/2000/svg" xmlns:xlink="http://www.w3.org/1999/xlink" x="0px" y="0px"
	 viewBox="0 0 576.3 440" style="enable-background:new 0 0 576.3 440;" xml:space="preserve">
<style type="text/css">
	.st0{fill:none;}
	.st1{fill:#808080;}
	.st2{fill:#B3B3B3;}
	.st3{fill:#FFFFFF;}
	.st4{fill:#C8CCCE;}
	.st5{fill:#00A1DF;}
</style>
<g>
	<path class="st0" d="M496.7,301.1L496.7,301.1c0,0.1,0,0.1,0.1,0.2s-0.1,0.4-0.3,0.5c0.3,0.2,1,0.8,1.6,1.4
		c0.2-0.1,0.3-0.3,0.5-0.4C497.8,301.8,496.7,301.1,496.7,301.1z"/>
	<path class="st0" d="M356.8,150.9l4.8,1.1c1.6,0.5,5.4,1.6,5.9,1.6h3.1l2.2,1l1.1,1.9v3.5h1.8l0.8,5l0.4-0.1
		c0.1-0.3,0.2-0.5,0.3-0.8l-0.8-5h-1.7v-2.8l-1.3-2.4l-2.5-1.2h-3.3c-0.4,0-3.5-0.9-5.6-1.6l-4.8-1.1l-4-1.3l-1.9-3.8l-0.4,0.2
		c-0.1,0.1-0.3,0.1-0.4,0.2l2.1,4.2L356.8,150.9z"/>
	<path class="st0" d="M546.8,161.1h-0.2c-1.4,0-1.9,0.1-2.6,1.6c-0.1,0.2-0.1,0.4-0.2,0.6c-0.2,0.6-0.3,0.8-0.8,0.9
		c-0.3,0-0.5,0-0.6,0c-0.3,0-0.7,0-1.3,0.2c-0.2,0.1-0.3,0.2-0.5,0.3c-0.1,0.1-0.1,0.1-0.2,0.2c-0.1,0.1-0.6,0.3-0.8,0.3
		s-0.3,0.1-0.5,0.2c-0.2,0.1-0.4,0.2-0.6,0.2c-0.4,0.1-0.9,0.1-1.3,0.1c-0.4,0-0.8,0-1.2,0c-0.5,0.1-0.9,0.2-1.3,0.4
		c-0.3,0.1-0.5,0.2-0.7,0.3c-0.2,0-0.7,0-0.9,0c-0.1,0-0.2,0-0.3-0.1c0-0.1,0-0.2-0.1-0.3c-0.1-0.5-0.1-1.3,0-1.9c0-0.4,0-0.7,0-1
		s0-0.7,0-1c0.1-1.3,0.1-2.8-0.6-3.8c-0.5-0.7-0.6-0.9-0.6-1.8c0-0.2,0-0.4,0-0.6c0-0.6,0-1.2,0.1-1.7c0.1-0.8,0.1-1.6,0.1-2.4
		c0-0.8,0-1.7,0.1-2.4c0.1-0.6,0.3-1.2,0.5-1.9c0.3-0.8,0.5-1.6,0.6-2.5c0-0.2,0-0.4,0-0.6c0-0.3-0.1-0.5,0.1-0.7
		c0.1-0.2,0.3-0.3,0.6-0.5c0.2-0.1,0.4-0.3,0.6-0.5c0.7-0.7,1.6-1.8,1-3.4v-0.1c-0.2-0.3-0.4-0.5-0.5-0.7c-0.2-0.2-0.4-0.4-0.5-0.7
		c0-0.2-0.1-0.3-0.1-0.5c0-0.1-0.1-0.3-0.1-0.3v-2.5l-0.1-1.9h-0.4c-0.1,0.5-0.2,0.8-0.4,1.2v0.7v2.4c0,0.2,0.1,0.4,0.1,0.6
		c0,0.1,0.1,0.3,0.1,0.3v0.1c0.2,0.5,0.4,0.8,0.7,1.1c0.1,0.2,0.3,0.3,0.4,0.5c0.3,0.8,0.1,1.5-0.8,2.4c-0.1,0.1-0.3,0.2-0.5,0.3
		c-0.3,0.2-0.6,0.4-0.8,0.7c-0.4,0.5-0.3,1-0.2,1.3c0,0.1,0,0.3,0,0.4c0,0.8-0.3,1.5-0.5,2.3c-0.2,0.7-0.4,1.3-0.5,2
		c-0.1,0.8-0.1,1.7-0.1,2.6c0,0.8,0,1.6-0.1,2.3c-0.1,0.6-0.1,1.2-0.1,1.9c0,0.2,0,0.4,0,0.6c0,1.1,0.1,1.5,0.7,2.3
		c0.5,0.8,0.5,2.1,0.4,3.3c0,0.4,0,0.7,0,1.1c0,0.3,0,0.6,0,1c-0.1,0.7-0.1,1.5,0.1,2.2c0,0.2,0.1,0.3,0.1,0.4v0.1l-6.6,1.8
		c0-0.2-0.1-0.3-0.1-0.5c-0.1-0.4-0.2-0.7-0.2-1.1v-1.3v-0.1c-0.1-0.3-0.2-0.6-0.3-0.8c-0.2-0.6-0.4-1.2-0.4-1.9
		c0-0.3-0.1-0.5-0.1-0.6c-0.1-0.2-0.1-0.4-0.1-0.7c0-0.4-0.2-0.7-0.3-1c-0.1-0.1-0.1-0.2-0.2-0.3c-0.1-0.1-0.1-0.4-0.1-0.6
		c0-0.3,0-0.7-0.1-1.1c-0.2-0.7-0.7-1.4-1.3-2c-1-0.8-1.4-1.4-1.8-2.8V152c0-0.7-0.2-1.6-0.5-2.5c-0.2-0.9-0.5-1.9-1.4-2.6
		c-0.1-0.1-0.2-0.2-0.4-0.3c-0.3-0.3-0.5-0.4-0.6-0.8c0-0.1-0.1-0.3-0.2-0.5c-0.2-0.6-0.5-1.3-0.5-2.1c0-0.2,0-0.3,0-0.6
		c0-0.6-0.1-1.5,0.2-1.9l0.1-0.2l-0.3-1.3l-0.4,0.1c-0.2,0-0.3,0.1-0.5,0.2l0.2,0.9c-0.3,0.6-0.3,1.5-0.2,2.2c0,0.2,0,0.4,0,0.5
		c0,1,0.3,1.7,0.5,2.4c0.1,0.2,0.1,0.3,0.2,0.4c0.2,0.6,0.6,0.9,0.9,1.2c0.1,0.1,0.2,0.2,0.4,0.3c0.8,0.6,0.9,1.3,1.2,2.2
		c0.2,0.8,0.4,1.7,0.4,2.3v1.8v0.1c0.5,1.6,0.9,2.4,2.1,3.3c0.4,0.4,0.8,1,1,1.6c0.1,0.3,0.1,0.6,0.1,0.8c0,0.3,0,0.7,0.2,1
		c0.1,0.1,0.1,0.2,0.2,0.3c0.1,0.3,0.2,0.4,0.2,0.6c0,0.4,0.1,0.7,0.1,0.9s0.1,0.3,0.1,0.4c0,0.8,0.2,1.6,0.4,2.2
		c0.1,0.2,0.2,0.5,0.2,0.7v1.3c0,0.5,0.1,1,0.3,1.4c0.1,0.3,0.2,0.6,0.2,0.8v0.2c0.3,0.7,0.3,1.8,0.2,2.8c0,0.4,0,0.7,0,1
		c0,0.6,0,1.2,0,1.8c-0.1,1.4-0.1,2.8,0,3.9c0,0.6,0.2,1,0.4,1.3c0,0.1,0.1,0.2,0.1,0.2l0.1,0.1c0.4,0.4,0.6,0.6,0.8,0.9v1.2
		c0,0.3,0,0.5,0,0.8c0,0.9-0.1,2,0.2,3c0,0.3,0,0.7,0.3,1.2l0.1,0.1l0.1,0.1c0.3,0.2,0.5,0.3,0.6,0.6c0,0.3,0.1,0.5,0.2,0.7
		c0,0.1,0.1,0.2,0.1,0.2v0.1v0.1c0.2,0.5,0.4,1,0.4,1.4c0,0.1-0.1,0.2-0.2,0.3c-0.1,0.1-0.2,0.2-0.2,0.3c-0.4,0.4-0.6,0.7-0.9,1.1
		l-0.3,0.6l1.7,0.2c0.1-0.1,0.2-0.3,0.3-0.4l0.1-0.4l-0.6-0.1c0.1-0.1,0.2-0.3,0.4-0.4l0.1-0.1v-0.1c0,0,0,0,0.1-0.1
		c0.1-0.2,0.4-0.5,0.4-0.9c0-0.5-0.2-1.2-0.5-1.7c0-0.1-0.1-0.2-0.1-0.4c-0.1-0.2-0.1-0.4-0.1-0.6V188v-0.1c-0.2-0.5-0.5-0.8-0.9-1
		c-0.1-0.3-0.1-0.6-0.1-0.8V186c-0.3-0.9-0.3-1.9-0.2-2.8c0-0.3,0-0.6,0-0.9v-1.4v-0.1c-0.2-0.5-0.5-0.7-0.9-1.2
		c0-0.1-0.1-0.1-0.1-0.2c-0.1-0.2-0.2-0.3-0.2-0.5l1.9-0.2c0.7,0,1.3-0.3,1.7-0.6c0.1,0,0.1-0.1,0.2-0.1c0.7,0,1.1,0,1.6-0.3
		c0.6-0.3,1-0.4,1.5-0.5c0.2,0,0.4-0.1,0.6-0.1c0.4,0,0.7-0.1,1.1-0.2c0.3-0.1,0.6-0.2,0.9-0.2l2.1-0.7c0.4-0.1,1-0.3,1.6-0.4
		c0.5-0.2,1.1-0.3,1.5-0.4c0.7,0,1.3,0,1.9-0.1l2.5,8.9l0.4-0.1l0,0c0.1,0,0.3-0.1,0.4-0.1l-2.5-8.9c0.3-0.1,0.5-0.3,0.8-0.4
		c0.1-0.1,0.3-0.2,0.4-0.3c0.2,0,0.3-0.1,0.5-0.2c0.6-0.2,0.9-0.3,1.2,0c0.1,0.2,0.3,0.5,0.4,0.7c0.2,0.3,0.3,0.5,0.5,0.8
		c0,0,1.3,1.9,2.6,2.2v0.5c0.1,0.1,0.3,0.2,0.4,0.3h0.4v-1.9l-0.5,0.1c-0.5,0.1-1.6-0.9-2.2-1.8c-0.1-0.2-0.3-0.5-0.5-0.8
		s-0.3-0.5-0.4-0.7l-0.1-0.1c-0.7-0.7-1.5-0.5-2.1-0.3c-0.2,0.1-0.3,0.1-0.5,0.1h-0.1c-0.2,0.1-0.4,0.2-0.6,0.3
		c-0.3,0.2-0.6,0.4-0.9,0.5c-0.6,0.2-1.2,0.2-2.1,0.2h-0.1c-0.4,0.1-1,0.3-1.6,0.4c-0.5,0.2-1.1,0.3-1.6,0.4l-1.9,0.6
		c-0.4,0-0.7,0.1-1.1,0.2c-0.3,0.1-0.6,0.2-0.9,0.2h-0.1c-0.2,0.1-0.4,0.1-0.6,0.1c-0.5,0.1-1,0.2-1.7,0.6c-0.4,0.2-0.7,0.2-1.4,0.2
		h-0.1h-0.1c-0.1,0-0.2,0.1-0.3,0.1c-0.4,0.2-0.9,0.5-1.3,0.5l-2,0.2c-0.1-1.1-0.1-2.3,0-3.4c0-0.6,0-1.3,0-1.9c0-0.3,0-0.7,0-1
		c0-0.9,0.1-1.9-0.1-2.7l7.5-2.1c0.2,0,0.3,0,0.5,0s0.5,0,0.6-0.1c0.3-0.1,0.6-0.2,0.9-0.3c0.3-0.1,0.7-0.3,1-0.3c0.4,0,0.7,0,1.1,0
		c0.5,0,1,0,1.6-0.1c0.2,0,0.5-0.1,0.7-0.2c0.2-0.1,0.3-0.1,0.5-0.2c0.2-0.1,0.8-0.3,1-0.4c0.1-0.1,0.2-0.2,0.4-0.3
		c0.1-0.1,0.2-0.2,0.3-0.2c0.4-0.2,0.6-0.2,0.8-0.2s0.5,0,0.8,0c1.1-0.1,1.3-0.9,1.5-1.5c0.1-0.2,0.1-0.3,0.2-0.5
		c0.4-1.1,0.5-1.1,1.7-1.1h0.3l2.2-0.9c-0.1-0.1-0.1-0.2-0.2-0.4l0,0l-0.2-0.4L546.8,161.1z"/>
	<path class="st0" d="M536.7,128.8c-0.2,0-0.3,0-0.5,0l-0.4,0.2l9.4,25.9v0.1l3.8,2.7l0.3-0.4l0,0c0-0.2,0-0.3,0-0.5l-3.4-2.4
		L536.7,128.8z"/>
	<g>
		<path class="st1" d="M500.5,410.6c-0.1-1.9,0-3.7-0.2-5.5c-0.1-1.2-0.4-2-0.9-3.1c-0.4-0.9-0.6-1.6-0.8-2.6
			c-0.6-2-2.2-4.1-3.4-5.8c-0.6-0.8-1.3-1.5-1.9-2.3c-0.7-1.1-1.3-2.3-2.1-3.3c-1.2-1.6-0.3-3.6-0.9-5.5c-0.4-1.1-0.5-2-1.3-2.8
			c-0.6-0.7-1.2-1.3-1.8-1.9c-1.3-1.3-2.6-3-3.3-4.7c-0.5-1.4-1.4-2.3-2.2-3.5c-0.8-1.1-1.5-2.3-2.2-3.4c-1.2-1.9-1.9-3.9-2.6-5.9
			c-1.1-2.9-2.7-5.5-4.3-8.1v0.4l-5.3,0.6v4.7l-2.3,2l-1.9-2.6l-9.5,0.2l-18.6,1.1h-3.3l-0.1-0.1c-0.9-0.9-1.3-2-1.4-2.4V356v-0.6
			l-30.2,4.3v1.9l3.1,2.7v4.5c1.1-0.4,2-1.1,3.1-1.5c1.1-0.3,2.2-0.1,3.3-0.3c1.2-0.1,2.4-0.3,3.6-0.6c0.6-0.1,1.1-0.1,1.7-0.1
			c0.5-0.1,1.1-0.5,1.6-0.5c1.3-0.1,3.3,1.5,4.5,2c1.7,0.7,3.5,1.1,5.1,2c1,0.6,1.7,1.3,2.3,2.2c0.6,1,0.9,1.8,1.9,2.5
			c0.9,0.5,1.7,0.6,2.4-0.1c0.5-0.4,1.1-1.8,1.9-1.2c-0.1,0.8-1.2,1.2-1.2,1.9c1.4-0.4,2.7-1.1,3.9-2c0.9-0.7,0.4-1.6,1.1-2.4
			c0.5-0.6,1.2-1,1.7-1.6s0.8-1.6,1.4-2.1c0.5-0.5,1.3-0.8,2-1c1.3-0.5,2.8-0.2,3.8,0.9c0.9,0.9,1.4,1.6,2.4,2.3
			c0.6,0.5,1.2,0.5,1.8,0.9c0.1,0,0.6,0.6,0.7,0.7c0.4,0.4,0.7,0.9,1.1,1.4c0.7,1,1.4,2,2.2,2.9c0.6,0.8,1.2,1.4,2.1,1.8
			c0.2,0.1,0.8,0.3,1,0.4c0.5,0.2,0.9,0.3,1.4,0.5c1.2,0.6,2.2,2.1,3.1,3c1,1.1,1,2.7,1,4.1c0,1.6,0.1,3.3,0,4.9
			c0,0.9-0.5,1.5-0.6,2.3c-0.2,0.8,0,1.7,0,2.6c0,1.5,0.4,3.2,2.2,2.2c0.6-0.4,0.7-0.9,1.6-0.8c1.3,0,1,0.9,0.5,1.7
			c-0.4,0.7-0.8,0.9-0.7,1.8c0.1,0.7,0.4,1.2,0.8,1.7c0.7,1.1,1.6,2.1,2.1,3.4c0.3,0.6,0.3,1.4,0.6,2c0.4,0.7,1,1.1,1.3,1.8
			c0.2,0.5,0.3,1.1,1.1,0.9c1-0.2,1.3-2.5,2.6-2c0.1,0.6,0,1.2-0.2,1.8c-0.2,0.5-0.8,1-0.9,1.5c-0.1,0.9,0.9,1.6,1.6,2
			c0.8,0.6,1.3,1,2.2,1.3c0.4,0.1,1.2,0.3,1.5,0.7c0.3,0.4,0.1,1.2,0.3,1.6c0.2,0.5,0.4,0.9,0.6,1.5c0.2,0.5,0.3,0.9,0.9,1.2
			c0.7,0.3,1.3,0.3,2,0.7c0.6,0.3,1,0.6,1.6,0.8c2.1,0.7,3.3,3,4.9,4.5c0.6,0.6,2,1,1.5,2c-0.3,0.5-0.6,0.2-0.7,1
			c0,0.7,0,0.9,0.7,1.1c0.9,0.2,1.8-0.5,2.6-0.6c1.2-0.2,2.1-0.3,3.1-0.8c1.1-0.6,2-1.1,3-2.1c0.9-0.9,1.1-1.1,1.1-2.5
			c0-0.9-0.1-2,0-2.9c0.2-1,1-1.7,0.9-2.8c-0.1-1.2-0.7-2.3-0.9-3.6C500.8,412.5,500.5,411.6,500.5,410.6z"/>
	</g>
	<path class="st2" d="M376.9,372.2l0.4-0.3c-0.2,0-0.3,0.1-0.4,0.1V372.2z"/>
	<path class="st2" d="M390.9,369.2L390.9,369.2c-0.1,0-0.3,0-0.4,0H390.9z"/>
	<path class="st2" d="M143.1,353.9h0.4H143.1z"/>
	<path class="st2" d="M173.6,351.3L173.6,351.3c-0.2,0-0.3,0-0.5,0H173.6z"/>
	<path class="st2" d="M402,368.7L402,368.7L402,368.7L402,368.7z"/>
	<path class="st2" d="M472.2,351.7c0.1,0.1,0.2,0.3,0.3,0.4v-0.4H472.2z"/>
	<path class="st2" d="M402.9,368.7v-0.1c-0.1,0-0.3,0.1-0.4,0.1H402.9z"/>
	<path class="st2" d="M326.3,382.7L326.3,382.7c-0.2,0-0.3,0-0.4,0.1L326.3,382.7z"/>
	<path class="st2" d="M365.9,111.6c0-0.1,0-0.1,0.1-0.2c-0.1,0-0.2,0-0.3,0C365.7,111.4,365.8,111.5,365.9,111.6z"/>
	<path class="st2" d="M360.8,117.7C360.2,118.3,360.8,118,360.8,117.7L360.8,117.7z"/>
	<path class="st2" d="M375.2,170.2L375.2,170.2L375.2,170.2L375.2,170.2z"/>
	<path class="st2" d="M375.1,171c0.1-0.2,0.2-0.4,0.4-0.7l0,0c0,0-0.1,0-0.1-0.1c-0.1,0-0.1,0-0.2,0l0,0
		C375.2,170.4,375.1,170.7,375.1,171z"/>
	<path class="st2" d="M375.5,170.3L375.5,170.3L375.5,170.3L375.5,170.3z"/>
	<path class="st2" d="M375.3,170.2h-0.1C375.3,170.2,375.3,170.2,375.3,170.2C375.4,170.2,375.4,170.2,375.3,170.2z"/>
	<path class="st2" d="M375.4,170.2C375.4,170.2,375.5,170.3,375.4,170.2C375.5,170.3,375.4,170.2,375.4,170.2z"/>
	<path class="st0" d="M482.6,163.2l-0.1,0.2c0.1,0,0.2,0,0.3-0.1C482.7,163.3,482.6,163.2,482.6,163.2z"/>
	<path class="st1" d="M305.4,107.4l-0.5,4.4c0.6,0.7,1.3,1.9,1.3,1.9c0.2,0.4,0.2,0.8,0.3,1.1c0,0.2,0.1,0.4,0.1,0.6
		c0.1,0.2,0.1,0.3,0.2,0.4s0.3,0.3,0.4,0.5s0.2,0.5,0.3,0.6c0.1,0.2,0.1,0.3,0.2,0.4c0.2,0.2,0.4,0.2,0.8,0.2c0.3,0,0.7,0,1.1,0.2
		c0.4,0.1,0.7,0.3,1.1,0.5c0.3,0.2,0.6,0.3,0.9,0.4c0.4,0.1,0.7,0.1,1.2,0.1c0.4,0,0.8,0,1.3,0.1c0.7,0.2,1,0.5,1.2,0.7
		c0.1,0.1,0.1,0.2,0.3,0.2c0.4,0.2,0.7,0,1.5-0.9c0.5-0.5,1-1.1,1.7-1.2c1-0.2,1.6,0.5,2.1,0.9c0.1,0.1,0.1,0.1,0.2,0.2
		s0.2,0.2,0.2,0.2c0.3,0.3,0.3,0.3,0.7,0.2c0.2,0,0.3-0.1,0.4-0.1c0.8-0.2,1,0,1.7,0.5c0.1,0.1,0.2,0.2,0.3,0.3
		c0.1,0,0.1,0.1,0.1,0.1s0.2,0,0.5,0h0.3c1,0,2.3,0,3.1,0.8c0.2,0.2,0.4,0.5,0.5,0.8c0.2,0,0.4,0,0.6,0c0.8-0.1,1.7-0.2,2.7,0.5
		c0.7,0.4,1.1,0.9,1.6,1.3c0.7,0.7,1.3,1.2,2.4,1.4c0.8,0.2,0.9,0.1,1.4-0.3l0.1-0.1c0.3-0.2,0.6-0.5,0.9-0.7l0.1-0.1
		c0.1-0.1,0.3-0.1,0.4-0.2c0-0.2,0.1-0.4,0.3-0.6c0.8-0.7,2.3-1.1,3.5-0.6c0.6,0.2,1,0.6,1.2,1.1c0.3,0,0.7-0.1,1.1-0.1
		c0.5-0.1,0.9-0.1,1.4-0.1c1,0,1.9,0,2.9,0s1.8,0.3,2.5,0.6h0.1c1.4-0.3,2.4-0.4,3-1.7c0.2-0.5,0.2-1.2,0.2-2c0-1-0.1-2.2,0.5-3.1
		c0.8-1.2,1.6-1.4,2.9-1.4c0.8,0,1.4,0.5,1.8,0.8c0.1,0.1,0.3,0.2,0.3,0.2c0.1,0,0.1,0,0.2,0c0.1-0.1,0.1-0.1,0.1-0.3
		c0-0.2,0.1-0.5,0.2-0.8c0-0.1,0.1-0.2,0.1-0.4c0.1-0.4,0.1-0.8,0.5-1.2c0.8-0.9,1.8-1,2.6-1c0.2,0,0.4,0,0.6,0.1
		c-0.1-0.2-0.2-0.3-0.4-0.5c-0.5-0.4-0.7-1-0.4-1.7c0.2-0.7,0.8-1.1,1.5-1.1h0.2c2.5,0.1,4.9,0.1,7.4,0.7c1.3,0.3,2.5,0.3,3.9,0.3
		c1.1,0,2.2,0,3.4,0.2c3.6,0.5,5,3.2,5.9,5.5c0.5,1.3,1.1,2.7,2.5,3.8c1.7,1.3,2.9,1.1,4.7,0.8c0.5-0.1,1-0.2,1.5-0.3
		c1.5-0.2,2.6,0,3.3,0.7c0.6,0.5,1,1.4,1,2.4c0,1.3-0.3,2-0.6,2.4c0,0,0,0.1-0.1,0.1c0.1,0.2,1.3,1.2,1.8,1.7
		c0.2,0.2,0.4,0.3,0.6,0.5c0.5,0.3,1,0.7,1.5,1.5c0.5,0.9,0.5,1.9,0.6,2.6c0,0.8,0,1.5,0.6,2.1c0.4,0.4,0.6,0.6,0.7,0.7
		c0.4,0.3,0.6,0.5,1.1,1.4c0.1,0.2,0.3,0.4,0.3,0.7c0.1,0.1,0.3,0.4,0.6,0.9c1.4,2,3.5,2.4,5.8,2.7c2.7,0.3,5.5,0.3,8,0.3h0.9
		c0.9,0,1.8,0,2.6-0.1c2-0.1,4.1-0.1,6.2,0.1c0.2,0,0.4,0.1,1,0.2c2.2,0.6,3.1,0.7,3.4,0.7c0.2-0.4,0.6-0.7,1.1-0.8
		c0.2,0,0.4,0,0.5-0.1h0.1c1.8-0.3,3.9-0.6,5.8,0.4c1.4,0.7,2.5,1.9,3.6,3.1c0.6,0.7,1.2,1.3,1.8,1.8c1.8,1.5,3.4,3.3,4.9,4.9
		c0.4,0.5,0.8,0.9,1.3,1.4l0.3,0.3c0.9,0.9,1.8,1.9,2,3.5c0.1,0.5-0.1,1-0.6,1.3c-0.4,0.3-0.8,0.4-1.3,0.3c0.1,0.6,0.3,1.3,0.1,2
		c0,0.1-0.1,0.2-0.1,0.3c-0.1,0.4-0.3,1-0.8,1.5c-1,0.7-2.1,0.6-3,0.4h-0.2c-0.2,0-0.7-0.2-2.9-1c-0.6-0.2-1.3-0.5-1.8-0.6
		c-0.1,0.2-0.3,0.4-0.6,0.5c-0.5,0.2-1,0.2-1.5,0c-0.7-0.4-1.3-1-2-1.7c0.4,1.3,0.5,2.5,0.3,3.4s-0.6,1.5-1.1,2.2
		c-0.4,0.5-0.7,1-0.8,1.5c-0.4,1.5,0.1,3.5,0.5,5.2c0.1,0.3,0.1,0.5,0.2,0.7c1.1,4.9,1.6,8.6-2.7,11.9c-1.1,0.9-2.5,1.2-3.7,1.5
		c0,0.5-0.1,0.9-0.2,1.3c-0.1,0.4-0.2,0.7-0.2,1.1c-0.1,0.4-0.1,0.7-0.2,1.1c-0.1,0.5-0.3,0.9-0.4,1.2c-0.2,0.5-0.4,0.9-0.4,1.3
		c-0.2,2-0.5,2.8-2.4,3.8c-1.2,0.6-1.6,1.2-1.6,1.3c0,0.2,0.1,0.3,0.4,0.7c0.1,0.1,0.2,0.2,0.3,0.3c0.2,0,0.4,0,0.6,0s0.5,0,0.7,0
		c0.7,0,1.6,0,2-0.1c0.1,0,0.1,0,0.2,0c0.1-0.1,0.2-0.2,0.3-0.3c0.4-0.2,0.5-0.4,0.8-0.8c0.1-0.2,0.3-0.5,0.6-0.8
		c0.9-0.9,1.3-1.1,2.2-1.4c0.3-0.1,0.6-0.2,1.1-0.4c1.7-0.7,2.5-2,3.4-3.4c0.8-1.2,1.6-2.5,3-3.4s2.7-0.9,4-1c0.4,0,0.8,0,1.2-0.1
		c1.9-0.2,2.7-0.2,3.9-1.5c0,0,0.1-0.2,0.1-0.3c0.1-0.3,0.2-0.6,0.5-0.8c1.7-1.7,4-3.1,6.6-4c0.2-0.1,0.7-0.2,1.3-0.3
		c1.1-0.3,2.9-0.7,4.4-1.2c-0.4-0.6-0.5-1.1-0.5-1.8c-0.3,0-0.5,0-0.6,0c-0.7,0.1-1.3,0.3-1.9,0.5c-0.5,0.2-1.1,0.4-1.6,0.5
		c-1.9,0.4-3.3,0.1-3.9-0.8c-0.7-1-0.6-2.6,0.5-4.7c1.5-2.8,4.1-5.6,7.1-7.3c2.2-1.3,4.2-2.1,6.4-2.6c0.9-0.2,1.8-0.6,2.7-0.9
		c1.6-0.6,3.2-1.3,5-1.1c1,0.1,1.8,0.5,2.4,0.8c0.3,0.2,0.6,0.3,0.9,0.4c0-0.1,0-0.1,0-0.2c-0.1-0.4-0.2-1,0.1-1.8
		c0.4-0.9,2.1-2.7,3-3.3c0.9-0.5,1.4-0.5,2-0.3c0.2,0,0.4,0.1,0.6,0.1c0.5,0,1,0,1.5,0c0.4-0.4,0.9-0.7,1.3-0.9
		c0.2-0.1,0.4-0.2,0.5-0.3c1.2-0.8,1.5-1.9,1.9-3.3c0.2-0.9,0.5-1.8,1-2.7c0.4-0.6,0.8-1,1.2-1.4c0.3-0.3,0.6-0.6,0.8-0.9
		c0.7-1.1,1.5-2.1,2.4-2.9c1.5-1.3,3.3-1.7,5.1-2.1c0.5-0.1,1-0.2,1.5-0.4c0.1,0,0.2,0,0.3-0.1v-2.2c-0.3-0.4-0.4-0.9-0.4-1.3
		c0-0.1-0.1-0.3-0.1-0.4c-0.2-0.4-0.3-0.8-0.3-1.1c0-0.2-0.1-0.4-0.1-0.5v-0.1c-0.3-0.8-0.7-1.1-1.8-1.5c-0.9-0.4-1.9-0.4-2.9-0.4
		c-0.9,0-2,0.8-3,1.5c-0.2,0.2-0.5,0.3-0.7,0.5c-0.1,0.1-0.3,0.2-0.4,0.4c-0.3,0.2-0.5,0.4-0.7,0.7l-0.1,0.1L495,138
		c-0.2,0.1-0.3,0.3-0.4,0.4c-0.3,0.4-0.7,0.8-1.4,1c-0.6,0.2-1,0.4-1.4,0.6l0,0c-1.4,0.6-2.3-0.3-2.7-0.7c-0.1-0.1-0.2-0.2-0.3-0.2
		l-0.1,0.1l-0.2,0.1c-0.7,0.4-1.2,0.4-1.7,0.4h-1.6c-0.3,0-0.6-0.1-0.9-0.1c-0.3-0.1-0.6-0.1-0.9-0.1c-1.5,0-2.1-0.9-2.5-1.5
		l-0.1-0.2c-0.1-0.3-0.2-0.4-0.3-0.6c-0.2-0.4-0.3-0.7-0.4-0.8c-0.4,0-0.7,0-0.8,0.1c0,0.1-0.1,0.1-0.1,0.2c-0.4,0.5-1,1.4-2.6,1.1
		h-0.1c-1.4-0.6-2.1-1.2-2.8-2.4c-0.2-0.5-0.6-0.9-2-0.9h-2.3l-0.3-0.1c-0.4-0.2-0.9-0.3-1-0.3c-0.3,0-0.6,0.1-0.9,0.2
		c-0.4,0.1-0.9,0.3-1.6,0.3h-1.5c-1.3,0.2-2.4,0.3-3.9-0.9l0,0c-0.4-0.4-1-0.7-1.5-1.1c-0.6-0.3-1.2-0.7-1.7-1.1
		c-1.8-1.6-3.3-3.4-4.5-5.7c-0.8-1.1-1.8-2.6-2.5-4l-0.1-0.2c-0.7-1.2-1.5-2.5-1.5-3.9l-3.1-12.3l-1.8-11.7l-4-18.3l-1.2-6.1
		c-1.6,1.7-3.7,0.8-5.2,0.2c-2.7-1.1-3.1-2.3-3.6-3.6c-0.3-0.7-0.6-1.5-1.4-2.5c-1.2-1.4-3.1-2.2-5-3c-2-0.8-4.1-1.7-5.6-3.4
		c-0.6-0.8-1.1-1.6-1.5-2.4c-0.5-1-0.9-1.9-1.7-2.6c-0.4-0.4-1-0.8-1.6-1.2c-1.4-1-3-2.1-3.5-3.7c-0.3-1-0.2-2,0-2.9
		c0.1-0.6,0.2-1.1,0.1-1.5c-0.1-0.9-0.2-1.8-0.4-2.6c-0.2-0.9-0.4-1.9-0.5-3c-0.1-1.6-0.7-2.4-1.6-3.4c-0.5-0.6-1.1-1.3-1.5-2.2
		c-0.7-1.4-0.5-3-0.3-4.4c0.1-0.5,0.1-1,0.1-1.4c0-1-0.1-2.1-0.2-3.1s-0.2-2-0.2-3.1c0-0.3,0.1-0.6,0.1-0.9c0-0.2,0.1-0.5,0.1-0.6
		c-1-0.5-3.5-0.2-5.1,0c-0.8,0.1-1.4,0.2-2,0.2c-1.1,0-2.3,0-3.4,0c-1.9-0.1-3.8-0.1-5.5,0.2c-0.5,0.1-1,0.2-1.5,0.3
		c-1.3,0.3-2.6,0.7-4.1,0.4c-1.4-0.3-2.7-1-3.9-1.7c-0.4-0.2-0.9-0.5-1.3-0.7c-0.7-0.3-1.4-0.7-2-1c-3.9-2-8-4-12.3-4.8
		c-3.5-0.7-5.3-2.2-7.4-4.2c-0.7-0.6-1.3-1.2-2.1-1.8c-1.8-1.4-3.7-2.9-5.9-3.9c-0.4-0.2-0.9-0.4-1.4-0.5l-33.4,47.3l-13,13.5
		l1.5,47L305.4,107.4z"/>
	<path class="st3" d="M482.5,163.1L482.5,163.1L482.5,163.1L482.5,163.1L482.5,163.1z"/>
	<path class="st3" d="M483.1,162.6L483.1,162.6L483.1,162.6L483.1,162.6z"/>
	<path class="st2" d="M300.8,108.4c-0.1,0.1-0.2,0.2-0.4,0.4l0,0c0-0.3,0.1-0.5,0.4-0.7V108c-0.4,0.1-0.8,0.3-0.8,0.8
		c0,0.4,0.4,0.8,0.8,0.8c0-0.3,0-0.5,0-0.8C300.8,108.6,300.8,108.5,300.8,108.4z"/>
	<path class="st2" d="M301.9,108.3C301.9,108.3,301.9,108.4,301.9,108.3C301.9,108.4,301.9,108.3,301.9,108.3z"/>
	<path class="st2" d="M300.4,108.7L300.4,108.7c0.1-0.1,0.2-0.2,0.4-0.3c0-0.1,0-0.2,0-0.3C300.5,108.2,300.4,108.4,300.4,108.7z"/>
	<path class="st2" d="M302,108.6c0-0.1,0-0.1-0.1-0.2C301.9,108.5,302,108.5,302,108.6L302,108.6z"/>
	<path class="st2" d="M301.1,107.9c-0.1,0-0.2,0-0.3,0v0.1C300.9,108,301,108,301.1,107.9z"/>
	<path class="st2" d="M301.1,107.9h0.1c-0.1,0.1-0.3,0.3-0.4,0.4c0,0.1,0,0.2,0,0.4l0.4-0.1l0.8-0.1c0-0.1,0-0.2-0.1-0.2
		c0,0,0-0.1-0.1-0.1C301.7,108,301.4,107.9,301.1,107.9z"/>
	<path class="st2" d="M301.1,107.9c-0.1,0-0.2,0-0.3,0.1c0,0.1,0,0.2,0,0.3c0.1-0.1,0.3-0.3,0.4-0.4H301.1z"/>
	<path class="st2" d="M301.9,108.3c-0.1-0.2-0.4-0.4-0.7-0.4c-0.1,0-0.3,0-0.4,0.1c0.1,0,0.2,0,0.3,0
		C301.4,107.9,301.7,108,301.9,108.3z"/>
	<polygon class="st2" points="301.2,108.7 301.2,108.7 300.8,108.8 	"/>
	<path class="st2" d="M469.6,176.8c-0.2-0.2-1.8-0.2-3.1-0.1c0,0.2,0,0.3,0,0.4c0,1.2,0,1.5,0.8,2.3c0.1,0.1,0.2,0.1,0.2,0.2
		C469.4,178.8,470.6,177.9,469.6,176.8z"/>
	<g>
		<path class="st1" d="M325.2,381.7c-0.5-0.9-0.5-2.2,0.4-2.7c0.3-0.1,0.6-0.2,1-0.3c0.4-0.1,1-0.2,1.2-0.3c0.5-0.6-0.2-1.5-0.4-1.8
			c-0.2-0.2-0.3-0.3-0.4-0.5c-0.5-0.7-1.1-1.3-0.8-2.6l0.1-0.5c0.2-0.6,0.4-1.3,0.8-1.9c0.3-0.5,0.7-0.9,1.1-1.3
			c0.3-0.2,0.5-0.5,0.7-0.7c0.5-0.9,0.4-2.2,0.4-3.5c0-0.3,0-0.6,0-1c0-0.1,0-0.2,0-0.4c0-0.3,0.1-1.1-0.1-1.3
			c-0.2-0.2-1.1,0.1-1.7-0.4c-1.1-0.5-1.2-1.9-1.4-3.1c0-0.3-0.1-0.5-0.1-0.7c-0.1-0.2-0.2-0.5-0.2-0.7c-0.1-0.2-0.1-0.4-0.2-0.6
			c-0.2-0.5-0.6-0.7-1-1c-0.2-0.2-0.5-0.4-0.7-0.6c-0.6-0.4-0.9-1-1.2-1.7c-0.1-0.1-0.1-0.3-0.2-0.4c-0.1-0.4-0.4-0.7-0.6-1.1
			c-0.2-0.3-0.5-0.7-0.7-1.2c-0.1-0.3-0.5-1.1-0.5-2c-0.2-0.8,0.3-1.2,0.7-1.6c0.3-0.3,0.5-0.5,0.6-0.9l0.1-0.2
			c0.3-0.4,0.2-0.9,0.2-1.4c0-0.2,0-0.4,0-0.5c0-0.7-0.1-1-0.3-1.5l-0.1-0.3c-0.5-1.2-0.7-2.1-0.7-3c0-0.6,0.1-1.2,0.3-1.7
			c0.1-0.4,0.2-0.8,0.2-1.2c0-0.2,0-0.5,0-0.7c0-0.7,0.1-1.4-0.2-2c-0.1-0.4-0.2-0.8-0.3-1.2c-0.1-0.4-0.1-0.7-0.2-1
			c-0.1-0.2-0.2-0.4-0.2-0.6c0-0.1-0.1-0.3-0.2-0.5c-0.1-0.3-0.2-0.5-0.3-0.8c-0.1-0.2-0.1-0.4-0.2-0.6c-0.3-0.6-1.5-0.5-2.6-0.4
			c-0.6,0.1-1.2,0.1-1.7,0c-0.7,0-1.1-0.5-1.4-0.9c-0.2-0.2-0.3-0.4-0.5-0.5c-0.7-0.7-1.3-0.9-1.9-1.2c-0.2-0.1-0.5-0.2-0.7-0.3
			l-0.1-0.1c-0.1-0.1-0.3-0.2-0.4-0.3c-1.2-1-2.2-1.8-3.1-1.2c-0.1,0.1-0.2,0.2-0.3,0.4c-0.1,0.3-0.3,0.5-0.7,0.7
			c-0.5,0.3-0.9,0.3-1.4,0c-0.5,0-1-0.2-1.4-0.4c-0.2-0.1-0.4-0.2-0.6-0.2c-0.3,0-0.6,0.2-0.9,0.4c-0.1,0.1-0.3,0.2-0.4,0.2
			c-0.8,0.3-1.7,0.3-2.4,0.3h-1.3c-0.5,0-1.1,0.6-1.5,1c-0.2,0.1-0.3,0.2-0.4,0.3c-0.6,0.4-1.3,1-2.1,0.5c-0.4-0.2-0.7-0.5-0.9-0.8
			c-0.2-0.2-0.4-0.5-0.6-0.5c-0.4-0.2-0.5-0.1-0.6,0c-0.2,0.2-0.4,0.5-0.6,0.9c-0.2,0.5-0.5,0.8-0.9,0.9c-0.7,0.1-1.2-0.6-1.6-1
			c-0.1-0.1-0.2-0.2-0.3-0.4c-0.4-0.5-0.7-0.8-1.1-0.8c-0.3,0.1-0.6,0.4-0.9,0.7c-0.3,0.4-0.7,0.9-1.4,1c-0.3,0.1-0.6,0.1-0.7,0
			c-0.5-0.2-0.6-0.7-0.8-1.1c-0.1-0.2-0.2-0.5-0.2-0.6c-0.2-0.1-0.4-0.1-0.9,0.2c-0.5,0.2-1,0.5-1.6,0.2c-0.4-0.2-0.6-0.5-0.8-0.8
			c-0.3-0.3-0.5-0.6-0.9-0.7c-0.3-0.1-0.4,0.1-0.8,0.6c-0.3,0.4-0.8,1-1.5,1s-1.2-0.7-1.7-1.4c-0.2-0.2-0.3-0.4-0.4-0.5
			c-0.2-0.2-0.3-0.4-0.4-0.6c-0.3-0.5-0.7-1.2-1.2-1.5c-0.2,0-0.5,0.1-0.8,0.1c-0.4,0.1-0.7,0.1-0.9,0.1c-0.1,0-0.1,0.1-0.2,0.1
			c-0.3,0.2-0.7,0.4-1.3,0.4c-0.4,0-0.7-0.2-1-0.4c-0.1-0.1-0.2-0.2-0.4-0.3l-0.1-0.1c-0.8-0.6-1.7-0.6-2.8-0.6c-0.2,0-0.5,0-0.7,0
			c-1,0-1.9-0.2-2.9-0.7c-0.4-0.3-0.7-0.6-1-0.9s-0.5-0.5-0.8-0.7c-0.4-0.2-1-0.4-1.7-0.6c-0.9-0.4-1.9-0.4-3-0.4
			c-0.7,0-1.5,0-2.2-0.5c-0.9-0.6-1.3-1.4-1.3-2.6v-25.8l-33-1.5l-2.8,62.8l-42.8-2.9v3c0.2,0,0.5-0.1,0.7-0.1
			c3.5-0.9,2.4,3.1,4.5,4.9c0.3,0.3,0.8,0.6,1.2,0.8c0.9,0.6,0.7-0.2,1.2,1.1c0.6,1.5,0.9,2,2.1,3c0.9,0.9,2.1,1.6,3,2.4
			c1,1,1.7,2.2,2.7,3.3c0.5,0.5,0.9,1,1.5,1.4c0.5,0.4,1.7,0.6,2.1,1.2c0.3,0.5-0.1,1.5,0,2.1c0.2,0.8,0.6,1.2,1.3,1.7
			s1,0.3,1.1,1.2c0.1,0.5-0.2,1.6-0.4,2c-0.1,0.3-0.5,0.2-0.6,0.6c-0.1,0.3,0,0.9,0,1.2c0,1-0.1,2,0.2,3c0.3,0.9,1.2,2.3,2.1,2.7
			c0.5,0.2,1.2-0.2,1.7,0c0.8,0.4,0.7,1.3,1,2c1.2,2.7,4.5,2.4,7,3.4c1.4,0.6,2,2,3.2,2.7c1,0.6,3,0.5,4.1,0.3
			c-0.1-1.3,0.7-1.8,1.5-2.7c1.1-1.1,1.1-2,1.3-3.5c0.2-1.4,0.6-2,1.6-2.7c0.6-0.4,1-0.7,1.6-1c0.3-0.1,1.3-0.4,1.5-0.5
			c0.4-0.3,0.3-0.9,0.6-1.1c1.5-1.5,1.7,0,2.5,0.9c1.1,1.2,3.1,0.9,4.6,0.9s3.1,0,4.4,0.9c1.5,1.1,1.4,3,3.8,3.3
			c1.6,0.2,2,0.2,3,1.5c0.2,0.3,0.4,1.1,0.6,1.5c0.2,0.5,0.4,0.9,0.7,1.4c0.6,1,1.8,1.7,2.2,2.8c0.5,1.1,0.5,2.7,0.9,3.8
			c0.4,1.2,1.1,2.1,2,3c1.5,1.6,0.9,2.2,1.3,4.1c0.3,1.3,1.2,2.4,2.3,3.2c1.5,1,1.7,1.8,2.6,3.4c0.4,0.6,0.6,1,1.2,1.5
			c0.5,0.5,0.7,0.5,1.2,0.7c0.4,0.2,1.1,0.3,1.4,0.7c1,1.3,0.3,5,0.6,6.6c0.1,0.8,0.3,1.9,0.6,2.5c0.5,1,1.2,1.8,1.7,2.8
			c0.7,1.4,1.7,4.1,3.1,5.2c0.5,0.4,2.1,0.6,2.7,0.7c0.8,0.1,2.8-0.2,3.4,0.3c0.6,0.4,0.8,1.8,1.2,2.5c0.7,1.2,1.2,1.6,2.7,1.6
			c2.1,0.1,4.4-0.6,5.8,0.9c1.5,1.5,2.6,2.7,4.8,2.3c0-0.7,0.9-2,1.8-1.7c0.1,0.5-0.1,1,0,1.5c0,0.2,0.1,0.4,0.2,0.6
			c0.4-0.7,0.7-1.7,0.7-2.3c0-1.1-0.6-2.2-1.6-2.7c-1.1-0.6-1.4-0.7-1.3-2.1c0-0.8-0.2-1.8,0.2-2.5c0.4-0.8,1-0.9,0.9-2
			c-0.1-0.8-0.8-1.1-1.1-1.8c-0.3-0.5-0.7-1.6-0.8-2.2c-0.4-1.7,2.3-3.7,0.9-5.4c-0.5-0.5-1.2-0.4-1.8-0.4c0,0-1.6-0.2-1.2-0.4
			c1.2-1,2.7,0.5,3.6-1.1c0.4-0.8,0.7-1.4,1.2-2.1c0.6-0.7,0.8-1.2,0.7-2.1c-0.7-0.2-1.5-0.1-1.8-0.7c-0.2-0.5,0.2-1.3,0.7-1.5
			c0.6-0.3,1.1,0.2,1.6-0.2c0.4-0.3,0.5-1.1,0.6-1.6c0.2-1.4-0.2-2.1,1.2-2.9c1-0.5,2.3-0.2,2.6-1.6c0.4-1.3-0.2-2.1,1.6-1.4
			c1,0.4,2.1,0.5,2.4-0.7c0.4-1.2-0.6-2,0.9-2.6c0.5-0.2,1.5-0.5,2-0.2c0.6,0.3,0.2,0.7,0.7,1c0.7,0.5,2.7-0.9,3.3-1.3
			c1.1-0.7,2.1-1.4,3.3-2c0.8-0.4,1.9-0.8,2.6-1.4c0.8-0.6,1.5-1.5,2.1-2.2c0.3-0.4,0.4-0.4,0.6-0.9c0.3-0.7,0.2-1.1,0.9-1.6
			c1-0.8,1.7-1.4,2.4-2.4c0.9-1.1,1.6-1.4,0.2-2.5c-0.8-0.7-2.7-2.2-0.7-2.4c0.9-0.1,2.1-0.2,2.9-0.2c0.4,1.1-1.4,1.9-0.4,3
			c0.2,0.2,1.2,0.5,1.5,0.5c0.6,0,1.2-0.3,1.7-0.7c1-0.8,1.5-1.4,2.8-1.8c0.7-0.2,1.4-0.5,2-1c0.6-0.4,0.7-0.4,1.4-0.6
			c0.5-0.2,1-0.3,1.5-0.5l-0.4,0.1L325.2,381.7z"/>
	</g>
	<g>
		<path class="st4" d="M373.3,361.7l-4.2,1h-17.7l-0.1-0.1c-1.5-0.9-0.3-3.3,0.4-4.9c0.2-0.4,0.4-0.9,0.5-1.1
			c0.1-0.3,0.1-0.7,0.1-1.2c0-0.3,0-0.7,0.1-1c0.2-1.1,0.9-1.8,1.6-2.5l0.3-0.3c0.6-0.5,1.1-1,1.5-1.6c0.2-0.3,0.4-0.6,0.6-1
			c0.2-0.3,0.3-0.6,0.5-0.9c0.5-0.7,0.8-1.3,0.6-2.1c-0.2-0.6-0.8-1.8-1.1-2.3c-0.1-0.2-0.3-0.3-0.5-0.5c-0.4-0.3-0.8-0.7-0.8-1.6
			c0-0.3,0-0.7,0-1.1c0-0.6,0.1-1.2,0-1.7c-0.1-0.3-0.1-0.5-0.2-0.7c-0.2-0.6-0.3-1.2-0.3-2c0-0.1,0-0.1,0-0.2l-32.5,1.7
			c0,0.3-0.1,0.6-0.2,1c-0.1,0.5-0.2,1-0.2,1.5c0,0.8,0.2,1.6,0.6,2.7l0.1,0.3c0.2,0.5,0.4,1,0.4,1.8c0,0.1,0,0.3,0,0.5
			c0,0.6,0.1,1.3-0.3,1.9c-0.1,0.6-0.5,1-0.8,1.3c-0.4,0.4-0.5,0.6-0.5,0.9c0,0.6,0.2,1.2,0.4,1.7c0.2,0.4,0.4,0.7,0.7,1
			c0.3,0.4,0.6,0.8,0.7,1.2c0.1,0.1,0.1,0.2,0.2,0.4c0.3,0.6,0.5,1.1,1,1.4c0.3,0.3,0.5,0.4,0.7,0.6c0.4,0.3,0.9,0.7,1.2,1.3
			c0.1,0.3,0.2,0.5,0.3,0.8c0.1,0.2,0.1,0.4,0.2,0.6v0.1c0,0.2,0.1,0.5,0.1,0.8c0.1,1,0.3,2.2,0.9,2.4l0.1,0.1
			c0.2,0.2,1.2-0.1,1.8,0.4c0.5,0.5,0.4,1.4,0.4,2c0,0.1,0,0.2,0,0.3c0,0.3,0,0.6,0,0.9c0,1.4,0.1,2.8-0.5,3.9
			c-0.2,0.4-0.5,0.6-0.8,0.9c-0.4,0.3-0.7,0.7-0.9,1.1c-0.4,0.5-0.6,1.2-0.7,1.7l-0.1,0.4c-0.1,0.8,0.2,1.2,0.7,1.8
			c0.1,0.1,0.2,0.3,0.4,0.5c0.6,0.6,1.2,1.9,0.4,3c-0.4,0.4-1.1,0.5-1.7,0.6c-0.3,0-0.6,0.1-0.7,0.2c-0.4,0.3-0.4,1.1-0.1,1.6
			l0.1,0.2l0.2,1.2c3.3-1,6.8-1.5,10.2-0.1c1.6,0.7,2.5,1.7,4.4,1.8c1.2,0.1,2.4,0,3.6,0c1,0,2.2-0.3,2.6-1.3c0.3-0.8-0.4-2,0.3-2.7
			c0.8-0.8,2.6,0.4,3.2,0.9c1,0.8,2.2,1.4,3.4,1.8c1.2,0.5,2.5,0.6,3.7,1.2c0.6,0.3,0.9,0.6,1.2,1.2c0.3,0.7,0.3,1.7,1.1,2
			c0.7,0.3,1.5-0.1,2.2,0.2c0.4,0.2,0.7,0.9,1.1,1.1c0.9,0.3,1.5-0.6,2.1-1.1c0.8-0.7,1.1-0.7,2.2-0.7c1.4,0.1,2.4,0.7,2.2,2.2
			c2.1,0.5,1.5-3,1.5-4.2c0-0.9,0.2-1.5,1.1-1.8c0.7-0.2,1.9-0.1,2.6,0c-0.1,3.2,3.6,2.5,5.5,3.3c0.7,0.3,2.3,3,3.1,2.1
			c0.8-0.9-1-3.1-1.5-3.7c-1.3-1.6-1.9-0.2-3.6-0.7c-1.2-0.3-1.8-2-1.9-3.1c-0.1-1.3,0.2-1.6,0.9-2.5c0.8-1,0.8-2.2,0.6-3.4
			c-0.7,0.3-0.9,0.8-1.7,0.9c-0.6,0.1-1.4,0-2,0c-0.1-0.4,0-0.8-0.1-1.2c-1.8,0.6-2.9,2.1-4.8,2.1c-1.2,0-1.6-0.3-1.8-1.6
			c-0.1-0.8-0.1-2.1,0-2.9c0.2-1.2,1-0.9,2.2-0.9s1.7,0.1,2.9,0.6c0.5,0.2,1.5,0.5,2.1,0.5c0.7,0,1.1-0.5,1.8-0.7
			c0.1,0,0.1,0,0.2-0.1l-3.5-5.1L373.3,361.7L373.3,361.7z"/>
	</g>
	<g>
		<path class="st4" d="M390,362.2l-3.4-3.4l0.8-3.7l1.5-2.6l-1.5-46.7l-22.6,1.1c-0.3,0.5-0.8,0.9-1.3,1.3c-0.3,0.3-0.6,0.5-0.8,0.7
			c-0.1,0.1-0.2,0.2-0.3,0.4c-0.3,0.3-0.5,0.7-1,1c-0.2,0.1-0.4,0.2-0.7,0.2c-0.2,0-0.4,0.1-0.5,0.2c0,0.1,0.1,0.4,0.1,0.6
			c0.1,0.2,0.1,0.4,0.1,0.5c0.1,0.8-0.1,1.5-0.2,2.2c-0.3,1.2-1,2-1.7,2.8c-0.6,0.6-1.1,1.2-1.4,2c0,0.1,0,0.2-0.1,0.3
			c0,0.2-0.1,0.4-0.1,0.6c-0.1,0.2-0.2,0.4-0.3,0.5c-0.1,0.1-0.2,0.3-0.2,0.4c-0.1,0.2-0.1,0.4-0.1,0.7c0,0.3,0,0.6-0.1,0.9
			c-0.2,0.7-0.7,1.3-1.2,2c-0.3,0.4-0.7,0.8-0.8,1.2c-0.7,1.3-0.3,2.2,0.1,3.3c0.3,0.7,0.5,1.4,0.6,2.2c0,0.4,0,0.8-0.1,1.2
			c0,0.5-0.1,1.1,0,1.3h0.1c0.2,0.1,0.5,0.2,0.6,0.7c0.1,0.4,0.1,0.9,0,1.4c0,0.2,0,0.4,0,0.5c0,0.7,0.1,1.2,0.3,1.8
			c0.1,0.2,0.1,0.5,0.2,0.8c0.1,0.6,0.1,1.3,0,2c0,0.3,0,0.7,0,1c0,0.5,0.2,0.7,0.5,1c0.2,0.2,0.4,0.3,0.6,0.6
			c0.4,0.6,1.1,1.8,1.3,2.6c0.3,1.2-0.1,2-0.7,2.8c-0.2,0.3-0.3,0.6-0.5,0.9c-0.2,0.4-0.4,0.7-0.6,1.1c-0.5,0.7-1,1.2-1.6,1.7
			l-0.3,0.3c-0.6,0.6-1.2,1.1-1.3,2c0,0.3-0.1,0.6-0.1,1c0,0.5,0,0.9-0.2,1.4c-0.1,0.3-0.3,0.7-0.5,1.2c-0.5,1.1-1.5,3.1-0.9,3.7
			H369l5.2-1.2v6.2l3.4,4.9l-0.4,0.3c1.3-0.3,2.7-0.3,3.8-0.8c0.4-0.2,0.8-0.6,1.1-0.8c0.2-0.2,0.6-0.8,0.9-1c1-0.6,2.4,0,3.4,0.3
			c1.1,0.4,1.6,0.4,2.7-0.1c0.5-0.2,0.9-0.3,1.3-0.4H390V362.2z"/>
	</g>
	<g>
		<path class="st1" d="M98.9,267.3l-2.2,13H92l-2.6-0.9l-1.8,14h-0.9l1.8,7.4l2.2,3.7l-4.2,1.9v3.8l-2.4,3.3l-2.5,1.6v3.4l1.9,2.3
			l-2,3.8l-2.5-0.1v-0.4l-0.6,2.7l41.7,24l22.9,3.1l9.1-78.1C132,273.7,112.2,270.9,98.9,267.3z"/>
	</g>
	<g>
		<path class="st1" d="M81,323.8l1.5-2.8l-1.7-2.1v-4.2l2.8-1.9l2.1-2.9v-4.1l3.8-1.7l-1.8-3l-2-8l-46.2-66.6v-0.2l9.7-39.3
			L7.3,175.5c-0.2,0.7-0.5,1.3-0.8,2c-0.3,0.8-0.2,1.7-0.2,2.7c-0.1,1.5-0.4,2.9-0.7,4.4c-0.2,1.1-0.8,2-1.4,3
			c-0.5,0.9-0.6,1.2-0.6,2.1c0,0.5-0.1,0.9-0.2,1.4c-0.4,1.3-1,1-2,1.6c-0.9,0.6-1.3,1.6-1.3,2.7c0,1.3,0,2.6,0,4
			c0,0.8,0.3,1.5,0.4,2.3s0.3,0.9,0.6,1.5c0.4,0.8,0.8,1.6,1.1,2.4c0.6,1.2,0.4,3.3-0.2,4.5c-0.5,0.8-0.8,1.2-0.8,2.2
			c0,0.8,0,1.6,0,2.4c0,1.9,0.5,3.4,1.3,5c0.4,0.9,0.8,1.7,1.2,2.6c0.3,0.7,0.8,1.2,1.1,1.8c0.8,1.8,0.7,3.4,0.7,5.3
			c0,1.1-0.2,2.3,0,3.3c0.1,0.5,0.7,2,1.1,2.3c0.8,0.5,1.6-0.7,2.2-1.1c0.5-0.4,1-0.3,1.3-0.8c0.2-0.3-0.1-0.8,0.3-1.1
			c0.4-0.3,1.5,0.2,1.7,0.5c0.9,1.1-0.2,2-0.8,2.8c-0.6,0.9-0.4,1.8-0.5,2.9c-1.2,0.2-2.4-0.4-2.2,1.4c0.2,1.2,1.1,1.8,1.1,3.2
			c0,1-0.1,1.2-0.8,1.9c-0.5,0.6-0.7,1-0.5,1.8c0.3,1.3,2.2,1.5,3.5,1.6c0,0.6,0.4,0.7,0.7,1.1c0.4,0.6,0.4,1.1,0.4,1.9
			c0,1.4-0.1,1.5-1.1,2.3c-1.5,1.2-1.2,2.9-0.8,4.7c0.2,0.9,0.9,1.5,1.3,2.3c0.4,0.8,0.8,1.7,1,2.6c0.4,1.6,0.7,3.4,1.3,5
			c0.6,1.7,2.1,3,2.8,4.6c0.5,1.2,0.2,2.5,1.1,3.6c0.6,0.8,0.8,1.4,1,2.3c0.3,1.1,0.2,1.7-0.1,2.8c-0.2,0.8-1,2-0.9,2.9
			s1.2,2.1,2,2.7c0.6,0.4,1.3,0.7,2,0.9c0.1,0,0.6,0.1,0.8,0.2c0.3,0.1,0.6,0.5,0.9,0.6c0.6,0.3,1.3,0.1,1.9,0.3
			c1,0.3,2.2,1.1,3.2,1.6c2,1,2.7,2.2,4.1,3.8c0.7,0.8,1.5,1.7,2.3,2.3c0.8,0.6,1.8,0.6,2.7,1.1c1.1,0.6,1.7,1.1,1.9,2.2
			c0.3,1.3,1.7,1.6,2.6,2.5c1.3,1.2,2.4,2.6,3.3,4.2c0.6,1,1.4,1.7,2.1,2.6c0.3,0.4,0.4,0.6,0.6,1.2c0.2,0.4,0.3,0.9,0.5,1.3
			c1,1.7,1.5,2.8,1.5,4.9c0,0.9-0.2,2,0,2.9c0.2,1,1.1,1.5,1.3,2.4c0,0.2,0.1,0.4,0.1,0.6l26.7,2v-0.4L81,323.8z"/>
	</g>
	<g>
		<path class="st4" d="M172.7,347.3l42.9,2.9l3.1-69.2c-14.6-0.8-40.4-2.5-65.5-5.1L144,354h-0.4l9.8,1.3l0.9-5.3
			c4,0.3,8.1,0.7,12.1,1c2.2,0.2,4.6,0.6,6.8,0.3h-0.4v-4H172.7z"/>
	</g>
	<g>
		<path class="st1" d="M502.9,238.6c-0.2-0.1-0.3-0.2-0.5-0.2c-0.4-0.1-1.1-0.3-1.4-0.2h-0.4v-0.4c-0.2-2.1-0.1-3.8,0.2-5v-0.1
			c0.1-0.4,0.4-1.6,0.1-2c-0.2-0.2-0.3-0.2-0.9,0.2c-0.3,0.2-0.7,0.5-1.1,0.4c-0.5-0.1-0.7-0.4-0.9-0.7c-0.1-0.1-0.2-0.2-0.2-0.3
			c-0.2-0.2-0.5-0.2-0.9-0.1c-0.1,0-0.2,0-0.3,0c-0.2,0-0.5,0.1-0.8,0.1c-1,0.2-2,0.3-2.5-0.2s-0.4-1.3-0.4-2c0-0.5,0.1-0.9-0.1-1.1
			c-0.1-0.1-0.3-0.2-1.4-0.1c0,0.1,0,0.3,0,0.4c0,0.8,0,1.7-0.6,2.1c-0.4,0.3-1,0.3-1.7,0.1c-0.6-0.2-1.1-0.6-1.5-1
			c-0.3-0.2-0.5-0.5-0.8-0.6c-0.4-0.2-1.1-0.2-1.6-0.2c0,0.3,0,0.7,0,1.1c0.1,0.9,0.1,1.9-0.4,2.7c-0.1,0.2-0.4,0.4-0.5,0.6
			c-0.2,0.1-0.3,0.2-0.4,0.4s-0.2,0.5-0.2,0.8c-0.1,0.4-0.1,0.9-0.4,1.2c-0.2,0.4-0.8,0.9-1.1,1.2l-0.1,0.1
			c-0.7,0.5-0.9,0.6-1.3,1.4c-0.4,0.6-0.8,1.2-1.1,1.7l-0.3,0.5c-0.2,0.3-0.3,0.6-0.4,0.9c-0.1,0.2-0.1,0.4-0.2,0.7
			c-0.5,1.4-2,1.9-3.2,2.4c-0.2,0.1-0.4,0.1-0.6,0.2h-0.2c-0.5,0-1.3,0.3-1.6,0.9c-0.2,0.3-0.2,0.5-0.3,0.8
			c-0.1,0.4-0.1,0.8-0.4,1.2c-0.7,0.7-1,1.1-1,1.8c0,1.1-0.6,1.7-1.2,2.1c-0.1,0.1-0.2,0.3-0.3,0.4c-0.4,0.5-0.4,0.6-0.3,0.8
			s0.3,0.3,0.4,0.4c0.3,0.3,0.7,0.6,0.7,1.4c0,0.6-0.4,1.1-0.8,1.5c-0.1,0.2-0.3,0.3-0.3,0.4c-0.2,0.3-0.3,0.4-0.4,0.6
			c-0.3,0.4-0.5,0.7-0.7,1.1l-0.1,0.1c-0.5,0.7-0.8,1-1.6,1.3c-0.4,0.2-1,0.6-1.4,1c-1,1-2.6,2.3-4.2,2.8c-0.6,0.2-1.3,0.2-2,0.2
			c-0.8,0-1.6,0-2.1,0.4c-0.1,0.1-0.2,0.3-0.3,0.5c-0.2,0.4-0.5,0.8-1,1.1l-9.3,9.1c27.5-4,57-8.9,71.7-13.7l0.1,0.4
			c0.1-0.3,0.3-0.7,0.4-1.1c0.4-1.6-0.6-4-2-4.8c-1-0.6-2.3-0.4-3.1,0.2c-0.6,0.5-0.8,1.4-1.5,1.7c-0.8,0.4-2.6,0-1.9-1.1
			c0.4-0.7,1.3-0.6,1.8-1.1c1.2-0.9-0.6-1.4-1.4-1.7c-0.7-0.3-1.6-0.4-1.2-1.4c0.2-0.4,0.4-0.5,0.8-0.7c0.7-0.3,1.7,0.1,2.3-0.4
			c0.6-0.6,0-1.5-0.4-2c-0.6-0.7-1.5-1-2.4-1.1c-0.7-0.1-3-0.6-3.3-1.3c-0.6-1.6,1.6,0,1.9,0.2c0.7,0.4,1.9,0.4,2.6,0.2
			c0.1-1.3,0.3-2.8-0.7-3.7c-0.7-0.6-1.4-0.8-2.4-1s-1.6-0.4-2.5-0.8c-0.7-0.3-1.1-0.7-1-1l-0.5-0.1
			C503.7,239,503.3,238.8,502.9,238.6z"/>
	</g>
	<g>
		<path class="st1" d="M513.9,233.5l-4.9-16.1l-36,7.7v4.9h0.7l2.4-2.7l2.5-3.2l2.6,2.5l1.3-2.2l1.7-1.5h4.1l2.2,2.2l0.5,0.9
			c0.8-0.1,1.8-0.2,2.3,0.4c0.4,0.5,0.3,1.1,0.3,1.7c0,0.5-0.1,1.1,0.2,1.3c0.2,0.2,1.3,0,1.7-0.1c0.4-0.1,0.7-0.1,0.9-0.1h0.3
			c0.5,0,0.9,0,1.4,0.3c0.2,0.1,0.3,0.4,0.5,0.5c0.1,0.1,0.2,0.3,0.3,0.3c0.1,0,0.3-0.2,0.5-0.3c0.5-0.3,1.3-1,2.1,0
			c0.6,0.7,0.2,2,0.1,2.8v0.1c-0.3,1.1-0.4,2.5-0.2,4.3c0.5,0,1,0.2,1.3,0.3c0.2,0.1,0.4,0.2,0.6,0.3c0.3,0.2,0.6,0.3,1,0.3h0.1
			l1.2,0.3l-0.1,0.4c0.6-0.1,1.5,0.3,2.2,0.2c0.8-0.1,1-0.3,0.9-1.2c-0.1-0.8-0.6-1.1-1.1-1.7c-1.1-1.3-2.4-1.5-2.4-3.5
			c0-0.4,0.1-0.9,0-1.3c-0.1-0.3-0.7-0.4-0.9-0.7c-0.4-0.6-0.2-1.2,0.1-1.7c0.5-0.9,1.5-1.3,1.1-2.5c-0.2-0.8-1-0.9-0.2-1.8
			c0.4-0.5,1.3-1,1.8-1.5c0.4-0.5,0.8-1.2,1.3-1.5c-0.1,2-0.1,3.8,0.4,5.7c0.2,0.7,0.1,1.8,0.4,2.4c0.5,1,1.4,0.6,2.3,0.7
			c-0.4,1-1.7,0.7-1.5,1.8c0.1,0.6,0.8,1.2,1,1.8s0.3,1.7,0.9,2.2c0.8,0.6,1-0.3,1.7-0.3c1.2,0,0.6,1.9,1,2.7
			c0.2,0.4,0.9,1.4,1.3,1.7c0.5,0.4,0.9,0.3,1.5,0.4c0.2,1-0.4,1.6-0.7,2.5c-0.4,1.1-0.6,2-0.6,3.2c0,0.7-0.2,5.5,0.6,5.6
			c0.7-1.4,0.6-3.2,1.3-4.7c0.7-1.7,1.2-2.8,1.2-4.6c0-1.3,0-2.8,0.5-4c0.1-0.2,0.5-0.8,0.7-1.1c0.1-0.3,0.5-0.6,0.6-0.9
			c0.3-0.5,0.7-1.1,0.9-1.8c0.3-0.9,0.4-1.8,0.4-2.6l-3.2,1.3L513.9,233.5L513.9,233.5z"/>
	</g>
	<g>
		<path class="st4" d="M398.9,361.7v-3l30.8-4.4c-0.1-0.2-0.2-0.3-0.3-0.5c-0.5-0.5-1-1-1-1.6v-1.1c0-0.3,0-0.7,0-1
			c0-1,0.1-2-0.2-2.8c-0.5-0.7-0.7-1.2-0.7-2V344c0-0.9,0.1-1.8,0.1-2.7c0.1-0.9,0.1-1.8,0.1-2.6c0-0.8-0.2-2-0.6-2.8l-0.2-0.2
			c-1.3-1.3-2.6-2.7-2.2-3.7l-9.8-30.5l-26.8,4.3l1.5,47l-1.6,2.7l-0.6,3l3.3,3.3v7.3c0.4,0,0.7,0,1.2,0c0.6,0,1.9,0.3,2.4-0.1
			c0.9-0.8-0.1-3.8,0-4.9c1.4-0.5,1.9,2.9,2.5,3.7c0.4,0.7,0.4,0.2,0.3,0.9c-0.1,0.4-0.7,0.9-0.4,1.4c0.4,0.7,2,0.1,2.5-0.2
			c0.6-0.3,1.1-1,1.7-1.2c0.3-0.1,0.6,0,0.9,0v-4.2L398.9,361.7z"/>
	</g>
	<g>
		<path class="st1" d="M513,219.1l-0.8-1.5v-1.4c0-0.9,0.4-1.3,0.8-1.6l-1.6,0.3l-1.5,2.1l4.7,15.7h4.1l3.2-1.3l0.2,0.4
			c0-0.5-0.1-1-0.1-1.5c-0.2-1.4-0.8-1.7-1.8-2.7s-1.6-2.2-2.7-3.2c-0.6-0.5-1.2-1-1.9-1.5c-0.9-0.7-0.9-1-0.8-2.2l-0.4,0.3
			L513,219.1z"/>
	</g>
	<g>
		<path class="st4" d="M471.6,349.4c-0.1-0.4-0.3-0.7-0.4-1.1c-0.1-0.9-0.1-2,0-2.9c0.1-0.7,0.3-1.3,0.6-1.8c0.4-0.5,0.8-0.6,1-1.4
			c0.1-0.7-0.2-1.5,0-2.2c0.1-0.5,0.5-1,0.7-1.4c0.2-0.5,0.5-0.8,0.7-1.4c0.2-0.5,0.2-1.4,0.5-1.8c0.2-0.3,0.6-0.5,0.9-0.8l-2.1-0.9
			v-0.3c0-0.5-0.3-0.8-0.7-1.2c-0.3-0.3-0.6-0.6-0.8-1c-0.3-0.5-0.3-1.1-0.3-1.3c0-0.6-0.2-1.1-0.5-1.5c-0.6-0.8-1.4-1.4-2.6-2.2
			c-1-0.7-1.5-1.3-1.5-2.6c0-0.6,0-1.2-0.2-1.6c-0.3-1-1.1-1.4-2-1.9c-0.2-0.1-0.5-0.3-0.7-0.4c-0.9-0.4-1.8-0.9-2.6-1.9l-0.1-0.1
			v-0.1c0-0.4,0-0.5-0.1-0.6l-0.1-0.1v-0.1c-0.2-0.7-0.4-0.9-0.7-1.1l-0.1-0.1l-0.1-0.1c-0.1-0.2-0.2-0.3-0.2-0.5
			c-0.1-0.2-0.1-0.2-0.2-0.3c-0.4-0.6-0.8-0.8-1.4-1c-0.5-0.2-0.9-0.5-1.2-0.8c-0.4-0.4-0.9-0.7-1.5-0.9c-0.5-0.3-0.9-0.6-1.4-0.8
			c-1.5-0.9-3.1-1.8-4.3-3c-0.7-0.9-1.1-1.8-1.7-3c-0.1-0.1-0.1-0.3-0.2-0.5s-0.3-0.6-0.3-0.7c-0.3-0.3-0.7-0.5-1.1-0.6
			c-0.1-0.1-0.2-0.1-0.3-0.1l-0.5-0.1c-0.6-0.2-1.1-0.3-1.6-0.3h-0.1h-0.1c-0.2-0.1-0.3-0.1-0.5-0.2c-0.3-0.1-0.5-0.1-0.7-0.4
			c-0.8-0.5-0.8-1.4-0.8-2.3v-2c-1.4,0.3-2.8,0.3-4.3,0.3h-0.4c-0.2,0-0.5,0-0.8,0c-0.6,0-1.2-0.1-1.7,0.1c-0.1,0-0.2,0.1-0.3,0.1
			c-0.2,0.1-0.4,0.2-0.7,0.3c-0.3,0.1-0.6,0-0.9,0c-0.2,0-0.5,0-0.7,0h-0.3c-0.7,0.1-1.5,0.2-1.9,0.5l-0.1,0.1l-14.5,2.2l9.9,30.8
			l-0.1,0.2c-0.1,0.2-0.1,0.8,1.9,2.7l0.3,0.3c0.5,1,0.7,2.4,0.7,3.3s-0.1,1.8-0.1,2.7c-0.1,0.9-0.1,1.8-0.1,2.6v1.3
			c0,0.5,0.2,0.9,0.6,1.5v0.1c0.4,0.9,0.3,2.1,0.3,3.2c0,0.3,0,0.7,0,1v1.1c0,0.3,0.4,0.7,0.8,1l0.1,0.1c0.1,0.2,0.2,0.4,0.3,0.5
			c0.1,0.2,0.2,0.4,0.4,0.6v0.1v1.1c0.2,0.7,0.6,1.4,1.1,1.8h2.9l18.6-1.1l10-0.2l1.6,2.2l1.3-1.1v-5.1l5.9-0.6c0,0,0-0.1-0.1-0.1
			C471.7,350.8,471.8,350.2,471.6,349.4z"/>
	</g>
	<g>
		<path class="st4" d="M517,140.4l-0.1,0.2c-0.3,0.4-0.2,1.3-0.2,1.9c0,0.2,0,0.4,0,0.6c0,0.8,0.3,1.5,0.5,2.1
			c0.1,0.2,0.1,0.3,0.2,0.5c0.1,0.4,0.3,0.6,0.6,0.8c0.1,0.1,0.2,0.2,0.4,0.3c1,0.7,1.2,1.7,1.4,2.6c0.2,0.9,0.5,1.8,0.5,2.5v1.7
			c0.4,1.4,0.8,2,1.8,2.8c0.6,0.6,1,1.3,1.3,2c0.1,0.4,0.1,0.8,0.1,1.1c0,0.2,0,0.5,0.1,0.6s0.1,0.2,0.2,0.3c0.2,0.3,0.3,0.6,0.3,1
			c0,0.3,0.1,0.5,0.1,0.7c0.1,0.2,0.1,0.4,0.1,0.6c0,0.7,0.2,1.3,0.4,1.9c0.1,0.3,0.2,0.6,0.3,0.8v0.1v1.3c0,0.4,0.1,0.8,0.2,1.1
			c0.1,0.2,0.1,0.3,0.1,0.5l6.6-1.8v-0.1c0-0.1,0-0.2-0.1-0.4c-0.2-0.7-0.1-1.4-0.1-2.2c0-0.3,0-0.7,0-1s0-0.7,0-1.1
			c0.1-1.2,0.1-2.5-0.4-3.3c-0.6-0.8-0.7-1.2-0.7-2.3c0-0.2,0-0.4,0-0.6c0-0.6,0-1.2,0.1-1.9s0.1-1.5,0.1-2.3s0-1.7,0.1-2.6
			c0.1-0.7,0.3-1.4,0.5-2c0.3-0.8,0.5-1.5,0.5-2.3c0-0.2,0-0.3,0-0.4c-0.1-0.4-0.1-0.8,0.2-1.3c0.2-0.3,0.6-0.5,0.8-0.7
			c0.2-0.1,0.4-0.2,0.5-0.3c0.9-0.9,1.1-1.6,0.8-2.4c-0.2-0.2-0.3-0.4-0.4-0.5c-0.3-0.3-0.5-0.6-0.7-1.1v-0.1c0,0-0.1-0.2-0.1-0.3
			c-0.1-0.2-0.1-0.4-0.1-0.6v-2.4v-0.7c-0.9,1.4-2.9,1.5-4.9,2c-0.9,0.3-2,0.5-2.9,0.8s-1.8,1-2.7,1.3c-1.1,0.4-2.1,0.4-3.3,0.5
			c-0.9,0.1-2,0.3-2.9,0.6l0.4-0.1L517,140.4z"/>
	</g>
	<g>
		<path class="st1" d="M388.7,211.1c-1.7,1.4-2.9,0.9-4-0.3l2.4,35.5l1.1,4.1l-1.9,6.6l-1.7,3.2v3.9l-0.1,1.7
			c0.2-0.2,0.5-0.5,0.8-0.7s0.7-0.4,1-0.5s0.6-0.2,0.9-0.4c0.1-0.1,0.1-0.1,0.2-0.2c0.1-0.2,0.3-0.5,0.7-0.7
			c0.3-0.1,0.6-0.1,0.9-0.1c0.1,0,0.2,0,0.3,0h0.1c0.8,0,1.5,0,2.2,0.3c0.4,0.2,0.8,0.5,1.1,0.8c0.6,0.6,0.9,0.7,1.2,0.6
			c0.4-0.2,0.7-0.8,1-1.4c0.4-0.7,0.8-1.5,1.4-1.7l0.4-0.2l0.2,0.4c0.2,0.4,0.6,0.8,1.1,0.9s0.9,0,1.3-0.3c0.4-0.4,0.7-1.1,0.8-2.2
			c0-0.1,0-0.3,0-0.5c0-0.6,0-1.3,0.5-1.6c0.3-0.2,0.8-0.3,1.3-0.1c0.7,0.2,1.2,0.8,1.7,1.4c0.4,0.5,0.8,1,1.2,1.1
			c0.1,0,0.3,0.1,0.3,0c0.2-0.1,0.3-0.7,0.4-1.1c0.1-0.5,0.1-0.9,0.4-1.3c0.3-0.5,0.6-0.9,1-1.3s0.7-0.9,1-1.3
			c0.2-0.3,0.4-0.5,0.5-0.8c0.5-0.8,1.1-1.5,1.1-2.4c0-0.3-0.1-0.5-0.1-0.7c0-0.1-0.1-0.3-0.1-0.5c-0.1-0.7-0.1-1,0-1.5l0.1-0.5h0.3
			c0.7-0.1,1.4,0,2.1,0.1c0.1,0,0.3,0.1,0.5,0.2c0.4,0.1,0.6,0.2,0.8,0.1c0.2-0.1,0.4-0.3,0.5-0.6c0.2-0.3,0.4-0.7,0.8-0.9
			c0.1-0.1,0.3-0.1,0.8-0.2c0.1,0,0.2,0,0.3,0c0.2,0,0.3-0.1,0.5-0.1c0.1,0,0.3-0.1,0.4-0.1c0-0.4,0.1-0.8-0.1-1.1
			c-0.1-0.1-0.1-0.1-0.3-0.1c-0.2-0.1-0.6-0.2-0.8-0.6c-0.2-0.4-0.2-0.8,0-1.2s0.6-0.7,1-0.9l-5.7-35.6c-9.6,1.1-19.6,2.1-19.8,2.1
			V210l0,0C390.3,210.1,389.3,210.5,388.7,211.1z"/>
	</g>
	<g>
		<path class="st1" d="M523.8,196.9c-0.1-0.3-0.2-0.5-0.4-0.7c-0.2-0.3-0.4-0.6-0.5-1c-0.1-0.1-0.1-0.3-0.2-0.4
			c-0.1-0.3-0.2-0.5-0.4-0.7c-0.5-0.4-1.2-0.6-1.8-0.8c-0.7-0.2-1.4-0.3-2-0.5c-0.8-0.2-1.7-0.4-2.4-0.6c-0.2,0-0.3-0.1-0.5-0.1
			l-1,1.3c-0.2,0.3-0.2,0.5-0.2,1.1v0.1c-0.2,0.5-0.4,0.8-0.6,1c-0.1,0.1-0.2,0.3-0.3,0.4c-0.2,0.3-0.2,0.5-0.1,0.8
			c0.1,0.2,0.1,0.5,0.1,0.7v4c0,0.6,0,1.2,0.4,1.8s0.8,1,1.4,1.4l0.1,0.1l0.1,0.1c0.2,0.3,0.5,0.5,0.9,0.7l0.1,0.1
			c0.1,0.1,0.3,0.2,0.4,0.2c0.2,0.1,0.5,0.2,0.6,0.4c0.7,0.4,0.9,0.8,1,1.1c0.1,0.4,0,0.8-0.2,1.2c-0.3,1.1-1.1,2-1.8,2.8
			c-0.5,0.5-1,1.1-1.3,1.6l-0.1,0.1c-0.1,0.1-0.3,0.4-0.4,0.6c-0.2,0.4-0.5,0.9-1,1.2c0,0-0.1,0.1-0.2,0.2c-0.3,0.3-0.5,0.5-0.5,1
			v1.2l0.6,1.2l1.3,1.7l-0.4,0.3c1.4-0.1,2,0.4,3.1,0.9c0.7,0.3,1.3,0,2,0.2s0.7,0.3,0.9,1.1c0.3,0.8,0.5,2.6,1.7,1.6
			c0.4-0.4,0.6-1.4,0.8-1.9c0.3-0.7,0.7-1.4,1-2.1c0.5-1,0.9-2.4,0.9-3.5c0-1.2-0.3-2.5,0.5-3.3c0.6-0.7,1.1-0.7,1.1-1.8
			c0-0.8-0.3-1.6-0.2-2.4c0.2-1.4,0.5-2.9,0.5-4.3c0-0.7,0.3-2.4,0-3.1c-0.4-0.6-0.9-0.4-1.6-0.4c-0.7,0-1.1-0.4-1.7-0.5
			c-0.3-1,0.2-1.5,1-1.7l-0.8-0.7v-1.7H523.8z"/>
	</g>
	<g>
		<path class="st1" d="M446.8,202c-0.9,0.9-1.8,1.7-3,2.4c-1,0.6-1.2,0.8-2.4,0.9c-1.4,0.1-1.4,1.2-2.2,2.2c-0.8,1-1.8,0.7-3,0.7
			c-0.7,0-1.5,0-2.2-0.2c-0.3-0.1-0.9-0.6-1.2-0.6c-0.8-0.1-1.6,1.4-2.6,0.8c-0.8-0.5-0.5-2-1.6-2.4c-0.4-0.1-0.9,0.1-1.3,0
			c-0.2-0.1-0.5-0.3-0.8-0.6l0.1,0.4c-2.7,0.6-8.8,1.4-15.2,2.1l5.6,35.4c0.2-0.1,0.3-0.1,0.5-0.1c0.8-0.1,1.7-0.1,2.6,0
			c0.3,0,0.6,0,0.9,0c1.7,0,1.9,0.9,2.3,2c0.3,0.9,0.4,0.9,1.1,0.9c0.3,0,0.7,0,1.1,0.2c0.8,0.2,1,0.7,1.2,1.2
			c0.1,0.3,0.2,0.6,0.5,0.7c0.2,0.1,0.7,0.2,1,0.1h0.2c0.2,0,0.3,0,0.5-0.2c0,0,0.1-0.2,0.1-0.4c0.1-0.3,0.1-0.4,0.3-0.5
			c0.6-0.3,1.2-0.2,1.8,0c0.3,0.1,0.6,0.2,0.9,0.2c0.2,0,0.3,0,0.5,0c0.8,0,2,0.1,2.6-0.2c0.3-0.2,0.5-0.4,0.7-0.7
			c0.4-0.5,0.8-1.1,2-0.8c1,0.2,1.7,0.9,2.3,1.5c1,1,1.6,1.5,2.8,1c1.8-0.9,2.1-3.2,2.2-4.5c0-1,0.3-2,1-3.1
			c0.1-0.1,0.1-0.2,0.1-0.2c0.1-0.4,0.3-0.5,0.8-0.6c0.3-0.1,0.6,0,0.8,0c0.2,0,0.4,0.1,0.5,0c0.4-0.1,0.4-0.4,0.4-1.3
			c0-0.3,0-0.6,0-0.8c0-0.4,0.2-0.7,0.3-0.9c0.1-0.1,0.1-0.2,0.1-0.3s0.1-0.3,0.1-0.4c0.1-0.3,0.1-0.6,0.3-0.9
			c0.4-0.7,1.3-1.1,2.1-1.5c0.4-0.2,0.7-0.3,1-0.5c0.5-0.3,1.9-1.2,2.5-2.1c0.3-0.4,0.5-0.7,0.7-1.2c0.1-0.2,0.1-0.5,0.2-0.7
			c0.1-0.3,0.1-0.6,0.2-0.8c0.2-0.7,0.5-1.3,0.7-1.9c0.2-0.4,0.3-0.7,0.5-1.1c0.3-0.9,0.3-1.7,0.3-2.7c0-0.9-0.2-1.8-0.4-2.8
			c-0.2-1-0.5-1.9-0.5-3v-0.1l0.9-2.6l-3.2-17.8c-0.9,0.7-1.9,1.4-2.7,2.2C450.1,199.6,448.3,200.5,446.8,202z"/>
	</g>
	<g>
		<path class="st1" d="M454.8,195.8l0.4-0.1l5.7,31l48.2-10.3l1.8-2.4l3.1-0.5l0.1-0.1c0.1-0.3,0.3-0.5,0.5-0.7
			c0.4-0.6,0.9-1.2,1.4-1.8c0.7-0.8,1.4-1.6,1.7-2.5l0.1-0.1c0.1-0.2,0.2-0.4,0.1-0.5c-0.1-0.2-0.3-0.4-0.6-0.6l-0.1-0.1
			c-0.1-0.1-0.3-0.2-0.4-0.2c-0.2-0.1-0.4-0.2-0.6-0.4c-0.4-0.2-0.9-0.5-1.2-0.9c-0.7-0.5-1.1-0.9-1.6-1.6c-0.5-0.8-0.5-1.6-0.5-2.2
			v-4c0-0.2,0-0.3-0.1-0.5c-0.1-0.4-0.2-0.9,0.2-1.5c0.1-0.2,0.2-0.4,0.4-0.5c0.2-0.2,0.3-0.4,0.4-0.6c0-0.6,0-0.9,0.3-1.5v-0.1
			l0.8-1c-0.3-0.1-0.5-0.2-0.8-0.2c-0.9,0-2.2-0.5-2.7-1.3c-0.2-0.3-0.2-0.6-0.3-0.9c-0.1-0.3-0.1-0.5-0.2-0.7c-0.2-0.5-0.4-0.6-1-1
			l-0.2-0.1c-0.4-0.2-0.8-0.4-1.3-0.7c-0.7-0.4-1.5-0.7-2.1-1.2l-43.2,9.4l-1.7-3.8c-1,0.8-2.1,1.4-3.1,2.2
			C457.1,194.1,455.9,195,454.8,195.8z"/>
	</g>
	<g>
		<path class="st1" d="M426.6,201.3c0.4-0.6,1.5-0.9,2.1-0.9c0.1-0.3,0.1-0.5,0-0.7c-0.3-0.6-1.2-1.1-1-2c0.2-0.8,1.4-1.6,2-1.9
			c1.6-0.9,1.8-1.4,2-3.2c0.1-1,0.7-1.7,0.9-2.7c0.2-0.7,0.3-1.5,0.5-2.2c0.1-0.5,0.2-1.2,0.3-1.8c0-0.7,0-1.5-0.1-2.1
			c-0.7,0-0.7-0.6-0.7-1.1c-1.7-0.4-2.1-3-2.6-4.4c-0.4-1.2-1.1-2.1-1.6-3.1c-0.4-0.8-0.2-2.4-0.8-2.7c-0.3-0.2-2.1-0.1-2.5,0
			c-0.7,0.1-0.9,0.7-1.3,0.9s-0.9,0.1-1.2,0.4c-0.6,0.5-0.9,1.8-1.3,2.6c-0.4,0.7-1.3,2.4-2,2.6c-1.3,0.5-2.1-0.2-2.2-1.4
			c-0.1-0.8,0-1.7,0.2-2.4c0.4-1.1,1.3-1.9,1.7-2.9c0.4-0.9,0.7-1.8,1.1-2.7c1-1.9,0.6-4.9-0.1-6.9c-0.2-0.7-0.2-0.7-0.8-1.2
			c-0.5-0.4-0.7-0.2-0.9-0.8c-0.3-1.2,1.3-1.5,1.7-2.4c0.4-1-0.6-1.9-1.3-2.2c-0.9-0.4-1.8-0.8-2.8-1.1c-1.1-0.2-2.4-0.1-3.4-0.5
			c-1.2-0.4-1.1-1.9-2.1-2.5c-0.7-0.4-1.9-0.2-2.8-0.2c-1.1-0.1-0.6-0.3-1.3-0.7c-1.3-0.7-2.8,0.8-3.6,1.7c-0.4,0.5-0.6,0.9-1.2,1.2
			c-0.4,0.3-1.2,0.5-1.4,1.1c-0.3,1,1.1,1.8,1.7,2.4c-1.9,1-2.6,1.9-2.7,4.1c0,0.8,0,1.3-0.3,2c-0.2,0.6-0.8,1.2-0.9,1.7
			c-2.2,0.3-1.8-1.4-2-3c-0.8,0.4-1.1,1.5-1.6,2.2c-0.6,0.8-1.2,1.1-1.4,2.1c-0.5,1.5-0.5,3-0.7,4.6c-0.2,1.7-0.8,3.9-1.5,5.3
			c-0.3,0.6-0.8,1.2-0.5,1.9c0.3,0.8,0.8,0.8,0.8,1.8c0,1.5-0.6,2.3-0.2,3.7c0.4,1.1,1,2.4,1.8,3.3c0.8,1,1.9,2.3,2.4,3.6
			c0.4,1.2,0.2,2.7,0.2,4c0,1.9,0.1,3.9,0,5.8c-0.2,2.4-1.8,4.1-3.1,6.2c-0.4,0.7-0.7,1.5-1.2,2.2c3.5-0.4,28.4-2.8,35.1-4.2
			c-0.1-0.1-0.1-0.1-0.1-0.2C425.5,203.6,426.1,202.1,426.6,201.3z"/>
	</g>
	<g>
		<path class="st1" d="M378,193.3c-0.8-0.6-1.3-0.7-1.1-2c0.1-1,0.7-1.9,0.8-2.9c0.2-1,0.9-1.8,1-2.9c0.1-0.8,0-1.8,0-2.7
			c0-0.6,0-1.3,0-1.9c0-0.9,0.3-1.2,0.5-2c0.4-2.2-0.4-4.5,0.2-6.7c0.5-2.1,1.7-3.9,2.7-5.8c0.1-0.1-0.1-0.4,0-0.6
			c0.1-0.3,0.4-0.6,0.6-0.9c0.2-0.5,0.5-1.2,0.6-1.6c0.2-0.8,0.2-1.8,0.1-2.6c-0.9,0.4-1.8,1.9-2.4,2.6c-0.7,0.9-1,1.9-1.5,3
			c-0.6,1.2-1.5,2-2.5,2.8c-0.3,0.2-0.9,0.7-1.3,1.2c0.1,0,0.1,0.1,0.1,0.1c0.1,0.1,0.1,0.1,0.1,0.2l0,0c0.1,0.1,0.1,0.2,0.1,0.4
			c0,0.1,0,0.2,0,0.3c-0.1,1-1.5,1-1.6,0c0-0.1,0-0.2,0-0.3c0,0,0,0,0-0.1s0-0.1,0-0.2c0-0.1,0.1-0.2,0.2-0.3l0,0
			c0.1,0,0.1-0.1,0.2-0.1s0.1,0,0.2-0.1h0.1c0,0,0,0,0.1,0h0.1c0.1-1,0.4-1.8,0.6-2.8c0.2-0.9,0.8-1.7,1.1-2.5l-0.4,0.1l-0.8-5H374
			v-3.5l-1.1-1.9l-2.2-1h-3.1c-0.5,0-4.3-1.1-5.9-1.6l-4.8-1.1l-4.4-1.4l-2.1-4.2c-0.7,0.3-1.5,0.2-2.2,0.4c-1.1,0.3-1,0.3-1.6-0.7
			c-0.4-0.6-0.5-1-1.3-0.8c-0.8,0.1-1.6,1.6-2.7,0.7c-0.9-0.8,0.3-2,0.7-2.6c0.8-1.1,0.4-1.8,0-2.8c-1.1,0.6-2.2,0.5-3.2,1.1
			s-1.6,1.6-2.5,2.2c-1.1,0.7-1.5,0.9-2.3,2.1c-0.5,0.7-0.5,1.2-1.5,1.1c-0.5,0-0.7-0.1-0.8-0.4l-1.3,0.8h-0.2c-0.1,0-0.1,0-0.2,0
			c-0.2,0.2-0.6,0.9-0.6,3.7c0,0.7,0.1,1.7,0.4,2.8c0.3,1.7-1.3,2.5-2.2,2.9l-0.3,0.1c-1,0.4-2,0.8-2.1,1.6
			c-0.2,0.9-0.2,1.5-0.2,2.4c0,0.2,0,0.3,0,0.5c0,0.3-0.1,0.6,0,0.8s0.3,0.4,0.6,0.6c0.4,0.3,0.8,0.6,1,1.2c0.5,1,0.1,1.8-0.3,2.5
			l-0.1,0.3c-0.4,0.6-0.6,1.2-0.6,1.9c0.2,0.3,0.4,0.7,0.4,1.1c0.2,0.3,0.2,0.8,0.2,1.5c0,0.2,0,0.5,0,0.7c0,0.5-0.1,1.1,0,1.6
			c0.1,0.3,0.5,0.5,0.8,0.7s0.5,0.3,0.7,0.5s0.4,0.5,0.6,0.8c0.3,0.4,0.5,0.8,0.9,0.9c0.2,0.1,0.5,0.1,0.8,0c0.4,0,0.8-0.1,1.2,0.1
			c0.3,0.2,0.6,0.5,0.9,0.9c0.2,0.2,0.4,0.4,0.5,0.5c0.3,0.2,0.7,0.4,1.1,0.5c0.6,0.2,1.2,0.4,1.6,1c0.3,0.4,0.4,0.9,0.5,1.3
			c0.1,0.5,0.3,1.1,0.6,1.3c0.2,0.1,0.7,0.1,1.2,0.1s1,0,1.4,0.1c0.6,0.2,1.1,0.4,1.4,0.6c0.5,0.4,0.5,0.9,0.6,1.2
			c0,0.2,0,0.3,0.1,0.4c0,0.1,0.1,0.1,0.3,0.1c0.2,0,0.6,0,0.9,0.2c0.5,0.3,0.6,0.8,0.6,1.2c0,0.1,0,0.2,0,0.3
			c0.2,0.8,0.1,1.4,0,2.1c0,0.3-0.1,0.6-0.1,0.9c0,0.2,0,0.3,0,0.5c0,0.8-0.1,1.3,0.3,1.6c0,0,0.1,0,0.3,0.1c0.3,0,0.6,0.1,0.9,0.5
			c0.4,0.5,0.4,1.4,0.2,1.9c-0.1,0.3-0.3,0.7-0.6,1c-0.4,0.6-0.7,1-0.5,1.2c0.1,0.1,0.1,0.1,0.3,0.1c0.2,0.1,0.6,0.1,0.9,0.7
			c0.2,0.3,0.1,0.7,0,1.1c0,0.2-0.1,0.4,0,0.5c0.1,0.8,0.6,1.6,1.3,2c0.3,0.2,0.8,0.3,1.3,0.5c1,0.3,2,0.6,2.4,1.3
			c0.2,0.3,0.3,0.7,0.4,0.9c0.1,0.4,0.2,0.6,0.6,0.8l2-0.9l26.4-2.4v0.4c0-1.4-0.5-2.5-0.7-3.8C379.1,195.2,379.3,194.3,378,193.3z"
			/>
	</g>
	<g>
		<path class="st5" d="M375.1,171c0-0.3,0-0.5,0.1-0.8h-0.1H375c-0.1,0-0.1,0-0.2,0.1c-0.1,0-0.1,0.1-0.2,0.1l0,0
			c-0.1,0.1-0.2,0.3-0.2,0.5c0,0.1,0,0.2,0,0.4c0.3,0,0.5,0,0.8,0C375.1,171.2,375.1,171.1,375.1,171z"/>
	</g>
	<g>
		<path class="st5" d="M375.9,171.2L375.9,171.2c0,0,0-0.1,0-0.2c0-0.1,0-0.3-0.1-0.4C375.9,170.8,375.9,171,375.9,171.2z"/>
	</g>
	<g>
		<path class="st5" d="M374.4,170.8c0,0.1,0,0.1,0,0.2c0-0.2,0.1-0.4,0.2-0.5C374.5,170.5,374.4,170.6,374.4,170.8z"/>
	</g>
	<g>
		<path class="st5" d="M374.3,171.3c0.1,1,1.5,1,1.6,0c-0.3,0-0.5,0-0.8,0C374.8,171.3,374.6,171.3,374.3,171.3z"/>
	</g>
	<g>
		<path class="st5" d="M374.6,170.4L374.6,170.4L374.6,170.4z"/>
	</g>
	<g>
		<path class="st5" d="M375,170.2h0.1C375,170.2,375,170.2,375,170.2z"/>
	</g>
	<g>
		<path class="st5" d="M374.6,170.4c0,0,0.1-0.1,0.2-0.1C374.7,170.3,374.7,170.3,374.6,170.4z"/>
	</g>
	<g>
		<path class="st5" d="M375.1,170.2h0.1l0,0C375.2,170.2,375.2,170.2,375.1,170.2L375.1,170.2z"/>
	</g>
	<g>
		<path class="st5" d="M375.1,171c0,0.1,0,0.2,0,0.3c0.3,0,0.5,0,0.8,0v-0.1c0-0.2,0-0.4-0.1-0.6l0,0c0-0.1-0.1-0.1-0.1-0.2
			l-0.1-0.1C375.3,170.5,375.2,170.8,375.1,171z"/>
	</g>
	<g>
		<path class="st5" d="M375.7,170.4l-0.1-0.1l0,0C375.6,170.3,375.6,170.3,375.7,170.4z"/>
	</g>
	<g>
		<path class="st5" d="M374.8,170.3c0.1,0,0.1,0,0.2-0.1C374.9,170.2,374.8,170.2,374.8,170.3z"/>
	</g>
	<g>
		<path class="st5" d="M374.3,171c0,0.1,0,0.2,0,0.3C374.3,171.1,374.3,171,374.3,171C374.3,170.9,374.3,170.9,374.3,171z"/>
	</g>
	<g>
		<path class="st5" d="M375.7,170.4c0.1,0.1,0.1,0.1,0.1,0.2C375.8,170.5,375.7,170.4,375.7,170.4z"/>
	</g>
	<g>
		<path class="st5" d="M375.8,170.6L375.8,170.6L375.8,170.6z"/>
	</g>
	<g>
		<path class="st1" d="M381,204.2c-0.4-0.6-0.9-1-1-1.8c-0.1-0.5,0-1,0-1.6l-26.3,2.4l-0.9,0.4c0.1,0,0.1,0.1,0.2,0.1
			c0.5,0.4,0.7,0.8,1,1.2l0.3,0.6c0.3,0.6,0.7,1.2,1.1,1.5c0.2,0.2,0.3,0.3,0.5,0.4c0.6,0.4,0.8,0.7,0.8,1.7c0,0.2,0,0.4,0,0.6
			c0,0.8,0,1.7-0.5,2.5c-0.2,0.3-0.5,0.6-0.7,0.9c-0.3,0.3-0.6,0.7-0.7,1s-0.1,0.6-0.1,0.9c0,0.5,0,1.2-0.5,1.7
			c-0.3,0.4-0.8,0.5-1.1,0.6c-0.2,0-0.3,0.1-0.5,0.2c-0.1,0.1-0.3,0.2-0.4,0.3c-0.2,0.2-0.4,0.4-0.7,0.5c-0.5,0.3-1.1,0.4-1.8,0.5
			c-1.6,0.3-2.5,0.5-2.4,1.8c0,0.4,0.1,0.5,0.7,0.5c0.5,0,1.2,0,1.6,0.6c0.4,0.7-0.1,1.5-0.5,2c-0.2,0.2-0.4,0.5-0.4,0.6
			c-0.1,0.3-0.1,0.5-0.2,0.8c-0.1,0.6-0.2,1.1-0.7,1.8c-0.4,0.5-0.4,0.9-0.4,1.4c0,0.3,0,0.7-0.1,1.1c-0.2,1.1-1.4,1.7-2.1,2
			c-0.2,0.1-0.4,0.1-0.5,0.2c-0.2,0-0.3,0-0.3,0.2c0,0,0,0,0,0.1s0.1,0.3,0,0.6c-0.1,0.2-0.2,0.3-0.3,0.4c-0.1,0.1-0.1,0.2-0.1,0.2
			c-0.2,0.6-0.3,1.3-0.3,2.3c0,0.2,0,0.3,0.1,0.5c0,0.2,0.1,0.5,0.1,0.7s-0.1,0.3-0.1,0.5c0,0.1-0.1,0.2-0.1,0.2
			c0.1,0.5,0.7,1.1,1.2,1.5l0.3,0.3c1,1,1.1,1.2,1.2,2.5s1.5,2.1,2.8,2.9l0.8,0.5c1.4,0.9,2.9,1.8,3.7,3.4c0.3,0.6,0.4,1.3,0.5,2
			c0,0.3,0.1,0.7,0.1,0.9s0.1,0.4,0.1,0.5c0.1,0.5,0.2,1,0.3,1.4c0.2-0.1,0.4-0.3,0.6-0.5c0.3-0.3,0.6-0.6,0.9-0.7
			c1-0.4,2.2-0.3,3.1,0.4c1.3,1.1,1.3,3.3,0.6,4.9c-0.1,0.3-0.3,0.6-0.4,0.9c-0.6,1.2-1.4,2.7-1,3.9c0.2,0.8,1.7,1.7,3.1,2.2
			c2.6,1,6.2,3.1,7.7,5.7c0.3,0.5,0.4,1,0.4,1.4c0,0.3,0.1,0.6,0.2,0.8c0,0.1,0.1,0.2,0.3,0.3c0.2,0.1,0.4,0.3,0.5,0.6
			c0.5,1.2-0.4,1.6-0.9,1.9c-0.1,0.1-0.2,0.1-0.3,0.2c-0.3,0.2-0.7,0.6-0.8,0.9c0,0.2,0,0.3,0.2,0.5s0.6,0.2,1,0.3
			c0.6,0.1,1.2,0.2,1.5,0.8l1.1,0.5c0-0.1-0.1-0.3-0.1-0.4c-0.2-0.9-0.3-2.1,1.2-2.6c0.9-0.3,1.7,0,2.4,0.2c0.4,0.1,0.7,0.3,1.1,0.3
			c0.7,0.1,1.5,0.1,2.2,0.1c0-0.1-0.1-0.3-0.2-0.5c-0.1-0.3-0.2-0.5-0.2-0.8c-0.1-0.6-0.1-1.4,0.5-2.1c0.4-0.5,1-0.8,1.6-1.1
			c0.3-0.2,0.6-0.3,0.8-0.5c0.1-0.1,0.4-0.2,0.6-0.3c0.3-0.2,0.9-0.5,1-0.7s0.1-0.2,0.1-0.2s-0.1-0.1-0.2-0.2s-0.2-0.2-0.4-0.4
			c-0.6-0.6-0.8-1.1-0.7-1.5c0.1-0.5,0.6-0.7,1-0.9c0.2-0.1,0.4-0.2,0.6-0.3l0.1-2.5V260l1.8-3.3l1.7-6.3l-1.1-4l-2.5-36.2h0.4
			c-0.8-1-1.6-1.9-2-3.1C381.8,206.1,381.6,205.1,381,204.2z"/>
	</g>
	<g>
		<path class="st4" d="M92.1,139.2c0,0.4,0,0.6,0.3,0.9c0.2,0.1,0.4,0.2,0.7,0.3c0.3,0.1,0.6,0.2,0.8,0.3c0.9,0.4,1.8,1.1,2.6,1.9
			c0.5,0.5,0.9,0.9,0.5,1.6c-0.2,0.5-0.6,0.9-0.9,1.2c-0.1,0.1-0.2,0.2-0.3,0.4c-0.4,0.4-0.4,0.4-0.5,1c-0.3,0.9-0.9,1.6-1.4,2.2
			c-0.3,0.4-0.6,0.7-0.8,1c-0.2,0.3-0.4,0.7-0.5,1.1c-0.2,0.4-0.3,0.8-0.6,1.1l-0.1,0.2c-0.5,0.8-1,1.6-1.4,2.5
			c-0.3,0.7-0.6,0.9-1,1.1c-0.1,0.1-0.3,0.1-0.5,0.3c-0.4,0.3-0.8,0.8-1.1,1.3c-0.2,0.2-0.3,0.4-0.4,0.6c-0.1,0.2-0.3,0.4-0.6,0.6
			c-0.5,0.6-1.6,1.6-1.7,2.3c1,0.4,2.3,1.7,2.4,2.5c0.1,0.7,0,1.5-0.2,2c-0.1,0.4-0.4,0.8-0.6,1.1s-0.5,0.7-0.6,1.1l-5.5,25.1
			c19.6,4,44.1,8.8,59.3,10.7l4.8-34.9l0,0c0,0,0,0-0.1-0.1s-0.1-0.1-0.2-0.2l-0.1-0.1c-0.2-0.4-0.3-0.5-0.7-0.7l-0.1-0.1l-0.1-0.1
			c-0.4-0.7-0.9-1.3-1.2-1.3s-0.7,0.8-0.8,1.1l-0.1,0.2c-0.1,0.1-0.1,0.2-0.1,0.3c-0.1,0.3-0.2,0.7-0.6,0.9c-0.4,0.6-1,0.6-1.4,0.6
			c-0.5,0-1,0-1.5-0.3c-0.4-0.2-0.7-0.5-1-0.7c-0.4-0.3-0.7-0.5-1.1-0.6h-1.3c-0.1,0-0.2,0.1-0.3,0.1c-0.2,0.1-0.4,0.3-0.8,0.3
			c-0.5,0-0.8-0.2-1.1-0.3c-0.5-0.2-0.7-0.1-1,0s-0.8,0.4-1.2,0c-0.3-0.1-0.6-0.3-0.7-0.4l0,0c0,0.1-0.1,0.1-0.2,0.3
			c-0.3,0.7-0.7,1.1-1.2,1.2c-0.5,0.1-1-0.1-1.5-0.7c-0.8-1.1-0.8-2-0.8-3.2c0-0.6,0-1.4-0.5-1.9c-0.3-0.4-0.5-0.5-0.8-0.7
			c-0.4-0.2-0.8-0.5-1.1-1.3c-0.2-0.7-0.2-1.4-0.2-2.1c0-0.8,0.1-1.5-0.3-2.1c-0.2-0.3-0.4-0.6-0.7-0.9c-0.6-0.7-1.2-1.6-1.4-2.8
			v-1.6c0-0.2-0.1-0.5-0.2-0.7c-0.1-0.3-0.3-0.6-0.3-1.1c0-0.7-0.2-1.3-0.4-1.3c-0.3,0.1-0.5,0.4-0.8,0.8c-0.2,0.3-0.5,0.7-0.8,0.9
			l-0.1,0.1l-0.4,0.1c-0.7,0.2-1.6,0.5-2.2,0.5c-1.2,0-1.4-1-1.4-1.6c0-0.2,0-0.3-0.1-0.5c-0.2-1-0.5-2,0.1-2.8
			c0.2-0.2,0.4-0.3,0.6-0.5c0.1-0.1,0.2-0.2,0.3-0.2c0.1-0.3,0.1-0.7,0.1-1.1v-2c0-0.7,0.4-1.3,0.7-1.9c0.1-0.2,0.3-0.5,0.4-0.7
			l0.1-0.1c0.3-0.3,0.5-0.7,0.8-1.3c0-0.5,0.4-1.1,0.7-1.4c0-0.3,0.1-0.5,0.2-0.8c0.1-0.2,0.2-0.5,0.2-0.6c0-0.2-0.3-0.2-0.9-0.4
			c-0.4-0.1-0.8-0.2-1.1-0.4c-0.7-0.5-1.1-1.2-1.4-1.8c-0.3-0.5-0.6-1.1-1.1-1.6s-0.8-0.8-1-1.8v-0.1v-1.3c-0.5-1.6-1.4-2.9-2.3-4.3
			c-0.2-0.3-0.4-0.6-0.5-0.9v-0.1c-0.2-0.6-0.6-1.2-1-1.6c-0.2-0.2-0.3-0.4-0.4-0.6c-0.4-0.4-0.8-1-0.8-1.8c0-0.4,0.1-0.8,0.2-1.2
			c0.1-0.5,0.2-0.9,0.1-1.4c-0.1-0.1-0.2-0.3-0.3-0.4c-0.2-0.3-0.4-0.6-0.6-1.1c-0.5-0.5-0.7-1.2-0.7-2c0-0.3,0-0.6,0-0.9
			c-0.1-0.7-0.1-1.4,0.1-1.9l2.7-11.4c-2.9-0.6-5.7-1.1-8.4-1.7L92.1,139.2z"/>
	</g>
	<g>
		<path class="st4" d="M333.9,142.5c1.2-1.4,2.1-3.2,3.6-4.5c0.5-0.4,1.1-0.7,1.6-1.1c0.5-0.5,0.4-0.7,0.7-1.3
			c0.5-0.9,1.3-1.2,2.1-1.8c0.6-0.5,1.2-1.2,1.8-1.8c0.8-0.8,1.5-1.1,2.6-1.6c1.2-0.5,2.8-0.4,3.7-1.3c0.9-0.9,1.5-1.6,2.7-2.1
			c0.8-0.3,1.2-0.3,1.2-1.2c0-0.9-0.1-0.7-0.9-0.9c-0.3-0.1-0.6-0.2-0.9-0.3c-0.8-0.3-1.4-0.6-2.4-0.6s-1.9,0-2.9,0
			c-1.1,0-2,0.3-3.1,0.2c-0.2-1.7-2.6-1.5-3.6-0.7c-0.1,0.1-0.1,0.4-0.2,0.6c-0.2,0.1-0.4,0.2-0.7,0.3c-0.3,0.2-0.6,0.5-0.9,0.7
			c-0.7,0.7-1.1,0.7-2.1,0.5c-2.1-0.5-2.6-1.9-4.2-2.8c-1.3-0.8-2.2-0.2-3.7-0.4c0.1-1.7-2-1.5-3.1-1.5c-1,0-0.8-0.1-1.4-0.6
			c-0.7-0.6-0.6-0.4-1.5-0.3s-1-0.1-1.5-0.7c-0.4-0.4-0.9-1-1.6-0.9c-1.2,0.2-2,2.8-3.7,2c-0.6-0.3-0.5-0.7-1.3-0.9
			c-0.9-0.2-1.6,0-2.5-0.3c-0.7-0.2-1.3-0.6-2-0.9s-1.6,0-2.2-0.5c-0.4-0.4-0.4-0.8-0.6-1.2c-0.3-0.5-0.5-0.4-0.7-1.1
			c-0.1-0.5-0.1-1.1-0.3-1.6c-0.3-0.7-1.4-2.1-1.4-1.9l0.4-3.8l-2.6,0.3v0.1l0,0c0,0.4-0.4,0.8-0.8,0.8c-0.1,0-0.3,0-0.4,0v4.5
			c-6,0.4-11.9,0.6-17.9,0.8h0.6v6.8l1.3,6.8l1.6,8.7c0.1,0.4,0.6,4.2,0.1,5.5c-0.3,0.8,0.9,1.5,0.9,1.5l0.2,0.1l1,6.2l1.1,3.6v5.3
			c0,0.1,0,0.2,0,0.3c0,0.5,0.1,1.1-0.3,1.5c-0.3,0.3-0.7,0.4-1.1,0.4c-0.2,0-0.4,0.1-0.5,0.1c-0.7,0.4-1.3,1.1-1.2,1.9
			c0.1,0.5,0.9,1.5,1.5,1.7c0.2,0.1,0.5,0.1,0.8,0.2c0.6,0.1,1.4,0.1,1.8,1c0.3,0.5,0.2,1.1,0.2,1.6c0,0.2,0,0.3,0,0.5l0.4,22.9
			l48.9-1.8l2.8-1.6c0-0.3,0-0.5,0.1-0.7c0.1-0.6,0.1-1.2,0-1.8c0-0.1,0-0.2-0.1-0.3c0-0.3-0.1-0.5-0.2-0.6s-0.2-0.1-0.4-0.1
			c-0.3,0-0.7,0-1-0.4c-0.2-0.3-0.3-0.6-0.3-0.8c0-0.3,0-0.4-0.2-0.6c-0.1-0.1-0.4-0.3-1.1-0.5c-0.2-0.1-0.7-0.1-1.1-0.1
			c-0.6,0-1.2,0-1.7-0.2c-0.6-0.4-0.8-1.1-1-1.8c-0.1-0.4-0.2-0.8-0.4-1c-0.3-0.4-0.7-0.5-1.2-0.7c-0.4-0.1-0.9-0.3-1.3-0.6
			c-0.2-0.2-0.4-0.4-0.6-0.7c-0.2-0.2-0.4-0.6-0.6-0.6c-0.2-0.1-0.5-0.1-0.8,0c-0.4,0-0.8,0.1-1.2-0.1c-0.6-0.3-0.9-0.8-1.3-1.2
			c-0.2-0.2-0.3-0.5-0.5-0.6c-0.1-0.1-0.3-0.3-0.6-0.4c-0.5-0.3-1.1-0.6-1.2-1.3c-0.2-0.7-0.1-1.4-0.1-1.9c0-0.2,0-0.4,0-0.6
			c0-0.4,0-0.9-0.1-1l-0.1-0.1V169c0-0.3-0.2-0.6-0.3-0.8l-0.1-0.1V168c0-0.9,0.2-1.7,0.7-2.5l0.1-0.2c0.4-0.8,0.6-1.2,0.3-1.8v-0.1
			c-0.1-0.3-0.4-0.6-0.7-0.8c-0.3-0.3-0.7-0.5-0.8-1c-0.2-0.4-0.1-0.9-0.1-1.3c0-0.1,0-0.3,0-0.4c0-0.9,0-1.6,0.2-2.5
			c0.2-1.2,1.6-1.8,2.7-2.2l0.2-0.1c1-0.5,1.9-1,1.7-2c-0.3-1.2-0.4-2.2-0.4-3c0-2.5,0.3-3.9,1-4.4c0.2-0.2,0.4-0.3,0.7-0.3l1.2-0.8
			l0.2,0.4C332.5,144.2,333.3,143.3,333.9,142.5z"/>
	</g>
	<g>
		<path class="st2" d="M302,108.7L302,108.7c0,0.4-0.4,0.7-0.8,0.8c-0.1,0-0.3,0-0.4,0.1c0.1,0,0.3,0,0.4,0
			C301.6,109.5,302,109.2,302,108.7z"/>
	</g>
	<g>
		<path class="st2" d="M302,108.7C302,108.7,302,108.6,302,108.7L302,108.7C302,108.6,302,108.7,302,108.7z"/>
	</g>
	<g>
		<path class="st2" d="M302,108.7C302,108.7,302,108.6,302,108.7h-0.8l0,0h-0.4c0,0.3,0,0.5,0,0.8c0.1,0,0.3,0,0.4-0.1
			C301.6,109.5,302,109.2,302,108.7z"/>
	</g>
	<g>
		<path class="st4" d="M109.2,98.8l0.5,0.1l-2.7,11.5c-0.1,0.4-0.1,1,0,1.6c0,0.3,0.1,0.7,0.1,1c0,0.6,0.2,1.1,0.5,1.5l0.1,0.1v0.1
			c0.1,0.4,0.3,0.7,0.5,0.9c0.1,0.2,0.3,0.4,0.3,0.6v0.1c0.2,0.6,0,1.2-0.1,1.8c-0.1,0.3-0.1,0.7-0.1,1c0,0.5,0.3,0.8,0.6,1.2
			c0.2,0.2,0.3,0.4,0.4,0.6c0.5,0.5,0.9,1.2,1.1,1.8c0.2,0.3,0.3,0.5,0.5,0.8c0.9,1.5,1.8,2.8,2.4,4.6v0.1v1.3
			c0.2,0.7,0.3,0.9,0.8,1.3c0.6,0.6,0.9,1.2,1.2,1.7c0.3,0.6,0.7,1.1,1.2,1.6c0.1,0.1,0.5,0.2,0.8,0.2c0.6,0.1,1.6,0.3,1.6,1.2
			c0,0.3-0.1,0.6-0.3,0.9c-0.1,0.2-0.2,0.5-0.2,0.6v0.2l-0.1,0.1c-0.2,0.2-0.5,0.8-0.5,1v0.1c-0.2,0.7-0.5,1.2-0.9,1.7
			c-0.1,0.3-0.3,0.5-0.4,0.7c-0.3,0.5-0.6,0.9-0.6,1.4v2c0,0.5,0,1-0.3,1.5l-0.1,0.1c-0.1,0.1-0.3,0.3-0.5,0.4
			c-0.1,0.1-0.3,0.2-0.4,0.3c-0.3,0.4-0.1,1.2,0.1,2c0.1,0.2,0.1,0.4,0.1,0.6c0.1,0.7,0.2,0.8,0.6,0.8c0.5,0,1.3-0.3,1.9-0.5
			l0.4-0.1c0.2-0.1,0.3-0.4,0.5-0.6c0.3-0.5,0.7-1,1.4-1.2h0.1c1.1,0,1.3,1.4,1.3,2.2c0,0.2,0.1,0.5,0.2,0.7
			c0.1,0.3,0.3,0.6,0.3,1.1v1.6c0.1,0.9,0.7,1.6,1.2,2.3c0.2,0.3,0.5,0.7,0.7,1c0.4,0.9,0.4,1.7,0.4,2.6c0,0.6-0.1,1.2,0.1,1.8
			c0.2,0.5,0.4,0.6,0.7,0.8c0.3,0.2,0.6,0.4,1,0.8c0.8,0.7,0.8,1.8,0.8,2.5c0,1.1,0,1.8,0.6,2.6c0.3,0.2,0.5,0.4,0.7,0.4
			s0.4-0.3,0.5-0.7c0.3-0.5,0.5-0.8,0.8-0.8c0.3-0.1,0.5,0.1,0.7,0.3c0.1,0.1,0.3,0.2,0.5,0.3h0.1l0.1,0.1c0.1,0,0.2,0,0.3-0.1
			c0.2-0.1,0.5-0.3,0.9-0.3c0.3,0,0.6,0.1,0.8,0.2c0.2,0.1,0.5,0.2,0.8,0.2c0.1,0,0.2-0.1,0.3-0.1c0.2-0.1,0.4-0.3,0.8-0.3h1.4
			c0.6,0.2,1,0.5,1.4,0.8c0.3,0.2,0.5,0.4,0.9,0.6c0.4,0.2,0.7,0.2,1.1,0.2c0.5,0,0.6,0,0.7-0.2l0.1-0.1l0.1-0.1
			c0.1-0.1,0.2-0.2,0.3-0.5c0.1-0.1,0.1-0.3,0.2-0.4l0.1-0.2c0.3-0.6,0.8-1.6,1.6-1.6c0.9,0,1.6,1.1,1.9,1.7
			c0.3,0.2,0.6,0.4,0.8,0.7l1-5.3h0.4c0.3,0,33.4,3.8,68.6,7.5l3.7-56.3l0.9,0.1l-2.8,42.5c4.4,0.2,41.3,2.2,72,1.8v-3.7l-1.1-3.5
			l-0.9-5.8c-0.7-0.4-1.6-1.4-1.2-2.5c0.4-0.9,0-3.9-0.1-5l-3-15.5v-6.8C217.3,116.7,153.7,107.5,109.2,98.8z"/>
	</g>
	<g>
		<path class="st1" d="M353,148.8l4,1.3l4.8,1.1c2.1,0.7,5.3,1.6,5.6,1.6h3.3l2.5,1.2l1.3,2.4v2.8h1.7l0.8,5c0.2-0.5,0.4-1,0.6-1.4
			c0.4-0.7,0.8-1.5,1.2-2.2c0.3-0.6,0.7-1.1,1.1-1.7c0.8-1.3,1.8-2.6,1.9-4.1c0.5-0.1,0.9,0.4,1.5,0.2c0.1-1.9,1.3-2.4,3.1-2.2
			c0.3,1.2-1.2,1.7-0.8,2.6c0.9,0.2,2.9-3.1,3.5-3.7c1.4-1.4,2.8-1.2,4.7-1.2c1.4,0,1.5-0.1,2-1.3c0.4-0.9,1-1.6,2.2-1.8
			c1-0.1,1.8,0,2.7,0.4c0.5,0.3,1,0.5,1.5,0.9c0.4,0.4,0.6,1.2,1.4,0.9c0.4-0.2,0.4-1,0.9-1.3c0.6-0.3,1.1-0.3,1.7-0.3
			c1,0,2.1,0.1,3.1,0c0.6-0.1,1.6-0.4,1.1-1.3c-0.2-0.3-1-0.7-1.4-0.9c-0.3-0.2-0.5-0.5-0.8-0.7c-0.4-0.3-0.9-0.3-1.3-0.6
			c-0.6-0.3-0.9-1-1.4-1.4s-1.3-1.3-1.8-1.6c-0.7-0.4-1.7-0.4-2.6-0.4c-0.8-0.1-1.7-0.3-2.4-0.3c-0.1-0.9,0.4-2.5-0.7-2.9
			c-1-0.4-2.2,0.3-3.1,0.7c-1.2,0.6-2.2,1-3.6,1.1c-0.7,0-2-0.3-2.7,0c-0.7,0.2-0.6,0.9-0.9,1.4c-0.3,0.4-0.8,0.7-1.1,1.1
			c-0.7,0.8-1,1.2-2.2,1.3s-2.4,0-3.6,0c-0.8,0-2.1,0.3-2.9,0c-0.6-0.2-0.7-0.8-1.2-1.1s-0.9-0.5-1.4-0.9c-0.7-0.6-1.2-1.2-2-1.6
			c-1-0.5-1.8-1.2-2.9-1.3c-1.5-0.1-1.2,1.1-2.2,1.8c-0.4,0.2-1.7,0.5-2,0s0.3-1.4,0.4-1.8c0.3-0.9,0.8-1.6,1.3-2.5
			c0.6-1.1,1.1-2,2-2.8c0.6-0.5,2-1,2.4-1.7c-0.9-0.2-1.5-1.1-2.5-1c-0.1,0-0.9,0.4-1,0.4c-0.3,0.1-0.6,0.2-0.8,0.3
			c-0.5,0.2-1.1,0.6-1.6,1c-1.3,0.9-2.6,1.9-3.6,3.2c-0.8,1.1-1.2,2.6-2.4,3.4c-0.7,0.5-1.6,0.8-1.8,1.7c-0.5,0.1-0.6,0.6-1.1,0.7
			c-0.6,0.2-1.5-0.1-2.2,0c-1.2,0.1-2.6,0.1-3.5,1.1c-0.8,0.9-0.4,2-1.4,2.7l0.4-0.2L353,148.8z"/>
	</g>
	<g>
		<path class="st4" d="M48.2,84.6c-0.3,0.7-0.5,1-0.2,1.8c0.3,0.7,0.8,1.2,0.9,2c0.1,0.6,0,1.4,0,2c0,1,0.3,1.8-0.8,2
			c-1,0.2-1.7-0.1-2.4,1.1c-0.7,1.1-0.3,1.3,0.9,1.3c0.8,0,3.1-0.4,2.6,1.2c-0.3,1-1.1,0.2-1.6,0.8c0.7,0.6,1.4,1.3,1.5,2.2
			c0.1,1-0.2,1.8-0.8,2.6c-0.7,1-0.7,1.7-1,2.7c-0.2,0.5-0.6,0.7-0.6,1.3c-0.1,0.5,0.1,1,0,1.5c-0.1,1-0.8,2.1-1.8,2.2
			c-1.4,0.1-1.4-1.3-1.1-2.5c0.1-0.4,0.7-1.2,0.9-1.6c0.4-0.6,0.6-1.4,1-2c0.6-0.8,1.5-1.6,0.9-2.7c-0.4-0.7-1.2-0.7-1.6-1
			c-0.7-0.5-0.3-0.5,0-1.1c0.4-0.7,0.9-1.5,0.2-2.4c-0.5-0.6-1.7-0.7-2.4-0.9c-0.8-0.2-1.6-0.5-2.4-0.7c-2.3-0.4-4.6-1.2-6.7-2.2
			c-0.8-0.4-2.1-0.8-2.6-1.8c-0.5-0.9-0.4-1.8-1.8-1.8c-1.2,0-1,1.6-1.1,2.7c-0.1,0.9,0,1.8,0,2.7c0,4,0.3,8.3-0.2,12.2
			c-0.2,1.5-0.4,3-0.4,4.5c0,0.8,0.2,1.9,0,2.7c-0.3,1-1.1,2-1.7,2.9c-0.2,0.3-0.7,1.1-0.7,1.5c0,0.1,0,0.2,0,0.3
			c0,0,4.5,0.5,4.9,0.6c0.8,0,1.5,0.7,1.9,1.2c0.6,0.2,1.1,0.7,1.4,1.2c0.3,0.2,0.6,0.3,0.9,0.5c0.4,0.2,0.8,0.3,1.2,0.6
			c1.9,1.2,1.7,3.5,1.4,5.5c-0.1,0.8-0.2,1.6-0.1,2.2c0.2,1.1,1.3,2,2.3,2.5c0.5,0,0.8,0.1,1.3,0.5c0.2,0.1,0.3,0.1,0.6,0
			c0.1-0.1,0.2-0.3,0.3-0.4c0.2-0.3,0.4-0.5,0.8-0.7c0.6-0.5,1.1-0.5,1.8-0.5h3.6c0.7,0,1.6,0,1.9,0.9c0.3,0.4,0.5,0.9,0.7,1.4
			c0.1,0.2,0.1,0.3,0.2,0.5c0.3,0.6,1,0.4,2.1,0.2c0.5-0.1,0.9-0.2,1.3-0.2c0.7,0,1.4,0.1,2.1,0.1c0.8,0.1,1.7,0.1,2.4,0.1
			c0.5,0,1.1-0.1,1.6,0.9c0.2,0.5,0.4,0.6,0.7,0.6c0.1,0,0.2-0.1,0.4-0.2c0.1-0.1,0.3-0.3,0.5-0.4c0.5-0.2,1-0.5,1.5-0.5
			c0.3,0,0.5,0,0.8,0.1c0.2,0,0.5,0.1,0.5,0c0.2-0.2,0.4-0.4,0.5-0.6c0.2-0.3,0.4-0.7,0.9-0.8h0.1c0.7,0,1.2,0,1.8,0.3
			c0.3,0.2,0.5,0.4,0.6,0.7c0,0.1,0.1,0.2,0.1,0.2h0.2l0.1,0.1c0.1,0.1,0.8,0.1,1,0.1H71c0.3,0,0.7-0.2,1.1-0.4
			c0.3-0.1,1.1-0.5,2-0.5c1.1,0,1.4,0.5,1.8,1c0.1,0.1,0.2,0.3,0.3,0.5c0.6,0.6,1.3,0.5,2.2,0.5c0.2,0,0.4,0,0.6,0h2
			c0.9,0,1.8,0.2,2.7,0.4c0.5,0,1.1,0.2,1.6,0.4h1.3l2.7,0.7c0.1,0,0.3,0.1,0.4,0.1c0.5,0.1,1.2,0.2,1.7,0.6l8-41l0.4,0.1
			C72.5,91.6,54,86.5,49.3,85.1C48.6,84.7,48.2,84.6,48.2,84.6z"/>
	</g>
	<g>
		<path class="st4" d="M25.3,122.3c-0.2,0.8-0.5,1.6-0.7,2.4c-0.1,0.6,0,1-0.2,1.6c-0.4,1.6-1,3.1-1.4,4.7c-0.2,1-0.3,2-0.7,3
			c-0.6,1.4-1.6,2.5-2.3,3.8c-0.7,1.4-1.2,3-1.8,4.4c-0.4,1.2-0.9,2.6-1.6,3.8c-0.6,1.2-1.4,2.3-1.7,3.6c-0.1,0.4,0,0.9,0,1.3
			c-0.1,0.4-0.2,0.4-0.4,0.8c-0.2,0.5-0.4,0.9-0.7,1.4c-1,1.9-2,4-3.2,6c-0.6,1-1.5,2-2.1,3.1c-0.8,1.4-0.8,2.4-0.9,4
			c0,1.2-0.7,2.1-0.9,3.2c-0.2,1-0.2,1.9,0.1,2.8c0.2,1,0.6,1.7,0.5,2.9l0.1-0.4l42.4,11.5c0.4,0.1,13.3,2.9,29.9,6.4l5.5-25.1
			c0.1-0.5,0.4-0.9,0.7-1.3c0.2-0.3,0.4-0.6,0.5-0.9c0.2-0.5,0.2-1.1,0.2-1.6c-0.1-0.6-1.4-1.8-2.1-1.9h-0.3l-0.1-0.2
			c-0.4-1,0.9-2.3,1.8-3.4c0.2-0.2,0.4-0.4,0.5-0.6c0.1-0.2,0.3-0.4,0.4-0.6c0.4-0.5,0.8-1.1,1.4-1.5c0.2-0.1,0.4-0.2,0.5-0.3
			c0.3-0.2,0.4-0.2,0.6-0.7c0.4-0.9,0.9-1.7,1.5-2.6l0.1-0.2c0.2-0.3,0.3-0.6,0.5-1s0.4-0.8,0.6-1.2c0.3-0.4,0.6-0.8,0.9-1.1
			c0.5-0.6,1-1.2,1.2-1.9s0.3-0.8,0.7-1.2c0.2-0.2,0.3-0.3,0.4-0.5c0.3-0.3,0.6-0.6,0.7-0.9c0.1-0.2,0.1-0.2-0.3-0.7
			c-0.7-0.7-1.5-1.3-2.3-1.7c-0.2-0.1-0.5-0.2-0.7-0.3c-0.3-0.1-0.6-0.2-0.8-0.3l-0.1-0.1c-0.6-0.6-0.6-1.2-0.6-1.6
			c-0.1-0.7-0.7-0.8-1.6-1c-0.2,0-0.3-0.1-0.5-0.1l-2.6-0.7H85h-0.1c-0.5-0.2-1-0.4-1.4-0.4h-0.1c-0.9-0.2-1.7-0.4-2.6-0.4h-2
			c-0.2,0-0.4,0-0.5,0c-0.9,0-2,0.1-2.9-0.8c-0.2-0.2-0.3-0.4-0.4-0.6c-0.3-0.5-0.4-0.6-1.1-0.6c-0.5,0-1.1,0.1-1.6,0.4
			c-0.5,0.2-1,0.5-1.5,0.5h-1.3c-0.6,0-1.2,0-1.5-0.2c-0.4-0.1-0.6-0.4-0.7-0.6c-0.1-0.1-0.1-0.3-0.2-0.3c-0.3-0.2-0.7-0.2-1.3-0.2
			c-0.2,0.1-0.3,0.2-0.4,0.4c-0.2,0.2-0.4,0.6-0.7,0.8c-0.2,0.2-0.7,0.2-1.1,0.1c-0.2,0-0.4-0.1-0.6-0.1c-0.3,0-0.7,0.2-1.1,0.4
			c-0.1,0.1-0.2,0.2-0.4,0.3c-0.2,0.2-0.5,0.4-1,0.4c-0.9,0-1.3-0.7-1.5-1.1c-0.2-0.5-0.3-0.5-0.8-0.4c-0.7,0-1.7,0-2.5-0.1
			c-0.7-0.1-1.4-0.1-2.1-0.1c-0.3,0-0.7,0.1-1.1,0.2c-1,0.3-2.5,0.6-3.1-0.7c-0.1-0.1-0.1-0.3-0.2-0.5c-0.1-0.4-0.3-0.9-0.6-1.1
			l-0.1-0.1v-0.1c-0.1-0.3-0.4-0.4-1.1-0.4H44c-0.7,0-0.9,0-1.2,0.3l-0.1,0.1c-0.2,0.1-0.4,0.3-0.6,0.5c-0.1,0.2-0.3,0.3-0.4,0.5
			l-0.1,0.1c-0.6,0.3-0.9,0.3-1.5,0l-0.1-0.1c-0.3-0.3-0.4-0.3-0.8-0.3H39c-1.2-0.5-2.7-1.7-2.9-3.2c-0.1-0.7,0-1.5,0.1-2.4
			c0.2-1.8,0.4-3.7-1-4.6c-0.3-0.2-0.7-0.4-1-0.5c-0.4-0.2-0.8-0.3-1.2-0.6l-0.1-0.1l-0.1-0.1c-0.2-0.4-0.6-0.7-1.1-0.9h-0.1
			l-0.1-0.1c-0.4-0.4-1-1-1.5-1h-0.1c-0.6-0.2-1.2-0.2-1.9-0.2l-1.8-0.1C26,120.3,25.6,121.3,25.3,122.3z"/>
	</g>
	<g>
		<path class="st4" d="M446,282.5c0.2,0,0.3-0.1,0.5-0.1c0,0,0.1-0.1,0.2-0.1c0.3-0.1,0.3-0.1,0.4-0.3l0.1-0.1c0,0,0.1-0.2,0.1-0.3
			c0.1-0.2,0.1-0.4,0.3-0.6c0.5-0.8,1.2-0.8,1.9-0.8c0.5,0,1-0.2,1.5-0.4c0.2-0.1,0.4-0.2,0.6-0.2c0.3-0.2,1.1-0.6,1.6-1
			c0-0.1,0.1-0.2,0.1-0.3c0.1-0.3,0.2-0.7,0.6-0.9c0.2-0.4,0.6-0.5,0.9-0.6c0.1,0,0.2-0.1,0.3-0.1c0.6-0.6,0.7-0.9,0.7-1.6v-2
			c-32.9,4.9-65.3,8.6-69.2,9.1v1.8l-13.8,1.1c-0.4,0.4-0.9,0.8-1.4,1.2c-0.4,0.3-0.8,0.6-1.2,1c-0.5,0.5-0.6,0.6-0.7,1.3
			c-0.1,0.7-0.4,1-0.7,1.3c-0.2,0.2-0.3,0.3-0.5,0.6c-0.3,0.6-0.3,1.7-0.2,2.6c0,0.3,0,0.7,0,1v0.2c0,0.8,0,1.5-0.5,2.3
			c-0.2,0.3-0.5,0.6-0.8,0.8c-0.2,0.2-0.4,0.3-0.5,0.5c-0.2,0.2-0.1,0.6-0.1,1c0,0.1,0,0.3,0,0.4c0,1.1-0.2,1.6-0.8,2.5
			c-0.2,0.3-0.4,0.5-0.5,0.7c-0.5,0.6-0.7,0.9-0.6,1.8c0.2,0.1,0.4,0.2,0.5,0.5c0.3,0.4,0.4,1.1,0.4,1.6l22.8-1.1l27.5-4.4l13.6-2
			l1.1-1.6c-0.1-1,0.6-1.7,1.3-2.3c0.4-0.4,0.8-0.8,1-1.3s0.4-0.9,0.4-1.2v-0.2l0.1-0.1c0,0,0.1-0.2,0.1-0.6V291l0.1-0.1
			c0.5-0.5,1.1-0.5,1.7-0.6c0.4,0,0.8,0,1.1-0.2c1.3-0.5,2.7-1.1,3.9-2c1.4-0.7,2.6-1.3,3.7-2.4l0.1-0.1c0.3-0.2,0.5-0.3,0.6-0.8
			v-0.1c-0.1-0.3-0.1-0.8,0.1-1.1C444.4,282.8,445.3,282.6,446,282.5z"/>
	</g>
	<g>
		<path class="st4" d="M343.5,232.4c0.1-0.1,0.1-0.2,0.2-0.2l0,0c0-0.1,0-0.3,0-0.4l-0.5-0.9l-42.3,2.2c0,0.3,0,0.5,0,0.7
			c0,0.1,0,0.3,0,0.4c0,0.4,0.1,0.6,0.3,0.9c0,0.1,0.1,0.1,0.1,0.2c0.1,0.1,0.3,0.2,0.4,0.4c0.4,0.4,1,0.9,1.3,1.4
			c0.3,0.6,0.3,1.3,0.3,1.8c0,0.7,0.3,1,0.9,1.4c0.9,0.7,1.5,1.1,2.3,1.3c0.2,0,0.4,0.1,0.5,0.1c0.7,0.1,1.3,0.3,2.1,0.8
			c0.5,0.4,0.6,0.9,0.6,1.2c0,1-1.1,1.9-1.7,2.4c-0.7,0.5-1,0.9-1,1.2c0,0.2,0.1,0.4,0.4,0.5c0.1,0.1,0.2,0.1,0.2,0.1
			c0.2,0.1,0.5,0.2,0.7,0.6c0.3,0.3,0.4,0.6,0.5,0.8c0,0.1,0.1,0.2,0.1,0.2l0.1,0.1c0.3,0.6,1,0.9,1.7,1.2c0.6,0.2,1.1,0.5,1.6,0.9
			l0.1,0.1v0.2l-0.2,30.1l1,6.5l49.9-3.6l0.8,3.9l-2.3,2.7v0.7h5.5c-0.1-0.9-0.1-1.9,0.3-2.6c0.2-0.4,0.4-0.6,0.6-0.8
			c0.2-0.3,0.4-0.4,0.5-0.9c0.2-0.9,0.3-1.1,1-1.8c0.4-0.4,0.9-0.7,1.3-1.1c0.5-0.4,1-0.7,1.4-1.2c1.5-1.6,1.1-2.8,0.6-4.6v-0.1
			l-2.2-1.1l-0.1-0.2c-0.1-0.2-0.5-0.3-0.9-0.3c-0.5-0.1-1.1-0.2-1.5-0.6c-0.3-0.4-0.4-0.8-0.3-1.2c0.1-0.7,0.7-1.2,1.2-1.5
			c0.1-0.1,0.2-0.1,0.4-0.2c0.6-0.3,0.7-0.4,0.5-0.8c0-0.1-0.1-0.1-0.2-0.2c-0.2-0.1-0.4-0.3-0.6-0.6c-0.2-0.4-0.2-0.8-0.2-1.1
			c0-0.4-0.1-0.7-0.3-1.1c-1.4-2.4-4.8-4.4-7.3-5.3c-0.7-0.3-3.2-1.3-3.6-2.8s0.4-3.2,1.1-4.6c0.1-0.3,0.3-0.6,0.4-0.8
			c0.6-1.2,0.6-3.1-0.4-3.9c-0.6-0.5-1.4-0.6-2.1-0.3c-0.2,0.1-0.4,0.3-0.7,0.5c-0.5,0.5-1,1-1.7,0.8l-0.4-0.1v-0.4
			c0-0.5-0.1-1.1-0.3-1.7c0-0.2-0.1-0.4-0.1-0.6c-0.1-0.3-0.1-0.7-0.1-1c-0.1-0.6-0.1-1.3-0.4-1.7c-0.7-1.3-2.1-2.2-3.4-3l-0.8-0.5
			c-1.3-0.8-3-1.9-3.2-3.6c-0.1-1.2-0.1-1.2-1-2l-0.3-0.2c-0.6-0.5-1.3-1.2-1.4-2.1c0-0.2,0-0.4,0.1-0.6c0-0.1,0.1-0.2,0.1-0.2
			c0-0.2,0-0.4-0.1-0.6c0-0.2-0.1-0.4-0.1-0.6c-0.1-1.1,0-1.9,0.3-2.6C343.3,232.7,343.4,232.6,343.5,232.4z"/>
	</g>
	<g>
		<path class="st1" d="M526.7,192.9c0.2-0.5,0.5-0.7,0.9-1.1c0.1-0.1,0.1-0.3,0.2-0.3c0.1-0.1,0.2-0.2,0.2-0.3
			c0-0.3-0.2-0.9-0.4-1.4v-0.1v-0.1c0,0,0-0.2-0.1-0.2c-0.1-0.2-0.1-0.5-0.2-0.7c-0.2-0.3-0.3-0.4-0.6-0.6l-0.1-0.1l-0.1-0.1
			c-0.2-0.5-0.3-1-0.3-1.2c-0.3-1.1-0.3-2.1-0.2-3c0-0.3,0-0.6,0-0.8v-1.2c-0.2-0.3-0.4-0.5-0.8-0.9l-0.1-0.1c0-0.1-0.1-0.2-0.1-0.2
			c-0.2-0.3-0.4-0.7-0.4-1.3c-0.2-1.2-0.1-2.6,0-3.9c0-0.6,0-1.3,0-1.8c0-0.3,0-0.7,0-1c0-1,0.1-2-0.2-2.8v-0.2
			c0-0.2-0.1-0.5-0.2-0.8c-0.1-0.4-0.3-0.9-0.3-1.4V166c-0.1-0.2-0.1-0.5-0.2-0.7c-0.2-0.6-0.4-1.4-0.4-2.2c0-0.1,0-0.2-0.1-0.4
			s-0.1-0.5-0.1-0.9c0-0.2-0.1-0.3-0.2-0.6c-0.1-0.1-0.1-0.2-0.2-0.3c-0.2-0.3-0.2-0.7-0.2-1s0-0.6-0.1-0.8c-0.2-0.6-0.6-1.2-1-1.6
			c-1.2-0.9-1.6-1.7-2.1-3.3v-0.1v-1.8c0-0.6-0.2-1.5-0.4-2.3c-0.2-0.9-0.4-1.6-1.2-2.2c-0.2-0.1-0.3-0.2-0.4-0.3
			c-0.3-0.3-0.7-0.6-0.9-1.2c0-0.1-0.1-0.3-0.2-0.4c-0.2-0.6-0.5-1.4-0.5-2.4c0-0.1,0-0.3,0-0.5c0-0.7-0.1-1.6,0.2-2.2l-0.2-0.9
			c-0.1,0-0.1,0-0.2,0.1c-1,0.4-2.1,0.5-3,0.9c-1.7,0.6-3.4,1.4-5.2,2v0.1h-0.5c-0.4,0.1-0.8,0.3-1.3,0.4c-2.2,0.6-4.5,0.8-6.3,2.3
			c-0.9,0.8-1.6,1.7-2.2,2.7c-0.5,0.9-1.4,1.3-1.9,2.3c-1.3,2.2-0.8,4.7-3.1,6.2c-0.6,0.4-1.5,0.7-1.9,1.3c-0.2,0.2-0.2,0.5-0.2,0.9
			c0.2,1,1.4,1.1,2.1,1.7c0.9,0.9-0.6,2,0,3.3c0.2,0.4,0.9,0.4,0.9,1c0,0.3-0.5,0.6-0.7,0.9c-0.9,1.1-0.9,2.4-1.9,3.5
			c-0.6,0.6-1.4,1.3-2.1,1.8c-1,0.7-2.1,1.2-3.1,1.7c-1.1,0.5-2.2,0.4-3.5,0.4c-2.3,0-4.7-0.1-6.9,0.2c-1.4,0.2-2.4,0.9-4,0.9
			c-1.1,0-2.2-0.2-3.1,0.7c-0.2,0.2-0.2,0.5-0.4,0.7c-0.2,0.2-0.5,0.3-0.6,0.6c-0.1,0.2-0.1,0.6-0.1,0.9c1.3-0.1,3-0.1,3.1,0.1
			c1,1.1-0.2,2.1-2,2.8c0.7,0.7,1.4,1.3,1.2,2.4c-0.1,0.2-0.4,0.9-0.6,1.1c-0.2,0.3-0.5,0.5-0.7,0.8c-0.1,0.3,0.1,0.5-0.1,0.8
			c-0.4,0.6-1.2,1.2-1.7,1.7c-0.2,0.2-0.4,0-0.7,0.2c-0.3,0.2-0.3,0.6-0.5,0.9c-0.5,0.7-1.2,1.3-1.7,2c-0.3,0.5-0.8,0.9-1.2,1.3
			l0.4-0.2l1.5,3.2l42.9-9.3l0.2,0.1c0.7,0.5,1.4,0.9,2.2,1.3c0.5,0.2,0.9,0.4,1.3,0.7l0.2,0.2c0.6,0.4,1,0.7,1.3,1.4
			c0.1,0.2,0.2,0.5,0.2,0.8c0.1,0.3,0.1,0.5,0.2,0.7c0.3,0.5,1.2,0.9,2,0.9h0.1c0.7,0.2,1.3,0.4,2.2,0.7c0.7,0.2,1.5,0.4,2.3,0.6
			c0.7,0.2,1.4,0.3,2.1,0.5c0.7,0.2,1.4,0.5,2.1,0.9c0.4,0.4,0.6,0.8,0.7,1.1c0,0.1,0.1,0.3,0.1,0.4c0.1,0.3,0.3,0.6,0.4,0.9
			c0.2,0.3,0.4,0.6,0.5,1v0.1v1.4l0.8,0.7l-0.3,0.3c0.5,0,1.1,0,1.5,0.1c0.5,1.8,3.9-0.3,4.8-1.2c0.6-0.6,1-1.3,1.6-1.8
			c1-0.8,2.5-0.7,3.6-1.3c1-0.5,1.6-0.6,2.4-1.3c0.9-0.8,1.8-1.4,2.8-2c1.1-0.7,1.4-1.8,2.4-2.6c0.5-0.4,1.1-1,1.1-1.7
			c-0.6-0.2-0.7,0.3-1.1,0.6c-0.5,0.3-0.9,0.1-1.4,0.5c-1.3,0.9-1.3,0.7-2.4-0.4c-0.9,0.2-1.3,2-1.7,2.7c-0.6,0.9-2.7,0.8-3.7,0.9
			c-1.3,0.1-1.4-0.1-2.3,0.6c-0.4,0.3-1,0.7-1.5,1c-1.1,0.6-2,1.4-3.3,1.2c-0.1-0.4-0.1-0.7,0.1-0.9l-1.7-0.2L526.7,192.9z"/>
	</g>
	<g>
		<path class="st4" d="M448.5,240.4c-0.3,0.1-0.6,0.1-0.9,0c-0.2,0-0.4-0.1-0.5,0c-0.1,0-0.2,0-0.2,0.1s-0.1,0.2-0.2,0.4
			c-0.6,1-0.8,1.7-0.8,2.6c0,1.5-0.4,4.2-2.7,5.3c-0.1,0-0.2,0.1-0.3,0.1l0.1,1.7c0,0.3,0.1,0.6,0.1,1c0.1,0.3,0.1,0.7,0.1,1.1
			c0,0.6,0,1.1,0.5,1.7c0.2,0.2,0.4,0.3,0.7,0.5c0.3,0.2,0.6,0.4,0.9,0.6l0.1,0.1c0.6,0.4,1.1,0.7,1.3,1.6c0.4,0.6,0.8,1.2,1.2,1.6
			c0.2,0.2,0.4,0.3,0.7,0.4c0.1,0,0.3,0.1,0.4,0.2c0.2,0,0.5,0.1,0.7,0.1c0.2,0.1,0.4,0.1,0.6,0.1h0.1c0.8,0.3,1.1,0.5,1.6,1.3
			l0.1,0.1c0.1,0.2,0.1,0.4,0.2,0.5c0.1,0.4,0.2,0.6,0.4,0.9c0.4,0.5,0.8,0.7,1.4,1c0.1,0.1,0.3,0.1,0.5,0.2c0.3,0.2,0.8,0.2,1.2,0
			c0.3-0.1,0.5-0.4,0.7-0.8c0.1-0.2,0.3-0.5,0.5-0.7c0.8-0.6,1.8-0.6,2.7-0.6c0.6,0,1.2,0,1.7-0.1c1.2-0.4,2.7-1.4,3.8-2.6
			c0.5-0.5,1.2-1,1.7-1.2c0.6-0.2,0.7-0.3,1.1-0.9c0.2-0.5,0.5-0.9,0.8-1.3c0.1-0.2,0.3-0.3,0.4-0.5s0.3-0.4,0.4-0.6
			c0.3-0.3,0.6-0.7,0.6-1s-0.1-0.4-0.4-0.7c-0.2-0.2-0.4-0.3-0.6-0.6c-0.5-0.8,0-1.4,0.4-1.9c0.1-0.1,0.2-0.3,0.3-0.4l0.1-0.1
			c0.6-0.4,0.9-0.7,0.9-1.4c0-1.1,0.5-1.6,1.2-2.3c0.1-0.2,0.2-0.5,0.2-0.8c0.1-0.4,0.1-0.8,0.4-1.2c0.5-0.7,1.4-1.3,2.3-1.3
			c0.2-0.1,0.3-0.1,0.5-0.2c1.1-0.4,2.3-0.8,2.6-1.8c0.1-0.2,0.1-0.4,0.2-0.6c0.1-0.4,0.2-0.7,0.5-1.2l0.3-0.5
			c0.4-0.6,0.8-1.1,1.1-1.7c0.5-0.9,0.8-1.1,1.5-1.6l0.1-0.1c0.3-0.2,0.7-0.7,0.9-0.9c0.1-0.2,0.2-0.5,0.2-0.9s0.1-0.7,0.3-1.1
			c0.1-0.3,0.4-0.5,0.6-0.6c0.1-0.1,0.3-0.2,0.3-0.4c0.3-0.6,0.3-1.3,0.2-2.2c0-0.5-0.1-1.1,0-1.6v-0.3h0.3c0.7-0.1,1.7-0.2,2.5,0.2
			c0.3,0.2,0.6,0.4,0.9,0.7c0.4,0.3,0.8,0.7,1.2,0.8c0.5,0.1,0.8,0.1,0.9,0c0.2-0.2,0.3-0.8,0.3-1.4c0-0.2,0-0.5,0-0.7l-0.6-1
			l-1.8-1.8h-3.4l-1.4,1.3l-1.8,3l-2.7-2.6l-1.9,2.5l-2.7,3h-1.9v-5.6l-12,2.6l-2.2-12.1l-0.3,1c0,0.9,0.2,1.8,0.4,2.7
			c0.2,1,0.5,2,0.5,3s0,2-0.4,3c-0.1,0.4-0.3,0.7-0.5,1.1c-0.3,0.6-0.5,1.1-0.7,1.7c-0.1,0.2-0.1,0.5-0.2,0.8s-0.1,0.5-0.2,0.8
			c-0.2,0.7-0.5,1.1-0.8,1.5c-0.7,0.9-1.9,1.8-2.8,2.3c-0.3,0.2-0.7,0.4-1.1,0.5c-0.7,0.3-1.4,0.6-1.7,1.1c-0.1,0.2-0.2,0.4-0.2,0.7
			c0,0.2-0.1,0.4-0.1,0.5c-0.1,0.1-0.1,0.3-0.2,0.4c-0.1,0.2-0.2,0.4-0.2,0.6c0,0.2,0,0.4,0,0.7C449.5,238.9,449.6,240,448.5,240.4z
			"/>
	</g>
	<g>
		<path class="st4" d="M379.8,276.7h-0.3c-0.9,0.1-1.9,0.1-2.8,0c-0.5-0.1-0.9-0.2-1.3-0.4c-0.6-0.2-1.2-0.4-1.8-0.2
			c-0.7,0.3-0.8,0.6-0.6,1.6c0.1,0.6,0.3,1.1,0.5,1.6c0.5,1.5,0.9,3-0.1,4.6l12.1-1v-1.8h0.4c0.5-0.1,28.5-3.2,59.5-7.6l9.3-9.1
			c-0.2,0-0.4-0.1-0.5-0.2c-0.2-0.1-0.3-0.1-0.4-0.2c-0.7-0.3-1.3-0.6-1.7-1.3c-0.4-0.3-0.5-0.8-0.6-1.2c0-0.1-0.1-0.3-0.1-0.4
			c-0.4-0.6-0.5-0.7-1-0.9c-0.2,0-0.5-0.1-0.7-0.1c-0.2-0.1-0.4-0.1-0.6-0.1H449h-0.1c-0.1-0.1-0.3-0.1-0.4-0.1
			c-0.3-0.1-0.7-0.2-1.1-0.6c-0.5-0.5-0.9-1.2-1.4-1.8l-0.1-0.1c-0.2-0.6-0.4-0.8-1-1.2l-0.2-0.1c-0.3-0.2-0.5-0.4-0.8-0.5
			c-0.3-0.2-0.6-0.4-0.9-0.6c-0.8-0.8-0.8-1.6-0.8-2.3c0-0.3-0.1-0.6-0.1-0.9c-0.1-0.3-0.1-0.7-0.1-1.1l-0.1-1.5
			c-1.2,0.1-2-0.8-2.6-1.4c-0.6-0.6-1.1-1.1-1.8-1.3c-0.6-0.1-0.8,0.1-1.1,0.5c-0.2,0.3-0.5,0.7-1,1c-0.8,0.4-2.1,0.4-3,0.3
			c-0.2,0-0.4,0-0.5,0c-0.4,0-0.8-0.1-1.1-0.2c-0.4-0.1-0.7-0.2-0.9-0.1l0,0c-0.1,0.5-0.2,0.6-0.3,0.7c-0.4,0.4-0.6,0.4-0.9,0.5
			h-0.2c-0.5,0.1-1.2,0.1-1.7-0.2s-0.7-0.8-0.9-1.1c-0.2-0.4-0.3-0.6-0.6-0.7c-0.4-0.1-0.7-0.1-0.9-0.1c-0.8,0-1.4-0.2-1.8-1.5
			c-0.4-1.2-0.4-1.4-1.5-1.5c-0.3,0-0.6,0-0.9,0c-0.8,0-1.7-0.1-2.4,0c-0.5,0.1-1.4,0.5-1.6,0.9c-0.1,0.1-0.1,0.3,0,0.4
			c0,0.1,0.1,0.1,0.3,0.2c0.2,0.1,0.5,0.2,0.7,0.4c0.4,0.5,0.4,1.3,0.3,2.1l-0.1,0.3h-0.3c-0.2,0-0.4,0.1-0.6,0.2
			c-0.2,0.1-0.4,0.1-0.6,0.2c-0.1,0-0.2,0-0.3,0.1c-0.2,0-0.4,0.1-0.5,0.1c-0.1,0.1-0.2,0.3-0.4,0.6c-0.2,0.4-0.5,0.8-1,1
			c-0.6,0.2-1.1,0-1.5-0.2c-0.1-0.1-0.2-0.1-0.3-0.1c-0.5-0.1-1-0.2-1.5-0.1c-0.1,0.4-0.1,0.6,0,1c0,0.2,0.1,0.3,0.1,0.4
			c0.1,0.3,0.2,0.6,0.2,1c0,1.1-0.7,2.1-1.3,2.9c-0.2,0.3-0.4,0.5-0.5,0.8c-0.3,0.5-0.7,1-1.1,1.4s-0.7,0.8-0.9,1.2
			c-0.1,0.2-0.2,0.6-0.2,1c-0.1,0.7-0.2,1.4-0.7,1.8c-0.3,0.2-0.7,0.2-1.1,0.1c-0.7-0.2-1.2-0.8-1.7-1.4c-0.4-0.5-0.8-1-1.2-1.1
			c-0.3-0.1-0.5-0.1-0.6,0s-0.2,0.6-0.2,0.9c0,0.2,0,0.4,0,0.5c-0.1,1.3-0.5,2.2-1.1,2.7c-0.5,0.5-1.3,0.7-2,0.6
			c-0.6-0.1-1.2-0.4-1.5-0.9c-0.2,0.3-0.5,0.7-0.7,1.1c-0.4,0.7-0.7,1.4-1.4,1.8c-0.9,0.5-1.7-0.2-2.2-0.7c-0.3-0.3-0.6-0.5-0.8-0.6
			c-0.6-0.2-1.2-0.2-1.9-0.2h-0.1c-0.1,0-0.2,0-0.3,0c-0.2,0-0.4,0-0.5,0c-0.2,0.1-0.2,0.1-0.3,0.3c-0.1,0.1-0.2,0.4-0.4,0.5
			c-0.4,0.3-0.7,0.4-1.1,0.5c-0.3,0.1-0.6,0.2-0.9,0.4c-0.2,0.2-0.4,0.4-0.7,0.6c-0.3,0.2-0.5,0.5-0.8,0.7s-0.6,0.3-0.9,0.4
			c-0.2,0.1-0.5,0.2-0.5,0.3c0,0,0,0.2,0.5,0.7c0.1,0.1,0.2,0.2,0.3,0.3c0.3,0.3,0.7,0.7,0.3,1.5c-0.2,0.4-0.8,0.8-1.4,1
			c-0.2,0.1-0.4,0.2-0.5,0.3c-0.3,0.2-0.6,0.4-0.9,0.5c-0.5,0.3-1.1,0.5-1.3,0.9c-0.3,0.4-0.4,0.8-0.3,1.5c0,0.2,0.1,0.4,0.2,0.6
			c0.2,0.4,0.4,0.9,0.2,1.4L379.8,276.7z"/>
	</g>
	<g>
		<path class="st4" d="M360.4,309.8c0.2,0,0.4-0.1,0.4-0.1c0.3-0.2,0.5-0.5,0.7-0.8c0.1-0.1,0.2-0.3,0.3-0.4
			c0.2-0.3,0.6-0.6,0.9-0.8c0.5-0.4,1-0.8,1.2-1.2c0.1-0.3,0-1-0.2-1.4c-0.1-0.1-0.2-0.2-0.2-0.2h-0.3l-0.1-0.3
			c-0.2-1.4,0.2-2,0.8-2.7c0.2-0.2,0.3-0.4,0.5-0.7c0.5-0.8,0.6-1.1,0.7-2c0-0.1,0-0.2,0-0.4c0-0.5,0-1,0.3-1.5
			c0.2-0.3,0.5-0.5,0.7-0.7s0.5-0.3,0.6-0.6c0.4-0.6,0.4-1.1,0.4-1.8V294c0-0.2,0-0.3,0-0.5h-6.4v-1.9l2.2-2.6l-0.5-2.7l-49,3.5
			l1.9,7.5l0.9,31.3c0.4,0,0.7,0,1.2,0c1.4-0.1,2.9-0.2,3.5,0.9c0.1,0.3,0.2,0.5,0.3,0.8c0.1,0.2,0.1,0.4,0.2,0.6s0.2,0.4,0.2,0.6
			c0,0.1,0.1,0.3,0.2,0.5c0.1,0.4,0.2,0.8,0.3,1.2c0.1,0.4,0.1,0.7,0.2,1c0.4,0.7,0.3,1.6,0.3,2.4c0,0.1,0,0.1,0,0.2l32.5-1.7
			c0-0.2,0-0.4,0-0.6c0-0.1-0.1-0.1-0.2-0.2s-0.3-0.2-0.5-0.4c-0.2-0.4-0.2-1.1-0.1-1.8c0-0.4,0.1-0.8,0.1-1
			c-0.1-0.7-0.3-1.3-0.5-1.9c-0.5-1.2-0.9-2.4-0.1-4c0.2-0.5,0.6-0.9,0.9-1.4c0.4-0.6,0.9-1.1,1-1.7c0.1-0.2,0-0.4,0-0.6
			c0-0.3,0-0.6,0.1-1c0.1-0.2,0.2-0.4,0.3-0.6c0.1-0.1,0.2-0.2,0.2-0.3c0-0.1,0.1-0.2,0.1-0.4c0-0.2,0.1-0.4,0.1-0.5
			c0.4-0.9,1-1.6,1.5-2.2c0.7-0.8,1.3-1.5,1.6-2.4c0.2-0.7,0.3-1.2,0.2-1.8c0-0.1-0.1-0.2-0.1-0.3c-0.1-0.4-0.3-0.9,0-1.4
			C359.7,310,360.1,309.9,360.4,309.8z"/>
	</g>
	<g>
		<path class="st1" d="M542.1,175.4c-0.6,0.1-1.2,0.1-1.9,0.1c-0.4,0.1-1,0.3-1.5,0.4c-0.6,0.2-1.1,0.3-1.6,0.4L535,177
			c-0.3,0-0.6,0.1-0.9,0.2c-0.3,0.1-0.7,0.2-1.1,0.2c-0.2,0.1-0.4,0.1-0.6,0.1c-0.5,0.1-0.9,0.2-1.5,0.5c-0.5,0.3-1,0.3-1.6,0.3
			c-0.1,0-0.1,0.1-0.2,0.1c-0.4,0.2-1.1,0.6-1.7,0.6l-1.9,0.2c0,0.2,0.1,0.3,0.2,0.5c0,0.1,0.1,0.1,0.1,0.2c0.4,0.4,0.7,0.7,0.9,1.2
			v0.1v1.4c0,0.3,0,0.6,0,0.9c0,0.9-0.1,1.8,0.2,2.8v0.1c0,0.2,0,0.5,0.1,0.8c0.4,0.2,0.7,0.5,0.9,1v0.1v0.1c0,0.2,0.1,0.4,0.1,0.6
			c0,0.1,0.1,0.3,0.1,0.4c0.2,0.5,0.5,1.2,0.5,1.7c0,0.4-0.2,0.7-0.4,0.9c0,0,0,0.1-0.1,0.1v0.1l-0.1,0.1c-0.2,0.2-0.3,0.3-0.4,0.4
			l0.6,0.1l-0.1,0.4c0.6-0.6,1.5-1,2-1.4c0.7-0.6,1.5-1.2,2.2-1.8c1-0.9,2-1.5,3.3-1.6c1.2,0,2.7,0.1,3.5-0.9s0.7-2.4,2.3-2.6
			c1.2-0.2,2.2-0.3,3.3-0.7l-0.4,0.1L542.1,175.4z"/>
	</g>
	<g>
		<path class="st4" d="M545.2,155v-0.1l-9.4-25.9l0.4-0.2c-0.5,0-0.9,0.1-1.5,0.4c-0.8,0.3-1.2,0.3-1.4,1.3c-0.1,0.4,0,1,0,1.4
			c0,0.3,0,0.6-0.1,0.8h0.4l0.1,1.9v2.5c0,0,0.1,0.2,0.1,0.3c0.1,0.2,0.1,0.3,0.1,0.5c0.1,0.3,0.3,0.5,0.5,0.7s0.4,0.4,0.5,0.7v0.1
			c0.6,1.5-0.3,2.6-1,3.4c-0.2,0.2-0.4,0.3-0.6,0.5c-0.2,0.1-0.5,0.3-0.6,0.5c-0.2,0.2-0.1,0.4-0.1,0.7c0,0.2,0.1,0.4,0,0.6
			c0,0.9-0.3,1.7-0.6,2.5c-0.2,0.6-0.4,1.2-0.5,1.9c-0.1,0.8-0.1,1.6-0.1,2.4c0,0.8,0,1.6-0.1,2.4c-0.1,0.6-0.1,1.2-0.1,1.7
			c0,0.2,0,0.4,0,0.6c0,0.9,0.1,1.1,0.6,1.8c0.7,1,0.6,2.5,0.6,3.8c0,0.4,0,0.7,0,1s0,0.7,0,1c0,0.7-0.1,1.4,0,1.9
			c0,0.1,0.1,0.2,0.1,0.3c0.1,0,0.2,0,0.3,0.1c0.2,0,0.7,0,0.9,0c0.2-0.1,0.5-0.2,0.7-0.3c0.4-0.2,0.8-0.3,1.3-0.4
			c0.4-0.1,0.8,0,1.2,0c0.5,0,0.9,0,1.3-0.1c0.2,0,0.4-0.1,0.6-0.2c0.2-0.1,0.4-0.1,0.5-0.2c0.1,0,0.7-0.3,0.8-0.3s0.1-0.1,0.2-0.2
			c0.1-0.1,0.3-0.2,0.5-0.3c0.6-0.3,1-0.3,1.3-0.2c0.2,0,0.4,0,0.6,0c0.5-0.1,0.6-0.3,0.8-0.9c0.1-0.2,0.1-0.4,0.2-0.6
			c0.6-1.6,1.2-1.6,2.6-1.6h0.2l1.9-0.9l0.2,0.4c-0.1-0.5,0-1.3,0-1.8c0-0.7,0.3-1,0.4-1.5l-0.3,0.4L545.2,155z"/>
	</g>
	<g>
		<path class="st1" d="M546.6,162c-1.2,0-1.3,0-1.7,1.1c-0.1,0.2-0.1,0.3-0.2,0.5c-0.2,0.6-0.4,1.3-1.5,1.5c-0.4,0-0.6,0-0.8,0
			c-0.3,0-0.4,0-0.8,0.2c-0.1,0-0.2,0.1-0.3,0.2c-0.1,0.1-0.2,0.2-0.4,0.3s-0.8,0.4-1,0.4c-0.1,0-0.3,0.1-0.5,0.2
			c-0.3,0.1-0.5,0.2-0.7,0.2c-0.5,0.1-1.1,0.1-1.6,0.1c-0.4,0-0.7,0-1.1,0c-0.4,0-0.7,0.2-1,0.3s-0.6,0.3-0.9,0.3
			c-0.2,0-0.4,0.1-0.6,0.1c-0.2,0-0.4,0-0.5,0l-7.5,2.1c0.2,0.8,0.2,1.8,0.1,2.7c0,0.3,0,0.7,0,1c0,0.6,0,1.2,0,1.9
			c0,1.2-0.1,2.4,0,3.4l2-0.2c0.5,0,0.9-0.3,1.3-0.5c0.1-0.1,0.2-0.1,0.3-0.1h0.1h0.1c0.6,0,1,0,1.4-0.2c0.7-0.4,1.2-0.4,1.7-0.6
			c0.2,0,0.4-0.1,0.6-0.1h0.1c0.3,0,0.6-0.1,0.9-0.2c0.3-0.1,0.7-0.2,1.1-0.2l1.9-0.6c0.5-0.1,1-0.3,1.6-0.4
			c0.6-0.2,1.1-0.3,1.6-0.4h0.1c0.9,0,1.5,0,2.1-0.2c0.4-0.1,0.7-0.3,0.9-0.5c0.2-0.1,0.4-0.3,0.6-0.3h0.1c0.2,0,0.3-0.1,0.5-0.1
			c0.7-0.2,1.4-0.5,2.1,0.3l0.1,0.1c0.1,0.2,0.3,0.5,0.4,0.7c0.2,0.3,0.3,0.6,0.5,0.8c0.6,0.9,1.7,1.9,2.2,1.8l0.5-0.1v1.9H550
			c0.9,0.8,1.1,1.1,2.2,0.4c0.7-0.5,1.4-1,2-1.4c0.3-0.2,0.5-0.5,0.8-0.7c0.3-0.3,0.4-0.6,0.9-0.4c0.1,0.6,0,1.3,0.1,1.9
			c1.6-0.4,2.2-1.6,3.4-2.8c0.5-0.5,0.7-1.1,1.5-0.9c0.6,0.1,0.7,0.9,1.3,0.6c0.1-0.7,0.2-2,0-2.6c-0.2-0.5-0.7-0.7-0.9-1.1
			c-0.1-0.3,0-0.8,0-1.1c0-1-0.6-1.5-1.5-1.8c-0.7-0.2-3.6-0.3-3,0.8c0,0.1,1,0.4,1.2,0.5c0.3,0.2,0.3,0.4,0.5,0.6
			c0.4,0.4,0.6,0.4,0.9,0.9c0.7,1,0.4,1.4-0.5,2c-0.4,0.3-0.6,0.5-1.1,0.5c-1.1,0.1-0.7-0.4-1.4-1.1c-0.6-0.6-1.7-0.3-2.2-0.8
			c-0.3-0.3-0.7-1.6-0.8-2.1c-0.2-0.5-0.4-1.3-0.9-1.6c-0.3-0.2-0.7,0.1-1-0.1c-0.1-0.1-0.2-0.5-0.3-0.6c-0.2-0.3-0.6-0.6-0.8-1
			c-0.8-1.7,0.8-1.5,1.4-2.6c0.7-1.3-0.5-2.1-1.4-2.7c-0.5-0.3-0.8-0.4-1-0.7l-2.2,0.9L546.6,162z"/>
	</g>
	<g>
		<path class="st4" d="M546.7,175.8c-0.1-0.3-0.3-0.5-0.5-0.8s-0.3-0.5-0.4-0.7c-0.3-0.3-0.5-0.2-1.2,0c-0.2,0.1-0.3,0.1-0.5,0.2
			c-0.1,0.1-0.3,0.2-0.4,0.3c-0.2,0.2-0.5,0.3-0.8,0.4l2.5,8.9c0.6-0.2,1.4-0.4,1.6-0.7c0.4-0.6-0.3-1.5-0.4-2
			c-0.2-0.9-0.1-2.3,0-3.2c1-0.2,1.9,0,2.6,0.5v-0.5C548,177.7,546.8,175.8,546.7,175.8z"/>
	</g>
	<g>
		<path class="st1" d="M153.2,275c35.8,3.8,72.8,5.5,77.2,5.7l1.7-54.2c-22.6-1-52.5-3.9-72.2-6L153.2,275z"/>
	</g>
	<g>
		<path class="st4" d="M253.9,317.5c0.6,0.4,1.1,0.4,1.8,0.4c1.1,0,2.3,0,3.3,0.5c0.6,0.2,1.3,0.4,1.8,0.7c0.4,0.3,0.7,0.6,1,0.9
			s0.5,0.5,0.8,0.7c0.8,0.4,1.6,0.6,2.4,0.6c0.2,0,0.4,0,0.7,0c1.1,0,2.3-0.1,3.4,0.7c0.2,0.1,0.4,0.2,0.5,0.4
			c0.2,0.2,0.3,0.2,0.4,0.2c0.4,0,0.6-0.1,0.9-0.3c0.1,0,0.2-0.1,0.3-0.1h0.1h0.1c0.2,0,0.6-0.1,0.9-0.1c0.4-0.1,0.8-0.1,1.1-0.1
			h0.1h0.1c0.8,0.4,1.3,1.2,1.6,1.9c0.1,0.2,0.2,0.4,0.3,0.5c0.1,0.1,0.3,0.3,0.4,0.6c0.2,0.3,0.7,1,1,1s0.5-0.2,0.8-0.6
			c0.4-0.4,0.9-1.1,1.7-0.9c0.7,0.2,1.1,0.6,1.4,1c0.2,0.2,0.3,0.4,0.6,0.6c0.2,0.1,0.4,0,0.8-0.2c0.5-0.2,1.2-0.5,1.9,0
			c0.3,0.3,0.4,0.6,0.5,0.9c0.1,0.2,0.2,0.5,0.3,0.6c0,0,0,0,0.1,0h0.1c0.4-0.1,0.7-0.4,1-0.7c0.4-0.4,0.8-0.9,1.5-1l0,0
			c1,0,1.5,0.6,1.9,1.1c0.1,0.1,0.2,0.2,0.3,0.3c0.6,0.8,0.8,0.7,0.8,0.7s0.1-0.1,0.2-0.4c0.3-0.6,0.5-1,0.9-1.2
			c0.3-0.2,0.8-0.5,1.5-0.1c0.4,0.1,0.7,0.5,0.9,0.8c0.2,0.2,0.4,0.5,0.6,0.5l0.1,0.1c0.3,0.2,0.6,0,1.2-0.4
			c0.1-0.1,0.2-0.2,0.3-0.2c0.4-0.4,1.2-1.2,2-1.2h1.3c0.6,0,1.5,0,2.1-0.2c0.1,0,0.2-0.1,0.3-0.2c0.4-0.2,0.8-0.5,1.4-0.5h0.1
			c0.2,0.1,0.5,0.2,0.7,0.3c0.4,0.2,0.8,0.4,1.2,0.4h0.1h0.1c0.3,0.2,0.4,0.2,0.7,0c0.1-0.1,0.2-0.2,0.3-0.4
			c0.1-0.2,0.2-0.4,0.5-0.7c1.5-1,3.1,0.3,4.2,1.2c0.1,0.1,0.2,0.2,0.4,0.3c0.2,0.1,0.4,0.2,0.6,0.3c0.7,0.3,1.4,0.6,2.1,1.3
			c0.2,0.1,0.4,0.4,0.6,0.6c0.1,0.2,0.3,0.3,0.4,0.4l-0.9-31l-1.9-7.5l0,0l-1.1-7c-6.4,0.1-75.1,0.6-80.5,0h-0.4v-1.1
			c-1.2-0.1-5.1-0.2-10.9-0.6l-0.3,6.4L253,289v26.6C253,316.5,253.3,317,253.9,317.5z"/>
	</g>
	<g>
		<path class="st4" d="M289.2,193.2v1.2l0.6,1.8c0.3,0.3,0.5,0.8,0.5,1.3v1v0.1c0,0.1,0,0.3,0,0.5c0.1,0.3,0.1,0.6,0,1
			c0,0.5-0.4,0.8-0.6,1c-0.1,0-0.1,0.1-0.2,0.1c-0.5,0.5-0.8,1-0.8,1.5c0.1,0.5,0.6,0.9,1.2,1.3c0.6,0.4,1.2,0.9,1.6,1.6
			c0.1,0.3,0.2,0.5,0.2,0.7c0.1,0.4,0.2,0.7,0.5,1.3c0.5,0.7,0.5,1.3,0.5,2.2c0,0.6,0,1,0.2,1.6c0.2,0.3,0.5,0.6,0.9,0.8
			c0.3,0.2,0.6,0.5,0.9,0.8c0.6,0.6,0.6,1.8,0.5,2.8c0,0.2,0,0.4,0,0.5c0,0.2,0,0.4,0,0.6c0,0.6-0.1,1.3,0.2,1.6l0.1,0.1
			c0.1,0.3,0.6,0.4,1.1,0.4h0.1c1,0.2,1.4,0.6,1.4,1.8v1.3c0.2,0.9,0.2,1.6,0.2,2.7c0,0.4-0.1,0.7-0.2,1.1c-0.1,0.4-0.2,0.7-0.2,1.1
			v0.1c-0.2,0.8-0.2,1.7-0.2,2.3c0.2,0.7,0.4,1.1,1.2,1.7c0,0,0.1,0,0.3,0.1c0.4,0.2,1,0.4,1.4,0.9l43.1-2.2l0.6,1.1
			c0.1-0.1,0.3-0.1,0.4-0.1s0.2,0,0.3-0.1c0.8-0.4,1.5-0.8,1.6-1.4c0.1-0.4,0.1-0.7,0.1-1c0-0.6,0-1.1,0.6-1.9
			c0.4-0.5,0.4-0.8,0.5-1.4c0-0.3,0.1-0.5,0.2-0.8s0.3-0.6,0.6-1c0.3-0.4,0.6-0.8,0.5-1s-0.3-0.2-0.8-0.2s-1.6,0-1.6-1.3
			c-0.1-2.2,1.8-2.5,3.2-2.7c0.6-0.1,1.1-0.2,1.5-0.4c0.2-0.1,0.3-0.2,0.5-0.4s0.4-0.4,0.6-0.5s0.4-0.2,0.6-0.2
			c0.3-0.1,0.5-0.1,0.7-0.3c0.2-0.3,0.2-0.7,0.2-1.1c0-0.4,0-0.8,0.2-1.2c0.2-0.5,0.5-0.9,0.9-1.3c0.2-0.3,0.5-0.5,0.6-0.8
			c0.4-0.6,0.4-1.3,0.3-2.1c0-0.2,0-0.4,0-0.6c0-0.7,0-0.8-0.4-1c-0.2-0.1-0.3-0.2-0.6-0.4c-0.6-0.5-0.9-1.1-1.3-1.8l-0.3-0.6
			c-0.2-0.4-0.4-0.6-0.7-0.9c-0.2-0.2-0.3-0.2-0.6-0.2c-0.1,0-0.3-0.1-0.5-0.1c-1-0.4-1.1-0.9-1.3-1.5c-0.1-0.2-0.1-0.5-0.3-0.7
			c-0.3-0.4-1.1-0.7-1.9-1c-0.6-0.2-1.1-0.4-1.5-0.6c-0.9-0.5-1.6-1.6-1.8-2.7c0-0.2,0-0.5,0-0.8c0-0.2,0.1-0.6,0-0.7
			c-0.1-0.1-0.1-0.1-0.3-0.2c-0.2,0-0.5-0.1-0.8-0.5c-0.6-0.8,0-1.7,0.5-2.3c0.2-0.3,0.4-0.5,0.4-0.7c0.1-0.4,0.1-0.9-0.1-1.2
			c-0.1-0.1-0.2-0.1-0.4-0.2c-0.2,0-0.5-0.1-0.7-0.3c-0.6-0.5-0.7-1.2-0.6-2l-2.5,1.4h-0.1l-49.1,1.8l0,0h-0.5
			C289.7,192.4,289.3,192.5,289.2,193.2z"/>
	</g>
	<g>
		<path class="st4" d="M280.4,158.7c-28.7,0-59.6-1.6-63.7-1.9l-2.6,40l54.8,1.1c1.1,0,2,0.9,2.7,1.6l0.3,0.3
			c0.2,0.2,0.4,0.5,0.6,0.7c0.4,0.6,0.7,0.9,1.1,0.9c0.5,0,1.6,0,2-0.1c0-0.1,0.1-0.1,0.1-0.2c0.3-0.4,0.7-0.8,1.7-0.8h0.9
			c2.9,0,6.1,0,8.9,1.4l0.9,0.7c0.1-0.9,0.7-1.6,1-1.9c0.1-0.1,0.1-0.1,0.2-0.2c0.2-0.2,0.3-0.3,0.3-0.4v-0.1v-0.1
			c0-0.1,0-0.3,0-0.5c-0.1-0.3-0.1-0.6,0-1v-0.8c0-0.3-0.2-0.6-0.3-0.8l-0.1-0.1l-0.7-2.2V193c0.3-1.3,1.2-1.5,2-1.5l-0.4-22.9
			c0-0.2,0-0.3,0-0.5c0-0.4,0-0.9-0.1-1.1c-0.2-0.4-0.5-0.4-1.1-0.5c-0.3,0-0.7-0.1-1.1-0.2c-0.8-0.4-1.8-1.5-2-2.4
			c-0.3-1.3,0.7-2.4,1.6-2.9c0.3-0.1,0.5-0.2,0.8-0.2c0.2,0,0.5-0.1,0.6-0.2c0.1-0.1,0.1-0.5,0.1-0.9c0-0.1,0-0.3,0-0.4v-0.7
			C286,158.7,283.2,158.7,280.4,158.7z"/>
	</g>
	<g>
		<path class="st1" d="M576.2,123c-0.2-0.6-1.2-1.1-1.6-1.8c-0.3-0.5-0.6-1.3-1-1.8c-0.1-0.1-0.2-0.2-0.3-0.2
			c-0.7-0.3-1.7,0-2.4-0.1c-0.1-0.6-0.6-1-1-1.5c-0.4-0.6-0.4-1-0.6-1.6c-0.4-1-0.9-2.2-1.4-3.1c-0.8,0.2-1.2,1.3-2.2,0.7
			c-0.5-0.3-0.9-1.3-1.2-1.8c-0.9-1.7-1.2-3.6-1.8-5.3c-0.5-1.4-0.9-2.8-1.8-4.1c-0.9-1.5-1-2.9-1.1-4.6c-0.1-1.4-2-2.5-2.9-3.5
			c-0.6-0.6-1-1.1-1.9-1s-1.4,0.9-2.2,1.3c-0.8,0.5-1.7,0.7-2.4,1.3c-0.6,0.5-0.9,1.3-1.4,1.7c-1.3,1.2-2.8,0.3-3.2-1.1
			c-0.3-1-1.3-2.7-2-0.8c-0.6,1.5-0.6,3.1-1,4.6c-0.1,0.4-0.5,0.8-0.5,1.3c-0.1,0.8-0.2,1-0.5,1.7c-0.7,1.7-0.5,3.7-0.5,5.6
			c0,1.1-0.2,1.9-0.7,2.9c-0.3,0.6-0.4,0.8-0.4,1.5c0,0.3-0.1,0.7,0,1s0.4,0.3,0.4,0.5c0.1,0.5-0.1,1.1,0.1,1.7
			c0.1,0.5,0.5,0.9,0.6,1.4c0.2,0.7,0,2-0.2,2.7c-0.4,1.2-1.9,1.6-2.4,2.7c-0.6,1.3,1.4,1.9,1.1,3.1c-0.1,0.4-0.8,1.2-1.1,1.6
			c-0.3,0.6-0.1,0.6-0.9,0.7c-0.3,0-0.6,0.1-0.9,0.1l9.3,25.6l3.4,2.4c0-0.4-0.1-0.7,0-1.1c0.2-1.4,0.5-2.7,0.7-4
			c0.1-0.7,0.1-1,0.7-1.5c0.4-0.4,1.6-0.5,1.3-1.3c-1.2,0.1-1.3-0.9-0.8-1.8c0.7-1.1,1.6-0.9,2.6-1.1c0.9-0.1,1.1-0.5,1.6-1.2
			c0.7-0.9,0.8-1,2-1.3c0.2-0.8-0.7-1.3-0.2-1.8c0.2-0.2,0.9-0.3,1.1-0.2c0.4,0.2,0.2,0.5,0.5,0.7c1.4,0.9,3.1-1.8,2.8-3.1
			c-0.6-0.1-1.1,0-1.7-0.1c0-0.3,0.1-0.8,0-1.2c-0.2-0.6-0.4-0.4-0.9-0.8c-0.4-0.3-0.8-1-0.5-1.6c0.9-1.7,3.4-0.6,4.6-1.4
			c0.9-0.6,1.5-2.1,2.5-2.5c0.3-0.1,1.6-0.2,1.9,0c0.5,0.3,0.4,1,0.9,1.2c0.4-0.4,0.3-1,0.4-1.5c0.2-0.6,0.5-1.3,0.8-1.7
			c0.5-0.7,1.4-1.6,2.1-2c0.6-0.3,1.2-0.5,1.8-0.9c0.5-0.4,0.9-0.8,1.4-1.3C575.5,124.8,576.5,123.9,576.2,123z"/>
	</g>
	<g>
		<path class="st4" d="M307.4,245.3c0.8-0.6,1.3-1.3,1.4-1.7c0-0.1,0-0.3-0.3-0.5c-0.6-0.5-1.1-0.5-1.7-0.7c-0.2,0-0.4-0.1-0.6-0.1
			c-1-0.2-1.7-0.7-2.5-1.3c-4.7,0.3-12.8,0.4-21.9,0.4c-20.3,0-45.6-0.6-49.2-0.6l-1.3,40.4v0.7c7.6,0.6,73.9,0,79.9,0l0.2-29.5
			c-0.3-0.2-0.7-0.4-1.1-0.6c-0.8-0.3-1.6-0.7-2.1-1.6c-0.1-0.1-0.2-0.3-0.3-0.5c-0.1-0.2-0.2-0.4-0.4-0.6l-0.1-0.1
			c-0.1-0.1-0.2-0.2-0.4-0.3c-0.1-0.1-0.3-0.1-0.4-0.3c-0.4-0.3-0.7-0.8-0.6-1.2C306,246.4,306.7,245.8,307.4,245.3z"/>
	</g>
	<g>
		<path class="st4" d="M99.1,266.4c13.2,3.5,33,6.3,53.2,8.5l6.8-54.5c-11.8-1.3-19.8-2.2-20-2.3l-0.4-0.1l1.1-13.8
			c-7.9-1-18.4-2.8-29.3-4.8L99.1,266.4z"/>
	</g>
	<g>
		<path class="st4" d="M40.5,226.3l45.9,66.2h0.5l1.8-14.3l3.6,1.2H96l2.2-13.2l0,0l11.4-66.8c-26.5-4.9-55.7-11.4-59.5-12.2
			L40.5,226.3z"/>
	</g>
	<g>
		<path class="st4" d="M145.6,168.8L145.6,168.8l-4.9,35.2l-1.1,13.3c4.3,0.5,39.8,4.7,71.7,7.1l3.5-53.8c-33.1-3.5-64.3-7-68.2-7.4
			L145.6,168.8z"/>
	</g>
	<g>
		<path class="st4" d="M294.3,216.4c0-0.2,0-0.4,0-0.6c0-0.8,0.1-1.8-0.3-2.2c-0.2-0.3-0.4-0.5-0.7-0.7c-0.4-0.3-0.8-0.6-1.1-1.2
			c-0.3-0.8-0.3-1.3-0.3-2c0-0.9,0-1.2-0.4-1.8c-0.3-0.7-0.5-1.1-0.6-1.5c0-0.2-0.1-0.4-0.2-0.6c-0.2-0.5-0.8-0.8-1.3-1.2
			c-0.2-0.1-0.4-0.3-0.5-0.4l-2.4-1.7c-2.5-1.3-5.5-1.3-8.4-1.3h-0.9c-0.5,0-0.7,0.2-1,0.5c-0.1,0.1-0.1,0.2-0.2,0.2l-0.1,0.1
			c-0.5,0.2-1.4,0.3-2.4,0.3c-0.8,0-1.3-0.7-1.8-1.3c-0.2-0.2-0.3-0.5-0.5-0.6c-0.1-0.1-0.2-0.2-0.3-0.3c-0.6-0.6-1.3-1.3-2.1-1.3
			l-54.8-1.1l-1.8,26.7c7.1,0.5,14.1,0.9,20.4,1.2h0.4l-0.5,14.2c5.2,0.1,53.9,1.2,70.1,0.3c-0.3-0.3-0.5-0.8-0.5-1.4
			c0-0.4,0-1-0.2-1.4s-0.8-0.8-1.2-1.2c-0.2-0.2-0.4-0.3-0.5-0.5l-0.1-0.1c0-0.1-0.1-0.2-0.1-0.2c-0.2-0.3-0.4-0.7-0.4-1.3
			c0-0.2,0-0.3,0-0.5c0-0.3,0.1-0.6,0-0.8c-0.2-0.4-0.8-0.6-1.2-0.7c-0.1-0.1-0.3-0.1-0.4-0.2c-1.1-0.8-1.3-1.3-1.6-2.3v-0.1
			c0-0.7,0-1.6,0.2-2.5c0-0.5,0.1-1,0.3-1.3c0.1-0.3,0.2-0.6,0.2-0.8c0-1.1,0-1.7-0.2-2.6v-0.1v-1.3c0-0.6-0.1-0.7-0.7-0.9
			c-0.5,0-1.6,0-1.9-0.9c-0.4-0.6-0.3-1.5-0.3-2.1C294.3,216.7,294.3,216.5,294.3,216.4z"/>
	</g>
	<path class="st2" d="M536.6,128.7l-0.4,0.2c0.1,0,0.3,0,0.5,0L536.6,128.7z"/>
	<path class="st2" d="M549.3,157.4l0.3-0.4l-0.2-0.2C549.3,157,549.3,157.2,549.3,157.4L549.3,157.4z"/>
	<path class="st2" d="M549,161.1L549,161.1l-0.2-0.4l0,0C548.9,160.9,549,161,549,161.1z"/>
	<path class="st2" d="M532.8,132.7v1.1c0.2-0.3,0.3-0.7,0.4-1.2L532.8,132.7z"/>
	<path class="st2" d="M549.3,178.9h0.4c-0.1-0.1-0.3-0.2-0.4-0.3V178.9z"/>
	<path class="st2" d="M515.8,139.3L515.8,139.3c0.2,0,0.3-0.1,0.5-0.1L515.8,139.3z"/>
	<path class="st2" d="M528.4,193.7l0.1-0.4c-0.1,0.1-0.2,0.3-0.3,0.4H528.4z"/>
	<path class="st2" d="M545.1,184.2l0.4-0.1l0,0C545.4,184.1,545.2,184.1,545.1,184.2L545.1,184.2z"/>
	<path class="st2" d="M518.8,260.5L518.8,260.5V260C518.7,260.2,518.7,260.4,518.8,260.5z"/>
	<path class="st2" d="M426.3,204.8c0.1,0.1,0.2,0.2,0.4,0.4l-0.1-0.4C426.5,204.8,426.4,204.8,426.3,204.8z"/>
	<path class="st2" d="M522.2,232.1l-0.2-0.4c0,0.2,0,0.3,0,0.5L522.2,232.1z"/>
	<path class="st2" d="M524.8,199.6l0.3-0.3c-0.2,0-0.4,0-0.6,0.1L524.8,199.6z"/>
	<path class="st2" d="M504.7,239.2l0.6,0.1l0.1-0.4C505,238.9,504.8,239,504.7,239.2z"/>
	<path class="st2" d="M475.9,334.2c-0.1,0.1-0.2,0.2-0.4,0.3l0.2,0.1L475.9,334.2z"/>
	<path class="st2" d="M461.3,191.2c0.1-0.1,0.2-0.2,0.4-0.3l-0.4,0.2V191.2z"/>
	<path class="st2" d="M390.8,209.5c0.1-0.1,0.3-0.3,0.4-0.5c-0.3,0-0.4,0-0.4,0V209.5z"/>
	<path class="st2" d="M99.9,97c0.2,0,0.3,0.1,0.5,0.1l0,0L99.9,97z"/>
	<path class="st2" d="M332.7,145.2c0,0.2,0.1,0.3,0.1,0.5l0.1-0.1L332.7,145.2z"/>
	<path class="st2" d="M384.2,210.2c0.2,0.2,0.3,0.4,0.5,0.6v-0.6H384.2z"/>
	<path class="st2" d="M454.4,196.1c0.1-0.1,0.3-0.2,0.4-0.3l-0.4,0.1V196.1z"/>
	<path class="st2" d="M380,200.5c0,0.1,0,0.3,0,0.4h0.1L380,200.5z"/>
	<path class="st2" d="M282.6,114.9c0.1,0,0.2,0,0.3,0H282.6L282.6,114.9z"/>
	<path class="st2" d="M108.8,98.8c0.1,0,0.3,0.1,0.4,0.1L108.8,98.8L108.8,98.8z"/>
	<path class="st2" d="M377.3,164.8l-0.1-0.7c-0.1,0.3-0.2,0.5-0.3,0.8L377.3,164.8z"/>
	<path class="st2" d="M350.3,145.4L350.3,145.4c0.1-0.1,0.3-0.1,0.4-0.2L350.3,145.4z"/>
	<g>
		<path class="st1" d="M456.6,275c0,1-0.2,1.5-1,2.3l-0.1,0.1c-0.2,0.1-0.3,0.1-0.4,0.2c-0.3,0.1-0.4,0.2-0.5,0.3l-0.1,0.1l-0.1,0.1
			c-0.1,0.1-0.2,0.2-0.3,0.5c-0.1,0.1-0.1,0.3-0.2,0.4l-0.1,0.1c-0.5,0.5-1.4,0.9-1.9,1.2c-0.2,0.1-0.4,0.2-0.6,0.2
			c-0.5,0.2-1.1,0.5-1.8,0.5c-0.6,0-0.9,0-1.2,0.5c-0.1,0.1-0.1,0.2-0.2,0.3c-0.1,0.2-0.1,0.4-0.3,0.6c-0.2,0.4-0.5,0.6-0.8,0.7
			c-0.1,0-0.2,0.1-0.2,0.1c-0.2,0.1-0.4,0.1-0.6,0.2c-0.7,0.1-1.1,0.3-1.2,0.7v0.1l-0.1,0.1c0,0,0.1,0.3,0.1,0.4s0,0.3,0,0.4v0.1
			c-0.2,0.7-0.5,1-1,1.3c-1.1,1.1-2.5,1.8-3.8,2.5c-1.3,0.9-2.7,1.6-4.1,2c-0.4,0.2-0.9,0.2-1.4,0.3c-0.5,0-0.8,0-1,0.2
			c0,0.2-0.1,0.6-0.2,0.8c0,0.5-0.3,0.9-0.5,1.4c-0.2,0.6-0.7,1.1-1.2,1.6c-0.6,0.6-1.1,1.1-1,1.7v0.2l-0.9,1.2
			c0.6-0.5,1.5-0.6,2.2-0.6h0.3c0.3,0,0.6,0,0.8,0c0.3,0,0.5,0,0.7,0c0.1,0,0.2-0.1,0.4-0.2c0.2-0.1,0.3-0.2,0.5-0.2
			c0.6-0.2,1.3-0.1,2-0.1c0.3,0,0.5,0,0.7,0h0.4c1.9,0,3.9,0,5.5-0.6c2.1-0.8,4.2-2,5.7-3c0.3-0.2,0.6-0.4,0.9-0.6
			c0.5-0.3,1-0.7,1.5-1c0.8-0.4,1.6-0.5,2.3-0.5c0.2,0,0.5,0,0.7-0.1c1.9-0.2,3.9-0.2,5.8-0.2c0.5,0,1.1,0,1.6,0h1.1h2.5
			c1.3,0,2.5,0,3.4,1.3c0.1,0.2,0.3,0.4,0.4,0.6c0.4,0.7,0.5,0.9,1.5,0.9c0.6,0,1.3,0,1.9,0c0.4,0,0.9,0,1.3,0c1.2,0,2.5,0,3.4-0.5
			c0.4-0.2,0.8-0.4,1.2-0.7c0.7-0.4,1.4-0.9,2.3-1.1h0.1h2c1.5,0.2,2.4,1.1,3.2,2c0.3,0.3,0.7,0.7,1,1l2.6,2c0.7,0.4,1.3,1,2,1.5
			c0.3,0.2,0.6,0.5,0.9,0.7c0.3,0.1,0.6,0.3,0.9,0.5s0.5,0.3,0.8,0.4s0.4,0.2,0.6,0.2c0.2,0.1,0.4,0.1,0.6,0.2
			c0.4,0.2,0.6,0.5,0.8,0.8l0,0c0.1,0,1.1,0.7,2,1.7c0.2-0.2,0.4-0.4,0.5-0.6c0.2-0.4-0.1-0.8,0.1-1.2c1.4-2.1,3.2,2.3,3.3,3.2
			c0.9-0.5,1.9-2.2,2-3.3c0.1-1.4,0.4-2.8,0.6-4.1c0.2-1.8,1.8-2,2.6-3.3c0.4-0.7,0.6-1.9,1.1-2.6c0.7-0.9,1.6-1,2.6-1.1
			c0.1-1.1,0.2-1.1,1.2-1.5c0.9-0.4,1.7-1,2.8-1.3c0.7-0.2,1.5-0.1,2.3-0.3c0.9-0.2,1.2-1.4,1.6-2.2c0.2-0.6,0.6-1.8-0.2-2.2
			c-0.8-0.4-2.1,0.2-2.7,0.6c-0.8,0.6-1.6,1.7-2.9,1.1c-0.7-0.3-0.5-1.5-0.4-2.1c0.4-0.2,0.9-0.1,1.3-0.2c0.4-0.1,0.5-0.4,0.9-0.5
			c0.3-0.1,0.7,0.2,0.9,0c0.5-0.3,0.6-2.1,0.4-2.6c-0.3-1-1.3-0.7-2.2-1.1c-0.6-0.2-0.6-0.4-1.3-0.5c-0.5,0-1,0.1-1.6,0
			c0.7-0.8,0.5-1.1,0.7-2.2c0.1-0.7-0.2-0.8,0.7-0.9c0.4-0.1,0.7-0.1,0.9,0.2c0.8,0.9-0.2,1.5,1.5,1.6c1,0,1.7,0.2,2.6,0.5
			c1.2,0.4,4.5,1,4.9-0.7c0.3-1-0.8-1.7-0.6-2.7c0.1-0.3,0.5-0.6,0.6-0.9c0.2-0.4,0.2-0.7,0.2-1.1c0.1-0.6,0.2-2,0-2.5
			c-0.3-0.9-0.8-0.6-1.2,0.1c-0.3,0.5-0.2,2-1.2,1.5c-0.1-0.7-0.7-1.3-1.2-1.8c-1-1.1-2.4-0.6-3.7-0.2c-1.2,0.3-4.7,2.1-5.4,0.1
			c0.9-0.2,2.1,0.4,2.9,0.1c0.7-0.3,1.1-1.3,1.7-1.5c1.5-0.5,3.3,0.3,4.8-0.3c-0.9-0.3-3.3-1.1-2.4-2.6c0.4-0.7,1.7-0.4,2.4-0.5
			c0-0.3,0.2-1,0-1.3c-0.2-0.5-0.5-0.2-0.8-0.5c-0.3-0.2-0.4-0.5-0.5-0.6c-13.1,4.2-37.7,8.6-62.2,12.3v1.9H456.6z"/>
	</g>
	<g>
		<path class="st1" d="M496,301.8c-0.2-0.3-0.4-0.5-0.7-0.7c-0.2-0.1-0.3-0.1-0.4-0.2c-0.2-0.1-0.4-0.1-0.6-0.2
			c-0.3-0.1-0.6-0.3-0.9-0.5s-0.5-0.3-0.8-0.4l-0.1-0.1c-0.3-0.2-0.6-0.5-1-0.8c-0.6-0.5-1.2-1-1.9-1.4l-2.7-2
			c-0.4-0.3-0.8-0.7-1.1-1.1c-0.8-0.9-1.6-1.6-2.7-1.7h-1.9c-0.7,0.2-1.3,0.6-2,1c-0.4,0.2-0.8,0.5-1.3,0.7
			c-1.1,0.5-2.5,0.5-3.8,0.5c-0.4,0-0.9,0-1.3,0c-0.6,0-1.3,0-1.9,0c-1.5,0-1.8-0.5-2.3-1.4c-0.1-0.2-0.2-0.4-0.3-0.6
			c-0.6-0.9-1.3-0.9-2.6-0.9h-2.5h-1.1c-0.5,0-1.1,0-1.6,0c-1.9,0-3.8,0-5.6,0.2c-0.3,0-0.5,0-0.8,0.1c-0.7,0.1-1.4,0.1-2,0.4
			c-0.5,0.3-1,0.6-1.4,0.9c-0.3,0.2-0.6,0.4-1,0.6c-1.6,1-3.7,2.2-5.8,3.1c-0.2,0.1-0.4,0.2-0.7,0.2v2.2c0,0.9,0,1.3,0.5,1.6
			c0.1,0.1,0.3,0.1,0.4,0.2c0.2,0,0.3,0.1,0.5,0.2c0.5,0,1.1,0.2,1.7,0.3l0.6,0.2c0.1,0,0.2,0.1,0.3,0.2c0.4,0.2,0.9,0.4,1.3,0.8
			c0.2,0.2,0.4,0.6,0.5,1c0.1,0.2,0.1,0.3,0.2,0.5c0.5,1.2,0.9,2,1.5,2.8c1.1,1.1,2.6,2,4.1,2.9c0.5,0.3,0.9,0.5,1.3,0.8
			c0.6,0.2,1.1,0.7,1.6,1c0.3,0.3,0.7,0.5,1,0.7c0.7,0.2,1.2,0.5,1.7,1.3c0.1,0.1,0.2,0.3,0.3,0.6c0,0.1,0.1,0.2,0.1,0.3
			c0.5,0.3,0.7,0.8,0.9,1.4c0.2,0.3,0.3,0.6,0.3,1c0.6,0.7,1.4,1.1,2.2,1.5c0.2,0.1,0.5,0.3,0.7,0.4c0.9,0.5,2,1.1,2.4,2.3
			c0.2,0.5,0.2,1.2,0.2,1.9c0,0.9,0.3,1.2,1.2,1.9c1.3,0.8,2.1,1.5,2.8,2.3c0.5,0.5,0.8,1.2,0.8,2c0,0.2,0,0.6,0.2,0.9
			c0.1,0.3,0.4,0.5,0.6,0.8c0.4,0.4,0.8,0.9,1,1.6l1.8,0.8l-0.2,0.4c0.5-0.5,0.5-1,0.6-1.6c0.3-1.3,0.1-2.6,0.3-3.9
			c0.7-0.2,1.8,0.3,2.6,0.2c0.2-0.8-0.4-1.2-0.3-1.9c1-0.4,1.7,0.2,2.6-0.5c0.5-0.4,1-1.2,1.5-1.8c0.6-0.7,1.1-1.2,1.9-1.7
			c0.6-0.4,0.6-0.2,0.8-0.9c0.1-0.3-0.1-0.8,0-1.1c0.3-0.9,1-0.9,1.6-1.4c0.3-0.3,0.3-0.6,0.6-0.8c0.4-0.3,0.8-0.4,1.1-0.7
			c0.3-0.3,0.3-0.6,0.7-0.8c0.4-0.3,0.6-0.1,1.1-0.3c1.8-0.5,1-1.3,1.3-2.6c0.3-1.2,1.3-1.5,1.3-2.8c0-1.1,0.2-1.9,0.4-2.9
			c0.4-1.5,1.1-2.5,2.2-3.6c0.6-0.6,1.2-1.2,1.8-1.7l0,0c-0.6-0.6-1.3-1.1-1.6-1.4C496.3,301.9,496.1,301.9,496,301.8z"/>
	</g>
	<path class="st3" d="M498.9,304.2l0.6-0.3c-0.2-0.4-0.5-0.8-0.9-1.2c-0.2,0.2-0.4,0.3-0.5,0.4C498.4,303.5,498.7,303.9,498.9,304.2
		z"/>
	<path class="st3" d="M496.7,301.2l-0.1-0.1l-0.3,0.5c0,0,0.1,0.1,0.2,0.1C496.7,301.6,496.9,301.4,496.7,301.2z"/>
</g>
</svg>
