<?xml version="1.0" encoding="utf-8"?>
<!-- Generator: Adobe Illustrator 21.1.0, SVG Export Plug-In . SVG Version: 6.00 Build 0)  -->
<svg version="1.1" id="Option_2:_Yellow" xmlns="http://www.w3.org/2000/svg" xmlns:xlink="http://www.w3.org/1999/xlink" x="0px"
	 y="0px" viewBox="0 0 114.3 47.4" style="enable-background:new 0 0 114.3 47.4;" xml:space="preserve">
<style type="text/css">
	.st0{fill:rgba(255, 255, 255, .42);}
</style>
<g>
	<path class="st0" d="M89.1,29c-0.3-0.2-0.8,0.2-1.7,1.1c-10,9.9-6.8,2.4-4.7-0.7c1-1.6,2.9-4.6,1.6-6.7c-1.9-3.3-3.5-2.3-10.5,4.5
		c-1.5,1.4-1.8,1.2-0.7,0c3.1-3.8,3.7-6.3,2.3-7.6c-0.3-0.2-0.9-0.6-1.5-0.8c-0.3-0.1-0.5,0-0.6,0.5c-0.1,0.4-0.2,0.7-1.1,2
		c-1.4,2.2-4,5.5-5.5,8.5c0,0-0.1,0.1-0.1,0.1c-2.3,2.3-7,7.3-5.8,4.1c1.6-4,7.4-10.8,2.1-12.6c-0.7-0.2-0.8,0.1-1,0.8
		c0,0.3-0.8,2.2-2.2,3.6c-2.8,2.9-3.2,3.2-6.2,5.6c-1.9,1.6-2.7,1.7-1.8-0.4c1-2.2,6.1-8.6,4.4-11.1c-0.4-0.6-0.8-0.8-2-1.2
		c-0.6-0.2-0.7,0.5-0.9,0.9c-0.2,0.4-0.4,0.8-1.5,2.6c-0.6,1-1.4,2.2-2.1,3.5c-0.9-0.7-2.2-1.4-3.8-2c-0.1-2.3-0.5-3.6-1.6-4.9
		c-1.4-1.6-3.6-2.7-11.2-3.5c-3.5-0.4-6.8-0.3-7.9-0.8c-0.5-0.2-0.9-1.7-0.9-2.1c0-0.9,1.2-1.7,4.1-3c5.3-2.4,15-4.7,20.7-5.3
		c2.7-0.2,0.3,1.8,2.6,0.8c1.6-0.7,1.8-1,1.8-2.5c0-1.6-0.9-2.4-2.9-2.4c-5.7,0-16.3,2.3-23.4,5.2C21.3,7.6,19,9.6,19,11.7
		c0,1.6,0.9,4.4,1.9,5.5c0.8,0.9,2.3,1.5,4.3,1.4l7.7-0.1c3.5,0,6.8,0.4,8.5,1.2c1,0.4,1.6,1.2,1.6,2.1c0,0.2-0.1,0.5-0.2,0.9
		c-2.3-0.5-3.9-0.7-6.7-0.7c-9.9,0-23.4,2.6-31.8,6C1.2,29.3,0,30.8,0,33.8c0,5.4,3.1,9.1,7.6,9.1c5.2,0,11.7-1.2,18.6-3.4
		c8.2-2.6,13.8-5.9,17.3-10c0.9-1.2,1.8-2.8,2.2-4.2c1,0.2,2.2,0.6,3.4,1.3c-2.2,4-3.8,8.4-0.6,9.7c2.8,1.2,7-4.9,10.3-7.8
		c0.2-0.2,0.8-0.8,0.4-0.1c-2.4,4.1-1.9,6.5-0.3,7.7c1.9,1.5,4.5-1.2,6.5-3.5c-0.4,1.7-0.1,3.1,1.5,3.9c0.4,0.2,0.8-0.1,0.9-0.5
		c1.7-3.8,18.3-20.6,10.8-8c-2.7,4.4-1.9,7.2,0.6,8.3c2.4,1.2,5.3-1.7,8.9-5.8C89,29.7,89.4,29.2,89.1,29 M29.6,33.1
		c-7,3-16.4,5.2-22.7,5.2c-3,0-4.8-0.7-4.8-2c0-1.5,1.8-3.2,5.4-5.2c6.8-3.7,21.3-7.3,29.3-7.3c1.8,0,3,0.1,5.2,0.4
		C39.3,27.9,35.7,30.5,29.6,33.1"/>
	<path class="st0" d="M47.3,41.3c0-0.1,0.1-0.2,0.2-0.2h2.3c1.1,0,1.9,0.8,1.9,1.9c0,0.8-0.5,1.5-1.3,1.8l1.2,2.2
		c0.1,0.1,0,0.3-0.2,0.3H51c-0.1,0-0.1,0-0.1-0.1l-1.2-2.3h-1.7v2.2c0,0.1-0.1,0.2-0.2,0.2h-0.3c-0.1,0-0.2-0.1-0.2-0.2V41.3z
		 M49.7,44.3c0.7,0,1.3-0.6,1.3-1.3c0-0.7-0.6-1.2-1.3-1.2H48v2.5H49.7z"/>
	<path class="st0" d="M53.7,41.3c-0.1-0.1,0-0.2,0.2-0.2h0.4c0.1,0,0.1,0.1,0.2,0.1l2.2,4.9h0l2.2-4.9c0,0,0.1-0.1,0.2-0.1h0.4
		c0.1,0,0.2,0.1,0.2,0.2l-2.7,5.9c0,0.1-0.1,0.1-0.2,0.1h-0.1c-0.1,0-0.1,0-0.2-0.1L53.7,41.3z"/>
	<path class="st0" d="M65.3,41.3c0-0.1,0.1-0.2,0.2-0.2h2.3c1.1,0,1.9,0.8,1.9,1.9c0,0.8-0.5,1.5-1.3,1.8l1.2,2.2
		c0.1,0.1,0,0.3-0.2,0.3H69c-0.1,0-0.1,0-0.1-0.1l-1.2-2.3H66v2.2c0,0.1-0.1,0.2-0.2,0.2h-0.3c-0.1,0-0.2-0.1-0.2-0.2V41.3z
		 M67.7,44.3c0.7,0,1.3-0.6,1.3-1.3c0-0.7-0.6-1.2-1.3-1.2H66v2.5H67.7z"/>
	<path class="st0" d="M72.6,41.3c0-0.1,0.1-0.2,0.2-0.2h3.5c0.1,0,0.2,0.1,0.2,0.2v0.3c0,0.1-0.1,0.2-0.2,0.2h-3v2.1h2.6
		c0.1,0,0.2,0.1,0.2,0.2v0.3c0,0.1-0.1,0.2-0.2,0.2h-2.6v2.2h3c0.1,0,0.2,0.1,0.2,0.2v0.3c0,0.1-0.1,0.2-0.2,0.2h-3.5
		c-0.1,0-0.2-0.1-0.2-0.2V41.3z"/>
	<path class="st0" d="M78.9,46.3c0-0.1,0.1-0.1,0.1-0.2c0.1-0.1,0.2-0.2,0.3-0.1c0.1,0.1,0.7,0.7,1.5,0.7c0.7,0,1.2-0.4,1.2-1
		c0-0.6-0.5-1-1.6-1.4c-1-0.4-1.6-0.8-1.6-1.8c0-0.6,0.5-1.6,1.9-1.6c0.9,0,1.5,0.4,1.5,0.4c0.1,0,0.2,0.1,0.1,0.3
		c0,0.1-0.1,0.1-0.1,0.2c-0.1,0.1-0.2,0.2-0.3,0.1c-0.1,0-0.6-0.4-1.2-0.4c-0.9,0-1.2,0.6-1.2,1c0,0.6,0.5,0.9,1.2,1.2
		c1.2,0.5,2,0.9,2,2c0,0.9-0.9,1.6-1.9,1.6c-1,0-1.8-0.6-1.9-0.7C78.8,46.6,78.8,46.5,78.9,46.3"/>
	<path class="st0" d="M88.1,41c1.8,0,3.2,1.4,3.2,3.2c0,1.8-1.4,3.2-3.2,3.2c-1.8,0-3.2-1.4-3.2-3.2C84.9,42.4,86.3,41,88.1,41
		 M88.1,46.7c1.4,0,2.6-1.1,2.6-2.5c0-1.4-1.2-2.6-2.6-2.6c-1.4,0-2.6,1.2-2.6,2.6C85.5,45.6,86.7,46.7,88.1,46.7"/>
	<path class="st0" d="M94,41.3c0-0.1,0.1-0.2,0.2-0.2h2.3c1.1,0,1.9,0.8,1.9,1.9c0,0.8-0.5,1.5-1.3,1.8l1.2,2.2
		c0.1,0.1,0,0.3-0.2,0.3h-0.5c-0.1,0-0.1,0-0.1-0.1l-1.2-2.3h-1.7v2.2c0,0.1-0.1,0.2-0.2,0.2h-0.3c-0.1,0-0.2-0.1-0.2-0.2V41.3z
		 M96.4,44.3c0.7,0,1.3-0.6,1.3-1.3c0-0.7-0.6-1.2-1.3-1.2h-1.7v2.5H96.4z"/>
	<path class="st0" d="M102.1,41.7h-1.5c-0.1,0-0.2-0.1-0.2-0.2v-0.3c0-0.1,0.1-0.2,0.2-0.2h3.8c0.1,0,0.2,0.1,0.2,0.2v0.3
		c0,0.1-0.1,0.2-0.2,0.2h-1.5v5.4c0,0.1-0.1,0.2-0.2,0.2h-0.3c-0.1,0-0.2-0.1-0.2-0.2V41.7z"/>
	<path class="st0" d="M106.5,46.3c0-0.1,0.1-0.1,0.1-0.2c0.1-0.1,0.2-0.2,0.3-0.1c0.1,0.1,0.7,0.7,1.5,0.7c0.7,0,1.2-0.4,1.2-1
		c0-0.6-0.5-1-1.6-1.4c-1-0.4-1.6-0.8-1.6-1.8c0-0.6,0.5-1.6,1.9-1.6c0.9,0,1.5,0.4,1.5,0.4c0.1,0,0.2,0.1,0.1,0.3
		c0,0.1-0.1,0.1-0.1,0.2c-0.1,0.1-0.2,0.2-0.3,0.1c-0.1,0-0.6-0.4-1.2-0.4c-0.9,0-1.2,0.6-1.2,1c0,0.6,0.5,0.9,1.2,1.2
		c1.2,0.5,2,0.9,2,2c0,0.9-0.9,1.6-1.9,1.6c-1,0-1.8-0.6-1.9-0.7C106.5,46.6,106.4,46.5,106.5,46.3"/>
	<path class="st0" d="M97.7,34.7c-0.2,0-1-0.1-1.6-0.9c-0.5-0.6-1.4-2.8-1.7-4.6c-0.2,0.1-0.3,0.1-0.5,0.2c-0.5,0.2-1,0.3-1.4,0.4
		c0.3,1.5,0.8,2.8,1.4,3.5c1.6,1.9,3.5,1.9,3.7,1.9c0.1,0,0.1,0,0.2-0.1C97.9,35.1,97.8,34.8,97.7,34.7"/>
	<path class="st0" d="M102.1,31.2c-0.2,0.1-1,0.2-1.8-0.3c-0.7-0.4-2.3-2.2-3.2-3.7c-0.1,0.1-0.2,0.2-0.4,0.4
		c-0.4,0.3-0.8,0.6-1.2,0.9c0.8,1.3,1.7,2.4,2.5,2.8c2.1,1.2,4,0.6,4.2,0.5c0.1,0,0.1-0.1,0.1-0.1C102.3,31.5,102.2,31.3,102.1,31.2
		"/>
	<path class="st0" d="M102.1,31.2c-0.2,0.1-1,0.2-1.8-0.3c-0.7-0.4-2.3-2.2-3.2-3.7c-0.1,0.1-0.2,0.2-0.4,0.4
		c-0.4,0.3-0.8,0.6-1.2,0.9c0.8,1.3,1.7,2.4,2.5,2.8c2.1,1.2,4,0.6,4.2,0.5c0.1,0,0.1-0.1,0.1-0.1C102.3,31.5,102.2,31.3,102.1,31.2
		"/>
	<path class="st0" d="M104.9,26.4c-0.2,0.1-0.9,0.6-1.8,0.4c-0.7-0.1-2.9-1.3-4.3-2.4c-0.1,0.2-0.1,0.3-0.2,0.5
		c-0.2,0.4-0.5,0.9-0.8,1.2c1.2,0.9,2.4,1.6,3.3,1.8c2.4,0.4,3.9-0.8,4.1-0.9c0.1-0.1,0.1-0.1,0.1-0.2
		C105.3,26.6,105,26.4,104.9,26.4"/>
	<path class="st0" d="M104.9,26.4c-0.2,0.1-0.9,0.6-1.8,0.4c-0.7-0.1-2.9-1.3-4.3-2.4c-0.1,0.2-0.1,0.3-0.2,0.5
		c-0.2,0.4-0.5,0.9-0.8,1.2c1.2,0.9,2.4,1.6,3.3,1.8c2.4,0.4,3.9-0.8,4.1-0.9c0.1-0.1,0.1-0.1,0.1-0.2
		C105.3,26.6,105,26.4,104.9,26.4"/>
	<path class="st0" d="M106,20.9c-0.1,0.2-0.6,0.8-1.6,1c-0.7,0.1-3.1-0.2-4.9-0.8c0,0.2,0,0.3-0.1,0.5c-0.1,0.5-0.2,1-0.4,1.5
		c1.5,0.5,2.8,0.7,3.8,0.5c2.4-0.4,3.4-2.1,3.5-2.3c0-0.1,0-0.1,0-0.2C106.4,21,106.1,20.9,106,20.9"/>
	<path class="st0" d="M106,20.9c-0.1,0.2-0.6,0.8-1.6,1c-0.7,0.1-3.1-0.2-4.9-0.8c0,0.2,0,0.3-0.1,0.5c-0.1,0.5-0.2,1-0.4,1.5
		c1.5,0.5,2.8,0.7,3.8,0.5c2.4-0.4,3.4-2.1,3.5-2.3c0-0.1,0-0.1,0-0.2C106.4,21,106.1,20.9,106,20.9"/>
	<path class="st0" d="M105.1,15.4c-0.1,0.2-0.3,1-1.1,1.5c-0.6,0.4-3,0.9-4.8,0.9c0,0.2,0.1,0.3,0.1,0.5c0.1,0.5,0.1,1,0.1,1.5
		c1.5-0.1,2.9-0.3,3.7-0.8c2.1-1.3,2.5-3.1,2.5-3.3c0-0.1,0-0.1,0-0.2C105.5,15.3,105.2,15.3,105.1,15.4"/>
	<path class="st0" d="M105.1,15.4c-0.1,0.2-0.3,1-1.1,1.5c-0.6,0.4-3,0.9-4.8,0.9c0,0.2,0.1,0.3,0.1,0.5c0.1,0.5,0.1,1,0.1,1.5
		c1.5-0.1,2.9-0.3,3.7-0.8c2.1-1.3,2.5-3.1,2.5-3.3c0-0.1,0-0.1,0-0.2C105.5,15.3,105.2,15.3,105.1,15.4"/>
	<path class="st0" d="M102.3,10.5c0,0.2,0,1-0.6,1.8c-0.5,0.6-2.5,1.9-4.2,2.5c0.1,0.1,0.2,0.3,0.3,0.4c0.3,0.4,0.5,0.9,0.6,1.4
		c1.4-0.6,2.6-1.2,3.2-2c1.6-1.9,1.3-3.8,1.3-4c0-0.1,0-0.1-0.1-0.2C102.7,10.3,102.4,10.4,102.3,10.5"/>
	<path class="st0" d="M102.3,10.5c0,0.2,0,1-0.6,1.8c-0.5,0.6-2.5,1.9-4.2,2.5c0.1,0.1,0.2,0.3,0.3,0.4c0.3,0.4,0.5,0.9,0.6,1.4
		c1.4-0.6,2.6-1.2,3.2-2c1.6-1.9,1.3-3.8,1.3-4c0-0.1,0-0.1-0.1-0.2C102.7,10.3,102.4,10.4,102.3,10.5"/>
	<path class="st0" d="M98.1,6.8c0.1,0.2,0.4,0.9,0.1,1.9c-0.3,0.7-1.7,2.6-3.1,3.8c0.1,0.1,0.3,0.2,0.4,0.3c0.4,0.3,0.7,0.7,1.1,1.1
		c1.1-1,2-2.1,2.4-3c0.8-2.3-0.1-4-0.2-4.2c0-0.1-0.1-0.1-0.1-0.1C98.4,6.5,98.1,6.7,98.1,6.8"/>
	<path class="st0" d="M98.1,6.8c0.1,0.2,0.4,0.9,0.1,1.9c-0.3,0.7-1.7,2.6-3.1,3.8c0.1,0.1,0.3,0.2,0.4,0.3c0.4,0.3,0.7,0.7,1.1,1.1
		c1.1-1,2-2.1,2.4-3c0.8-2.3-0.1-4-0.2-4.2c0-0.1-0.1-0.1-0.1-0.1C98.4,6.5,98.1,6.7,98.1,6.8"/>
	<path class="st0" d="M92.9,4.9c0.2,0.2,0.7,0.7,0.7,1.7c0,0.8-0.7,3-1.6,4.7c0.2,0.1,0.3,0.1,0.5,0.1c0.5,0.2,0.9,0.4,1.4,0.6
		c0.7-1.4,1.2-2.6,1.2-3.6c0-2.5-1.4-3.7-1.6-3.9c-0.1,0-0.1-0.1-0.2-0.1C93,4.5,92.9,4.8,92.9,4.9"/>
	<path class="st0" d="M92.9,4.9c0.2,0.2,0.7,0.7,0.7,1.7c0,0.8-0.7,3-1.6,4.7c0.2,0.1,0.3,0.1,0.5,0.1c0.5,0.2,0.9,0.4,1.4,0.6
		c0.7-1.4,1.2-2.6,1.2-3.6c0-2.5-1.4-3.7-1.6-3.9c-0.1,0-0.1-0.1-0.2-0.1C93,4.5,92.9,4.8,92.9,4.9"/>
	<path class="st0" d="M87.3,4.8c0.2,0.1,0.9,0.5,1.2,1.4c0.3,0.7,0.4,3.1,0.1,4.9c0.2,0,0.3,0,0.5,0c0.5,0,1,0,1.5,0.1
		c0.2-1.5,0.2-2.9-0.1-3.8c-0.9-2.3-2.6-3-2.8-3.1c-0.1,0-0.1,0-0.2,0C87.3,4.4,87.2,4.7,87.3,4.8"/>
	<path class="st0" d="M87.3,4.8c0.2,0.1,0.9,0.5,1.2,1.4c0.3,0.7,0.4,3.1,0.1,4.9c0.2,0,0.3,0,0.5,0c0.5,0,1,0,1.5,0.1
		c0.2-1.5,0.2-2.9-0.1-3.8c-0.9-2.3-2.6-3-2.8-3.1c-0.1,0-0.1,0-0.2,0C87.3,4.4,87.2,4.7,87.3,4.8"/>
	<path class="st0" d="M82,6.6c0.2,0,1,0.1,1.6,0.9c0.5,0.6,1.4,2.8,1.7,4.6c0.2-0.1,0.3-0.1,0.5-0.2c0.5-0.2,1-0.3,1.4-0.4
		C87,10,86.5,8.7,85.9,8c-1.6-1.9-3.5-1.9-3.7-1.9c-0.1,0-0.1,0-0.2,0.1C81.9,6.2,81.9,6.5,82,6.6"/>
	<path class="st0" d="M87.3,4.8c0.2,0.1,0.9,0.5,1.2,1.4c0.3,0.7,0.4,3.1,0.1,4.9c0.2,0,0.3,0,0.5,0c0.5,0,1,0,1.5,0.1
		c0.2-1.5,0.2-2.9-0.1-3.8c-0.9-2.3-2.6-3-2.8-3.1c-0.1,0-0.1,0-0.2,0C87.3,4.4,87.2,4.7,87.3,4.8"/>
	<path class="st0" d="M82,6.6c0.2,0,1,0.1,1.6,0.9c0.5,0.6,1.4,2.8,1.7,4.6c0.2-0.1,0.3-0.1,0.5-0.2c0.5-0.2,1-0.3,1.4-0.4
		C87,10,86.5,8.7,85.9,8c-1.6-1.9-3.5-1.9-3.7-1.9c-0.1,0-0.1,0-0.2,0.1C81.9,6.2,81.9,6.5,82,6.6"/>
	<path class="st0" d="M82,6.6c0.2,0,1,0.1,1.6,0.9c0.5,0.6,1.4,2.8,1.7,4.6c0.2-0.1,0.3-0.1,0.5-0.2c0.5-0.2,1-0.3,1.4-0.4
		C87,10,86.5,8.7,85.9,8c-1.6-1.9-3.5-1.9-3.7-1.9c-0.1,0-0.1,0-0.2,0.1C81.9,6.2,81.9,6.5,82,6.6"/>
	<path class="st0" d="M77.7,10.2c0.2-0.1,1-0.2,1.8,0.3c0.7,0.4,2.3,2.2,3.2,3.7c0.1-0.1,0.2-0.2,0.4-0.4c0.4-0.3,0.8-0.6,1.2-0.9
		c-0.8-1.3-1.7-2.4-2.5-2.8c-2.1-1.2-4-0.6-4.2-0.5c-0.1,0-0.1,0.1-0.1,0.1C77.4,9.8,77.6,10.1,77.7,10.2"/>
	<path class="st0" d="M77.7,10.2c0.2-0.1,1-0.2,1.8,0.3c0.7,0.4,2.3,2.2,3.2,3.7c0.1-0.1,0.2-0.2,0.4-0.4c0.4-0.3,0.8-0.6,1.2-0.9
		c-0.8-1.3-1.7-2.4-2.5-2.8c-2.1-1.2-4-0.6-4.2-0.5c-0.1,0-0.1,0.1-0.1,0.1C77.4,9.8,77.6,10.1,77.7,10.2"/>
	<path class="st0" d="M74.8,15c0.2-0.1,0.9-0.6,1.8-0.4c0.7,0.1,2.9,1.2,4.3,2.4c0.1-0.2,0.1-0.3,0.2-0.5c0.3-0.4,0.5-0.9,0.9-1.2
		c-1.2-0.9-2.4-1.6-3.3-1.8c-2.4-0.4-3.9,0.8-4.1,0.9c-0.1,0.1-0.1,0.1-0.1,0.2C74.5,14.8,74.7,15,74.8,15"/>
	<path class="st0" d="M114.3,42.2c0,0.8-0.6,1.4-1.4,1.4c-0.8,0-1.5-0.6-1.5-1.4c0-0.8,0.6-1.4,1.5-1.4
		C113.7,40.8,114.3,41.4,114.3,42.2 M111.7,42.2c0,0.7,0.5,1.2,1.1,1.2c0.6,0,1.1-0.5,1.1-1.2c0-0.7-0.5-1.2-1.1-1.2
		C112.2,41,111.7,41.6,111.7,42.2 M112.6,43h-0.3v-1.5c0.2,0,0.3,0,0.5,0c0.2,0,0.4,0,0.5,0.1c0.1,0.1,0.2,0.2,0.2,0.3
		c0,0.2-0.1,0.3-0.3,0.3v0c0.1,0.1,0.2,0.2,0.2,0.4c0,0.2,0.1,0.3,0.1,0.4h-0.3c0-0.1-0.1-0.2-0.1-0.4c0-0.2-0.1-0.2-0.3-0.2h-0.2
		V43z M112.6,42.2h0.2c0.2,0,0.4-0.1,0.4-0.2c0-0.1-0.1-0.2-0.4-0.2c-0.1,0-0.2,0-0.2,0V42.2z"/>
</g>
</svg>
