<?xml version="1.0" encoding="utf-8"?>
<!-- Generator: Adobe Illustrator 21.1.0, SVG Export Plug-In . SVG Version: 6.00 Build 0)  -->
<svg version="1.1" id="Isolation_Mode" xmlns="http://www.w3.org/2000/svg" xmlns:xlink="http://www.w3.org/1999/xlink" x="0px"
	 y="0px" viewBox="0 0 124.2 51.5" style="enable-background:new 0 0 124.2 51.5;" xml:space="preserve">
<style type="text/css">
	.st0{fill:#FFFFFF;}
	.st1{fill:#F16B21;}
	.st2{fill:#EE3D23;}
	.st3{fill:#FAAE16;}
	.st4{fill:#EF4E23;}
	.st5{fill:#F05E22;}
	.st6{fill:#F37821;}
	.st7{fill:#F58320;}
	.st8{fill:#F68E1F;}
	.st9{fill:#F7991C;}
	.st10{fill:#FAA61A;}
	.st11{fill:#FCB117;}
	.st12{fill:#FDBE10;}
	.st13{fill:#FFCA03;}
</style>
<g>
	<path class="st0" d="M96.9,31.5c-0.3-0.3-0.8,0.3-1.9,1.2c-10.9,10.7-7.3,2.7-5.2-0.8c1.1-1.7,3.1-5,1.8-7.2
		c-2.1-3.5-3.8-2.5-11.4,4.8c-1.6,1.5-1.9,1.4-0.7,0c3.4-4.2,4.1-6.9,2.5-8.2c-0.3-0.2-1-0.6-1.7-0.8c-0.3-0.1-0.5,0-0.7,0.6
		c-0.1,0.4-0.3,0.8-1.2,2.2c-1.6,2.4-4.3,6-6,9.2c0,0-0.1,0.1-0.1,0.1c-2.5,2.5-7.6,7.9-6.3,4.4c1.7-4.3,8-11.7,2.3-13.7
		c-0.8-0.2-0.9,0.1-1.1,0.8c-0.1,0.3-0.9,2.3-2.4,3.9c-3.1,3.2-3.5,3.4-6.7,6.1c-2,1.7-3,1.8-2-0.4c1.1-2.4,6.6-9.3,4.8-12.1
		c-0.4-0.7-0.9-0.9-2.1-1.3c-0.7-0.2-0.8,0.5-1,0.9c-0.2,0.4-0.4,0.9-1.6,2.8c-0.7,1.1-1.5,2.4-2.3,3.8c-1-0.8-2.4-1.5-4.1-2.2
		c-0.1-2.5-0.5-3.9-1.7-5.3c-1.5-1.7-3.9-2.9-12.2-3.8c-3.8-0.4-7.4-0.3-8.5-0.8c-0.5-0.3-1-1.8-1-2.3c0-0.9,1.3-1.9,4.4-3.2
		c5.8-2.6,16.3-5.1,22.4-5.8c2.9-0.2,0.3,2,2.9,0.9c1.8-0.7,1.9-1.1,1.9-2.8C58.1,0.8,57.2,0,55,0c-6.2,0-17.8,2.5-25.4,5.6
		c-6.4,2.7-8.9,4.8-8.9,7.1c0,1.8,1,4.8,2.1,6c0.9,1,2.5,1.6,4.6,1.5l8.4-0.1c3.8,0,7.4,0.5,9.3,1.3c1.1,0.5,1.7,1.3,1.7,2.3
		c0,0.3-0.1,0.5-0.2,1c-2.5-0.6-4.2-0.8-7.3-0.8c-10.8,0-25.4,2.8-34.6,6.6c-3.4,1.4-4.6,3-4.6,6.2c0,5.9,3.4,9.9,8.3,9.9
		c5.7,0,12.7-1.3,20.2-3.6c8.9-2.8,15-6.4,18.8-10.9c1-1.3,2-3,2.4-4.6c1,0.2,2.4,0.7,3.7,1.4c-2.4,4.3-4.2,9.1-0.6,10.6
		c3.1,1.3,7.6-5.3,11.2-8.5c0.3-0.2,0.9-0.8,0.5-0.2c-2.7,4.5-2,7.1-0.3,8.4c2.1,1.7,4.9-1.3,7.1-3.8c-0.4,1.9-0.1,3.4,1.6,4.3
		c0.5,0.2,0.9-0.1,1-0.5c1.8-4.1,19.9-22.4,11.7-8.7c-2.9,4.8-2,7.8,0.6,9.1c2.6,1.3,5.8-1.9,9.6-6.3C96.8,32.3,97.2,31.7,96.9,31.5
		 M32.1,36c-7.6,3.3-17.8,5.6-24.7,5.6c-3.3,0-5.2-0.8-5.2-2.1c0-1.7,2-3.5,5.9-5.6c7.4-4,23.1-7.9,31.9-7.9c2,0,3.3,0.1,5.6,0.5
		C42.7,30.3,38.7,33.1,32.1,36"/>
	<path class="st1" d="M51.4,44.9c0-0.1,0.1-0.2,0.2-0.2H54c1.2,0,2.1,0.9,2.1,2c0,0.9-0.6,1.6-1.4,2l1.3,2.4c0.1,0.1,0,0.3-0.2,0.3
		h-0.5c-0.1,0-0.1,0-0.2-0.1L54,48.8h-1.8v2.4c0,0.1-0.1,0.2-0.2,0.2h-0.4c-0.1,0-0.2-0.1-0.2-0.2V44.9z M54,48.1
		c0.7,0,1.4-0.6,1.4-1.4c0-0.7-0.6-1.3-1.4-1.3h-1.9v2.7H54z"/>
	<path class="st1" d="M58.4,44.9c-0.1-0.1,0-0.2,0.2-0.2h0.4c0.1,0,0.1,0.1,0.2,0.1l2.4,5.4h0l2.4-5.4c0,0,0.1-0.1,0.2-0.1h0.4
		c0.1,0,0.2,0.1,0.2,0.2l-2.9,6.4c0,0.1-0.1,0.1-0.2,0.1h-0.1c-0.1,0-0.1-0.1-0.2-0.1L58.4,44.9z"/>
	<path class="st1" d="M70.9,44.9c0-0.1,0.1-0.2,0.2-0.2h2.5c1.2,0,2.1,0.9,2.1,2c0,0.9-0.6,1.6-1.4,2l1.3,2.4c0.1,0.1,0,0.3-0.2,0.3
		H75c-0.1,0-0.1,0-0.2-0.1l-1.3-2.5h-1.8v2.4c0,0.1-0.1,0.2-0.2,0.2h-0.4c-0.1,0-0.2-0.1-0.2-0.2V44.9z M73.6,48.1
		c0.7,0,1.4-0.6,1.4-1.4c0-0.7-0.6-1.3-1.4-1.3h-1.9v2.7H73.6z"/>
	<path class="st1" d="M78.9,44.9c0-0.1,0.1-0.2,0.2-0.2h3.8c0.1,0,0.2,0.1,0.2,0.2v0.3c0,0.1-0.1,0.2-0.2,0.2h-3.2v2.3h2.8
		c0.1,0,0.2,0.1,0.2,0.2v0.3c0,0.1-0.1,0.2-0.2,0.2h-2.8v2.4h3.2c0.1,0,0.2,0.1,0.2,0.2v0.3c0,0.1-0.1,0.2-0.2,0.2h-3.8
		c-0.1,0-0.2-0.1-0.2-0.2V44.9z"/>
	<path class="st1" d="M85.7,50.4c0-0.1,0.1-0.1,0.1-0.2c0.1-0.1,0.2-0.2,0.3-0.1c0.1,0.1,0.8,0.7,1.6,0.7c0.8,0,1.3-0.5,1.3-1.1
		c0-0.7-0.6-1.1-1.7-1.5c-1.1-0.5-1.7-0.9-1.7-2c0-0.6,0.5-1.7,2.1-1.7c0.9,0,1.7,0.5,1.7,0.5c0.1,0,0.2,0.1,0.1,0.3
		c0,0.1-0.1,0.1-0.1,0.2c-0.1,0.1-0.2,0.2-0.3,0.1c-0.1,0-0.7-0.4-1.3-0.4c-1,0-1.3,0.7-1.3,1.1c0,0.6,0.5,1,1.3,1.3
		c1.3,0.5,2.1,1,2.1,2.1c0,1-1,1.7-2.1,1.7c-1.1,0-1.9-0.7-2-0.8C85.7,50.6,85.6,50.6,85.7,50.4"/>
	<path class="st1" d="M95.7,44.6c1.9,0,3.5,1.5,3.5,3.5c0,1.9-1.5,3.4-3.5,3.4c-1.9,0-3.5-1.5-3.5-3.4
		C92.3,46.1,93.8,44.6,95.7,44.6 M95.7,50.8c1.5,0,2.8-1.2,2.8-2.8c0-1.5-1.3-2.8-2.8-2.8c-1.5,0-2.8,1.3-2.8,2.8
		C92.9,49.6,94.2,50.8,95.7,50.8"/>
	<path class="st1" d="M102.2,44.9c0-0.1,0.1-0.2,0.2-0.2h2.5c1.2,0,2.1,0.9,2.1,2c0,0.9-0.6,1.6-1.4,2l1.3,2.4
		c0.1,0.1,0,0.3-0.2,0.3h-0.5c-0.1,0-0.1,0-0.2-0.1l-1.3-2.5h-1.8v2.4c0,0.1-0.1,0.2-0.2,0.2h-0.4c-0.1,0-0.2-0.1-0.2-0.2V44.9z
		 M104.8,48.1c0.7,0,1.4-0.6,1.4-1.4c0-0.7-0.6-1.3-1.4-1.3h-1.9v2.7H104.8z"/>
	<path class="st1" d="M111,45.3h-1.7c-0.1,0-0.2-0.1-0.2-0.2v-0.3c0-0.1,0.1-0.2,0.2-0.2h4.1c0.1,0,0.2,0.1,0.2,0.2v0.3
		c0,0.1-0.1,0.2-0.2,0.2h-1.7v5.9c0,0.1-0.1,0.2-0.2,0.2h-0.4c-0.1,0-0.2-0.1-0.2-0.2V45.3z"/>
	<path class="st1" d="M115.8,50.4c0-0.1,0.1-0.1,0.1-0.2c0.1-0.1,0.2-0.2,0.3-0.1c0.1,0.1,0.8,0.7,1.6,0.7c0.8,0,1.3-0.5,1.3-1.1
		c0-0.7-0.6-1.1-1.7-1.5c-1.1-0.5-1.7-0.9-1.7-2c0-0.6,0.5-1.7,2.1-1.7c0.9,0,1.7,0.5,1.7,0.5c0.1,0,0.2,0.1,0.1,0.3
		c0,0.1-0.1,0.1-0.1,0.2c-0.1,0.1-0.2,0.2-0.3,0.1c-0.1,0-0.7-0.4-1.3-0.4c-1,0-1.3,0.7-1.3,1.1c0,0.6,0.5,1,1.3,1.3
		c1.3,0.5,2.1,1,2.1,2.1c0,1-1,1.7-2.1,1.7c-1.1,0-1.9-0.7-2-0.8C115.8,50.6,115.7,50.6,115.8,50.4"/>
	<path class="st2" d="M106.2,37.8c-0.3,0-1.1-0.1-1.8-0.9c-0.5-0.6-1.5-3-1.9-5c-0.2,0.1-0.3,0.2-0.5,0.2c-0.5,0.2-1,0.3-1.6,0.4
		c0.4,1.6,0.8,3,1.5,3.8c1.7,2,3.8,2.1,4,2.1c0.1,0,0.1,0,0.2-0.1C106.4,38.2,106.3,37.8,106.2,37.8"/>
	<path class="st3" d="M110.9,33.9c-0.3,0.1-1.1,0.2-2-0.3c-0.7-0.4-2.5-2.3-3.5-4.1c-0.1,0.1-0.3,0.3-0.4,0.4
		c-0.4,0.4-0.9,0.7-1.3,0.9c0.9,1.4,1.8,2.6,2.7,3.1c2.3,1.3,4.3,0.7,4.5,0.6c0.1,0,0.1-0.1,0.1-0.1C111.2,34.3,111,34,110.9,33.9"
		/>
	<path class="st4" d="M110.9,33.9c-0.3,0.1-1.1,0.2-2-0.3c-0.7-0.4-2.5-2.3-3.5-4.1c-0.1,0.1-0.3,0.3-0.4,0.4
		c-0.4,0.4-0.9,0.7-1.3,0.9c0.9,1.4,1.8,2.6,2.7,3.1c2.3,1.3,4.3,0.7,4.5,0.6c0.1,0,0.1-0.1,0.1-0.1C111.2,34.3,111,34,110.9,33.9"
		/>
	<path class="st3" d="M114,28.7c-0.2,0.2-0.9,0.6-2,0.4c-0.8-0.1-3.1-1.4-4.7-2.6c-0.1,0.2-0.2,0.3-0.3,0.5
		c-0.3,0.5-0.6,0.9-0.9,1.3c1.3,1,2.6,1.8,3.6,2c2.6,0.4,4.3-0.8,4.4-1c0.1-0.1,0.1-0.1,0.1-0.2C114.4,28.9,114.1,28.7,114,28.7"/>
	<path class="st5" d="M114,28.7c-0.2,0.2-0.9,0.6-2,0.4c-0.8-0.1-3.1-1.4-4.7-2.6c-0.1,0.2-0.2,0.3-0.3,0.5
		c-0.3,0.5-0.6,0.9-0.9,1.3c1.3,1,2.6,1.8,3.6,2c2.6,0.4,4.3-0.8,4.4-1c0.1-0.1,0.1-0.1,0.1-0.2C114.4,28.9,114.1,28.7,114,28.7"/>
	<path class="st3" d="M115.2,22.7c-0.1,0.2-0.7,0.9-1.7,1.1c-0.8,0.1-3.4-0.2-5.3-0.9c0,0.2,0,0.4-0.1,0.6c-0.1,0.5-0.2,1.1-0.4,1.6
		c1.6,0.5,3,0.8,4.1,0.6c2.6-0.5,3.7-2.3,3.8-2.5c0-0.1,0-0.1,0-0.2C115.6,22.8,115.3,22.7,115.2,22.7"/>
	<path class="st1" d="M115.2,22.7c-0.1,0.2-0.7,0.9-1.7,1.1c-0.8,0.1-3.4-0.2-5.3-0.9c0,0.2,0,0.4-0.1,0.6c-0.1,0.5-0.2,1.1-0.4,1.6
		c1.6,0.5,3,0.8,4.1,0.6c2.6-0.5,3.7-2.3,3.8-2.5c0-0.1,0-0.1,0-0.2C115.6,22.8,115.3,22.7,115.2,22.7"/>
	<path class="st3" d="M114.2,16.7c-0.1,0.3-0.3,1.1-1.2,1.6c-0.7,0.4-3.3,1-5.3,1c0,0.2,0.1,0.4,0.1,0.5c0.1,0.5,0.1,1.1,0.2,1.6
		c1.7-0.1,3.1-0.3,4-0.8c2.3-1.4,2.7-3.4,2.8-3.6c0-0.1,0-0.1,0-0.2C114.6,16.6,114.3,16.7,114.2,16.7"/>
	<path class="st6" d="M114.2,16.7c-0.1,0.3-0.3,1.1-1.2,1.6c-0.7,0.4-3.3,1-5.3,1c0,0.2,0.1,0.4,0.1,0.5c0.1,0.5,0.1,1.1,0.2,1.6
		c1.7-0.1,3.1-0.3,4-0.8c2.3-1.4,2.7-3.4,2.8-3.6c0-0.1,0-0.1,0-0.2C114.6,16.6,114.3,16.7,114.2,16.7"/>
	<path class="st3" d="M111.2,11.4c0,0.3,0.1,1.1-0.6,1.9c-0.5,0.6-2.7,2-4.6,2.7c0.1,0.2,0.2,0.3,0.3,0.5c0.3,0.5,0.5,1,0.7,1.5
		c1.5-0.6,2.8-1.4,3.5-2.2c1.7-2.1,1.4-4.1,1.4-4.4c0-0.1,0-0.1-0.1-0.2C111.6,11.2,111.3,11.3,111.2,11.4"/>
	<path class="st7" d="M111.2,11.4c0,0.3,0.1,1.1-0.6,1.9c-0.5,0.6-2.7,2-4.6,2.7c0.1,0.2,0.2,0.3,0.3,0.5c0.3,0.5,0.5,1,0.7,1.5
		c1.5-0.6,2.8-1.4,3.5-2.2c1.7-2.1,1.4-4.1,1.4-4.4c0-0.1,0-0.1-0.1-0.2C111.6,11.2,111.3,11.3,111.2,11.4"/>
	<path class="st3" d="M106.6,7.4c0.1,0.2,0.4,1,0.1,2c-0.3,0.8-1.9,2.8-3.4,4.1c0.2,0.1,0.3,0.2,0.4,0.3c0.4,0.4,0.8,0.7,1.2,1.1
		c1.2-1.1,2.2-2.2,2.6-3.2c0.9-2.5-0.1-4.4-0.2-4.6c-0.1-0.1-0.1-0.1-0.2-0.1C106.9,7.1,106.7,7.3,106.6,7.4"/>
	<path class="st8" d="M106.6,7.4c0.1,0.2,0.4,1,0.1,2c-0.3,0.8-1.9,2.8-3.4,4.1c0.2,0.1,0.3,0.2,0.4,0.3c0.4,0.4,0.8,0.7,1.2,1.1
		c1.2-1.1,2.2-2.2,2.6-3.2c0.9-2.5-0.1-4.4-0.2-4.6c-0.1-0.1-0.1-0.1-0.2-0.1C106.9,7.1,106.7,7.3,106.6,7.4"/>
	<path class="st3" d="M100.9,5.3c0.2,0.2,0.8,0.8,0.8,1.9c0,0.8-0.8,3.3-1.8,5.1c0.2,0.1,0.4,0.1,0.5,0.2c0.5,0.2,1,0.4,1.5,0.7
		c0.8-1.5,1.3-2.9,1.3-3.9c0-2.7-1.6-4.1-1.8-4.2c-0.1,0-0.1-0.1-0.2-0.1C101.1,4.9,100.9,5.2,100.9,5.3"/>
	<path class="st9" d="M100.9,5.3c0.2,0.2,0.8,0.8,0.8,1.9c0,0.8-0.8,3.3-1.8,5.1c0.2,0.1,0.4,0.1,0.5,0.2c0.5,0.2,1,0.4,1.5,0.7
		c0.8-1.5,1.3-2.9,1.3-3.9c0-2.7-1.6-4.1-1.8-4.2c-0.1,0-0.1-0.1-0.2-0.1C101.1,4.9,100.9,5.2,100.9,5.3"/>
	<path class="st3" d="M94.9,5.2c0.2,0.1,1,0.5,1.4,1.5c0.3,0.8,0.4,3.4,0.1,5.4c0.2,0,0.4,0,0.6,0c0.6,0,1.1,0,1.6,0.1
		c0.2-1.6,0.2-3.1-0.1-4.1c-0.9-2.5-2.9-3.3-3.1-3.4c-0.1,0-0.1,0-0.2,0C94.9,4.8,94.8,5.1,94.9,5.2"/>
	<path class="st3" d="M94.9,5.2c0.2,0.1,1,0.5,1.4,1.5c0.3,0.8,0.4,3.4,0.1,5.4c0.2,0,0.4,0,0.6,0c0.6,0,1.1,0,1.6,0.1
		c0.2-1.6,0.2-3.1-0.1-4.1c-0.9-2.5-2.9-3.3-3.1-3.4c-0.1,0-0.1,0-0.2,0C94.9,4.8,94.8,5.1,94.9,5.2"/>
	<path class="st3" d="M89.1,7.2c0.3,0,1.1,0.1,1.8,1c0.5,0.6,1.5,3,1.9,5c0.2-0.1,0.3-0.2,0.5-0.2c0.5-0.2,1-0.3,1.6-0.4
		c-0.4-1.6-0.8-3-1.5-3.8c-1.7-2-3.8-2.1-4-2.1c-0.1,0-0.1,0-0.2,0.1C89,6.8,89,7.1,89.1,7.2"/>
	<path class="st10" d="M94.9,5.2c0.2,0.1,1,0.5,1.4,1.5c0.3,0.8,0.4,3.4,0.1,5.4c0.2,0,0.4,0,0.6,0c0.6,0,1.1,0,1.6,0.1
		c0.2-1.6,0.2-3.1-0.1-4.1c-0.9-2.5-2.9-3.3-3.1-3.4c-0.1,0-0.1,0-0.2,0C94.9,4.8,94.8,5.1,94.9,5.2"/>
	<path class="st3" d="M89.1,7.2c0.3,0,1.1,0.1,1.8,1c0.5,0.6,1.5,3,1.9,5c0.2-0.1,0.3-0.2,0.5-0.2c0.5-0.2,1-0.3,1.6-0.4
		c-0.4-1.6-0.8-3-1.5-3.8c-1.7-2-3.8-2.1-4-2.1c-0.1,0-0.1,0-0.2,0.1C89,6.8,89,7.1,89.1,7.2"/>
	<path class="st11" d="M89.1,7.2c0.3,0,1.1,0.1,1.8,1c0.5,0.6,1.5,3,1.9,5c0.2-0.1,0.3-0.2,0.5-0.2c0.5-0.2,1-0.3,1.6-0.4
		c-0.4-1.6-0.8-3-1.5-3.8c-1.7-2-3.8-2.1-4-2.1c-0.1,0-0.1,0-0.2,0.1C89,6.8,89,7.1,89.1,7.2"/>
	<path class="st3" d="M84.4,11c0.3-0.1,1.1-0.2,2,0.3c0.7,0.4,2.5,2.3,3.5,4.1c0.1-0.1,0.3-0.3,0.4-0.4c0.4-0.4,0.9-0.7,1.3-0.9
		c-0.9-1.4-1.8-2.6-2.7-3.1c-2.3-1.3-4.3-0.7-4.5-0.6c-0.1,0-0.1,0.1-0.1,0.1C84.1,10.7,84.3,11,84.4,11"/>
	<path class="st12" d="M84.4,11c0.3-0.1,1.1-0.2,2,0.3c0.7,0.4,2.5,2.3,3.5,4.1c0.1-0.1,0.3-0.3,0.4-0.4c0.4-0.4,0.9-0.7,1.3-0.9
		c-0.9-1.4-1.8-2.6-2.7-3.1c-2.3-1.3-4.3-0.7-4.5-0.6c-0.1,0-0.1,0.1-0.1,0.1C84.1,10.7,84.3,11,84.4,11"/>
	<path class="st13" d="M81.3,16.3c0.2-0.1,0.9-0.6,2-0.4c0.8,0.1,3.1,1.4,4.7,2.6c0.1-0.2,0.2-0.3,0.3-0.5c0.3-0.5,0.6-0.9,0.9-1.3
		c-1.3-1-2.6-1.8-3.6-2c-2.6-0.4-4.3,0.8-4.4,1C81,15.7,81,15.8,81,15.8C80.9,16,81.2,16.3,81.3,16.3"/>
	<path class="st1" d="M124.2,45.9c0,0.9-0.7,1.6-1.6,1.6c-0.9,0-1.6-0.7-1.6-1.6c0-0.9,0.7-1.5,1.6-1.5
		C123.6,44.3,124.2,45,124.2,45.9 M121.4,45.9c0,0.7,0.5,1.3,1.2,1.3c0.7,0,1.2-0.6,1.2-1.3c0-0.7-0.5-1.3-1.2-1.3
		C122,44.6,121.4,45.2,121.4,45.9 M122.4,46.7h-0.3v-1.6c0.2,0,0.3,0,0.6,0c0.3,0,0.4,0,0.5,0.1c0.1,0.1,0.2,0.2,0.2,0.3
		c0,0.2-0.1,0.3-0.3,0.4v0c0.1,0.1,0.2,0.2,0.3,0.4c0,0.2,0.1,0.3,0.1,0.4h-0.3c0-0.1-0.1-0.2-0.1-0.4c0-0.2-0.1-0.3-0.4-0.3h-0.2
		V46.7z M122.4,45.8h0.2c0.2,0,0.4-0.1,0.4-0.3c0-0.2-0.1-0.3-0.4-0.3c-0.1,0-0.2,0-0.2,0V45.8z"/>
</g>
</svg>
