<?xml version="1.0" encoding="utf-8"?>
<!-- Generator: Adobe Illustrator 21.1.0, SVG Export Plug-In . SVG Version: 6.00 Build 0)  -->
<svg version="1.1" id="Слой_1" xmlns="http://www.w3.org/2000/svg" xmlns:xlink="http://www.w3.org/1999/xlink" x="0px" y="0px"
	 viewBox="0 0 119.3 9.8" style="enable-background:new 0 0 119.3 9.8;" xml:space="preserve">
<style type="text/css">
	.st0{opacity:0.7;}
	.st1{fill:#FFFFFF;}
</style>
<g class="st0">
	<g>
		<g>
			<g>
				<g>
					<path class="st1" d="M119.2,6.7c0.1-0.1,0.1-0.3-0.1-0.3l-0.2,0.3L119.2,6.7z"/>
					<path class="st1" d="M118.2,5.9c-0.2,0.1-0.5,0.4-0.4,0.7c0.3-0.3,0.3-0.1,0.6-0.5c0.2,0,0.3,0.2,0.2,0.3
						c0.1-0.1,0.3,0.1,0.4-0.1c-0.2-0.3-0.5-0.3-0.8-0.2C118.1,6,118.1,6,118.2,5.9z"/>
					<path class="st1" d="M101.4,3l0.1,0.1C101.5,3,101.4,3,101.4,3z"/>
					<path class="st1" d="M90.9,1.7c0.1,0,0.1,0,0.1-0.1C90.9,1.7,90.9,1.7,90.9,1.7z"/>
					<path class="st1" d="M89.1,1.2c0,0,0.1,0,0.1,0C89.2,1.2,89.1,1.2,89.1,1.2z"/>
					<path class="st1" d="M101.4,3l-0.3-0.1C101.1,2.9,101.3,2.9,101.4,3z"/>
					<path class="st1" d="M115.7,6.3c0.1,0,0.1,0,0.2-0.1C115.8,6.3,115.8,6.3,115.7,6.3L115.7,6.3z"/>
					<path class="st1" d="M106,3.3L106,3.3c0.1,0,0.1-0.1,0.2-0.1L106,3.3z"/>
					<path class="st1" d="M109.6,3.7c-0.1,0-0.1,0.3-0.2,0.4c0.1-0.1,0.1-0.2,0.2-0.2C109.6,3.9,109.6,3.8,109.6,3.7z"/>
					<path class="st1" d="M115.1,5.1l0.1,0C115.2,5,115.2,5.1,115.1,5.1z"/>
					<path class="st1" d="M103.5,2.9c0,0,0-0.1,0-0.1C103.5,2.8,103.5,2.8,103.5,2.9z"/>
					<path class="st1" d="M4.4,9.1C4.4,9.1,4.4,9.1,4.4,9.1C4.4,9.1,4.4,9.1,4.4,9.1z"/>
					<path class="st1" d="M0.1,8.6L0.1,8.6c0-0.1,0-0.1,0-0.2L0.1,8.6z"/>
					<path class="st1" d="M85.8,0.6C85.9,0.6,85.9,0.6,85.8,0.6C85.9,0.6,85.9,0.6,85.8,0.6z"/>
					<path class="st1" d="M55.5,0.4c0.4,0.2-0.5,0.3,0,0.6C55.4,0.9,55.9,0.6,55.5,0.4z"/>
					<path class="st1" d="M115.6,6.3c0,0-0.1,0-0.1,0C115.6,6.3,115.6,6.3,115.6,6.3z"/>
					<path class="st1" d="M55.5,1L55.5,1L55.5,1C55.5,1,55.5,1,55.5,1z"/>
					<path class="st1" d="M78.2,0.4c0,0.1,0,0.1,0.1,0.1C78.3,0.5,78.3,0.5,78.2,0.4z"/>
					<path class="st1" d="M83.9,1.1l-0.1,0C83.8,1.1,83.8,1.1,83.9,1.1z"/>
					<path class="st1" d="M75.3,0.7c-0.1,0-0.1-0.1-0.2,0c0,0,0,0,0,0C75.1,0.7,75.2,0.6,75.3,0.7z"/>
					<path class="st1" d="M72.2,0.6C72.2,0.7,72.2,0.7,72.2,0.6c0.1,0.1,0.1,0,0.2,0L72.2,0.6z"/>
					<path class="st1" d="M13.5,7.2c-0.1-0.1-0.1-0.1-0.2-0.2C13.4,7.2,13,7.4,13.5,7.2z"/>
					<path class="st1" d="M115.7,6.2c0,0.1-0.1,0.1-0.1,0.1l0.1,0C115.8,6.2,115.8,6.2,115.7,6.2z"/>
					<path class="st1" d="M75.1,2.9l-0.5-0.1C74.7,2.9,74.9,2.9,75.1,2.9z"/>
					<path class="st1" d="M35.1,4.1l-0.1,0C35,4.2,35.1,4.2,35.1,4.1z"/>
					<path class="st1" d="M73.2,2.9c-0.1-0.1-0.2-0.2-0.3-0.2c0,0,0,0-0.1,0.1L73.2,2.9z"/>
					<path class="st1" d="M13.3,7L13.3,7L13.3,7z"/>
					<path class="st1" d="M10.3,8.2c0.5-0.1,0.1-0.4,0.2-0.6C11,7.4,10.8,7.8,11,8c0.3-0.2,0.5-0.5,0.8-0.6c0,0.1,0.1,0.1,0,0.2
						c0.3-0.4,1.1-0.2,1.4-0.7c0,0,0.1,0.1,0.1,0.1c-0.1-0.2-0.1-0.4-0.2-0.5c0.2,0,0.3-0.3,0.5-0.1c-0.1,0-0.1,0.1-0.2,0.2l0.2-0.1
						c0.3,0.3-0.3,0.2-0.2,0.4c0.4-0.2,0.8-0.6,1.2-0.5c0.1,0.3-0.7,0.3-0.2,0.5l-0.5,0c0.5,0.5-0.3,0,0.1,0.5
						c0.7,0,0.7-0.3,1.4-0.3c0.1-0.2-0.1-0.3,0-0.5c0.9-0.5,0.9,0.7,1.5,0.2c0.1-0.3,0.1-0.7,0.7-0.5l-0.1,0.4
						c0.6-0.1,0.3-0.6,1-0.5c-0.1,0.2-0.5,0.2-0.4,0.2c0.5,0.2,0.3-0.3,0.6-0.3l0.1,0.3c0.7-0.2,1.4-0.5,2.1-0.7
						c0,0.1-0.1,0.2,0.1,0.3c0.9-0.3,2-0.3,2.9-0.2l0.3-0.3c0.1,0,0.2,0.1,0.1,0.2c0.4,0.1,0-0.2,0.1-0.3c0.2,0,0.3,0.1,0.2,0.2
						c0.6-0.3,1.7-0.8,2.4-0.5l-0.1,0.1c0.5,0,0.5-0.7,1-0.5l-0.1,0.1c1.1,0,2.3-0.5,3.2-0.1C31,4.2,32,4.7,32,4.1
						c0.7,0.2,0.5,0.3,1.4,0.4c0.2,0,0.3-0.4,0.6-0.5l0,0.3L34.5,4l0.3,0.3L35,4.2c-0.1,0-0.2-0.1-0.2-0.2c0.4-0.2,1.1,0.1,1.1,0.3
						l1-0.4c0,0.1-0.2,0.2-0.3,0.3c0.5-0.4,0.1,0.3,0.6,0c-0.1-0.1,0-0.2,0-0.3C37.5,4,38,4,38.4,3.9l-0.1,0.2
						c0.8,0,1.6-0.2,2.5-0.3c-0.3-0.1-0.3-0.4,0-0.5l0.1,0.3c0.1-0.2-0.3-0.1,0-0.4c0.3,0,0.2,0.4,0.1,0.5l0.4-0.1
						c0,0.1-0.1,0.2-0.1,0.3c0.1-0.2,0.7,0.3,0.9-0.1l0,0.1c0.9-0.1,1.2-0.2,1.9-0.3c0-0.3,0.3-0.2,0.5-0.5c0.5,0.1,1.1,0.2,1.7,0.2
						c0.4-0.2,0.1-0.2,0.3-0.4c0,0.3,0.7,0.2,0.4,0.4c0.7-0.1,0.9-0.1,1.9-0.4c-0.1-0.1-0.2-0.1-0.2-0.2c0.2-0.1,0.4,0.1,0.4,0.2
						l0,0c1-0.4,2.5,0.6,3.3,0l0,0l0.9-0.3c0.4,0-0.2,0.2,0.1,0.3c0.9-0.5,1.5,0,2.2-0.3c0.6,0.7,2.1-0.1,2.9,0.3l-0.1-0.2
						c0.2-0.2,0.3,0.1,0.4,0.1c0-0.1-0.2-0.2-0.1-0.3c1.8-0.3,3.7,0.2,5.5,0.3c0.7,0,0.4-0.9,1.2-0.5l-0.2,0.3c1.3-0.4,2.7,0,4-0.3
						c-0.1,0.1-0.1,0.2-0.2,0.2c0.3,0.2,1,0,1-0.2c0.2,0,0,0.2,0.2,0.3c0.3,0.1,0.7-0.3,0.8-0.1c0,0-0.1,0.1-0.1,0.1
						c0.2-0.1,0.8,0,0.7-0.2c0.5,0.1,0.9-0.1,1.3,0.1c0.3-0.3,0.8,0.2,0.9-0.3c0,0.5,0.9,0.4,1.2,0.2c-0.1,0.1,0.3,0.2,0.1,0.3
						c0.4,0,0.7-0.1,0.6-0.3c0.6,0.6,1.3-0.4,1.7,0.3c1.1-0.2,2-0.3,3-0.4c-0.1,0.4-1.1,0-1,0.5c0.9-0.1,1.4-0.5,2.3-0.4
						c0.2,0.1-0.1,0.2-0.2,0.3c0.9-0.2,1.7,0.1,2.5-0.1c0,0-0.1,0.1-0.2,0.1c0.2,0,0.4,0.1,0.4-0.1l-0.2,0c-0.2-0.3,0.7-0.6,0.7-0.7
						c-0.3,0.6,0.8,0.2,0.3,0.9c0.1,0,0.2-0.1,0.2-0.3c0.2,0,0.2,0.1,0,0.3c0.6-0.1,0.4-0.3,0.9-0.3c0,0.1-0.1,0.1-0.2,0.2
						c0.3-0.2,0.5-0.4,1-0.2C87,2.9,87,3,86.9,3c0.7,0,1.3-0.4,2.1-0.2c-0.3,0.4,0.3,0.2,0.3,0.5l0.4-0.1L89.6,3
						c0.4,0,0.7-0.2,1.1,0l-0.3,0.1l0.7,0l-0.4-0.2c0.4-0.2,0-0.5,0.5-0.3c-0.1,0,0.4,0,0.6,0.3l0,0c0.2-0.1,0.4-0.2,0.7-0.1
						c0.1,0.1-0.1,0.4-0.1,0.5c0.2-0.3,0.9,0,1.2-0.3c-0.1,0.1-0.1,0.3-0.1,0.3L93.6,3c0.2,0.1,0.2,0.1,0.1,0.3
						c0.5,0.1-0.1-0.5,0.5-0.2c-0.1,0,0,0.1-0.1,0.1c0.6,0.2,1.2,0,1.8,0.1c0.1,0.4-0.5,0-0.4,0.4c0.8,0,1.8-0.3,2.6-0.1L98,3.5
						c0.2-0.5,0.6,0.3,1,0.1c-0.1,0-0.2,0.3-0.1,0.2c0.5,0.1,1.2,0,2-0.1l-0.1,0.1c0.3,0.2,0.9,0.2,1.2,0.3c0.1-0.1,0.3-0.1,0.2-0.3
						c1,0.9,2.1-0.2,3,0.6c-0.1,0-0.3,0.1-0.2,0.1l0.8,0c0-0.2-0.1-0.2-0.2-0.4c0.1-0.1,0.4-0.2,0.6-0.2c-0.4,0.1,0,0.4,0.1,0.5
						c0-0.1,0-0.1,0-0.2c0.4,0.5,0.1-0.5,0.7-0.1l0,0.1c0.2,0,0.5-0.2,0.7-0.1c0.1,0.3-0.3,0.1-0.3,0.3c0.3,0,0.7-0.4,1-0.1
						c-0.2,0.1-0.4,0-0.5,0.1c0.3,0.4,0.3,0.3,0.6,0.4l0,0l0.5,0.2l-0.1-0.1c0.5-0.6,0.9,0,1.5-0.4c-0.6,0.4-0.1,0.2-0.2,0.5
						c0.1,0.1,0.3,0.2,0.3,0.3c0.3-0.2,0.4,0.3,0.8,0c0,0.1,0.3,0,0.2,0.3c0.4,0-0.1-0.2,0-0.3c0.6-0.3,1.2,0.6,2,0.3
						c0.7-0.1,0.9-0.4,1.5-0.4c0.2,0.2-0.2,0.3-0.2,0.3c0.3,0.2,0.6,0.2,0.9,0.2c-0.1,0.1,0,0.2,0.1,0.3c0.3,0,0.2-0.3,0.5-0.1
						c-0.1,0.1-0.2,0.3-0.3,0.3c0.3,0,0.6-0.2,1-0.2c0.1,0.2-0.2,0.2-0.4,0.3c0.4,0,0.9,0,1.1-0.3L117.4,6c0.1,0,0,0.2-0.1,0.3
						c-0.3,0.2-0.4-0.2-0.4-0.3l0.2,0c-0.1-0.6-0.9-0.1-1.3-0.2l0.3-0.4l-0.5,0.3c-0.1-0.1-0.1-0.4,0.1-0.4
						c-0.3-0.3-0.3,0.1-0.5-0.2c0,0,0-0.1,0-0.1l-0.3,0.1c0.1-0.1,0-0.3,0.2-0.2c-0.5-0.3-0.9,0.2-1.1-0.2l0.1,0
						c-0.8,0-0.1,0.3-0.8,0.5l-0.3-0.8l-0.1,0.3c-0.1,0-0.2-0.1-0.2-0.2c-0.3,0.2,0,0.1-0.2,0.3c-0.3-0.3-1.1,0-1.1-0.5
						c-0.2,0.2,0.3,0.2-0.1,0.3c0-0.5-0.5,0-0.8-0.3c0.1-0.3,0.5-0.1,0.1-0.4c-0.3,0.4-0.7-0.2-1-0.1c-0.1,0.4-0.7,0.1-1.2,0.1
						c0-0.1-0.9-0.3-1.3-0.5l0-0.1c-0.1,0.4-0.6,0.2-1,0.2c0-0.2,0.1-0.3,0.3-0.4l-0.3,0c-0.1,0.1-0.2,0.2-0.4,0.2l0.1-0.3
						c-0.4,0-0.9,0.2-1.4-0.1c-0.1,0.3,0.4,0.8-0.3,0.9c0-0.1,0-0.4,0.2-0.4c-0.1,0-0.2,0.1-0.3,0l0.3-0.2c-0.2-0.1-0.2,0.2-0.4,0.1
						c0-0.2-0.1-0.2-0.1-0.3c0.1,0,0.2,0.1,0.3,0c-0.2-0.1-0.5-0.2-0.6-0.4c0,0.1,0,0.3-0.2,0.3c-0.4,0-0.1-0.3-0.4-0.4
						c-0.1,0.1-0.4,0-0.4,0.2c-0.1,0-0.1-0.2-0.2-0.2c-0.2,0.1-1.1-0.1-0.8,0.3l0.1,0c0,0,0,0,0,0l0,0l0,0c-0.8,0.2-1.5-0.3-2.3-0.3
						l0-0.1c-0.4,0.1-1,0-1.3,0.1c-0.1,0-0.3-0.2-0.2-0.3c-0.3,0-0.4,0.1-0.9-0.1c0.4-0.1-0.1-0.2,0.4-0.1c-0.4-0.1-0.5-0.3-1-0.1
						C96.4,2,96,1.9,95.7,1.9L96,2.1c-0.2,0-0.4,0-0.6-0.1l0.1-0.3c-0.9-0.5-1.7,0.5-2.3-0.2C93,1.8,93.7,1.8,93.5,2
						c-0.4-0.1-0.8-0.6-0.9-0.6C92,1.2,92,1.9,91.4,1.7c0.1,0.1,0.1,0.4-0.3,0.5c-0.4-0.1-0.5-0.5-0.2-0.6c0.1,0,0.1,0,0.1,0.1
						c0.1,0,0.3-0.1,0.2-0.2l-0.1,0.1c-0.2-0.1-0.8-0.2-0.6-0.4c-0.3,0.1-0.1,0.2,0.1,0.3c-0.5-0.2-0.8-0.1-1.4-0.2
						c0.1,0.1,0.2,0.2,0.1,0.2c-0.8-0.2-0.4,0.2-0.9,0.2c-0.3-0.2,0.1-0.4-0.4-0.3c-0.3-0.1,0-0.3,0.1-0.4c-0.5,0.2-0.9-0.2-1.2-0.3
						l0.3-0.1c-0.2,0-0.3,0-0.4,0l0.1,0.2c-0.2-0.1-0.3-0.1-0.3-0.2c-0.2,0.1,0.1,0.4-0.2,0.6c-0.2-0.1-0.6,0.1-0.7-0.2
						c0.6,0.1-0.1-0.3,0.5-0.3c-0.1,0-0.2,0-0.4,0c0,0,0-0.1,0.1-0.1c-0.6-0.3-0.3,0.3-0.9,0.3c0.1-0.2-0.1-0.3-0.2-0.3
						c0.3,0,0.1,0.3-0.1,0.4c-0.4-0.2-0.4,0.1-0.7,0l0.2,0.1c-0.1,0.2-0.3,0.1-0.6,0.2c0-0.1,0.3-0.1,0.2-0.1
						C83.4,1.5,83,0.8,82.5,1c-0.2-0.1,0-0.3-0.2-0.4c-0.5,0.2-0.5-0.3-1.1-0.1c0.1,0.2,0.2,0.2-0.2,0.4L82,0.7l-0.6,0.3
						c0.3,0,0.6-0.1,0.7-0.1c-0.3,0.2-0.2,0.1-0.1,0.3c-0.3-0.4-0.7,0.2-1.1-0.1l0-0.6c-0.6-0.3-1.1,0.3-1.9,0.1l0.3,0.1
						c-0.1,0.2-0.5,0-0.8,0.1c0-0.2-0.1-0.3-0.2-0.4c0,0.1-0.6,0-0.7,0.4l-0.3-0.3c-0.6-0.1-0.8,0.5-1.4,0.4
						c0.2-0.2-0.1-0.4,0.3-0.5c-0.2,0-0.4-0.1-0.4,0.1c-0.1-0.1-0.6,0.2-0.8,0C75,0.8,75,1,74.7,1c0,0,0-0.1,0-0.1
						c0,0.1-0.4,0.1-0.2,0.3c-0.6-0.6-1.8,0-2.3-0.5c-0.5,0.1-1,0.1-1.4,0.1c0-0.1,0-0.1,0.1-0.1c-0.6-0.2-0.4,0.6-1,0.3
						c-0.3-0.3,0.3-0.2,0.1-0.3c-0.1-0.7-0.8,0.1-1.2-0.3l0.1,0c-0.3-0.2-0.8,0.2-1.3,0.2c0,0,0-0.1,0-0.1c-0.4,0.3-1.1,0.4-1.6,0.5
						c0.2-0.3,0.2-0.1,0.1-0.4c-0.2,0,0.1,0.4-0.4,0.5c-0.2-0.1-0.5-0.3-0.5-0.5l0.4,0c-0.2-0.4-0.6,0-0.8,0l0-0.2
						c-0.7,0.1-0.7,0.5-1.4,0.4L63.6,1c-0.4,0.4-0.3-0.2-0.7,0.1l-0.1-0.4c-0.3,0.1-0.9,0.4-1.4,0.5c0.3-0.3,0.8-0.5,1.1-0.6
						c-0.3,0-0.9,0-1,0.2c0.1,0,0.2-0.1,0.3-0.1c-0.3,0.3-0.7,0.5-1.2,0.5c0.1-0.8-1.3-0.2-1.7-0.8c-0.9,0.3-1.8-0.1-2.9,0
						c0.4,0.6-0.3,0-0.2,0.6c-0.2,0-0.3,0-0.4,0l-0.8-0.3c-0.2-0.2,0.2-0.1,0.2-0.3c-0.5,0-0.2-0.3-0.6-0.4c0.1,0.2-0.2,0.3-0.5,0.2
						l0.4,0.3c-0.7,0.4-0.7-0.5-1.4-0.1l0.2-0.2c-0.4,0.1-1.4,0-1.8,0.6c-0.1-0.1-0.2-0.2,0-0.3c-0.9,0-2,0.6-2.8,0.4l0.1-0.2
						C48.4,0.7,48.3,1,48,0.9c0-0.1,0.1-0.2,0-0.2c-0.1,0.1-0.4,0.3-0.7,0.2l0.2-0.2c-0.9-0.1-1.4,0.5-2.1,0.6
						c0-0.4-0.8-0.5-1.1-0.6l0-0.1c-1.1,0-1.8,0.5-2.7,0.8c-0.6-0.4-2.1,0-3.1-0.2c0.2,0.1,0,0.3-0.2,0.4c-0.2-0.1-0.6,0.4-0.6,0
						l0.1,0c-0.2-0.4-0.7-0.2-1-0.2l0,0.5c-1-0.7-2.5,0.6-3.1-0.1C33.5,2,33.2,2.1,33,2.2l0-0.3c-0.6,0-1,0-1.8,0.2l0.1-0.2
						c-0.4,0-0.5,0.9-0.9,0.9l-0.2-0.4c-0.8,0.1-1.6-0.2-2.3,0.3c0-0.1,0-0.2,0.1-0.2c-0.4,0-1.5-0.1-1.2,0.5
						C26.8,2.6,26,3,25.6,3.3l0-0.3c-0.3,0.4-0.3,0.5-0.8,0.7c-0.1,0-0.1-0.2,0-0.2c-0.4-0.1-0.3,0.3-0.8,0.2l0.2-0.2
						c-0.4,0-0.4,0.1-0.6,0.4c-0.2,0.1-0.8,0-0.9-0.2c0,0.2-0.2,0.4-0.5,0.4c0-0.1,0-0.2,0.1-0.2c-0.7-0.1-0.9,0.5-1.4,0.3
						C21,4,21,4,20.9,3.9c0.5-0.1,1-0.1,0.9-0.1c0-0.3-0.5-0.2-0.2-0.6c-0.3,0.2-0.8,0.8-1.3,0.7c0,0,0,0-0.1-0.1l0,0
						c-0.1,0-0.2,0-0.3,0.1c-0.1,0-0.2,0-0.4,0c-0.1-0.2-0.5,0-0.7,0c0.1,0.3-0.2,0.3,0.1,0.5c0,0,0,0,0.2-0.1c0,0,0.1,0,0.1,0l0,0
						c0.1,0,0.3-0.1,0.5-0.1c-0.1,0.2-0.3,0.3-0.6,0.2c-0.1,0.2-0.2,0.4-0.2,0.5c-0.4-0.3-1-0.5-1.1-0.7c-0.6,0.3-1.5,0.3-1.8,0.9
						c-0.2,0.1-0.2-0.1-0.3-0.2c0.1-0.1,0.2-0.1,0.3-0.2C15.8,4.9,15,4.9,15,5.3c-0.5-0.1,0.2-0.4-0.4-0.2L14.6,5
						c-1.4-0.3-1.9,1.3-3.4,0.8c0.1,0,0.2,0,0.2,0.1c-1.7,0-3.2,0.9-4.9,0.7C6,6.6,6,6.8,5.8,7.1L5.6,6.8L5.3,7.2
						C4.7,7.6,4,6.7,3.2,7.4l0.1,0.2c-0.3,0-0.9,0.3-0.9,0.1c0,0-0.1,0.2-0.2,0.1l0-0.2L1.5,8.1c-0.6,0,0-0.6-0.9-0.5
						C0.4,7.7-0.1,8.2,0,8.3c0.1,0,0.3,0,0.4,0.2L0.1,8.6c0.1,0.5-0.1,1,0.7,1.1l0.4-0.4l0.2,0.2L1.1,9.7c0.3,0.2,0.4-0.1,0.5-0.2
						c0.1,0.1,0.2,0.2,0.3,0.2l0.4-0.5c0.1,0.2-0.1,0.4,0.2,0.4c0.2-0.2-0.3-0.4,0-0.6c0.3,0.2,0.2,0.3,0.5,0.1C3,9.2,3,9.3,2.9,9.4
						c0.2-0.2,0.6-0.2,0.7-0.5c0.3,0.2,0.8-0.2,0.9,0.2C4.5,9,4.8,8.7,5,8.6C4.7,9.2,5.8,8.5,5.8,9c0.2-0.5,1-0.4,1.5-0.8
						c0,0-0.1,0.1-0.1,0.1c0.3,0,0.4,0.1,0.6,0.1c0-0.4,0.4-0.6,0.6-0.8c0.4,0.3-0.1,0.5,0.1,0.8C8.4,8.2,9.1,8,8.9,7.8
						C9.2,8,9.2,7.9,9.4,8.2c0-0.5,0.2-0.1,0.4-0.5c0.5,0.2,0.2,0.4,0.6,0.2C10.6,8,10.3,8.2,10.3,8.2z M20.8,5.6L20.8,5.6
						c-0.1,0-0.2,0-0.2,0.1C20.6,5.6,20.6,5.6,20.8,5.6z M21.6,5.4c-0.1,0-0.2,0-0.4,0.1c0-0.1,0-0.2,0.1-0.2
						C21.3,5.4,21.5,5.4,21.6,5.4z M19.5,3.8c0.1-0.1,0.2,0,0.2,0c-0.1,0-0.1,0-0.2,0.1l0,0C19.4,3.9,19.4,3.9,19.5,3.8z"/>
					<path class="st1" d="M19.3,4.2C19.2,4.2,19.2,4.2,19.3,4.2C19.2,4.3,19.3,4.3,19.3,4.2L19.3,4.2L19.3,4.2z"/>
					<path class="st1" d="M101.5,3L101.5,3C101.5,3,101.5,3,101.5,3C101.5,3,101.5,3,101.5,3z"/>
					<polygon class="st1" points="34.1,4.4 34.1,4.3 34,4.4 					"/>
					<path class="st1" d="M106.4,4.6C106.4,4.6,106.4,4.6,106.4,4.6C106.4,4.7,106.4,4.6,106.4,4.6z"/>
					<path class="st1" d="M108.5,5l0.3,0.1C108.6,5,108.6,5,108.5,5z"/>
					<path class="st1" d="M110.1,5.3c0,0,0-0.1,0-0.1l0,0L110.1,5.3z"/>
					<path class="st1" d="M83.9,3C83.9,3,83.8,3,83.9,3C83.7,3,83.8,3,83.9,3z"/>
					<path class="st1" d="M91.7,2.9c-0.1,0-0.2,0.1-0.3,0.1C91.6,3,91.7,3,91.7,2.9z"/>
					<polygon class="st1" points="75.1,2.9 75.1,2.9 75.1,2.9 					"/>
					<path class="st1" d="M91.1,2.9C91.3,3,91.4,3,91.5,3C91.4,3,91.2,2.9,91.1,2.9z"/>
					<path class="st1" d="M117.2,6.6L117.2,6.6C117.3,6.6,117.3,6.6,117.2,6.6L117.2,6.6z"/>
					<path class="st1" d="M117.3,6.6L117.3,6.6C117.3,6.5,117.3,6.5,117.3,6.6z"/>
					<path class="st1" d="M117.6,6.5l-0.2,0C117.4,6.6,117.5,6.6,117.6,6.5z"/>
					<path class="st1" d="M115,6.1L115,6.1C115,6.2,115,6.1,115,6.1z"/>
					<path class="st1" d="M114.4,6c0.2,0,0.4,0.3,0.6,0.3l0-0.1C114.9,6.3,114.5,5.9,114.4,6z"/>
					<path class="st1" d="M111.8,4.3l0.5,0.2c-0.1-0.1-0.2-0.3,0.1-0.3C111.8,3.8,112.5,4.5,111.8,4.3z"/>
					<path class="st1" d="M110.1,3.9c0.3,0,0-0.2,0-0.2C110,3.8,109.9,3.8,110.1,3.9z"/>
					<path class="st1" d="M97.6,2.3l0.1-0.3C97.5,2.1,97.7,2.2,97.6,2.3z"/>
					<polygon class="st1" points="95.1,3.4 95.3,3.6 95.5,3.4 					"/>
					<polygon class="st1" points="93.9,1.5 94,1.5 93.6,1.5 					"/>
					<path class="st1" d="M72.7,0.4l0.1,0.3C73,0.7,73,0.3,72.7,0.4z"/>
					<path class="st1" d="M63.6,0.7c-0.1-0.2-0.4-0.3-0.5-0.1C63.3,0.6,63.5,0.7,63.6,0.7z"/>
					<polygon class="st1" points="36.3,1.6 36.4,1.5 36.1,1.6 					"/>
				</g>
			</g>
		</g>
	</g>
</g>
</svg>
