<svg id="Option_2:_Yellow" xmlns="http://www.w3.org/2000/svg" viewBox="0 0 30.5 32.6"><style>.st0{fill:#FFFFFF;} .st1{fill:#012A3F;}</style><path class="st0" d="M27.8 15c0-.1-.1-.2-.1-.2-.8-1.8-1.7-3.7 1.4-7.3l.2-.2-.2-.3c-2.1-2.6-4-4.5-5.5-5.7l-.3-.2-.2.2c-1 1-2.2 1.5-3.5 1.5-1.3 0-2.8-.5-4.2-1.6l-.2-.2-.2.3c-1.4 1-2.8 1.6-4.2 1.6-1.3 0-2.5-.5-3.5-1.5l-.2-.3-.3.2C5.3 2.5 3.5 4.5 1.4 7l-.2.3.2.2c3.1 3.6 2.2 5.4 1.4 7.3 0 .1-.1.2-.1.2-1.5 3.2-1.7 4.4-1.4 6.9.3 2.2 1 3.8 2.2 4.9 1.2 1.2 3 1.9 5.3 2.1 3.2.3 5.3 1 6.2 2.2l.3.4.3-.4c.9-1.2 3-2 6.2-2.2 4.7-.4 7-2.6 7.5-7 .2-2.5.1-3.6-1.5-6.9"/><path class="st0" d="M28.8 14.5c-.4-.9-.8-1.8-.7-2.8.2-1.4 1.1-2.6 2-3.6.4-.5.4-1.1 0-1.6-1.8-2.2-3.7-4.4-5.9-6.2-.5-.4-1.1-.5-1.6 0-2.1 2.1-4.5 1.5-6.8-.1-.3-.2-.8-.2-1.1 0-2.3 1.6-4.7 2.2-6.8.1-.5-.5-1.1-.4-1.6 0-2.2 1.8-4.1 4-5.9 6.2C0 7 0 7.6.4 8.1c.9 1 1.8 2.2 2 3.5.1.9-.2 1.8-.6 2.6-.7 1.4-1.4 2.9-1.6 4.5-.3 1.5-.1 3 .2 4.4.6 3.2 2.7 5.6 5.8 6.5 2.6.7 6.4.1 8.1 2.5.5.7 1.4.7 2 0 1.3-1.8 4.1-1.9 6.2-2.1 2.1-.3 4.3-1 5.8-2.6 1.5-1.7 2.1-3.8 2.2-6 .1-2.6-.7-4.7-1.7-6.9-.6-1.3-2.5-.2-2 1.1 1 2.1 1.5 4 1.3 6.3-.2 1.9-.9 3.7-2.6 4.7-2 1.3-4.5 1-6.7 1.5-1.9.4-3.4 1.2-4.6 2.8h2c-1.8-2.4-4.6-2.9-7.5-3.2-1.6-.2-3.3-.6-4.5-1.7-1.2-1.2-1.7-2.9-1.9-4.6-.1-1.4 0-2.7.5-4 .5-1.3 1.2-2.4 1.6-3.7.9-2.8-.7-5.2-2.4-7.2v1.6c1.8-2.2 3.7-4.4 5.9-6.2H6.3c2.8 2.8 6.4 2.4 9.5.2h-1.1c3.1 2.2 6.7 2.6 9.5-.2h-1.6c2.2 1.8 4.1 4 5.9 6.2V6.5c-1.2 1.4-2.4 3-2.7 5-.2 1.5.4 2.8 1 4.1.7 1.3 2.6.2 2-1.1z"/><path class="st0" d="M25.6 15.3c0-.1-.1-.1-.1-.2-.7-1.5-1.4-3 1.1-6l.2-.2-.2-.2C24.9 6.6 23.4 5 22.1 4l-.2-.2-.2.2c-.8.8-1.8 1.3-2.9 1.3-1.1 0-2.3-.4-3.4-1.3l-.2-.1-.1.1c-1.2.8-2.3 1.3-3.4 1.3S9.6 4.9 8.8 4l-.2-.2-.3.2C7.1 5 5.6 6.6 3.9 8.7l-.2.2.2.2C6.4 12 5.7 13.6 5 15c0 .1-.1.1-.1.2-1.2 2.6-1.4 3.6-1.2 5.6.2 1.8.8 3.1 1.8 4 1 1 2.5 1.5 4.4 1.7 2.6.2 4.4.8 5.1 1.8l.2.3.2-.3c.7-1 2.5-1.6 5.1-1.8 3.8-.3 5.8-2.1 6.2-5.7.3-1.9.1-2.8-1.1-5.5"/><path class="st1" d="M26.2 14.9c-.1-.2-.2-.4-.3-.7-.1-.2.1.1 0-.1V14c0-.1-.1-.2-.1-.3-.1-.2-.1-.4-.2-.6v-.2-.4-.1-.2c0-.1.1-.3.1-.4.1-.3.2-.5.4-.8.3-.6.8-1.1 1.2-1.6.3-.3.3-.7 0-1.1-1.5-1.8-3-3.6-4.9-5.1-.3-.2-.7-.3-1.1 0-.7.8-1.6 1.3-2.7 1.2-1.2 0-2.2-.6-3.1-1.3-.2-.1-.6-.1-.8 0-.9.7-2 1.3-3.1 1.3s-1.9-.5-2.7-1.2c-.1-.2-.6-.1-.9.1-1.8 1.5-3.3 3.3-4.8 5.1-.3.3-.3.7 0 1.1.6.7 1.2 1.4 1.5 2.3.1.2.1.4.2.6v1c0 .1 0 .2-.1.3 0 .1-.1.3-.1.4 0 .1-.1.1-.1.2 0 0 0 .1 0 0v.1c-.2.4-.4.9-.6 1.3-.4.9-.8 1.8-.9 2.8-.1.9-.1 1.9 0 2.8.2 1.1.5 2.2 1.1 3.1 1.2 1.9 3.3 2.7 5.4 3 1.2.1 2.5.2 3.6.7.2.1.3.1.5.3.1.1.2.1.3.2 0 0 .1 0 .1.1.1.1 0 0 .1 0l.2.2s.1.2.1.1c.1.1.2.2.2.3.4.5.9.5 1.3 0 .1-.1.1-.2.2-.2.1-.2 0 0 .1-.1.2-.2.3-.3.6-.5.6-.4 1.3-.5 2-.7 1.6-.3 3.3-.3 4.9-.9 1.3-.5 2.3-1.4 3-2.6.7-1.3.9-2.8 1-4.2-.2-2-.8-3.6-1.6-5.2-.2-.4-.7-.5-1-.3-.4.2-.4.7-.3 1 .4.8.7 1.5.9 2.4.1.3.1.5.2.8v.8c0 1.3-.2 2.6-.8 3.7-.5 1-1.4 1.7-2.4 2.1-1.5.6-3.2.5-4.8.9-.8.2-1.5.4-2.2.9-.5.3-.9.8-1.3 1.3h1.3c-.4-.6-.9-1.1-1.5-1.4-.9-.5-1.9-.7-2.9-.9-1.2-.2-2.4-.2-3.5-.6-.9-.3-1.7-.8-2.3-1.5-.7-.8-1-1.8-1.2-2.7-.1-.5-.1-1-.2-1.4v-.6-.3-.2c.1-1 .5-1.9.9-2.8.3-.7.7-1.4.9-2.1.6-2.1-.7-4-2-5.5v1.1C5.5 7.8 7 6 8.9 4.5H7.8c1 1 2.2 1.7 3.6 1.7 1.5 0 2.8-.7 4-1.5h-.8C16 5.4 17.4 6 18.9 6c1.4 0 2.6-.7 3.6-1.7h-1.1c1.8 1.5 3.4 3.2 4.9 5.1V8.3c-1 1.2-2 2.5-2.1 4.1-.1 1.2.4 2.2.8 3.2.2.4.7.5 1 .3.3-.2.4-.7.2-1z"/><path class="st1" d="M17.1 15.7c-1.1-.3-2.2-.1-3.1.5v-3.1c0-.1 0-.1-.1-.1h-2c-.1 0-.2.1-.2.2v10.3c0 .1.1.2.2.2h2c.1 0 .2-.1.2-.2v-.4c.6.5 1.3.7 2.1.7 2 0 3.5-1.5 3.7-3.5.2-2-.8-4.1-2.8-4.6zm-2.9 2.4c.1-.1.1-.1.2-.1.3-.2.7-.3 1.1-.3 1 0 1.7.6 1.8 1.6.1.9-.3 1.9-1.3 2.2-.6.2-1.2 0-1.7-.3-.1-.1-.3-.1-.3-.2 0 0 0 .1 0 0v-.2-1.9c0-.2-.1-.5 0-.7 0-.1 0 0 0 0 0 .1.2-.1.2-.1z"/><g><path class="st1" d="M12.3 9h.5c2.5 0 4.5 2 4.5 4.5v.5c0 .1 0 .2.1.2h1.1c.1 0 .2-.1.2-.2v-.5c0-3.2-2.6-5.8-5.8-5.8h-.4c-.2 0-.2.1-.2.2v1s-.2.1 0 .1z"/><path class="st1" d="M12.3 11.5c.2 0 .3-.1.5-.1 1.1 0 2 .9 2 2 0 .2 0 .3-.1.5 0 .1 0 .1.1.1h1c.1 0 .1 0 .1-.1v-.5c0-1.8-1.5-3.3-3.3-3.3h-.5c-.1 0-.1.1-.1.2v.9c.1.2.2.3.3.3z"/></g></svg>