<svg id="Isolation_Mode" xmlns="http://www.w3.org/2000/svg" viewBox="0 0 51.2 51.2"><style>.st0{fill:#0F3557;}</style><path class="st0" d="M51.2 8.8C51.2 6.1 49 4 46.4 4h-5.1V1.6c0-.9-.7-1.6-1.6-1.6-.9 0-1.6.7-1.6 1.6v2.3H13V1.6c0-.9-.7-1.6-1.6-1.6-.9 0-1.6.7-1.6 1.6v2.3h-5C2.2 3.9 0 6.1 0 8.8v7.4c0 .1 0 .2.1.3-.1 0-.1.1-.1.1v29.7c0 2.7 2.2 4.8 4.8 4.8h41.6c2.6 0 4.8-2.2 4.8-4.8V16.7c0-.1 0-.2-.1-.2 0-.1.1-.2.1-.3V8.8zM48 46.4c0 .9-.7 1.6-1.6 1.6H4.8c-.9 0-1.6-.7-1.6-1.6V18.3H48v28.1zM48 15H3.2V8.8c0-.9.7-1.6 1.6-1.6h5v2.3c0 .9.7 1.6 1.6 1.6.9 0 1.6-.7 1.6-1.6V7.2h25.1v2.3c0 .9.7 1.6 1.6 1.6.9 0 1.6-.7 1.6-1.6V7.2h5.1c.9 0 1.6.7 1.6 1.6V15zm0 0"/><path class="st0" d="M18.5 27.1c0 .9-.7 1.6-1.6 1.6-.9 0-1.6-.7-1.6-1.6 0-.9.7-1.6 1.6-1.6.9-.1 1.6.7 1.6 1.6zm0 0M26.3 27.1c0 .9-.7 1.6-1.6 1.6-.9 0-1.6-.7-1.6-1.6 0-.9.7-1.6 1.6-1.6.9-.1 1.6.7 1.6 1.6zm0 0M34.9 27.1c0 .9-.7 1.6-1.6 1.6-.9 0-1.6-.7-1.6-1.6 0-.9.7-1.6 1.6-1.6.9-.1 1.6.7 1.6 1.6zm0 0M43.8 27.1c0 .9-.7 1.6-1.6 1.6-.9 0-1.6-.7-1.6-1.6 0-.9.7-1.6 1.6-1.6.8-.1 1.6.7 1.6 1.6zm0 0M10.6 32.6c0 .9-.7 1.6-1.6 1.6-.9 0-1.6-.7-1.6-1.6 0-.8.8-1.6 1.6-1.6.9 0 1.6.8 1.6 1.6zm0 0M18.5 32.6c0 .9-.7 1.6-1.6 1.6-.9 0-1.6-.7-1.6-1.6 0-.9.7-1.6 1.6-1.6.9 0 1.6.8 1.6 1.6zm0 0M26.3 32.6c0 .9-.7 1.6-1.6 1.6-.9 0-1.6-.7-1.6-1.6 0-.9.7-1.6 1.6-1.6.9 0 1.6.8 1.6 1.6zm0 0M34.9 32.6c0 .9-.7 1.6-1.6 1.6-.9 0-1.6-.7-1.6-1.6 0-.9.7-1.6 1.6-1.6.9 0 1.6.8 1.6 1.6zm0 0M43.8 32.6c0 .9-.7 1.6-1.6 1.6-.9 0-1.6-.7-1.6-1.6 0-.9.7-1.6 1.6-1.6.8 0 1.6.8 1.6 1.6zm0 0M10.6 38.2c0 .9-.7 1.6-1.6 1.6-.9 0-1.6-.7-1.6-1.6 0-.9.7-1.6 1.6-1.6.9 0 1.6.7 1.6 1.6zm0 0M18.5 38.2c0 .9-.7 1.6-1.6 1.6-.9 0-1.6-.7-1.6-1.6 0-.9.7-1.6 1.6-1.6.9 0 1.6.7 1.6 1.6zm0 0M26.3 38.2c0 .9-.7 1.6-1.6 1.6-.9 0-1.6-.7-1.6-1.6 0-.9.7-1.6 1.6-1.6.9 0 1.6.7 1.6 1.6zm0 0M34.9 38.2c0 .9-.7 1.6-1.6 1.6-.9 0-1.6-.7-1.6-1.6 0-.9.7-1.6 1.6-1.6.9 0 1.6.7 1.6 1.6zm0 0M43.8 38.2c0 .9-.7 1.6-1.6 1.6-.9 0-1.6-.7-1.6-1.6 0-.9.7-1.6 1.6-1.6.8 0 1.6.7 1.6 1.6zm0 0M10.6 43.8c0 .9-.7 1.6-1.6 1.6-.9 0-1.6-.7-1.6-1.6 0-.9.7-1.6 1.6-1.6.9 0 1.6.7 1.6 1.6zm0 0M18.5 43.8c0 .9-.7 1.6-1.6 1.6-.9 0-1.6-.7-1.6-1.6 0-.9.7-1.6 1.6-1.6.9 0 1.6.7 1.6 1.6zm0 0M26.3 43.8c0 .9-.7 1.6-1.6 1.6-.9 0-1.6-.7-1.6-1.6 0-.9.7-1.6 1.6-1.6.9 0 1.6.7 1.6 1.6zm0 0"/></svg>