<svg xmlns="http://www.w3.org/2000/svg" xmlns:xlink="http://www.w3.org/1999/xlink" viewBox="0 0 62 50.7"><defs><path id="a" d="M0 0h62v50.7H0z"/></defs><clipPath id="b"><use xlink:href="#a" overflow="visible"/></clipPath><path clip-path="url(#b)" fill="#FFF" d="M61.6 26.1l-7.5-6.5V5.7l.3-.1c.6-.1 1-.6 1-1.2 0-.7-.5-1.2-1.2-1.2H42.9c-.7 0-1.2.5-1.2 1.2 0 .6.4 1.1 1 1.2l.3.1V10L31.8.3c-.2-.2-.5-.3-.8-.3s-.6.1-.8.3L.4 26.1c-.5.4-.6 1.2-.1 1.7.2.3.6.4.9.4.3 0 .6-.1.8-.3l5.9-5.2v25.5h-3c-.7 0-1.2.5-1.2 1.2s.5 1.2 1.2 1.2H57c.7 0 1.2-.5 1.2-1.2s-.5-1.2-1.2-1.2h-3V22.8l5.9 5.2c.2.2.5.3.8.3.3 0 .7-.2.9-.4.2-.2.3-.6.3-.9.1-.4-.1-.7-.3-.9m-9.9 22.1H10.3V20.7L31 2.8l20.7 17.9v27.5zm0-30.7L45.4 12V5.6h6.3v11.9z"/></svg>