<svg xmlns="http://www.w3.org/2000/svg" xmlns:xlink="http://www.w3.org/1999/xlink" viewBox="0 0 72.8 51.9"><defs><path id="a" d="M0 0h72.8v51.9H0z"/></defs><clipPath id="b"><use xlink:href="#a" overflow="visible"/></clipPath><path clip-path="url(#b)" fill="#F9F9FA" d="M72.3 22L37 .2c-.4-.2-.8-.2-1.1 0L20.4 9.7V2.5c0-.7-.5-1.2-1.2-1.2h-7.4c-.7 0-1.2.5-1.2 1.2v13.3L.5 22c-.5.3-.7 1-.4 1.5l3.1 5c.3.5 1 .7 1.5.4l2-1.3-.2 1.1c0 .3-.1.6-.1.8 0 1.5.6 2.9 1.7 3.9l.4.4-.4.4c-1.1 1-1.7 2.4-1.7 3.9s.6 2.9 1.8 4l.4.4-.4.4c-1.9 1.8-2.5 4.8-.7 7.2.7.9 1.7 1.7 2.9 1.9 1.1.3 2.1.2 3-.1h17c.6 0 1.1-.5 1.1-1.1V32.3c0-.3.3-.6.6-.6h8.6c.3 0 .6.3.6.6v18.3c0 .6.5 1.1 1.1 1.1h17.1c1 .3 2.1.3 3.2-.1 1.9-.7 3.4-2.4 3.6-4.4.2-1.7-.4-3.4-1.7-4.6l-.4-.4.4-.4c1.1-1 1.7-2.4 1.7-3.9s-.6-2.9-1.7-3.9l-.4-.4.4-.4c1.1-1 1.7-2.4 1.7-3.9 0-.3 0-.5-.1-.8l-.2-.9 2 1.3c.5.3 1.2.2 1.5-.4l3.1-5c.3-.5.2-1.2-.3-1.5M13 3.7h4.9v7.5l-4.9 3V3.7zm-1.1 45.8c-1.6 0-2.9-1.3-2.9-2.9 0-1.6 1.3-2.9 2.9-2.9 1.6 0 2.9 1.3 2.9 2.9 0 1.6-1.3 2.9-2.9 2.9m0-8.6C10.3 40.9 9 39.6 9 38c0-1.6 1.3-2.9 2.9-2.9 1.6 0 2.9 1.3 2.9 2.9 0 1.5-1.3 2.9-2.9 2.9m0-8.5c-1.6 0-2.9-1.3-2.9-2.9 0-1.6 1.3-2.9 2.9-2.9 1.6 0 2.9 1.3 2.9 2.9 0 1.6-1.3 2.9-2.9 2.9M50.5 18l8.9 5.5h-46l8.9-5.5h28.2zm-24.3-2.5l10.2-6.3 10.2 6.3H26.2zm2.9 33.8H16.5c.5-.8.7-1.7.7-2.7 0-1.2-.4-2.4-1.2-3.3h13v6zm0-8.5H16.3c.6-.9.9-1.9.9-2.9 0-1.1-.4-2.2-1-3.1h12.9v6zm27.2 8.5H43.7v-6h13c-.8.9-1.2 2.1-1.2 3.3.1 1 .4 1.9.8 2.7m.1-8.5H43.7v-6h13c-.7.9-1.1 2.1-1.1 3.2 0 1 .3 2 .8 2.8m0-14.1c-.5.9-.8 1.8-.8 2.8 0 1 .3 2 .9 2.9H43.7v-1.7c0-.8-.7-1.5-1.5-1.5H30.5c-.8 0-1.5.7-1.5 1.5v1.7H16.3c.6-.9.9-1.9.9-2.9s-.3-2-.8-2.8l-.5-.8h41l-.5.8zm4.5 22.8c-1.6 0-2.9-1.3-2.9-2.9 0-1.6 1.3-2.9 2.9-2.9 1.6 0 2.9 1.3 2.9 2.9 0 1.6-1.3 2.9-2.9 2.9m0-8.6c-1.6 0-2.9-1.3-2.9-2.9s1.3-2.9 2.9-2.9c1.6 0 2.9 1.3 2.9 2.9s-1.3 2.9-2.9 2.9m0-8.5c-1.6 0-2.9-1.3-2.9-2.9 0-1.6 1.3-2.9 2.9-2.9 1.6 0 2.9 1.3 2.9 2.9 0 1.6-1.3 2.9-2.9 2.9m7.3-6.4L36.4 6.4 4.6 26 3 23.3 36.4 2.7l33.4 20.7-1.6 2.6z"/></svg>