<svg xmlns="http://www.w3.org/2000/svg" xmlns:xlink="http://www.w3.org/1999/xlink" viewBox="0 0 72 55.9"><defs><path id="a" d="M0 0h72v55.9H0z"/></defs><clipPath id="b"><use xlink:href="#a" overflow="visible"/></clipPath><path clip-path="url(#b)" fill="#F9F9FA" d="M71.9 15.9s0-.1-.1-.2l-.1-.1-.1-.1-.1-.1-.1-.1h-.1s-.1 0-.1-.1c-2.5-1.1-4.2-3.6-4.2-6.4 0-2.8 1.6-5.3 4.2-6.4l.2-.1.2-.1.1-.2.1-.2V1.2 1s0-.1-.1-.1l-.1-.1-.1-.2-.1-.1-.1-.1s-.1 0-.1-.1c-1-.3-2-.5-3-.5-4.9 0-8.9 4-8.9 8.9s4 8.9 8.9 8.9c1 0 2-.2 3-.5.1 0 .1-.1.2-.1s.1-.1.2-.2.1-.2.1-.2v-.1-.5c.2 0 .2 0 .2-.1m-4.6-.4c-3.3-.5-5.8-3.3-5.8-6.7s2.5-6.2 5.8-6.7h.7l-.5.5c-1.6 1.8-2.5 4-2.5 6.3s.9 4.5 2.5 6.2l.5.5-.7-.1zM12.6 6.2c0-.5-.1-1.1-.2-1.6-.7-2.4-2.6-4-4.8-4-2.8 0-5.1 2.6-5.1 5.9 0 .6.1 1.2.3 1.8C1.1 9.6 0 12.2 0 15c0 2.2.7 4.3 1.9 5.8 0 .4-.1.8-.1 1.2 0 4.3 2.2 7.8 5.2 8.4v21.7c0 .6.5 1.2 1.2 1.2.6 0 1.2-.5 1.2-1.2V30.4v-.1c2.8-.8 4.8-4.2 4.8-8.3 0-.7-.1-1.4-.2-2.1 1.5-1.4 2.4-3.8 2.4-6.4 0-3.3-1.5-6.2-3.8-7.3M12 18.5l-.7.5.2.8c.2.7.3 1.5.3 2.2 0 3.3-1.7 6.1-3.8 6.1S4.2 25.3 4.2 22c0-.5 0-.9.1-1.4l.1-.6-.4-.5c-1-1-1.6-2.7-1.6-4.6 0-2.4 1-4.5 2.4-5.1l1.1-.5-.5-1C5.1 7.7 5 7.1 5 6.4 5 4.5 6.1 3 7.6 3c1.1 0 2.1.9 2.5 2.2.2.7.2 1.6.1 1.7L10.1 8l1.1.2c1.4.3 2.9 2.4 2.9 5.3-.1 2.2-.9 4.1-2.1 5M59.2 18.3h-1.4v-1.1c0-3-2.7-5.4-6-5.4H47v-.5c0-1.2-1-2.2-2.2-2.2H34.4c-1.2 0-2.2 1-2.2 2.2v.5h-4.9c-3.3 0-6 2.4-6 5.4v1.1h-1.4c-1.5 0-2.8 1.3-2.8 2.8v9.4c0 1.5 1.3 2.8 2.8 2.8h1.4v15.2c0 .7.5 1.2 1.2 1.4v4.2c0 1 .7 1.8 1.6 1.8h6.1c.9 0 1.6-.8 1.6-1.8V50h15.1v4.1c0 1 .7 1.8 1.6 1.8h6.1c.9 0 1.6-.8 1.6-1.8V50c.8 0 1.5-.7 1.5-1.4V33.4h1.4c1.5 0 2.8-1.3 2.8-2.8v-9.4c.1-1.6-1.2-2.9-2.7-2.9m-3.9 29.3H23.7V46h6.4c.9 0 1.7-.8 1.7-1.7L31 40c-.1-.9-.8-1.6-1.7-1.6h-5.6v-2.2h31.6v2.2h-5.6c-.9 0-1.6.7-1.7 1.6l-.7 4v.2c0 .9.8 1.7 1.7 1.7h6.4v1.7zM38.5 33.8H23.7V21.3h14.8v12.5zm-14.8 7h5l.5 2.8h-5.5v-2.8zm26.1 2.8l.5-2.8h5v2.8h-5.5zm5.5-9.8H40.9V21.2h14.5V33.8zM34.6 11.6h9.9v2.9h-9.9v-2.9zm-7.3 2.7h4.9v.4c0 1.2 1 2.2 2.2 2.2h10.3c1.2 0 2.2-1 2.2-2.2v-.4h4.8c2 0 3.6 1.3 3.6 3v1.6H23.7v-1.6c0-1.7 1.6-3 3.6-3M20.9 31h-1c-.2 0-.4-.2-.4-.4v-9.4c0-.2.2-.4.4-.4h1c.2 0 .4.2.4.4v9.4c0 .2-.2.4-.4.4m8.5 22.5h-4.5V50h4.5v3.5zm24.5 0h-4.5V50h4.5v3.5zm5.7-22.9c0 .2-.2.4-.4.4h-1c-.2 0-.4-.2-.4-.4v-9.4c0-.2.2-.4.4-.4h1c.2 0 .4.2.4.4v9.4z"/><path clip-path="url(#b)" fill="#F9F9FA" d="M44.2 38.7h-9.1c-.7 0-1.2.5-1.2 1.2s.5 1.2 1.2 1.2h9.1c.7 0 1.2-.5 1.2-1.2 0-.6-.5-1.2-1.2-1.2M44.2 43.2h-9.1c-.7 0-1.2.5-1.2 1.2s.5 1.2 1.2 1.2h9.1c.7 0 1.2-.5 1.2-1.2 0-.6-.5-1.2-1.2-1.2"/></svg>