<svg xmlns="http://www.w3.org/2000/svg" xmlns:xlink="http://www.w3.org/1999/xlink" viewBox="0 0 78.4 46.7"><defs><path id="a" d="M0 0h78.4v46.7H0z"/></defs><clipPath id="b"><use xlink:href="#a" overflow="visible"/></clipPath><path clip-path="url(#b)" fill="#FFF" d="M23 11.2H9.7c-.7 0-1.2.5-1.2 1.2v10.1c0 .7.5 1.2 1.2 1.2H23c.7 0 1.2-.5 1.2-1.2V12.4c0-.6-.5-1.2-1.2-1.2m-1.2 10.2H10.9v-7.7h10.9v7.7zM42.1 10.9H31.2c-.7 0-1.2.5-1.2 1.2V35.5c0 .7.5 1.2 1.2 1.2h10.9c.7 0 1.2-.5 1.2-1.2V12.1c0-.6-.5-1.2-1.2-1.2m-9.7 11.9v-9.5h8.5v21h-8.4V22.8z"/><path clip-path="url(#b)" fill="#FFF" d="M77.3 26.8c-1.2-1.5-2.9-1.9-3.1-1.9l-3.5-.9L65 13.4h7.2c2.3 0 3.5-.9 4-1.7 1.2-1.6.6-3.7.5-3.9C74.6.4 64 0 61.9 0H4.8h-.3c-.7 0-1.9.1-3 1.1C.5 2 0 3.3 0 5.1l.1 31.1c0 .5-.1 2 1.1 3.3.5.7 1.7 1.5 3.7 1.5h6.4c.4 3.2 3.2 5.8 6.5 5.8 3.2 0 5.9-2.3 6.4-5.4l.1-.4h33.1c.4 3.3 3.1 5.8 6.5 5.8 3.2 0 5.9-2.3 6.4-5.4l.1-.4h6.7c.7 0 1.2-.5 1.2-1.2v-8.3c.1-.6.2-3.2-1-4.7M68 24H56.6V13.4h5.6L68 24zM17.8 44.3c-2.3 0-4.1-1.9-4.1-4.1 0-2.3 1.9-4.1 4.1-4.1s4.1 1.9 4.1 4.1c.1 2.3-1.8 4.1-4.1 4.1m30-5.8H24.2l-.2-.4c-.9-2.7-3.4-4.5-6.2-4.5-3 0-5.6 2.1-6.3 4.9H4.9c-.9.1-1.6-.1-1.9-.5-.5-.5-.5-1.3-.5-1.6L2.4 5.1c0-1 .2-1.8.7-2.2.5-.4 1.1-.5 1.4-.5h57.2c1.8 0 11.1.3 12.6 6.1.1.2.3 1.2-.1 1.8-.4.5-1.3.7-2 .7H47.8v27.5zM64 44.3c-2.3 0-4.1-1.9-4.1-4.1 0-2.3 1.9-4.1 4.1-4.1 2.3 0 4.1 1.9 4.1 4.1 0 2.3-1.9 4.1-4.1 4.1m11.9-12.9v7.1h-5.7l-.1-.3c-.9-2.7-3.4-4.5-6.2-4.5-3 0-5.6 2.1-6.3 4.8h-7.4V13.4h4v11.8c0 .7.5 1.2 1.2 1.2H70.4l3.3.8c.2 0 1.1.3 1.8 1.1.4.6.5 2.2.4 3.1"/></svg>