<svg xmlns="http://www.w3.org/2000/svg" xmlns:xlink="http://www.w3.org/1999/xlink" viewBox="0 0 54.5 54.5"><defs><path id="a" d="M0 0h54.5v54.5H0z"/></defs><clipPath id="b"><use xlink:href="#a" overflow="visible"/></clipPath><path clip-path="url(#b)" fill="#FFF" d="M36.3 0c-10 0-18.2 8.2-18.2 18.2 0 2.4.5 4.9 1.3 6.9L.3 44.2c-.2.2-.3.4-.3.7v8.6c0 .6.5 1 1 1h8.6c.3 0 .6-.1.7-.3l3.5-3.8c.2-.2.3-.4.3-.6l.1-2.1 2.1-.2c.2 0 .4-.1.6-.2l2.9-2.5c.2-.2.4-.5.4-.8v-1.6H22c.3 0 .5-.1.7-.3l2.6-2.7h1.5c.3 0 .5-.1.7-.3l3.5-3.5c1.8.5 3.6.8 5.4.8 10 0 18.2-8.2 18.2-18.2C54.5 8.2 46.3 0 36.3 0m-9.9 37.3h-1.5c-.3 0-.5.1-.7.3l-2.6 2.7h-2.4c-.6 0-1 .5-1 1v2.1l-2.3 2-2.6.2c-.5 0-.9.4-.9.9l-.2 2.6-3 3.2H4.5l20.2-20.2c1.3 1 2.7 1.9 4.2 2.5l-2.5 2.7zm9.9-2.9c-3.9 0-8.2-1.6-11.1-4.3-.4-.4-1.1-.3-1.4.1-.1.1-.2.3-.2.4L2.3 51.8c-.2.2-.3.4-.3.7v-7.2l18.8-18.8.6-.6c.3-.3.4-.8.2-1.2-.9-1.7-1.4-4.3-1.4-6.6C20.2 9.3 27.4 2 36.3 2s16.2 7.3 16.2 16.2c0 8.9-7.3 16.2-16.2 16.2"/><path clip-path="url(#b)" fill="#FFF" d="M41.6 7.6c-2.9 0-5.3 2.4-5.3 5.3s2.4 5.3 5.3 5.3 5.3-2.4 5.3-5.3-2.4-5.3-5.3-5.3m0 8.6c-1.8 0-3.3-1.5-3.3-3.3 0-1.8 1.5-3.3 3.3-3.3 1.8 0 3.3 1.5 3.3 3.3 0 1.8-1.5 3.3-3.3 3.3"/></svg>