<svg xmlns="http://www.w3.org/2000/svg" xmlns:xlink="http://www.w3.org/1999/xlink" viewBox="0 0 54.8 59.9"><defs><path id="a" d="M0 0h54.8v59.9H0z"/></defs><clipPath id="b"><use xlink:href="#a" overflow="visible"/></clipPath><path clip-path="url(#b)" fill="#F9F9FA" d="M54.6 52.3L28.8 10.9l5.7-9.1c.2-.3.2-.6.1-.9-.1-.3-.3-.6-.5-.7-.2-.1-.4-.2-.6-.2-.4 0-.8.2-1 .5l-5.1 8.2L22.3.5c-.2-.3-.6-.5-1-.5-.2 0-.4.1-.6.2-.3.2-.4.4-.5.7-.1.3 0 .6.1.9l5.7 9.1L.2 52.3c-.3.6-.2 1.3.4 1.6 1.6 1 10.2 6 26.8 6s25.3-5 26.8-6c.3-.2.4-.4.5-.7.1-.4.1-.7-.1-.9M27.4 13.1l7.5 12.1-1 .1c-2.1.2-4.3.3-6.5.3s-4.4-.1-6.5-.3l-1-.1 7.5-12.1zm9 43.9c-2.9.4-6 .6-9 .6s-6.1-.2-9-.6l-1-.1 10-17.4 10 17.4-1 .1zm14.9-4.4c-2.8 1.6-6.6 2.9-11 3.7h-.4L28.4 36.6l-.1-.1-.1-.1-.1-.1-.1-.1h-1V36h-.1l-.1.1-.1.1-.1.1-.1.1-.1.1-.1.1-.1.1L15 56.4l-.5-.1c-4.4-.9-8.2-2.2-11-3.7l-.6-.3 15.5-24.9h.4c2.8.3 5.6.5 8.5.5 2.9 0 5.7-.2 8.5-.5h.4l15.5 24.9-.4.3z"/></svg>