<svg xmlns="http://www.w3.org/2000/svg" xmlns:xlink="http://www.w3.org/1999/xlink" viewBox="0 0 70.2 49.7"><defs><path id="a" d="M0 0h70.2v49.7H0z"/></defs><clipPath id="b"><use xlink:href="#a" overflow="visible"/></clipPath><path clip-path="url(#b)" fill="#FFF" d="M70.1 31.8l-3-11c-.2-.6-.8-.9-1.4-.8-.6.2-1.1.2-1.7.1-1.3-.3-2.3-1.3-2.6-2.5-.3-1.2 0-2.5 1-3.5.4-.4.9-.6 1.5-.8.6-.2.9-.8.8-1.4L61.7 1c-.2-.8-1-1.3-1.8-1L.9 16.2c-.6.2-1 .8-.8 1.4l3.1 11.3c.2.6.8.9 1.3.8.7-.2 1.4-.2 2 0 1.3.4 2.1 1.4 2.4 2.6.4 1.8-.9 3.6-2.7 4.1-.5.1-.9.7-.7 1.2l3 10.8c.3.9 1.2 1.5 2.2 1.2l58.5-16.1c.7-.2 1.1-.9.9-1.7m-3-.2L11 46.9c-.2.1-.5-.1-.5-.3L8.4 39c-.1-.5 0-1 .4-1.2 2-1.4 3-3.9 2.3-6.4-.7-2.4-2.8-4.1-5.3-4.3-.5 0-.9-.4-1-.8-.5-1.8-1.7-6.3-2.1-7.6-.1-.2.1-.5.3-.5L59 2.8c.2-.1.5.1.5.3.4 1.4 1.6 5.8 2.1 7.7.1.4 0 .9-.4 1.2-2 1.4-3 3.9-2.3 6.4.7 2.4 2.7 4 5 4.3.6.1 1.1.5 1.3 1l2 7.5c.2.1.1.3-.1.4"/><path transform="rotate(-15.343 50.685 24.794)" clip-path="url(#b)" fill="#FFF" d="M49.6 23.7h2.1v2.2h-2.1z"/><path transform="rotate(-15.334 51.755 28.7)" clip-path="url(#b)" fill="#FFF" d="M50.7 27.6h2.1v2.2h-2.1z"/><path transform="rotate(-105.326 52.833 32.618)" clip-path="url(#b)" fill="#FFF" d="M51.7 31.6h2.2v2.1h-2.2z"/><path transform="rotate(-15.343 46.395 9.15)" clip-path="url(#b)" fill="#FFF" d="M45.3 8h2.1v2.2h-2.1z"/><path transform="rotate(-15.343 47.467 13.06)" clip-path="url(#b)" fill="#FFF" d="M46.4 11.9h2.1v2.2h-2.1z"/><path transform="rotate(-15.343 49.612 20.882)" clip-path="url(#b)" fill="#FFF" d="M48.6 19.8h2.1V22h-2.1z"/><path transform="rotate(-15.343 48.54 16.972)" clip-path="url(#b)" fill="#FFF" d="M47.5 15.9h2.1v2.2h-2.1z"/><path clip-path="url(#b)" fill="#FFF" d="M40.9 14.6c-.2-.5-.7-.9-1.3-.7l-26.9 7.4c-.5.2-.9.7-.7 1.3l4.4 16.1c.2.5.7.9 1.3.7L44.6 32c.5-.1.9-.7.7-1.3l-4.4-16.1zm1.7 15.7l-23.9 6.5c-.2.1-.5-.1-.6-.3l-3.6-13.1c-.1-.2.1-.5.3-.6l23.9-6.5c.2-.1.5.1.6.3l3.6 13.1c.1.3-.1.6-.3.6"/></svg>