<svg xmlns="http://www.w3.org/2000/svg" xmlns:xlink="http://www.w3.org/1999/xlink" viewBox="0 0 47 49.7"><defs><path id="a" d="M0 0h47v49.7H0z"/></defs><clipPath id="b"><use xlink:href="#a" overflow="visible"/></clipPath><path clip-path="url(#b)" fill="#FDFEFE" d="M23.5 13.3c3.7 0 6.7-3 6.7-6.7s-3-6.7-6.7-6.7-6.7 3-6.7 6.7c.1 3.7 3.1 6.7 6.7 6.7m0-10.9c2.4 0 4.3 1.9 4.3 4.3S25.9 11 23.5 11s-4.3-1.9-4.3-4.3c.1-2.4 2-4.3 4.3-4.3M38.3 18.9c3.7 0 6.7-3 6.7-6.7s-3-6.7-6.7-6.7-6.7 3-6.7 6.7c.1 3.7 3.1 6.7 6.7 6.7m0-10.9c2.4 0 4.3 1.9 4.3 4.3s-1.9 4.3-4.3 4.3-4.3-1.9-4.3-4.3c.1-2.4 2-4.3 4.3-4.3M8.7 18.9c3.7 0 6.7-3 6.7-6.7s-3-6.7-6.7-6.7C5 5.6 2 8.6 2 12.2c0 3.7 3 6.7 6.7 6.7M8.7 8c2.4 0 4.3 1.9 4.3 4.3s-1.9 4.3-4.3 4.3-4.3-1.9-4.3-4.3S6.3 8 8.7 8M47 33.9v-6.7c0-1.5-.6-2.8-1.6-3.9-1-1-2.4-1.6-3.9-1.6h-8.1v-.2c0-1.5-.6-2.8-1.6-3.9-1-1-2.4-1.6-3.9-1.6h-8.8c-3 0-5.5 2.5-5.5 5.5v.2H5.5c-1.5 0-2.8.6-3.9 1.6-1 1-1.6 2.4-1.6 3.9v6.7c0 1.5.6 2.8 1.6 3.9.7.7 1.7 1.3 2.7 1.5v9.2c0 .3.1.6.3.8.2.2.5.4.9.4h36.1c.3 0 .6-.1.8-.4.2-.2.4-.5.4-.8v-9.2c1-.2 1.9-.7 2.7-1.5 1-1.1 1.5-2.5 1.5-3.9M19.1 18.4h8.8c.8 0 1.6.3 2.2.9.6.6.9 1.4.9 2.2v9.8c0 .8-.3 1.6-.9 2.2-.6.6-1.4.9-2.2.9-.3 0-.6.1-.8.4-.2.2-.4.5-.4.8v11.8h-6.4V35.7c0-.3-.1-.6-.4-.8-.2-.2-.5-.4-.8-.4-.8 0-1.6-.3-2.2-.9-.6-.6-.9-1.4-.9-2.2v-9.8c0-1.9 1.4-3.2 3.1-3.2m12.5 28.9h-2.5V38c.7.6 1.5 1.1 2.5 1.3v8zm-16.1-8c.9-.2 1.8-.7 2.5-1.3v9.3h-2.5v-8zm-9.2-2c-.2-.2-.5-.3-.8-.3-.8 0-1.6-.3-2.2-.9s-.9-1.4-.9-2.2v-6.7c0-.8.3-1.6.9-2.2.6-.6 1.4-.9 2.2-.9h8.1v7.2c0 1.5.6 2.8 1.6 3.9.4.4.8.7 1.2.9-.6.6-1.3.9-2.2.9-.3 0-.6.1-.8.4-.2.2-.4.5-.4.8v9.1H6.7v-9.1c0-.3-.1-.6-.4-.9m37.4-1.2c-.6.6-1.4.9-2.2.9-.3 0-.6.1-.8.4-.2.2-.4.5-.4.8v9.1H34v-9.1c0-.3-.1-.6-.4-.8-.2-.2-.5-.4-.8-.4-.9 0-1.6-.4-2.2-1 .4-.2.8-.5 1.2-.9 1-1 1.6-2.4 1.6-3.9V24h8.1c.8 0 1.6.3 2.2.9.6.6.9 1.4.9 2.2v6.7c0 .9-.3 1.7-.9 2.3"/></svg>