<svg id="All" xmlns="http://www.w3.org/2000/svg" viewBox="0 0 576.3 440"><style>.st0{fill:none;} .st1{fill:#808080;} .st2{fill:#B3B3B3;} .st3{fill:#FFFFFF;} .st4{fill:#C8CCCE;} .st5{fill:#00A1DF;}</style><path class="st0" d="M496.7 301.1c0 .1 0 .1.1.2s-.1.4-.3.5c.3.2 1 .8 1.6 1.4.2-.1.3-.3.5-.4-.8-1-1.9-1.7-1.9-1.7zM356.8 150.9l4.8 1.1c1.6.5 5.4 1.6 5.9 1.6h3.1l2.2 1 1.1 1.9v3.5h1.8l.8 5 .4-.1c.1-.3.2-.5.3-.8l-.8-5h-1.7v-2.8l-1.3-2.4-2.5-1.2h-3.3c-.4 0-3.5-.9-5.6-1.6l-4.8-1.1-4-1.3-1.9-3.8-.4.2c-.1.1-.3.1-.4.2l2.1 4.2 4.2 1.4zM546.8 161.1h-.2c-1.4 0-1.9.1-2.6 1.6-.1.2-.1.4-.2.6-.2.6-.3.8-.8.9h-.6c-.3 0-.7 0-1.3.2-.2.1-.3.2-.5.3l-.2.2c-.1.1-.6.3-.8.3s-.3.1-.5.2-.4.2-.6.2c-.4.1-.9.1-1.3.1H536c-.5.1-.9.2-1.3.4-.3.1-.5.2-.7.3h-.9c-.1 0-.2 0-.3-.1 0-.1 0-.2-.1-.3-.1-.5-.1-1.3 0-1.9v-1-1c.1-1.3.1-2.8-.6-3.8-.5-.7-.6-.9-.6-1.8v-.6c0-.6 0-1.2.1-1.7.1-.8.1-1.6.1-2.4 0-.8 0-1.7.1-2.4.1-.6.3-1.2.5-1.9.3-.8.5-1.6.6-2.5v-.6c0-.3-.1-.5.1-.7.1-.2.3-.3.6-.5.2-.1.4-.3.6-.5.7-.7 1.6-1.8 1-3.4v-.1c-.2-.3-.4-.5-.5-.7-.2-.2-.4-.4-.5-.7 0-.2-.1-.3-.1-.5 0-.1-.1-.3-.1-.3v-2.5l-.1-1.9h-.4c-.1.5-.2.8-.4 1.2V136.9c0 .2.1.4.1.6 0 .1.1.3.1.3v.1c.2.5.4.8.7 1.1.1.2.3.3.4.5.3.8.1 1.5-.8 2.4-.1.1-.3.2-.5.3-.3.2-.6.4-.8.7-.4.5-.3 1-.2 1.3v.4c0 .8-.3 1.5-.5 2.3-.2.7-.4 1.3-.5 2-.1.8-.1 1.7-.1 2.6 0 .8 0 1.6-.1 2.3-.1.6-.1 1.2-.1 1.9v.6c0 1.1.1 1.5.7 2.3.5.8.5 2.1.4 3.3v2.1c-.1.7-.1 1.5.1 2.2 0 .2.1.3.1.4v.1l-6.6 1.8c0-.2-.1-.3-.1-.5-.1-.4-.2-.7-.2-1.1V165.5c-.1-.3-.2-.6-.3-.8-.2-.6-.4-1.2-.4-1.9 0-.3-.1-.5-.1-.6-.1-.2-.1-.4-.1-.7 0-.4-.2-.7-.3-1-.1-.1-.1-.2-.2-.3-.1-.1-.1-.4-.1-.6 0-.3 0-.7-.1-1.1-.2-.7-.7-1.4-1.3-2-1-.8-1.4-1.4-1.8-2.8V152c0-.7-.2-1.6-.5-2.5-.2-.9-.5-1.9-1.4-2.6-.1-.1-.2-.2-.4-.3-.3-.3-.5-.4-.6-.8 0-.1-.1-.3-.2-.5-.2-.6-.5-1.3-.5-2.1v-.6c0-.6-.1-1.5.2-1.9l.1-.2-.3-1.3-.4.1c-.2 0-.3.1-.5.2l.2.9c-.3.6-.3 1.5-.2 2.2v.5c0 1 .3 1.7.5 2.4.1.2.1.3.2.4.2.6.6.9.9 1.2.1.1.2.2.4.3.8.6.9 1.3 1.2 2.2.2.8.4 1.7.4 2.3V153.8c.5 1.6.9 2.4 2.1 3.3.4.4.8 1 1 1.6.1.3.1.6.1.8 0 .3 0 .7.2 1 .1.1.1.2.2.3.1.3.2.4.2.6 0 .4.1.7.1.9s.1.3.1.4c0 .8.2 1.6.4 2.2.1.2.2.5.2.7v1.3c0 .5.1 1 .3 1.4.1.3.2.6.2.8v.2c.3.7.3 1.8.2 2.8v2.8c-.1 1.4-.1 2.8 0 3.9 0 .6.2 1 .4 1.3 0 .1.1.2.1.2l.1.1c.4.4.6.6.8.9v2c0 .9-.1 2 .2 3 0 .3 0 .7.3 1.2l.1.1.1.1c.3.2.5.3.6.6 0 .3.1.5.2.7 0 .1.1.2.1.2v.2c.2.5.4 1 .4 1.4 0 .1-.1.2-.2.3-.1.1-.2.2-.2.3-.4.4-.6.7-.9 1.1l-.3.6 1.7.2c.1-.1.2-.3.3-.4l.1-.4-.6-.1c.1-.1.2-.3.4-.4l.1-.1v-.1l.1-.1c.1-.2.4-.5.4-.9 0-.5-.2-1.2-.5-1.7 0-.1-.1-.2-.1-.4-.1-.2-.1-.4-.1-.6v-.2c-.2-.5-.5-.8-.9-1-.1-.3-.1-.6-.1-.8v-.1c-.3-.9-.3-1.9-.2-2.8v-2.4c-.2-.5-.5-.7-.9-1.2 0-.1-.1-.1-.1-.2-.1-.2-.2-.3-.2-.5l1.9-.2c.7 0 1.3-.3 1.7-.6.1 0 .1-.1.2-.1.7 0 1.1 0 1.6-.3.6-.3 1-.4 1.5-.5.2 0 .4-.1.6-.1.4 0 .7-.1 1.1-.2.3-.1.6-.2.9-.2l2.1-.7c.4-.1 1-.3 1.6-.4.5-.2 1.1-.3 1.5-.4.7 0 1.3 0 1.9-.1l2.5 8.9.4-.1c.1 0 .3-.1.4-.1l-2.5-8.9c.3-.1.5-.3.8-.4.1-.1.3-.2.4-.3.2 0 .3-.1.5-.2.6-.2.9-.3 1.2 0 .1.2.3.5.4.7.2.3.3.5.5.8 0 0 1.3 1.9 2.6 2.2v.5c.1.1.3.2.4.3h.4v-1.9l-.5.1c-.5.1-1.6-.9-2.2-1.8-.1-.2-.3-.5-.5-.8s-.3-.5-.4-.7l-.1-.1c-.7-.7-1.5-.5-2.1-.3-.2.1-.3.1-.5.1h-.1l-.6.3c-.3.2-.6.4-.9.5-.6.2-1.2.2-2.1.2h-.1c-.4.1-1 .3-1.6.4-.5.2-1.1.3-1.6.4l-1.9.6c-.4 0-.7.1-1.1.2-.3.1-.6.2-.9.2h-.1c-.2.1-.4.1-.6.1-.5.1-1 .2-1.7.6-.4.2-.7.2-1.4.2h-.2c-.1 0-.2.1-.3.1-.4.2-.9.5-1.3.5l-2 .2c-.1-1.1-.1-2.3 0-3.4v-1.9-1c0-.9.1-1.9-.1-2.7l7.5-2.1h.5s.5 0 .6-.1l.9-.3c.3-.1.7-.3 1-.3h1.1c.5 0 1 0 1.6-.1.2 0 .5-.1.7-.2.2-.1.3-.1.5-.2s.8-.3 1-.4c.1-.1.2-.2.4-.3.1-.1.2-.2.3-.2.4-.2.6-.2.8-.2h.8c1.1-.1 1.3-.9 1.5-1.5.1-.2.1-.3.2-.5.4-1.1.5-1.1 1.7-1.1h.3l2.2-.9c-.1-.1-.1-.2-.2-.4l-.2-.4-2.2 1.7z"/><path class="st0" d="M536.7 128.8h-.5l-.4.2 9.4 25.9v.1l3.8 2.7.3-.4v-.5l-3.4-2.4-9.2-25.6z"/><path class="st1" d="M500.5 410.6c-.1-1.9 0-3.7-.2-5.5-.1-1.2-.4-2-.9-3.1-.4-.9-.6-1.6-.8-2.6-.6-2-2.2-4.1-3.4-5.8-.6-.8-1.3-1.5-1.9-2.3-.7-1.1-1.3-2.3-2.1-3.3-1.2-1.6-.3-3.6-.9-5.5-.4-1.1-.5-2-1.3-2.8-.6-.7-1.2-1.3-1.8-1.9-1.3-1.3-2.6-3-3.3-4.7-.5-1.4-1.4-2.3-2.2-3.5-.8-1.1-1.5-2.3-2.2-3.4-1.2-1.9-1.9-3.9-2.6-5.9-1.1-2.9-2.7-5.5-4.3-8.1v.4l-5.3.6v4.7l-2.3 2-1.9-2.6-9.5.2-18.6 1.1h-3.3l-.1-.1c-.9-.9-1.3-2-1.4-2.4v-.7l-30.2 4.3v1.9l3.1 2.7v4.5c1.1-.4 2-1.1 3.1-1.5 1.1-.3 2.2-.1 3.3-.3 1.2-.1 2.4-.3 3.6-.6.6-.1 1.1-.1 1.7-.1.5-.1 1.1-.5 1.6-.5 1.3-.1 3.3 1.5 4.5 2 1.7.7 3.5 1.1 5.1 2 1 .6 1.7 1.3 2.3 2.2.6 1 .9 1.8 1.9 2.5.9.5 1.7.6 2.4-.1.5-.4 1.1-1.8 1.9-1.2-.1.8-1.2 1.2-1.2 1.9 1.4-.4 2.7-1.1 3.9-2 .9-.7.4-1.6 1.1-2.4.5-.6 1.2-1 1.7-1.6s.8-1.6 1.4-2.1c.5-.5 1.3-.8 2-1 1.3-.5 2.8-.2 3.8.9.9.9 1.4 1.6 2.4 2.3.6.5 1.2.5 1.8.9.1 0 .6.6.7.7.4.4.7.9 1.1 1.4.7 1 1.4 2 2.2 2.9.6.8 1.2 1.4 2.1 1.8.2.1.8.3 1 .4.5.2.9.3 1.4.5 1.2.6 2.2 2.1 3.1 3 1 1.1 1 2.7 1 4.1 0 1.6.1 3.3 0 4.9 0 .9-.5 1.5-.6 2.3-.2.8 0 1.7 0 2.6 0 1.5.4 3.2 2.2 2.2.6-.4.7-.9 1.6-.8 1.3 0 1 .9.5 1.7-.4.7-.8.9-.7 1.8.1.7.4 1.2.8 1.7.7 1.1 1.6 2.1 2.1 3.4.3.6.3 1.4.6 2 .4.7 1 1.1 1.3 1.8.2.5.3 1.1 1.1.9 1-.2 1.3-2.5 2.6-2 .1.6 0 1.2-.2 1.8-.2.5-.8 1-.9 1.5-.1.9.9 1.6 1.6 2 .8.6 1.3 1 2.2 1.3.4.1 1.2.3 1.5.7.3.4.1 1.2.3 1.6.2.5.4.9.6 1.5.2.5.3.9.9 1.2.7.3 1.3.3 2 .7.6.3 1 .6 1.6.8 2.1.7 3.3 3 4.9 4.5.6.6 2 1 1.5 2-.3.5-.6.2-.7 1 0 .7 0 .9.7 1.1.9.2 1.8-.5 2.6-.6 1.2-.2 2.1-.3 3.1-.8 1.1-.6 2-1.1 3-2.1.9-.9 1.1-1.1 1.1-2.5 0-.9-.1-2 0-2.9.2-1 1-1.7.9-2.8-.1-1.2-.7-2.3-.9-3.6-.5-1.3-.8-2.2-.8-3.2z"/><path class="st2" d="M376.9 372.2l.4-.3c-.2 0-.3.1-.4.1v.2zM390.9 369.2h-.4.4zM143.1 353.9h.4-.4zM173.6 351.3h-.5.5zM402 368.7zM472.2 351.7c.1.1.2.3.3.4v-.4h-.3zM402.9 368.7v-.1c-.1 0-.3.1-.4.1h.4zM326.3 382.7c-.2 0-.3 0-.4.1l.4-.1zM365.9 111.6c0-.1 0-.1.1-.2h-.3l.2.2zM360.8 117.7c-.6.6 0 .3 0 0zM375.2 170.2zM375.1 171c.1-.2.2-.4.4-.7 0 0-.1 0-.1-.1h-.2c0 .2-.1.5-.1.8zM375.5 170.3zM375.3 170.2h-.1.1c.1 0 .1 0 0 0zM375.4 170.2s.1.1 0 0c.1.1 0 0 0 0z"/><path class="st0" d="M482.6 163.2l-.1.2c.1 0 .2 0 .3-.1-.1 0-.2-.1-.2-.1z"/><path class="st1" d="M305.4 107.4l-.5 4.4c.6.7 1.3 1.9 1.3 1.9.2.4.2.8.3 1.1 0 .2.1.4.1.6.1.2.1.3.2.4s.3.3.4.5.2.5.3.6c.1.2.1.3.2.4.2.2.4.2.8.2.3 0 .7 0 1.1.2.4.1.7.3 1.1.5.3.2.6.3.9.4.4.1.7.1 1.2.1.4 0 .8 0 1.3.1.7.2 1 .5 1.2.7.1.1.1.2.3.2.4.2.7 0 1.5-.9.5-.5 1-1.1 1.7-1.2 1-.2 1.6.5 2.1.9l.2.2.2.2c.3.3.3.3.7.2.2 0 .3-.1.4-.1.8-.2 1 0 1.7.5l.3.3c.1 0 .1.1.1.1h.8c1 0 2.3 0 3.1.8.2.2.4.5.5.8h.6c.8-.1 1.7-.2 2.7.5.7.4 1.1.9 1.6 1.3.7.7 1.3 1.2 2.4 1.4.8.2.9.1 1.4-.3l.1-.1c.3-.2.6-.5.9-.7l.1-.1c.1-.1.3-.1.4-.2 0-.2.1-.4.3-.6.8-.7 2.3-1.1 3.5-.6.6.2 1 .6 1.2 1.1.3 0 .7-.1 1.1-.1.5-.1.9-.1 1.4-.1h2.9s1.8.3 2.5.6h.1c1.4-.3 2.4-.4 3-1.7.2-.5.2-1.2.2-2 0-1-.1-2.2.5-3.1.8-1.2 1.6-1.4 2.9-1.4.8 0 1.4.5 1.8.8.1.1.3.2.3.2h.2c.1-.1.1-.1.1-.3 0-.2.1-.5.2-.8 0-.1.1-.2.1-.4.1-.4.1-.8.5-1.2.8-.9 1.8-1 2.6-1 .2 0 .4 0 .6.1-.1-.2-.2-.3-.4-.5-.5-.4-.7-1-.4-1.7.2-.7.8-1.1 1.5-1.1h.2c2.5.1 4.9.1 7.4.7 1.3.3 2.5.3 3.9.3 1.1 0 2.2 0 3.4.2 3.6.5 5 3.2 5.9 5.5.5 1.3 1.1 2.7 2.5 3.8 1.7 1.3 2.9 1.1 4.7.8l1.5-.3c1.5-.2 2.6 0 3.3.7.6.5 1 1.4 1 2.4 0 1.3-.3 2-.6 2.4 0 0 0 .1-.1.1.1.2 1.3 1.2 1.8 1.7.2.2.4.3.6.5.5.3 1 .7 1.5 1.5.5.9.5 1.9.6 2.6 0 .8 0 1.5.6 2.1l.7.7c.4.3.6.5 1.1 1.4.1.2.3.4.3.7.1.1.3.4.6.9 1.4 2 3.5 2.4 5.8 2.7 2.7.3 5.5.3 8 .3h.9c.9 0 1.8 0 2.6-.1 2-.1 4.1-.1 6.2.1.2 0 .4.1 1 .2 2.2.6 3.1.7 3.4.7.2-.4.6-.7 1.1-.8.2 0 .4 0 .5-.1h.1c1.8-.3 3.9-.6 5.8.4 1.4.7 2.5 1.9 3.6 3.1.6.7 1.2 1.3 1.8 1.8 1.8 1.5 3.4 3.3 4.9 4.9.4.5.8.9 1.3 1.4l.3.3c.9.9 1.8 1.9 2 3.5.1.5-.1 1-.6 1.3-.4.3-.8.4-1.3.3.1.6.3 1.3.1 2 0 .1-.1.2-.1.3-.1.4-.3 1-.8 1.5-1 .7-2.1.6-3 .4h-.2c-.2 0-.7-.2-2.9-1-.6-.2-1.3-.5-1.8-.6-.1.2-.3.4-.6.5-.5.2-1 .2-1.5 0-.7-.4-1.3-1-2-1.7.4 1.3.5 2.5.3 3.4s-.6 1.5-1.1 2.2c-.4.5-.7 1-.8 1.5-.4 1.5.1 3.5.5 5.2.1.3.1.5.2.7 1.1 4.9 1.6 8.6-2.7 11.9-1.1.9-2.5 1.2-3.7 1.5 0 .5-.1.9-.2 1.3s-.2.7-.2 1.1c-.1.4-.1.7-.2 1.1-.1.5-.3.9-.4 1.2-.2.5-.4.9-.4 1.3-.2 2-.5 2.8-2.4 3.8-1.2.6-1.6 1.2-1.6 1.3 0 .2.1.3.4.7l.3.3H430.6c.7 0 1.6 0 2-.1h.2l.3-.3c.4-.2.5-.4.8-.8.1-.2.3-.5.6-.8.9-.9 1.3-1.1 2.2-1.4.3-.1.6-.2 1.1-.4 1.7-.7 2.5-2 3.4-3.4.8-1.2 1.6-2.5 3-3.4s2.7-.9 4-1c.4 0 .8 0 1.2-.1 1.9-.2 2.7-.2 3.9-1.5 0 0 .1-.2.1-.3.1-.3.2-.6.5-.8 1.7-1.7 4-3.1 6.6-4 .2-.1.7-.2 1.3-.3 1.1-.3 2.9-.7 4.4-1.2-.4-.6-.5-1.1-.5-1.8h-.6c-.7.1-1.3.3-1.9.5-.5.2-1.1.4-1.6.5-1.9.4-3.3.1-3.9-.8-.7-1-.6-2.6.5-4.7 1.5-2.8 4.1-5.6 7.1-7.3 2.2-1.3 4.2-2.1 6.4-2.6.9-.2 1.8-.6 2.7-.9 1.6-.6 3.2-1.3 5-1.1 1 .1 1.8.5 2.4.8.3.2.6.3.9.4v-.2c-.1-.4-.2-1 .1-1.8.4-.9 2.1-2.7 3-3.3.9-.5 1.4-.5 2-.3.2 0 .4.1.6.1h1.5c.4-.4.9-.7 1.3-.9.2-.1.4-.2.5-.3 1.2-.8 1.5-1.9 1.9-3.3.2-.9.5-1.8 1-2.7.4-.6.8-1 1.2-1.4.3-.3.6-.6.8-.9.7-1.1 1.5-2.1 2.4-2.9 1.5-1.3 3.3-1.7 5.1-2.1.5-.1 1-.2 1.5-.4.1 0 .2 0 .3-.1v-2.2c-.3-.4-.4-.9-.4-1.3 0-.1-.1-.3-.1-.4-.2-.4-.3-.8-.3-1.1 0-.2-.1-.4-.1-.5v-.1c-.3-.8-.7-1.1-1.8-1.5-.9-.4-1.9-.4-2.9-.4-.9 0-2 .8-3 1.5-.2.2-.5.3-.7.5-.1.1-.3.2-.4.4-.3.2-.5.4-.7.7l-.1.1-.4 1.5c-.2.1-.3.3-.4.4-.3.4-.7.8-1.4 1-.6.2-1 .4-1.4.6-1.4.6-2.3-.3-2.7-.7-.1-.1-.2-.2-.3-.2l-.1.1-.2.1c-.7.4-1.2.4-1.7.4h-1.6c-.3 0-.6-.1-.9-.1-.3-.1-.6-.1-.9-.1-1.5 0-2.1-.9-2.5-1.5l-.1-.2c-.1-.3-.2-.4-.3-.6-.2-.4-.3-.7-.4-.8-.4 0-.7 0-.8.1 0 .1-.1.1-.1.2-.4.5-1 1.4-2.6 1.1h-.1c-1.4-.6-2.1-1.2-2.8-2.4-.2-.5-.6-.9-2-.9h-2.3l-.3-.1c-.4-.2-.9-.3-1-.3-.3 0-.6.1-.9.2-.4.1-.9.3-1.6.3h-1.5c-1.3.2-2.4.3-3.9-.9-.4-.4-1-.7-1.5-1.1-.6-.3-1.2-.7-1.7-1.1-1.8-1.6-3.3-3.4-4.5-5.7-.8-1.1-1.8-2.6-2.5-4l-.1-.2c-.7-1.2-1.5-2.5-1.5-3.9l-3.1-12.3-1.8-11.7-4-18.3-1.2-6.1c-1.6 1.7-3.7.8-5.2.2-2.7-1.1-3.1-2.3-3.6-3.6-.3-.7-.6-1.5-1.4-2.5-1.2-1.4-3.1-2.2-5-3-2-.8-4.1-1.7-5.6-3.4-.6-.8-1.1-1.6-1.5-2.4-.5-1-.9-1.9-1.7-2.6-.4-.4-1-.8-1.6-1.2-1.4-1-3-2.1-3.5-3.7-.3-1-.2-2 0-2.9.1-.6.2-1.1.1-1.5-.1-.9-.2-1.8-.4-2.6-.2-.9-.4-1.9-.5-3-.1-1.6-.7-2.4-1.6-3.4-.5-.6-1.1-1.3-1.5-2.2-.7-1.4-.5-3-.3-4.4.1-.5.1-1 .1-1.4 0-1-.1-2.1-.2-3.1s-.2-2-.2-3.1c0-.3.1-.6.1-.9 0-.2.1-.5.1-.6-1-.5-3.5-.2-5.1 0-.8.1-1.4.2-2 .2h-3.4c-1.9-.1-3.8-.1-5.5.2l-1.5.3c-1.3.3-2.6.7-4.1.4-1.4-.3-2.7-1-3.9-1.7-.4-.2-.9-.5-1.3-.7-.7-.3-1.4-.7-2-1-3.9-2-8-4-12.3-4.8-3.5-.7-5.3-2.2-7.4-4.2-.7-.6-1.3-1.2-2.1-1.8-1.8-1.4-3.7-2.9-5.9-3.9-.4-.2-.9-.4-1.4-.5l-33.4 47.3-13 13.5 1.5 47 3.3-.9z"/><path class="st3" d="M482.5 163.1zM483.1 162.6z"/><path class="st2" d="M300.8 108.4l-.4.4c0-.3.1-.5.4-.7v-.1c-.4.1-.8.3-.8.8 0 .4.4.8.8.8v-.8-.4zM301.9 108.3s0 .1 0 0c0 .1 0 0 0 0z"/><path class="st2" d="M300.4 108.7c.1-.1.2-.2.4-.3v-.3c-.3.1-.4.3-.4.6zM302 108.6c0-.1 0-.1-.1-.2 0 .1.1.1.1.2zM301.1 107.9h-.3v.1c.1 0 .2 0 .3-.1z"/><path class="st2" d="M301.1 107.9h.1l-.4.4v.4l.4-.1.8-.1c0-.1 0-.2-.1-.2 0 0 0-.1-.1-.1-.1-.2-.4-.3-.7-.3z"/><path class="st2" d="M301.1 107.9c-.1 0-.2 0-.3.1v.3l.4-.4h-.1z"/><path class="st2" d="M301.9 108.3c-.1-.2-.4-.4-.7-.4-.1 0-.3 0-.4.1h.3c.3-.1.6 0 .8.3zM301.2 108.7l-.4.1zM469.6 176.8c-.2-.2-1.8-.2-3.1-.1v.4c0 1.2 0 1.5.8 2.3.1.1.2.1.2.2 1.9-.8 3.1-1.7 2.1-2.8z"/><path class="st1" d="M325.2 381.7c-.5-.9-.5-2.2.4-2.7.3-.1.6-.2 1-.3.4-.1 1-.2 1.2-.3.5-.6-.2-1.5-.4-1.8-.2-.2-.3-.3-.4-.5-.5-.7-1.1-1.3-.8-2.6l.1-.5c.2-.6.4-1.3.8-1.9.3-.5.7-.9 1.1-1.3.3-.2.5-.5.7-.7.5-.9.4-2.2.4-3.5v-1-.4c0-.3.1-1.1-.1-1.3-.2-.2-1.1.1-1.7-.4-1.1-.5-1.2-1.9-1.4-3.1 0-.3-.1-.5-.1-.7-.1-.2-.2-.5-.2-.7-.1-.2-.1-.4-.2-.6-.2-.5-.6-.7-1-1-.2-.2-.5-.4-.7-.6-.6-.4-.9-1-1.2-1.7-.1-.1-.1-.3-.2-.4-.1-.4-.4-.7-.6-1.1-.2-.3-.5-.7-.7-1.2-.1-.3-.5-1.1-.5-2-.2-.8.3-1.2.7-1.6.3-.3.5-.5.6-.9l.1-.2c.3-.4.2-.9.2-1.4v-.5c0-.7-.1-1-.3-1.5l-.1-.3c-.5-1.2-.7-2.1-.7-3 0-.6.1-1.2.3-1.7.1-.4.2-.8.2-1.2v-.7c0-.7.1-1.4-.2-2l-.3-1.2c-.1-.4-.1-.7-.2-1-.1-.2-.2-.4-.2-.6 0-.1-.1-.3-.2-.5-.1-.3-.2-.5-.3-.8-.1-.2-.1-.4-.2-.6-.3-.6-1.5-.5-2.6-.4-.6.1-1.2.1-1.7 0-.7 0-1.1-.5-1.4-.9-.2-.2-.3-.4-.5-.5-.7-.7-1.3-.9-1.9-1.2-.2-.1-.5-.2-.7-.3l-.1-.1c-.1-.1-.3-.2-.4-.3-1.2-1-2.2-1.8-3.1-1.2-.1.1-.2.2-.3.4-.1.3-.3.5-.7.7-.5.3-.9.3-1.4 0-.5 0-1-.2-1.4-.4-.2-.1-.4-.2-.6-.2-.3 0-.6.2-.9.4-.1.1-.3.2-.4.2-.8.3-1.7.3-2.4.3h-1.3c-.5 0-1.1.6-1.5 1-.2.1-.3.2-.4.3-.6.4-1.3 1-2.1.5-.4-.2-.7-.5-.9-.8-.2-.2-.4-.5-.6-.5-.4-.2-.5-.1-.6 0-.2.2-.4.5-.6.9-.2.5-.5.8-.9.9-.7.1-1.2-.6-1.6-1-.1-.1-.2-.2-.3-.4-.4-.5-.7-.8-1.1-.8-.3.1-.6.4-.9.7-.3.4-.7.9-1.4 1-.3.1-.6.1-.7 0-.5-.2-.6-.7-.8-1.1-.1-.2-.2-.5-.2-.6-.2-.1-.4-.1-.9.2-.5.2-1 .5-1.6.2-.4-.2-.6-.5-.8-.8-.3-.3-.5-.6-.9-.7-.3-.1-.4.1-.8.6-.3.4-.8 1-1.5 1s-1.2-.7-1.7-1.4c-.2-.2-.3-.4-.4-.5-.2-.2-.3-.4-.4-.6-.3-.5-.7-1.2-1.2-1.5-.2 0-.5.1-.8.1-.4.1-.7.1-.9.1-.1 0-.1.1-.2.1-.3.2-.7.4-1.3.4-.4 0-.7-.2-1-.4-.1-.1-.2-.2-.4-.3l-.1-.1c-.8-.6-1.7-.6-2.8-.6h-.7c-1 0-1.9-.2-2.9-.7-.4-.3-.7-.6-1-.9s-.5-.5-.8-.7c-.4-.2-1-.4-1.7-.6-.9-.4-1.9-.4-3-.4-.7 0-1.5 0-2.2-.5-.9-.6-1.3-1.4-1.3-2.6v-25.8l-33-1.5-2.8 62.8-42.8-2.9v3c.2 0 .5-.1.7-.1 3.5-.9 2.4 3.1 4.5 4.9.3.3.8.6 1.2.8.9.6.7-.2 1.2 1.1.6 1.5.9 2 2.1 3 .9.9 2.1 1.6 3 2.4 1 1 1.7 2.2 2.7 3.3.5.5.9 1 1.5 1.4.5.4 1.7.6 2.1 1.2.3.5-.1 1.5 0 2.1.2.8.6 1.2 1.3 1.7s1 .3 1.1 1.2c.1.5-.2 1.6-.4 2-.1.3-.5.2-.6.6-.1.3 0 .9 0 1.2 0 1-.1 2 .2 3 .3.9 1.2 2.3 2.1 2.7.5.2 1.2-.2 1.7 0 .8.4.7 1.3 1 2 1.2 2.7 4.5 2.4 7 3.4 1.4.6 2 2 3.2 2.7 1 .6 3 .5 4.1.3-.1-1.3.7-1.8 1.5-2.7 1.1-1.1 1.1-2 1.3-3.5.2-1.4.6-2 1.6-2.7.6-.4 1-.7 1.6-1 .3-.1 1.3-.4 1.5-.5.4-.3.3-.9.6-1.1 1.5-1.5 1.7 0 2.5.9 1.1 1.2 3.1.9 4.6.9s3.1 0 4.4.9c1.5 1.1 1.4 3 3.8 3.3 1.6.2 2 .2 3 1.5.2.3.4 1.1.6 1.5.2.5.4.9.7 1.4.6 1 1.8 1.7 2.2 2.8.5 1.1.5 2.7.9 3.8.4 1.2 1.1 2.1 2 3 1.5 1.6.9 2.2 1.3 4.1.3 1.3 1.2 2.4 2.3 3.2 1.5 1 1.7 1.8 2.6 3.4.4.6.6 1 1.2 1.5.5.5.7.5 1.2.7.4.2 1.1.3 1.4.7 1 1.3.3 5 .6 6.6.1.8.3 1.9.6 2.5.5 1 1.2 1.8 1.7 2.8.7 1.4 1.7 4.1 3.1 5.2.5.4 2.1.6 2.7.7.8.1 2.8-.2 3.4.3.6.4.8 1.8 1.2 2.5.7 1.2 1.2 1.6 2.7 1.6 2.1.1 4.4-.6 5.8.9 1.5 1.5 2.6 2.7 4.8 2.3 0-.7.9-2 1.8-1.7.1.5-.1 1 0 1.5 0 .2.1.4.2.6.4-.7.7-1.7.7-2.3 0-1.1-.6-2.2-1.6-2.7-1.1-.6-1.4-.7-1.3-2.1 0-.8-.2-1.8.2-2.5.4-.8 1-.9.9-2-.1-.8-.8-1.1-1.1-1.8-.3-.5-.7-1.6-.8-2.2-.4-1.7 2.3-3.7.9-5.4-.5-.5-1.2-.4-1.8-.4 0 0-1.6-.2-1.2-.4 1.2-1 2.7.5 3.6-1.1.4-.8.7-1.4 1.2-2.1.6-.7.8-1.2.7-2.1-.7-.2-1.5-.1-1.8-.7-.2-.5.2-1.3.7-1.5.6-.3 1.1.2 1.6-.2.4-.3.5-1.1.6-1.6.2-1.4-.2-2.1 1.2-2.9 1-.5 2.3-.2 2.6-1.6.4-1.3-.2-2.1 1.6-1.4 1 .4 2.1.5 2.4-.7.4-1.2-.6-2 .9-2.6.5-.2 1.5-.5 2-.2.6.3.2.7.7 1 .7.5 2.7-.9 3.3-1.3 1.1-.7 2.1-1.4 3.3-2 .8-.4 1.9-.8 2.6-1.4.8-.6 1.5-1.5 2.1-2.2.3-.4.4-.4.6-.9.3-.7.2-1.1.9-1.6 1-.8 1.7-1.4 2.4-2.4.9-1.1 1.6-1.4.2-2.5-.8-.7-2.7-2.2-.7-2.4.9-.1 2.1-.2 2.9-.2.4 1.1-1.4 1.9-.4 3 .2.2 1.2.5 1.5.5.6 0 1.2-.3 1.7-.7 1-.8 1.5-1.4 2.8-1.8.7-.2 1.4-.5 2-1 .6-.4.7-.4 1.4-.6.5-.2 1-.3 1.5-.5l-.4.1-.3-1z"/><path class="st4" d="M373.3 361.7l-4.2 1h-17.7l-.1-.1c-1.5-.9-.3-3.3.4-4.9.2-.4.4-.9.5-1.1.1-.3.1-.7.1-1.2 0-.3 0-.7.1-1 .2-1.1.9-1.8 1.6-2.5l.3-.3c.6-.5 1.1-1 1.5-1.6.2-.3.4-.6.6-1 .2-.3.3-.6.5-.9.5-.7.8-1.3.6-2.1-.2-.6-.8-1.8-1.1-2.3-.1-.2-.3-.3-.5-.5-.4-.3-.8-.7-.8-1.6v-1.1c0-.6.1-1.2 0-1.7-.1-.3-.1-.5-.2-.7-.2-.6-.3-1.2-.3-2v-.2l-32.5 1.7c0 .3-.1.6-.2 1-.1.5-.2 1-.2 1.5 0 .8.2 1.6.6 2.7l.1.3c.2.5.4 1 .4 1.8v.5c0 .6.1 1.3-.3 1.9-.1.6-.5 1-.8 1.3-.4.4-.5.6-.5.9 0 .6.2 1.2.4 1.7.2.4.4.7.7 1 .3.4.6.8.7 1.2.1.1.1.2.2.4.3.6.5 1.1 1 1.4.3.3.5.4.7.6.4.3.9.7 1.2 1.3.1.3.2.5.3.8.1.2.1.4.2.6v.1c0 .2.1.5.1.8.1 1 .3 2.2.9 2.4l.1.1c.2.2 1.2-.1 1.8.4.5.5.4 1.4.4 2v1.2c0 1.4.1 2.8-.5 3.9-.2.4-.5.6-.8.9-.4.3-.7.7-.9 1.1-.4.5-.6 1.2-.7 1.7l-.1.4c-.1.8.2 1.2.7 1.8.1.1.2.3.4.5.6.6 1.2 1.9.4 3-.4.4-1.1.5-1.7.6-.3 0-.6.1-.7.2-.4.3-.4 1.1-.1 1.6l.1.2.2 1.2c3.3-1 6.8-1.5 10.2-.1 1.6.7 2.5 1.7 4.4 1.8 1.2.1 2.4 0 3.6 0 1 0 2.2-.3 2.6-1.3.3-.8-.4-2 .3-2.7.8-.8 2.6.4 3.2.9 1 .8 2.2 1.4 3.4 1.8 1.2.5 2.5.6 3.7 1.2.6.3.9.6 1.2 1.2.3.7.3 1.7 1.1 2 .7.3 1.5-.1 2.2.2.4.2.7.9 1.1 1.1.9.3 1.5-.6 2.1-1.1.8-.7 1.1-.7 2.2-.7 1.4.1 2.4.7 2.2 2.2 2.1.5 1.5-3 1.5-4.2 0-.9.2-1.5 1.1-1.8.7-.2 1.9-.1 2.6 0-.1 3.2 3.6 2.5 5.5 3.3.7.3 2.3 3 3.1 2.1.8-.9-1-3.1-1.5-3.7-1.3-1.6-1.9-.2-3.6-.7-1.2-.3-1.8-2-1.9-3.1-.1-1.3.2-1.6.9-2.5.8-1 .8-2.2.6-3.4-.7.3-.9.8-1.7.9-.6.1-1.4 0-2 0-.1-.4 0-.8-.1-1.2-1.8.6-2.9 2.1-4.8 2.1-1.2 0-1.6-.3-1.8-1.6-.1-.8-.1-2.1 0-2.9.2-1.2 1-.9 2.2-.9s1.7.1 2.9.6c.5.2 1.5.5 2.1.5.7 0 1.1-.5 1.8-.7.1 0 .1 0 .2-.1l-3.5-5.1v-5z"/><path class="st4" d="M390 362.2l-3.4-3.4.8-3.7 1.5-2.6-1.5-46.7-22.6 1.1c-.3.5-.8.9-1.3 1.3-.3.3-.6.5-.8.7-.1.1-.2.2-.3.4-.3.3-.5.7-1 1-.2.1-.4.2-.7.2-.2 0-.4.1-.5.2 0 .1.1.4.1.6.1.2.1.4.1.5.1.8-.1 1.5-.2 2.2-.3 1.2-1 2-1.7 2.8-.6.6-1.1 1.2-1.4 2 0 .1 0 .2-.1.3 0 .2-.1.4-.1.6-.1.2-.2.4-.3.5-.1.1-.2.3-.2.4-.1.2-.1.4-.1.7 0 .3 0 .6-.1.9-.2.7-.7 1.3-1.2 2-.3.4-.7.8-.8 1.2-.7 1.3-.3 2.2.1 3.3.3.7.5 1.4.6 2.2 0 .4 0 .8-.1 1.2 0 .5-.1 1.1 0 1.3h.1c.2.1.5.2.6.7.1.4.1.9 0 1.4v.5c0 .7.1 1.2.3 1.8.1.2.1.5.2.8.1.6.1 1.3 0 2v1c0 .5.2.7.5 1 .2.2.4.3.6.6.4.6 1.1 1.8 1.3 2.6.3 1.2-.1 2-.7 2.8-.2.3-.3.6-.5.9-.2.4-.4.7-.6 1.1-.5.7-1 1.2-1.6 1.7l-.3.3c-.6.6-1.2 1.1-1.3 2 0 .3-.1.6-.1 1 0 .5 0 .9-.2 1.4-.1.3-.3.7-.5 1.2-.5 1.1-1.5 3.1-.9 3.7H369l5.2-1.2v6.2l3.4 4.9-.4.3c1.3-.3 2.7-.3 3.8-.8.4-.2.8-.6 1.1-.8.2-.2.6-.8.9-1 1-.6 2.4 0 3.4.3 1.1.4 1.6.4 2.7-.1.5-.2.9-.3 1.3-.4h-.4v-7.1z"/><path class="st1" d="M98.9 267.3l-2.2 13H92l-2.6-.9-1.8 14h-.9l1.8 7.4 2.2 3.7-4.2 1.9v3.8l-2.4 3.3-2.5 1.6v3.4l1.9 2.3-2 3.8-2.5-.1v-.4l-.6 2.7 41.7 24 22.9 3.1 9.1-78.1c-20.1-2.1-39.9-4.9-53.2-8.5z"/><path class="st1" d="M81 323.8l1.5-2.8-1.7-2.1v-4.2l2.8-1.9 2.1-2.9v-4.1l3.8-1.7-1.8-3-2-8-46.2-66.6v-.2l9.7-39.3-41.9-11.5c-.2.7-.5 1.3-.8 2-.3.8-.2 1.7-.2 2.7-.1 1.5-.4 2.9-.7 4.4-.2 1.1-.8 2-1.4 3-.5.9-.6 1.2-.6 2.1 0 .5-.1.9-.2 1.4-.4 1.3-1 1-2 1.6-.9.6-1.3 1.6-1.3 2.7v4c0 .8.3 1.5.4 2.3s.3.9.6 1.5c.4.8.8 1.6 1.1 2.4.6 1.2.4 3.3-.2 4.5-.5.8-.8 1.2-.8 2.2v2.4c0 1.9.5 3.4 1.3 5 .4.9.8 1.7 1.2 2.6.3.7.8 1.2 1.1 1.8.8 1.8.7 3.4.7 5.3 0 1.1-.2 2.3 0 3.3.1.5.7 2 1.1 2.3.8.5 1.6-.7 2.2-1.1.5-.4 1-.3 1.3-.8.2-.3-.1-.8.3-1.1.4-.3 1.5.2 1.7.5.9 1.1-.2 2-.8 2.8-.6.9-.4 1.8-.5 2.9-1.2.2-2.4-.4-2.2 1.4.2 1.2 1.1 1.8 1.1 3.2 0 1-.1 1.2-.8 1.9-.5.6-.7 1-.5 1.8.3 1.3 2.2 1.5 3.5 1.6 0 .6.4.7.7 1.1.4.6.4 1.1.4 1.9 0 1.4-.1 1.5-1.1 2.3-1.5 1.2-1.2 2.9-.8 4.7.2.9.9 1.5 1.3 2.3.4.8.8 1.7 1 2.6.4 1.6.7 3.4 1.3 5 .6 1.7 2.1 3 2.8 4.6.5 1.2.2 2.5 1.1 3.6.6.8.8 1.4 1 2.3.3 1.1.2 1.7-.1 2.8-.2.8-1 2-.9 2.9s1.2 2.1 2 2.7c.6.4 1.3.7 2 .9.1 0 .6.1.8.2.3.1.6.5.9.6.6.3 1.3.1 1.9.3 1 .3 2.2 1.1 3.2 1.6 2 1 2.7 2.2 4.1 3.8.7.8 1.5 1.7 2.3 2.3.8.6 1.8.6 2.7 1.1 1.1.6 1.7 1.1 1.9 2.2.3 1.3 1.7 1.6 2.6 2.5 1.3 1.2 2.4 2.6 3.3 4.2.6 1 1.4 1.7 2.1 2.6.3.4.4.6.6 1.2.2.4.3.9.5 1.3 1 1.7 1.5 2.8 1.5 4.9 0 .9-.2 2 0 2.9.2 1 1.1 1.5 1.3 2.4 0 .2.1.4.1.6l26.7 2v-.4l1.9-.3z"/><path class="st4" d="M172.7 347.3l42.9 2.9 3.1-69.2c-14.6-.8-40.4-2.5-65.5-5.1L144 354h-.4l9.8 1.3.9-5.3c4 .3 8.1.7 12.1 1 2.2.2 4.6.6 6.8.3h-.4v-4h-.1z"/><path class="st1" d="M502.9 238.6c-.2-.1-.3-.2-.5-.2-.4-.1-1.1-.3-1.4-.2h-.4v-.4c-.2-2.1-.1-3.8.2-5v-.1c.1-.4.4-1.6.1-2-.2-.2-.3-.2-.9.2-.3.2-.7.5-1.1.4-.5-.1-.7-.4-.9-.7-.1-.1-.2-.2-.2-.3-.2-.2-.5-.2-.9-.1h-.3c-.2 0-.5.1-.8.1-1 .2-2 .3-2.5-.2s-.4-1.3-.4-2c0-.5.1-.9-.1-1.1-.1-.1-.3-.2-1.4-.1v.4c0 .8 0 1.7-.6 2.1-.4.3-1 .3-1.7.1-.6-.2-1.1-.6-1.5-1-.3-.2-.5-.5-.8-.6-.4-.2-1.1-.2-1.6-.2v1.1c.1.9.1 1.9-.4 2.7-.1.2-.4.4-.5.6-.2.1-.3.2-.4.4s-.2.5-.2.8c-.1.4-.1.9-.4 1.2-.2.4-.8.9-1.1 1.2l-.1.1c-.7.5-.9.6-1.3 1.4-.4.6-.8 1.2-1.1 1.7l-.3.5c-.2.3-.3.6-.4.9-.1.2-.1.4-.2.7-.5 1.4-2 1.9-3.2 2.4-.2.1-.4.1-.6.2h-.2c-.5 0-1.3.3-1.6.9-.2.3-.2.5-.3.8-.1.4-.1.8-.4 1.2-.7.7-1 1.1-1 1.8 0 1.1-.6 1.7-1.2 2.1-.1.1-.2.3-.3.4-.4.5-.4.6-.3.8s.3.3.4.4c.3.3.7.6.7 1.4 0 .6-.4 1.1-.8 1.5-.1.2-.3.3-.3.4-.2.3-.3.4-.4.6-.3.4-.5.7-.7 1.1l-.1.1c-.5.7-.8 1-1.6 1.3-.4.2-1 .6-1.4 1-1 1-2.6 2.3-4.2 2.8-.6.2-1.3.2-2 .2-.8 0-1.6 0-2.1.4-.1.1-.2.3-.3.5-.2.4-.5.8-1 1.1l-9.3 9.1c27.5-4 57-8.9 71.7-13.7l.1.4c.1-.3.3-.7.4-1.1.4-1.6-.6-4-2-4.8-1-.6-2.3-.4-3.1.2-.6.5-.8 1.4-1.5 1.7-.8.4-2.6 0-1.9-1.1.4-.7 1.3-.6 1.8-1.1 1.2-.9-.6-1.4-1.4-1.7-.7-.3-1.6-.4-1.2-1.4.2-.4.4-.5.8-.7.7-.3 1.7.1 2.3-.4.6-.6 0-1.5-.4-2-.6-.7-1.5-1-2.4-1.1-.7-.1-3-.6-3.3-1.3-.6-1.6 1.6 0 1.9.2.7.4 1.9.4 2.6.2.1-1.3.3-2.8-.7-3.7-.7-.6-1.4-.8-2.4-1s-1.6-.4-2.5-.8c-.7-.3-1.1-.7-1-1l-.5-.1c-.2-.2-.6-.4-1-.6z"/><path class="st1" d="M513.9 233.5l-4.9-16.1-36 7.7v4.9h.7l2.4-2.7 2.5-3.2 2.6 2.5 1.3-2.2 1.7-1.5h4.1l2.2 2.2.5.9c.8-.1 1.8-.2 2.3.4.4.5.3 1.1.3 1.7 0 .5-.1 1.1.2 1.3.2.2 1.3 0 1.7-.1.4-.1.7-.1.9-.1h.3c.5 0 .9 0 1.4.3.2.1.3.4.5.5.1.1.2.3.3.3.1 0 .3-.2.5-.3.5-.3 1.3-1 2.1 0 .6.7.2 2 .1 2.8v.1c-.3 1.1-.4 2.5-.2 4.3.5 0 1 .2 1.3.3l.6.3c.3.2.6.3 1 .3h.1l1.2.3-.1.4c.6-.1 1.5.3 2.2.2.8-.1 1-.3.9-1.2-.1-.8-.6-1.1-1.1-1.7-1.1-1.3-2.4-1.5-2.4-3.5 0-.4.1-.9 0-1.3-.1-.3-.7-.4-.9-.7-.4-.6-.2-1.2.1-1.7.5-.9 1.5-1.3 1.1-2.5-.2-.8-1-.9-.2-1.8.4-.5 1.3-1 1.8-1.5.4-.5.8-1.2 1.3-1.5-.1 2-.1 3.8.4 5.7.2.7.1 1.8.4 2.4.5 1 1.4.6 2.3.7-.4 1-1.7.7-1.5 1.8.1.6.8 1.2 1 1.8s.3 1.7.9 2.2c.8.6 1-.3 1.7-.3 1.2 0 .6 1.9 1 2.7.2.4.9 1.4 1.3 1.7.5.4.9.3 1.5.4.2 1-.4 1.6-.7 2.5-.4 1.1-.6 2-.6 3.2 0 .7-.2 5.5.6 5.6.7-1.4.6-3.2 1.3-4.7.7-1.7 1.2-2.8 1.2-4.6 0-1.3 0-2.8.5-4 .1-.2.5-.8.7-1.1.1-.3.5-.6.6-.9.3-.5.7-1.1.9-1.8.3-.9.4-1.8.4-2.6l-3.2 1.3-5.1-.1z"/><path class="st4" d="M398.9 361.7v-3l30.8-4.4c-.1-.2-.2-.3-.3-.5-.5-.5-1-1-1-1.6v-1.1-1c0-1 .1-2-.2-2.8-.5-.7-.7-1.2-.7-2V344c0-.9.1-1.8.1-2.7.1-.9.1-1.8.1-2.6s-.2-2-.6-2.8l-.2-.2c-1.3-1.3-2.6-2.7-2.2-3.7l-9.8-30.5-26.8 4.3 1.5 47-1.6 2.7-.6 3 3.3 3.3v7.3h1.2c.6 0 1.9.3 2.4-.1.9-.8-.1-3.8 0-4.9 1.4-.5 1.9 2.9 2.5 3.7.4.7.4.2.3.9-.1.4-.7.9-.4 1.4.4.7 2 .1 2.5-.2.6-.3 1.1-1 1.7-1.2.3-.1.6 0 .9 0v-4.2l-2.9-2.8z"/><path class="st1" d="M513 219.1l-.8-1.5v-1.4c0-.9.4-1.3.8-1.6l-1.6.3-1.5 2.1 4.7 15.7h4.1l3.2-1.3.2.4c0-.5-.1-1-.1-1.5-.2-1.4-.8-1.7-1.8-2.7s-1.6-2.2-2.7-3.2c-.6-.5-1.2-1-1.9-1.5-.9-.7-.9-1-.8-2.2l-.4.3-1.4-1.9z"/><path class="st4" d="M471.6 349.4c-.1-.4-.3-.7-.4-1.1-.1-.9-.1-2 0-2.9.1-.7.3-1.3.6-1.8.4-.5.8-.6 1-1.4.1-.7-.2-1.5 0-2.2.1-.5.5-1 .7-1.4.2-.5.5-.8.7-1.4.2-.5.2-1.4.5-1.8.2-.3.6-.5.9-.8l-2.1-.9v-.3c0-.5-.3-.8-.7-1.2-.3-.3-.6-.6-.8-1-.3-.5-.3-1.1-.3-1.3 0-.6-.2-1.1-.5-1.5-.6-.8-1.4-1.4-2.6-2.2-1-.7-1.5-1.3-1.5-2.6 0-.6 0-1.2-.2-1.6-.3-1-1.1-1.4-2-1.9-.2-.1-.5-.3-.7-.4-.9-.4-1.8-.9-2.6-1.9l-.1-.1v-.1c0-.4 0-.5-.1-.6l-.1-.1v-.1c-.2-.7-.4-.9-.7-1.1l-.1-.1-.1-.1c-.1-.2-.2-.3-.2-.5-.1-.2-.1-.2-.2-.3-.4-.6-.8-.8-1.4-1-.5-.2-.9-.5-1.2-.8-.4-.4-.9-.7-1.5-.9-.5-.3-.9-.6-1.4-.8-1.5-.9-3.1-1.8-4.3-3-.7-.9-1.1-1.8-1.7-3-.1-.1-.1-.3-.2-.5s-.3-.6-.3-.7c-.3-.3-.7-.5-1.1-.6-.1-.1-.2-.1-.3-.1l-.5-.1c-.6-.2-1.1-.3-1.6-.3h-.2c-.2-.1-.3-.1-.5-.2-.3-.1-.5-.1-.7-.4-.8-.5-.8-1.4-.8-2.3v-2c-1.4.3-2.8.3-4.3.3H436.8c-.6 0-1.2-.1-1.7.1-.1 0-.2.1-.3.1-.2.1-.4.2-.7.3-.3.1-.6 0-.9 0h-1c-.7.1-1.5.2-1.9.5l-.1.1-14.5 2.2 9.9 30.8-.1.2c-.1.2-.1.8 1.9 2.7l.3.3c.5 1 .7 2.4.7 3.3s-.1 1.8-.1 2.7c-.1.9-.1 1.8-.1 2.6v1.3c0 .5.2.9.6 1.5v.1c.4.9.3 2.1.3 3.2v2.1c0 .3.4.7.8 1l.1.1c.1.2.2.4.3.5.1.2.2.4.4.6V355.8c.2.7.6 1.4 1.1 1.8h2.9l18.6-1.1 10-.2 1.6 2.2 1.3-1.1v-5.1l5.9-.6s0-.1-.1-.1c-.3-.8-.2-1.4-.4-2.2zM517 140.4l-.1.2c-.3.4-.2 1.3-.2 1.9v.6c0 .8.3 1.5.5 2.1.1.2.1.3.2.5.1.4.3.6.6.8.1.1.2.2.4.3 1 .7 1.2 1.7 1.4 2.6.2.9.5 1.8.5 2.5v1.7c.4 1.4.8 2 1.8 2.8.6.6 1 1.3 1.3 2 .1.4.1.8.1 1.1 0 .2 0 .5.1.6s.1.2.2.3c.2.3.3.6.3 1 0 .3.1.5.1.7.1.2.1.4.1.6 0 .7.2 1.3.4 1.9.1.3.2.6.3.8V166.8c0 .4.1.8.2 1.1.1.2.1.3.1.5l6.6-1.8v-.1c0-.1 0-.2-.1-.4-.2-.7-.1-1.4-.1-2.2v-1-1.1c.1-1.2.1-2.5-.4-3.3-.6-.8-.7-1.2-.7-2.3v-.6c0-.6 0-1.2.1-1.9s.1-1.5.1-2.3 0-1.7.1-2.6c.1-.7.3-1.4.5-2 .3-.8.5-1.5.5-2.3v-.4c-.1-.4-.1-.8.2-1.3.2-.3.6-.5.8-.7.2-.1.4-.2.5-.3.9-.9 1.1-1.6.8-2.4-.2-.2-.3-.4-.4-.5-.3-.3-.5-.6-.7-1.1v-.1s-.1-.2-.1-.3c-.1-.2-.1-.4-.1-.6V133.7c-.9 1.4-2.9 1.5-4.9 2-.9.3-2 .5-2.9.8s-1.8 1-2.7 1.3c-1.1.4-2.1.4-3.3.5-.9.1-2 .3-2.9.6l.4-.1.4 1.6z"/><path class="st1" d="M388.7 211.1c-1.7 1.4-2.9.9-4-.3l2.4 35.5 1.1 4.1-1.9 6.6-1.7 3.2v3.9l-.1 1.7c.2-.2.5-.5.8-.7s.7-.4 1-.5.6-.2.9-.4l.2-.2c.1-.2.3-.5.7-.7.3-.1.6-.1.9-.1h.4c.8 0 1.5 0 2.2.3.4.2.8.5 1.1.8.6.6.9.7 1.2.6.4-.2.7-.8 1-1.4.4-.7.8-1.5 1.4-1.7l.4-.2.2.4c.2.4.6.8 1.1.9s.9 0 1.3-.3c.4-.4.7-1.1.8-2.2v-.5c0-.6 0-1.3.5-1.6.3-.2.8-.3 1.3-.1.7.2 1.2.8 1.7 1.4.4.5.8 1 1.2 1.1.1 0 .3.1.3 0 .2-.1.3-.7.4-1.1.1-.5.1-.9.4-1.3.3-.5.6-.9 1-1.3s.7-.9 1-1.3c.2-.3.4-.5.5-.8.5-.8 1.1-1.5 1.1-2.4 0-.3-.1-.5-.1-.7 0-.1-.1-.3-.1-.5-.1-.7-.1-1 0-1.5l.1-.5h.3c.7-.1 1.4 0 2.1.1.1 0 .3.1.5.2.4.1.6.2.8.1.2-.1.4-.3.5-.6.2-.3.4-.7.8-.9.1-.1.3-.1.8-.2h.3c.2 0 .3-.1.5-.1.1 0 .3-.1.4-.1 0-.4.1-.8-.1-1.1-.1-.1-.1-.1-.3-.1-.2-.1-.6-.2-.8-.6-.2-.4-.2-.8 0-1.2s.6-.7 1-.9l-5.7-35.6c-9.6 1.1-19.6 2.1-19.8 2.1v-.4c-.4.1-1.4.5-2 1.1zM523.8 196.9c-.1-.3-.2-.5-.4-.7-.2-.3-.4-.6-.5-1-.1-.1-.1-.3-.2-.4-.1-.3-.2-.5-.4-.7-.5-.4-1.2-.6-1.8-.8-.7-.2-1.4-.3-2-.5-.8-.2-1.7-.4-2.4-.6-.2 0-.3-.1-.5-.1l-1 1.3c-.2.3-.2.5-.2 1.1v.1c-.2.5-.4.8-.6 1-.1.1-.2.3-.3.4-.2.3-.2.5-.1.8.1.2.1.5.1.7v4c0 .6 0 1.2.4 1.8s.8 1 1.4 1.4l.1.1.1.1c.2.3.5.5.9.7l.1.1c.1.1.3.2.4.2.2.1.5.2.6.4.7.4.9.8 1 1.1.1.4 0 .8-.2 1.2-.3 1.1-1.1 2-1.8 2.8-.5.5-1 1.1-1.3 1.6l-.1.1c-.1.1-.3.4-.4.6-.2.4-.5.9-1 1.2l-.2.2c-.3.3-.5.5-.5 1v1.2l.6 1.2 1.3 1.7-.4.3c1.4-.1 2 .4 3.1.9.7.3 1.3 0 2 .2s.7.3.9 1.1c.3.8.5 2.6 1.7 1.6.4-.4.6-1.4.8-1.9.3-.7.7-1.4 1-2.1.5-1 .9-2.4.9-3.5 0-1.2-.3-2.5.5-3.3.6-.7 1.1-.7 1.1-1.8 0-.8-.3-1.6-.2-2.4.2-1.4.5-2.9.5-4.3 0-.7.3-2.4 0-3.1-.4-.6-.9-.4-1.6-.4-.7 0-1.1-.4-1.7-.5-.3-1 .2-1.5 1-1.7l-.8-.7v-1.7h.1zM446.8 202c-.9.9-1.8 1.7-3 2.4-1 .6-1.2.8-2.4.9-1.4.1-1.4 1.2-2.2 2.2-.8 1-1.8.7-3 .7-.7 0-1.5 0-2.2-.2-.3-.1-.9-.6-1.2-.6-.8-.1-1.6 1.4-2.6.8-.8-.5-.5-2-1.6-2.4-.4-.1-.9.1-1.3 0-.2-.1-.5-.3-.8-.6l.1.4c-2.7.6-8.8 1.4-15.2 2.1l5.6 35.4c.2-.1.3-.1.5-.1.8-.1 1.7-.1 2.6 0h.9c1.7 0 1.9.9 2.3 2 .3.9.4.9 1.1.9.3 0 .7 0 1.1.2.8.2 1 .7 1.2 1.2.1.3.2.6.5.7.2.1.7.2 1 .1h.2c.2 0 .3 0 .5-.2 0 0 .1-.2.1-.4.1-.3.1-.4.3-.5.6-.3 1.2-.2 1.8 0 .3.1.6.2.9.2h.5c.8 0 2 .1 2.6-.2.3-.2.5-.4.7-.7.4-.5.8-1.1 2-.8 1 .2 1.7.9 2.3 1.5 1 1 1.6 1.5 2.8 1 1.8-.9 2.1-3.2 2.2-4.5 0-1 .3-2 1-3.1.1-.1.1-.2.1-.2.1-.4.3-.5.8-.6.3-.1.6 0 .8 0 .2 0 .4.1.5 0 .4-.1.4-.4.4-1.3v-.8c0-.4.2-.7.3-.9.1-.1.1-.2.1-.3s.1-.3.1-.4c.1-.3.1-.6.3-.9.4-.7 1.3-1.1 2.1-1.5.4-.2.7-.3 1-.5.5-.3 1.9-1.2 2.5-2.1.3-.4.5-.7.7-1.2.1-.2.1-.5.2-.7.1-.3.1-.6.2-.8.2-.7.5-1.3.7-1.9.2-.4.3-.7.5-1.1.3-.9.3-1.7.3-2.7 0-.9-.2-1.8-.4-2.8-.2-1-.5-1.9-.5-3v-.1l.9-2.6-3.2-17.8c-.9.7-1.9 1.4-2.7 2.2-1.7 1.2-3.5 2.1-5 3.6z"/><path class="st1" d="M454.8 195.8l.4-.1 5.7 31 48.2-10.3 1.8-2.4 3.1-.5.1-.1c.1-.3.3-.5.5-.7.4-.6.9-1.2 1.4-1.8.7-.8 1.4-1.6 1.7-2.5l.1-.1c.1-.2.2-.4.1-.5-.1-.2-.3-.4-.6-.6l-.1-.1c-.1-.1-.3-.2-.4-.2-.2-.1-.4-.2-.6-.4-.4-.2-.9-.5-1.2-.9-.7-.5-1.1-.9-1.6-1.6-.5-.8-.5-1.6-.5-2.2v-4c0-.2 0-.3-.1-.5-.1-.4-.2-.9.2-1.5.1-.2.2-.4.4-.5.2-.2.3-.4.4-.6 0-.6 0-.9.3-1.5v-.1l.8-1c-.3-.1-.5-.2-.8-.2-.9 0-2.2-.5-2.7-1.3-.2-.3-.2-.6-.3-.9-.1-.3-.1-.5-.2-.7-.2-.5-.4-.6-1-1l-.2-.1c-.4-.2-.8-.4-1.3-.7-.7-.4-1.5-.7-2.1-1.2l-43.2 9.4-1.7-3.8c-1 .8-2.1 1.4-3.1 2.2-1.2.3-2.4 1.2-3.5 2zM426.6 201.3c.4-.6 1.5-.9 2.1-.9.1-.3.1-.5 0-.7-.3-.6-1.2-1.1-1-2 .2-.8 1.4-1.6 2-1.9 1.6-.9 1.8-1.4 2-3.2.1-1 .7-1.7.9-2.7.2-.7.3-1.5.5-2.2.1-.5.2-1.2.3-1.8 0-.7 0-1.5-.1-2.1-.7 0-.7-.6-.7-1.1-1.7-.4-2.1-3-2.6-4.4-.4-1.2-1.1-2.1-1.6-3.1-.4-.8-.2-2.4-.8-2.7-.3-.2-2.1-.1-2.5 0-.7.1-.9.7-1.3.9s-.9.1-1.2.4c-.6.5-.9 1.8-1.3 2.6-.4.7-1.3 2.4-2 2.6-1.3.5-2.1-.2-2.2-1.4-.1-.8 0-1.7.2-2.4.4-1.1 1.3-1.9 1.7-2.9.4-.9.7-1.8 1.1-2.7 1-1.9.6-4.9-.1-6.9-.2-.7-.2-.7-.8-1.2-.5-.4-.7-.2-.9-.8-.3-1.2 1.3-1.5 1.7-2.4.4-1-.6-1.9-1.3-2.2-.9-.4-1.8-.8-2.8-1.1-1.1-.2-2.4-.1-3.4-.5-1.2-.4-1.1-1.9-2.1-2.5-.7-.4-1.9-.2-2.8-.2-1.1-.1-.6-.3-1.3-.7-1.3-.7-2.8.8-3.6 1.7-.4.5-.6.9-1.2 1.2-.4.3-1.2.5-1.4 1.1-.3 1 1.1 1.8 1.7 2.4-1.9 1-2.6 1.9-2.7 4.1 0 .8 0 1.3-.3 2-.2.6-.8 1.2-.9 1.7-2.2.3-1.8-1.4-2-3-.8.4-1.1 1.5-1.6 2.2-.6.8-1.2 1.1-1.4 2.1-.5 1.5-.5 3-.7 4.6-.2 1.7-.8 3.9-1.5 5.3-.3.6-.8 1.2-.5 1.9.3.8.8.8.8 1.8 0 1.5-.6 2.3-.2 3.7.4 1.1 1 2.4 1.8 3.3.8 1 1.9 2.3 2.4 3.6.4 1.2.2 2.7.2 4 0 1.9.1 3.9 0 5.8-.2 2.4-1.8 4.1-3.1 6.2-.4.7-.7 1.5-1.2 2.2 3.5-.4 28.4-2.8 35.1-4.2-.1-.1-.1-.1-.1-.2-.4-1 .2-2.5.7-3.3zM378 193.3c-.8-.6-1.3-.7-1.1-2 .1-1 .7-1.9.8-2.9.2-1 .9-1.8 1-2.9.1-.8 0-1.8 0-2.7v-1.9c0-.9.3-1.2.5-2 .4-2.2-.4-4.5.2-6.7.5-2.1 1.7-3.9 2.7-5.8.1-.1-.1-.4 0-.6.1-.3.4-.6.6-.9.2-.5.5-1.2.6-1.6.2-.8.2-1.8.1-2.6-.9.4-1.8 1.9-2.4 2.6-.7.9-1 1.9-1.5 3-.6 1.2-1.5 2-2.5 2.8-.3.2-.9.7-1.3 1.2.1 0 .1.1.1.1.1.1.1.1.1.2.1.1.1.2.1.4v.3c-.1 1-1.5 1-1.6 0v-.3-.1-.2c0-.1.1-.2.2-.3.1 0 .1-.1.2-.1s.1 0 .2-.1H375.3c.1-1 .4-1.8.6-2.8.2-.9.8-1.7 1.1-2.5l-.4.1-.8-5H374v-3.5l-1.1-1.9-2.2-1h-3.1c-.5 0-4.3-1.1-5.9-1.6l-4.8-1.1-4.4-1.4-2.1-4.2c-.7.3-1.5.2-2.2.4-1.1.3-1 .3-1.6-.7-.4-.6-.5-1-1.3-.8-.8.1-1.6 1.6-2.7.7-.9-.8.3-2 .7-2.6.8-1.1.4-1.8 0-2.8-1.1.6-2.2.5-3.2 1.1s-1.6 1.6-2.5 2.2c-1.1.7-1.5.9-2.3 2.1-.5.7-.5 1.2-1.5 1.1-.5 0-.7-.1-.8-.4l-1.3.8h-.4c-.2.2-.6.9-.6 3.7 0 .7.1 1.7.4 2.8.3 1.7-1.3 2.5-2.2 2.9l-.3.1c-1 .4-2 .8-2.1 1.6-.2.9-.2 1.5-.2 2.4v.5c0 .3-.1.6 0 .8s.3.4.6.6c.4.3.8.6 1 1.2.5 1 .1 1.8-.3 2.5l-.1.3c-.4.6-.6 1.2-.6 1.9.2.3.4.7.4 1.1.2.3.2.8.2 1.5v.7c0 .5-.1 1.1 0 1.6.1.3.5.5.8.7s.5.3.7.5.4.5.6.8c.3.4.5.8.9.9.2.1.5.1.8 0 .4 0 .8-.1 1.2.1.3.2.6.5.9.9l.5.5c.3.2.7.4 1.1.5.6.2 1.2.4 1.6 1 .3.4.4.9.5 1.3.1.5.3 1.1.6 1.3.2.1.7.1 1.2.1s1 0 1.4.1c.6.2 1.1.4 1.4.6.5.4.5.9.6 1.2 0 .2 0 .3.1.4 0 .1.1.1.3.1.2 0 .6 0 .9.2.5.3.6.8.6 1.2v.3c.2.8.1 1.4 0 2.1 0 .3-.1.6-.1.9v.5c0 .8-.1 1.3.3 1.6 0 0 .1 0 .3.1.3 0 .6.1.9.5.4.5.4 1.4.2 1.9-.1.3-.3.7-.6 1-.4.6-.7 1-.5 1.2.1.1.1.1.3.1.2.1.6.1.9.7.2.3.1.7 0 1.1 0 .2-.1.4 0 .5.1.8.6 1.6 1.3 2 .3.2.8.3 1.3.5 1 .3 2 .6 2.4 1.3.2.3.3.7.4.9.1.4.2.6.6.8l2-.9 26.4-2.4v.4c0-1.4-.5-2.5-.7-3.8-.5-1.1-.3-2-1.6-3z"/><path class="st5" d="M375.1 171c0-.3 0-.5.1-.8h-.2c-.1 0-.1 0-.2.1-.1 0-.1.1-.2.1-.1.1-.2.3-.2.5v.4h.8c-.1-.1-.1-.2-.1-.3zM375.9 171.2v-.2c0-.1 0-.3-.1-.4.1.2.1.4.1.6z"/><path class="st5" d="M374.4 170.8v.2c0-.2.1-.4.2-.5-.1 0-.2.1-.2.3zM374.3 171.3c.1 1 1.5 1 1.6 0h-1.6zM374.6 170.4zM375 170.2h.1-.1zM374.6 170.4s.1-.1.2-.1c-.1 0-.1 0-.2.1zM375.1 170.2h0zM375.1 171v.3h.8v-.1c0-.2 0-.4-.1-.6 0-.1-.1-.1-.1-.2l-.1-.1c-.3.2-.4.5-.5.7zM375.7 170.4l-.1-.1.1.1zM374.8 170.3c.1 0 .1 0 .2-.1-.1 0-.2 0-.2.1zM374.3 171v0c0-.1 0-.1 0 0z"/><path class="st5" d="M375.7 170.4c.1.1.1.1.1.2 0-.1-.1-.2-.1-.2zM375.8 170.6z"/><path class="st1" d="M381 204.2c-.4-.6-.9-1-1-1.8-.1-.5 0-1 0-1.6l-26.3 2.4-.9.4c.1 0 .1.1.2.1.5.4.7.8 1 1.2l.3.6c.3.6.7 1.2 1.1 1.5.2.2.3.3.5.4.6.4.8.7.8 1.7v.6c0 .8 0 1.7-.5 2.5-.2.3-.5.6-.7.9-.3.3-.6.7-.7 1s-.1.6-.1.9c0 .5 0 1.2-.5 1.7-.3.4-.8.5-1.1.6-.2 0-.3.1-.5.2-.1.1-.3.2-.4.3-.2.2-.4.4-.7.5-.5.3-1.1.4-1.8.5-1.6.3-2.5.5-2.4 1.8 0 .4.1.5.7.5.5 0 1.2 0 1.6.6.4.7-.1 1.5-.5 2-.2.2-.4.5-.4.6-.1.3-.1.5-.2.8-.1.6-.2 1.1-.7 1.8-.4.5-.4.9-.4 1.4 0 .3 0 .7-.1 1.1-.2 1.1-1.4 1.7-2.1 2-.2.1-.4.1-.5.2-.2 0-.3 0-.3.2v.1s.1.3 0 .6c-.1.2-.2.3-.3.4-.1.1-.1.2-.1.2-.2.6-.3 1.3-.3 2.3 0 .2 0 .3.1.5 0 .2.1.5.1.7s-.1.3-.1.5c0 .1-.1.2-.1.2.1.5.7 1.1 1.2 1.5l.3.3c1 1 1.1 1.2 1.2 2.5s1.5 2.1 2.8 2.9l.8.5c1.4.9 2.9 1.8 3.7 3.4.3.6.4 1.3.5 2 0 .3.1.7.1.9s.1.4.1.5c.1.5.2 1 .3 1.4.2-.1.4-.3.6-.5.3-.3.6-.6.9-.7 1-.4 2.2-.3 3.1.4 1.3 1.1 1.3 3.3.6 4.9-.1.3-.3.6-.4.9-.6 1.2-1.4 2.7-1 3.9.2.8 1.7 1.7 3.1 2.2 2.6 1 6.2 3.1 7.7 5.7.3.5.4 1 .4 1.4 0 .3.1.6.2.8 0 .1.1.2.3.3.2.1.4.3.5.6.5 1.2-.4 1.6-.9 1.9-.1.1-.2.1-.3.2-.3.2-.7.6-.8.9 0 .2 0 .3.2.5s.6.2 1 .3c.6.1 1.2.2 1.5.8l1.1.5c0-.1-.1-.3-.1-.4-.2-.9-.3-2.1 1.2-2.6.9-.3 1.7 0 2.4.2.4.1.7.3 1.1.3.7.1 1.5.1 2.2.1 0-.1-.1-.3-.2-.5-.1-.3-.2-.5-.2-.8-.1-.6-.1-1.4.5-2.1.4-.5 1-.8 1.6-1.1.3-.2.6-.3.8-.5.1-.1.4-.2.6-.3.3-.2.9-.5 1-.7l.1-.2-.2-.2-.4-.4c-.6-.6-.8-1.1-.7-1.5.1-.5.6-.7 1-.9l.6-.3.1-2.5V260l1.8-3.3 1.7-6.3-1.1-4-2.5-36.2h.4c-.8-1-1.6-1.9-2-3.1-.4-1-.6-2-1.2-2.9z"/><path class="st4" d="M92.1 139.2c0 .4 0 .6.3.9.2.1.4.2.7.3.3.1.6.2.8.3.9.4 1.8 1.1 2.6 1.9.5.5.9.9.5 1.6-.2.5-.6.9-.9 1.2-.1.1-.2.2-.3.4-.4.4-.4.4-.5 1-.3.9-.9 1.6-1.4 2.2-.3.4-.6.7-.8 1-.2.3-.4.7-.5 1.1-.2.4-.3.8-.6 1.1l-.1.2c-.5.8-1 1.6-1.4 2.5-.3.7-.6.9-1 1.1-.1.1-.3.1-.5.3-.4.3-.8.8-1.1 1.3-.2.2-.3.4-.4.6-.1.2-.3.4-.6.6-.5.6-1.6 1.6-1.7 2.3 1 .4 2.3 1.7 2.4 2.5.1.7 0 1.5-.2 2-.1.4-.4.8-.6 1.1s-.5.7-.6 1.1l-5.5 25.1c19.6 4 44.1 8.8 59.3 10.7l4.8-34.9-.1-.1-.2-.2-.1-.1c-.2-.4-.3-.5-.7-.7l-.1-.1-.1-.1c-.4-.7-.9-1.3-1.2-1.3s-.7.8-.8 1.1l-.1.2c-.1.1-.1.2-.1.3-.1.3-.2.7-.6.9-.4.6-1 .6-1.4.6-.5 0-1 0-1.5-.3-.4-.2-.7-.5-1-.7-.4-.3-.7-.5-1.1-.6h-1.3c-.1 0-.2.1-.3.1-.2.1-.4.3-.8.3-.5 0-.8-.2-1.1-.3-.5-.2-.7-.1-1 0s-.8.4-1.2 0c-.3-.1-.6-.3-.7-.4 0 .1-.1.1-.2.3-.3.7-.7 1.1-1.2 1.2-.5.1-1-.1-1.5-.7-.8-1.1-.8-2-.8-3.2 0-.6 0-1.4-.5-1.9-.3-.4-.5-.5-.8-.7-.4-.2-.8-.5-1.1-1.3-.2-.7-.2-1.4-.2-2.1 0-.8.1-1.5-.3-2.1-.2-.3-.4-.6-.7-.9-.6-.7-1.2-1.6-1.4-2.8v-1.6c0-.2-.1-.5-.2-.7-.1-.3-.3-.6-.3-1.1 0-.7-.2-1.3-.4-1.3-.3.1-.5.4-.8.8-.2.3-.5.7-.8.9l-.1.1-.4.1c-.7.2-1.6.5-2.2.5-1.2 0-1.4-1-1.4-1.6 0-.2 0-.3-.1-.5-.2-1-.5-2 .1-2.8.2-.2.4-.3.6-.5.1-.1.2-.2.3-.2.1-.3.1-.7.1-1.1v-2c0-.7.4-1.3.7-1.9.1-.2.3-.5.4-.7l.1-.1c.3-.3.5-.7.8-1.3 0-.5.4-1.1.7-1.4 0-.3.1-.5.2-.8.1-.2.2-.5.2-.6 0-.2-.3-.2-.9-.4-.4-.1-.8-.2-1.1-.4-.7-.5-1.1-1.2-1.4-1.8-.3-.5-.6-1.1-1.1-1.6s-.8-.8-1-1.8V127.9c-.5-1.6-1.4-2.9-2.3-4.3-.2-.3-.4-.6-.5-.9v-.1c-.2-.6-.6-1.2-1-1.6-.2-.2-.3-.4-.4-.6-.4-.4-.8-1-.8-1.8 0-.4.1-.8.2-1.2.1-.5.2-.9.1-1.4-.1-.1-.2-.3-.3-.4-.2-.3-.4-.6-.6-1.1-.5-.5-.7-1.2-.7-2v-.9c-.1-.7-.1-1.4.1-1.9l2.7-11.4c-2.9-.6-5.7-1.1-8.4-1.7l-8.6 42.6zM333.9 142.5c1.2-1.4 2.1-3.2 3.6-4.5.5-.4 1.1-.7 1.6-1.1.5-.5.4-.7.7-1.3.5-.9 1.3-1.2 2.1-1.8.6-.5 1.2-1.2 1.8-1.8.8-.8 1.5-1.1 2.6-1.6 1.2-.5 2.8-.4 3.7-1.3.9-.9 1.5-1.6 2.7-2.1.8-.3 1.2-.3 1.2-1.2 0-.9-.1-.7-.9-.9l-.9-.3c-.8-.3-1.4-.6-2.4-.6h-2.9c-1.1 0-2 .3-3.1.2-.2-1.7-2.6-1.5-3.6-.7-.1.1-.1.4-.2.6-.2.1-.4.2-.7.3-.3.2-.6.5-.9.7-.7.7-1.1.7-2.1.5-2.1-.5-2.6-1.9-4.2-2.8-1.3-.8-2.2-.2-3.7-.4.1-1.7-2-1.5-3.1-1.5-1 0-.8-.1-1.4-.6-.7-.6-.6-.4-1.5-.3s-1-.1-1.5-.7c-.4-.4-.9-1-1.6-.9-1.2.2-2 2.8-3.7 2-.6-.3-.5-.7-1.3-.9-.9-.2-1.6 0-2.5-.3-.7-.2-1.3-.6-2-.9s-1.6 0-2.2-.5c-.4-.4-.4-.8-.6-1.2-.3-.5-.5-.4-.7-1.1-.1-.5-.1-1.1-.3-1.6-.3-.7-1.4-2.1-1.4-1.9l.4-3.8-2.6.3v.1c0 .4-.4.8-.8.8h-.4v4.5c-6 .4-11.9.6-17.9.8h.6v6.8l1.3 6.8 1.6 8.7c.1.4.6 4.2.1 5.5-.3.8.9 1.5.9 1.5l.2.1 1 6.2 1.1 3.6v5.6c0 .5.1 1.1-.3 1.5-.3.3-.7.4-1.1.4-.2 0-.4.1-.5.1-.7.4-1.3 1.1-1.2 1.9.1.5.9 1.5 1.5 1.7.2.1.5.1.8.2.6.1 1.4.1 1.8 1 .3.5.2 1.1.2 1.6v.5l.4 22.9 48.9-1.8 2.8-1.6c0-.3 0-.5.1-.7.1-.6.1-1.2 0-1.8 0-.1 0-.2-.1-.3 0-.3-.1-.5-.2-.6s-.2-.1-.4-.1c-.3 0-.7 0-1-.4-.2-.3-.3-.6-.3-.8 0-.3 0-.4-.2-.6-.1-.1-.4-.3-1.1-.5-.2-.1-.7-.1-1.1-.1-.6 0-1.2 0-1.7-.2-.6-.4-.8-1.1-1-1.8-.1-.4-.2-.8-.4-1-.3-.4-.7-.5-1.2-.7-.4-.1-.9-.3-1.3-.6-.2-.2-.4-.4-.6-.7-.2-.2-.4-.6-.6-.6-.2-.1-.5-.1-.8 0-.4 0-.8.1-1.2-.1-.6-.3-.9-.8-1.3-1.2-.2-.2-.3-.5-.5-.6-.1-.1-.3-.3-.6-.4-.5-.3-1.1-.6-1.2-1.3-.2-.7-.1-1.4-.1-1.9v-.6c0-.4 0-.9-.1-1l-.1-.1v-.2c0-.3-.2-.6-.3-.8l-.1-.1v-.1c0-.9.2-1.7.7-2.5l.1-.2c.4-.8.6-1.2.3-1.8v-.1c-.1-.3-.4-.6-.7-.8-.3-.3-.7-.5-.8-1-.2-.4-.1-.9-.1-1.3v-.4c0-.9 0-1.6.2-2.5.2-1.2 1.6-1.8 2.7-2.2l.2-.1c1-.5 1.9-1 1.7-2-.3-1.2-.4-2.2-.4-3 0-2.5.3-3.9 1-4.4.2-.2.4-.3.7-.3l1.2-.8.2.4c-.4-.8.4-1.7 1-2.5z"/><path class="st2" d="M302 108.7c0 .4-.4.7-.8.8-.1 0-.3 0-.4.1h.4c.4-.1.8-.4.8-.9zM302 108.7s0-.1 0 0c0-.1 0 0 0 0z"/><path class="st2" d="M302 108.7s0-.1 0 0H300.8v.8c.1 0 .3 0 .4-.1.4.1.8-.2.8-.7z"/><path class="st4" d="M109.2 98.8l.5.1-2.7 11.5c-.1.4-.1 1 0 1.6 0 .3.1.7.1 1 0 .6.2 1.1.5 1.5l.1.1v.1c.1.4.3.7.5.9.1.2.3.4.3.6v.1c.2.6 0 1.2-.1 1.8-.1.3-.1.7-.1 1 0 .5.3.8.6 1.2.2.2.3.4.4.6.5.5.9 1.2 1.1 1.8.2.3.3.5.5.8.9 1.5 1.8 2.8 2.4 4.6V129.5c.2.7.3.9.8 1.3.6.6.9 1.2 1.2 1.7.3.6.7 1.1 1.2 1.6.1.1.5.2.8.2.6.1 1.6.3 1.6 1.2 0 .3-.1.6-.3.9-.1.2-.2.5-.2.6v.2l-.1.1c-.2.2-.5.8-.5 1v.1c-.2.7-.5 1.2-.9 1.7-.1.3-.3.5-.4.7-.3.5-.6.9-.6 1.4v2c0 .5 0 1-.3 1.5l-.1.1c-.1.1-.3.3-.5.4-.1.1-.3.2-.4.3-.3.4-.1 1.2.1 2 .1.2.1.4.1.6.1.7.2.8.6.8.5 0 1.3-.3 1.9-.5l.4-.1c.2-.1.3-.4.5-.6.3-.5.7-1 1.4-1.2h.1c1.1 0 1.3 1.4 1.3 2.2 0 .2.1.5.2.7.1.3.3.6.3 1.1v1.6c.1.9.7 1.6 1.2 2.3.2.3.5.7.7 1 .4.9.4 1.7.4 2.6 0 .6-.1 1.2.1 1.8.2.5.4.6.7.8.3.2.6.4 1 .8.8.7.8 1.8.8 2.5 0 1.1 0 1.8.6 2.6.3.2.5.4.7.4s.4-.3.5-.7c.3-.5.5-.8.8-.8.3-.1.5.1.7.3.1.1.3.2.5.3h.1l.1.1c.1 0 .2 0 .3-.1.2-.1.5-.3.9-.3.3 0 .6.1.8.2.2.1.5.2.8.2.1 0 .2-.1.3-.1.2-.1.4-.3.8-.3h1.4c.6.2 1 .5 1.4.8.3.2.5.4.9.6.4.2.7.2 1.1.2.5 0 .6 0 .7-.2l.1-.1.1-.1c.1-.1.2-.2.3-.5.1-.1.1-.3.2-.4l.1-.2c.3-.6.8-1.6 1.6-1.6.9 0 1.6 1.1 1.9 1.7.3.2.6.4.8.7l1-5.3h.4c.3 0 33.4 3.8 68.6 7.5l3.7-56.3.9.1-2.8 42.5c4.4.2 41.3 2.2 72 1.8v-3.7l-1.1-3.5-.9-5.8c-.7-.4-1.6-1.4-1.2-2.5.4-.9 0-3.9-.1-5l-3-15.5v-6.8c-65.1 1.6-128.7-7.6-173.2-16.3z"/><path class="st1" d="M353 148.8l4 1.3 4.8 1.1c2.1.7 5.3 1.6 5.6 1.6h3.3l2.5 1.2 1.3 2.4v2.8h1.7l.8 5c.2-.5.4-1 .6-1.4.4-.7.8-1.5 1.2-2.2.3-.6.7-1.1 1.1-1.7.8-1.3 1.8-2.6 1.9-4.1.5-.1.9.4 1.5.2.1-1.9 1.3-2.4 3.1-2.2.3 1.2-1.2 1.7-.8 2.6.9.2 2.9-3.1 3.5-3.7 1.4-1.4 2.8-1.2 4.7-1.2 1.4 0 1.5-.1 2-1.3.4-.9 1-1.6 2.2-1.8 1-.1 1.8 0 2.7.4.5.3 1 .5 1.5.9.4.4.6 1.2 1.4.9.4-.2.4-1 .9-1.3.6-.3 1.1-.3 1.7-.3 1 0 2.1.1 3.1 0 .6-.1 1.6-.4 1.1-1.3-.2-.3-1-.7-1.4-.9-.3-.2-.5-.5-.8-.7-.4-.3-.9-.3-1.3-.6-.6-.3-.9-1-1.4-1.4s-1.3-1.3-1.8-1.6c-.7-.4-1.7-.4-2.6-.4-.8-.1-1.7-.3-2.4-.3-.1-.9.4-2.5-.7-2.9-1-.4-2.2.3-3.1.7-1.2.6-2.2 1-3.6 1.1-.7 0-2-.3-2.7 0-.7.2-.6.9-.9 1.4-.3.4-.8.7-1.1 1.1-.7.8-1 1.2-2.2 1.3s-2.4 0-3.6 0c-.8 0-2.1.3-2.9 0-.6-.2-.7-.8-1.2-1.1s-.9-.5-1.4-.9c-.7-.6-1.2-1.2-2-1.6-1-.5-1.8-1.2-2.9-1.3-1.5-.1-1.2 1.1-2.2 1.8-.4.2-1.7.5-2 0s.3-1.4.4-1.8c.3-.9.8-1.6 1.3-2.5.6-1.1 1.1-2 2-2.8.6-.5 2-1 2.4-1.7-.9-.2-1.5-1.1-2.5-1-.1 0-.9.4-1 .4-.3.1-.6.2-.8.3-.5.2-1.1.6-1.6 1-1.3.9-2.6 1.9-3.6 3.2-.8 1.1-1.2 2.6-2.4 3.4-.7.5-1.6.8-1.8 1.7-.5.1-.6.6-1.1.7-.6.2-1.5-.1-2.2 0-1.2.1-2.6.1-3.5 1.1-.8.9-.4 2-1.4 2.7l.4-.2 2.2 3.9z"/><path class="st4" d="M48.2 84.6c-.3.7-.5 1-.2 1.8.3.7.8 1.2.9 2 .1.6 0 1.4 0 2 0 1 .3 1.8-.8 2-1 .2-1.7-.1-2.4 1.1-.7 1.1-.3 1.3.9 1.3.8 0 3.1-.4 2.6 1.2-.3 1-1.1.2-1.6.8.7.6 1.4 1.3 1.5 2.2.1 1-.2 1.8-.8 2.6-.7 1-.7 1.7-1 2.7-.2.5-.6.7-.6 1.3-.1.5.1 1 0 1.5-.1 1-.8 2.1-1.8 2.2-1.4.1-1.4-1.3-1.1-2.5.1-.4.7-1.2.9-1.6.4-.6.6-1.4 1-2 .6-.8 1.5-1.6.9-2.7-.4-.7-1.2-.7-1.6-1-.7-.5-.3-.5 0-1.1.4-.7.9-1.5.2-2.4-.5-.6-1.7-.7-2.4-.9-.8-.2-1.6-.5-2.4-.7-2.3-.4-4.6-1.2-6.7-2.2-.8-.4-2.1-.8-2.6-1.8-.5-.9-.4-1.8-1.8-1.8-1.2 0-1 1.6-1.1 2.7-.1.9 0 1.8 0 2.7 0 4 .3 8.3-.2 12.2-.2 1.5-.4 3-.4 4.5 0 .8.2 1.9 0 2.7-.3 1-1.1 2-1.7 2.9-.2.3-.7 1.1-.7 1.5v.3s4.5.5 4.9.6c.8 0 1.5.7 1.9 1.2.6.2 1.1.7 1.4 1.2.3.2.6.3.9.5.4.2.8.3 1.2.6 1.9 1.2 1.7 3.5 1.4 5.5-.1.8-.2 1.6-.1 2.2.2 1.1 1.3 2 2.3 2.5.5 0 .8.1 1.3.5.2.1.3.1.6 0 .1-.1.2-.3.3-.4.2-.3.4-.5.8-.7.6-.5 1.1-.5 1.8-.5h3.6c.7 0 1.6 0 1.9.9.3.4.5.9.7 1.4.1.2.1.3.2.5.3.6 1 .4 2.1.2.5-.1.9-.2 1.3-.2.7 0 1.4.1 2.1.1.8.1 1.7.1 2.4.1.5 0 1.1-.1 1.6.9.2.5.4.6.7.6.1 0 .2-.1.4-.2.1-.1.3-.3.5-.4.5-.2 1-.5 1.5-.5.3 0 .5 0 .8.1.2 0 .5.1.5 0 .2-.2.4-.4.5-.6.2-.3.4-.7.9-.8h.1c.7 0 1.2 0 1.8.3.3.2.5.4.6.7 0 .1.1.2.1.2h.2l.1.1c.1.1.8.1 1 .1H71c.3 0 .7-.2 1.1-.4.3-.1 1.1-.5 2-.5 1.1 0 1.4.5 1.8 1 .1.1.2.3.3.5.6.6 1.3.5 2.2.5H81c.9 0 1.8.2 2.7.4.5 0 1.1.2 1.6.4h1.3l2.7.7c.1 0 .3.1.4.1.5.1 1.2.2 1.7.6l8-41 .4.1C72.5 91.6 54 86.5 49.3 85.1c-.7-.4-1.1-.5-1.1-.5z"/><path class="st4" d="M25.3 122.3c-.2.8-.5 1.6-.7 2.4-.1.6 0 1-.2 1.6-.4 1.6-1 3.1-1.4 4.7-.2 1-.3 2-.7 3-.6 1.4-1.6 2.5-2.3 3.8-.7 1.4-1.2 3-1.8 4.4-.4 1.2-.9 2.6-1.6 3.8-.6 1.2-1.4 2.3-1.7 3.6-.1.4 0 .9 0 1.3-.1.4-.2.4-.4.8-.2.5-.4.9-.7 1.4-1 1.9-2 4-3.2 6-.6 1-1.5 2-2.1 3.1-.8 1.4-.8 2.4-.9 4 0 1.2-.7 2.1-.9 3.2-.2 1-.2 1.9.1 2.8.2 1 .6 1.7.5 2.9l.1-.4 42.4 11.5c.4.1 13.3 2.9 29.9 6.4l5.5-25.1c.1-.5.4-.9.7-1.3.2-.3.4-.6.5-.9.2-.5.2-1.1.2-1.6-.1-.6-1.4-1.8-2.1-1.9h-.3l-.1-.2c-.4-1 .9-2.3 1.8-3.4.2-.2.4-.4.5-.6.1-.2.3-.4.4-.6.4-.5.8-1.1 1.4-1.5.2-.1.4-.2.5-.3.3-.2.4-.2.6-.7.4-.9.9-1.7 1.5-2.6l.1-.2c.2-.3.3-.6.5-1l.6-1.2c.3-.4.6-.8.9-1.1.5-.6 1-1.2 1.2-1.9s.3-.8.7-1.2c.2-.2.3-.3.4-.5.3-.3.6-.6.7-.9.1-.2.1-.2-.3-.7-.7-.7-1.5-1.3-2.3-1.7-.2-.1-.5-.2-.7-.3-.3-.1-.6-.2-.8-.3l-.1-.1c-.6-.6-.6-1.2-.6-1.6-.1-.7-.7-.8-1.6-1-.2 0-.3-.1-.5-.1l-2.6-.7h-1.5c-.5-.2-1-.4-1.4-.4h-.1c-.9-.2-1.7-.4-2.6-.4h-2.5c-.9 0-2 .1-2.9-.8-.2-.2-.3-.4-.4-.6-.3-.5-.4-.6-1.1-.6-.5 0-1.1.1-1.6.4-.5.2-1 .5-1.5.5h-1.3c-.6 0-1.2 0-1.5-.2-.4-.1-.6-.4-.7-.6-.1-.1-.1-.3-.2-.3-.3-.2-.7-.2-1.3-.2-.2.1-.3.2-.4.4-.2.2-.4.6-.7.8-.2.2-.7.2-1.1.1-.2 0-.4-.1-.6-.1-.3 0-.7.2-1.1.4-.1.1-.2.2-.4.3-.2.2-.5.4-1 .4-.9 0-1.3-.7-1.5-1.1-.2-.5-.3-.5-.8-.4-.7 0-1.7 0-2.5-.1-.7-.1-1.4-.1-2.1-.1-.3 0-.7.1-1.1.2-1 .3-2.5.6-3.1-.7-.1-.1-.1-.3-.2-.5-.1-.4-.3-.9-.6-1.1l-.1-.1v-.1c-.1-.3-.4-.4-1.1-.4H44c-.7 0-.9 0-1.2.3l-.1.1c-.2.1-.4.3-.6.5-.1.2-.3.3-.4.5l-.1.1c-.6.3-.9.3-1.5 0l-.1-.1c-.3-.3-.4-.3-.8-.3H39c-1.2-.5-2.7-1.7-2.9-3.2-.1-.7 0-1.5.1-2.4.2-1.8.4-3.7-1-4.6-.3-.2-.7-.4-1-.5-.4-.2-.8-.3-1.2-.6l-.1-.1-.1-.1c-.2-.4-.6-.7-1.1-.9h-.1l-.1-.1c-.4-.4-1-1-1.5-1h-.1c-.6-.2-1.2-.2-1.9-.2l-1.8-.1c-.2.9-.6 1.9-.9 2.9zM446 282.5c.2 0 .3-.1.5-.1 0 0 .1-.1.2-.1.3-.1.3-.1.4-.3l.1-.1s.1-.2.1-.3c.1-.2.1-.4.3-.6.5-.8 1.2-.8 1.9-.8.5 0 1-.2 1.5-.4.2-.1.4-.2.6-.2.3-.2 1.1-.6 1.6-1 0-.1.1-.2.1-.3.1-.3.2-.7.6-.9.2-.4.6-.5.9-.6.1 0 .2-.1.3-.1.6-.6.7-.9.7-1.6v-2c-32.9 4.9-65.3 8.6-69.2 9.1v1.8l-13.8 1.1c-.4.4-.9.8-1.4 1.2-.4.3-.8.6-1.2 1-.5.5-.6.6-.7 1.3-.1.7-.4 1-.7 1.3-.2.2-.3.3-.5.6-.3.6-.3 1.7-.2 2.6v1.2c0 .8 0 1.5-.5 2.3-.2.3-.5.6-.8.8-.2.2-.4.3-.5.5-.2.2-.1.6-.1 1v.4c0 1.1-.2 1.6-.8 2.5-.2.3-.4.5-.5.7-.5.6-.7.9-.6 1.8.2.1.4.2.5.5.3.4.4 1.1.4 1.6l22.8-1.1 27.5-4.4 13.6-2 1.1-1.6c-.1-1 .6-1.7 1.3-2.3.4-.4.8-.8 1-1.3s.4-.9.4-1.2v-.2l.1-.1s.1-.2.1-.6v-.6l.1-.1c.5-.5 1.1-.5 1.7-.6.4 0 .8 0 1.1-.2 1.3-.5 2.7-1.1 3.9-2 1.4-.7 2.6-1.3 3.7-2.4l.1-.1c.3-.2.5-.3.6-.8v-.1c-.1-.3-.1-.8.1-1.1 0-.8.9-1 1.6-1.1z"/><path class="st4" d="M343.5 232.4c.1-.1.1-.2.2-.2v-.4l-.5-.9-42.3 2.2v1.1c0 .4.1.6.3.9 0 .1.1.1.1.2.1.1.3.2.4.4.4.4 1 .9 1.3 1.4.3.6.3 1.3.3 1.8 0 .7.3 1 .9 1.4.9.7 1.5 1.1 2.3 1.3.2 0 .4.1.5.1.7.1 1.3.3 2.1.8.5.4.6.9.6 1.2 0 1-1.1 1.9-1.7 2.4-.7.5-1 .9-1 1.2 0 .2.1.4.4.5.1.1.2.1.2.1.2.1.5.2.7.6.3.3.4.6.5.8 0 .1.1.2.1.2l.1.1c.3.6 1 .9 1.7 1.2.6.2 1.1.5 1.6.9l.1.1v.2l-.2 30.1 1 6.5 49.9-3.6.8 3.9-2.3 2.7v.7h5.5c-.1-.9-.1-1.9.3-2.6.2-.4.4-.6.6-.8.2-.3.4-.4.5-.9.2-.9.3-1.1 1-1.8.4-.4.9-.7 1.3-1.1.5-.4 1-.7 1.4-1.2 1.5-1.6 1.1-2.8.6-4.6v-.1l-2.2-1.1-.1-.2c-.1-.2-.5-.3-.9-.3-.5-.1-1.1-.2-1.5-.6-.3-.4-.4-.8-.3-1.2.1-.7.7-1.2 1.2-1.5.1-.1.2-.1.4-.2.6-.3.7-.4.5-.8 0-.1-.1-.1-.2-.2-.2-.1-.4-.3-.6-.6-.2-.4-.2-.8-.2-1.1 0-.4-.1-.7-.3-1.1-1.4-2.4-4.8-4.4-7.3-5.3-.7-.3-3.2-1.3-3.6-2.8s.4-3.2 1.1-4.6c.1-.3.3-.6.4-.8.6-1.2.6-3.1-.4-3.9-.6-.5-1.4-.6-2.1-.3-.2.1-.4.3-.7.5-.5.5-1 1-1.7.8l-.4-.1v-.4c0-.5-.1-1.1-.3-1.7 0-.2-.1-.4-.1-.6-.1-.3-.1-.7-.1-1-.1-.6-.1-1.3-.4-1.7-.7-1.3-2.1-2.2-3.4-3l-.8-.5c-1.3-.8-3-1.9-3.2-3.6-.1-1.2-.1-1.2-1-2l-.3-.2c-.6-.5-1.3-1.2-1.4-2.1 0-.2 0-.4.1-.6 0-.1.1-.2.1-.2 0-.2 0-.4-.1-.6 0-.2-.1-.4-.1-.6-.1-1.1 0-1.9.3-2.6.1.3.2.2.3 0z"/><path class="st1" d="M526.7 192.9c.2-.5.5-.7.9-1.1.1-.1.1-.3.2-.3.1-.1.2-.2.2-.3 0-.3-.2-.9-.4-1.4v-.2s0-.2-.1-.2c-.1-.2-.1-.5-.2-.7-.2-.3-.3-.4-.6-.6l-.1-.1-.1-.1c-.2-.5-.3-1-.3-1.2-.3-1.1-.3-2.1-.2-3v-2c-.2-.3-.4-.5-.8-.9l-.1-.1c0-.1-.1-.2-.1-.2-.2-.3-.4-.7-.4-1.3-.2-1.2-.1-2.6 0-3.9v-1.8-1c0-1 .1-2-.2-2.8v-.2c0-.2-.1-.5-.2-.8-.1-.4-.3-.9-.3-1.4V166c-.1-.2-.1-.5-.2-.7-.2-.6-.4-1.4-.4-2.2 0-.1 0-.2-.1-.4s-.1-.5-.1-.9c0-.2-.1-.3-.2-.6-.1-.1-.1-.2-.2-.3-.2-.3-.2-.7-.2-1s0-.6-.1-.8c-.2-.6-.6-1.2-1-1.6-1.2-.9-1.6-1.7-2.1-3.3V152.3c0-.6-.2-1.5-.4-2.3-.2-.9-.4-1.6-1.2-2.2-.2-.1-.3-.2-.4-.3-.3-.3-.7-.6-.9-1.2 0-.1-.1-.3-.2-.4-.2-.6-.5-1.4-.5-2.4v-.5c0-.7-.1-1.6.2-2.2l-.2-.9c-.1 0-.1 0-.2.1-1 .4-2.1.5-3 .9-1.7.6-3.4 1.4-5.2 2v.1h-.5c-.4.1-.8.3-1.3.4-2.2.6-4.5.8-6.3 2.3-.9.8-1.6 1.7-2.2 2.7-.5.9-1.4 1.3-1.9 2.3-1.3 2.2-.8 4.7-3.1 6.2-.6.4-1.5.7-1.9 1.3-.2.2-.2.5-.2.9.2 1 1.4 1.1 2.1 1.7.9.9-.6 2 0 3.3.2.4.9.4.9 1 0 .3-.5.6-.7.9-.9 1.1-.9 2.4-1.9 3.5-.6.6-1.4 1.3-2.1 1.8-1 .7-2.1 1.2-3.1 1.7-1.1.5-2.2.4-3.5.4-2.3 0-4.7-.1-6.9.2-1.4.2-2.4.9-4 .9-1.1 0-2.2-.2-3.1.7-.2.2-.2.5-.4.7-.2.2-.5.3-.6.6-.1.2-.1.6-.1.9 1.3-.1 3-.1 3.1.1 1 1.1-.2 2.1-2 2.8.7.7 1.4 1.3 1.2 2.4-.1.2-.4.9-.6 1.1-.2.3-.5.5-.7.8-.1.3.1.5-.1.8-.4.6-1.2 1.2-1.7 1.7-.2.2-.4 0-.7.2-.3.2-.3.6-.5.9-.5.7-1.2 1.3-1.7 2-.3.5-.8.9-1.2 1.3l.4-.2 1.5 3.2 42.9-9.3.2.1c.7.5 1.4.9 2.2 1.3.5.2.9.4 1.3.7l.2.2c.6.4 1 .7 1.3 1.4.1.2.2.5.2.8.1.3.1.5.2.7.3.5 1.2.9 2 .9h.1c.7.2 1.3.4 2.2.7.7.2 1.5.4 2.3.6.7.2 1.4.3 2.1.5.7.2 1.4.5 2.1.9.4.4.6.8.7 1.1 0 .1.1.3.1.4.1.3.3.6.4.9.2.3.4.6.5 1v1.5l.8.7-.3.3c.5 0 1.1 0 1.5.1.5 1.8 3.9-.3 4.8-1.2.6-.6 1-1.3 1.6-1.8 1-.8 2.5-.7 3.6-1.3 1-.5 1.6-.6 2.4-1.3.9-.8 1.8-1.4 2.8-2 1.1-.7 1.4-1.8 2.4-2.6.5-.4 1.1-1 1.1-1.7-.6-.2-.7.3-1.1.6-.5.3-.9.1-1.4.5-1.3.9-1.3.7-2.4-.4-.9.2-1.3 2-1.7 2.7-.6.9-2.7.8-3.7.9-1.3.1-1.4-.1-2.3.6-.4.3-1 .7-1.5 1-1.1.6-2 1.4-3.3 1.2-.1-.4-.1-.7.1-.9l-1.7-.2.5-1.2z"/><path class="st4" d="M448.5 240.4c-.3.1-.6.1-.9 0-.2 0-.4-.1-.5 0-.1 0-.2 0-.2.1s-.1.2-.2.4c-.6 1-.8 1.7-.8 2.6 0 1.5-.4 4.2-2.7 5.3-.1 0-.2.1-.3.1l.1 1.7c0 .3.1.6.1 1 .1.3.1.7.1 1.1 0 .6 0 1.1.5 1.7.2.2.4.3.7.5l.9.6.1.1c.6.4 1.1.7 1.3 1.6.4.6.8 1.2 1.2 1.6.2.2.4.3.7.4.1 0 .3.1.4.2.2 0 .5.1.7.1.2.1.4.1.6.1h.1c.8.3 1.1.5 1.6 1.3l.1.1c.1.2.1.4.2.5.1.4.2.6.4.9.4.5.8.7 1.4 1 .1.1.3.1.5.2.3.2.8.2 1.2 0 .3-.1.5-.4.7-.8.1-.2.3-.5.5-.7.8-.6 1.8-.6 2.7-.6.6 0 1.2 0 1.7-.1 1.2-.4 2.7-1.4 3.8-2.6.5-.5 1.2-1 1.7-1.2.6-.2.7-.3 1.1-.9.2-.5.5-.9.8-1.3.1-.2.3-.3.4-.5s.3-.4.4-.6c.3-.3.6-.7.6-1s-.1-.4-.4-.7c-.2-.2-.4-.3-.6-.6-.5-.8 0-1.4.4-1.9.1-.1.2-.3.3-.4l.1-.1c.6-.4.9-.7.9-1.4 0-1.1.5-1.6 1.2-2.3.1-.2.2-.5.2-.8.1-.4.1-.8.4-1.2.5-.7 1.4-1.3 2.3-1.3.2-.1.3-.1.5-.2 1.1-.4 2.3-.8 2.6-1.8.1-.2.1-.4.2-.6.1-.4.2-.7.5-1.2l.3-.5c.4-.6.8-1.1 1.1-1.7.5-.9.8-1.1 1.5-1.6l.1-.1c.3-.2.7-.7.9-.9.1-.2.2-.5.2-.9s.1-.7.3-1.1c.1-.3.4-.5.6-.6.1-.1.3-.2.3-.4.3-.6.3-1.3.2-2.2 0-.5-.1-1.1 0-1.6v-.3h.3c.7-.1 1.7-.2 2.5.2.3.2.6.4.9.7.4.3.8.7 1.2.8.5.1.8.1.9 0 .2-.2.3-.8.3-1.4v-.7l-.6-1-1.8-1.8h-3.4l-1.4 1.3-1.8 3-2.7-2.6-1.9 2.5-2.7 3h-1.9v-5.6l-12 2.6-2.2-12.1-.3 1c0 .9.2 1.8.4 2.7.2 1 .5 2 .5 3s0 2-.4 3c-.1.4-.3.7-.5 1.1-.3.6-.5 1.1-.7 1.7-.1.2-.1.5-.2.8s-.1.5-.2.8c-.2.7-.5 1.1-.8 1.5-.7.9-1.9 1.8-2.8 2.3-.3.2-.7.4-1.1.5-.7.3-1.4.6-1.7 1.1-.1.2-.2.4-.2.7 0 .2-.1.4-.1.5-.1.1-.1.3-.2.4-.1.2-.2.4-.2.6v.7c0 .7.1 1.8-1 2.2z"/><path class="st4" d="M379.8 276.7h-.3c-.9.1-1.9.1-2.8 0-.5-.1-.9-.2-1.3-.4-.6-.2-1.2-.4-1.8-.2-.7.3-.8.6-.6 1.6.1.6.3 1.1.5 1.6.5 1.5.9 3-.1 4.6l12.1-1v-1.8h.4c.5-.1 28.5-3.2 59.5-7.6l9.3-9.1c-.2 0-.4-.1-.5-.2-.2-.1-.3-.1-.4-.2-.7-.3-1.3-.6-1.7-1.3-.4-.3-.5-.8-.6-1.2 0-.1-.1-.3-.1-.4-.4-.6-.5-.7-1-.9-.2 0-.5-.1-.7-.1-.2-.1-.4-.1-.6-.1h-.2c-.1-.1-.3-.1-.4-.1-.3-.1-.7-.2-1.1-.6-.5-.5-.9-1.2-1.4-1.8l-.1-.1c-.2-.6-.4-.8-1-1.2l-.2-.1c-.3-.2-.5-.4-.8-.5l-.9-.6c-.8-.8-.8-1.6-.8-2.3 0-.3-.1-.6-.1-.9-.1-.3-.1-.7-.1-1.1l-.1-1.5c-1.2.1-2-.8-2.6-1.4-.6-.6-1.1-1.1-1.8-1.3-.6-.1-.8.1-1.1.5-.2.3-.5.7-1 1-.8.4-2.1.4-3 .3h-.5c-.4 0-.8-.1-1.1-.2-.4-.1-.7-.2-.9-.1-.1.5-.2.6-.3.7-.4.4-.6.4-.9.5h-.2c-.5.1-1.2.1-1.7-.2s-.7-.8-.9-1.1c-.2-.4-.3-.6-.6-.7-.4-.1-.7-.1-.9-.1-.8 0-1.4-.2-1.8-1.5-.4-1.2-.4-1.4-1.5-1.5h-.9c-.8 0-1.7-.1-2.4 0-.5.1-1.4.5-1.6.9-.1.1-.1.3 0 .4 0 .1.1.1.3.2.2.1.5.2.7.4.4.5.4 1.3.3 2.1l-.1.3h-.3c-.2 0-.4.1-.6.2-.2.1-.4.1-.6.2-.1 0-.2 0-.3.1-.2 0-.4.1-.5.1-.1.1-.2.3-.4.6-.2.4-.5.8-1 1-.6.2-1.1 0-1.5-.2-.1-.1-.2-.1-.3-.1-.5-.1-1-.2-1.5-.1-.1.4-.1.6 0 1 0 .2.1.3.1.4.1.3.2.6.2 1 0 1.1-.7 2.1-1.3 2.9-.2.3-.4.5-.5.8-.3.5-.7 1-1.1 1.4s-.7.8-.9 1.2c-.1.2-.2.6-.2 1-.1.7-.2 1.4-.7 1.8-.3.2-.7.2-1.1.1-.7-.2-1.2-.8-1.7-1.4-.4-.5-.8-1-1.2-1.1-.3-.1-.5-.1-.6 0s-.2.6-.2.9v.5c-.1 1.3-.5 2.2-1.1 2.7-.5.5-1.3.7-2 .6-.6-.1-1.2-.4-1.5-.9-.2.3-.5.7-.7 1.1-.4.7-.7 1.4-1.4 1.8-.9.5-1.7-.2-2.2-.7-.3-.3-.6-.5-.8-.6-.6-.2-1.2-.2-1.9-.2h-.9c-.2.1-.2.1-.3.3-.1.1-.2.4-.4.5-.4.3-.7.4-1.1.5-.3.1-.6.2-.9.4-.2.2-.4.4-.7.6-.3.2-.5.5-.8.7s-.6.3-.9.4c-.2.1-.5.2-.5.3 0 0 0 .2.5.7l.3.3c.3.3.7.7.3 1.5-.2.4-.8.8-1.4 1-.2.1-.4.2-.5.3-.3.2-.6.4-.9.5-.5.3-1.1.5-1.3.9-.3.4-.4.8-.3 1.5 0 .2.1.4.2.6.2.4.4.9.2 1.4l-.4-.2zM360.4 309.8c.2 0 .4-.1.4-.1.3-.2.5-.5.7-.8.1-.1.2-.3.3-.4.2-.3.6-.6.9-.8.5-.4 1-.8 1.2-1.2.1-.3 0-1-.2-1.4l-.2-.2h-.3l-.1-.3c-.2-1.4.2-2 .8-2.7.2-.2.3-.4.5-.7.5-.8.6-1.1.7-2v-.4c0-.5 0-1 .3-1.5.2-.3.5-.5.7-.7s.5-.3.6-.6c.4-.6.4-1.1.4-1.8v-.2-.5h-6.4v-1.9l2.2-2.6-.5-2.7-49 3.5 1.9 7.5.9 31.3h1.2c1.4-.1 2.9-.2 3.5.9.1.3.2.5.3.8.1.2.1.4.2.6s.2.4.2.6c0 .1.1.3.2.5l.3 1.2c.1.4.1.7.2 1 .4.7.3 1.6.3 2.4v.2l32.5-1.7v-.6c0-.1-.1-.1-.2-.2s-.3-.2-.5-.4c-.2-.4-.2-1.1-.1-1.8 0-.4.1-.8.1-1-.1-.7-.3-1.3-.5-1.9-.5-1.2-.9-2.4-.1-4 .2-.5.6-.9.9-1.4.4-.6.9-1.1 1-1.7.1-.2 0-.4 0-.6 0-.3 0-.6.1-1l.3-.6c.1-.1.2-.2.2-.3 0-.1.1-.2.1-.4s.1-.4.1-.5c.4-.9 1-1.6 1.5-2.2.7-.8 1.3-1.5 1.6-2.4.2-.7.3-1.2.2-1.8 0-.1-.1-.2-.1-.3-.1-.4-.3-.9 0-1.4 0-.6.4-.7.7-.8z"/><path class="st1" d="M542.1 175.4c-.6.1-1.2.1-1.9.1-.4.1-1 .3-1.5.4-.6.2-1.1.3-1.6.4l-2.1.7c-.3 0-.6.1-.9.2-.3.1-.7.2-1.1.2-.2.1-.4.1-.6.1-.5.1-.9.2-1.5.5-.5.3-1 .3-1.6.3-.1 0-.1.1-.2.1-.4.2-1.1.6-1.7.6l-1.9.2c0 .2.1.3.2.5 0 .1.1.1.1.2.4.4.7.7.9 1.2v2.4c0 .9-.1 1.8.2 2.8v.1c0 .2 0 .5.1.8.4.2.7.5.9 1v.2c0 .2.1.4.1.6 0 .1.1.3.1.4.2.5.5 1.2.5 1.7 0 .4-.2.7-.4.9 0 0 0 .1-.1.1v.1l-.1.1-.4.4.6.1-.1.4c.6-.6 1.5-1 2-1.4.7-.6 1.5-1.2 2.2-1.8 1-.9 2-1.5 3.3-1.6 1.2 0 2.7.1 3.5-.9s.7-2.4 2.3-2.6c1.2-.2 2.2-.3 3.3-.7l-.4.1-2.2-8.9z"/><path class="st4" d="M545.2 155v-.1l-9.4-25.9.4-.2c-.5 0-.9.1-1.5.4-.8.3-1.2.3-1.4 1.3-.1.4 0 1 0 1.4 0 .3 0 .6-.1.8h.4l.1 1.9v2.5s.1.2.1.3c.1.2.1.3.1.5.1.3.3.5.5.7s.4.4.5.7v.1c.6 1.5-.3 2.6-1 3.4-.2.2-.4.3-.6.5-.2.1-.5.3-.6.5-.2.2-.1.4-.1.7 0 .2.1.4 0 .6 0 .9-.3 1.7-.6 2.5-.2.6-.4 1.2-.5 1.9-.1.8-.1 1.6-.1 2.4 0 .8 0 1.6-.1 2.4-.1.6-.1 1.2-.1 1.7v.6c0 .9.1 1.1.6 1.8.7 1 .6 2.5.6 3.8v2c0 .7-.1 1.4 0 1.9 0 .1.1.2.1.3.1 0 .2 0 .3.1h.9c.2-.1.5-.2.7-.3.4-.2.8-.3 1.3-.4.4-.1.8 0 1.2 0 .5 0 .9 0 1.3-.1.2 0 .4-.1.6-.2.2-.1.4-.1.5-.2.1 0 .7-.3.8-.3s.1-.1.2-.2.3-.2.5-.3c.6-.3 1-.3 1.3-.2h.6c.5-.1.6-.3.8-.9.1-.2.1-.4.2-.6.6-1.6 1.2-1.6 2.6-1.6h.2l1.9-.9.2.4c-.1-.5 0-1.3 0-1.8 0-.7.3-1 .4-1.5l-.3.4-3.5-2.8z"/><path class="st1" d="M546.6 162c-1.2 0-1.3 0-1.7 1.1-.1.2-.1.3-.2.5-.2.6-.4 1.3-1.5 1.5h-.8c-.3 0-.4 0-.8.2-.1 0-.2.1-.3.2-.1.1-.2.2-.4.3s-.8.4-1 .4c-.1 0-.3.1-.5.2-.3.1-.5.2-.7.2-.5.1-1.1.1-1.6.1H536c-.4 0-.7.2-1 .3s-.6.3-.9.3c-.2 0-.4.1-.6.1h-.5l-7.5 2.1c.2.8.2 1.8.1 2.7v2.9c0 1.2-.1 2.4 0 3.4l2-.2c.5 0 .9-.3 1.3-.5.1-.1.2-.1.3-.1h.2c.6 0 1 0 1.4-.2.7-.4 1.2-.4 1.7-.6.2 0 .4-.1.6-.1h.1c.3 0 .6-.1.9-.2.3-.1.7-.2 1.1-.2l1.9-.6c.5-.1 1-.3 1.6-.4.6-.2 1.1-.3 1.6-.4h.1c.9 0 1.5 0 2.1-.2.4-.1.7-.3.9-.5.2-.1.4-.3.6-.3h.1c.2 0 .3-.1.5-.1.7-.2 1.4-.5 2.1.3l.1.1c.1.2.3.5.4.7.2.3.3.6.5.8.6.9 1.7 1.9 2.2 1.8l.5-.1v1.9h-.4c.9.8 1.1 1.1 2.2.4.7-.5 1.4-1 2-1.4.3-.2.5-.5.8-.7.3-.3.4-.6.9-.4.1.6 0 1.3.1 1.9 1.6-.4 2.2-1.6 3.4-2.8.5-.5.7-1.1 1.5-.9.6.1.7.9 1.3.6.1-.7.2-2 0-2.6-.2-.5-.7-.7-.9-1.1-.1-.3 0-.8 0-1.1 0-1-.6-1.5-1.5-1.8-.7-.2-3.6-.3-3 .8 0 .1 1 .4 1.2.5.3.2.3.4.5.6.4.4.6.4.9.9.7 1 .4 1.4-.5 2-.4.3-.6.5-1.1.5-1.1.1-.7-.4-1.4-1.1-.6-.6-1.7-.3-2.2-.8-.3-.3-.7-1.6-.8-2.1-.2-.5-.4-1.3-.9-1.6-.3-.2-.7.1-1-.1-.1-.1-.2-.5-.3-.6-.2-.3-.6-.6-.8-1-.8-1.7.8-1.5 1.4-2.6.7-1.3-.5-2.1-1.4-2.7-.5-.3-.8-.4-1-.7l-2.2.9-.6-.4z"/><path class="st4" d="M546.7 175.8c-.1-.3-.3-.5-.5-.8s-.3-.5-.4-.7c-.3-.3-.5-.2-1.2 0-.2.1-.3.1-.5.2-.1.1-.3.2-.4.3-.2.2-.5.3-.8.4l2.5 8.9c.6-.2 1.4-.4 1.6-.7.4-.6-.3-1.5-.4-2-.2-.9-.1-2.3 0-3.2 1-.2 1.9 0 2.6.5v-.5c-1.2-.5-2.4-2.4-2.5-2.4z"/><path class="st1" d="M153.2 275c35.8 3.8 72.8 5.5 77.2 5.7l1.7-54.2c-22.6-1-52.5-3.9-72.2-6l-6.7 54.5z"/><path class="st4" d="M253.9 317.5c.6.4 1.1.4 1.8.4 1.1 0 2.3 0 3.3.5.6.2 1.3.4 1.8.7.4.3.7.6 1 .9s.5.5.8.7c.8.4 1.6.6 2.4.6h.7c1.1 0 2.3-.1 3.4.7.2.1.4.2.5.4.2.2.3.2.4.2.4 0 .6-.1.9-.3.1 0 .2-.1.3-.1h.2c.2 0 .6-.1.9-.1.4-.1.8-.1 1.1-.1h.2c.8.4 1.3 1.2 1.6 1.9.1.2.2.4.3.5.1.1.3.3.4.6.2.3.7 1 1 1s.5-.2.8-.6c.4-.4.9-1.1 1.7-.9.7.2 1.1.6 1.4 1 .2.2.3.4.6.6.2.1.4 0 .8-.2.5-.2 1.2-.5 1.9 0 .3.3.4.6.5.9.1.2.2.5.3.6h.2c.4-.1.7-.4 1-.7.4-.4.8-.9 1.5-1 1 0 1.5.6 1.9 1.1l.3.3c.6.8.8.7.8.7s.1-.1.2-.4c.3-.6.5-1 .9-1.2.3-.2.8-.5 1.5-.1.4.1.7.5.9.8.2.2.4.5.6.5l.1.1c.3.2.6 0 1.2-.4.1-.1.2-.2.3-.2.4-.4 1.2-1.2 2-1.2h1.3c.6 0 1.5 0 2.1-.2.1 0 .2-.1.3-.2.4-.2.8-.5 1.4-.5h.1c.2.1.5.2.7.3.4.2.8.4 1.2.4h.2c.3.2.4.2.7 0 .1-.1.2-.2.3-.4.1-.2.2-.4.5-.7 1.5-1 3.1.3 4.2 1.2.1.1.2.2.4.3l.6.3c.7.3 1.4.6 2.1 1.3.2.1.4.4.6.6.1.2.3.3.4.4l-.9-31-1.9-7.5-1.1-7c-6.4.1-75.1.6-80.5 0h-.4v-1.1c-1.2-.1-5.1-.2-10.9-.6l-.3 6.4L253 289v26.6c0 .9.3 1.4.9 1.9zM289.2 193.2v1.2l.6 1.8c.3.3.5.8.5 1.3v1.6c.1.3.1.6 0 1 0 .5-.4.8-.6 1-.1 0-.1.1-.2.1-.5.5-.8 1-.8 1.5.1.5.6.9 1.2 1.3s1.2.9 1.6 1.6c.1.3.2.5.2.7.1.4.2.7.5 1.3.5.7.5 1.3.5 2.2 0 .6 0 1 .2 1.6.2.3.5.6.9.8.3.2.6.5.9.8.6.6.6 1.8.5 2.8v1.1c0 .6-.1 1.3.2 1.6l.1.1c.1.3.6.4 1.1.4h.1c1 .2 1.4.6 1.4 1.8v1.3c.2.9.2 1.6.2 2.7 0 .4-.1.7-.2 1.1-.1.4-.2.7-.2 1.1v.1c-.2.8-.2 1.7-.2 2.3.2.7.4 1.1 1.2 1.7 0 0 .1 0 .3.1.4.2 1 .4 1.4.9l43.1-2.2.6 1.1c.1-.1.3-.1.4-.1s.2 0 .3-.1c.8-.4 1.5-.8 1.6-1.4.1-.4.1-.7.1-1 0-.6 0-1.1.6-1.9.4-.5.4-.8.5-1.4 0-.3.1-.5.2-.8s.3-.6.6-1 .6-.8.5-1-.3-.2-.8-.2-1.6 0-1.6-1.3c-.1-2.2 1.8-2.5 3.2-2.7.6-.1 1.1-.2 1.5-.4.2-.1.3-.2.5-.4s.4-.4.6-.5.4-.2.6-.2c.3-.1.5-.1.7-.3.2-.3.2-.7.2-1.1 0-.4 0-.8.2-1.2.2-.5.5-.9.9-1.3.2-.3.5-.5.6-.8.4-.6.4-1.3.3-2.1v-.6c0-.7 0-.8-.4-1-.2-.1-.3-.2-.6-.4-.6-.5-.9-1.1-1.3-1.8l-.3-.6c-.2-.4-.4-.6-.7-.9-.2-.2-.3-.2-.6-.2-.1 0-.3-.1-.5-.1-1-.4-1.1-.9-1.3-1.5-.1-.2-.1-.5-.3-.7-.3-.4-1.1-.7-1.9-1-.6-.2-1.1-.4-1.5-.6-.9-.5-1.6-1.6-1.8-2.7v-.8c0-.2.1-.6 0-.7-.1-.1-.1-.1-.3-.2-.2 0-.5-.1-.8-.5-.6-.8 0-1.7.5-2.3.2-.3.4-.5.4-.7.1-.4.1-.9-.1-1.2-.1-.1-.2-.1-.4-.2-.2 0-.5-.1-.7-.3-.6-.5-.7-1.2-.6-2l-2.5 1.4h-.1l-49.1 1.8h-.5c-.9.4-1.3.5-1.4 1.2z"/><path class="st4" d="M280.4 158.7c-28.7 0-59.6-1.6-63.7-1.9l-2.6 40 54.8 1.1c1.1 0 2 .9 2.7 1.6l.3.3c.2.2.4.5.6.7.4.6.7.9 1.1.9.5 0 1.6 0 2-.1 0-.1.1-.1.1-.2.3-.4.7-.8 1.7-.8h.9c2.9 0 6.1 0 8.9 1.4l.9.7c.1-.9.7-1.6 1-1.9l.2-.2c.2-.2.3-.3.3-.4v-.2-.5c-.1-.3-.1-.6 0-1v-.8c0-.3-.2-.6-.3-.8l-.1-.1-.7-2.2V193c.3-1.3 1.2-1.5 2-1.5l-.4-22.9v-.5c0-.4 0-.9-.1-1.1-.2-.4-.5-.4-1.1-.5-.3 0-.7-.1-1.1-.2-.8-.4-1.8-1.5-2-2.4-.3-1.3.7-2.4 1.6-2.9.3-.1.5-.2.8-.2.2 0 .5-.1.6-.2.1-.1.1-.5.1-.9v-1.1c-2.9.1-5.7.1-8.5.1z"/><path class="st1" d="M576.2 123c-.2-.6-1.2-1.1-1.6-1.8-.3-.5-.6-1.3-1-1.8-.1-.1-.2-.2-.3-.2-.7-.3-1.7 0-2.4-.1-.1-.6-.6-1-1-1.5-.4-.6-.4-1-.6-1.6-.4-1-.9-2.2-1.4-3.1-.8.2-1.2 1.3-2.2.7-.5-.3-.9-1.3-1.2-1.8-.9-1.7-1.2-3.6-1.8-5.3-.5-1.4-.9-2.8-1.8-4.1-.9-1.5-1-2.9-1.1-4.6-.1-1.4-2-2.5-2.9-3.5-.6-.6-1-1.1-1.9-1s-1.4.9-2.2 1.3c-.8.5-1.7.7-2.4 1.3-.6.5-.9 1.3-1.4 1.7-1.3 1.2-2.8.3-3.2-1.1-.3-1-1.3-2.7-2-.8-.6 1.5-.6 3.1-1 4.6-.1.4-.5.8-.5 1.3-.1.8-.2 1-.5 1.7-.7 1.7-.5 3.7-.5 5.6 0 1.1-.2 1.9-.7 2.9-.3.6-.4.8-.4 1.5 0 .3-.1.7 0 1s.4.3.4.5c.1.5-.1 1.1.1 1.7.1.5.5.9.6 1.4.2.7 0 2-.2 2.7-.4 1.2-1.9 1.6-2.4 2.7-.6 1.3 1.4 1.9 1.1 3.1-.1.4-.8 1.2-1.1 1.6-.3.6-.1.6-.9.7-.3 0-.6.1-.9.1l9.3 25.6 3.4 2.4c0-.4-.1-.7 0-1.1.2-1.4.5-2.7.7-4 .1-.7.1-1 .7-1.5.4-.4 1.6-.5 1.3-1.3-1.2.1-1.3-.9-.8-1.8.7-1.1 1.6-.9 2.6-1.1.9-.1 1.1-.5 1.6-1.2.7-.9.8-1 2-1.3.2-.8-.7-1.3-.2-1.8.2-.2.9-.3 1.1-.2.4.2.2.5.5.7 1.4.9 3.1-1.8 2.8-3.1-.6-.1-1.1 0-1.7-.1 0-.3.1-.8 0-1.2-.2-.6-.4-.4-.9-.8-.4-.3-.8-1-.5-1.6.9-1.7 3.4-.6 4.6-1.4.9-.6 1.5-2.1 2.5-2.5.3-.1 1.6-.2 1.9 0 .5.3.4 1 .9 1.2.4-.4.3-1 .4-1.5.2-.6.5-1.3.8-1.7.5-.7 1.4-1.6 2.1-2 .6-.3 1.2-.5 1.8-.9.5-.4.9-.8 1.4-1.3.3-.5 1.3-1.4 1-2.3z"/><path class="st4" d="M307.4 245.3c.8-.6 1.3-1.3 1.4-1.7 0-.1 0-.3-.3-.5-.6-.5-1.1-.5-1.7-.7-.2 0-.4-.1-.6-.1-1-.2-1.7-.7-2.5-1.3-4.7.3-12.8.4-21.9.4-20.3 0-45.6-.6-49.2-.6l-1.3 40.4v.7c7.6.6 73.9 0 79.9 0l.2-29.5c-.3-.2-.7-.4-1.1-.6-.8-.3-1.6-.7-2.1-1.6-.1-.1-.2-.3-.3-.5-.1-.2-.2-.4-.4-.6l-.1-.1c-.1-.1-.2-.2-.4-.3-.1-.1-.3-.1-.4-.3-.4-.3-.7-.8-.6-1.2 0-.8.7-1.4 1.4-1.9zM99.1 266.4c13.2 3.5 33 6.3 53.2 8.5l6.8-54.5c-11.8-1.3-19.8-2.2-20-2.3l-.4-.1 1.1-13.8c-7.9-1-18.4-2.8-29.3-4.8l-11.4 67zM40.5 226.3l45.9 66.2h.5l1.8-14.3 3.6 1.2H96l2.2-13.2 11.4-66.8c-26.5-4.9-55.7-11.4-59.5-12.2l-9.6 39.1z"/><path class="st4" d="M145.6 168.8l-4.9 35.2-1.1 13.3c4.3.5 39.8 4.7 71.7 7.1l3.5-53.8c-33.1-3.5-64.3-7-68.2-7.4l-1 5.6zM294.3 216.4v-.6c0-.8.1-1.8-.3-2.2-.2-.3-.4-.5-.7-.7-.4-.3-.8-.6-1.1-1.2-.3-.8-.3-1.3-.3-2 0-.9 0-1.2-.4-1.8-.3-.7-.5-1.1-.6-1.5 0-.2-.1-.4-.2-.6-.2-.5-.8-.8-1.3-1.2-.2-.1-.4-.3-.5-.4l-2.4-1.7c-2.5-1.3-5.5-1.3-8.4-1.3h-.9c-.5 0-.7.2-1 .5-.1.1-.1.2-.2.2l-.1.1c-.5.2-1.4.3-2.4.3-.8 0-1.3-.7-1.8-1.3-.2-.2-.3-.5-.5-.6l-.3-.3c-.6-.6-1.3-1.3-2.1-1.3l-54.8-1.1-1.8 26.7c7.1.5 14.1.9 20.4 1.2h.4l-.5 14.2c5.2.1 53.9 1.2 70.1.3-.3-.3-.5-.8-.5-1.4 0-.4 0-1-.2-1.4s-.8-.8-1.2-1.2c-.2-.2-.4-.3-.5-.5l-.1-.1c0-.1-.1-.2-.1-.2-.2-.3-.4-.7-.4-1.3v-.5c0-.3.1-.6 0-.8-.2-.4-.8-.6-1.2-.7-.1-.1-.3-.1-.4-.2-1.1-.8-1.3-1.3-1.6-2.3v-.1c0-.7 0-1.6.2-2.5 0-.5.1-1 .3-1.3.1-.3.2-.6.2-.8 0-1.1 0-1.7-.2-2.6V220.8c0-.6-.1-.7-.7-.9-.5 0-1.6 0-1.9-.9-.4-.6-.3-1.5-.3-2.1.3-.2.3-.4.3-.5z"/><path class="st2" d="M536.6 128.7l-.4.2h.5l-.1-.2zM549.3 157.4l.3-.4-.2-.2c-.1.2-.1.4-.1.6zM549 161.1l-.2-.4c.1.2.2.3.2.4zM532.8 132.7v1.1c.2-.3.3-.7.4-1.2l-.4.1zM549.3 178.9h.4c-.1-.1-.3-.2-.4-.3v.3zM515.8 139.3c.2 0 .3-.1.5-.1l-.5.1zM528.4 193.7l.1-.4c-.1.1-.2.3-.3.4h.2zM545.1 184.2l.4-.1c-.1 0-.3 0-.4.1zM518.8 260.5v-.5c-.1.2-.1.4 0 .5zM426.3 204.8l.4.4-.1-.4h-.3zM522.2 232.1l-.2-.4v.5l.2-.1zM524.8 199.6l.3-.3c-.2 0-.4 0-.6.1l.3.2zM504.7 239.2l.6.1.1-.4c-.4 0-.6.1-.7.3zM475.9 334.2c-.1.1-.2.2-.4.3l.2.1.2-.4zM461.3 191.2c.1-.1.2-.2.4-.3l-.4.2v.1zM390.8 209.5c.1-.1.3-.3.4-.5h-.4v.5zM99.9 97c.2 0 .3.1.5.1l-.5-.1zM332.7 145.2c0 .2.1.3.1.5l.1-.1-.2-.4zM384.2 210.2c.2.2.3.4.5.6v-.6h-.5zM454.4 196.1c.1-.1.3-.2.4-.3l-.4.1v.2zM380 200.5v.4h.1l-.1-.4zM282.6 114.9h.3-.3zM108.8 98.8c.1 0 .3.1.4.1l-.4-.1zM377.3 164.8l-.1-.7c-.1.3-.2.5-.3.8l.4-.1zM350.3 145.4c.1-.1.3-.1.4-.2l-.4.2z"/><path class="st1" d="M456.6 275c0 1-.2 1.5-1 2.3l-.1.1c-.2.1-.3.1-.4.2-.3.1-.4.2-.5.3l-.1.1-.1.1c-.1.1-.2.2-.3.5-.1.1-.1.3-.2.4l-.1.1c-.5.5-1.4.9-1.9 1.2-.2.1-.4.2-.6.2-.5.2-1.1.5-1.8.5-.6 0-.9 0-1.2.5-.1.1-.1.2-.2.3-.1.2-.1.4-.3.6-.2.4-.5.6-.8.7-.1 0-.2.1-.2.1-.2.1-.4.1-.6.2-.7.1-1.1.3-1.2.7v.1l-.1.1s.1.3.1.4v.5c-.2.7-.5 1-1 1.3-1.1 1.1-2.5 1.8-3.8 2.5-1.3.9-2.7 1.6-4.1 2-.4.2-.9.2-1.4.3-.5 0-.8 0-1 .2 0 .2-.1.6-.2.8 0 .5-.3.9-.5 1.4-.2.6-.7 1.1-1.2 1.6-.6.6-1.1 1.1-1 1.7v.2l-.9 1.2c.6-.5 1.5-.6 2.2-.6h1.8c.1 0 .2-.1.4-.2s.3-.2.5-.2c.6-.2 1.3-.1 2-.1h1.1c1.9 0 3.9 0 5.5-.6 2.1-.8 4.2-2 5.7-3l.9-.6c.5-.3 1-.7 1.5-1 .8-.4 1.6-.5 2.3-.5.2 0 .5 0 .7-.1 1.9-.2 3.9-.2 5.8-.2h5.2c1.3 0 2.5 0 3.4 1.3.1.2.3.4.4.6.4.7.5.9 1.5.9h3.2c1.2 0 2.5 0 3.4-.5.4-.2.8-.4 1.2-.7.7-.4 1.4-.9 2.3-1.1h2.1c1.5.2 2.4 1.1 3.2 2l1 1 2.6 2c.7.4 1.3 1 2 1.5.3.2.6.5.9.7.3.1.6.3.9.5s.5.3.8.4.4.2.6.2c.2.1.4.1.6.2.4.2.6.5.8.8.1 0 1.1.7 2 1.7.2-.2.4-.4.5-.6.2-.4-.1-.8.1-1.2 1.4-2.1 3.2 2.3 3.3 3.2.9-.5 1.9-2.2 2-3.3.1-1.4.4-2.8.6-4.1.2-1.8 1.8-2 2.6-3.3.4-.7.6-1.9 1.1-2.6.7-.9 1.6-1 2.6-1.1.1-1.1.2-1.1 1.2-1.5.9-.4 1.7-1 2.8-1.3.7-.2 1.5-.1 2.3-.3.9-.2 1.2-1.4 1.6-2.2.2-.6.6-1.8-.2-2.2-.8-.4-2.1.2-2.7.6-.8.6-1.6 1.7-2.9 1.1-.7-.3-.5-1.5-.4-2.1.4-.2.9-.1 1.3-.2s.5-.4.9-.5c.3-.1.7.2.9 0 .5-.3.6-2.1.4-2.6-.3-1-1.3-.7-2.2-1.1-.6-.2-.6-.4-1.3-.5-.5 0-1 .1-1.6 0 .7-.8.5-1.1.7-2.2.1-.7-.2-.8.7-.9.4-.1.7-.1.9.2.8.9-.2 1.5 1.5 1.6 1 0 1.7.2 2.6.5 1.2.4 4.5 1 4.9-.7.3-1-.8-1.7-.6-2.7.1-.3.5-.6.6-.9.2-.4.2-.7.2-1.1.1-.6.2-2 0-2.5-.3-.9-.8-.6-1.2.1-.3.5-.2 2-1.2 1.5-.1-.7-.7-1.3-1.2-1.8-1-1.1-2.4-.6-3.7-.2-1.2.3-4.7 2.1-5.4.1.9-.2 2.1.4 2.9.1.7-.3 1.1-1.3 1.7-1.5 1.5-.5 3.3.3 4.8-.3-.9-.3-3.3-1.1-2.4-2.6.4-.7 1.7-.4 2.4-.5 0-.3.2-1 0-1.3-.2-.5-.5-.2-.8-.5-.3-.2-.4-.5-.5-.6-13.1 4.2-37.7 8.6-62.2 12.3v1.9h.6z"/><path class="st1" d="M496 301.8c-.2-.3-.4-.5-.7-.7-.2-.1-.3-.1-.4-.2-.2-.1-.4-.1-.6-.2-.3-.1-.6-.3-.9-.5s-.5-.3-.8-.4l-.1-.1c-.3-.2-.6-.5-1-.8-.6-.5-1.2-1-1.9-1.4l-2.7-2c-.4-.3-.8-.7-1.1-1.1-.8-.9-1.6-1.6-2.7-1.7h-1.9c-.7.2-1.3.6-2 1-.4.2-.8.5-1.3.7-1.1.5-2.5.5-3.8.5h-3.2c-1.5 0-1.8-.5-2.3-1.4l-.3-.6c-.6-.9-1.3-.9-2.6-.9h-5.2c-1.9 0-3.8 0-5.6.2-.3 0-.5 0-.8.1-.7.1-1.4.1-2 .4-.5.3-1 .6-1.4.9-.3.2-.6.4-1 .6-1.6 1-3.7 2.2-5.8 3.1-.2.1-.4.2-.7.2v2.2c0 .9 0 1.3.5 1.6.1.1.3.1.4.2.2 0 .3.1.5.2.5 0 1.1.2 1.7.3l.6.2c.1 0 .2.1.3.2.4.2.9.4 1.3.8.2.2.4.6.5 1 .1.2.1.3.2.5.5 1.2.9 2 1.5 2.8 1.1 1.1 2.6 2 4.1 2.9.5.3.9.5 1.3.8.6.2 1.1.7 1.6 1 .3.3.7.5 1 .7.7.2 1.2.5 1.7 1.3.1.1.2.3.3.6 0 .1.1.2.1.3.5.3.7.8.9 1.4.2.3.3.6.3 1 .6.7 1.4 1.1 2.2 1.5.2.1.5.3.7.4.9.5 2 1.1 2.4 2.3.2.5.2 1.2.2 1.9 0 .9.3 1.2 1.2 1.9 1.3.8 2.1 1.5 2.8 2.3.5.5.8 1.2.8 2 0 .2 0 .6.2.9.1.3.4.5.6.8.4.4.8.9 1 1.6l1.8.8-.2.4c.5-.5.5-1 .6-1.6.3-1.3.1-2.6.3-3.9.7-.2 1.8.3 2.6.2.2-.8-.4-1.2-.3-1.9 1-.4 1.7.2 2.6-.5.5-.4 1-1.2 1.5-1.8.6-.7 1.1-1.2 1.9-1.7.6-.4.6-.2.8-.9.1-.3-.1-.8 0-1.1.3-.9 1-.9 1.6-1.4.3-.3.3-.6.6-.8.4-.3.8-.4 1.1-.7.3-.3.3-.6.7-.8.4-.3.6-.1 1.1-.3 1.8-.5 1-1.3 1.3-2.6.3-1.2 1.3-1.5 1.3-2.8 0-1.1.2-1.9.4-2.9.4-1.5 1.1-2.5 2.2-3.6.6-.6 1.2-1.2 1.8-1.7-.6-.6-1.3-1.1-1.6-1.4.1-.2-.1-.2-.2-.3z"/><path class="st3" d="M498.9 304.2l.6-.3c-.2-.4-.5-.8-.9-1.2-.2.2-.4.3-.5.4.3.4.6.8.8 1.1zM496.7 301.2l-.1-.1-.3.5s.1.1.2.1c.2-.1.4-.3.2-.5z"/></svg>