<svg id="Option_2:_Yellow" xmlns="http://www.w3.org/2000/svg" viewBox="0 0 114.3 47.4"><style>.st0{fill:rgba(255, 255, 255, .42);}</style><path class="st0" d="M89.1 29c-.3-.2-.8.2-1.7 1.1-10 9.9-6.8 2.4-4.7-.7 1-1.6 2.9-4.6 1.6-6.7-1.9-3.3-3.5-2.3-10.5 4.5-1.5 1.4-1.8 1.2-.7 0 3.1-3.8 3.7-6.3 2.3-7.6-.3-.2-.9-.6-1.5-.8-.3-.1-.5 0-.6.5-.1.4-.2.7-1.1 2-1.4 2.2-4 5.5-5.5 8.5l-.1.1c-2.3 2.3-7 7.3-5.8 4.1 1.6-4 7.4-10.8 2.1-12.6-.7-.2-.8.1-1 .8 0 .3-.8 2.2-2.2 3.6-2.8 2.9-3.2 3.2-6.2 5.6-1.9 1.6-2.7 1.7-1.8-.4 1-2.2 6.1-8.6 4.4-11.1-.4-.6-.8-.8-2-1.2-.6-.2-.7.5-.9.9-.2.4-.4.8-1.5 2.6-.6 1-1.4 2.2-2.1 3.5-.9-.7-2.2-1.4-3.8-2-.1-2.3-.5-3.6-1.6-4.9-1.4-1.6-3.6-2.7-11.2-3.5-3.5-.4-6.8-.3-7.9-.8-.5-.2-.9-1.7-.9-2.1 0-.9 1.2-1.7 4.1-3C33.6 7 43.3 4.7 49 4.1c2.7-.2.3 1.8 2.6.8 1.6-.7 1.8-1 1.8-2.5 0-1.6-.9-2.4-2.9-2.4-5.7 0-16.3 2.3-23.4 5.2-5.8 2.4-8.1 4.4-8.1 6.5 0 1.6.9 4.4 1.9 5.5.8.9 2.3 1.5 4.3 1.4l7.7-.1c3.5 0 6.8.4 8.5 1.2 1 .4 1.6 1.2 1.6 2.1 0 .2-.1.5-.2.9-2.3-.5-3.9-.7-6.7-.7-9.9 0-23.4 2.6-31.8 6C1.2 29.3 0 30.8 0 33.8c0 5.4 3.1 9.1 7.6 9.1 5.2 0 11.7-1.2 18.6-3.4 8.2-2.6 13.8-5.9 17.3-10 .9-1.2 1.8-2.8 2.2-4.2 1 .2 2.2.6 3.4 1.3-2.2 4-3.8 8.4-.6 9.7 2.8 1.2 7-4.9 10.3-7.8.2-.2.8-.8.4-.1-2.4 4.1-1.9 6.5-.3 7.7 1.9 1.5 4.5-1.2 6.5-3.5-.4 1.7-.1 3.1 1.5 3.9.4.2.8-.1.9-.5 1.7-3.8 18.3-20.6 10.8-8-2.7 4.4-1.9 7.2.6 8.3 2.4 1.2 5.3-1.7 8.9-5.8.9-.8 1.3-1.3 1-1.5m-59.5 4.1c-7 3-16.4 5.2-22.7 5.2-3 0-4.8-.7-4.8-2 0-1.5 1.8-3.2 5.4-5.2 6.8-3.7 21.3-7.3 29.3-7.3 1.8 0 3 .1 5.2.4-2.7 3.7-6.3 6.3-12.4 8.9M47.3 41.3c0-.1.1-.2.2-.2h2.3c1.1 0 1.9.8 1.9 1.9 0 .8-.5 1.5-1.3 1.8l1.2 2.2c.1.1 0 .3-.2.3H51c-.1 0-.1 0-.1-.1l-1.2-2.3H48v2.2c0 .1-.1.2-.2.2h-.3c-.1 0-.2-.1-.2-.2v-5.8zm2.4 3c.7 0 1.3-.6 1.3-1.3 0-.7-.6-1.2-1.3-1.2H48v2.5h1.7zM53.7 41.3c-.1-.1 0-.2.2-.2h.4c.1 0 .1.1.2.1l2.2 4.9 2.2-4.9s.1-.1.2-.1h.4c.1 0 .2.1.2.2L57 47.2c0 .1-.1.1-.2.1h-.1c-.1 0-.1 0-.2-.1l-2.8-5.9zM65.3 41.3c0-.1.1-.2.2-.2h2.3c1.1 0 1.9.8 1.9 1.9 0 .8-.5 1.5-1.3 1.8l1.2 2.2c.1.1 0 .3-.2.3H69c-.1 0-.1 0-.1-.1l-1.2-2.3H66v2.2c0 .1-.1.2-.2.2h-.3c-.1 0-.2-.1-.2-.2v-5.8zm2.4 3c.7 0 1.3-.6 1.3-1.3 0-.7-.6-1.2-1.3-1.2H66v2.5h1.7zM72.6 41.3c0-.1.1-.2.2-.2h3.5c.1 0 .2.1.2.2v.3c0 .1-.1.2-.2.2h-3v2.1h2.6c.1 0 .2.1.2.2v.3c0 .1-.1.2-.2.2h-2.6v2.2h3c.1 0 .2.1.2.2v.3c0 .1-.1.2-.2.2h-3.5c-.1 0-.2-.1-.2-.2v-6zM78.9 46.3c0-.1.1-.1.1-.2.1-.1.2-.2.3-.1.1.1.7.7 1.5.7.7 0 1.2-.4 1.2-1s-.5-1-1.6-1.4c-1-.4-1.6-.8-1.6-1.8 0-.6.5-1.6 1.9-1.6.9 0 1.5.4 1.5.4.1 0 .2.1.1.3 0 .1-.1.1-.1.2-.1.1-.2.2-.3.1-.1 0-.6-.4-1.2-.4-.9 0-1.2.6-1.2 1 0 .6.5.9 1.2 1.2 1.2.5 2 .9 2 2 0 .9-.9 1.6-1.9 1.6-1 0-1.8-.6-1.9-.7-.1 0-.1-.1 0-.3M88.1 41c1.8 0 3.2 1.4 3.2 3.2 0 1.8-1.4 3.2-3.2 3.2-1.8 0-3.2-1.4-3.2-3.2 0-1.8 1.4-3.2 3.2-3.2m0 5.7c1.4 0 2.6-1.1 2.6-2.5s-1.2-2.6-2.6-2.6c-1.4 0-2.6 1.2-2.6 2.6 0 1.4 1.2 2.5 2.6 2.5M94 41.3c0-.1.1-.2.2-.2h2.3c1.1 0 1.9.8 1.9 1.9 0 .8-.5 1.5-1.3 1.8l1.2 2.2c.1.1 0 .3-.2.3h-.5c-.1 0-.1 0-.1-.1l-1.2-2.3h-1.7v2.2c0 .1-.1.2-.2.2h-.3c-.1 0-.2-.1-.2-.2v-5.8zm2.4 3c.7 0 1.3-.6 1.3-1.3 0-.7-.6-1.2-1.3-1.2h-1.7v2.5h1.7zM102.1 41.7h-1.5c-.1 0-.2-.1-.2-.2v-.3c0-.1.1-.2.2-.2h3.8c.1 0 .2.1.2.2v.3c0 .1-.1.2-.2.2h-1.5v5.4c0 .1-.1.2-.2.2h-.3c-.1 0-.2-.1-.2-.2v-5.4zM106.5 46.3c0-.1.1-.1.1-.2.1-.1.2-.2.3-.1.1.1.7.7 1.5.7.7 0 1.2-.4 1.2-1s-.5-1-1.6-1.4c-1-.4-1.6-.8-1.6-1.8 0-.6.5-1.6 1.9-1.6.9 0 1.5.4 1.5.4.1 0 .2.1.1.3 0 .1-.1.1-.1.2-.1.1-.2.2-.3.1-.1 0-.6-.4-1.2-.4-.9 0-1.2.6-1.2 1 0 .6.5.9 1.2 1.2 1.2.5 2 .9 2 2 0 .9-.9 1.6-1.9 1.6-1 0-1.8-.6-1.9-.7 0 0-.1-.1 0-.3M97.7 34.7c-.2 0-1-.1-1.6-.9-.5-.6-1.4-2.8-1.7-4.6-.2.1-.3.1-.5.2-.5.2-1 .3-1.4.4.3 1.5.8 2.8 1.4 3.5 1.6 1.9 3.5 1.9 3.7 1.9.1 0 .1 0 .2-.1.1 0 0-.3-.1-.4M102.1 31.2c-.2.1-1 .2-1.8-.3-.7-.4-2.3-2.2-3.2-3.7l-.4.4-1.2.9c.8 1.3 1.7 2.4 2.5 2.8 2.1 1.2 4 .6 4.2.5.1 0 .1-.1.1-.1 0-.2-.1-.4-.2-.5"/><path class="st0" d="M102.1 31.2c-.2.1-1 .2-1.8-.3-.7-.4-2.3-2.2-3.2-3.7l-.4.4-1.2.9c.8 1.3 1.7 2.4 2.5 2.8 2.1 1.2 4 .6 4.2.5.1 0 .1-.1.1-.1 0-.2-.1-.4-.2-.5M104.9 26.4c-.2.1-.9.6-1.8.4-.7-.1-2.9-1.3-4.3-2.4-.1.2-.1.3-.2.5-.2.4-.5.9-.8 1.2 1.2.9 2.4 1.6 3.3 1.8 2.4.4 3.9-.8 4.1-.9.1-.1.1-.1.1-.2 0-.2-.3-.4-.4-.4"/><path class="st0" d="M104.9 26.4c-.2.1-.9.6-1.8.4-.7-.1-2.9-1.3-4.3-2.4-.1.2-.1.3-.2.5-.2.4-.5.9-.8 1.2 1.2.9 2.4 1.6 3.3 1.8 2.4.4 3.9-.8 4.1-.9.1-.1.1-.1.1-.2 0-.2-.3-.4-.4-.4M106 20.9c-.1.2-.6.8-1.6 1-.7.1-3.1-.2-4.9-.8 0 .2 0 .3-.1.5-.1.5-.2 1-.4 1.5 1.5.5 2.8.7 3.8.5 2.4-.4 3.4-2.1 3.5-2.3v-.2c.1-.1-.2-.2-.3-.2"/><path class="st0" d="M106 20.9c-.1.2-.6.8-1.6 1-.7.1-3.1-.2-4.9-.8 0 .2 0 .3-.1.5-.1.5-.2 1-.4 1.5 1.5.5 2.8.7 3.8.5 2.4-.4 3.4-2.1 3.5-2.3v-.2c.1-.1-.2-.2-.3-.2M105.1 15.4c-.1.2-.3 1-1.1 1.5-.6.4-3 .9-4.8.9 0 .2.1.3.1.5.1.5.1 1 .1 1.5 1.5-.1 2.9-.3 3.7-.8 2.1-1.3 2.5-3.1 2.5-3.3v-.2c-.1-.2-.4-.2-.5-.1"/><path class="st0" d="M105.1 15.4c-.1.2-.3 1-1.1 1.5-.6.4-3 .9-4.8.9 0 .2.1.3.1.5.1.5.1 1 .1 1.5 1.5-.1 2.9-.3 3.7-.8 2.1-1.3 2.5-3.1 2.5-3.3v-.2c-.1-.2-.4-.2-.5-.1M102.3 10.5c0 .2 0 1-.6 1.8-.5.6-2.5 1.9-4.2 2.5.1.1.2.3.3.4.3.4.5.9.6 1.4 1.4-.6 2.6-1.2 3.2-2 1.6-1.9 1.3-3.8 1.3-4 0-.1 0-.1-.1-.2s-.4 0-.5.1"/><path class="st0" d="M102.3 10.5c0 .2 0 1-.6 1.8-.5.6-2.5 1.9-4.2 2.5.1.1.2.3.3.4.3.4.5.9.6 1.4 1.4-.6 2.6-1.2 3.2-2 1.6-1.9 1.3-3.8 1.3-4 0-.1 0-.1-.1-.2s-.4 0-.5.1M98.1 6.8c.1.2.4.9.1 1.9-.3.7-1.7 2.6-3.1 3.8.1.1.3.2.4.3.4.3.7.7 1.1 1.1 1.1-1 2-2.1 2.4-3 .8-2.3-.1-4-.2-4.2 0-.1-.1-.1-.1-.1-.3-.1-.6.1-.6.2"/><path class="st0" d="M98.1 6.8c.1.2.4.9.1 1.9-.3.7-1.7 2.6-3.1 3.8.1.1.3.2.4.3.4.3.7.7 1.1 1.1 1.1-1 2-2.1 2.4-3 .8-2.3-.1-4-.2-4.2 0-.1-.1-.1-.1-.1-.3-.1-.6.1-.6.2M92.9 4.9c.2.2.7.7.7 1.7 0 .8-.7 3-1.6 4.7.2.1.3.1.5.1.5.2.9.4 1.4.6.7-1.4 1.2-2.6 1.2-3.6 0-2.5-1.4-3.7-1.6-3.9-.1 0-.1-.1-.2-.1-.3.1-.4.4-.4.5"/><path class="st0" d="M92.9 4.9c.2.2.7.7.7 1.7 0 .8-.7 3-1.6 4.7.2.1.3.1.5.1.5.2.9.4 1.4.6.7-1.4 1.2-2.6 1.2-3.6 0-2.5-1.4-3.7-1.6-3.9-.1 0-.1-.1-.2-.1-.3.1-.4.4-.4.5M87.3 4.8c.2.1.9.5 1.2 1.4.3.7.4 3.1.1 4.9h.5c.5 0 1 0 1.5.1.2-1.5.2-2.9-.1-3.8-.9-2.3-2.6-3-2.8-3.1h-.2c-.2.1-.3.4-.2.5"/><path class="st0" d="M87.3 4.8c.2.1.9.5 1.2 1.4.3.7.4 3.1.1 4.9h.5c.5 0 1 0 1.5.1.2-1.5.2-2.9-.1-3.8-.9-2.3-2.6-3-2.8-3.1h-.2c-.2.1-.3.4-.2.5M82 6.6c.2 0 1 .1 1.6.9.5.6 1.4 2.8 1.7 4.6.2-.1.3-.1.5-.2.5-.2 1-.3 1.4-.4-.2-1.5-.7-2.8-1.3-3.5-1.6-1.9-3.5-1.9-3.7-1.9-.1 0-.1 0-.2.1-.1 0-.1.3 0 .4"/><path class="st0" d="M87.3 4.8c.2.1.9.5 1.2 1.4.3.7.4 3.1.1 4.9h.5c.5 0 1 0 1.5.1.2-1.5.2-2.9-.1-3.8-.9-2.3-2.6-3-2.8-3.1h-.2c-.2.1-.3.4-.2.5M82 6.6c.2 0 1 .1 1.6.9.5.6 1.4 2.8 1.7 4.6.2-.1.3-.1.5-.2.5-.2 1-.3 1.4-.4-.2-1.5-.7-2.8-1.3-3.5-1.6-1.9-3.5-1.9-3.7-1.9-.1 0-.1 0-.2.1-.1 0-.1.3 0 .4"/><path class="st0" d="M82 6.6c.2 0 1 .1 1.6.9.5.6 1.4 2.8 1.7 4.6.2-.1.3-.1.5-.2.5-.2 1-.3 1.4-.4-.2-1.5-.7-2.8-1.3-3.5-1.6-1.9-3.5-1.9-3.7-1.9-.1 0-.1 0-.2.1-.1 0-.1.3 0 .4M77.7 10.2c.2-.1 1-.2 1.8.3.7.4 2.3 2.2 3.2 3.7l.4-.4 1.2-.9c-.8-1.3-1.7-2.4-2.5-2.8-2.1-1.2-4-.6-4.2-.5-.1 0-.1.1-.1.1-.1.1.1.4.2.5"/><path class="st0" d="M77.7 10.2c.2-.1 1-.2 1.8.3.7.4 2.3 2.2 3.2 3.7l.4-.4 1.2-.9c-.8-1.3-1.7-2.4-2.5-2.8-2.1-1.2-4-.6-4.2-.5-.1 0-.1.1-.1.1-.1.1.1.4.2.5M74.8 15c.2-.1.9-.6 1.8-.4.7.1 2.9 1.2 4.3 2.4.1-.2.1-.3.2-.5.3-.4.5-.9.9-1.2-1.2-.9-2.4-1.6-3.3-1.8-2.4-.4-3.9.8-4.1.9-.1.1-.1.1-.1.2 0 .2.2.4.3.4M114.3 42.2c0 .8-.6 1.4-1.4 1.4-.8 0-1.5-.6-1.5-1.4 0-.8.6-1.4 1.5-1.4.8 0 1.4.6 1.4 1.4m-2.6 0c0 .7.5 1.2 1.1 1.2.6 0 1.1-.5 1.1-1.2s-.5-1.2-1.1-1.2c-.6 0-1.1.6-1.1 1.2m.9.8h-.3v-1.5h.5c.2 0 .4 0 .5.1.1.1.2.2.2.3 0 .2-.1.3-.3.3.1.1.2.2.2.4s.1.3.1.4h-.3c0-.1-.1-.2-.1-.4s-.1-.2-.3-.2h-.2v.6zm0-.8h.2c.2 0 .4-.1.4-.2s-.1-.2-.4-.2h-.2v.4z"/></svg>