<svg id="Isolation_Mode" xmlns="http://www.w3.org/2000/svg" viewBox="0 0 124.2 51.5"><style>.st0{fill:#FFFFFF;} .st1{fill:#F16B21;} .st2{fill:#EE3D23;} .st3{fill:#FAAE16;} .st4{fill:#EF4E23;} .st5{fill:#F05E22;} .st6{fill:#F37821;} .st7{fill:#F58320;} .st8{fill:#F68E1F;} .st9{fill:#F7991C;} .st10{fill:#FAA61A;} .st11{fill:#FCB117;} .st12{fill:#FDBE10;} .st13{fill:#FFCA03;}</style><path class="st0" d="M96.9 31.5c-.3-.3-.8.3-1.9 1.2-10.9 10.7-7.3 2.7-5.2-.8 1.1-1.7 3.1-5 1.8-7.2-2.1-3.5-3.8-2.5-11.4 4.8-1.6 1.5-1.9 1.4-.7 0 3.4-4.2 4.1-6.9 2.5-8.2-.3-.2-1-.6-1.7-.8-.3-.1-.5 0-.7.6-.1.4-.3.8-1.2 2.2-1.6 2.4-4.3 6-6 9.2l-.1.1c-2.5 2.5-7.6 7.9-6.3 4.4 1.7-4.3 8-11.7 2.3-13.7-.8-.2-.9.1-1.1.8-.1.3-.9 2.3-2.4 3.9-3.1 3.2-3.5 3.4-6.7 6.1-2 1.7-3 1.8-2-.4 1.1-2.4 6.6-9.3 4.8-12.1-.4-.7-.9-.9-2.1-1.3-.7-.2-.8.5-1 .9-.2.4-.4.9-1.6 2.8-.7 1.1-1.5 2.4-2.3 3.8-1-.8-2.4-1.5-4.1-2.2-.1-2.5-.5-3.9-1.7-5.3-1.5-1.7-3.9-2.9-12.2-3.8-3.8-.4-7.4-.3-8.5-.8-.5-.3-1-1.8-1-2.3 0-.9 1.3-1.9 4.4-3.2 5.8-2.6 16.3-5.1 22.4-5.8 2.9-.2.3 2 2.9.9 1.8-.7 1.9-1.1 1.9-2.8.1-1.7-.8-2.5-3-2.5-6.2 0-17.8 2.5-25.4 5.6-6.4 2.7-8.9 4.8-8.9 7.1 0 1.8 1 4.8 2.1 6 .9 1 2.5 1.6 4.6 1.5l8.4-.1c3.8 0 7.4.5 9.3 1.3 1.1.5 1.7 1.3 1.7 2.3 0 .3-.1.5-.2 1-2.5-.6-4.2-.8-7.3-.8-10.8 0-25.4 2.8-34.6 6.6-3.4 1.4-4.6 3-4.6 6.2 0 5.9 3.4 9.9 8.3 9.9 5.7 0 12.7-1.3 20.2-3.6 8.9-2.8 15-6.4 18.8-10.9 1-1.3 2-3 2.4-4.6 1 .2 2.4.7 3.7 1.4-2.4 4.3-4.2 9.1-.6 10.6 3.1 1.3 7.6-5.3 11.2-8.5.3-.2.9-.8.5-.2-2.7 4.5-2 7.1-.3 8.4 2.1 1.7 4.9-1.3 7.1-3.8-.4 1.9-.1 3.4 1.6 4.3.5.2.9-.1 1-.5 1.8-4.1 19.9-22.4 11.7-8.7-2.9 4.8-2 7.8.6 9.1 2.6 1.3 5.8-1.9 9.6-6.3.9-1 1.3-1.6 1-1.8M32.1 36c-7.6 3.3-17.8 5.6-24.7 5.6-3.3 0-5.2-.8-5.2-2.1 0-1.7 2-3.5 5.9-5.6 7.4-4 23.1-7.9 31.9-7.9 2 0 3.3.1 5.6.5-2.9 3.8-6.9 6.6-13.5 9.5"/><path class="st1" d="M51.4 44.9c0-.1.1-.2.2-.2H54c1.2 0 2.1.9 2.1 2 0 .9-.6 1.6-1.4 2l1.3 2.4c.1.1 0 .3-.2.3h-.5c-.1 0-.1 0-.2-.1L54 48.8h-1.8v2.4c0 .1-.1.2-.2.2h-.4c-.1 0-.2-.1-.2-.2v-6.3zm2.6 3.2c.7 0 1.4-.6 1.4-1.4 0-.7-.6-1.3-1.4-1.3h-1.9v2.7H54zM58.4 44.9c-.1-.1 0-.2.2-.2h.4c.1 0 .1.1.2.1l2.4 5.4 2.4-5.4s.1-.1.2-.1h.4c.1 0 .2.1.2.2l-2.9 6.4c0 .1-.1.1-.2.1h-.1c-.1 0-.1-.1-.2-.1l-3-6.4zM70.9 44.9c0-.1.1-.2.2-.2h2.5c1.2 0 2.1.9 2.1 2 0 .9-.6 1.6-1.4 2l1.3 2.4c.1.1 0 .3-.2.3H75c-.1 0-.1 0-.2-.1l-1.3-2.5h-1.8v2.4c0 .1-.1.2-.2.2h-.4c-.1 0-.2-.1-.2-.2v-6.3zm2.7 3.2c.7 0 1.4-.6 1.4-1.4 0-.7-.6-1.3-1.4-1.3h-1.9v2.7h1.9zM78.9 44.9c0-.1.1-.2.2-.2h3.8c.1 0 .2.1.2.2v.3c0 .1-.1.2-.2.2h-3.2v2.3h2.8c.1 0 .2.1.2.2v.3c0 .1-.1.2-.2.2h-2.8v2.4h3.2c.1 0 .2.1.2.2v.3c0 .1-.1.2-.2.2h-3.8c-.1 0-.2-.1-.2-.2v-6.4zM85.7 50.4c0-.1.1-.1.1-.2.1-.1.2-.2.3-.1.1.1.8.7 1.6.7s1.3-.5 1.3-1.1c0-.7-.6-1.1-1.7-1.5-1.1-.5-1.7-.9-1.7-2 0-.6.5-1.7 2.1-1.7.9 0 1.7.5 1.7.5.1 0 .2.1.1.3 0 .1-.1.1-.1.2-.1.1-.2.2-.3.1-.1 0-.7-.4-1.3-.4-1 0-1.3.7-1.3 1.1 0 .6.5 1 1.3 1.3 1.3.5 2.1 1 2.1 2.1 0 1-1 1.7-2.1 1.7s-1.9-.7-2-.8c-.1 0-.2 0-.1-.2M95.7 44.6c1.9 0 3.5 1.5 3.5 3.5 0 1.9-1.5 3.4-3.5 3.4-1.9 0-3.5-1.5-3.5-3.4.1-2 1.6-3.5 3.5-3.5m0 6.2c1.5 0 2.8-1.2 2.8-2.8 0-1.5-1.3-2.8-2.8-2.8-1.5 0-2.8 1.3-2.8 2.8 0 1.6 1.3 2.8 2.8 2.8M102.2 44.9c0-.1.1-.2.2-.2h2.5c1.2 0 2.1.9 2.1 2 0 .9-.6 1.6-1.4 2l1.3 2.4c.1.1 0 .3-.2.3h-.5c-.1 0-.1 0-.2-.1l-1.3-2.5h-1.8v2.4c0 .1-.1.2-.2.2h-.4c-.1 0-.2-.1-.2-.2v-6.3zm2.6 3.2c.7 0 1.4-.6 1.4-1.4 0-.7-.6-1.3-1.4-1.3h-1.9v2.7h1.9zM111 45.3h-1.7c-.1 0-.2-.1-.2-.2v-.3c0-.1.1-.2.2-.2h4.1c.1 0 .2.1.2.2v.3c0 .1-.1.2-.2.2h-1.7v5.9c0 .1-.1.2-.2.2h-.4c-.1 0-.2-.1-.2-.2v-5.9zM115.8 50.4c0-.1.1-.1.1-.2.1-.1.2-.2.3-.1.1.1.8.7 1.6.7s1.3-.5 1.3-1.1c0-.7-.6-1.1-1.7-1.5-1.1-.5-1.7-.9-1.7-2 0-.6.5-1.7 2.1-1.7.9 0 1.7.5 1.7.5.1 0 .2.1.1.3 0 .1-.1.1-.1.2-.1.1-.2.2-.3.1-.1 0-.7-.4-1.3-.4-1 0-1.3.7-1.3 1.1 0 .6.5 1 1.3 1.3 1.3.5 2.1 1 2.1 2.1 0 1-1 1.7-2.1 1.7s-1.9-.7-2-.8c-.1 0-.2 0-.1-.2"/><path class="st2" d="M106.2 37.8c-.3 0-1.1-.1-1.8-.9-.5-.6-1.5-3-1.9-5-.2.1-.3.2-.5.2-.5.2-1 .3-1.6.4.4 1.6.8 3 1.5 3.8 1.7 2 3.8 2.1 4 2.1.1 0 .1 0 .2-.1.3-.1.2-.5.1-.5"/><path class="st3" d="M110.9 33.9c-.3.1-1.1.2-2-.3-.7-.4-2.5-2.3-3.5-4.1l-.4.4c-.4.4-.9.7-1.3.9.9 1.4 1.8 2.6 2.7 3.1 2.3 1.3 4.3.7 4.5.6.1 0 .1-.1.1-.1.2-.1 0-.4-.1-.5"/><path class="st4" d="M110.9 33.9c-.3.1-1.1.2-2-.3-.7-.4-2.5-2.3-3.5-4.1l-.4.4c-.4.4-.9.7-1.3.9.9 1.4 1.8 2.6 2.7 3.1 2.3 1.3 4.3.7 4.5.6.1 0 .1-.1.1-.1.2-.1 0-.4-.1-.5"/><path class="st3" d="M114 28.7c-.2.2-.9.6-2 .4-.8-.1-3.1-1.4-4.7-2.6-.1.2-.2.3-.3.5-.3.5-.6.9-.9 1.3 1.3 1 2.6 1.8 3.6 2 2.6.4 4.3-.8 4.4-1 .1-.1.1-.1.1-.2.2-.2-.1-.4-.2-.4"/><path class="st5" d="M114 28.7c-.2.2-.9.6-2 .4-.8-.1-3.1-1.4-4.7-2.6-.1.2-.2.3-.3.5-.3.5-.6.9-.9 1.3 1.3 1 2.6 1.8 3.6 2 2.6.4 4.3-.8 4.4-1 .1-.1.1-.1.1-.2.2-.2-.1-.4-.2-.4"/><path class="st3" d="M115.2 22.7c-.1.2-.7.9-1.7 1.1-.8.1-3.4-.2-5.3-.9 0 .2 0 .4-.1.6-.1.5-.2 1.1-.4 1.6 1.6.5 3 .8 4.1.6 2.6-.5 3.7-2.3 3.8-2.5V23c0-.2-.3-.3-.4-.3"/><path class="st1" d="M115.2 22.7c-.1.2-.7.9-1.7 1.1-.8.1-3.4-.2-5.3-.9 0 .2 0 .4-.1.6-.1.5-.2 1.1-.4 1.6 1.6.5 3 .8 4.1.6 2.6-.5 3.7-2.3 3.8-2.5V23c0-.2-.3-.3-.4-.3"/><path class="st3" d="M114.2 16.7c-.1.3-.3 1.1-1.2 1.6-.7.4-3.3 1-5.3 1 0 .2.1.4.1.5.1.5.1 1.1.2 1.6 1.7-.1 3.1-.3 4-.8 2.3-1.4 2.7-3.4 2.8-3.6v-.2c-.2-.2-.5-.1-.6-.1"/><path class="st6" d="M114.2 16.7c-.1.3-.3 1.1-1.2 1.6-.7.4-3.3 1-5.3 1 0 .2.1.4.1.5.1.5.1 1.1.2 1.6 1.7-.1 3.1-.3 4-.8 2.3-1.4 2.7-3.4 2.8-3.6v-.2c-.2-.2-.5-.1-.6-.1"/><path class="st3" d="M111.2 11.4c0 .3.1 1.1-.6 1.9-.5.6-2.7 2-4.6 2.7.1.2.2.3.3.5.3.5.5 1 .7 1.5 1.5-.6 2.8-1.4 3.5-2.2 1.7-2.1 1.4-4.1 1.4-4.4 0-.1 0-.1-.1-.2-.2 0-.5.1-.6.2"/><path class="st7" d="M111.2 11.4c0 .3.1 1.1-.6 1.9-.5.6-2.7 2-4.6 2.7.1.2.2.3.3.5.3.5.5 1 .7 1.5 1.5-.6 2.8-1.4 3.5-2.2 1.7-2.1 1.4-4.1 1.4-4.4 0-.1 0-.1-.1-.2-.2 0-.5.1-.6.2"/><path class="st3" d="M106.6 7.4c.1.2.4 1 .1 2-.3.8-1.9 2.8-3.4 4.1.2.1.3.2.4.3.4.4.8.7 1.2 1.1 1.2-1.1 2.2-2.2 2.6-3.2.9-2.5-.1-4.4-.2-4.6-.1-.1-.1-.1-.2-.1-.2.1-.4.3-.5.4"/><path class="st8" d="M106.6 7.4c.1.2.4 1 .1 2-.3.8-1.9 2.8-3.4 4.1.2.1.3.2.4.3.4.4.8.7 1.2 1.1 1.2-1.1 2.2-2.2 2.6-3.2.9-2.5-.1-4.4-.2-4.6-.1-.1-.1-.1-.2-.1-.2.1-.4.3-.5.4"/><path class="st3" d="M100.9 5.3c.2.2.8.8.8 1.9 0 .8-.8 3.3-1.8 5.1.2.1.4.1.5.2.5.2 1 .4 1.5.7.8-1.5 1.3-2.9 1.3-3.9 0-2.7-1.6-4.1-1.8-4.2-.1 0-.1-.1-.2-.1-.1-.1-.3.2-.3.3"/><path class="st9" d="M100.9 5.3c.2.2.8.8.8 1.9 0 .8-.8 3.3-1.8 5.1.2.1.4.1.5.2.5.2 1 .4 1.5.7.8-1.5 1.3-2.9 1.3-3.9 0-2.7-1.6-4.1-1.8-4.2-.1 0-.1-.1-.2-.1-.1-.1-.3.2-.3.3"/><path class="st3" d="M94.9 5.2c.2.1 1 .5 1.4 1.5.3.8.4 3.4.1 5.4h.6c.6 0 1.1 0 1.6.1.2-1.6.2-3.1-.1-4.1-.9-2.5-2.9-3.3-3.1-3.4h-.2c-.3.1-.4.4-.3.5"/><path class="st3" d="M94.9 5.2c.2.1 1 .5 1.4 1.5.3.8.4 3.4.1 5.4h.6c.6 0 1.1 0 1.6.1.2-1.6.2-3.1-.1-4.1-.9-2.5-2.9-3.3-3.1-3.4h-.2c-.3.1-.4.4-.3.5M89.1 7.2c.3 0 1.1.1 1.8 1 .5.6 1.5 3 1.9 5 .2-.1.3-.2.5-.2.5-.2 1-.3 1.6-.4-.4-1.6-.8-3-1.5-3.8-1.7-2-3.8-2.1-4-2.1-.1 0-.1 0-.2.1-.2 0-.2.3-.1.4"/><path class="st10" d="M94.9 5.2c.2.1 1 .5 1.4 1.5.3.8.4 3.4.1 5.4h.6c.6 0 1.1 0 1.6.1.2-1.6.2-3.1-.1-4.1-.9-2.5-2.9-3.3-3.1-3.4h-.2c-.3.1-.4.4-.3.5"/><path class="st3" d="M89.1 7.2c.3 0 1.1.1 1.8 1 .5.6 1.5 3 1.9 5 .2-.1.3-.2.5-.2.5-.2 1-.3 1.6-.4-.4-1.6-.8-3-1.5-3.8-1.7-2-3.8-2.1-4-2.1-.1 0-.1 0-.2.1-.2 0-.2.3-.1.4"/><path class="st11" d="M89.1 7.2c.3 0 1.1.1 1.8 1 .5.6 1.5 3 1.9 5 .2-.1.3-.2.5-.2.5-.2 1-.3 1.6-.4-.4-1.6-.8-3-1.5-3.8-1.7-2-3.8-2.1-4-2.1-.1 0-.1 0-.2.1-.2 0-.2.3-.1.4"/><path class="st3" d="M84.4 11c.3-.1 1.1-.2 2 .3.7.4 2.5 2.3 3.5 4.1l.4-.4c.4-.4.9-.7 1.3-.9-.9-1.4-1.8-2.6-2.7-3.1-2.3-1.3-4.3-.7-4.5-.6-.1 0-.1.1-.1.1-.2.2 0 .5.1.5"/><path class="st12" d="M84.4 11c.3-.1 1.1-.2 2 .3.7.4 2.5 2.3 3.5 4.1l.4-.4c.4-.4.9-.7 1.3-.9-.9-1.4-1.8-2.6-2.7-3.1-2.3-1.3-4.3-.7-4.5-.6-.1 0-.1.1-.1.1-.2.2 0 .5.1.5"/><path class="st13" d="M81.3 16.3c.2-.1.9-.6 2-.4.8.1 3.1 1.4 4.7 2.6.1-.2.2-.3.3-.5.3-.5.6-.9.9-1.3-1.3-1-2.6-1.8-3.6-2-2.6-.4-4.3.8-4.4 1-.2 0-.2.1-.2.1-.1.2.2.5.3.5"/><path class="st1" d="M124.2 45.9c0 .9-.7 1.6-1.6 1.6-.9 0-1.6-.7-1.6-1.6 0-.9.7-1.5 1.6-1.5 1-.1 1.6.6 1.6 1.5m-2.8 0c0 .7.5 1.3 1.2 1.3s1.2-.6 1.2-1.3c0-.7-.5-1.3-1.2-1.3-.6 0-1.2.6-1.2 1.3m1 .8h-.3v-1.6h.6c.3 0 .4 0 .5.1.1.1.2.2.2.3 0 .2-.1.3-.3.4.1.1.2.2.3.4 0 .2.1.3.1.4h-.3c0-.1-.1-.2-.1-.4s-.1-.3-.4-.3h-.2v.7zm0-.9h.2c.2 0 .4-.1.4-.3 0-.2-.1-.3-.4-.3h-.2v.6z"/></svg>