<svg id="Слой_1" xmlns="http://www.w3.org/2000/svg" viewBox="0 0 119.3 9.8"><style>.st0{opacity:0.7;} .st1{fill:#FFFFFF;}</style><g class="st0"><path class="st1" d="M119.2 6.7c.1-.1.1-.3-.1-.3l-.2.3h.3zM118.2 5.9c-.2.1-.5.4-.4.7.3-.3.3-.1.6-.5.2 0 .3.2.2.3.1-.1.3.1.4-.1-.2-.3-.5-.3-.8-.2-.1-.1-.1-.1 0-.2zM101.4 3l.1.1c0-.1-.1-.1-.1-.1zM90.9 1.7c.1 0 .1 0 .1-.1l-.1.1zM89.1 1.2h0zM101.4 3l-.3-.1s.2 0 .3.1zM115.7 6.3c.1 0 .1 0 .2-.1-.1.1-.1.1-.2.1zM106 3.3c.1 0 .1-.1.2-.1l-.2.1zM109.6 3.7c-.1 0-.1.3-.2.4.1-.1.1-.2.2-.2v-.2zM115.1 5.1h.1c0-.1 0 0-.1 0zM103.5 2.9v-.1.1zM4.4 9.1zM.1 8.6v-.2.2zM85.8.6c.1 0 .1 0 0 0 .1 0 .1 0 0 0zM55.5.4c.4.2-.5.3 0 .6-.1-.1.4-.4 0-.6zM115.6 6.3h-.1.1zM55.5 1zM78.2.4c0 .1 0 .1.1.1l-.1-.1zM83.9 1.1h-.1.1zM75.3.7c-.1 0-.1-.1-.2 0 0 0 .1-.1.2 0zM72.2.6c0 .1 0 .1 0 0 .1.1.1 0 .2 0h-.2zM13.5 7.2l-.2-.2c.1.2-.3.4.2.2zM115.7 6.2c0 .1-.1.1-.1.1h.1c.1-.1.1-.1 0-.1zM75.1 2.9l-.5-.1c.1.1.3.1.5.1zM35.1 4.1H35c0 .1.1.1.1 0zM73.2 2.9c-.1-.1-.2-.2-.3-.2l-.1.1.4.1zM13.3 7z"/><path class="st1" d="M10.3 8.2c.5-.1.1-.4.2-.6.5-.2.3.2.5.4.3-.2.5-.5.8-.6 0 .1.1.1 0 .2.3-.4 1.1-.2 1.4-.7l.1.1c-.1-.2-.1-.4-.2-.5.2 0 .3-.3.5-.1-.1 0-.1.1-.2.2l.2-.1c.3.3-.3.2-.2.4.4-.2.8-.6 1.2-.5.1.3-.7.3-.2.5h-.5c.5.5-.3 0 .1.5.7 0 .7-.3 1.4-.3.1-.2-.1-.3 0-.5.9-.5.9.7 1.5.2.1-.3.1-.7.7-.5l-.1.4c.6-.1.3-.6 1-.5-.1.2-.5.2-.4.2.5.2.3-.3.6-.3l.1.3c.7-.2 1.4-.5 2.1-.7 0 .1-.1.2.1.3.9-.3 2-.3 2.9-.2l.3-.3c.1 0 .2.1.1.2.4.1 0-.2.1-.3.2 0 .3.1.2.2.6-.3 1.7-.8 2.4-.5l-.1.1c.5 0 .5-.7 1-.5l-.1.1c1.1 0 2.3-.5 3.2-.1 0-.5 1 0 1-.6.7.2.5.3 1.4.4.2 0 .3-.4.6-.5v.3l.5-.3.3.3.2-.1c-.1 0-.2-.1-.2-.2.4-.2 1.1.1 1.1.3l1-.4c0 .1-.2.2-.3.3.5-.4.1.3.6 0-.1-.1 0-.2 0-.3.3.1.8.1 1.2 0l-.1.2c.8 0 1.6-.2 2.5-.3-.3-.1-.3-.4 0-.5l.1.3c.1-.2-.3-.1 0-.4.3 0 .2.4.1.5l.4-.1c0 .1-.1.2-.1.3.1-.2.7.3.9-.1v.1c.9-.1 1.2-.2 1.9-.3 0-.3.3-.2.5-.5.5.1 1.1.2 1.7.2.4-.2.1-.2.3-.4 0 .3.7.2.4.4.7-.1.9-.1 1.9-.4-.1-.1-.2-.1-.2-.2.2-.1.4.1.4.2 1-.4 2.5.6 3.3 0l.9-.3c.4 0-.2.2.1.3.9-.5 1.5 0 2.2-.3.6.7 2.1-.1 2.9.3l-.1-.2c.2-.2.3.1.4.1 0-.1-.2-.2-.1-.3 1.8-.3 3.7.2 5.5.3.7 0 .4-.9 1.2-.5l-.2.3c1.3-.4 2.7 0 4-.3-.1.1-.1.2-.2.2.3.2 1 0 1-.2.2 0 0 .2.2.3.3.1.7-.3.8-.1l-.1.1c.2-.1.8 0 .7-.2.5.1.9-.1 1.3.1.3-.3.8.2.9-.3 0 .5.9.4 1.2.2-.1.1.3.2.1.3.4 0 .7-.1.6-.3.6.6 1.3-.4 1.7.3 1.1-.2 2-.3 3-.4-.1.4-1.1 0-1 .5.9-.1 1.4-.5 2.3-.4.2.1-.1.2-.2.3.9-.2 1.7.1 2.5-.1 0 0-.1.1-.2.1.2 0 .4.1.4-.1H84c-.2-.3.7-.6.7-.7-.3.6.8.2.3.9.1 0 .2-.1.2-.3.2 0 .2.1 0 .3.6-.1.4-.3.9-.3 0 .1-.1.1-.2.2.3-.2.5-.4 1-.2.1.4.1.5 0 .5.7 0 1.3-.4 2.1-.2-.3.4.3.2.3.5l.4-.1-.1-.2c.4 0 .7-.2 1.1 0l-.3.1h.7l-.4-.2c.4-.2 0-.5.5-.3-.1 0 .4 0 .6.3.2-.1.4-.2.7-.1.1.1-.1.4-.1.5.2-.3.9 0 1.2-.3-.1.1-.1.3-.1.3l.1-.3c.2.1.2.1.1.3.5.1-.1-.5.5-.2-.1 0 0 .1-.1.1.6.2 1.2 0 1.8.1.1.4-.5 0-.4.4.8 0 1.8-.3 2.6-.1l-.1-.1c.2-.5.6.3 1 .1-.1 0-.2.3-.1.2.5.1 1.2 0 2-.1l-.1.1c.3.2.9.2 1.2.3.1-.1.3-.1.2-.3 1 .9 2.1-.2 3 .6-.1 0-.3.1-.2.1h.8c0-.2-.1-.2-.2-.4.1-.1.4-.2.6-.2-.4.1 0 .4.1.5v-.2c.4.5.1-.5.7-.1v.1c.2 0 .5-.2.7-.1.1.3-.3.1-.3.3.3 0 .7-.4 1-.1-.2.1-.4 0-.5.1.3.4.3.3.6.4l.5.2-.1-.1c.5-.6.9 0 1.5-.4-.6.4-.1.2-.2.5.1.1.3.2.3.3.3-.2.4.3.8 0 0 .1.3 0 .2.3.4 0-.1-.2 0-.3.6-.3 1.2.6 2 .3.7-.1.9-.4 1.5-.4.2.2-.2.3-.2.3.3.2.6.2.9.2-.1.1 0 .2.1.3.3 0 .2-.3.5-.1-.1.1-.2.3-.3.3.3 0 .6-.2 1-.2.1.2-.2.2-.4.3.4 0 .9 0 1.1-.3h-.3c.1 0 0 .2-.1.3-.3.2-.4-.2-.4-.3h.2c-.1-.6-.9-.1-1.3-.2l.3-.4-.5.3c-.1-.1-.1-.4.1-.4-.3-.3-.3.1-.5-.2V5l-.3.1c.1-.1 0-.3.2-.2-.5-.3-.9.2-1.1-.2h.1c-.8 0-.1.3-.8.5l-.3-.8-.1.3c-.1 0-.2-.1-.2-.2-.3.2 0 .1-.2.3-.3-.3-1.1 0-1.1-.5-.2.2.3.2-.1.3 0-.5-.5 0-.8-.3.1-.3.5-.1.1-.4-.3.4-.7-.2-1-.1-.1.4-.7.1-1.2.1 0-.1-.9-.3-1.3-.5v-.1c-.1.4-.6.2-1 .2 0-.2.1-.3.3-.4h-.3c-.1.1-.2.2-.4.2l.1-.3c-.4 0-.9.2-1.4-.1-.1.3.4.8-.3.9 0-.1 0-.4.2-.4-.1 0-.2.1-.3 0l.3-.2c-.2-.1-.2.2-.4.1 0-.2-.1-.2-.1-.3.1 0 .2.1.3 0-.2-.1-.5-.2-.6-.4 0 .1 0 .3-.2.3-.4 0-.1-.3-.4-.4-.1.1-.4 0-.4.2-.1 0-.1-.2-.2-.2-.2.1-1.1-.1-.8.3h.1c-.8.2-1.5-.3-2.3-.3v-.1c-.4.1-1 0-1.3.1-.1 0-.3-.2-.2-.3-.3 0-.4.1-.9-.1.4-.1-.1-.2.4-.1-.4-.1-.5-.3-1-.1.1.1-.3 0-.6 0l.3.2c-.2 0-.4 0-.6-.1l.1-.3c-.9-.5-1.7.5-2.3-.2-.2.3.5.3.3.5-.4-.1-.8-.6-.9-.6-.6-.2-.6.5-1.2.3.1.1.1.4-.3.5-.4-.1-.5-.5-.2-.6.1 0 .1 0 .1.1.1 0 .3-.1.2-.2l-.1.1c-.2-.1-.8-.2-.6-.4-.3.1-.1.2.1.3-.5-.2-.8-.1-1.4-.2.1.1.2.2.1.2-.8-.2-.4.2-.9.2-.3-.2.1-.4-.4-.3-.3-.1 0-.3.1-.4-.5.2-.9-.2-1.2-.3l.3-.1h-.4l.1.2c-.2-.1-.3-.1-.3-.2-.2.1.1.4-.2.6-.2-.1-.6.1-.7-.2.6.1-.1-.3.5-.3h-.4s0-.1.1-.1c-.6-.3-.3.3-.9.3.1-.2-.1-.3-.2-.3.3 0 .1.3-.1.4-.4-.2-.4.1-.7 0l.2.1c-.1.2-.3.1-.6.2 0-.1.3-.1.2-.1-.4.3-.8-.4-1.3-.2-.2-.1 0-.3-.2-.4-.5.2-.5-.3-1.1-.1.1.2.2.2-.2.4l1-.2-.6.3c.3 0 .6-.1.7-.1-.3.2-.2.1-.1.3-.3-.4-.7.2-1.1-.1V.5c-.6-.3-1.1.3-1.9.1l.3.1c-.1.2-.5 0-.8.1 0-.2-.1-.3-.2-.4 0 .1-.6 0-.7.4l-.3-.3c-.6-.1-.8.5-1.4.4.2-.2-.1-.4.3-.5-.2 0-.4-.1-.4.1-.1-.1-.6.2-.8 0 0 .3 0 .5-.3.5V.9c0 .1-.4.1-.2.3-.6-.6-1.8 0-2.3-.5-.5.1-1 .1-1.4.1 0-.1 0-.1.1-.1-.6-.2-.4.6-1 .3-.3-.3.3-.2.1-.3-.1-.7-.8.1-1.2-.3h.1c-.3-.2-.8.2-1.3.2V.5c-.4.3-1.1.4-1.6.5.2-.3.2-.1.1-.4-.2 0 .1.4-.4.5-.2-.1-.5-.3-.5-.5h.4c-.2-.4-.6 0-.8 0V.4c-.7.1-.7.5-1.4.4l.2.2c-.4.4-.3-.2-.7.1l-.1-.4c-.3.1-.9.4-1.4.5.3-.3.8-.5 1.1-.6-.3 0-.9 0-1 .2.1 0 .2-.1.3-.1-.3.3-.7.5-1.2.5.1-.8-1.3-.2-1.7-.8-.9.3-1.8-.1-2.9 0 .4.6-.3 0-.2.6h-.4l-.8-.3c-.2-.2.2-.1.2-.3-.5 0-.2-.3-.6-.4.1.2-.2.3-.5.2l.4.3c-.7.4-.7-.5-1.4-.1l.2-.2c-.4.1-1.4 0-1.8.6-.1-.1-.2-.2 0-.3-.9 0-2 .6-2.8.4l.1-.2s-.1.3-.4.2c0-.1.1-.2 0-.2-.1.1-.4.3-.7.2l.2-.2c-.9-.1-1.4.5-2.1.6 0-.4-.8-.5-1.1-.6V.6c-1.1 0-1.8.5-2.7.8-.6-.4-2.1 0-3.1-.2.2.1 0 .3-.2.4-.2-.1-.6.4-.6 0h.1c-.2-.4-.7-.2-1-.2v.5c-1-.7-2.5.6-3.1-.1-.2.2-.5.3-.7.4v-.3c-.6 0-1 0-1.8.2l.1-.2c-.4 0-.5.9-.9.9l-.2-.4c-.8.1-1.6-.2-2.3.3 0-.1 0-.2.1-.2-.4 0-1.5-.1-1.2.5 0-.4-.8 0-1.2.3V3c-.3.4-.3.5-.8.7-.1 0-.1-.2 0-.2-.4-.1-.3.3-.8.2l.2-.2c-.4 0-.4.1-.6.4-.2.1-.8 0-.9-.2 0 .2-.2.4-.5.4 0-.1 0-.2.1-.2-.7-.1-.9.5-1.4.3.1-.2.1-.2 0-.3.5-.1 1-.1.9-.1 0-.3-.5-.2-.2-.6-.3.2-.8.8-1.3.7l-.1-.1c-.1 0-.2 0-.3.1h-.4c-.1-.2-.5 0-.7 0 .1.3-.2.3.1.5l.2-.1h.1c.1 0 .3-.1.5-.1-.1.2-.3.3-.6.2-.1.2-.2.4-.2.5-.4-.3-1-.5-1.1-.7-.6.3-1.5.3-1.8.9-.2.1-.2-.1-.3-.2.1-.1.2-.1.3-.2-.2.2-1 .2-1 .6-.5-.1.2-.4-.4-.2V5c-1.4-.3-1.9 1.3-3.4.8.1 0 .2 0 .2.1-1.7 0-3.2.9-4.9.7-.5 0-.5.2-.7.5l-.2-.3-.3.4c-.6.4-1.3-.5-2.1.2l.1.2c-.3 0-.9.3-.9.1 0 0-.1.2-.2.1v-.2l-.7.5c-.6 0 0-.6-.9-.5-.2.1-.7.6-.6.7.1 0 .3 0 .4.2l-.3.1c.1.5-.1 1 .7 1.1l.4-.4.2.2-.3.2c.3.2.4-.1.5-.2.1.1.2.2.3.2l.4-.5c.1.2-.1.4.2.4.2-.2-.3-.4 0-.6.3.2.2.3.5.1 0 .1 0 .2-.1.3.2-.2.6-.2.7-.5.3.2.8-.2.9.2 0-.1.3-.4.5-.5-.3.6.8-.1.8.4.2-.5 1-.4 1.5-.8l-.1.1c.3 0 .4.1.6.1 0-.4.4-.6.6-.8.4.3-.1.5.1.8-.1-.2.6-.4.4-.6.3.2.3.1.5.4 0-.5.2-.1.4-.5.5.2.2.4.6.2.2.1-.1.3-.1.3zm10.5-2.6c-.1 0-.2 0-.2.1 0-.1 0-.1.2-.1zm.8-.2c-.1 0-.2 0-.4.1 0-.1 0-.2.1-.2 0 .1.2.1.3.1zm-2.1-1.6c.1-.1.2 0 .2 0-.1 0-.1 0-.2.1-.1 0-.1 0 0-.1z"/><path class="st1" d="M19.3 4.2c-.1 0-.1 0 0 0-.1.1 0 .1 0 0zM101.5 3zM34.1 4.4v-.1l-.1.1zM106.4 4.6c0 .1 0 0 0 0zM108.5 5l.3.1c-.2-.1-.2-.1-.3-.1zM110.1 5.3v-.1.1zM83.9 3s-.1 0 0 0c-.2 0-.1 0 0 0zM91.7 2.9c-.1 0-.2.1-.3.1.2 0 .3 0 .3-.1zM75.1 2.9z"/><path class="st1" d="M91.1 2.9c.2.1.3.1.4.1-.1 0-.3-.1-.4-.1zM117.2 6.6c.1 0 .1 0 0 0zM117.3 6.6c0-.1 0-.1 0 0zM117.6 6.5h-.2c0 .1.1.1.2 0zM115 6.1c0 .1 0 0 0 0zM114.4 6c.2 0 .4.3.6.3v-.1c-.1.1-.5-.3-.6-.2zM111.8 4.3l.5.2c-.1-.1-.2-.3.1-.3-.6-.4.1.3-.6.1zM110.1 3.9c.3 0 0-.2 0-.2-.1.1-.2.1 0 .2zM97.6 2.3l.1-.3c-.2.1 0 .2-.1.3zM95.1 3.4l.2.2.2-.2zM93.9 1.5h.1-.4zM72.7.4l.1.3c.2 0 .2-.4-.1-.3zM63.6.7c-.1-.2-.4-.3-.5-.1.2 0 .4.1.5.1zM36.3 1.6l.1-.1-.3.1z"/></g></svg>